<svg preserveAspectRatio="none" width="100%" height="100%" overflow="visible" style="display: block;" viewBox="0 0 48.4068 39.8838" fill="none" xmlns="http://www.w3.org/2000/svg">
<g id="Group">
<path id="Vector" d="M38.1648 9.64334C29.3085 5.53368 22.2294 12.6097 22.2294 12.6097L21.908 12.5377C21.908 12.5377 18.1226 3.17504 8.39266 3.37074C-1.27699 3.56644 -6.95026 25.4022 16.4156 39.8014L16.7971 39.8838C43.8079 36.0934 46.9809 13.7324 38.1648 9.64334Z" fill="var(--fill-0, #F18904)"/>
<path id="Vector_2" d="M43.3554 6.92452C34.4991 2.81487 27.4201 9.89089 27.4201 9.89089L27.0988 9.81885C27.0988 9.81885 23.3132 0.456227 13.5934 0.651925C3.9237 0.847622 -1.74957 22.6834 21.6162 37.0826L21.9978 37.1651C49.0086 33.3747 52.1816 11.0136 43.3655 6.92452H43.3554Z" stroke="var(--stroke-0, #020B18)" stroke-width="1.29779" stroke-linecap="round" stroke-linejoin="round"/>
</g>
</svg>
