<svg width="190" height="54" viewBox="0 0 190 54" fill="none" xmlns="http://www.w3.org/2000/svg">
<path d="M0 6C0 2.68629 2.68629 0 6 0H184C187.314 0 190 2.68629 190 6V54H0V6Z" fill="white"/>
<path d="M56.4215 24.4008L56.6491 27.0972V32.4376C56.6491 33.0854 56.474 33.9959 55.0207 33.9959C53.655 33.9959 53.3398 33.3131 53.3398 32.4376V21.7043C53.3398 20.6188 53.8651 20.0234 55.441 20.0234C57.2269 20.0234 57.9973 20.2511 58.2424 21.6868L59.6958 30.4415C59.7483 30.7042 59.7833 30.7392 59.8358 30.7392C59.9409 30.7392 59.9584 30.6691 59.9934 30.4415L61.4467 21.6868C61.6568 20.4086 62.3221 20.0234 63.933 20.0234C65.4388 20.0234 66.3493 20.2686 66.3493 21.7043V32.4376C66.3493 32.8403 66.3493 33.9959 64.7034 33.9959C63.6353 33.9959 63.0225 33.5757 63.0225 32.4376V27.0972L63.2676 24.4008H63.2326L61.8669 32.6652C61.6743 33.8734 60.4137 33.9959 59.8709 33.9959C59.3806 33.9959 58.0499 33.9084 57.8398 32.6652L56.474 24.3833H56.439L56.4215 24.4008Z" stroke="#386F6B" stroke-width="0.875469"/>
<path d="M78.1567 25.3633C79.0847 25.3633 79.61 25.836 79.61 26.8691C79.61 27.552 79.4349 28.3924 78.1567 28.3924H73.8844V30.1434C73.8844 30.371 73.9895 30.476 74.1996 30.476H79.0321C79.4699 30.476 80.5204 30.5286 80.5204 32.0519C80.5204 33.2075 79.9426 33.6452 79.0321 33.6452H72.7463C71.0128 33.6452 70.3125 32.9098 70.3125 31.2114V22.8244C70.3125 20.8809 71.293 20.3906 72.7463 20.3906H78.6645C79.3473 20.3906 80.1352 20.6533 80.1352 21.984C80.1352 23.1571 79.5224 23.5773 78.6645 23.5773H74.1996C73.972 23.5773 73.8844 23.6999 73.8844 23.8925V25.3633H78.1567Z" stroke="#386F6B" stroke-width="0.875469"/>
<path d="M91.0396 21.5817C91.0396 21.144 91.0746 20.0234 92.808 20.0234C93.9812 20.0234 94.629 20.4436 94.629 21.5817V32.4375C94.629 33.4181 93.9636 33.9959 92.2827 33.9959C91.4248 33.9959 90.2341 33.9083 89.8314 32.7527L87.1349 24.961H87.0999L87.2925 26.2567V32.42C87.2925 32.8577 87.2575 33.9783 85.5241 33.9783C84.351 33.9783 83.7031 33.5581 83.7031 32.42V21.5817C83.7031 20.5837 84.3685 20.0059 86.0494 20.0059C86.9248 20.0059 88.0805 20.0759 88.4832 21.249L91.1971 29.0407H91.2321L91.0396 27.745V21.5817Z" stroke="#386F6B" stroke-width="0.875469"/>
<path d="M105.922 21.5818C105.922 21.144 105.957 20.0234 107.691 20.0234C108.864 20.0234 109.512 20.4437 109.512 21.5818V28.6556C109.512 30.319 109.109 31.8948 107.761 32.8928C106.64 33.7158 105.31 33.9784 104.031 33.9784C101.965 33.9784 100.389 33.1905 99.5489 32.1399C98.8836 31.282 98.5859 30.0038 98.5859 28.6731V21.5818C98.5859 21.144 98.621 20.0234 100.354 20.0234C101.528 20.0234 102.175 20.4437 102.175 21.5818V28.568C102.175 29.1458 102.175 30.7742 104.049 30.7742C105.922 30.7742 105.922 29.1108 105.922 28.568V21.5818Z" stroke="#386F6B" stroke-width="0.875469"/>
<path d="M123.512 26.9961H136.661" stroke="#386F6B" stroke-width="1.38271" stroke-linecap="round" stroke-linejoin="round"/>
<path d="M130.078 20.4258V33.5754" stroke="#386F6B" stroke-width="1.38271" stroke-linecap="round" stroke-linejoin="round"/>
</svg>
