<svg preserveAspectRatio="none" width="100%" height="100%" overflow="visible" style="display: block;" viewBox="0 0 74.9332 8.95631" fill="none" xmlns="http://www.w3.org/2000/svg">
<g id="Group">
<path id="Vector" d="M3.61903 0.230731C6.22832 0.230731 7.16811 2.23444 7.16811 4.49861C7.16811 5.68079 6.85814 8.71635 3.61903 8.71635H1.4497C0.449975 8.71635 2.44141e-05 8.36575 2.44141e-05 7.26372V1.67339C2.44141e-05 0.591399 0.439977 0.220703 1.4497 0.220703H3.61903V0.230731ZM1.94956 1.55318C1.65964 1.55318 1.51963 1.72348 1.51963 1.98396V6.96311C1.51963 7.24363 1.66964 7.39396 1.94956 7.39396H3.44915C5.16868 7.39396 5.61848 5.67076 5.61848 4.48858C5.61848 2.86559 4.90876 1.56321 3.44915 1.56321H1.94956V1.55318Z" fill="var(--fill-0, #386F6B)"/>
<path id="Vector_2" d="M17.2709 4.47803C17.2709 7.07281 15.7614 8.94629 13.2221 8.94629C10.6828 8.94629 9.17317 7.06279 9.17317 4.47803C9.17317 1.89326 10.6228 0.00976562 13.2221 0.00976562C15.8214 0.00976562 17.2709 2.05356 17.2709 4.47803ZM10.7427 4.47803C10.7427 6.34146 11.6425 7.60378 13.2221 7.60378C14.8017 7.60378 15.7214 6.42161 15.7214 4.47803C15.7214 2.65466 14.8417 1.35227 13.2221 1.35227C11.6026 1.35227 10.7427 2.57452 10.7427 4.47803Z" fill="var(--fill-0, #386F6B)"/>
<path id="Vector_3" d="M21.4984 6.70216C21.5084 6.77229 21.5485 6.88248 21.6484 6.88248C21.7284 6.88248 21.7684 6.77224 21.7784 6.71213L22.7082 0.791236C22.7882 0.270275 23.168 0.00976562 23.8079 0.00976562C24.7576 0.00976562 25.0275 0.320368 25.0974 0.791236L26.0673 6.71213C26.0773 6.79227 26.1073 6.90248 26.1972 6.90248C26.2872 6.90248 26.3271 6.81232 26.3371 6.72215L27.3868 0.550802C27.4568 0.120008 27.8267 0.0197939 28.0966 0.0197939C28.4865 0.0197939 28.8864 0.260281 28.8864 0.691075C28.8864 0.771223 28.8764 0.861338 28.8564 0.951504L27.4369 8.00455C27.3269 8.50547 27.1369 8.94629 26.3771 8.94629C25.6673 8.94629 25.1575 8.79602 25.0475 8.08471L24.0278 1.58267C24.0178 1.53258 23.9678 1.43243 23.8878 1.43243C23.8278 1.43243 23.7878 1.50253 23.7678 1.58267L22.7481 8.08471C22.6281 8.8361 22.0583 8.94629 21.6684 8.94629C20.7487 8.94629 20.4987 8.6858 20.3587 8.00455L18.9392 0.951504C18.9292 0.891394 18.9092 0.771223 18.9092 0.691075C18.9092 0.310374 19.239 0.0197939 19.7289 0.0197939C20.2987 0.0197939 20.3988 0.50071 20.4088 0.550802L21.4884 6.70216H21.4984Z" fill="var(--fill-0, #386F6B)"/>
<path id="Vector_4" d="M36.0851 6.6821C36.0851 6.6821 36.115 6.74221 36.145 6.74221C36.175 6.74221 36.1851 6.71215 36.1851 6.67207V0.731127C36.1851 0.350425 36.355 0.0197939 36.9349 0.0197939C37.4747 0.0197939 37.7047 0.280296 37.7047 0.731127V8.05463C37.7047 8.81603 37.0448 8.95631 36.575 8.95631C36.2051 8.95631 35.6851 8.9162 35.3752 8.28503L32.506 2.27395C32.506 2.27395 32.4661 2.22387 32.4461 2.22387C32.4161 2.22387 32.4061 2.25392 32.4061 2.28398V8.22492C32.4061 8.60563 32.2361 8.94629 31.6563 8.94629C31.1264 8.94629 30.8965 8.68577 30.8965 8.22492V0.901424C30.8965 0.150039 31.5363 0.00976562 32.0362 0.00976562C32.3861 0.00976562 32.916 0.0398553 33.2159 0.671019L36.0851 6.6821Z" fill="var(--fill-0, #386F6B)"/>
<path id="Vector_5" d="M41.9098 6.96259C41.9098 7.23309 42.0497 7.39344 42.3396 7.39344H45.5088C45.7687 7.39344 46.1786 7.48357 46.1786 8.05463C46.1786 8.56557 45.8487 8.71582 45.5088 8.71582H41.8397C40.84 8.71582 40.3902 8.36522 40.3902 7.26319V0.721099C40.3902 0.350416 40.5601 0.00976562 41.14 0.00976562C41.6698 0.00976562 41.8998 0.270268 41.8998 0.721099V6.96259H41.9098Z" fill="var(--fill-0, #386F6B)"/>
<path id="Vector_6" d="M56.1016 4.47803C56.1016 7.07281 54.5921 8.94629 52.0528 8.94629C49.5135 8.94629 48.0039 7.06279 48.0039 4.47803C48.0039 1.89326 49.4535 0.00976562 52.0528 0.00976562C54.6521 0.00976562 56.1016 2.05356 56.1016 4.47803ZM49.5635 4.47803C49.5635 6.34146 50.4632 7.60378 52.0428 7.60378C53.6224 7.60378 54.5421 6.42161 54.5421 4.47803C54.5421 2.65466 53.6624 1.35227 52.0428 1.35227C50.4233 1.35227 49.5635 2.57452 49.5635 4.47803Z" fill="var(--fill-0, #386F6B)"/>
<path id="Vector_7" d="M59.2668 8.45559C59.1869 8.68602 59.0169 8.94649 58.677 8.94649C58.3071 8.94649 57.7672 8.68597 57.7672 8.28523C57.7672 8.24516 57.7773 8.11494 57.8373 7.93461L60.3366 1.02184C60.6365 0.180291 61.1963 0 61.7561 0C62.176 0 62.8559 0.0500507 63.2058 1.02184L65.7051 7.93461C65.7351 8.00474 65.7651 8.13498 65.7651 8.24518C65.7651 8.73609 65.1552 8.93646 64.8453 8.93646C64.4754 8.93646 64.3255 8.54575 64.2755 8.44556L63.6456 6.73238H59.8767L59.2568 8.44556L59.2668 8.45559ZM60.3565 5.44002H63.1858L62.0261 2.24413C61.9361 1.99367 61.8461 1.97361 61.7762 1.97361C61.7162 1.97361 61.6162 1.99367 61.5262 2.24413L60.3665 5.44002H60.3565Z" fill="var(--fill-0, #386F6B)"/>
<path id="Vector_8" d="M71.3841 0.230731C73.9934 0.230731 74.9332 2.23444 74.9332 4.49861C74.9332 5.68079 74.6232 8.71635 71.3841 8.71635H69.2147C68.215 8.71635 67.7651 8.36575 67.7651 7.26372V1.67339C67.7651 0.591399 68.205 0.220703 69.2147 0.220703H71.3841V0.230731ZM69.7145 1.55318C69.4246 1.55318 69.2847 1.72348 69.2847 1.98396V6.96311C69.2847 7.24363 69.4346 7.39396 69.7145 7.39396H71.2141C72.9337 7.39396 73.3836 5.67076 73.3836 4.48858C73.3836 2.86559 72.6737 1.56321 71.2141 1.56321H69.7145V1.55318Z" fill="var(--fill-0, #386F6B)"/>
</g>
</svg>
