<svg preserveAspectRatio="none" width="100%" height="100%" overflow="visible" style="display: block;" viewBox="0 0 382.28 36.5476" fill="none" xmlns="http://www.w3.org/2000/svg">
<g id="Group">
<path id="Vector" d="M3.81462 19.7815C1.99512 19.7815 0.315582 18.9399 0.315582 16.3552C0.315582 14.5619 1.03539 12.8888 3.81462 12.8888H30.7974C33.0367 12.8888 34.2964 14.0709 34.2964 16.3151C34.2964 18.2186 33.4266 19.7815 30.7974 19.7815H21.9098C21.7198 22.3362 21.23 29.1888 14.9217 33.1862C12.0725 35.0095 8.34343 36.1917 6.48394 36.1917C3.86466 36.1917 2.9849 33.5268 2.9849 32.2344C2.9849 30.7116 3.97458 29.6797 5.56415 29.2289C10.4328 27.8964 13.882 26.9046 14.4218 19.7815H3.82463H3.81462ZM24.9389 3.40129C26.1885 3.40129 28.358 3.82207 28.358 6.78754C28.358 9.56265 26.6084 10.2539 24.9389 10.2539H6.8138C6.05401 10.2539 3.35479 10.2138 3.35479 6.86764C3.35479 4.6235 4.53443 3.40129 6.8138 3.40129H24.9389ZM27.7181 2.48957C27.5982 2.21907 27.5982 1.9987 27.5982 1.83841C27.5982 0.65623 28.9278 0.505935 29.2277 0.505935C29.9475 0.505935 30.3675 0.846563 30.8973 2.25917C30.9773 2.52967 31.697 4.58346 31.697 5.64542C31.697 7.08808 30.2174 7.08808 30.0975 7.08808C29.1877 7.08808 28.9178 6.55706 28.7679 5.98601C28.6879 5.71551 28.348 4.46322 28.278 4.19273C28.198 3.92223 27.7881 2.75004 27.7081 2.47954L27.7181 2.48957ZM32.047 2.29922C31.937 2.02872 31.9369 1.80835 31.9369 1.64806C31.9369 0.465876 33.2666 0.315582 33.5665 0.315582C34.2863 0.315582 34.7062 0.656188 35.2361 2.10887C35.3161 2.33929 36.0359 4.3931 36.0359 5.45506C36.0359 6.89772 34.5563 6.89772 34.4064 6.89772C33.5266 6.89772 33.2666 6.36675 33.1167 5.83577C33.0367 5.53522 32.6968 4.27288 32.6268 4.0124C32.5468 3.7419 32.1369 2.56972 32.0569 2.29922H32.047Z" stroke="var(--stroke-0, #386F6B)" stroke-width="0.631164"/>
<path id="Vector_2" d="M48.6241 20.6528C47.6343 20.1919 46.8345 19.8914 44.3252 19.0498C42.9956 18.589 41.2061 17.9879 41.2061 15.8138C41.2061 14.6717 41.886 11.9668 44.5452 11.9668C46.2548 11.9668 50.3236 13.5698 52.2231 14.3612C54.6124 15.353 56.102 15.9642 56.102 18.1282C56.102 19.7311 55.0423 22.1255 52.643 22.1255C51.8832 22.1255 51.7732 22.0453 48.6141 20.6428L48.6241 20.6528ZM74.1571 11.8966C74.1571 13.8803 70.8479 22.6365 64.8096 28.1166C60.8607 31.7332 56.5619 33.5967 51.0934 34.8991C50.2236 35.0894 48.1642 35.5502 46.9146 35.5502C44.1753 35.5502 43.3755 32.9254 43.3755 31.4026C43.3755 28.5474 45.7649 28.0865 46.9146 27.8962C53.6827 26.714 61.0107 25.1911 65.6094 14.1909C67.3589 9.96306 67.4689 9.73268 68.1887 9.16162C68.4186 8.97127 68.8685 8.70075 70.1981 8.70075C71.0379 8.70075 74.1471 9.42208 74.1471 11.8966H74.1571ZM51.9231 10.8648C50.9334 10.444 50.1337 10.1033 47.6344 9.26178C46.2647 8.80093 44.5152 8.19982 44.5152 6.06589C44.5152 4.88371 45.195 2.17872 47.8543 2.17872C49.5638 2.17872 53.6327 3.81175 55.4922 4.58317C57.9215 5.61508 59.3711 6.18614 59.3711 8.35013C59.3711 9.95309 58.3414 12.3475 55.952 12.3475C55.1922 12.3475 55.0822 12.2674 51.9231 10.8648ZM67.0091 2.79986C66.9291 2.52936 66.8991 2.30896 66.8991 2.11861C66.8991 0.976503 68.2287 0.826248 68.5686 0.826248C69.2884 0.826248 69.7083 1.16688 70.1981 2.57948C70.3181 2.84998 71.038 4.8637 71.038 5.96573C71.038 7.40839 69.5584 7.40839 69.4084 7.40839C68.5387 7.40839 68.3087 6.87738 68.1187 6.30632C68.0388 6.03582 67.6989 4.74346 67.6289 4.51304C67.5189 4.21248 67.099 3.03028 67.0191 2.79986H67.0091ZM71.3478 2.6095C71.2679 2.33901 71.2379 2.11861 71.2379 1.92826C71.2379 0.786149 72.5676 0.635894 72.9075 0.635894C73.6273 0.635894 74.0472 0.976522 74.537 2.38913C74.647 2.65963 75.3768 4.67334 75.3768 5.77538C75.3768 7.21804 73.8972 7.21804 73.7472 7.21804C72.8775 7.21804 72.6475 6.68702 72.4575 6.11597C72.3775 5.84547 72.0377 4.55311 71.9677 4.32268C71.8577 4.02213 71.4378 2.83993 71.3579 2.6095H71.3478Z" stroke="var(--stroke-0, #386F6B)" stroke-width="0.631164"/>
<path id="Vector_3" d="M107.369 5.99542C110.788 5.99542 111.858 7.78876 111.858 10.103C111.858 10.9045 110.908 22.596 101.671 29.8695C96.2321 34.1373 87.8744 36.0809 85.9349 36.0809C83.6955 36.0809 82.4058 34.2876 82.4058 32.1537C82.4058 29.6791 83.8455 29.3785 86.2049 28.8375C88.3743 28.3767 93.4229 27.2346 96.8019 24.7199C94.9025 23.2372 94.6025 23.0469 91.6733 21.2936C90.7936 20.7627 89.7339 20.1516 89.7339 18.6288C89.7339 17.6369 90.2638 16.9156 90.4937 16.5749C86.6148 20.2717 85.0651 20.7626 83.9154 20.7626C81.866 20.7626 80.3064 18.7089 80.3064 16.9957C80.3064 15.513 80.7263 15.2024 84.0654 12.7679C86.5747 10.9746 88.7741 8.04921 90.6736 4.62289C91.8933 2.48896 92.4231 1.5773 94.5526 1.5773C96.1821 1.5773 98.6614 2.41883 98.6614 4.62289C98.6614 5.19395 98.4715 5.65479 98.3616 5.99542H107.369ZM93.9928 12.8481C93.233 13.7598 92.8131 14.2907 91.4834 15.6633C92.1333 15.1724 92.8131 14.982 93.4929 14.982C95.5024 14.982 99.7212 17.6069 101.621 19.1297C103.03 16.575 103.79 13.6796 103.79 13.1887C103.79 12.848 103.68 12.8481 102.99 12.8481H93.9828H93.9928Z" stroke="var(--stroke-0, #386F6B)" stroke-width="0.631164"/>
<path id="Vector_4" d="M131.481 13.8813C131.481 20.9643 131.331 26.2942 128.252 31.5138C127.002 33.6077 125.363 35.5512 123.423 35.5512C121.674 35.5512 119.165 34.1086 119.165 31.624C119.165 30.8225 119.314 30.1813 120.414 28.8489C123.833 24.7012 124.063 22.6074 124.063 13.6209V6.38749C124.063 4.37377 125.093 3.04129 127.752 3.04129C129.992 3.04129 131.481 3.91292 131.481 6.38749V13.8913V13.8813ZM134.41 5.9567C134.41 3.97304 135.36 2.6105 138.059 2.6105C140.229 2.6105 141.778 3.41201 141.778 5.9567V25.7532C141.778 25.9836 141.778 26.214 142.078 26.214C142.728 26.214 145.837 24.2705 147.587 18.7904C148.077 17.2676 148.577 15.7047 150.776 15.7047C151.576 15.7047 154.875 16.1655 154.875 18.9807C154.875 20.8441 153.465 24.4608 151.646 27.1257C147.577 33.1468 141.269 35.3509 138.229 35.3509C134.39 35.3509 134.39 32.1149 134.39 31.2433V5.9567H134.41Z" stroke="var(--stroke-0, #386F6B)" stroke-width="0.631164"/>
<path id="Vector_5" d="M169.177 31.3535C167.807 33.6778 166.857 34.9702 164.918 34.9702C162.978 34.9702 160.739 33.1067 160.739 31.1231C160.739 30.021 161.119 29.2997 161.799 28.2678C166.477 21.0746 167.457 14.6727 168.487 6.29728C168.607 5.34553 168.907 3.06134 171.756 3.06134C172.816 3.06134 174.185 3.44207 174.905 4.09327C175.785 4.85467 175.785 5.576 175.785 7.21903C175.785 8.59156 174.415 22.2968 169.177 31.3635V31.3535ZM187.342 6.90846C188.371 15.0234 189.391 21.1848 193.95 28.2678C194.71 29.4099 195.01 30.0912 195.01 31.083C195.01 33.257 192.69 34.9702 190.831 34.9702C189.201 34.9702 187.941 34.2088 185.702 29.7105C181.103 20.5336 179.924 8.19083 179.924 6.47767C179.924 5.82647 179.924 4.49398 181.403 3.6925C182.733 2.9311 184.333 3.04132 184.632 3.08139C186.872 3.42202 187.102 5.21531 187.332 6.8884L187.342 6.90846ZM192.09 9.19264C189.731 9.19264 187.802 7.24907 187.802 4.89473C187.802 2.54039 189.741 0.596832 192.09 0.596832C194.44 0.596832 196.389 2.50032 196.389 4.89473C196.389 7.28915 194.49 9.19264 192.09 9.19264ZM192.09 3.21164C191.181 3.21164 190.461 3.97302 190.461 4.88471C190.461 5.79639 191.181 6.51772 192.09 6.51772C193 6.51772 193.76 5.79639 193.76 4.88471C193.76 3.97302 193.04 3.21164 192.09 3.21164Z" stroke="var(--stroke-0, #386F6B)" stroke-width="0.631164"/>
<path id="Vector_6" d="M214.025 7.13821C216.534 8.66102 217.674 9.53262 217.674 11.3259C217.674 13.1192 216.044 15.704 213.725 15.704C213.155 15.704 212.625 15.5938 211.446 14.8324C208.027 12.6183 207.337 12.1274 204.458 10.6046C203.048 9.84322 201.758 9.12187 201.758 7.32857C201.758 5.08443 203.618 3.33121 205.787 3.33121C207.347 3.33121 212.515 6.22653 214.035 7.13821H214.025ZM222.193 29.6798C215.845 33.9777 207.637 35.0898 206.537 35.0898C203.688 35.0898 202.888 32.4649 202.888 30.7918C202.888 27.8564 204.898 27.4457 206.877 27.1752C216.794 25.8026 222.723 21.9956 226.752 11.9471C226.942 11.4862 227.591 9.55269 227.741 9.17199C228.121 8.26031 228.611 7.07811 230.591 7.07811C232.79 7.07811 234.879 8.14006 234.879 10.5846C234.879 11.877 231.84 23.1878 222.183 29.6998L222.193 29.6798Z" stroke="var(--stroke-0, #386F6B)" stroke-width="0.631164"/>
<path id="Vector_7" d="M267.95 4.24332C272.658 4.24332 272.698 7.28893 272.698 8.62138C272.698 10.2243 271.789 16.7664 269.199 21.6053C265.59 28.3077 260.082 31.7741 254.873 33.8679C254.533 34.0182 250.954 35.4709 248.715 35.4709C245.936 35.4709 245.146 32.6157 245.146 31.3233C245.146 29.0391 246.895 28.5381 248.755 28.0072C258.332 25.3022 262.511 20.6536 264.141 13.5405C264.41 12.4785 264.411 12.0978 264.411 12.0177C264.411 11.5969 264.141 11.5568 263.801 11.5568H245.146C244.386 11.5568 241.457 11.5568 241.457 7.94013C241.457 5.38542 242.866 4.24332 245.146 4.24332H267.95Z" stroke="var(--stroke-0, #386F6B)" stroke-width="0.631164"/>
<path id="Vector_8" d="M282.851 5.9167C282.851 3.48221 284.181 2.21988 286.61 2.21988C289.04 2.21988 290.409 3.44213 290.409 5.9167V26.8954C290.409 27.3863 290.489 27.5766 290.979 27.5766C291.399 27.5766 294.928 27.0456 297.557 25.5228C302.386 22.6675 304.356 18.6301 306.065 15.1637C306.785 13.6409 307.735 13.3003 308.804 13.3003C310.514 13.3003 313.173 14.4824 313.173 16.7667C313.173 18.3997 310.134 25.9035 303.256 30.7024C296.228 35.5814 288.21 35.6114 287.68 35.6114C283.041 35.6114 282.851 32.8663 282.851 31.3435V5.90667V5.9167Z" stroke="var(--stroke-0, #386F6B)" stroke-width="0.631164"/>
<path id="Vector_9" d="M321.338 20.5431C320.769 18.3691 320.659 18.0284 319.509 14.9828C319.359 14.6021 319.169 14.1112 319.169 13.46C319.169 11.3261 321.338 10.4144 322.858 10.4144C324.677 10.4144 325.367 11.5565 325.937 12.8088C326.777 14.7524 328.216 18.9401 328.216 20.2325C328.216 21.9457 326.737 23.3983 324.078 23.3983C322.058 23.3983 321.568 21.3846 321.338 20.5431ZM339.763 29.0688C334.785 34.1381 328.177 35.731 326.617 35.731C324.188 35.731 323.348 33.3667 323.348 32.1144C323.348 30.0606 324.758 29.6399 326.917 28.9586C330.946 27.7063 337.444 25.6425 339.683 14.9027C340.253 12.1275 340.293 11.817 340.633 11.2058C341.243 10.0637 342.263 9.76318 343.292 9.76318C343.672 9.76318 347.091 9.76318 347.091 12.9591C347.091 13.3398 345.952 22.7471 339.753 29.0688H339.763ZM329.806 18.87C329.466 17.0767 329.156 15.8244 328.476 13.7706C328.137 12.8188 328.017 12.358 328.017 11.827C328.017 9.69305 330.106 8.82144 331.626 8.82144C333.675 8.82144 334.325 10.0738 334.815 11.4062C335.655 13.5802 336.674 17.6177 336.674 18.6796C336.674 21.3045 333.895 22.0258 332.375 21.8354C330.326 21.5649 329.986 19.932 329.796 18.87H329.806Z" stroke="var(--stroke-0, #386F6B)" stroke-width="0.631164"/>
<path id="Vector_10" d="M364.94 32.425C364.94 33.6473 364.86 36.232 361.061 36.232C357.262 36.232 357.152 33.8376 357.152 32.425V5.54545C357.152 4.36327 357.192 1.69839 361.031 1.69839C364.87 1.69839 364.94 4.06272 364.94 5.54545V10.9154C371.208 12.859 376.876 15.5639 378.696 16.5157C381.015 17.6979 381.965 18.6496 381.965 20.473C381.965 22.2964 380.635 24.9713 378.086 24.9713C376.946 24.9713 376.796 24.8611 372.957 22.6069C371.858 21.9557 368.359 20.0222 364.94 18.7198V32.425Z" stroke="var(--stroke-0, #386F6B)" stroke-width="0.631164"/>
</g>
</svg>
