<svg preserveAspectRatio="none" width="100%" height="100%" overflow="visible" style="display: block;" viewBox="0 0 52.3517 46.0852" fill="none" xmlns="http://www.w3.org/2000/svg">
<path id="Vector" d="M18.0783 46.0852C17.9578 46.0852 17.8373 46.0647 17.7269 46.0235C17.3654 45.8896 17.1043 45.5702 17.034 45.1891L16.06 39.5551L7.59525 41.1001C7.01286 41.2031 6.42041 41.0795 5.93843 40.7293C5.44641 40.3791 5.12518 39.8538 5.01472 39.2564L0.0342171 10.4889C-0.0661946 9.89149 0.0544073 9.28377 0.395807 8.78937C0.737207 8.29498 1.24924 7.95505 1.83163 7.85205L44.7576 0.0344697C45.9626 -0.181828 47.1174 0.642203 47.3383 1.87819L52.3187 30.6457C52.4191 31.2431 52.2886 31.8508 51.9572 32.3452C51.6158 32.8499 51.1037 33.1795 50.5213 33.2825L28.1495 37.3613L18.7711 45.8174C18.5703 45.9925 18.3293 46.0852 18.0682 46.0852H18.0783ZM16.9135 37.2067C17.4155 37.2067 17.8674 37.5775 17.9578 38.1028L18.7912 42.9026L26.9748 35.5175C27.1153 35.3836 27.2961 35.3012 27.4869 35.26L50.1497 31.1299C50.1497 31.1299 50.2402 31.0578 50.2302 31.0063L45.2497 2.23866C45.2396 2.17686 45.1794 2.14601 45.1292 2.15631L2.20314 9.97389L2.12286 10.0975L7.10324 38.865L7.22373 38.9475L16.7327 37.217C16.7929 37.2067 16.8533 37.1964 16.9235 37.1964L16.9135 37.2067ZM15.2567 34.4567C14.5136 34.4567 13.8008 34.2301 13.1782 33.7769C12.3749 33.2001 11.8427 32.3453 11.672 31.3668C11.3206 29.3377 12.646 27.3909 14.6241 27.0304C16.6022 26.6699 18.5 28.0296 18.8515 30.0587C19.2029 32.0877 17.8774 34.0344 15.8993 34.3949C15.6784 34.4361 15.4675 34.4567 15.2567 34.4567ZM15.2667 29.1523C15.1764 29.1523 15.086 29.1523 14.9956 29.1729C14.1722 29.3274 13.6099 30.1411 13.7605 30.9857C13.8308 31.3977 14.0517 31.7582 14.3931 31.9951C14.7345 32.2319 15.1362 32.3246 15.5278 32.2525C15.9294 32.1804 16.2809 31.9538 16.5118 31.6037C16.7428 31.2638 16.8331 30.8414 16.7628 30.4294C16.6323 29.6673 15.9897 29.142 15.2567 29.142L15.2667 29.1523ZM27.537 32.2216C26.794 32.2216 26.0811 31.995 25.4585 31.5418C24.6552 30.965 24.1231 30.1101 23.9524 29.1317C23.6009 27.1026 24.9263 25.1559 26.9044 24.7954C27.8684 24.6203 28.8324 24.8366 29.6357 25.4134C30.439 25.9902 30.9712 26.8451 31.1419 27.8235C31.3126 28.802 31.1016 29.8012 30.5393 30.6149C29.977 31.4389 29.1436 31.9848 28.1897 32.1599C27.9688 32.2011 27.7579 32.2216 27.5471 32.2216H27.537ZM27.5471 26.9172C27.4567 26.9172 27.3663 26.9172 27.2759 26.9378C26.4525 27.0923 25.8903 27.906 26.0409 28.7506C26.1112 29.1626 26.3321 29.523 26.6735 29.7599C27.0149 29.9968 27.4165 30.0895 27.8081 30.0174C28.2098 29.9453 28.5612 29.7187 28.7922 29.3685C29.0231 29.0286 29.1135 28.6063 29.0432 28.2046C28.9126 27.4424 28.27 26.9068 27.537 26.9068L27.5471 26.9172ZM39.8175 29.9865C39.0744 29.9865 38.3514 29.76 37.7389 29.3068C36.9356 28.73 36.4034 27.875 36.2427 26.8965C36.072 25.918 36.2829 24.919 36.8452 24.1053C37.3975 23.2916 38.2409 22.7354 39.1948 22.5603C41.1729 22.1998 43.0708 23.5595 43.4222 25.5886C43.7737 27.6176 42.4482 29.5643 40.47 29.9248C40.2491 29.966 40.0384 29.9865 39.8175 29.9865ZM39.8274 24.6822C39.737 24.6822 39.6468 24.6821 39.5564 24.7027C39.1547 24.7747 38.8032 25.0014 38.5722 25.3515C38.3413 25.6914 38.2509 26.1034 38.3212 26.5154C38.3915 26.9274 38.6124 27.288 38.9538 27.5249C39.2852 27.7618 39.6969 27.8545 40.0985 27.7824C40.9319 27.6279 41.4842 26.8142 41.3336 25.9696C41.203 25.2178 40.5604 24.6822 39.8274 24.6822Z" fill="var(--fill-0, #4C4B4C)"/>
</svg>
