<svg preserveAspectRatio="none" width="100%" height="100%" overflow="visible" style="display: block;" viewBox="0 0 73.2712 8.94649" fill="none" xmlns="http://www.w3.org/2000/svg">
<g id="Group">
<path id="Vector" d="M3.36907 6.54177C3.42906 6.75216 3.51901 6.80226 3.59899 6.80226C3.69896 6.80226 3.76899 6.73212 3.82897 6.54177L5.73842 0.510689C5.79841 0.320338 5.96833 0.00976562 6.39821 0.00976562C6.8281 0.00976562 7.22801 0.320311 7.22801 0.670958C7.22801 0.731069 7.19802 0.931433 7.16802 1.04164L4.95861 8.00449C4.72867 8.72582 4.17882 8.94623 3.64897 8.94623C3.38904 8.94623 2.55931 8.94622 2.25939 8.00449L0.0599812 1.03161C0.0399866 0.981516 0 0.801208 0 0.680986C0 0.310303 0.389859 0.00976562 0.839736 0.00976562C1.28961 0.00976562 1.46959 0.450578 1.48958 0.510689L3.38909 6.54177H3.36907Z" fill="var(--fill-0, #386F6B)"/>
<path id="Vector_2" d="M10.6845 8.2149C10.6845 8.5956 10.5142 8.9362 9.93303 8.9362C9.40197 8.9362 9.16147 8.67575 9.16147 8.2149V0.721038C9.16147 0.350355 9.32179 0.00976562 9.91297 0.00976562C10.4541 0.00976562 10.6845 0.270207 10.6845 0.721038V8.2149Z" fill="var(--fill-0, #386F6B)"/>
<path id="Vector_3" d="M18.2314 3.7372C18.6313 3.7372 18.8912 3.92755 18.8912 4.36836C18.8912 4.7691 18.6913 5.00956 18.2314 5.00956H14.8223V6.96318C14.8223 7.23367 14.9623 7.39396 15.2522 7.39396H18.8012C19.0612 7.39396 19.471 7.4841 19.471 8.05516C19.471 8.5661 19.1611 8.71641 18.8012 8.71641H14.7423C13.7426 8.71641 13.2927 8.36575 13.2927 7.26372V1.67339C13.2927 0.591399 13.7326 0.220703 14.7423 0.220703H18.6013C18.8612 0.220703 19.2711 0.310904 19.2711 0.881956C19.2711 1.3929 18.9512 1.54315 18.6013 1.54315H15.2522C14.9723 1.54315 14.8223 1.69342 14.8223 1.97394V3.72717H18.2314V3.7372Z" fill="var(--fill-0, #386F6B)"/>
<path id="Vector_4" d="M23.5466 6.69233C23.5566 6.76246 23.5966 6.87266 23.6965 6.87266C23.7765 6.87266 23.8165 6.77249 23.8265 6.70236L24.7563 0.781409C24.8362 0.260448 25.2161 0 25.8559 0C26.8057 0 27.0756 0.310541 27.1456 0.781409L28.1153 6.70236C28.1253 6.78251 28.1553 6.89271 28.2453 6.89271C28.3353 6.89271 28.3753 6.80255 28.3853 6.71239L29.435 0.540975C29.505 0.110181 29.8748 0 30.1447 0C30.5346 0 30.9346 0.240426 30.9346 0.67122C30.9346 0.751368 30.9245 0.841544 30.9045 0.931711L29.4849 7.98469C29.375 8.48562 29.185 8.92643 28.4252 8.92643C27.7154 8.92643 27.2056 8.77617 27.0956 8.06486L26.0759 1.56288C26.0659 1.51279 26.0159 1.41258 25.9359 1.41258C25.8759 1.41258 25.836 1.48273 25.816 1.56288L24.7962 8.06486C24.6763 8.81624 24.1064 8.92643 23.7165 8.92643C22.7968 8.92643 22.5468 8.66595 22.4069 7.98469L20.9873 0.931711C20.9773 0.8716 20.9572 0.751368 20.9572 0.67122C20.9572 0.290519 21.2872 0 21.777 0C22.3469 0 22.4468 0.480865 22.4568 0.540975L23.5366 6.69233H23.5466Z" fill="var(--fill-0, #386F6B)"/>
<path id="Vector_5" d="M43.8664 3.49597L43.9064 1.92307C43.9064 1.92307 43.8964 1.89298 43.8764 1.89298C43.8564 1.89298 43.8464 1.893 43.8464 1.91304L42.2169 8.24472C42.0469 8.89592 41.5671 8.94602 41.2572 8.94602C40.8073 8.94602 40.5074 8.70557 40.3874 8.24472L38.7578 1.91304C38.7578 1.91304 38.7478 1.89298 38.7278 1.89298C38.7078 1.89298 38.6979 1.89301 38.6979 1.92307L38.7378 3.49597V8.22466C38.7378 8.68551 38.5079 8.94602 37.978 8.94602C37.3882 8.94602 37.2282 8.59534 37.2282 8.22466V0.941275C37.2282 0.0897045 37.8481 0.0195312 38.388 0.0195312C38.8578 0.0195312 39.4476 0.10971 39.6076 0.720836L41.2371 7.23284C41.2471 7.29295 41.2571 7.35306 41.3071 7.35306C41.3571 7.35306 41.3671 7.32301 41.3871 7.23284L43.0266 0.720836C43.1866 0.0896728 43.8164 0.0195312 44.3063 0.0195312C44.8462 0.0195312 45.406 0.149815 45.406 0.941275V8.22466C45.406 8.68551 45.1761 8.94602 44.6262 8.94602C44.0464 8.94602 43.8864 8.59534 43.8864 8.22466V3.49597H43.8664Z" fill="var(--fill-0, #386F6B)"/>
<path id="Vector_6" d="M55.8008 4.4682C55.8008 7.06298 54.2911 8.94649 51.7518 8.94649C49.2125 8.94649 47.7029 7.06298 47.7029 4.4682C47.7029 1.87342 49.1525 0 51.7518 0C54.3511 0 55.8008 2.04373 55.8008 4.4682ZM49.2725 4.4682C49.2725 6.33163 50.1723 7.59396 51.7518 7.59396C53.3314 7.59396 54.2511 6.41178 54.2511 4.4682C54.2511 2.64484 53.3714 1.34244 51.7518 1.34244C50.1323 1.34244 49.2725 2.55467 49.2725 4.4682Z" fill="var(--fill-0, #386F6B)"/>
<path id="Vector_7" d="M59.6794 8.21548C59.6794 8.59619 59.5095 8.93679 58.9296 8.93679C58.3998 8.93679 58.1698 8.67633 58.1698 8.21548V1.67339C58.1698 0.591399 58.6097 0.220703 59.6195 0.220703H61.9088C63.0485 0.220703 63.5584 0.48121 63.9383 0.81182C64.4382 1.2326 64.758 1.86373 64.758 2.59508C64.758 2.75537 64.758 4.05777 63.5984 4.59877C64.4881 5.05962 64.4981 5.76095 64.5281 7.26372C64.5281 7.43403 64.6581 8.18542 64.6581 8.3357C64.6581 8.78653 64.2782 8.91673 63.7983 8.91673C63.1185 8.91673 63.0185 8.2355 63.0085 6.75277C63.0085 6.29192 62.9585 5.30008 61.7989 5.30008H59.6894V8.20546L59.6794 8.21548ZM59.6794 3.99769H61.7889C62.7286 3.99769 63.2385 3.37652 63.2385 2.72532C63.2385 1.88377 62.6586 1.55318 61.8189 1.55318H60.1093C59.8194 1.55318 59.6794 1.72348 59.6794 1.98396V3.99769Z" fill="var(--fill-0, #386F6B)"/>
<path id="Vector_8" d="M72.0316 3.7372C72.4314 3.7372 72.6914 3.92755 72.6914 4.36836C72.6914 4.7691 72.4914 5.00956 72.0316 5.00956H68.6225V6.96318C68.6225 7.23367 68.7625 7.39396 69.0524 7.39396H72.6014C72.8613 7.39396 73.2712 7.4841 73.2712 8.05516C73.2712 8.5661 72.9613 8.71641 72.6014 8.71641H68.5425C67.5428 8.71641 67.0929 8.36575 67.0929 7.26372V1.67339C67.0929 0.591399 67.5328 0.220703 68.5425 0.220703H72.4014C72.6614 0.220703 73.0713 0.310904 73.0713 0.881956C73.0713 1.3929 72.7513 1.54315 72.4014 1.54315H69.0524C68.7725 1.54315 68.6225 1.69342 68.6225 1.97394V3.72717H72.0316V3.7372Z" fill="var(--fill-0, #386F6B)"/>
</g>
</svg>
