<?xml version="1.0" encoding="UTF-8"?>
<svg id="_レイヤー_2" data-name="レイヤー 2" xmlns="http://www.w3.org/2000/svg" viewBox="0 0 333.49 662.43">
  <defs>
    <style>
      .cls-1 {
        fill: #fccaca;
      }

      .cls-2 {
        stroke: #fffcf2;
      }

      .cls-2, .cls-3, .cls-4, .cls-5, .cls-6, .cls-7, .cls-8 {
        fill: none;
      }

      .cls-3, .cls-4, .cls-6 {
        stroke-linejoin: round;
      }

      .cls-3, .cls-4, .cls-6, .cls-8 {
        stroke-linecap: round;
      }

      .cls-3, .cls-8 {
        stroke: #231f20;
        stroke-width: 2px;
      }

      .cls-9 {
        font-family: TsukuBRdGothic-Bold-83pv-RKSJ-H, 'Tsukushi B Round Gothic';
        font-weight: 700;
      }

      .cls-10 {
        fill: #fffcf2;
      }

      .cls-4 {
        stroke-width: 2.25px;
      }

      .cls-4, .cls-5, .cls-6 {
        stroke: #000;
      }

      .cls-5 {
        stroke-width: 1.5px;
      }

      .cls-5, .cls-8 {
        stroke-miterlimit: 10;
      }

      .cls-11 {
        font-family: TsukuBRdGothic-Regular-83pv-RKSJ-H, 'Tsukushi B Round Gothic';
        font-size: 9px;
      }

      .cls-11, .cls-12 {
        fill: #231815;
      }

      .cls-13, .cls-14, .cls-15, .cls-16 {
        font-size: 16.99px;
      }

      .cls-17 {
        fill: #fff;
      }

      .cls-18 {
        letter-spacing: -.2em;
      }

      .cls-18, .cls-19, .cls-20, .cls-21, .cls-22, .cls-23, .cls-24 {
        font-size: 21.29px;
      }

      .cls-19 {
        letter-spacing: -.16em;
      }

      .cls-20 {
        letter-spacing: -.17em;
      }

      .cls-21 {
        letter-spacing: -.12em;
      }

      .cls-22 {
        letter-spacing: -.13em;
      }

      .cls-23 {
        letter-spacing: -.41em;
      }

      .cls-25 {
        letter-spacing: 0em;
      }

      .cls-24 {
        letter-spacing: -.27em;
      }

      .cls-14 {
        letter-spacing: -.04em;
      }

      .cls-15 {
        letter-spacing: -.05em;
      }

      .cls-16 {
        letter-spacing: -.09em;
      }

      .cls-6 {
        stroke-width: 1.37px;
      }

      .cls-7 {
        stroke: #386f6b;
      }

      .cls-26 {
        letter-spacing: -.4em;
      }

      .cls-27 {
        letter-spacing: -.3em;
      }

      .cls-28 {
        letter-spacing: -.3em;
      }

      .cls-29 {
        letter-spacing: -.3em;
      }

      .cls-30 {
        letter-spacing: -.32em;
      }

      .cls-31 {
        letter-spacing: -.36em;
      }

      .cls-32 {
        letter-spacing: -.36em;
      }

      .cls-33 {
        letter-spacing: -.26em;
      }

      .cls-34 {
        letter-spacing: -.26em;
      }

      .cls-35 {
        letter-spacing: -.28em;
      }

      .cls-36 {
        letter-spacing: -.28em;
      }

      .cls-37 {
        letter-spacing: -.27em;
      }

      .cls-38 {
        letter-spacing: -.29em;
      }

      .cls-39 {
        letter-spacing: -.24em;
      }

      .cls-40 {
        letter-spacing: -.24em;
      }

      .cls-41 {
        letter-spacing: -.24em;
      }

      .cls-42 {
        letter-spacing: -.23em;
      }

      .cls-43 {
        letter-spacing: -.23em;
      }

      .cls-44 {
        letter-spacing: -.5em;
      }

      .cls-45 {
        letter-spacing: -.56em;
      }

      .cls-46 {
        letter-spacing: -.5em;
      }

      .cls-47 {
        letter-spacing: -.09em;
      }

      .cls-48 {
        letter-spacing: -.1em;
      }

      .cls-49 {
        letter-spacing: -.1em;
      }

      .cls-50 {
        letter-spacing: -.1em;
      }

      .cls-51 {
        letter-spacing: -.11em;
      }

      .cls-52 {
        letter-spacing: -.11em;
      }

      .cls-53 {
        letter-spacing: -.08em;
      }

      .cls-54 {
        letter-spacing: -.08em;
      }

      .cls-55 {
        letter-spacing: -.08em;
      }

      .cls-56 {
        letter-spacing: -.07em;
      }

      .cls-57 {
        letter-spacing: -.06em;
      }

      .cls-58 {
        letter-spacing: -.06em;
      }

      .cls-59 {
        letter-spacing: -.06em;
      }

      .cls-60 {
        letter-spacing: -.06em;
      }

      .cls-61 {
        letter-spacing: -.19em;
      }

      .cls-62 {
        letter-spacing: -.19em;
      }

      .cls-63 {
        letter-spacing: -.19em;
      }

      .cls-64 {
        letter-spacing: -.19em;
      }

      .cls-65 {
        letter-spacing: -.2em;
      }

      .cls-66 {
        letter-spacing: -.2em;
      }

      .cls-67 {
        letter-spacing: -.21em;
      }

      .cls-68 {
        letter-spacing: -.21em;
      }

      .cls-69 {
        letter-spacing: -.22em;
      }

      .cls-70 {
        letter-spacing: -.22em;
      }

      .cls-71 {
        letter-spacing: -.16em;
      }

      .cls-72 {
        letter-spacing: -.16em;
      }

      .cls-73 {
        letter-spacing: -.16em;
      }

      .cls-74 {
        letter-spacing: -.16em;
      }

      .cls-75 {
        letter-spacing: -.17em;
      }

      .cls-76 {
        letter-spacing: -.17em;
      }

      .cls-77 {
        letter-spacing: -.17em;
      }

      .cls-78 {
        letter-spacing: -.18em;
      }

      .cls-79 {
        letter-spacing: -.18em;
      }

      .cls-80 {
        letter-spacing: -.18em;
      }

      .cls-81 {
        letter-spacing: -.18em;
      }

      .cls-82 {
        letter-spacing: -.18em;
      }

      .cls-83 {
        letter-spacing: -.12em;
      }

      .cls-84 {
        letter-spacing: -.12em;
      }

      .cls-85 {
        letter-spacing: -.13em;
      }

      .cls-86 {
        letter-spacing: -.13em;
      }

      .cls-87 {
        letter-spacing: -.13em;
      }

      .cls-88 {
        letter-spacing: -.14em;
      }

      .cls-89 {
        letter-spacing: -.14em;
      }

      .cls-90 {
        letter-spacing: -.14em;
      }

      .cls-91 {
        letter-spacing: -.15em;
      }

      .cls-92 {
        letter-spacing: -.15em;
      }

      .cls-93 {
        letter-spacing: -.02em;
      }

      .cls-94 {
        letter-spacing: -.02em;
      }

      .cls-95 {
        letter-spacing: -.02em;
      }

      .cls-96 {
        letter-spacing: -.05em;
      }

      .cls-97 {
        letter-spacing: -.05em;
      }

      .cls-98 {
        letter-spacing: -.05em;
      }

      .cls-99 {
        letter-spacing: -.05em;
      }

      .cls-100 {
        letter-spacing: -.05em;
      }

      .cls-101 {
        letter-spacing: -.04em;
      }

      .cls-102 {
        letter-spacing: -.03em;
      }

      .cls-103 {
        letter-spacing: -.03em;
      }

      .cls-104 {
        letter-spacing: -.03em;
      }

      .cls-105 {
        letter-spacing: -.03em;
      }

      .cls-106 {
        letter-spacing: -.01em;
      }

      .cls-107 {
        letter-spacing: -.01em;
      }

      .cls-108 {
        letter-spacing: 0em;
      }
    </style>
  </defs>
  <g id="_レイヤー_1-2" data-name="レイヤー 1">
    <g id="voice-text03-sp">
      <path class="cls-1" d="M308.61,631.45H25.13c-3.48,0-6.33-2.85-6.33-6.33V47.86c0-3.48,2.85-6.33,6.33-6.33h22.13c2.81,0,5.4-1.5,6.81-3.93l13.98-24.22c1.91-3.3,6.67-3.3,8.58,0l13.98,24.22c1.4,2.43,4,3.93,6.81,3.93h211.19c3.48,0,6.33,2.85,6.33,6.33v577.27c0,3.48-2.85,6.33-6.33,6.33Z"/>
      <path class="cls-8" d="M33.11,50.34v-12.39c0-3.48,2.85-6.33,6.33-6.33h22.13c2.81,0,5.4-1.5,6.81-3.93l13.98-24.22c1.91-3.3,6.67-3.3,8.58,0l13.98,24.22c1.4,2.43,4,3.93,6.81,3.93h211.19c3.48,0,6.33,2.85,6.33,6.33v604.54c0,3.48-2.85,6.33-6.33,6.33H39.44c-3.48,0-6.33-2.85-6.33-6.33V79.35"/>
      <polygon class="cls-2" points="214.34 637.57 205.92 622.98 222.77 622.98 214.34 637.57"/>
      <polygon class="cls-2" points="134.34 63.12 125.92 48.53 142.77 48.53 134.34 63.12"/>
      <circle class="cls-3" cx="88.82" cy="65.01" r="8.31"/>
      <circle class="cls-2" cx="213.77" cy="625.07" r="8.31"/>
      <rect class="cls-2" x="63.2" y="618.14" width="15.43" height="15.43"/>
      <polyline class="cls-3" points="66.45 58.06 55.55 68.96 44.64 58.06 33.73 68.96 22.82 58.06 11.91 68.96 1 58.06"/>
      <polyline class="cls-2" points="313.53 99.7 302.62 110.6 291.71 99.7 280.8 110.6 269.89 99.7 258.98 110.6 248.07 99.7"/>
      <rect class="cls-2" x="92.48" y="51.1" width="15.43" height="15.43"/>
      <rect class="cls-10" x="279.21" y="52.32" width="21.04" height="21.04"/>
      <polygon points="297.91 57.01 296.2 55.31 293.05 58.46 289.9 55.31 288.2 57.01 291.35 60.16 288.2 63.32 289.9 65.02 293.05 61.87 296.2 65.02 297.91 63.32 294.75 60.16 297.91 57.01"/>
      <rect class="cls-5" x="283.05" y="49.52" width="20.01" height="20.01"/>
      <rect class="cls-10" x="56.47" y="197.76" width="70.26" height="12.73"/>
      <polygon class="cls-2" points="279 620.86 270.58 606.27 287.42 606.27 279 620.86"/>
      <line class="cls-6" x1="256.05" y1="600.38" x2="271.44" y2="584.99"/>
      <line class="cls-6" x1="251.45" y1="612.48" x2="283.54" y2="580.4"/>
      <line class="cls-6" x1="250.9" y1="620.52" x2="291.57" y2="579.85"/>
      <line class="cls-6" x1="251.23" y1="627.69" x2="298.74" y2="580.18"/>
      <line class="cls-6" x1="304.76" y1="581.65" x2="252.7" y2="633.71"/>
      <line class="cls-6" x1="254.89" y1="639.02" x2="310.07" y2="583.84"/>
      <line class="cls-6" x1="257.61" y1="643.79" x2="314.84" y2="586.56"/>
      <line class="cls-6" x1="260.9" y1="647.99" x2="319.05" y2="589.85"/>
      <line class="cls-6" x1="264.65" y1="651.74" x2="322.8" y2="593.6"/>
      <line class="cls-6" x1="326.09" y1="597.8" x2="268.86" y2="655.03"/>
      <line class="cls-6" x1="328.8" y1="602.58" x2="273.63" y2="657.75"/>
      <line class="cls-6" x1="278.94" y1="659.95" x2="331" y2="607.88"/>
      <line class="cls-6" x1="332.47" y1="613.91" x2="284.96" y2="661.42"/>
      <line class="cls-6" x1="332.8" y1="621.07" x2="292.13" y2="661.74"/>
      <line class="cls-6" x1="332.6" y1="628.91" x2="300.51" y2="661"/>
      <line class="cls-6" x1="328" y1="641.01" x2="312.61" y2="656.4"/>
      <polygon class="cls-4" points="177.48 607.12 187.75 625.42 177.48 625.42 167.22 625.42 177.48 607.12"/>
      <text class="cls-9" transform="translate(57.04 146.28) scale(.98 1)"><tspan class="cls-23" x="0" y="0">フ</tspan><tspan class="cls-24" x="12.56" y="0">ィ</tspan><tspan class="cls-20" x="28.11" y="0">ー</tspan><tspan class="cls-18" x="45.78" y="0">ル</tspan><tspan class="cls-20" x="62.82" y="0">ド</tspan><tspan class="cls-19" x="80.5" y="0">ワ</tspan><tspan class="cls-22" x="98.38" y="0">ー</tspan><tspan class="cls-21" x="116.91" y="0">ク</tspan><tspan class="cls-15" x="134.8" y="0">の</tspan><tspan class="cls-13" x="150.94" y="0">貴</tspan><tspan class="cls-16" x="167.94" y="0">重</tspan><tspan class="cls-14" x="183.4" y="0">な</tspan><tspan class="cls-13"><tspan x="1.92" y="22.21">経</tspan><tspan class="cls-95" x="18.91" y="22.21">験</tspan><tspan class="cls-103" x="35.57" y="22.21">が</tspan><tspan class="cls-72" x="52.05" y="22.21">い</tspan><tspan class="cls-63" x="66.33" y="22.21">ま</tspan><tspan class="cls-97" x="80.09" y="22.21">の</tspan><tspan x="96.24" y="22.21">仕</tspan><tspan class="cls-60" x="113.23" y="22.21">事</tspan><tspan class="cls-97" x="129.21" y="22.21">に</tspan><tspan class="cls-89" x="145.35" y="22.21">生</tspan><tspan class="cls-80" x="159.97" y="22.21">き</tspan><tspan class="cls-54" x="173.9" y="22.21">て</tspan><tspan class="cls-86" x="189.54" y="22.21">い</tspan><tspan class="cls-49" x="204.32" y="22.21">る</tspan><tspan class="cls-45" x="219.62" y="22.21">。</tspan></tspan></text>
      <g>
        <path class="cls-12" d="M62.44,222.14c.73.04,1.43.52,1.47,1.34.02.71.03,1.72.03,2.73,0,1.12-.01,2.21-.03,2.83-.04.81-.64,1.4-1.5,1.42-.76.02-1.6.04-2.4.04-.71,0-1.41-.01-2-.04-1.05-.05-1.57-.53-1.61-1.39-.02-.75-.04-1.83-.04-2.93,0-.97.01-1.97.04-2.74.02-.74.62-1.22,1.51-1.26.33-.01.7-.02,1.09-.04.12-.43.22-.93.26-1.29.04-.34.31-.49.61-.49.34,0,.7.2.7.53,0,.13-.1.53-.35,1.23.83,0,1.63.02,2.22.05ZM62.8,225.49c0-.59-.01-1.14-.02-1.58-.03-.82-.21-.82-2.62-.82s-2.61,0-2.64.82c-.01.44-.04.99-.04,1.58h5.32ZM57.48,226.51c0,.81.01,1.58.04,2.11.02.78.27.82,2.63.82,2.2,0,2.6,0,2.63-.85.02-.57.04-1.31.04-2.08h-5.33Z"/>
        <path class="cls-12" d="M76.37,229.16v.02c0,.7-.48,1.58-2.05,1.58-.68,0-1.29-.04-1.29-.68,0-.28.17-.56.48-.56.04,0,.07,0,.1.01.26.05.51.08.75.08.48,0,.84-.15.84-.69,0-5.18-.02-6.01-.04-6.2-.02-.68-.26-.81-.83-.82-.85-.01-1.72-.02-2.58-.02s-1.71.01-2.5.02c-.66.01-.85.21-.86.82-.03,1.4-.05,2.96-.05,4.57,0,1.02,0,2.05.01,3.1h0c0,.36-.28.52-.56.52s-.58-.18-.58-.51h0c.02-2.67.02-5.56.07-8.2.01-.76.58-1.28,1.46-1.29,1.02-.02,2.13-.04,3.25-.04.98,0,1.96.01,2.9.04.71.01,1.4.53,1.42,1.39.05,1.8.02,3.83.05,5.18l.02,1.67ZM72.26,225.1v2.69c.76,0,.91-.11.93-.42.01-.3.01-.97.01-1.25,0-.32.26-.49.5-.49s.51.17.52.49c0,.14.01.36.01.58,0,1.14-.02,1.91-1.2,1.96-.44.01-.91.02-1.36.02-1.72,0-2.35-.01-2.39-1.1v-1.48c.01-.3.27-.45.51-.45s.49.14.49.44h0v.88c0,.8,0,.81.93.81v-2.68h-2.07c-.34,0-.5-.23-.5-.46s.16-.45.49-.45h.01l2.6.02h.23s.02-.07.05-.11c.19-.38.49-1,.72-1.64.08-.21.27-.31.45-.31.3,0,.63.23.63.52,0,.14-.05.24-.77,1.52h1.27s.01-.01.01-.01c.31,0,.48.23.48.45s-.16.46-.49.46h-2.07ZM70.36,223.82c-.19-.42-.55-.76-.65-.9-.06-.08-.08-.15-.08-.24,0-.25.29-.44.57-.44.42,0,1.15.91,1.15,1.28,0,.33-.3.59-.58.59-.16,0-.31-.08-.41-.3Z"/>
        <path class="cls-12" d="M83.38,223.09l-4.37.02c-.37,0-.56-.27-.56-.55s.19-.56.56-.56l3.78.02v-1.14c-.01-.37.3-.56.61-.56s.62.19.62.56v1.14s3.76-.02,3.76-.02c.36,0,.55.27.55.55s-.19.56-.55.56l-4.4-.02ZM82.82,225.26c-.66,0-1.28,0-1.64.01-.31,0-.45.15-.47.52-.01.44-.01,1.08-.01,1.75s0,1.37.01,1.93h0c0,.34-.28.51-.57.51s-.58-.17-.59-.51v-.71c0-1.06.01-2.28.02-3.18.01-.85.5-1.28,1.37-1.31.44-.01,1.13-.02,1.87-.02v-.44c0-.39.29-.58.58-.58s.57.19.57.58v.44c.77,0,1.5.01,2,.02.78.02,1.33.44,1.34,1.26.01.38.01.8.01,1.14v.76c0,.2.01.45.02.89v.04c0,.82-.62,1.47-1.7,1.47-.59,0-1.22-.09-1.22-.65,0-.28.17-.57.48-.57.03,0,.07,0,.12.01.19.05.4.09.59.09.31,0,.57-.12.57-.5,0,0-.01-1.72-.02-2.49,0-.25-.13-.44-.43-.45-.4-.01-1.05-.02-1.75-.02v5.07c0,.39-.29.58-.58.58s-.59-.19-.59-.58v-5.06Z"/>
        <path class="cls-12" d="M91.34,226.14c-.76.67-.99.78-1.2.78-.33,0-.56-.3-.56-.59,0-.18.08-.36.28-.47,1-.59,2-1.64,2.71-2.85.12-.19.27-.27.43-.27.3,0,.62.28.62.61,0,.11-.04.21-.1.32-.34.49-.68.94-1.05,1.35l-.14,5.37c-.01.36-.3.53-.59.53-.27,0-.54-.17-.54-.51v-.02l.14-4.24ZM90.28,224.03c-.33,0-.58-.25-.58-.53,0-.19.12-.4.38-.56.91-.53,1.67-1.34,2.24-2.3.13-.21.3-.3.47-.3.3,0,.58.26.58.58,0,.11-.03.24-.12.36-.73,1.08-2.28,2.75-2.97,2.75ZM94.01,226.01c-.29,0-.44-.25-.44-.51,0-.24.14-.49.42-.49.48-.01,1.14-.01,1.83-.01s1.4,0,1.94.01c.81.01,1.08.39,1.08.82,0,.59-.71,1.77-1.62,2.73.7.46,1.53.81,2.52,1.01.33.07.49.31.49.56,0,.3-.23.61-.66.61-.31,0-1.75-.38-3.14-1.42-1.7,1.4-3.26,1.56-3.31,1.56-.36,0-.61-.3-.61-.58,0-.23.15-.45.5-.51.99-.18,1.86-.62,2.58-1.17-.51-.51-1.25-1.47-1.25-1.84,0-.3.27-.5.55-.5.16,0,.33.07.43.25.29.5.64.97,1.06,1.38.55-.57,1.13-1.52,1.13-1.78,0-.11-.12-.12-.19-.12h-.83c-.83,0-1.8.01-2.48.02h-.01ZM99.04,222.85c0-.31.23-.45.49-.45.08,0,.56.01.56.51,0,1.75-.99,1.75-1.67,1.75-1.18,0-1.49-.3-1.49-1.37,0-.44.01-.96.01-1.32s-.3-.36-.66-.36c-.49,0-.71.05-.71.38,0,1.1-.28,1.89-1.05,2.66-.16.17-.35.24-.51.24-.34,0-.62-.26-.62-.55,0-.13.06-.27.2-.39.64-.53.86-1.04.86-2.04v-.25c0-.93.97-.99,1.72-.99,1.52,0,1.87.2,1.87,1.42,0,.38-.02.71-.02,1.04v.17c0,.21.08.39.47.39s.55-.2.55-.78v-.06h0Z"/>
        <path class="cls-12" d="M102.32,230.31c-.15.21-.34.3-.52.3-.29,0-.56-.23-.56-.51,0-.11.03-.21.12-.33.9-1.27,1.05-2.64,1.05-4.02,0-.61-.02-1.22-.03-1.84v-.02c0-.53.3-1.01,1.09-1.03.27-.01.54-.01.8-.01,1.61,0,1.94.01,1.94,1.77,0,1.63-.23,1.83-2.14,1.83-.22,0-.43-.01-.64-.01-.07,1.38-.33,2.75-1.11,3.89ZM102.45,222.01c-.35,0-.52-.26-.52-.52s.17-.51.52-.51h3.6c.34,0,.51.26.51.52s-.17.51-.51.51h-3.6ZM104,225.5c.78,0,1.12-.02,1.15-.38.01-.18.02-.42.02-.65,0-.68-.04-.75-.81-.75-.61,0-.92.01-.92.43,0,.44.01.89.01,1.34.19,0,.37.01.55.01ZM108.96,224.9h-1.13c-.05,2.03-.43,4.23-2.12,5.51-.14.11-.28.15-.41.15-.33,0-.58-.29-.58-.58,0-.14.07-.3.23-.42,1.58-1.1,1.84-3.04,1.84-4.93,0-.53-.01-1.07-.03-1.58v-.14c0-.81.29-1.26,1.05-1.37.94-.12,1.76-.38,2.62-.74.08-.04.16-.05.24-.05.34,0,.56.31.56.61,0,.23-.12.44-.4.53-.87.3-1.71.46-2.58.62-.35.06-.43.23-.43.53v.07c.01.25.02.51.02.78l3.53-.02c.35,0,.52.26.52.51,0,.26-.17.51-.52.51h-1.32v5.35c.01.33-.27.5-.55.5s-.56-.17-.56-.5v-5.37Z"/>
        <path class="cls-12" d="M116.11,230.4c0,.32-.29.49-.57.49s-.57-.15-.57-.49h0s.05-4.01.05-4.01c-.3.57-.65,1.09-1.02,1.54-.14.17-.3.23-.45.23-.3,0-.58-.25-.58-.55,0-.12.06-.26.17-.38.61-.62,1.42-1.76,1.9-2.86v-.13s-1.18.04-1.18.04h-.01c-.35,0-.52-.25-.52-.51s.19-.52.54-.52h1.15l-.02-1.04c-.41.08-.92.17-1.02.17-.35,0-.54-.29-.54-.56,0-.23.14-.44.43-.47,1.04-.11,1.78-.3,2.72-.69.06-.02.13-.04.19-.04.28,0,.51.27.51.56,0,.34-.19.46-1.18.77-.01.25-.01.74-.02,1.31h.87c.35,0,.52.26.52.52s-.17.51-.51.51h-.01l-.9-.02v.76s.09-.02.13-.02c.2,0,1.35.84,1.35,1.31,0,.3-.26.56-.52.56-.12,0-.26-.07-.35-.21-.16-.25-.4-.56-.61-.78.01,1.83.06,4.53.06,4.53h0ZM116.39,230.25c0-.17.09-.33.29-.43,1.44-.67,2.06-1.56,2.15-2.92.02-.34.27-.51.52-.51s.54.19.54.52v.06c-.22,2.79-2.57,3.85-2.93,3.85-.34,0-.57-.29-.57-.57ZM122.62,228.58c0-.33.23-.47.48-.47.27,0,.56.18.56.49v.08c0,1.52-.47,1.98-1.85,1.98-1.06,0-1.43-.32-1.43-1.34,0-.42.01-2.3.04-3.02-2.34,0-2.74-.02-2.74-1.64,0-1.02,0-1.9,1.22-1.96.47-.02,1-.02,1.53-.02.28-.51.64-1.29.79-1.77.08-.26.28-.37.49-.37.3,0,.64.24.64.56,0,.26-.54,1.1-.85,1.59h.14c.66.04,1.18.39,1.2,1,.02.34.05.8.05,1.15,0,.68-.09,1.34-1.25,1.42-.06,0-.13.01-.2.01,0,.64-.04,2.11-.04,2.73,0,.37,0,.63.43.63.66,0,.79-.09.79-.93v-.12h0ZM119.2,222.58c-.16,0-.33-.1-.42-.3-.19-.43-.47-.74-.64-.93-.08-.09-.12-.2-.12-.3,0-.24.24-.45.52-.45.54,0,1.23,1.03,1.23,1.39,0,.33-.3.58-.58.58ZM121.75,223.99c-.02-.42-.26-.43-1.36-.43-.42,0-.85,0-1.16.01-.38.01-.5.14-.5.88,0,.94,0,.95,1.54.95,1.42,0,1.5-.01,1.5-.75,0-.21,0-.46-.01-.67Z"/>
        <path class="cls-12" d="M133.82,222.57c-.16.59-.47,1.25-1.01,1.85.57.29,1.21.46,1.84.57.29.05.42.26.42.48,0,.28-.22.59-.64.59-.24,0-1.3-.23-2.39-.95-.94.69-2.11,1.07-2.26,1.07-.26,0-.44-.19-.51-.4-.02.05-.21.45-.61.45-.24,0-.45-.17-.45-.39,0-.07.02-.14.07-.23.09-.15.34-.61.34-.72,0-.06-.05-.09-.19-.11h-.4v.1s-.01,2.03-.01,2.67c0,.19.02,1.27.03,1.69v.06c0,.76-.37,1.42-1.46,1.42-.41,0-1.07-.04-1.07-.63,0-.27.16-.53.45-.53.04,0,.07,0,.1.01.15.04.3.06.43.06.28,0,.49-.11.5-.51,0-.54.01-1.75.02-2.73-.43.68-.94,1.35-1.39,1.82-.13.13-.27.19-.4.19-.28,0-.51-.25-.51-.53,0-.15.07-.31.22-.44.56-.49,1.48-1.58,2.04-2.61-.13,0-1.32.06-1.54.06-.28,0-.42-.23-.42-.46s.15-.49.44-.5h1.83c-.27-.34-.72-.64-.98-.77-.14-.07-.19-.18-.19-.3,0-.23.22-.47.49-.47.17,0,.5.2.72.36.47-.47.76-.87.76-.91,0-.04-.02-.05-.06-.05-.57,0-1.49.02-2.13.07h-.05c-.29,0-.44-.23-.44-.46s.16-.49.49-.5c.76-.02,1.87-.02,2.68-.02.5,0,.77.28.77.65,0,.18,0,.51-1.35,1.77.01.01.02.04.03.05.08.09.12.2.12.31s-.04.2-.09.29c.23,0,.45.01.64.01.44.01.91.31.91.81,0,.12-.01.23-.14.52l.1-.04c.68-.19,1.21-.44,1.64-.72-.37-.36-.69-.76-.92-1.24-.47.58-.57.68-.84.68s-.51-.19-.51-.45c0-.11.05-.24.17-.37.61-.62,1.11-1.4,1.46-2.33.08-.21.27-.3.45-.3.28,0,.57.19.57.47,0,.05,0,.12-.29.71l3.11-.04c.3,0,.45.24.45.46,0,.24-.15.47-.45.47h-.63ZM131.94,227.64c-.68,2.54-3.04,3.18-3.28,3.18-.34,0-.56-.29-.56-.56,0-.2.1-.38.36-.46,1.29-.39,2.11-1.1,2.44-2.14-.47.01-.93.02-1.39.04h-.02c-.33,0-.49-.23-.49-.46s.16-.47.5-.47c.5-.01,1.04-.01,1.57-.02,0-.08.01-.18.01-.27,0-.12-.01-.25-.02-.39v-.04c0-.29.28-.46.55-.46s.5.15.5.51c0,.23,0,.44-.02.64.4,0,.79,0,1.18.01.79.01,1.12.46,1.12,1.08,0,.4-.03,2.81-2.03,2.81-.3,0-.64-.06-1.04-.17-.23-.06-.34-.28-.34-.5,0-.27.15-.55.44-.55.05,0,.12.01.17.04.31.11.55.15.75.15.56,0,.92-.68.95-1.61,0-.25-.14-.36-.35-.36h-1.01ZM131,222.57c.24.55.58.97.98,1.31.38-.42.63-.87.76-1.31h-1.73Z"/>
        <path class="cls-12" d="M136.88,223.29c-.33,0-.5-.25-.5-.49,0-.25.17-.49.5-.49h3.26c.34,0,.5.24.5.49s-.16.49-.5.49h-3.26ZM143.99,230.44c0,.32-.27.47-.52.47s-.54-.17-.54-.49h0s.04-2.5.04-2.5c-.65,1.09-1.93,2.47-2.47,2.47-.28,0-.49-.23-.5-.47-.23.5-.65.56-1.61.56-.3,0-.61-.01-.8-.02-.5-.04-.83-.42-.84-.94,0-.31-.01-.58-.01-.85s.01-.52.01-.78c.01-.45.29-.88.83-.9.23-.01.55-.02.85-.02s.59.01.77.02c.42.02.88.33.9.84.01.27.01.56.01.86s0,.57-.01.83c0,.04-.01.06-.01.09.04-.06.1-.11.17-.15,1.02-.67,1.79-1.53,2.36-2.52l-1.66.04h-.01c-.3,0-.45-.24-.45-.46,0-.25.15-.49.47-.49l2.04.02v-.77c-.33-.01-.64-.02-.88-.04-.77-.04-1.13-.47-1.16-1.07-.01-.36-.02-.75-.02-1.14s.01-.81.02-1.17c.02-.47.34-.99,1.18-1.02.38-.02.86-.02,1.36-.02s.99,0,1.4.02c.75.02,1.16.5,1.19,1.01.01.43.02.89.02,1.35,0,.33,0,.66-.02.96-.04.55-.49,1.03-1.19,1.08-.26.02-.58.04-.93.04v.77l2.25-.02c.33,0,.49.25.49.49s-.15.46-.48.46h-.01l-1.94-.04c.72.93,1.6,1.66,2.5,2.23.2.12.28.3.28.47,0,.31-.27.62-.59.62-.65,0-2.32-2.15-2.48-2.37l.04,2.55h0ZM137.33,221.67c-.31,0-.47-.24-.47-.48s.15-.47.47-.47h2.4c.31,0,.48.24.48.47s-.16.48-.48.48h-2.4ZM137.35,224.84c-.31,0-.47-.24-.47-.47s.15-.47.47-.47h2.28c.31,0,.48.24.48.47s-.16.47-.48.47h-2.28ZM137.35,226.37c-.31,0-.47-.24-.47-.47s.15-.47.47-.47h2.28c.31,0,.48.24.48.47s-.16.47-.48.47h-2.28ZM139.17,228.71c0-.19,0-.39-.01-.56-.02-.3-.22-.32-.76-.32-.75,0-.75.01-.75.87,0,.19.01.39.01.57.01.21.03.28.81.28.23,0,.68,0,.68-.3.01-.17.01-.36.01-.55ZM142.95,221.61c-1.02,0-1.06,0-1.06,1.01h1.07v-1.01ZM142.96,223.4h-1.07c0,.77,0,1,.51,1.02h.57s-.01-1.02-.01-1.02ZM143.95,223.4v1.03c1.14,0,1.14-.01,1.14-1.03h-1.14ZM145.09,222.62c0-.2-.01-.4-.01-.58-.01-.43-.27-.43-1.12-.43v1.01h1.13Z"/>
        <path class="cls-12" d="M150.39,228.49c-.22.1-1.62.72-1.97.72-.31,0-.5-.29-.5-.56,0-.21.12-.43.36-.5l.38-.11v-6.2h-.09c-.34,0-.5-.25-.5-.49,0-.25.16-.49.5-.49h2.81c.33,0,.48.25.48.49v.07s.12-.02.19-.02h.78v-.62s-.01-.01-.01-.01c0-.3.26-.45.51-.45s.52.15.52.46v.62s.78,0,.78,0c.31,0,.48.23.48.44,0,.23-.16.45-.48.45h-2.58c-.3,0-.47-.21-.47-.44v-.05c-.06.02-.12.04-.2.04h-.06v8.63c.01.31-.22.46-.47.46s-.48-.15-.48-.46v-2ZM150.4,221.86h-.8v1.25h.8v-1.25ZM150.39,224.04h-.79v1.15h.79v-1.15ZM150.39,226.13h-.79v1.64c.27-.09.54-.19.79-.3v-1.34ZM156.35,225.07c.02.75.07,1.48.16,2.14.26-.44.43-.89.57-1.33.07-.23.26-.33.44-.33.26,0,.54.19.54.49,0,.05-.21,1.07-1.3,2.43.09.29.35,1,.57,1,.12,0,.23-.21.3-.84.03-.3.26-.44.49-.44.26,0,.52.18.52.51,0,.42-.31,1.9-1.29,1.9-.68,0-1.06-.56-1.34-1.32-1.42,1.32-2.84,1.63-2.96,1.63-.33,0-.54-.29-.54-.56,0-.2.12-.4.38-.47,1.33-.36,2.14-.95,2.79-1.66-.2-.94-.28-2.02-.31-3.13h-3.48c-.3,0-.47-.23-.47-.45s.16-.45.47-.45h1.42c.19-.37.35-.88.43-1.35.05-.25.22-.36.41-.36.26,0,.54.19.54.47,0,.11-.13.56-.54,1.23h1.2c-.02-1.09-.01-2.21-.03-3.26h0c0-.36.27-.54.52-.54s.51.17.51.54h0c-.02.78-.04,1.7-.04,2.63v.63h1.48c.31,0,.48.23.48.45s-.16.45-.48.45h-1.46ZM151.87,228.5c-.01-.21-.01-.56-.01-.93,0-.49,0-1.02.01-1.31.02-.75.77-.76,1.51-.76.62,0,1.4.04,1.42.75.01.38.03.94.03,1.44,0,1.15,0,1.61-1.4,1.61-.83,0-1.54-.06-1.57-.81ZM152.72,223.98c-.16,0-.31-.08-.36-.27-.06-.27-.19-.43-.34-.61-.07-.07-.09-.15-.09-.23,0-.2.21-.36.43-.36.37,0,.85.64.85,1.01,0,.29-.24.45-.49.45ZM152.68,227.73c0,.76.01.82.63.82.65,0,.66-.07.66-.82h-1.29ZM153.96,227.02c0-.19-.01-.38-.01-.51-.01-.21-.07-.27-.61-.27-.65,0-.65.04-.65.78h1.27ZM157.69,223.46c-.14,0-.27-.06-.34-.21-.21-.44-.48-.68-.72-.89-.08-.07-.12-.15-.12-.24,0-.23.28-.45.54-.45.38,0,1.2.84,1.2,1.27,0,.3-.29.52-.56.52Z"/>
        <path class="cls-12" d="M169.21,229.74c.36.02.52.27.52.55,0,.32-.23.67-.65.67-.37,0-1.94-.39-3.12-1.08-.19-.11-.26-.27-.26-.44,0-.15.07-.32.19-.43-.7,0-1.44,0-2.13-.01.15.12.26.32.26.51,0,.17-.07.32-.24.43-1.15.72-2.78,1.08-3.16,1.08-.41,0-.62-.3-.62-.58s.17-.55.56-.57c.79-.05,1.77-.34,2.58-.88-.22,0-.44-.01-.64-.01-.85-.02-1.3-.45-1.33-1.03-.02-.45-.04-1.01-.04-1.57s.01-1.1.04-1.52c.02-.47.36-.99,1.29-1,.63-.01,1.37-.01,2.14-.01.96,0,1.93,0,2.79.02.71.01,1.22.46,1.25.91.02.43.04.9.04,1.39,0,.62-.01,1.23-.04,1.77-.02.55-.52,1.03-1.3,1.04-.22,0-.44.01-.68.01.8.43,1.79.7,2.54.75ZM164.88,223.34c-.78,0-1.54-.01-2.2-.02-1.15-.04-1.2-.56-1.2-1.31s.08-1.22,1.18-1.23c.76-.01,1.64-.02,2.5-.02.72,0,1.43.01,2.06.02,1.07.02,1.13.62,1.13,1.2s0,1.31-1.19,1.34c-.72.01-1.51.02-2.28.02ZM167.58,226.08h-5.37v.63h5.37v-.63ZM167.55,225.13c-.01-.27-.17-.44-.57-.45-.69-.01-1.68-.02-2.6-.02-.57,0-1.12,0-1.56.01-.37.01-.57.24-.58.46v.2h5.32v-.2ZM162.24,227.46v.2c.01.33.24.45.59.46.66.02,1.56.04,2.42.04.63,0,1.23-.01,1.73-.02.31-.01.54-.14.56-.46,0-.07.01-.14.01-.21h-5.32ZM167.22,222.05c0-.32-.1-.39-.45-.39-.55-.01-1.22-.01-1.89-.01s-1.33,0-1.87.01c-.42,0-.43.2-.43.4,0,.36.12.39.44.39.55.01,1.21.01,1.87.01,2.19,0,2.25,0,2.31-.25.01-.05.02-.11.02-.17Z"/>
      </g>
      <g>
        <path class="cls-12" d="M62.61,206.54c.43-.43.86-.85,1.24-1.25.88-.92,1.33-1.54,1.33-2.4,0-.74-.37-1.17-.95-1.17-.27,0-.55.04-.9.21l.7-.43-.15.91c-.1.65-.41.81-.7.81-.27,0-.49-.15-.61-.39.03-1.05,1.01-1.6,2.18-1.6,1.35,0,1.94.72,1.94,1.65s-.68,1.68-2.23,2.75c-.33.23-.69.49-1.05.76l-.14-.18h3.55v1.18h-4.2v-.85Z"/>
        <path class="cls-12" d="M71.95,204.39c0,2.2-1.05,3.15-2.22,3.15s-2.2-.95-2.2-3.15,1.03-3.16,2.2-3.16,2.22.95,2.22,3.16ZM69.73,207.04c.44,0,.8-.52.8-2.65s-.36-2.67-.8-2.67-.79.51-.79,2.67.34,2.65.79,2.65Z"/>
        <path class="cls-12" d="M72.76,206.54c.43-.43.86-.85,1.24-1.25.88-.92,1.33-1.54,1.33-2.4,0-.74-.37-1.17-.95-1.17-.27,0-.55.04-.9.21l.7-.43-.15.91c-.1.65-.41.81-.7.81-.27,0-.49-.15-.61-.39.03-1.05,1.01-1.6,2.18-1.6,1.35,0,1.94.72,1.94,1.65s-.68,1.68-2.23,2.75c-.33.23-.69.49-1.05.76l-.14-.18h3.55v1.18h-4.2v-.85Z"/>
        <path class="cls-12" d="M82.1,204.39c0,2.2-1.05,3.15-2.22,3.15s-2.2-.95-2.2-3.15,1.03-3.16,2.2-3.16,2.22.95,2.22,3.16ZM79.88,207.04c.44,0,.8-.52.8-2.65s-.36-2.67-.8-2.67-.79.51-.79,2.67.34,2.65.79,2.65Z"/>
        <path class="cls-12" d="M87.76,205.59v2.16c0,.14-.12.22-.24.22-.13,0-.25-.08-.25-.22v-2.16h-3.84c-.18,0-.25-.09-.25-.2,0-.12.1-.26.25-.26h1.54c0-.37,0-.85.02-1.45,0-.38.26-.84.96-.84h1.34v-1.51h-1.85c-.24.39-1.11,1.74-1.49,1.74-.14,0-.25-.12-.25-.25,0-.07.02-.13.08-.19.76-.72,1.44-1.77,1.88-2.88.05-.11.14-.16.23-.16.15,0,.3.11.3.27s-.43.9-.5,1.02h4.58c.16,0,.23.12.23.23s-.08.23-.23.23h-2.51s0,1.5,0,1.5h1.99c.15,0,.23.12.23.23s-.07.22-.22.22c-.6,0-1.32,0-2,0v1.85h3.06c.15,0,.23.11.23.24,0,.12-.08.23-.23.23h-3.06ZM87.28,203.28c-.5,0-.93,0-1.23,0-.4,0-.57.29-.57.56,0,.32,0,.86,0,1.28h1.8v-1.85Z"/>
        <path class="cls-12" d="M93.77,203.99c.72,0,1.15-.35,1.15-1.18,0-.73-.35-1.09-.96-1.09-.17,0-.41.04-.7.13l.56-.35-.14.85c-.08.49-.36.67-.7.67-.23,0-.42-.11-.53-.31,0-1.03.88-1.49,1.87-1.49,1.38,0,2.06.66,2.06,1.53,0,.69-.5,1.37-1.78,1.56v-.16c1.44.12,1.96.71,1.96,1.65,0,1-.87,1.74-2.34,1.74-1.3,0-1.99-.57-2.04-1.58.11-.3.35-.42.58-.42.38,0,.61.2.69.85l.12.9-.45-.39c.24.11.41.15.63.15.83,0,1.26-.41,1.26-1.29,0-.79-.42-1.22-1.2-1.22h-.33v-.53h.27Z"/>
        <path class="cls-12" d="M103.93,206.66v.04c0,.57-.32,1.09-1.43,1.09-1.03,0-1.04-.19-1.04-.33,0-.14.1-.28.26-.28h.05c.28.05.54.09.78.09.5,0,.85-.16.85-.67,0-.54,0-1.19,0-1.87h-3.48c-.19,1.17-.66,2.25-1.82,3.1-.06.04-.11.06-.16.06-.16,0-.29-.14-.29-.28,0-.07.03-.14.1-.19,1.55-1.08,1.79-2.74,1.79-4.41,0-.71-.04-1.41-.05-2.08v-.02c0-.53.4-.83,1.05-.85.37,0,.81-.02,1.26-.02.37,0,.74,0,1.07.02.64.02,1.01.32,1.02.85,0,.32,0,.68,0,1.05,0,.82,0,1.72,0,2.51,0,.49,0,.93,0,1.3l.02.89ZM103.4,202.61h-3.36v.49c0,.4,0,.79-.05,1.18h3.41v-1.66ZM103.39,202.16c0-.42,0-.81-.02-1.16,0-.36-.23-.5-.56-.51-.31,0-.65-.02-.99-.02-.41,0-.83,0-1.19.02-.37,0-.61.15-.61.51,0,.38,0,.76,0,1.16h3.36Z"/>
        <path class="cls-12" d="M110.41,205.66v2.09c0,.14-.12.22-.24.22s-.24-.08-.24-.22v-2.09h-3.42c-.16,0-.23-.11-.23-.22s.08-.24.23-.24h3.42s0-.56,0-.56c0-.15.12-.23.24-.23s.24.08.24.23v.57h3.44c.16,0,.23.11.23.23,0,.11-.07.23-.23.23h-3.44ZM106.88,201.37c-.15,0-.23-.11-.23-.24,0-.11.08-.23.23-.23h3.04s0-1.02,0-1.02c0-.17.13-.26.26-.26s.26.09.26.26v1.03s3.05,0,3.05,0c.16,0,.23.11.23.23,0,.12-.08.24-.23.24h-6.6ZM107.21,204.35c-.14,0-.25-.12-.25-.24,0-.07.03-.14.11-.2.66-.49,1.19-1.18,1.5-1.97.05-.11.13-.16.22-.16.12,0,.23.09.23.24,0,.03,0,.06-.02.1-.07.17-.15.34-.25.52.25.11,1.04.59,1.04.87,0,.14-.11.25-.22.25-.05,0-.1-.02-.14-.07-.29-.33-.66-.59-.87-.72-.45.68-1.09,1.39-1.34,1.39ZM110.02,204.28c-.14,0-.24-.11-.24-.23,0-.07.03-.13.1-.18.67-.45,1.2-1.16,1.52-1.97.05-.11.12-.15.2-.15.13,0,.25.11.25.25,0,.06-.02.15-.26.59.4.43.95.84,1.64,1.17.09.05.14.13.14.23,0,.13-.09.27-.25.27-.12,0-.83-.33-1.74-1.32-.4.61-1.05,1.34-1.35,1.34Z"/>
        <path class="cls-12" d="M120.01,205.4c1.12.92,2.1,1.4,3.33,1.8.14.05.21.15.21.25,0,.13-.1.27-.28.27-.23,0-2-.73-3.49-2.02l.03,2.05c0,.16-.12.24-.25.24-.12,0-.24-.08-.24-.23l.02-2.06c-1.49,1.36-3.33,2.05-3.48,2.05-.16,0-.26-.11-.26-.24,0-.09.06-.19.21-.25,1.33-.47,2.2-.94,3.27-1.86l-3.05.04c-.13,0-.21-.11-.21-.22,0-.11.07-.21.21-.21l3.32.02v-.7h-2.36c-.13,0-.2-.09-.2-.19,0-.1.07-.2.2-.2h2.35s0-.69,0-.69h-2.81c-.14,0-.21-.1-.21-.19,0-.1.07-.21.21-.21h1.91c-.09-.21-.25-.48-.37-.63-.03-.03-.04-.07-.04-.1,0-.11.11-.19.24-.19.29,0,.57.62.64.81,0,.03,0,.06,0,.08v.04h1.3c.11-.21.25-.57.3-.79.03-.11.12-.15.22-.15.13,0,.28.09.28.24,0,.05-.11.35-.31.71h1.88c.13,0,.2.1.2.19,0,.1-.07.21-.2.21h-2.78s0,.69,0,.69h2.31c.13,0,.2.1.2.19,0,.1-.07.2-.2.2h-2.32s0,.69,0,.69l3.34-.02c.14,0,.21.11.21.22s-.07.21-.2.21l-3.1-.04ZM115.92,201.79c-.14,0-.22-.11-.22-.22,0-.11.08-.22.22-.22h1.62c-.17-.31-.43-.62-.67-.89-.03-.03-.04-.06-.04-.09,0-.12.14-.23.28-.23.24,0,.9.97.9,1.21h.66v-1.5c0-.15.11-.22.22-.22.12,0,.23.07.23.22v1.5h.8v-1.5c0-.15.11-.22.23-.22.11,0,.23.07.23.22v1.5s.6,0,.6,0c.25-.32.5-.78.64-1.09.06-.12.15-.17.24-.17.13,0,.26.11.26.25,0,.12-.38.71-.64,1.01h1.68c.15,0,.22.1.22.21,0,.11-.07.22-.22.22h-7.25Z"/>
      </g>
      <g>
        <path class="cls-17" d="M68.72,106.46c0,1.33-.45,2.42-2.29,2.42s-2.8-.43-2.8-2.42v-5.41c-.16.05-.37.13-.77.13-1.57,0-2.74-1.47-2.74-2.88s.88-2,2.26-3.04c.61-.45,2.18-1.62,3.28-3.44.11-.16.16-.24.16-.32s-.11-.24-.24-.24h-2.69c-.59,0-2.45,0-2.45-2.21,0-1.89.83-2.5,2.45-2.5h.75v-1.01c0-.85.11-2.42,2.32-2.42,2,0,2.74.67,2.74,2.42v1.01c2.77,0,2.98,1.7,2.93,3.17.35-.27.83-.37,1.57-.37h2.42v-3.7c0-.99.21-2.42,2.37-2.42,1.84,0,2.82.51,2.82,2.42v3.7h2.32c.91,0,2.61.11,2.61,2.37,0,2.08-.8,2.77-2.61,2.77h-2.32v8.79h2.58c.88,0,2.58.11,2.58,2.34,0,1.97-.75,2.69-2.58,2.69h-10.73c-.96,0-2.88-.08-2.88-2.34,0-2,.88-2.69,2.88-2.69h2.96v-8.79h-2.42c-1.36,0-2.18-.45-2.4-1.84-.64,1.23-1.04,1.78-1.23,2.1.29.32,1.7,1.65,2,1.94.45.45.96.91.96,1.65,0,.99-.93,2.42-2.29,2.42-.35,0-.96-.13-1.52-.64v6.31Z"/>
        <path class="cls-17" d="M97.09,94.15c-.59,0-1.84-.03-2.26-1.25-1.62.88-2.53,1.25-3.22,1.25-1.44,0-2.56-1.38-2.56-3.01,0-1.46.91-1.92,1.44-2.13,4.34-1.78,5.41-2.37,7.46-4.29.96-.88,1.89-1.73,4-1.73s3.04.85,3.97,1.73c1.92,1.78,3.38,2.64,7.32,4.21.75.29,1.6.67,1.6,2.24s-1.2,2.96-2.45,2.96c-.67,0-1.6-.27-3.38-1.28-.43,1.3-1.73,1.3-2.29,1.3h-9.62ZM109.8,99.98c.8.83,1.54,1.76,2.26,2.69,1.78,2.29,1.78,2.74,1.78,3.2,0,1.94-2.13,2.74-3.14,2.74s-1.36-.51-2.02-1.52c-2.42.35-3.6.45-6.79.69-1.23.08-8.84.61-9.46.61-1.7,0-2.4-.91-2.4-2.61,0-.45.08-1.86,1.33-2.24.37-.11,1.7-.16,2.56-.19.35-.83.8-2.32,1.09-3.38h-2.85c-1.62,0-2.42-.64-2.42-2.56,0-2.26,1.84-2.26,2.42-2.26h19.5c1.7,0,2.45.72,2.45,2.56,0,2.26-1.84,2.26-2.45,2.26h-1.86ZM100.5,99.98c-.21.51-1.17,2.82-1.36,3.28,3.01-.05,3.38-.08,6.74-.24-.72-.96-.83-1.12-.83-1.65,0-.59.27-.96.75-1.39h-5.3ZM104.55,89.78c-.8-.67-1.57-1.41-1.94-1.76-.16-.16-.43-.37-.67-.37-.27,0-.48.19-.88.56-.61.59-1.39,1.28-1.76,1.57h5.25Z"/>
        <path class="cls-17" d="M128.33,86.77c-.05-.11-.19-.51-.29-.75-.08-.24-.21-.59-.21-1.01,0-1.25,1.49-1.86,2.88-1.86,1.17,0,1.68.35,2.24,1.57.19.43.59,1.25.69,2.05h1.54c.16-.29.29-.59.72-1.78.37-1.09.75-1.7,2.16-1.7,1.65,0,3.01.85,3.01,2.16,0,.45-.29.99-.51,1.36,1.49.29,2.1,1.68,2.1,3.44v1.65c0,1.41-.48,2.64-2.93,2.37-.11,1.38-.8,1.81-1.41,2.18-1.31.85-2.26,1.31-2.77,1.52h5.51c.53,0,2.42,0,2.42,2.24,0,2.08-1.52,2.26-2.42,2.26h-7.86v2.8c0,3.25-1.39,3.65-4.87,3.65-3.12,0-3.46-.08-3.89-.29-.72-.32-1.12-1.3-1.12-2.24,0-1.52.91-2.26,2.32-2.26.27,0,1.39.05,1.62.03.59-.05.59-.35.59-.99v-.69h-7.8c-.53,0-2.42,0-2.42-2.16,0-1.7.85-2.34,2.42-2.34h7.83c.05-.32.24-.72.99-.99.37-.13.83-.29.83-.48,0-.11-.08-.21-.21-.21h-6.13c-.61,0-1.92,0-2.02-2.02-2.08.24-2.98-.64-2.98-2.32v-1.7c0-1.01.05-3.01,2.4-3.38-.16-.32-.51-.93-.51-1.55,0-.96,1.17-1.97,2.85-1.97.8,0,1.57.08,2.37,1.7.21.45.53,1.25.64,1.73h2.24ZM123.3,91.97h13.64c.43,0,.48,0,.8.03v-.69c0-.16-.16-.21-.24-.21h-13.98c-.08,0-.21.05-.21.21v.67Z"/>
        <path class="cls-17" d="M165.14,97.35v-11.69c0-.59,0-2.45,2.37-2.45,2.13,0,2.66.99,2.66,2.45v10.84c.32,0,.96-.03,1.46.59.43.48.67,1.36.67,2.21,0,1.92-1.23,2.13-2.13,2.29v4.79c0,.59,0,2.45-2.37,2.45-2.08,0-2.66-.93-2.66-2.45v-3.89l-5.46.99c-.16.03-.37.05-.53.05-1.68,0-2.02-1.92-2.08-2.5-.19.11-.45.24-.91.24-.72,0-1.04-.35-1.28-.64v5.7c0,.51,0,2.45-2.34,2.45s-2.4-1.65-2.4-2.45v-1.86c-.19.29-.64.91-1.49.91-1.41,0-2.37-1.49-2.37-2.69,0-1.01.4-1.6,1.25-2.85,1.25-1.84,1.89-3.6,2.5-5.25h-1.01c-.53,0-2.5,0-2.5-2.29s1.94-2.32,2.5-2.32h1.12v-1.12c-.29.03-.91.08-1.23.08-.72,0-2.24-.11-2.24-2.34,0-2.05,1.3-2.13,3.17-2.24,1.52-.08,2.18-.21,4.13-.56.27-.05,1.01-.21,1.52-.21,1.68,0,2.18,1.28,2.18,2.32,0,1.81-1.06,2-2.8,2.32v1.76c2,0,2.34,1.44,2.34,2.32,0,.64-.19,2.24-2.24,2.29.77,1.25,1.2,1.68,2.5,3.06.21.24.43.56.56,1.04.24-.11.53-.19.8-.24l6.29-1.09ZM162.24,92.23c1.28,1.01,1.7,1.6,1.7,2.45,0,1.36-1.44,2.66-2.74,2.66-.72,0-1.06-.37-2.08-1.38-1.15-1.15-1.57-1.55-1.57-2.4,0-.93.96-2.42,2.64-2.42.37,0,.91.16,2.05,1.09ZM163.25,85.41c1.73,1.41,1.76,2,1.76,2.42,0,1.39-1.31,2.61-2.5,2.61-1.04,0-1.65-.64-2.32-1.28-.19-.19-1.01-.91-1.17-1.06-.45-.45-.51-.88-.51-1.23,0-.8.67-2.53,2.69-2.53.59,0,1.57.67,2.05,1.06Z"/>
      </g>
      <text class="cls-11" transform="translate(57.52 250.46) scale(.98 1)"><tspan class="cls-83" x="0" y="0">生</tspan><tspan class="cls-62" x="7.92" y="0">ま</tspan><tspan x="15.21" y="0">れ</tspan><tspan class="cls-51" x="24.21" y="0">育</tspan><tspan class="cls-92" x="32.22" y="0">っ</tspan><tspan class="cls-105" x="39.87" y="0">た</tspan><tspan x="48.6" y="0">地</tspan><tspan class="cls-57" x="57.6" y="0">元</tspan><tspan class="cls-100" x="66.06" y="0">の</tspan><tspan x="74.61" y="0">活性</tspan><tspan class="cls-57" x="92.62" y="0">化</tspan><tspan class="cls-98" x="101.08" y="0">に</tspan><tspan x="109.63" y="0">貢</tspan><tspan class="cls-74" x="118.63" y="0">献し</tspan><tspan class="cls-58" x="133.75" y="0">た</tspan><tspan class="cls-106" x="142.21" y="0">い</tspan><tspan x="0" y="16">埼玉県白岡</tspan><tspan class="cls-57" x="45" y="16">市</tspan><tspan class="cls-98" x="53.46" y="16">の</tspan><tspan x="62.01" y="16">市役所税務</tspan><tspan class="cls-57" x="107.02" y="16">課で</tspan><tspan x="123.94" y="16">、税</tspan><tspan class="cls-57" x="141.94" y="16">務</tspan><tspan class="cls-98" x="150.4" y="16">に</tspan><tspan class="cls-93" x="158.95" y="16">関</tspan><tspan class="cls-76" x="167.77" y="16">す</tspan><tspan class="cls-48" x="175.24" y="16">る</tspan><tspan x="183.34" y="16">仕</tspan><tspan class="cls-57" x="192.34" y="16">事</tspan><tspan class="cls-98" x="200.8" y="16">に</tspan><tspan class="cls-102" x="209.35" y="16">就</tspan><tspan class="cls-53" x="218.08" y="16">い</tspan><tspan class="cls-77" x="226.36" y="16">て</tspan><tspan class="cls-92" x="233.83" y="16">ま</tspan><tspan class="cls-81" x="-.18" y="32">す</tspan><tspan x="7.2" y="32">。市役</tspan><tspan class="cls-87" x="34.2" y="32">所</tspan><tspan class="cls-98" x="42.03" y="32">を</tspan><tspan x="50.58" y="32">志</tspan><tspan class="cls-74" x="59.58" y="32">望し</tspan><tspan class="cls-47" x="74.7" y="32">た</tspan><tspan class="cls-48" x="82.89" y="32">の</tspan><tspan class="cls-102" x="90.99" y="32">は</tspan><tspan class="cls-57" x="99.73" y="32">、自</tspan><tspan class="cls-94" x="116.65" y="32">分</tspan><tspan class="cls-25" x="125.47" y="32">が</tspan><tspan class="cls-83" x="134.47" y="32">生</tspan><tspan class="cls-62" x="142.39" y="32">ま</tspan><tspan x="149.68" y="32">れ</tspan><tspan class="cls-51" x="158.68" y="32">育</tspan><tspan class="cls-91" x="166.69" y="32">っ</tspan><tspan class="cls-104" x="174.34" y="32">た</tspan><tspan x="183.07" y="32">地</tspan><tspan class="cls-57" x="192.07" y="32">元</tspan><tspan class="cls-98" x="200.53" y="32">の</tspan><tspan x="209.08" y="32">活性化</tspan><tspan class="cls-98" x="-.54" y="48">に</tspan><tspan x="8.01" y="48">貢</tspan><tspan class="cls-74" x="17.01" y="48">献し</tspan><tspan class="cls-57" x="32.13" y="48">た</tspan><tspan class="cls-43" x="40.59" y="48">い</tspan><tspan class="cls-92" x="47.52" y="48">と</tspan><tspan class="cls-47" x="55.17" y="48">考</tspan><tspan class="cls-85" x="63.36" y="48">え</tspan><tspan class="cls-59" x="71.19" y="48">た</tspan><tspan class="cls-90" x="79.66" y="48">か</tspan><tspan class="cls-64" x="87.4" y="48">ら</tspan><tspan class="cls-104" x="94.69" y="48">で</tspan><tspan class="cls-81" x="103.42" y="48">す</tspan><tspan class="cls-46" x="110.8" y="48">。</tspan><tspan x="0" y="80">課</tspan><tspan class="cls-98" x="9" y="80">題</tspan><tspan class="cls-106" x="17.55" y="80">や</tspan><tspan x="26.46" y="80">問題</tspan><tspan class="cls-87" x="44.46" y="80">点</tspan><tspan class="cls-98" x="52.29" y="80">を</tspan><tspan x="60.84" y="80">抽</tspan><tspan class="cls-74" x="69.84" y="80">出</tspan><tspan class="cls-33" x="77.4" y="80">し</tspan><tspan class="cls-98" x="84.06" y="80">て</tspan><tspan x="92.62" y="80">課題解</tspan><tspan class="cls-57" x="119.62" y="80">決</tspan><tspan class="cls-98" x="128.08" y="80">に</tspan><tspan class="cls-81" x="136.63" y="80">取</tspan><tspan class="cls-76" x="144.01" y="80">り</tspan><tspan class="cls-57" x="151.48" y="80">組</tspan><tspan class="cls-56" x="159.94" y="80">ん</tspan><tspan class="cls-108" x="168.31" y="80">だ</tspan><tspan x="0" y="96">社会学</tspan><tspan class="cls-57" x="27" y="96">科</tspan><tspan class="cls-98" x="35.46" y="96">の</tspan><tspan class="cls-57" x="44.01" y="96">学び</tspan><tspan class="cls-98" x="60.93" y="96">の</tspan><tspan x="69.48" y="96">特</tspan><tspan class="cls-57" x="78.48" y="96">徴</tspan><tspan class="cls-100" x="86.94" y="96">の</tspan><tspan class="cls-101" x="95.5" y="96">一</tspan><tspan class="cls-56" x="104.14" y="96">つ</tspan><tspan class="cls-102" x="112.51" y="96">は</tspan><tspan class="cls-48" x="121.24" y="96">、</tspan><tspan class="cls-26" x="129.34" y="96">フ</tspan><tspan class="cls-35" x="134.74" y="96">ィ</tspan><tspan class="cls-68" x="141.22" y="96">ール</tspan><tspan class="cls-61" x="155.44" y="96">ド</tspan><tspan class="cls-75" x="162.73" y="96">ワ</tspan><tspan class="cls-90" x="170.2" y="96">ー</tspan><tspan class="cls-78" x="177.94" y="96">クだ</tspan><tspan class="cls-92" x="192.7" y="96">と</tspan><tspan class="cls-102" x="200.35" y="96">思</tspan><tspan class="cls-74" x="209.08" y="96">い</tspan><tspan class="cls-77" x="216.64" y="96">ま</tspan><tspan class="cls-81" x="224.11" y="96">す</tspan><tspan class="cls-46" x="231.49" y="96">。</tspan><tspan class="cls-98" x="0" y="112">私</tspan><tspan class="cls-102" x="8.55" y="112">は</tspan><tspan x="17.28" y="112">、長野県千曲</tspan><tspan class="cls-57" x="71.28" y="112">市</tspan><tspan class="cls-98" x="79.74" y="112">の</tspan><tspan x="88.29" y="112">山</tspan><tspan class="cls-57" x="97.29" y="112">間</tspan><tspan class="cls-52" x="105.75" y="112">に</tspan><tspan class="cls-77" x="113.77" y="112">あ</tspan><tspan class="cls-48" x="121.24" y="112">る</tspan><tspan x="129.34" y="112">姨捨棚</tspan><tspan class="cls-57" x="156.34" y="112">田</tspan><tspan class="cls-100" x="164.8" y="112">の</tspan><tspan x="173.35" y="112">実地調</tspan><tspan class="cls-57" x="200.35" y="112">査</tspan><tspan class="cls-98" x="208.81" y="112">に</tspan><tspan x="217.36" y="112">参</tspan><tspan class="cls-74" x="226.36" y="112">加</tspan><tspan class="cls-48" x="233.92" y="112">し</tspan><tspan class="cls-30" x="-1.08" y="128">ま</tspan><tspan class="cls-74" x="5.04" y="128">し</tspan><tspan class="cls-104" x="12.6" y="128">た</tspan><tspan x="21.33" y="128">。地</tspan><tspan class="cls-57" x="39.33" y="128">元</tspan><tspan class="cls-98" x="47.79" y="128">の</tspan><tspan class="cls-47" x="56.34" y="128">人</tspan><tspan class="cls-62" x="64.53" y="128">々</tspan><tspan class="cls-100" x="71.82" y="128">の</tspan><tspan x="80.38" y="128">意</tspan><tspan class="cls-87" x="89.38" y="128">見</tspan><tspan class="cls-96" x="97.21" y="128">を</tspan><tspan class="cls-92" x="105.76" y="128">聞</tspan><tspan class="cls-83" x="113.41" y="128">き</tspan><tspan class="cls-87" x="121.33" y="128">、</tspan><tspan class="cls-33" x="129.16" y="128">そ</tspan><tspan class="cls-74" x="135.82" y="128">こ</tspan><tspan class="cls-88" x="143.38" y="128">か</tspan><tspan class="cls-48" x="151.12" y="128">ら</tspan><tspan x="159.22" y="128">地</tspan><tspan class="cls-57" x="168.22" y="128">域</tspan><tspan class="cls-100" x="176.68" y="128">の</tspan><tspan x="185.23" y="128">課</tspan><tspan class="cls-98" x="194.23" y="128">題</tspan><tspan class="cls-108" x="202.78" y="128">や</tspan><tspan x="211.69" y="128">問題点</tspan><tspan class="cls-98" x="-1.17" y="144">を</tspan><tspan x="7.38" y="144">抽</tspan><tspan class="cls-74" x="16.38" y="144">出</tspan><tspan class="cls-48" x="23.94" y="144">し</tspan><tspan x="32.04" y="144">、調査実</tspan><tspan class="cls-57" x="68.04" y="144">習</tspan><tspan class="cls-83" x="76.5" y="144">の</tspan><tspan class="cls-66" x="84.42" y="144">メ</tspan><tspan class="cls-51" x="91.63" y="144">ン</tspan><tspan class="cls-56" x="99.64" y="144">バ</tspan><tspan class="cls-90" x="108.01" y="144">ー</tspan><tspan class="cls-108" x="115.75" y="144">で</tspan><tspan x="124.66" y="144">課題解</tspan><tspan class="cls-57" x="151.66" y="144">決</tspan><tspan class="cls-98" x="160.12" y="144">に</tspan><tspan class="cls-81" x="168.67" y="144">取</tspan><tspan class="cls-76" x="176.05" y="144">り</tspan><tspan class="cls-57" x="183.52" y="144">組</tspan><tspan class="cls-56" x="191.98" y="144">ん</tspan><tspan class="cls-108" x="200.35" y="144">だ</tspan><tspan x="209.26" y="144">貴</tspan><tspan class="cls-48" x="218.26" y="144">重</tspan><tspan class="cls-101" x="226.36" y="144">な</tspan><tspan x="0" y="160">経</tspan><tspan class="cls-98" x="9" y="160">験</tspan><tspan class="cls-102" x="17.55" y="160">は</tspan><tspan x="26.28" y="160">、現在、地域住</tspan><tspan class="cls-57" x="89.28" y="160">民</tspan><tspan class="cls-98" x="97.74" y="160">の</tspan><tspan class="cls-47" x="106.3" y="160">方</tspan><tspan class="cls-61" x="114.49" y="160">々</tspan><tspan class="cls-98" x="121.78" y="160">の</tspan><tspan x="130.33" y="160">意</tspan><tspan class="cls-87" x="139.33" y="160">見</tspan><tspan class="cls-99" x="147.16" y="160">を</tspan><tspan class="cls-92" x="155.71" y="160">聞</tspan><tspan class="cls-84" x="163.36" y="160">き</tspan><tspan x="171.28" y="160">、</tspan><tspan class="cls-47" x="180.28" y="160">人</tspan><tspan class="cls-61" x="188.47" y="160">々</tspan><tspan class="cls-98" x="195.76" y="160">に</tspan><tspan class="cls-81" x="204.31" y="160">寄</tspan><tspan class="cls-75" x="211.69" y="160">り</tspan><tspan class="cls-51" x="219.16" y="160">添</tspan><tspan class="cls-92" x="227.17" y="160">っ</tspan><tspan class="cls-102" x="234.82" y="160">た</tspan><tspan x="0" y="176">課題解</tspan><tspan class="cls-87" x="27" y="176">決</tspan><tspan class="cls-56" x="34.83" y="176">を</tspan><tspan class="cls-77" x="43.2" y="176">す</tspan><tspan class="cls-48" x="50.67" y="176">る</tspan><tspan x="58.77" y="176">仕</tspan><tspan class="cls-57" x="67.77" y="176">事</tspan><tspan class="cls-98" x="76.23" y="176">に</tspan><tspan class="cls-91" x="84.79" y="176">生</tspan><tspan class="cls-62" x="92.43" y="176">き</tspan><tspan class="cls-55" x="99.73" y="176">て</tspan><tspan class="cls-87" x="108.01" y="176">い</tspan><tspan class="cls-35" x="115.84" y="176">る</tspan><tspan class="cls-91" x="122.32" y="176">と</tspan><tspan x="129.97" y="176">実</tspan><tspan class="cls-74" x="138.97" y="176">感</tspan><tspan class="cls-34" x="146.53" y="176">し</tspan><tspan class="cls-55" x="153.19" y="176">て</tspan><tspan class="cls-74" x="161.47" y="176">い</tspan><tspan class="cls-75" x="169.03" y="176">ま</tspan><tspan class="cls-78" x="176.5" y="176">す</tspan><tspan class="cls-44" x="183.88" y="176">。</tspan><tspan x="0" y="192">現</tspan><tspan class="cls-98" x="9" y="192">在</tspan><tspan class="cls-102" x="17.55" y="192">は</tspan><tspan x="26.28" y="192">、地</tspan><tspan class="cls-57" x="44.28" y="192">元</tspan><tspan class="cls-56" x="52.74" y="192">で</tspan><tspan class="cls-76" x="61.11" y="192">あ</tspan><tspan class="cls-50" x="68.58" y="192">る</tspan><tspan x="76.68" y="192">白岡</tspan><tspan class="cls-93" x="94.69" y="192">市</tspan><tspan class="cls-102" x="103.51" y="192">が</tspan><tspan class="cls-51" x="112.24" y="192">、</tspan><tspan class="cls-37" x="120.25" y="192">さ</tspan><tspan class="cls-74" x="126.82" y="192">ら</tspan><tspan class="cls-98" x="134.38" y="192">に</tspan><tspan x="142.93" y="192">住</tspan><tspan class="cls-83" x="151.93" y="192">み</tspan><tspan class="cls-77" x="159.85" y="192">よ</tspan><tspan class="cls-43" x="167.32" y="192">い</tspan><tspan class="cls-38" x="174.25" y="192">と</tspan><tspan class="cls-70" x="180.64" y="192">こ</tspan><tspan class="cls-83" x="187.66" y="192">ろ</tspan><tspan class="cls-98" x="195.58" y="192">に</tspan><tspan x="204.13" y="192">発</tspan><tspan class="cls-74" x="213.13" y="192">展</tspan><tspan class="cls-33" x="220.69" y="192">し</tspan><tspan class="cls-98" x="227.35" y="192">て</tspan><tspan class="cls-66" x="-.27" y="208">い</tspan><tspan class="cls-62" x="6.93" y="208">く</tspan><tspan x="14.22" y="208">一</tspan><tspan class="cls-57" x="23.22" y="208">助</tspan><tspan class="cls-91" x="31.68" y="208">に</tspan><tspan class="cls-69" x="39.33" y="208">な</tspan><tspan class="cls-42" x="46.35" y="208">り</tspan><tspan class="cls-59" x="53.28" y="208">た</tspan><tspan class="cls-43" x="61.74" y="208">い</tspan><tspan class="cls-91" x="68.68" y="208">と</tspan><tspan class="cls-47" x="76.33" y="208">考</tspan><tspan class="cls-61" x="84.52" y="208">え</tspan><tspan class="cls-53" x="91.81" y="208">て</tspan><tspan class="cls-74" x="100.09" y="208">い</tspan><tspan class="cls-75" x="107.65" y="208">ま</tspan><tspan class="cls-79" x="115.12" y="208">す</tspan><tspan class="cls-44" x="122.5" y="208">。</tspan><tspan x="0" y="240">興</tspan><tspan class="cls-57" x="9" y="240">味</tspan><tspan class="cls-51" x="17.46" y="240">の</tspan><tspan class="cls-76" x="25.47" y="240">あ</tspan><tspan class="cls-41" x="32.94" y="240">る</tspan><tspan class="cls-28" x="39.78" y="240">こ</tspan><tspan class="cls-66" x="46.08" y="240">と</tspan><tspan class="cls-108" x="53.28" y="240">や</tspan><tspan class="cls-57" x="62.19" y="240">学びた</tspan><tspan class="cls-75" x="87.58" y="240">い</tspan><tspan class="cls-29" x="95.05" y="240">こ</tspan><tspan class="cls-35" x="101.35" y="240">と</tspan><tspan class="cls-98" x="107.83" y="240">を</tspan><tspan class="cls-101" x="116.38" y="240">見</tspan><tspan class="cls-51" x="125.02" y="240">つ</tspan><tspan class="cls-48" x="133.03" y="240">け</tspan><tspan class="cls-102" x="141.13" y="240">や</tspan><tspan class="cls-100" x="149.86" y="240">す</tspan><tspan class="cls-107" x="158.41" y="240">い</tspan><tspan x="0" y="256">立正大学文学</tspan><tspan class="cls-57" x="54" y="256">部</tspan><tspan class="cls-48" x="62.46" y="256">に</tspan><tspan class="cls-102" x="70.56" y="256">は</tspan><tspan x="79.29" y="256">幅</tspan><tspan class="cls-102" x="88.29" y="256">広</tspan><tspan class="cls-106" x="97.03" y="256">い</tspan><tspan x="105.94" y="256">領</tspan><tspan class="cls-87" x="114.94" y="256">域</tspan><tspan class="cls-51" x="122.77" y="256">を</tspan><tspan class="cls-48" x="130.78" y="256">カ</tspan><tspan class="cls-56" x="138.88" y="256">バ</tspan><tspan class="cls-47" x="147.25" y="256">ー</tspan><tspan class="cls-76" x="155.44" y="256">す</tspan><tspan class="cls-50" x="162.91" y="256">る</tspan><tspan class="cls-25" x="171.01" y="256">学</tspan><tspan class="cls-94" x="180.01" y="256">科</tspan><tspan class="cls-59" x="188.83" y="256">が</tspan><tspan class="cls-42" x="197.29" y="256">あり</tspan><tspan x="211.15" y="256">、</tspan><tspan class="cls-57" x="220.15" y="256">特</tspan><tspan class="cls-98" x="228.61" y="256">に</tspan><tspan x="0" y="272">社会学</tspan><tspan class="cls-48" x="27" y="272">科</tspan><tspan class="cls-81" x="35.1" y="272">な</tspan><tspan class="cls-74" x="42.48" y="272">ら</tspan><tspan class="cls-59" x="50.04" y="272">自</tspan><tspan class="cls-93" x="58.5" y="272">分</tspan><tspan class="cls-25" x="67.32" y="272">が興</tspan><tspan class="cls-57" x="85.33" y="272">味</tspan><tspan class="cls-51" x="93.79" y="272">の</tspan><tspan class="cls-77" x="101.8" y="272">あ</tspan><tspan class="cls-39" x="109.27" y="272">る</tspan><tspan class="cls-27" x="116.11" y="272">こ</tspan><tspan class="cls-65" x="122.41" y="272">と</tspan><tspan class="cls-106" x="129.61" y="272">や</tspan><tspan class="cls-57" x="138.52" y="272">学びた</tspan><tspan class="cls-77" x="163.9" y="272">い</tspan><tspan class="cls-28" x="171.37" y="272">こ</tspan><tspan class="cls-36" x="177.67" y="272">と</tspan><tspan class="cls-99" x="184.15" y="272">を</tspan><tspan class="cls-101" x="192.7" y="272">見</tspan><tspan class="cls-52" x="201.34" y="272">つ</tspan><tspan class="cls-48" x="209.35" y="272">け</tspan><tspan class="cls-105" x="217.45" y="272">や</tspan><tspan class="cls-98" x="226.18" y="272">す</tspan><tspan class="cls-108" x="234.73" y="272">い</tspan><tspan class="cls-92" x="-1.53" y="288">と</tspan><tspan class="cls-74" x="6.12" y="288">思</tspan><tspan class="cls-67" x="13.68" y="288">う</tspan><tspan class="cls-52" x="20.79" y="288">の</tspan><tspan class="cls-59" x="28.8" y="288">で</tspan><tspan x="37.26" y="288">、</tspan><tspan class="cls-57" x="46.26" y="288">ぜ</tspan><tspan class="cls-56" x="54.72" y="288">ひ</tspan><tspan class="cls-108" x="63.09" y="288">お</tspan><tspan class="cls-55" x="72" y="288">勧</tspan><tspan class="cls-68" x="80.29" y="288">め</tspan><tspan class="cls-69" x="87.4" y="288">し</tspan><tspan class="cls-75" x="94.42" y="288">ま</tspan><tspan class="cls-78" x="101.89" y="288">す</tspan><tspan class="cls-83" x="109.27" y="288">。</tspan><tspan class="cls-68" x="117.19" y="288">ま</tspan><tspan class="cls-102" x="124.3" y="288">た</tspan><tspan x="133.03" y="288">、先生</tspan><tspan class="cls-51" x="160.03" y="288">方</tspan><tspan class="cls-90" x="168.04" y="288">も</tspan><tspan class="cls-83" x="175.78" y="288">明</tspan><tspan class="cls-38" x="183.7" y="288">る</tspan><tspan class="cls-62" x="190.09" y="288">く</tspan><tspan x="197.38" y="288">、</tspan><tspan class="cls-74" x="206.38" y="288">楽</tspan><tspan class="cls-31" x="213.94" y="288">し</tspan><tspan class="cls-62" x="219.7" y="288">く</tspan><tspan x="226.99" y="288">会</tspan><tspan class="cls-93" x="0" y="304">話</tspan><tspan class="cls-77" x="8.82" y="304">す</tspan><tspan class="cls-41" x="16.29" y="304">る</tspan><tspan class="cls-28" x="23.13" y="304">こ</tspan><tspan class="cls-77" x="29.43" y="304">と</tspan><tspan class="cls-57" x="36.9" y="304">が</tspan><tspan class="cls-73" x="45.36" y="304">で</tspan><tspan class="cls-40" x="52.92" y="304">き</tspan><tspan class="cls-77" x="59.76" y="304">ま</tspan><tspan class="cls-79" x="67.23" y="304">す</tspan><tspan x="74.62" y="304">。文学</tspan><tspan class="cls-48" x="101.62" y="304">部</tspan><tspan class="cls-82" x="109.72" y="304">な</tspan><tspan class="cls-48" x="117.1" y="304">ら</tspan><tspan x="125.2" y="304">、</tspan><tspan class="cls-74" x="134.2" y="304">楽</tspan><tspan class="cls-32" x="141.76" y="304">し</tspan><tspan class="cls-62" x="147.52" y="304">く</tspan><tspan x="154.81" y="304">興</tspan><tspan class="cls-87" x="163.81" y="304">味</tspan><tspan class="cls-99" x="171.64" y="304">を</tspan><tspan class="cls-51" x="180.19" y="304">持</tspan><tspan class="cls-71" x="188.2" y="304">っ</tspan><tspan class="cls-99" x="195.76" y="304">て</tspan><tspan class="cls-101" x="204.31" y="304">学</tspan><tspan class="cls-90" x="212.95" y="304">ぶ</tspan><tspan class="cls-29" x="220.69" y="304">こ</tspan><tspan class="cls-77" x="226.99" y="304">と</tspan><tspan x="234.47" y="304">が</tspan><tspan class="cls-71" x="-.54" y="320">で</tspan><tspan class="cls-41" x="7.02" y="320">き</tspan><tspan class="cls-35" x="13.86" y="320">る</tspan><tspan class="cls-92" x="20.34" y="320">と</tspan><tspan class="cls-102" x="27.99" y="320">思</tspan><tspan class="cls-74" x="36.72" y="320">い</tspan><tspan class="cls-77" x="44.28" y="320">ま</tspan><tspan class="cls-81" x="51.75" y="320">す</tspan><tspan class="cls-46" x="59.13" y="320">。</tspan></text>
      <g>
        <path class="cls-7" d="M67,104.38c0,1.33-.45,2.42-2.29,2.42s-2.8-.43-2.8-2.42v-5.41c-.16.05-.37.13-.77.13-1.57,0-2.74-1.47-2.74-2.88s.88-2,2.26-3.04c.61-.45,2.18-1.62,3.28-3.44.11-.16.16-.24.16-.32s-.11-.24-.24-.24h-2.69c-.59,0-2.45,0-2.45-2.21,0-1.89.83-2.5,2.45-2.5h.75v-1.01c0-.85.11-2.42,2.32-2.42,2,0,2.74.67,2.74,2.42v1.01c2.77,0,2.98,1.7,2.93,3.17.35-.27.83-.37,1.57-.37h2.42v-3.7c0-.99.21-2.42,2.37-2.42,1.84,0,2.82.51,2.82,2.42v3.7h2.32c.91,0,2.61.11,2.61,2.37,0,2.08-.8,2.77-2.61,2.77h-2.32v8.79h2.58c.88,0,2.58.11,2.58,2.34,0,1.97-.75,2.69-2.58,2.69h-10.73c-.96,0-2.88-.08-2.88-2.34,0-2,.88-2.69,2.88-2.69h2.96v-8.79h-2.42c-1.36,0-2.18-.45-2.4-1.84-.64,1.23-1.04,1.78-1.23,2.1.29.32,1.7,1.65,2,1.94.45.45.96.91.96,1.65,0,.99-.93,2.42-2.29,2.42-.35,0-.96-.13-1.52-.64v6.31Z"/>
        <path class="cls-7" d="M95.36,92.08c-.59,0-1.84-.03-2.26-1.25-1.62.88-2.53,1.25-3.22,1.25-1.44,0-2.56-1.38-2.56-3.01,0-1.46.91-1.92,1.44-2.13,4.34-1.78,5.41-2.37,7.46-4.29.96-.88,1.89-1.73,4-1.73s3.04.85,3.97,1.73c1.92,1.78,3.38,2.64,7.32,4.21.75.29,1.6.67,1.6,2.24s-1.2,2.96-2.45,2.96c-.67,0-1.6-.27-3.38-1.28-.43,1.3-1.73,1.3-2.29,1.3h-9.62ZM108.07,97.91c.8.83,1.54,1.76,2.26,2.69,1.78,2.29,1.78,2.74,1.78,3.2,0,1.94-2.13,2.74-3.14,2.74s-1.36-.51-2.02-1.52c-2.42.35-3.6.45-6.79.69-1.23.08-8.84.61-9.46.61-1.7,0-2.4-.91-2.4-2.61,0-.45.08-1.86,1.33-2.24.37-.11,1.7-.16,2.56-.19.35-.83.8-2.32,1.09-3.38h-2.85c-1.62,0-2.42-.64-2.42-2.56,0-2.26,1.84-2.26,2.42-2.26h19.5c1.7,0,2.45.72,2.45,2.56,0,2.26-1.84,2.26-2.45,2.26h-1.86ZM98.77,97.91c-.21.51-1.17,2.82-1.36,3.28,3.01-.05,3.38-.08,6.74-.24-.72-.96-.83-1.12-.83-1.65,0-.59.27-.96.75-1.39h-5.3ZM102.82,87.71c-.8-.67-1.57-1.41-1.94-1.76-.16-.16-.43-.37-.67-.37-.27,0-.48.19-.88.56-.61.59-1.39,1.28-1.76,1.57h5.25Z"/>
        <path class="cls-7" d="M126.61,84.7c-.05-.11-.19-.51-.29-.75-.08-.24-.21-.59-.21-1.01,0-1.25,1.49-1.86,2.88-1.86,1.17,0,1.68.35,2.24,1.57.19.43.59,1.25.69,2.05h1.54c.16-.29.29-.59.72-1.78.37-1.09.75-1.7,2.16-1.7,1.65,0,3.01.85,3.01,2.16,0,.45-.29.99-.51,1.36,1.49.29,2.1,1.68,2.1,3.44v1.65c0,1.41-.48,2.64-2.93,2.37-.11,1.38-.8,1.81-1.41,2.18-1.31.85-2.26,1.31-2.77,1.52h5.51c.53,0,2.42,0,2.42,2.24,0,2.08-1.52,2.26-2.42,2.26h-7.86v2.8c0,3.25-1.39,3.65-4.87,3.65-3.12,0-3.46-.08-3.89-.29-.72-.32-1.12-1.3-1.12-2.24,0-1.52.91-2.26,2.32-2.26.27,0,1.39.05,1.62.03.59-.05.59-.35.59-.99v-.69h-7.8c-.53,0-2.42,0-2.42-2.16,0-1.7.85-2.34,2.42-2.34h7.83c.05-.32.24-.72.99-.99.37-.13.83-.29.83-.48,0-.11-.08-.21-.21-.21h-6.13c-.61,0-1.92,0-2.02-2.02-2.08.24-2.98-.64-2.98-2.32v-1.7c0-1.01.05-3.01,2.4-3.38-.16-.32-.51-.93-.51-1.55,0-.96,1.17-1.97,2.85-1.97.8,0,1.57.08,2.37,1.7.21.45.53,1.25.64,1.73h2.24ZM121.57,89.89h13.64c.43,0,.48,0,.8.03v-.69c0-.16-.16-.21-.24-.21h-13.98c-.08,0-.21.05-.21.21v.67Z"/>
        <path class="cls-7" d="M163.42,95.27v-11.69c0-.59,0-2.45,2.37-2.45,2.13,0,2.66.99,2.66,2.45v10.84c.32,0,.96-.03,1.46.59.43.48.67,1.36.67,2.21,0,1.92-1.23,2.13-2.13,2.29v4.79c0,.59,0,2.45-2.37,2.45-2.08,0-2.66-.93-2.66-2.45v-3.89l-5.46.99c-.16.03-.37.05-.53.05-1.68,0-2.02-1.92-2.08-2.5-.19.11-.45.24-.91.24-.72,0-1.04-.35-1.28-.64v5.7c0,.51,0,2.45-2.34,2.45s-2.4-1.65-2.4-2.45v-1.86c-.19.29-.64.91-1.49.91-1.41,0-2.37-1.49-2.37-2.69,0-1.01.4-1.6,1.25-2.85,1.25-1.84,1.89-3.6,2.5-5.25h-1.01c-.53,0-2.5,0-2.5-2.29s1.94-2.32,2.5-2.32h1.12v-1.12c-.29.03-.91.08-1.23.08-.72,0-2.24-.11-2.24-2.34,0-2.05,1.3-2.13,3.17-2.24,1.52-.08,2.18-.21,4.13-.56.27-.05,1.01-.21,1.52-.21,1.68,0,2.18,1.28,2.18,2.32,0,1.81-1.06,2-2.8,2.32v1.76c2,0,2.34,1.44,2.34,2.32,0,.64-.19,2.24-2.24,2.29.77,1.25,1.2,1.68,2.5,3.06.21.24.43.56.56,1.04.24-.11.53-.19.8-.24l6.29-1.09ZM160.51,90.16c1.28,1.01,1.7,1.6,1.7,2.45,0,1.36-1.44,2.66-2.74,2.66-.72,0-1.06-.37-2.08-1.38-1.15-1.15-1.57-1.55-1.57-2.4,0-.93.96-2.42,2.64-2.42.37,0,.91.16,2.05,1.09ZM161.53,83.34c1.73,1.41,1.76,2,1.76,2.42,0,1.39-1.31,2.61-2.5,2.61-1.04,0-1.65-.64-2.32-1.28-.19-.19-1.01-.91-1.17-1.06-.45-.45-.51-.88-.51-1.23,0-.8.67-2.53,2.69-2.53.59,0,1.57.67,2.05,1.06Z"/>
      </g>
    </g>
  </g>
</svg>