<svg preserveAspectRatio="none" width="100%" height="100%" overflow="visible" style="display: block;" viewBox="0 0 24.4033 24.4551" fill="none" xmlns="http://www.w3.org/2000/svg">
<path id="Vector" d="M23.7135 16.3401L24.4033 12.8938L20.8243 11.922C20.7943 10.9903 20.6144 10.0786 20.2944 9.22703L23.2436 6.97288L21.3042 4.04744L18.085 5.90089C17.4252 5.27975 16.6554 4.75876 15.8057 4.36804L16.3055 0.691277L12.8665 0L11.8967 3.58663C10.967 3.61669 10.0572 3.79699 9.20744 4.11758L6.95806 1.16212L4.03887 3.1057L5.88834 6.33168C5.26851 6.9929 4.74869 7.76429 4.35879 8.61586L0.689814 8.11494L0 11.5613L3.57898 12.5331C3.60897 13.4648 3.78895 14.3765 4.10886 15.2281L1.15966 17.4822L3.09913 20.4076L6.31822 18.5542C6.97804 19.1754 7.74786 19.6963 8.59763 20.087L8.09776 23.7638L11.5368 24.4551L12.5065 20.8685C13.4363 20.8384 14.346 20.6581 15.1958 20.3375L17.4452 23.2929L20.3644 21.3494L18.5149 18.1234C19.1347 17.4622 19.6546 16.6908 20.0445 15.8392L23.7135 16.3401ZM11.3269 16.6106C8.90752 16.1197 7.34796 13.7654 7.83782 11.3409C8.32769 8.91645 10.6771 7.35358 13.0964 7.84448C15.5157 8.33539 17.0753 10.6897 16.5854 13.1142C16.0956 15.5387 13.7462 17.1015 11.3269 16.6106Z" fill="var(--fill-0, #F4C058)"/>
</svg>
