<svg preserveAspectRatio="none" width="100%" height="100%" overflow="visible" style="display: block;" viewBox="0 0 196.632 37.5004" fill="none" xmlns="http://www.w3.org/2000/svg">
<g id="Group">
<path id="Vector" d="M4.04454 10.4756C1.95511 10.4756 0.315582 9.75427 0.315582 7.04928C0.315582 4.34429 1.53523 3.39258 4.04454 3.39258H14.4917C14.4917 0.877939 16.5811 0.497222 17.9907 0.497222C20.1602 0.497222 22.2096 0.767736 22.2096 3.39258H32.9667C35.1361 3.39258 36.6857 4.15396 36.6857 6.81888C36.6857 9.48379 35.466 10.4756 32.9667 10.4756H28.098C29.8875 11.8882 31.2171 12.9502 33.3066 14.1725C35.6959 15.6251 36.6556 16.1561 36.6556 17.8292C36.6556 19.5023 35.0261 22.0169 33.0867 22.0169C31.987 22.0169 30.8873 21.5561 27.9581 19.4322C28.298 19.9231 28.4879 20.424 28.4879 21.0351C28.4879 22.8585 26.4785 25.2228 24.8389 26.976C26.8884 27.8577 27.4582 28.0079 31.9869 29.0298C34.5362 29.6409 36.3958 30.0617 36.3958 32.5363C36.3958 33.7585 36.0158 34.9307 35.556 35.6621C34.7962 36.9144 33.5765 37.1849 32.4768 37.1849C30.5373 37.1849 24.1191 35.7723 18.5306 32.1556C12.2624 36.1931 5.91403 37.1849 4.54441 37.1849C1.73517 37.1849 0.70549 34.3998 0.70549 32.7667C0.70549 30.2521 2.41501 29.6811 4.31449 29.2603C8.45336 28.3085 10.1629 27.8877 12.2523 26.936C9.89297 24.3412 8.6033 22.4777 8.6033 21.0751C8.6033 20.2336 8.90327 19.7427 9.09321 19.4722C6.92381 21.0351 5.44419 22.0269 4.07456 22.0269C2.09511 22.0269 0.425537 19.7828 0.425537 17.759C0.425537 16.2362 1.22535 15.7754 4.26452 13.912C6.08402 12.8099 7.11374 11.9684 9.01322 10.4857H4.0346L4.04454 10.4756ZM13.582 10.4756C14.6817 11.3873 14.9116 12.4593 14.9116 13.1806C14.9116 14.6333 13.8119 15.7353 11.4125 17.6789C11.6825 17.5988 12.0924 17.4485 12.7022 17.4485C14.4517 17.4485 15.2515 18.5104 15.6314 19.0815C16.961 20.9048 17.231 21.2855 18.5206 22.5879C19.0105 22.097 19.9602 21.1753 20.8 20.0332C22.0196 18.3602 22.6595 17.4785 24.299 17.4785C25.0188 17.4785 25.4787 17.6689 25.8186 17.7791C22.7795 15.3847 22.1696 14.3528 22.1696 13.0904C22.1696 12.3691 22.4695 11.3372 23.4993 10.4656H13.582V10.4756Z" stroke="var(--stroke-0, #386F6B)" stroke-width="0.631164"/>
<path id="Vector_2" d="M57.8601 21.7546C57.8601 21.2637 57.8201 20.953 57.4402 20.953C56.2605 20.953 53.7512 20.9531 53.7512 17.7171C53.7512 15.0121 54.7809 13.9902 57.2503 13.9902H59.2597C63.8185 13.9902 64.4283 14.9821 64.4283 19.3601V26.1727C64.4283 26.1727 64.4283 27.7356 66.0579 28.6473C67.3875 29.4087 68.7171 29.4086 70.2367 29.4086H86.7622C88.8516 29.4086 90.1813 30.7411 90.1813 32.875C90.1813 33.2157 90.1813 36.3013 86.7622 36.3013H70.2367C64.9581 36.3013 62.9787 34.0171 62.2189 33.1054C61.729 33.947 61.3791 34.4379 60.5893 35.2795C59.4896 36.4617 58.8398 36.9926 57.5502 36.9926C55.2708 36.9926 53.4513 34.8587 53.4513 32.5745C53.4513 30.8213 54.291 30.2902 56.1505 29.0279C56.7204 28.6472 57.8201 27.9259 57.8601 27.8859V21.7546ZM57.7501 0.956207C59.0798 0.956207 60.4094 1.79773 63.1486 4.31237C65.388 6.32608 65.9579 7.08748 65.9579 8.30973C65.9579 10.2533 64.2484 12.4274 62.1989 12.4274C60.8693 12.4274 60.5993 12.1568 58.3599 9.99283C57.8701 9.50192 55.5507 7.43812 55.0908 6.98729C54.601 6.49638 53.8712 5.76508 54.0611 4.40256C54.2911 2.5792 56.0006 0.976202 57.7501 0.976202V0.956207ZM65.348 14.6314C65.348 11.165 65.8079 9.45185 69.5269 9.45185C69.2569 9.03108 69.037 8.50012 69.037 7.96914C69.037 7.47823 69.187 7.20772 69.307 7.01737H67.8674C66.9976 7.01737 65.0182 7.0174 65.0182 4.35248C65.0182 1.68757 67.0276 1.68754 67.8674 1.68754H84.9627C87.432 1.68754 88.4917 3.13022 88.4917 4.9636C88.4917 6.79698 87.622 7.58842 84.6928 9.45185C88.5717 9.60213 88.8316 11.3954 88.8316 14.6314V23.8083C88.8316 27.8458 88.3018 28.9879 83.7031 28.9879C81.7636 28.9879 80.6639 28.9077 80.054 27.3148C79.6741 28.6473 78.6144 29.1482 76.7849 29.1482C74.0456 29.1482 73.7058 27.3949 73.7058 26.1025V23.2072H71.8462V25.8721C71.8462 28.0061 70.8165 28.9979 68.7271 28.9979C66.6377 28.9979 65.348 27.8558 65.348 25.6818V14.6414V14.6314ZM73.7058 14.8619V13.6396H72.2662C72.1562 13.6396 71.8462 13.7197 71.8462 14.0603V14.8619H73.7058ZM73.7058 18.3583H71.8462V19.5805H73.7058V18.3583ZM75.9452 7.01737C76.1751 7.24779 77.1248 8.07931 77.3548 8.30973C77.5447 8.19953 78.0346 7.84891 78.3845 7.58843C78.5345 7.47823 78.7244 7.358 78.7244 7.20772C78.7244 7.05745 78.4945 7.01737 78.3845 7.01737H75.9552H75.9452ZM80.204 14.8619H82.2534V14.0603C82.2534 13.7598 81.9835 13.6396 81.8335 13.6396H80.204V14.8619ZM82.2534 18.3583H80.204V19.5805H82.2534V18.3583ZM80.204 23.1972V24.9905C80.6639 24.189 81.0438 24.1189 81.8735 24.0788C82.2534 24.0387 82.2534 23.7782 82.2534 23.2072H80.204V23.1972Z" stroke="var(--stroke-0, #386F6B)" stroke-width="0.631164"/>
<path id="Vector_3" d="M109.043 8.65096C109.043 4.34301 111.212 3.28107 114.401 3.28107H121.959C121.959 1.29741 123.019 0.315582 125.608 0.315582C127.777 0.315582 129.557 0.806509 129.557 3.28107H139.704C141.184 3.28107 143.123 3.66178 143.123 6.47697C143.123 8.95153 142.403 10.2038 139.704 10.2038H116.79C116.56 10.2038 116.071 10.324 116.071 10.8951V18.439C116.071 22.5165 115.651 26.6241 114.891 30.6615C115.421 30.0103 116.221 29.7498 117.44 29.5996C119.07 25.522 121.199 18.2887 121.359 17.6375C121.659 16.5355 122.649 12.5782 123.029 11.927C123.519 11.0855 124.358 10.5544 125.918 10.5544C126.298 10.5544 129.867 10.5545 129.867 13.2194C129.867 15.8843 126.178 25.1013 124.508 28.9884C124.738 28.9884 124.888 28.9884 125.498 28.9083C129.067 28.5276 129.447 28.4475 133.406 27.9966C132.986 27.0449 131.017 23.0074 130.637 22.1659C130.527 21.8954 130.337 21.4045 130.337 20.8735C130.337 18.8598 132.506 17.8279 134.026 17.8279C136.115 17.8279 136.765 19.1203 139.464 24.4501C140.074 25.7024 141.514 28.8682 142.163 30.5012C142.733 31.9138 143.003 32.7454 143.003 33.627C143.003 36.0214 140.954 37.0533 139.204 37.0533C137.195 37.0533 136.655 36.1416 135.825 34.0478C131.876 34.7691 119.68 36.4422 117.7 36.4422C116.56 36.4422 114.581 36.2519 114.281 33.3966C113.711 35.22 113.061 37.1234 110.522 37.1234C108.473 37.1234 106.493 35.791 106.493 33.6971C106.493 32.7454 106.533 32.6652 107.743 28.6678C109.033 24.4801 109.072 18.8397 109.072 18.5392V8.64093L109.043 8.65096Z" stroke="var(--stroke-0, #386F6B)" stroke-width="0.631164"/>
<path id="Vector_4" d="M174.742 4.95368V4.07205C174.742 2.35889 175.202 0.565582 178.121 0.565582C180.701 0.565582 182.22 1.17671 182.22 4.07205V4.95368H190.768C191.488 4.95368 194.227 4.95366 194.227 7.99927C194.227 10.4738 192.977 11.3455 190.768 11.3455H182.22V13.9302H192.937C193.967 13.9302 196.316 14.0805 196.316 16.9358C196.316 19.1499 195.517 20.322 192.937 20.322H163.415C162.546 20.322 159.996 20.2819 159.996 17.2764C159.996 14.2708 161.666 13.9603 163.495 13.9302C161.826 13.279 160.836 12.0267 160.836 10.7344C160.836 9.70245 161.136 9.28163 162.506 7.30799C163.605 5.70504 163.725 5.48468 164.745 3.16039C165.465 1.59751 165.995 0.8361 167.744 0.8361C168.424 0.8361 171.963 1.06649 171.963 3.80153C171.963 4.29243 171.883 4.71322 171.813 4.94365H174.742V4.95368ZM193.057 31.683C193.057 35.49 191.238 36.592 188.119 36.592H168.204C165.085 36.592 163.265 35.49 163.265 31.683V26.3932C163.265 22.476 165.205 21.4842 168.204 21.4842H188.119C191.238 21.4842 193.057 22.5862 193.057 26.3932V31.683ZM168.814 11.3555C167.904 12.9184 167.444 13.5295 166.615 13.9402H174.742V11.3555H168.814ZM185.729 28.3769C185.729 27.8058 185.349 27.6555 185.05 27.6555H171.333C170.953 27.6555 170.613 27.886 170.613 28.3769V29.6292C170.613 30.09 170.883 30.3505 171.333 30.3505H185.05C185.319 30.3505 185.729 30.2403 185.729 29.6292V28.3769Z" stroke="var(--stroke-0, #386F6B)" stroke-width="0.631164"/>
</g>
</svg>
