<svg preserveAspectRatio="none" width="100%" height="100%" overflow="visible" style="display: block;" viewBox="0 0 17.4526 17.4937" fill="none" xmlns="http://www.w3.org/2000/svg">
<path id="Vector" d="M8.25643 17.4937C8.25643 17.4937 8.18647 17.4938 8.14648 17.4838L5.84712 17.0129C5.5572 16.9528 5.36725 16.6823 5.40724 16.3917L5.69713 14.3179C5.34723 14.1276 5.01733 13.8971 4.70741 13.6467L2.88791 14.6886C2.63797 14.8288 2.30807 14.7587 2.14812 14.5083L0.858492 12.5446C0.698536 12.3042 0.758525 11.9736 0.988462 11.7932L2.65799 10.531C2.54802 10.1503 2.46806 9.74947 2.42807 9.35875L0.408603 8.80775C0.12868 8.7276 -0.0412982 8.44707 0.00868814 8.16655L0.478591 5.86232C0.538575 5.57178 0.808496 5.38143 1.09842 5.4215L3.16786 5.71208C3.35781 5.36143 3.58773 5.03077 3.83766 4.7202L2.79796 2.89689C2.658 2.64643 2.72798 2.31576 2.97791 2.15547L4.93733 0.863108C5.17727 0.702813 5.50718 0.762928 5.68713 0.993353L6.94679 2.66642C7.32669 2.55622 7.72662 2.47609 8.11652 2.43602L8.66635 0.412265C8.74633 0.131748 9.01621 -0.0485482 9.30613 0.0115626L11.6056 0.482401C11.8955 0.542512 12.0854 0.813006 12.0454 1.10354L11.7555 3.17737C12.1054 3.36772 12.4353 3.59813 12.7452 3.84859L14.5647 2.80669C14.8146 2.66644 15.1445 2.73656 15.3045 2.98702L16.5942 4.95066C16.7541 5.19111 16.6941 5.52171 16.4642 5.70205L14.7947 6.96438C14.9047 7.34509 14.9846 7.74581 15.0246 8.13653L17.0441 8.68753C17.324 8.76768 17.4939 9.04821 17.4439 9.32873L16.9741 11.633C16.9141 11.9235 16.6442 12.1139 16.3543 12.0738L14.2848 11.7833C14.0949 12.1339 13.8749 12.4645 13.615 12.7751L14.6547 14.5985C14.7947 14.8489 14.7247 15.1795 14.4748 15.3398L12.5153 16.6322C12.2753 16.7925 11.9454 16.7324 11.7655 16.5019L10.5058 14.8289C10.1259 14.9391 9.72605 15.0192 9.33615 15.0593L8.78632 17.083C8.71634 17.3235 8.49637 17.4937 8.25643 17.4937ZM6.5769 16.0211L7.86658 16.2816L8.3864 14.378C8.44639 14.1476 8.65635 13.9773 8.90628 13.9673C9.45613 13.9472 10.006 13.8471 10.5358 13.6467C10.7658 13.5665 11.0157 13.6467 11.1657 13.837L12.3553 15.4099L13.455 14.6886L12.4853 12.9755C12.3653 12.7651 12.3953 12.4946 12.5653 12.3242C12.9551 11.9135 13.2651 11.4526 13.495 10.9417C13.595 10.7213 13.8249 10.591 14.0748 10.6311L16.0243 10.9016L16.2843 9.60921L14.3848 9.0883C14.1548 9.02818 13.9849 8.81778 13.9749 8.56732C13.9549 8.0163 13.8549 7.46528 13.655 6.9343C13.575 6.70387 13.655 6.45341 13.8449 6.30313L15.4145 5.11093L14.6947 4.00892L12.9852 4.98069C12.7752 5.10091 12.5053 5.0709 12.3353 4.90058C11.9254 4.51988 11.4656 4.19923 10.9557 3.96881C10.7358 3.86863 10.6058 3.62823 10.6458 3.38778L10.9157 1.43417L9.62605 1.17368L9.10624 3.07721C9.04625 3.30764 8.83629 3.47792 8.58636 3.48794C8.02651 3.50798 7.47666 3.60816 6.9568 3.79851C6.72686 3.87866 6.47693 3.79851 6.32697 3.60816L5.13729 2.03525L4.03762 2.75661L5.00732 4.46973C5.12729 4.68012 5.09734 4.95064 4.92739 5.12096C4.54749 5.53172 4.22752 5.99257 3.99759 6.50351C3.89761 6.72392 3.66772 6.85416 3.41779 6.81408L1.46831 6.54356L1.20837 7.83599L3.10788 8.35691C3.33781 8.41702 3.50774 8.62742 3.51774 8.87789C3.53773 9.43892 3.63771 9.97992 3.83766 10.5109C3.91764 10.7413 3.83766 10.9918 3.64771 11.1421L2.07813 12.3343L2.79796 13.4363L4.50746 12.4645C4.7174 12.3443 4.98735 12.3743 5.1573 12.5446C5.56719 12.9253 6.02707 13.246 6.53693 13.4764C6.75687 13.5766 6.88683 13.817 6.84684 14.0574L6.5769 16.011V16.0211ZM8.72634 12.2942C8.4964 12.2942 8.25645 12.2742 8.02651 12.2241C6.11704 11.8334 4.87737 9.94989 5.26726 8.02634C5.45721 7.09462 5.99708 6.29314 6.78686 5.77218C7.57665 5.25122 8.52636 5.07088 9.44611 5.26123C11.3556 5.65195 12.5953 7.53543 12.2054 9.45897C11.8655 11.1421 10.3759 12.3042 8.72634 12.2942ZM8.24643 11.1421C9.56606 11.4126 10.8557 10.561 11.1256 9.23854C11.3956 7.9161 10.5458 6.62371 9.2262 6.35321C8.58637 6.22297 7.93653 6.35325 7.39668 6.70389C6.85683 7.06456 6.47695 7.61556 6.34698 8.25675C6.07705 9.57918 6.92679 10.8716 8.24643 11.1421Z" fill="var(--fill-0, #4C4B4C)"/>
</svg>
