<svg preserveAspectRatio="none" width="100%" height="100%" overflow="visible" style="display: block;" viewBox="0 0 29.5985 38.2625" fill="none" xmlns="http://www.w3.org/2000/svg">
<path id="Vector" d="M13.8653 38.2625C13.4938 38.2625 13.1223 38.1698 12.7709 37.9947L1.36413 32.1753C0.771704 31.8767 0.339953 31.3616 0.129088 30.723C-0.0817766 30.0844 -0.0315658 29.4046 0.259628 28.797L13.534 1.39928C13.8252 0.791587 14.3273 0.348712 14.9499 0.132414C15.5724 -0.0838836 16.2351 -0.0323791 16.8276 0.266318L28.2343 6.08565C28.8167 6.38435 29.2585 6.89938 29.4694 7.53797C29.6802 8.17657 29.63 8.86665 29.3388 9.46405L16.0544 36.8617C15.7632 37.4591 15.2611 37.9123 14.6385 38.1286C14.3775 38.2213 14.1165 38.2625 13.8554 38.2625H13.8653ZM15.7531 1.97601C15.6928 1.97601 15.6327 1.97604 15.5825 2.00694C15.4419 2.05844 15.3314 2.15116 15.2711 2.28506L1.99673 29.6827C1.93648 29.8166 1.92641 29.9609 1.96658 30.1051C2.01678 30.2493 2.10717 30.3625 2.23771 30.4243L13.6445 36.2438C13.775 36.3056 13.9156 36.3159 14.0562 36.2747C14.1968 36.2232 14.3072 36.1305 14.3674 35.9966L27.652 8.59889C27.7122 8.46499 27.7222 8.31046 27.682 8.17656C27.6318 8.03236 27.5415 7.91913 27.411 7.85733L16.0041 2.03787C15.9238 1.99667 15.8435 1.97601 15.7631 1.97601H15.7531ZM17.9723 17.2302C17.2794 17.2302 16.5966 17.0654 15.964 16.7461C14.8796 16.2002 14.0763 15.2423 13.6947 14.0681C13.3132 12.8939 13.3935 11.6374 13.9357 10.525C15.0402 8.23839 17.7614 7.30107 19.9906 8.43406C22.2197 9.57735 23.1334 12.3584 22.0288 14.6552C21.4966 15.7676 20.5628 16.5916 19.4181 16.983C18.9462 17.1478 18.4543 17.2302 17.9723 17.2302ZM17.9823 9.91731C17.0284 9.91731 16.1045 10.4631 15.6427 11.4004C15.3314 12.039 15.2812 12.76 15.5021 13.4398C15.723 14.1196 16.1849 14.6655 16.8075 14.9745C17.43 15.2938 18.1329 15.3453 18.7956 15.1187C19.4583 14.8921 19.9905 14.4184 20.2917 13.7798C20.9344 12.4614 20.4023 10.8545 19.117 10.1953C18.7455 10.0099 18.3538 9.91731 17.9622 9.91731H17.9823Z" fill="var(--fill-0, #4C4B4C)"/>
</svg>
