<svg preserveAspectRatio="none" width="100%" height="100%" overflow="visible" style="display: block;" viewBox="0 0 46.7015 54.5625" fill="none" xmlns="http://www.w3.org/2000/svg">
<path id="Vector" d="M1.83752 54.5624C1.62666 54.5624 1.42583 54.5109 1.23504 54.3976C0.85348 54.1813 0.612518 53.759 0.602477 53.3058L0 1.28115C0 0.827951 0.220912 0.405585 0.602477 0.178987C0.984041 -0.0579103 1.45596 -0.0579204 1.83752 0.168677L46.0689 25.6403C46.4505 25.8566 46.6915 26.2789 46.7015 26.7321C46.7015 27.1853 46.4806 27.6076 46.099 27.8342L2.48017 54.3873C2.28939 54.5109 2.06848 54.5624 1.84757 54.5624H1.83752ZM2.49019 3.4441L3.04247 51.0914L42.9863 26.7734L2.48017 3.4441H2.49019Z" fill="var(--fill-0, #706458)"/>
</svg>
