<svg preserveAspectRatio="none" width="100%" height="100%" overflow="visible" style="display: block;" viewBox="0 0 51.3773 8.81917" fill="none" xmlns="http://www.w3.org/2000/svg">
<g id="Group">
<path id="Vector" d="M5.36198 7.95167H8.27392V8.55945H1.78733V7.95167H4.74949V5.04715H2.69103V4.59389C2.17893 5.97408 1.46601 7.2513 0.441814 8.24009C0.341402 8.09589 0.140576 7.86933 0 7.75603C1.35556 6.48914 2.15887 4.57336 2.65088 2.60608H0.371519V1.99843H2.8015C2.92199 1.43193 3.0224 0.865424 3.11277 0.30923L3.93615 0.453444C3.91607 0.535843 3.84576 0.577037 3.72527 0.577037C3.64494 1.04053 3.55457 1.52464 3.44412 2.00874H8.14341V2.61639H3.30355C3.15294 3.23439 2.97218 3.8523 2.75127 4.45999H7.81203V5.05746H5.37203V7.96198L5.36198 7.95167Z" fill="var(--fill-0, black)"/>
<path id="Vector_2" d="M17.2617 5.30379V5.91145H13.4862V7.9508C13.4862 8.4143 13.3557 8.5998 13.0343 8.7028C12.703 8.8161 12.1206 8.82638 11.1667 8.81608C11.1265 8.64099 11.006 8.37309 10.9056 8.19799C11.3374 8.21859 11.739 8.21861 12.0603 8.21861C12.8134 8.21861 12.8837 8.2186 12.8837 7.9508V5.91145H9.12831V5.30379H12.8837V3.7588H9.73079V3.17164H12.8837V1.68852C11.8997 1.81212 10.8654 1.89453 9.91152 1.95632C9.89144 1.80183 9.82115 1.56492 9.75086 1.43102C11.9097 1.28682 14.5004 0.9881 15.8258 0.504005L16.3379 1.02931C16.3379 1.02931 16.2877 1.06024 16.2274 1.06024C16.2073 1.06024 16.1873 1.06024 16.1471 1.06024C15.5045 1.27654 14.6309 1.45165 13.6669 1.59585C13.6469 1.65765 13.6067 1.68854 13.4862 1.70914V3.19226H16.7496V3.77942H13.4862V5.32441H17.2617V5.30379Z" fill="var(--fill-0, black)"/>
<path id="Vector_3" d="M25.4742 4.16119H22.5321L22.6828 4.20231C22.6828 4.25381 22.6024 4.30542 22.502 4.31572C22.2711 5.974 21.5381 7.62196 19.7507 8.53865C19.6503 8.41505 19.4194 8.20899 19.2688 8.08539C21.026 7.1893 21.6385 5.79887 21.8493 4.15088H18.4454V3.54323H25.4842V4.15088L25.4742 4.16119ZM24.1689 1.66858H19.2186V1.06092H24.1689V1.66858ZM24.2893 0.319357C24.6508 0.710753 25.0625 1.33895 25.2734 1.76124L24.9119 2.00855C24.7211 1.58626 24.2994 0.93734 23.9379 0.566544L24.2893 0.319357ZM25.3336 0.0103099C25.6951 0.401706 26.1269 1.03001 26.3378 1.44201L25.9763 1.66858C25.7855 1.26688 25.3437 0.617973 24.9922 0.236877L25.3336 0V0.0103099Z" fill="var(--fill-0, black)"/>
<path id="Vector_4" d="M29.7407 1.99768C29.7105 2.06978 29.6403 2.12128 29.5097 2.13158C29.1482 4.32546 28.4152 6.64287 27.371 7.99216C27.2103 7.86856 26.9693 7.74501 26.7785 7.66262C27.7826 6.41633 28.5659 4.09879 28.847 1.80191L29.7507 1.99768H29.7407ZM34.219 7.94061C33.7973 6.34412 32.7631 3.73828 31.8493 2.0491L32.4317 1.77098C33.3655 3.40867 34.4098 5.98363 34.8717 7.68311L34.219 7.95092V7.94061ZM32.9338 0.586598C33.3455 0.957394 33.7772 1.53412 34.0182 1.93582L33.6768 2.19331C33.4258 1.78132 32.9639 1.18399 32.5923 0.844095L32.9338 0.586598ZM34.1086 0.112717C34.5102 0.493813 34.952 1.05006 35.2031 1.45175L34.8516 1.71956C34.6006 1.30756 34.1387 0.720411 33.7672 0.370215L34.1086 0.102407V0.112717Z" fill="var(--fill-0, black)"/>
<path id="Vector_5" d="M43.024 1.15299C43.024 1.15299 42.9336 1.22516 42.8533 1.22516C42.8232 1.22516 42.8031 1.22516 42.763 1.22516C42.0802 1.93586 41.0861 2.77014 40.2225 3.40874C40.2928 3.43963 40.4033 3.49111 40.4334 3.51171C40.4133 3.56321 40.333 3.625 40.2326 3.6353V8.54837H39.5799V3.85156C38.636 4.54165 37.401 5.27292 36.186 5.89092C36.0956 5.74672 35.935 5.52013 35.8145 5.38623C38.2444 4.23265 40.9154 2.2757 42.3513 0.65862L43.024 1.17361V1.15299Z" fill="var(--fill-0, black)"/>
<path id="Vector_6" d="M50.0218 1.51344C50.0218 1.51344 49.9615 1.59594 49.9013 1.61654C49.4193 2.78043 48.8469 3.77944 48.1139 4.75793C49.0879 5.55103 50.5439 6.92092 51.3773 7.85821L50.8351 8.34227C50.0519 7.40498 48.616 6.01452 47.7022 5.27293C46.919 6.25142 45.5635 7.59038 44.2682 8.34227C44.1678 8.20838 43.9569 7.9715 43.8063 7.8479C46.2764 6.45742 48.2244 3.86192 49.0277 1.87404H44.6497V1.25595H49.3791L49.4996 1.21483L50.0117 1.51344H50.0218Z" fill="var(--fill-0, black)"/>
</g>
</svg>
