<svg preserveAspectRatio="none" width="100%" height="100%" overflow="visible" style="display: block;" viewBox="0 0 59.8425 19.085" fill="none" xmlns="http://www.w3.org/2000/svg">
<g id="Group">
<path id="Vector" d="M0 7.64265C0 7.45726 0.110459 7.27181 0.351447 7.21001C1.69696 6.87012 2.31953 6.01524 2.50027 4.77925C2.54044 4.52176 2.7312 4.40847 2.92199 4.40847C3.16297 4.40847 3.40397 4.57331 3.40397 4.8308V4.89254C3.06257 7.41601 0.853512 8.06498 0.451865 8.06498C0.15063 8.06498 0 7.85895 0 7.64265ZM7.10917 4.28488L4.91015 4.25395C4.91015 4.85134 4.89008 5.97406 4.89008 6.46845C4.89008 6.91135 4.89008 7.0658 5.67329 7.0658C6.16531 7.0658 6.70753 7.04522 6.70753 6.19033C6.70753 5.90194 6.90833 5.76813 7.12924 5.76813C7.29994 5.76813 7.60118 5.8711 7.60118 6.25219C7.60118 7.84868 6.39625 7.86922 5.73353 7.86922C4.9202 7.86922 4.05664 7.8383 4.05664 6.81861C4.05664 6.53022 4.05664 4.97494 4.05664 4.25395C3.47425 4.25395 2.40989 4.25398 0.542232 4.28488C0.281161 4.28488 0.140591 4.08918 0.140591 3.89348C0.140591 3.68748 0.281171 3.49177 0.552283 3.49177H3.40397V2.36912H2.00823C1.52626 3.22401 1.28528 3.36817 1.04429 3.36817C0.803302 3.36817 0.592456 3.20339 0.592456 2.99739C0.592456 2.9047 0.642635 2.79135 0.753088 2.68835C1.30535 2.14245 1.64677 1.40094 1.86767 0.710849C1.90784 0.556351 2.03837 0.494466 2.17895 0.494466C2.4099 0.494466 2.68101 0.669589 2.68101 0.906487C2.68101 1.04039 2.45005 1.51423 2.41993 1.59662H3.40397V0.546016C3.40397 0.278219 3.61485 0.154615 3.82572 0.154615C4.03658 0.154615 4.27755 0.288519 4.27755 0.546016V1.59662H6.29584C6.56695 1.59662 6.69748 1.79233 6.69748 1.98803C6.69748 2.18372 6.56695 2.37943 6.29584 2.37943H4.2675V3.51239H7.11922C7.39033 3.51239 7.52086 3.7081 7.52086 3.9141C7.52086 4.1201 7.39031 4.3055 7.12924 4.3055L7.10917 4.28488Z" fill="var(--fill-0, #236242)"/>
<path id="Vector_2" d="M9.48983 1.83341C9.29905 1.83341 9.20868 1.72014 9.20868 1.60684C9.20868 1.48324 9.30909 1.35966 9.48983 1.35966H11.5483V1.09185H9.29904C9.09822 1.09185 8.99782 0.95793 8.99782 0.813731C8.99782 0.659233 9.09822 0.514994 9.29904 0.514994H11.5382V0.381091V0.350287C11.5382 0.123689 11.719 0.0206199 11.9098 0.0206199C12.1206 0.0206199 12.3315 0.144193 12.3315 0.381091C12.3315 0.48409 12.3315 0.607769 12.3315 0.721068C12.3315 2.44115 12.1407 3.40929 9.75091 3.63589H9.70068C9.46974 3.63589 9.35929 3.48135 9.35929 3.33715C9.35929 3.19296 9.44967 3.03853 9.65049 3.02823C10.5642 2.93553 11.0362 2.79137 11.2772 2.54417C10.1325 2.67807 9.20868 2.71919 9.14843 2.71919C8.91748 2.71919 8.80703 2.57496 8.80703 2.43076C8.80703 2.27626 8.91747 2.13215 9.13838 2.13215H9.30909C10.022 2.13215 10.8153 2.08066 11.5181 2.01886C11.5181 1.95706 11.5182 1.88489 11.5382 1.81279L9.48983 1.83341ZM12.8837 7.23054V7.72492C12.8837 8.00301 12.693 8.13694 12.5022 8.13694C12.3114 8.13694 12.1106 8.00301 12.1106 7.72492V7.23054L9.20868 7.25116C8.97773 7.25116 8.86728 7.08642 8.86728 6.92162C8.86728 6.75682 8.97773 6.60226 9.20868 6.60226L12.1106 6.62288V6.33446C11.5884 6.33446 11.1064 6.33446 10.7048 6.33446C9.8513 6.33446 9.83122 5.96368 9.83122 5.44868C9.83122 4.81009 9.86135 4.54229 10.6847 4.54229C11.0663 4.54229 11.5684 4.54229 12.1005 4.54229V4.27448L9.77098 4.2951C9.54003 4.2951 9.41953 4.14056 9.41953 3.99636C9.41953 3.85216 9.54003 3.69775 9.77098 3.69775H12.1005V3.39901C12.1005 3.18272 12.2913 3.07966 12.4821 3.07966C12.6729 3.07966 12.8536 3.18272 12.8536 3.39901V3.69775H15.2936C15.5246 3.69775 15.635 3.84185 15.635 3.98605C15.635 4.14055 15.5246 4.28479 15.2936 4.28479L12.8637 4.26417V4.53198C13.426 4.53198 13.9782 4.53198 14.4502 4.53198C15.2233 4.53198 15.2233 4.91303 15.2233 5.38682C15.2233 5.93272 15.2233 6.29325 14.41 6.32415C13.9682 6.32415 13.426 6.34477 12.8737 6.34477V6.62288L15.876 6.60226C16.0969 6.60226 16.2074 6.76701 16.2074 6.93181C16.2074 7.0966 16.0969 7.25116 15.876 7.25116L12.8737 7.23054H12.8837ZM12.1106 4.944C11.6587 4.944 11.237 4.944 10.9558 4.944C10.6646 4.944 10.6245 5.02637 10.6044 5.17056C10.6044 5.19116 10.6044 5.21182 10.6044 5.23242H12.1206V4.93369L12.1106 4.944ZM12.1106 5.59289H10.5944C10.5944 5.59289 10.5944 5.65466 10.5944 5.68556C10.6245 5.88126 10.6747 5.90183 10.9558 5.91213C11.2771 5.91213 11.6788 5.91213 12.1005 5.91213V5.59289H12.1106ZM13.687 2.88402V3.13121C13.687 3.3681 13.4862 3.49168 13.2753 3.49168C13.0645 3.49168 12.8536 3.3784 12.8536 3.13121V0.350287C12.8536 0.113389 13.0645 0 13.2653 0C13.4661 0 13.687 0.113379 13.687 0.339977V0.504684H15.8861C16.107 0.504684 16.2074 0.648903 16.2074 0.782802C16.2074 0.927 16.107 1.07123 15.8861 1.07123H13.677V1.44201H15.5848C15.7756 1.44201 15.876 1.55529 15.876 1.67889C15.876 1.81279 15.7857 1.93638 15.5848 1.93638H13.667V2.30717H15.9463C16.1572 2.30717 16.2475 2.44108 16.2475 2.58528C16.2475 2.73978 16.1471 2.88402 15.9463 2.88402H13.687ZM14.4502 5.17056C14.4502 5.02637 14.4301 4.9543 14.1188 4.944C13.8176 4.944 13.3657 4.944 12.8837 4.944V5.24273H14.4502V5.17056ZM14.4502 5.59289H12.8837V5.91213C13.3356 5.91213 13.7674 5.91213 14.1288 5.91213C14.41 5.91213 14.4401 5.85035 14.4502 5.67525V5.59289Z" fill="var(--fill-0, #236242)"/>
<path id="Vector_3" d="M23.1327 4.12058C23.1327 3.13179 22.3796 2.27699 21.1144 2.27699H21.0943C21.2349 2.33879 21.3353 2.47267 21.3353 2.64777V2.68888C21.3353 3.62617 20.4417 5.2536 19.4777 6.21149C19.2568 6.42779 19.0359 6.51023 18.825 6.51023C18.2025 6.51023 17.6502 5.79952 17.6502 4.82103C17.6502 3.20395 19.1965 1.56623 21.1546 1.56623C22.9118 1.56623 24.0063 2.76103 24.0063 4.15151C24.0063 4.48111 23.946 4.82099 23.8155 5.16088C23.0523 7.13846 20.6826 7.41662 20.5621 7.41662C20.2609 7.41662 20.0701 7.20027 20.0701 6.97367C20.0701 6.77797 20.2207 6.59265 20.5521 6.53085C22.1386 6.26305 23.1327 5.26397 23.1327 4.08978V4.12058ZM20.6224 2.32841C19.5379 2.55501 18.4435 3.73952 18.4435 4.80041C18.4435 5.4699 18.8752 5.55228 18.9054 5.55228C18.9556 5.55228 19.0158 5.53174 19.076 5.48024C19.3371 5.24334 20.4216 3.91459 20.4617 2.7095C20.4617 2.5344 20.532 2.40051 20.6324 2.32841H20.6224Z" fill="var(--fill-0, #236242)"/>
<path id="Vector_4" d="M26.3203 7.69373C25.5672 8.15722 24.9446 7.26107 25.7379 6.85938C27.0232 6.20018 27.6156 5.18054 27.8064 4.07846C27.8465 3.81066 27.8465 3.49132 27.8064 3.26473C27.7059 2.70853 28.69 2.51287 28.8105 3.17206C28.8306 3.26476 28.8306 3.39864 28.8306 3.54284C29.3527 3.28535 29.9953 2.81153 30.3167 2.35833C30.4673 2.15233 30.4874 2.04929 30.156 2.05959C29.0615 2.10079 27.6558 2.29653 27.2642 2.35833C26.7922 2.42013 26.5613 2.49221 26.0693 2.47161C25.507 2.45101 25.3965 1.524 26.1295 1.5446C26.501 1.5446 26.9127 1.50345 27.2742 1.47256C27.6557 1.44166 29.1117 1.29747 30.5074 1.22537C31.4814 1.17387 31.853 1.92579 31.2405 2.66738C30.6882 3.33687 29.9451 4.03717 29.0615 4.37707C28.931 4.42857 28.8005 4.42857 28.7 4.37707C28.3687 5.75725 27.6959 6.83884 26.3102 7.69373H26.3203Z" fill="var(--fill-0, #236242)"/>
<path id="Vector_5" d="M34.5844 3.68711C34.223 3.41932 33.7611 3.17203 33.3494 3.07933C32.8273 2.96603 33.0481 2.07 33.7109 2.2451C34.1728 2.3687 34.725 2.56435 35.1467 2.84245C35.4279 3.01755 35.4279 3.34722 35.2974 3.56352C35.1669 3.77982 34.8756 3.90341 34.5945 3.68711H34.5844ZM34.966 7.0552C34.6748 7.21999 34.474 7.3126 34.1326 7.3435C33.4096 7.4053 33.3092 6.4681 33.8615 6.4063C34.0322 6.3857 34.3535 6.262 34.5342 6.1796C36.1107 5.44831 37.5165 3.99609 38.4001 2.25541C38.6913 1.68892 39.5649 2.07002 39.1833 2.78072C38.0989 4.7892 36.7533 6.09731 34.966 7.0552Z" fill="var(--fill-0, #236242)"/>
<path id="Vector_6" d="M44.8185 3.89383C44.5976 5.21222 43.3425 6.92198 41.6556 7.61207C40.9025 7.91077 40.541 6.98382 41.2941 6.74692C42.6999 6.29372 43.7341 4.75908 43.8847 3.82179C43.9048 3.69819 43.8847 3.53336 43.8245 3.40977C43.4931 3.46126 43.2019 3.51277 42.981 3.54367C42.6195 3.59517 42.4488 3.6157 42.2781 3.6054C41.9869 4.0483 41.6154 4.49127 41.2138 4.84146C40.5912 5.39766 40.0389 4.62517 40.5812 4.20288C41.2138 3.70848 41.8263 2.80204 42.0572 2.21494C42.2078 1.84415 42.2179 1.74121 42.2279 1.38072C42.2279 0.742125 43.1618 0.824448 43.1718 1.43214C43.1718 1.65874 43.0915 1.94714 43.0011 2.20463C42.9408 2.36943 42.8605 2.55485 42.7702 2.74025C42.8405 2.74025 42.9107 2.74023 42.971 2.71963C43.4529 2.64753 44.4872 2.4931 45.1499 2.4004C45.5315 2.3489 45.9833 2.2664 46.2946 2.2973C46.5958 2.3385 46.7565 2.524 46.7264 2.7918C46.6962 3.03899 46.4753 3.2243 46.1741 3.214C45.8026 3.1934 45.5013 3.1728 45.1599 3.214C45.0495 3.214 44.929 3.24494 44.7985 3.25524C44.8587 3.40974 44.8688 3.62603 44.8286 3.89383H44.8185Z" fill="var(--fill-0, #236242)"/>
<path id="Vector_7" d="M53.8108 4.46053H53.3589C51.6921 4.46053 50.4269 4.54291 49.734 4.56351C49.2822 4.58411 49.0512 4.59444 48.8705 4.59444C48.7701 4.59444 48.6898 4.59444 48.5894 4.59444C48.258 4.59444 48.0873 4.34714 48.0873 4.11025C48.0873 3.87335 48.258 3.67773 48.6094 3.67773H48.6596C48.981 3.69833 49.3625 3.70866 49.714 3.70866C50.4269 3.70866 52.2945 3.60564 53.8208 3.55414H53.8409C54.1923 3.55414 54.3731 3.78068 54.3731 4.00727C54.3731 4.23387 54.1923 4.47084 53.8208 4.47084L53.8108 4.46053Z" fill="var(--fill-0, #236242)"/>
<path id="Vector_8" d="M57.5363 7.27274C57.5363 7.69504 57.3154 7.92167 57.0644 7.95257C56.8234 7.98347 56.5723 7.80834 56.5824 7.40665C56.6326 5.95436 56.6527 3.14247 56.6226 1.84468C56.6226 1.55628 56.5824 1.27821 56.5422 1.09281C56.3816 0.454216 57.3857 0.330602 57.466 0.948596C57.5062 1.21639 57.5062 1.12371 57.5062 1.74171C57.5062 2.1022 57.5062 2.61713 57.5062 3.21452C57.5463 3.21452 57.6066 3.21452 57.6568 3.21452C58.0886 3.25572 59.2433 3.51326 59.7052 4.02825C60.1169 4.48145 59.5144 5.1921 59.0625 4.7595C58.7211 4.42991 57.948 4.15191 57.5062 4.09011C57.5062 5.2437 57.5363 6.46934 57.5464 7.26243L57.5363 7.27274Z" fill="var(--fill-0, #236242)"/>
<path id="Vector_9" d="M10.1506 17.159L8.99587 17.1899C8.76493 17.1899 8.65448 17.0353 8.65448 16.8808C8.65448 16.7263 8.77495 16.5719 9.00589 16.5719H10.1607V16.2113C8.88542 16.2113 8.76492 16.1804 8.76492 14.9445C8.76492 13.8424 9.0059 13.8321 10.1707 13.8321V13.4716H8.83521C8.60426 13.4716 8.48376 13.3068 8.48376 13.1523C8.48376 12.9978 8.60426 12.8331 8.83521 12.8331H10.1607V12.4623C9.66864 12.4932 9.24689 12.4931 9.07619 12.4931C8.8352 12.4931 8.71472 12.318 8.71472 12.1326C8.71472 11.9678 8.8352 11.7928 9.07619 11.7928H9.10631C9.27701 11.7928 9.45775 11.8134 9.63849 11.8134C10.3113 11.8134 11.0141 11.7309 11.7773 11.5661C11.8074 11.5661 11.8375 11.5661 11.8676 11.5661C12.0785 11.5661 12.2291 11.7413 12.2291 11.937C12.2291 12.2048 12.0584 12.2974 10.9037 12.421V12.8535H12.1789C12.4099 12.8535 12.5404 13.0184 12.5404 13.1729C12.5404 13.1935 12.5404 13.2142 12.5404 13.2348C12.5906 13.1936 12.6609 13.1832 12.7412 13.1832C12.9722 13.1832 13.2132 13.1832 13.4542 13.1832V11.7928C13.4542 11.525 13.655 11.4014 13.8558 11.4014C14.0667 11.4014 14.2775 11.5353 14.2775 11.7928V13.1832C14.4884 13.1832 14.7093 13.1832 14.9202 13.1832C15.4925 13.1832 15.8439 13.5746 15.854 14.172C15.854 14.4295 15.854 14.6973 15.854 14.9651C15.854 16.6749 15.6933 18.8997 14.0767 18.8997C13.8458 18.8997 13.5847 18.8585 13.3236 18.7658C13.1328 18.6937 13.0425 18.5392 13.0425 18.3641C13.0425 18.1478 13.183 17.9418 13.414 17.9418C13.4642 17.9418 13.5144 17.9418 13.5746 17.9727C13.7453 18.0242 13.896 18.0654 14.0365 18.0654C14.4081 18.0654 15.0406 17.8285 15.0406 14.893C15.0406 14.6767 15.0406 14.4706 15.0406 14.2749C15.0406 14.0277 14.9001 13.9454 14.7193 13.9351C14.5787 13.9351 14.4281 13.9351 14.2574 13.9351C14.1972 15.82 13.7052 17.8491 12.0685 18.9924C11.9781 19.0645 11.8777 19.085 11.7773 19.085C11.5463 19.085 11.3656 18.8893 11.3656 18.673C11.3656 18.5494 11.4258 18.4258 11.5664 18.3228C11.6969 18.2301 11.8275 18.1271 11.9379 18.0241C10.9639 18.3022 9.01595 18.5907 8.76492 18.5907C8.54401 18.5907 8.41347 18.4053 8.41347 18.2199C8.41347 18.0448 8.5139 17.88 8.71472 17.8697C9.18666 17.8388 9.67868 17.7873 10.1607 17.7152V17.1796L10.1506 17.159ZM10.1506 15.2226H9.43769C9.43769 15.2844 9.43769 15.3359 9.43769 15.3874C9.46781 15.6552 9.53808 15.6655 10.1406 15.6655V15.2226H10.1506ZM10.1607 14.3471C9.50798 14.3471 9.46779 14.3676 9.44771 14.6663V14.7591H10.1607V14.3471ZM10.8736 17.1383V17.571C11.2752 17.4989 11.6367 17.4165 11.958 17.3444C11.9881 17.3444 12.0082 17.3444 12.0383 17.3444C12.189 17.3444 12.2894 17.4474 12.3195 17.5813C13.163 16.5719 13.3839 15.2535 13.414 13.9145C13.173 13.9145 12.922 13.9145 12.7011 13.9145C12.4601 13.9145 12.3396 13.7291 12.3396 13.5334C12.3396 13.4922 12.3396 13.451 12.3597 13.4201C12.3095 13.451 12.2392 13.4613 12.1588 13.4613H10.8736V13.8218C12.0082 13.8218 12.2894 13.8424 12.2894 14.9651C12.2894 16.1805 12.1187 16.2113 10.8736 16.2113V16.5513L11.958 16.5204C12.1689 16.5204 12.2793 16.6749 12.2793 16.8191C12.2793 16.9633 12.1689 17.1177 11.948 17.1177L10.8736 17.1383ZM11.5764 14.6252C11.5764 14.3368 11.466 14.3368 10.8635 14.3368V14.7488H11.5764V14.6252ZM10.8635 15.2226V15.6655C11.4158 15.6655 11.5664 15.6655 11.5764 15.3771C11.5764 15.3256 11.5764 15.2741 11.5764 15.2226H10.8535H10.8635Z" fill="var(--fill-0, #236242)"/>
<path id="Vector_10" d="M21.2751 12.6892V13.3689C21.496 13.3689 21.737 13.3689 22.0282 13.3689C22.5302 13.3689 22.9018 13.7603 22.9118 14.1414C22.9319 14.4195 22.9319 14.8831 22.9319 15.3466C22.9319 15.8101 22.9319 16.2736 22.9118 16.5311C22.8917 16.9946 22.5403 17.3963 21.978 17.4169C21.486 17.4375 21.2249 17.4478 20.9839 17.4478C20.7028 17.4478 20.4417 17.4478 19.8794 17.4169C19.2669 17.3963 18.9355 17.0358 18.9154 16.5414C18.9154 16.2427 18.8953 15.7895 18.8953 15.3466C18.8953 14.9037 18.8954 14.4608 18.9154 14.2136C18.9355 13.8119 19.1765 13.3792 19.8392 13.3689C20.0802 13.3689 20.281 13.3484 20.4819 13.3484V12.6789H17.9013C17.6201 12.6789 17.4896 12.4832 17.4896 12.2875C17.4896 12.0815 17.6402 11.8652 17.9013 11.8652H23.9561C24.2172 11.8652 24.3477 12.0712 24.3477 12.2772C24.3477 12.4832 24.2172 12.6789 23.9561 12.6789H21.2651L21.2751 12.6892ZM18.3732 14.1827C18.3732 14.7492 18.3531 15.4496 18.3531 16.1191C18.3531 16.6032 18.3531 17.077 18.3732 17.4375C18.3933 17.798 18.5138 17.9936 18.9255 18.0039C19.4376 18.0245 20.1605 18.0348 20.8935 18.0348C21.6266 18.0348 22.3395 18.0348 22.8315 18.0039C23.1829 17.9833 23.3938 17.8083 23.4139 17.4581C23.4339 17.0152 23.444 16.4795 23.444 15.9439C23.444 15.3362 23.444 14.7183 23.4139 14.2033V14.1827C23.4139 13.9252 23.6247 13.7913 23.8356 13.7913C24.0465 13.7913 24.2674 13.9252 24.2774 14.2033C24.2975 14.5947 24.2975 15.192 24.2975 15.8203C24.2975 16.4486 24.2975 17.1078 24.2774 17.6331C24.2473 18.4056 23.685 18.797 23.0423 18.8073C22.4399 18.8382 21.6165 18.8486 20.8031 18.8486C19.9898 18.8486 19.2066 18.8485 18.6644 18.8073C17.9515 18.7764 17.5498 18.3953 17.5297 17.6434C17.5297 17.0769 17.5096 16.4281 17.5096 15.7792C17.5096 15.2333 17.5097 14.6874 17.5297 14.1724C17.5297 13.884 17.7406 13.7502 17.9414 13.7502C18.1423 13.7502 18.3632 13.8943 18.3632 14.1621L18.3732 14.1827ZM20.4819 14.0282H20.0501C19.7789 14.0488 19.6786 14.2033 19.6685 14.3887C19.6685 14.5329 19.6685 14.7595 19.6685 15.0273H20.4919V14.0282H20.4819ZM20.4819 15.6762H19.6585C19.6585 15.9749 19.6585 16.2427 19.6585 16.4075C19.6585 16.7474 19.789 16.768 20.4819 16.768V15.6762ZM22.1487 15.0376C22.1487 14.7801 22.1487 14.5534 22.1487 14.3989C22.1487 14.0487 21.9278 14.0282 21.2851 14.0282V15.0376H22.1587H22.1487ZM21.7571 16.7576C21.988 16.7576 22.1186 16.6753 22.1286 16.3972C22.1286 16.2324 22.1286 15.9646 22.1286 15.6762H21.255V16.768H21.747L21.7571 16.7576Z" fill="var(--fill-0, #236242)"/>
<path id="Vector_11" d="M29.4816 16.3869C29.4816 16.5414 29.4817 16.6959 29.4616 16.8813C29.4315 17.2418 29.2005 17.4272 28.9896 17.4272C28.7989 17.4272 28.6382 17.283 28.6382 17.0049V16.9225C28.6683 16.7062 28.6683 16.5003 28.6683 16.3252C28.4876 16.4282 27.6742 16.8607 27.6742 17.4272C27.6742 17.5817 27.7445 18.107 28.6281 18.107C29.0298 18.107 29.4716 18.004 29.7226 17.9216C29.803 17.8907 29.8833 17.8803 29.9435 17.8803C30.2347 17.8803 30.3954 18.0864 30.3954 18.3027C30.3954 18.4881 30.3251 18.9412 28.839 18.9412C27.3529 18.9412 26.891 18.179 26.891 17.5199C26.891 16.4281 28.1261 15.7483 28.5779 15.5114C28.4775 15.1612 28.2968 14.9861 28.0658 14.9861C27.9253 14.9861 27.7746 15.0377 27.614 15.151C27.2525 15.5733 27.0316 15.6968 26.8408 15.6968C26.6299 15.6968 26.4693 15.5526 26.4693 15.3569C26.4693 15.2539 26.5195 15.12 26.6701 14.9964C27.1421 14.5638 27.373 14.3475 27.7847 13.6368C27.624 13.6677 27.4935 13.678 27.3629 13.678C26.4793 13.678 26.4793 13.1733 26.4793 13.1115C26.4793 12.9055 26.6299 12.7202 26.8408 12.7202C26.9312 12.7202 27.0416 12.7511 27.1521 12.8335C27.2324 12.885 27.3429 12.9055 27.4734 12.9055C27.5437 12.9055 27.7646 12.9056 28.1562 12.8026C28.2365 12.5657 28.2667 12.4008 28.3169 12.0918C28.357 11.8652 28.5077 11.7829 28.6784 11.7829C28.9093 11.7829 29.1503 11.9477 29.1503 12.1743C29.1503 12.2773 29.1202 12.4214 29.1001 12.5038C29.3611 12.3699 29.3913 12.3596 29.4616 12.3596C29.6724 12.3596 29.8331 12.5347 29.8331 12.751C29.8331 13.0497 29.6122 13.2249 28.6984 13.4514C28.5679 13.7295 28.3972 14.0282 28.2064 14.3475C28.6884 14.3475 29.08 14.6256 29.3009 15.1921C30.3954 14.708 31.1585 14.4711 31.3091 14.4711C31.6204 14.4711 31.8012 14.708 31.8012 14.9346C31.8012 15.0788 31.7208 15.2231 31.5702 15.2849C31.2991 15.3982 31.018 15.4393 30.5561 15.5835C30.1946 15.6968 29.813 15.841 29.4816 15.9852C29.5017 16.1191 29.5017 16.2633 29.5017 16.4178L29.4816 16.3869Z" fill="var(--fill-0, #236242)"/>
<path id="Vector_12" d="M36.361 18.8479C36.0698 18.8479 35.8891 18.6316 35.8891 18.4153C35.8891 18.2402 35.9995 18.0754 36.2506 18.0033C37.084 17.7664 37.7166 17.2514 38.1082 16.5922C37.4354 16.2935 36.7225 16.0875 36.0397 15.9948C35.2063 17.1072 34.7946 17.3029 34.2825 17.3029C33.6399 17.3029 33.2081 16.86 33.2081 16.345C33.2081 15.9124 33.5294 15.4078 34.393 15.2842C34.654 15.2533 34.9252 15.2327 35.2063 15.2327C35.377 15.2327 35.5578 15.2327 35.7385 15.2533C36.351 14.3881 36.9334 13.2448 36.9334 13.08C36.9334 13.0491 36.9334 13.0388 36.9032 13.0388C36.8731 13.0388 36.8631 13.0388 36.833 13.0594C36.6522 13.1315 36.4112 13.2139 36.1502 13.2139C35.7887 13.2139 35.4272 13.0697 35.4272 12.6989C35.4272 12.5032 35.5377 12.3281 35.7586 12.3281C35.7987 12.3281 35.8288 12.328 35.869 12.3486C35.9393 12.3692 36.0899 12.3796 36.2305 12.3796C36.3711 12.3796 36.5217 12.3589 36.6422 12.3383C36.8832 12.2868 37.1844 12.2045 37.4254 12.2045C37.6865 12.2045 38.0178 12.3281 38.0178 12.6989C38.0178 12.8534 37.9576 13.0387 37.8371 13.255C37.5459 13.7494 37.0438 14.5941 36.5117 15.3666C37.1643 15.4799 37.817 15.6653 38.4395 15.8919C38.5199 15.6241 38.5801 15.3562 38.6002 15.0678C38.6203 14.8309 38.801 14.7074 38.9918 14.7074C39.2127 14.7074 39.4336 14.8722 39.4336 15.1606C39.4336 15.2224 39.3633 15.6652 39.1926 16.2008C39.7851 16.4892 40.3072 16.7982 40.6888 17.1381C40.8193 17.2411 40.8695 17.3853 40.8695 17.5295C40.8695 17.787 40.6787 18.0342 40.4378 18.0342C40.3373 18.0342 40.2168 17.993 40.1164 17.89C39.755 17.5398 39.3232 17.2309 38.8412 16.9631C38.0881 18.3021 36.7125 18.8582 36.361 18.8582V18.8479ZM33.9813 16.2936C33.9813 16.3966 34.0817 16.5201 34.2926 16.5201C34.4432 16.5201 34.6641 16.5201 35.1862 15.9536C34.0214 15.9536 33.9813 16.2421 33.9813 16.3039V16.2936Z" fill="var(--fill-0, #236242)"/>
<path id="Vector_13" d="M46.3127 16.3965C46.3127 15.4593 45.2082 15.4592 45.1278 15.4592C44.1539 15.4592 43.4008 16.1905 43.0493 16.6437C42.959 16.7673 42.8284 16.8189 42.6979 16.8189C42.467 16.8189 42.236 16.6334 42.236 16.3862C42.236 16.2729 42.2862 16.1494 42.4067 16.0258C43.6618 14.7589 44.927 13.1727 44.927 13.0697C44.927 13.0491 44.927 13.0388 44.8969 13.0388C44.8768 13.0388 44.8568 13.0388 44.8367 13.0594C44.184 13.4817 43.3606 13.7083 43.0995 13.7083C42.8083 13.7083 42.6477 13.4817 42.6477 13.2757C42.6477 13.0903 42.7581 12.9049 43.0092 12.8843C43.8727 12.8019 44.9672 12.4002 45.2082 12.2766C45.3086 12.2251 45.4291 12.2045 45.5195 12.2045C45.8408 12.2045 46.0918 12.4413 46.0918 12.7297C46.0918 12.8739 46.0316 13.0285 45.891 13.1727C45.2986 13.7495 44.6258 14.5117 44.0836 15.14C44.4551 14.8928 44.907 14.7795 45.3287 14.7795C46.2525 14.7795 47.1662 15.3562 47.1662 16.3553C47.1662 17.5501 45.9613 18.6934 44.4551 18.6934C43.4108 18.6934 42.8586 18.0754 42.8586 17.5501C42.8586 17.066 43.2903 16.7158 43.8326 16.7158C44.5856 16.7158 45.1078 17.1485 45.1881 17.8282C45.5596 17.7355 46.2826 17.0969 46.2826 16.3965H46.3127ZM43.943 17.3545C43.6518 17.3545 43.6418 17.5502 43.6418 17.5914C43.6418 17.9416 44.2342 17.9828 44.4551 17.9828H44.5154C44.4852 17.6017 44.2944 17.3545 43.953 17.3545H43.943Z" fill="var(--fill-0, #236242)"/>
<path id="Vector_14" d="M50.2279 18.8691C49.8965 18.8691 49.6254 18.5807 49.6254 18.282C49.6254 17.8906 49.9869 17.664 50.2279 17.664C50.5693 17.664 50.8304 17.8803 50.8304 18.282C50.8304 18.7146 50.4689 18.8691 50.2279 18.8691ZM49.8564 16.6031V16.4178C49.8564 15.5526 49.766 13.472 49.7158 12.0712V12.0403C49.7158 11.7107 49.9668 11.5459 50.2178 11.5459C50.4689 11.5459 50.74 11.7107 50.74 12.0609C50.74 13.1115 50.5994 15.5732 50.5994 16.4384C50.5994 16.6547 50.5994 17.0254 50.2178 17.0254C50.0371 17.0254 49.8564 16.8812 49.8564 16.6031Z" fill="var(--fill-0, #236242)"/>
</g>
</svg>
