<svg preserveAspectRatio="none" width="100%" height="100%" overflow="visible" style="display: block;" viewBox="0 0 113.024 108.282" fill="none" xmlns="http://www.w3.org/2000/svg">
<g id="Group">
<path id="Vector" d="M103.394 83.377C102.069 83.8096 100.693 84.0362 99.2776 84.0465L50.7084 84.4482L50.106 84.8705C50.0457 84.9426 49.9855 85.0147 49.9152 85.0662L22.1212 108.004C22.0007 108.097 21.8702 108.169 21.7296 108.22C21.4284 108.323 21.107 108.292 20.8259 108.159C20.4042 107.953 20.133 107.51 20.123 107.025L19.8017 85.2207C19.8017 85.025 19.8419 84.8395 19.9222 84.6644L20.6652 84.7057L14.3794 84.7571C6.74815 84.8189 0.492512 78.4948 0.432265 70.6669L0.00047098 14.8621C-0.0296525 11.0717 1.38618 7.48745 3.9768 4.78888C5.55326 3.1409 7.50125 1.90482 9.61993 1.21472C10.9454 0.782128 12.321 0.555631 13.7368 0.545332L58.2092 0.184735C58.5405 0.184735 58.8518 0.308434 59.0828 0.545332C59.3137 0.782229 59.4442 1.10152 59.4543 1.44142C59.4543 1.99761 59.1129 2.49194 58.6008 2.65673C58.4803 2.69793 58.3598 2.71859 58.2393 2.71859L13.7669 3.07906C12.6122 3.07906 11.4775 3.27479 10.3931 3.62499C8.65597 4.19148 7.04939 5.21115 5.75408 6.56043C3.62535 8.78521 2.46057 11.7206 2.49069 14.8415L2.92246 70.6463C2.94254 73.7569 4.15754 76.6717 6.32643 78.8656C8.49532 81.0595 11.3571 82.244 14.3895 82.2234L29.8027 82.0998C30.4855 82.0998 31.0378 82.6559 31.0478 83.3563C31.0478 83.9125 30.7064 84.407 30.1943 84.5718C30.0738 84.613 29.9533 84.6335 29.8328 84.6335L21.7296 84.6954L22.1714 84.6541C22.2618 84.8292 22.3019 85.0147 22.3019 85.2104L22.6032 104.409L46.9128 84.4996L48.7203 83.0165C48.4492 83.2328 49.2022 82.6354 49.3729 82.4912C50.126 81.8732 50.5076 81.9659 51.0097 81.8629C51.1302 81.8423 51.9837 81.9349 52.1142 81.9349L99.2876 81.5435C100.442 81.5435 101.577 81.3479 102.661 80.9977C104.399 80.4313 106.005 79.4115 107.3 78.0622C109.429 75.8374 110.594 72.902 110.564 69.7812L110.423 51.6431C110.423 51.0869 110.765 50.5924 111.277 50.4276C111.397 50.3864 111.518 50.3659 111.638 50.3659C112.321 50.3659 112.873 50.9221 112.883 51.6224L113.024 69.7605C113.054 73.5509 111.638 77.125 109.048 79.8339C107.471 81.4818 105.523 82.7075 103.404 83.4079L103.394 83.377Z" fill="var(--fill-0, #236242)"/>
<path id="Vector_2" d="M111.988 46.2365C111.867 46.2777 111.747 46.2983 111.626 46.2983C110.943 46.2983 110.391 45.7421 110.381 45.0417L110.361 42.7036V42.6316C110.341 42.5595 110.331 42.4976 110.331 42.4255V40.7569C110.321 40.6848 110.331 40.6231 110.331 40.5613V40.4994L110.311 37.3065C110.311 36.7503 110.652 36.2559 111.164 36.0911C111.285 36.0499 111.405 36.0293 111.526 36.0293C112.209 36.0293 112.761 36.5855 112.771 37.2859L112.851 45.0108C112.851 45.567 112.51 46.0614 111.998 46.2262L111.988 46.2365Z" fill="var(--fill-0, #236242)"/>
<path id="Vector_3" d="M111.841 30.5597C111.721 30.6009 111.6 30.6216 111.47 30.6216C110.797 30.6216 110.235 30.0654 110.235 29.365V28.5719C110.235 27.9333 110.576 27.4492 111.098 27.2741C111.219 27.2329 111.339 27.2123 111.46 27.2123C111.791 27.2123 112.102 27.3359 112.333 27.5728C112.564 27.8097 112.695 28.129 112.705 28.4689V29.3341C112.705 29.8903 112.363 30.3743 111.851 30.5494L111.841 30.5597Z" fill="var(--fill-0, #236242)"/>
<path id="Vector_4" d="M79.8142 2.472C79.6937 2.5132 79.5732 2.53373 79.4527 2.53373L75.4362 2.56466C74.7534 2.56466 74.2012 2.0085 74.1911 1.30811C74.1911 0.751912 74.5325 0.257462 75.0446 0.0926638C75.1651 0.0514642 75.2856 0.0309298 75.4061 0.0309298L79.4226 0C80.1054 0 80.6577 0.556164 80.6677 1.25656C80.6677 1.81275 80.3263 2.3072 79.8142 2.472Z" fill="var(--fill-0, #236242)"/>
<path id="Vector_5" d="M70.5769 2.5222C70.4263 2.5737 70.2656 2.59435 70.0949 2.57375L64.271 2.75908C63.9397 2.72818 63.6485 2.57375 63.4376 2.31625C63.2267 2.05875 63.1263 1.72913 63.1565 1.38924C63.1966 0.874241 63.538 0.452001 64.0099 0.287203C64.1606 0.235703 64.3212 0.215053 64.4919 0.235653L70.3158 0.0501997C70.6472 0.0810994 70.9384 0.235653 71.1492 0.49315C71.3601 0.750647 71.4605 1.08027 71.4304 1.42017C71.3902 1.93516 71.0488 2.3574 70.5769 2.5222Z" fill="var(--fill-0, #236242)"/>
<path id="Vector_6" d="M111.76 21.8153C111.639 21.8565 111.519 21.8771 111.398 21.8771C111.067 21.8771 110.756 21.7536 110.525 21.5167C110.294 21.2798 110.163 20.9605 110.153 20.6206L110.103 14.1935C110.073 11.0726 108.868 8.15762 106.709 5.97405C104.54 3.79047 101.678 2.59568 98.636 2.62658L86.3356 2.72968C85.6528 2.72968 85.1005 2.17339 85.0905 1.473C85.0905 0.916806 85.4319 0.422482 85.944 0.257684C86.0645 0.216484 86.185 0.195824 86.3055 0.195824L98.6059 0.0928506C102.301 0.0619509 105.795 1.51419 108.426 4.17157C111.057 6.82894 112.533 10.3825 112.553 14.1832L112.603 20.6103C112.603 21.1665 112.262 21.6505 111.75 21.8256L111.76 21.8153Z" fill="var(--fill-0, #236242)"/>
</g>
</svg>
