<svg preserveAspectRatio="none" width="100%" height="100%" overflow="visible" style="display: block;" viewBox="0 0 294.763 295.092" fill="none" xmlns="http://www.w3.org/2000/svg">
<g id="Group">
<path id="Vector" d="M129.57 10.4134C11.0841 10.4134 -11.3077 274.554 128.636 274.554C268.58 274.554 274.183 10.4134 129.57 10.4134Z" fill="var(--fill-0, #C9BBD9)"/>
<path id="Vector_2" d="M131.791 295.092C67.2761 295.092 14.7908 228.905 14.7908 147.546C14.7908 66.1871 67.2761 0 131.791 0C196.305 0 248.79 66.1871 248.79 147.546C248.79 228.905 196.305 295.092 131.791 295.092ZM131.791 2.9973C68.8927 2.9973 17.7229 67.8351 17.7229 147.536C17.7229 227.236 68.8927 292.074 131.791 292.074C194.689 292.074 245.858 227.236 245.858 147.536C245.858 67.8351 194.689 2.9973 131.791 2.9973Z" fill="var(--fill-0, #236242)"/>
<path id="Vector_3" d="M209.864 177.219C209.051 177.219 208.378 176.56 208.338 175.716C208.308 174.851 208.96 174.13 209.804 174.088L293.176 170.751H293.236C294.049 170.751 294.722 171.41 294.762 172.255C294.792 173.12 294.14 173.841 293.296 173.882L209.924 177.219H209.864Z" fill="var(--fill-0, #706458)"/>
<path id="Vector_4" d="M188.154 201.301C187.34 201.301 186.668 200.642 186.627 199.798C186.597 198.932 187.25 198.211 188.093 198.17L271.465 194.833C272.419 194.854 273.012 195.472 273.052 196.337C273.082 197.202 272.429 197.923 271.586 197.964L188.214 201.301H188.154Z" fill="var(--fill-0, #706458)"/>
<path id="Vector_5" d="M1.46707 9.446C0.683855 9.446 0.0311563 8.80738 0.00103275 8.00399C-0.0290908 7.1697 0.603528 6.47959 1.40682 6.43839L81.6358 3.22483H81.696C82.4792 3.22483 83.1319 3.86345 83.162 4.66684C83.1922 5.50113 82.5595 6.20154 81.7563 6.23244L1.52731 9.446H1.46707Z" fill="var(--fill-0, #706458)"/>
<path id="Vector_6" d="M200.807 109.735C200.425 109.58 200.104 109.251 199.953 108.849C199.763 108.324 199.853 107.737 200.194 107.304L239.556 57.3496C239.897 56.917 240.439 56.7007 240.972 56.7831C241.504 56.8655 241.966 57.2465 242.156 57.7615L264.649 117.707C264.839 118.232 264.749 118.819 264.408 119.252C264.066 119.685 263.524 119.901 262.992 119.818L201.138 109.828C201.028 109.807 200.907 109.776 200.807 109.735ZM240.269 61.418L204.221 107.16L260.863 116.316L240.269 61.418Z" fill="var(--fill-0, #706458)"/>
</g>
</svg>
