<svg preserveAspectRatio="none" width="100%" height="100%" overflow="visible" style="display: block;" viewBox="0 0 64.0773 64.5266" fill="none" xmlns="http://www.w3.org/2000/svg">
<path id="Vector" d="M44.1885 64.5163C43.7768 64.5163 43.3651 64.3412 43.0739 64.0219L0.408995 17.003C0.0374712 16.591 -0.0930911 16.0141 0.0675677 15.4785C0.228227 14.9429 0.649941 14.5413 1.18212 14.4177L62.2124 0.0390143C62.7446 -0.0845843 63.2969 0.0905792 63.6684 0.492275C64.0399 0.90427 64.1704 1.48104 64.0098 2.01664L45.6445 63.4246C45.4838 63.9602 45.0621 64.3619 44.5299 64.4855C44.4195 64.5164 44.2989 64.5266 44.1885 64.5266V64.5163ZM4.43552 16.8485L43.5057 59.9123L60.3247 3.68521L4.43552 16.8485Z" fill="var(--fill-0, #706458)"/>
</svg>
