<svg preserveAspectRatio="none" width="100%" height="100%" overflow="visible" style="display: block;" viewBox="0 0 52.9696 64.0444" fill="none" xmlns="http://www.w3.org/2000/svg">
<g id="Group">
<path id="Vector" d="M31.1985 14.234L31.7407 13.5131C34.3715 10.0214 36.6207 7.12721 37.7353 5.71612L37.7855 5.65426L37.8156 5.58222C37.8458 5.52042 37.8759 5.45857 37.916 5.40707C37.9663 5.34528 38.0165 5.29374 38.0767 5.24224L38.137 5.20113C38.137 5.20113 38.6691 4.53155 38.7193 4.46975C39.844 2.98657 41.2698 1.90512 42.7659 1.42102C43.3584 1.22532 43.9408 1.1326 44.493 1.1326C45.4771 1.1326 46.3607 1.43128 47.1037 2.01837L51.2306 5.29379C52.3753 6.20018 53.0079 7.73481 52.9678 9.48579C52.9276 11.1647 52.295 12.895 51.1905 14.3679L27.5435 45.7621C27.0816 46.3801 26.5695 46.9774 25.8164 47.0804C25.7461 47.0804 25.6759 47.0907 25.6056 47.0907C25.1738 47.0907 24.7822 46.9259 24.1898 46.483L22.9447 45.5663L23.2559 47.1113C23.3865 47.7499 23.5873 48.3679 23.768 48.9138C24.1195 49.9747 24.4006 50.809 24.0693 51.5506C24.0191 51.6742 23.9186 51.8905 22.6735 53.2912C22.6334 53.3324 22.5932 53.3736 22.5531 53.4045C19.852 55.516 12.6022 59.2961 11.1764 60.0377L11.0559 60.0995L8.2745 63.6941C8.1038 63.9104 7.85277 64.0444 7.57162 64.0444C7.3708 64.0444 7.19006 63.9825 7.0294 63.8589L3.39449 61.0059C3.01292 60.7072 2.93259 60.151 3.2037 59.7493L5.73408 56.062L5.76421 55.9486C6.12569 54.3933 8.01343 46.4625 9.30874 43.0532C9.32882 43.0017 9.34891 42.9502 9.37903 42.909L10.353 41.2919C10.4133 41.1889 10.5036 41.0961 10.6041 41.024C11.0157 40.7253 11.558 40.6739 12.6223 40.6739H13.3955C13.8674 40.6739 14.3695 40.6738 14.8816 40.6326L16.3074 40.54L15.2431 39.5615C14.9418 39.2834 14.731 39.0362 14.5804 38.7787C13.9678 37.7488 14.4599 36.8217 14.9619 36.0389L15.0523 35.9153C15.6748 35.0707 21.2879 27.5518 26.9611 20.0226L27.5034 19.3016L31.2085 14.2546L31.1985 14.234Z" fill="var(--fill-0, #F4C058)"/>
<g id="Group_2">
<path id="Vector_2" d="M4.52778 62.891C4.32696 62.891 4.14622 62.8293 3.98556 62.7057L0.350649 59.8526C-0.0309161 59.5539 -0.111248 58.9978 0.159864 58.5961L2.69024 54.9086L2.72037 54.7954C3.08185 53.2401 4.96959 45.3093 6.2649 41.9C6.28498 41.8485 6.30507 41.797 6.3352 41.7558L7.30919 40.1386C7.36944 40.0356 7.45981 39.9429 7.56022 39.8708C7.97191 39.5721 8.51413 39.5207 9.57849 39.5207H10.3517C10.8236 39.5207 11.3257 39.5206 11.8378 39.4794L13.2636 39.3868L12.1992 38.4083C11.898 38.1302 11.6871 37.883 11.5365 37.6255C10.924 36.5955 11.416 35.6685 11.9181 34.8857L12.0085 34.7621C12.631 33.9175 18.244 26.3986 23.9173 18.8693L24.4595 18.1484L25.8753 19.271L25.3331 19.9921C19.9109 27.1917 14.5388 34.381 13.5347 35.7302L13.4042 35.9054C13.3038 36.0599 13.2536 36.1527 13.2134 36.2248L12.9724 36.647L13.3238 36.9869C13.6954 37.3474 14.4886 37.9242 15.312 38.5319L15.5831 38.7379L19.6498 41.9617C20.5033 42.5488 21.1359 43.0433 21.5978 43.4141C21.7785 43.5583 21.9593 43.7025 22.1099 43.8158L22.5718 44.1659L22.9333 43.7127L23.0939 43.5067L45.4456 13.8225L35.7558 6.149L35.3843 6.62288C34.1693 8.17817 32.2715 10.6295 30.1127 13.5031L29.5705 14.2241L28.1547 13.1014L28.6969 12.3805C31.3277 8.88882 33.5769 5.99448 34.6915 4.5834L34.7417 4.52167L34.7718 4.4495C34.8019 4.3877 34.832 4.32598 34.8722 4.27448C34.9224 4.21268 34.9726 4.16114 35.0329 4.10965L35.0931 4.06841C35.0931 4.06841 35.6253 3.39895 35.6755 3.33715C36.8001 1.85397 38.226 0.772522 39.7221 0.288427C40.3145 0.0927292 40.8969 0 41.4492 0C42.4332 0 43.3168 0.298682 44.0599 0.885775L48.1868 4.16119C49.3315 5.06758 49.9641 6.60221 49.9239 8.35319C49.8838 10.0321 49.2512 11.7624 48.1466 13.2353L24.4997 44.6294C24.0378 45.2474 23.5257 45.8448 22.7726 45.9478C22.7023 45.9478 22.632 45.9581 22.5617 45.9581C22.13 45.9581 21.7384 45.7933 21.1459 45.3504L19.9008 44.4337L20.2121 45.9787C20.3426 46.6173 20.5435 47.2353 20.7242 47.7812C21.0756 48.8421 21.3568 49.6763 21.0254 50.4179C20.9752 50.5415 20.8748 50.7579 19.6297 52.1586C19.5895 52.1998 19.5494 52.241 19.5092 52.2719C16.8081 54.3834 9.55841 58.1634 8.13256 58.905L8.01207 58.9669L5.23066 62.5615C5.05996 62.7778 4.80893 62.9117 4.52778 62.9117V62.891ZM7.05816 56.0725L7.81125 56.9995C10.181 55.7636 15.9546 52.6943 18.3043 50.8918L18.3545 50.8505L18.3946 50.8093C18.6858 50.4797 18.9971 50.1193 19.208 49.8618L19.4088 49.6146L19.3285 49.3056C19.2682 49.0481 19.1377 48.6566 19.0373 48.3579C18.6356 47.1425 18.0733 45.4637 18.4047 43.6819L18.475 43.3111L15.1011 40.633L14.7899 40.7463C13.364 41.2716 11.8277 41.3438 10.3818 41.3438H9.61865C9.40778 41.3438 9.18689 41.3438 9.00615 41.3438H8.68483L7.9217 42.6313L7.90162 42.6827C6.81717 45.5769 5.29091 51.7775 4.68844 54.3113L5.75281 54.8366L10.3115 48.7699L10.181 48.4404C9.86969 47.6679 9.98014 46.7821 10.4722 46.1229C10.9039 45.5358 11.5666 45.2062 12.2896 45.2062C12.7917 45.2062 13.2736 45.371 13.6753 45.6903C14.1573 46.0714 14.4685 46.6276 14.5489 47.2456C14.6292 47.8636 14.4685 48.4816 14.097 48.976C13.6652 49.5631 13.0025 49.8926 12.2796 49.8926C12.2093 49.8926 12.139 49.8926 12.0787 49.8926L11.7474 49.8618L7.07823 56.0828L7.05816 56.0725ZM12.2595 46.8336C12.0386 46.8336 11.8277 46.9366 11.6972 47.122L11.5466 47.3279V47.6576C11.5867 47.843 11.6771 48.0181 11.8277 48.1314L11.9884 48.2653L12.2595 48.2859C12.4703 48.2859 12.6812 48.1829 12.8118 48.0078C13.0527 47.6885 12.9925 47.2353 12.6913 46.9881L12.5306 46.8542L12.2595 46.8336ZM41.4291 1.8231C40.9572 1.8231 40.5354 1.92604 40.2543 2.01874C39.1899 2.36893 38.1256 3.15172 37.262 4.20231L36.8604 4.69668L46.5401 12.3702L46.9015 11.8449C47.6647 10.7428 48.0964 9.47595 48.1266 8.29146C48.1466 7.61167 48.0262 6.34479 47.0823 5.59289L42.9554 2.31747C42.5336 1.98788 42.0215 1.81279 41.4291 1.81279V1.8231Z" fill="var(--fill-0, #3C3D3D)"/>
<path id="Vector_3" d="M27.5813 15.0173L25.8308 15.3872L26.1995 17.2233L27.9501 16.8534L27.5813 15.0173Z" fill="var(--fill-0, #3C3D3D)"/>
</g>
</g>
</svg>
