<svg preserveAspectRatio="none" width="100%" height="100%" overflow="visible" style="display: block;" viewBox="0 0 106.695 61.0884" fill="none" xmlns="http://www.w3.org/2000/svg">
<g id="Group">
<path id="Vector" d="M45.5244 45.4944L46.1268 44.382C46.4682 43.7538 46.7996 43.0327 47.1109 42.2499L47.7535 40.6432L47.9342 31.7853L38.857 27.7683C38.5458 27.6241 38.2947 27.3564 38.1742 27.0268C38.0638 26.6972 38.0839 26.3264 38.2445 26.0071L42.8032 17.005C42.984 16.6548 43.3153 16.4076 43.6969 16.3355L105.199 5.67511L105.39 5.65449H105.5L105.631 5.6648L105.771 5.69561L105.892 5.73685L106.012 5.79871L106.163 5.89137L106.263 5.97372L106.384 6.09732L106.484 6.23122L106.565 6.36513L106.615 6.47841L106.685 6.73591V6.83901L106.695 7.01402L106.675 7.24059V7.3848C106.735 7.735 106.645 8.07495 106.434 8.34275L79.1221 44.2585C78.9012 44.5468 78.5699 44.7219 78.2185 44.7425L64.8436 45.5974C64.452 45.5974 64.1507 45.4738 63.9298 45.2472L60.807 42.2294L49.34 43.3933L49.1392 43.8567C48.8681 44.4953 48.5869 45.0927 48.2957 45.6386L47.6933 46.7511L45.5143 45.515L45.5244 45.4944Z" fill="var(--fill-0, #F4C058)"/>
<path id="Vector_2" d="M33.3042 51.4889C32.3503 51.4168 31.5972 51.3653 30.9245 51.355L29.6794 51.3241L29.7497 48.78L30.9948 48.811C31.7177 48.8316 32.511 48.8727 33.495 48.9551L34.7301 49.0479L34.5393 51.5919L33.3042 51.4992V51.4889Z" fill="var(--fill-0, #F4C058)"/>
<path id="Vector_3" d="M20.3985 52.1174L21.4126 51.3758C22.1557 50.8299 22.9489 50.3664 23.7522 50.0059L24.8868 49.4909L25.891 51.8187L24.7563 52.3337C24.1036 52.6324 23.4811 52.9929 22.8586 53.4461L21.8444 54.1877L20.3985 52.1174Z" fill="var(--fill-0, #F4C058)"/>
<path id="Vector_4" d="M38.8037 49.2836L40.0287 49.0878C40.7918 48.9642 41.4746 48.7789 42.0971 48.5111L43.2419 48.0271L44.1857 50.3856L43.041 50.8698C42.2377 51.2097 41.3541 51.4569 40.4002 51.6011L39.1752 51.7967L38.8037 49.2733V49.2836Z" fill="var(--fill-0, #F4C058)"/>
<path id="Vector_5" d="M13.9468 59.2963L14.8103 58.3899C15.3124 57.8646 15.8044 57.2878 16.3868 56.5874L17.1901 55.6193L19.0778 57.2775L18.2746 58.2457C17.652 58.9975 17.1299 59.6052 16.5776 60.182L15.7141 61.0884L13.9368 59.3066L13.9468 59.2963Z" fill="var(--fill-0, #F4C058)"/>
<g id="Group_2">
<path id="Vector_6" d="M39.821 39.8399L40.4235 38.7276C40.7649 38.0993 41.0963 37.3782 41.4076 36.5954L42.0502 34.9887L42.2309 26.1308L33.1638 22.1138C32.8525 21.9696 32.6014 21.7019 32.4809 21.3723C32.3705 21.0427 32.3906 20.6719 32.5512 20.3526L37.11 11.3504C37.2907 11.0002 37.622 10.7531 38.0036 10.681L99.5058 0.0204942L99.6966 0H99.8071L99.9376 0.0103099L100.078 0.0411141L100.199 0.0823538L100.319 0.144214L100.47 0.236877L100.57 0.319231L100.691 0.442825L100.791 0.576728L100.871 0.710632L100.922 0.823916L100.992 1.08141V1.18439L101.002 1.35953L100.982 1.5861V1.73031C101.042 2.08051 100.952 2.42046 100.741 2.68826L73.4289 38.604C73.208 38.8924 72.8766 39.0674 72.5251 39.088L59.1503 39.9429C58.7587 39.9429 58.4575 39.8193 58.2366 39.5927L55.1138 36.5749L43.6467 37.7388L43.4459 38.2022C43.1748 38.8408 42.8937 39.4382 42.6025 39.9841L42 41.0965L39.821 39.8605V39.8399ZM61.8916 22.7318C62.3434 22.7318 62.7551 22.979 62.976 23.3807C63.1366 23.6794 63.1768 24.0194 63.0865 24.3489C62.9961 24.6785 62.7852 24.9463 62.5041 25.1111C58.2466 27.5625 55.4351 29.2928 53.8285 30.3125L52.9047 30.8997L59.552 37.3371L71.8223 36.5543L92.1657 9.7952L91.0813 8.52821C82.8776 13.4104 75.899 17.5303 70.3362 20.7748C70.1454 20.8881 69.9345 20.9396 69.7237 20.9396C69.2819 20.9396 68.8601 20.6924 68.6392 20.2907C68.4786 19.992 68.4284 19.6522 68.5187 19.3226C68.6091 18.993 68.8099 18.7252 69.1011 18.5501C71.0592 17.4068 73.1075 16.2016 75.176 14.9863L74.433 13.4516L44.7111 26.1514L44.5505 33.8763L50.043 29.8284C50.1233 29.7769 50.2036 29.7254 50.304 29.6842L50.4948 29.6019L50.6253 29.4473C50.7057 29.3546 50.786 29.2826 50.8764 29.2208C50.9969 29.1384 53.9691 27.1196 61.2891 22.8863C61.4799 22.773 61.6807 22.7215 61.9016 22.7215L61.8916 22.7318ZM50.2538 32.8051L47.6331 34.7415L52.6738 34.2265L50.8764 32.4343L50.2438 32.7948L50.2538 32.8051ZM39.0278 13.0808L35.3628 20.3113L43.5062 23.9163L82.4458 7.28197L81.984 5.64432L39.0178 13.0911L39.0278 13.0808Z" fill="var(--fill-0, #236242)"/>
<g id="Group_3">
<path id="Vector_7" d="M27.3915 45.8959C26.4375 45.8238 25.6844 45.7723 25.0116 45.762L23.7665 45.7311L23.8368 43.1871L25.0819 43.218C25.8049 43.2386 26.5981 43.2798 27.5822 43.3622L28.8173 43.4549L28.6265 45.9989L27.3915 45.9062V45.8959Z" fill="var(--fill-0, #236242)"/>
<path id="Vector_8" d="M14.4856 46.5223L15.4998 45.7807C16.2428 45.2348 17.0361 44.7714 17.8394 44.4109L18.9741 43.8959L19.9782 46.2237L18.8435 46.7387C18.1908 47.0374 17.5683 47.3978 16.9457 47.851L15.9316 48.5926L14.4856 46.5223Z" fill="var(--fill-0, #236242)"/>
<path id="Vector_9" d="M3.11274 58.0692C2.52031 58.0692 1.88772 58.028 1.23504 57.9353L0 57.7705L0.321325 55.247L1.55637 55.4117C2.09859 55.4838 2.62072 55.525 3.11274 55.525C3.33365 55.525 3.54452 55.5251 3.75539 55.5045L4.99043 55.4221L5.16118 57.9661L3.92607 58.0589C3.65496 58.0795 3.38385 58.0897 3.11274 58.0897V58.0692Z" fill="var(--fill-0, #236242)"/>
<path id="Vector_10" d="M32.9029 43.6906L34.1279 43.495C34.891 43.3714 35.5738 43.1859 36.1964 42.9181L37.3411 42.4341L38.2849 44.7928L37.1402 45.2768C36.3369 45.6167 35.4533 45.8639 34.4994 46.0081L33.2744 46.2039L32.9029 43.6803V43.6906Z" fill="var(--fill-0, #236242)"/>
<path id="Vector_11" d="M8.04602 53.7014L8.90955 52.795C9.4116 52.2697 9.90363 51.6929 10.486 50.9925L11.2893 50.0243L13.177 51.6825L12.3738 52.6508C11.7512 53.4027 11.2291 54.0104 10.6768 54.5872L9.81328 55.4936L8.03597 53.7116L8.04602 53.7014Z" fill="var(--fill-0, #236242)"/>
</g>
</g>
</g>
</svg>
