<svg preserveAspectRatio="none" width="100%" height="100%" overflow="visible" style="display: block;" viewBox="0 0 117.49 319.204" fill="none" xmlns="http://www.w3.org/2000/svg">
<g id="Group">
<g id="Group_2">
<path id="Vector" d="M60.6301 151.987V141.728" stroke="var(--stroke-0, #236242)" stroke-width="1.94668" stroke-linecap="round" stroke-linejoin="round"/>
<path id="Vector_2" d="M60.6301 128.554V118.295" stroke="var(--stroke-0, #236242)" stroke-width="1.94668" stroke-linecap="round" stroke-linejoin="round"/>
<path id="Vector_3" d="M77.0568 135.136H67.0557" stroke="var(--stroke-0, #236242)" stroke-width="1.94668" stroke-linecap="round" stroke-linejoin="round"/>
<path id="Vector_4" d="M54.2139 135.136H44.2128" stroke="var(--stroke-0, #236242)" stroke-width="1.94668" stroke-linecap="round" stroke-linejoin="round"/>
<path id="Vector_5" d="M72.2452 123.229L65.1762 130.48" stroke="var(--stroke-0, #236242)" stroke-width="1.94668" stroke-linecap="round" stroke-linejoin="round"/>
<path id="Vector_6" d="M56.089 139.801L49.0199 147.052" stroke="var(--stroke-0, #236242)" stroke-width="1.94668" stroke-linecap="round" stroke-linejoin="round"/>
<path id="Vector_7" d="M72.2452 147.052L65.1762 139.801" stroke="var(--stroke-0, #236242)" stroke-width="1.94668" stroke-linecap="round" stroke-linejoin="round"/>
<path id="Vector_8" d="M56.089 130.48L49.0199 123.229" stroke="var(--stroke-0, #236242)" stroke-width="1.94668" stroke-linecap="round" stroke-linejoin="round"/>
</g>
<g id="Group_3">
<path id="Vector_9" d="M46.763 319.162C49.1365 319.162 51.0607 317.189 51.0607 314.754C51.0607 312.319 49.1365 310.346 46.763 310.346C44.3895 310.346 42.4654 312.319 42.4654 314.754C42.4654 317.189 44.3895 319.162 46.763 319.162Z" fill="var(--fill-0, #F4C058)"/>
<path id="Vector_10" d="M41.468 305.33L36.9193 306.35L39.0782 315.898L54.3408 313.632L54.3809 303.394L41.468 305.33Z" fill="var(--fill-0, #F4C058)"/>
<path id="Vector_11" d="M52.6828 298.078C61.4108 294.319 65.5149 284.013 61.8496 275.06C58.1843 266.107 48.1375 261.898 39.4096 265.657C30.6817 269.417 26.5777 279.723 30.243 288.675C33.9083 297.628 43.9549 301.838 52.6828 298.078Z" fill="var(--fill-0, #F4C058)"/>
<path id="Vector_12" d="M35.3531 293.454L38.5362 308.708L52.8849 306.618L53.5979 292.424" fill="var(--fill-0, #F4C058)"/>
</g>
<path id="Vector_13" d="M87.7978 48.9979C89.6265 41.106 84.8719 33.1877 77.1782 31.3119C69.4846 29.4362 61.7652 34.3133 59.9366 42.2052C58.1079 50.0971 62.8625 58.0153 70.5562 59.8911C78.2498 61.7668 85.9692 56.8898 87.7978 48.9979Z" fill="var(--fill-0, #F4C058)"/>
<path id="Vector_14" d="M114.179 22.7695C116.007 14.8776 111.253 6.95936 103.559 5.08361C95.8655 3.20786 88.1461 8.08492 86.3175 15.9768C84.4889 23.8687 89.2434 31.787 96.9371 33.6628C104.631 35.5385 112.35 30.6614 114.179 22.7695Z" fill="var(--fill-0, #F4C058)"/>
<path id="Vector_15" d="M69.4251 60.3367C65.1877 60.3367 61.2416 58.6063 58.3196 55.4752C57.8175 54.9396 57.3556 54.3526 56.9239 53.7449L56.6728 53.3741L53.8413 53.9921C53.771 54.0024 53.7006 54.0127 53.6303 54.0127C53.2688 54.0127 52.9375 53.817 52.7668 53.4874L51.0297 50.3046C50.7987 49.8823 50.8891 49.3467 51.2506 49.0274L54.1726 46.4937L54.1424 46.1332C53.6906 41.3438 55.4378 36.5131 58.8216 33.1965C61.6834 30.3949 65.4388 28.85 69.4051 28.85C71.8351 28.85 74.2549 29.4474 76.4038 30.5701L76.976 30.8687L77.2874 30.292C78.0304 28.9324 79.3759 27.1402 81.4946 26.3471L82.1875 26.0896L81.8761 25.4099C80.872 23.2057 80.3901 20.8366 80.4403 18.375C80.5307 14.1726 82.2176 10.2587 85.1898 7.35413C88.0114 4.58347 91.8872 2.9973 95.8133 2.9973C96.5463 2.9973 97.2794 3.04884 98.0023 3.16214L98.3538 3.21356L100.964 0.329667C101.155 0.123669 101.416 0 101.697 0C101.878 0 102.059 0.0515246 102.22 0.154523L105.242 2.0806C105.614 2.31749 105.784 2.77065 105.674 3.20325L104.941 6.07696L105.282 6.35508C105.865 6.81857 106.407 7.33354 106.909 7.86913C112.753 14.1521 112.522 24.1326 106.397 30.1272C103.525 32.939 99.7695 34.484 95.8133 34.484H95.4518C92.0077 34.4016 88.7945 33.1863 86.1336 30.9615L85.8625 30.7348L85.5312 30.8379C83.3623 31.2705 82.1071 33.1553 81.5448 34.2368L81.3439 34.6282L81.605 34.9784C86.3947 41.3643 85.722 50.387 80.0286 55.9592C77.1669 58.7608 73.4014 60.3059 69.4351 60.3059L69.4251 60.3367ZM56.8335 50.696C57.195 50.696 57.5264 50.902 57.7071 51.2213C58.2594 52.2513 58.9521 53.2092 59.7554 54.0744C62.2958 56.8039 65.7299 58.3076 69.4251 58.3076C72.8792 58.3076 76.1527 56.9584 78.653 54.5174C83.9848 49.2953 84.1856 40.6021 79.0947 35.1329C76.5543 32.4034 73.1202 30.8894 69.4251 30.8894C65.9709 30.8894 62.6975 32.2387 60.1973 34.6798C57.1146 37.7079 55.6386 41.9309 56.1607 46.2775C56.2009 46.5864 56.0904 46.8954 55.8695 47.122L55.7089 47.2868L55.6788 47.5134C55.6486 47.7709 55.5282 47.9975 55.3374 48.152L53.1584 50.0368L54.1324 51.8291L55.8294 51.4582L55.98 51.1904C56.0704 51.0256 56.201 50.8918 56.3616 50.7991C56.5122 50.7167 56.6729 50.6754 56.8436 50.6754L56.8335 50.696ZM82.9004 28.0878H82.8702C80.7314 28.5204 79.4763 30.4259 78.904 31.5279L78.653 32.0223L79.3057 32.5682L79.878 33.0626L80.2897 32.424C80.8922 31.4867 81.9264 30.2198 83.4225 29.4577L84.1455 29.0869L83.6535 28.4277L83.3823 28.0775H82.8803L82.9004 28.0878ZM95.7632 5.05728C92.3391 5.05728 89.0757 6.4065 86.5755 8.85788C83.9949 11.3814 82.5289 14.7907 82.4385 18.4574C82.3582 22.1139 83.6635 25.5953 86.1336 28.2423C88.6037 30.8894 91.9174 32.3932 95.492 32.4859H95.8133C99.2574 32.4859 102.541 31.1468 105.031 28.6955C110.363 23.4734 110.564 14.7804 105.473 9.31114C104.67 8.44595 103.766 7.69402 102.792 7.08633C102.571 6.94213 102.41 6.71555 102.35 6.45805C102.29 6.19025 102.33 5.92246 102.471 5.68556C102.561 5.52076 102.702 5.39718 102.872 5.31478L103.143 5.18087L103.585 3.46075L101.878 2.37933L99.9402 4.52167C99.7695 4.70706 99.5486 4.8203 99.2976 4.8409L99.0767 4.86152L98.9061 5.01604C98.7253 5.19114 98.4843 5.28385 98.2433 5.28385C98.1931 5.28385 98.1328 5.28384 98.0726 5.27354C97.3094 5.13964 96.5364 5.0779 95.7732 5.0779L95.7632 5.05728Z" fill="var(--fill-0, #3C3D3D)"/>
<g id="Group_4">
<path id="Vector_16" d="M42.3656 319.194C39.785 319.06 37.576 317.165 36.9835 314.569L36.8028 313.786L34.433 314.188L34.0314 311.685L50.519 308.894L50.9207 311.397L48.3702 311.829L48.4506 312.633C48.4807 312.921 48.4806 313.22 48.4706 313.518C48.32 316.711 45.7596 319.204 42.6568 319.204C42.5564 319.204 42.466 319.204 42.3656 319.204V319.194ZM45.0165 312.396L39.1525 313.385L39.4838 314.342C39.9356 315.671 41.1104 316.578 42.476 316.65H42.6468C44.4341 316.65 45.9001 315.218 45.9804 313.385V313.23L45.9303 312.272L45.0064 312.385L45.0165 312.396Z" fill="var(--fill-0, #3C3D3D)"/>
<path id="Vector_17" d="M33.7776 303.858C33.2354 303.858 32.7535 303.488 32.5929 302.952L30.3637 295.361C30.3637 295.361 30.0223 295.145 29.9922 295.114C25.3432 291.334 22.7424 285.473 23.0336 279.406C23.5156 269.374 31.5686 261.505 41.3588 261.505C41.66 261.505 41.9713 261.505 42.2726 261.526C45.3351 261.68 48.3274 262.628 50.928 264.255C51.2092 264.43 51.41 264.709 51.4903 265.038C51.5706 265.368 51.5205 265.708 51.3398 265.996C51.1088 266.377 50.7172 266.604 50.2854 266.604C50.0544 266.604 49.8335 266.542 49.6427 266.418C47.3935 265.007 44.8029 264.193 42.1521 264.06C41.891 264.049 41.6198 264.039 41.3588 264.039C32.8941 264.039 25.9255 270.837 25.5138 279.52C25.2627 284.762 27.512 289.84 31.5284 293.105C31.5887 293.157 31.6389 293.208 31.6891 293.26L31.8096 293.394L31.9703 293.466C32.2916 293.62 32.5426 293.909 32.643 294.249L34.9726 302.19C35.073 302.519 35.0329 302.859 34.8823 303.158C34.7216 303.457 34.4604 303.673 34.1492 303.776C34.0287 303.817 33.9082 303.827 33.7877 303.827L33.7776 303.858Z" fill="var(--fill-0, #3C3D3D)"/>
<path id="Vector_18" d="M48.3898 301.849L48.3196 301.818C48.0183 301.715 47.7672 301.509 47.6065 301.22C47.4459 300.922 47.4057 300.582 47.4961 300.252L48.7814 295.638C48.8216 295.494 48.8918 295.35 48.9822 295.226L49.0726 295.102L49.1127 294.958C49.2031 294.649 49.3939 294.392 49.655 294.237C54.1333 291.415 56.965 286.523 57.2261 281.156C57.2763 280.106 57.2261 279.055 57.0855 278.025C57.0353 277.685 57.1256 277.356 57.3164 277.088C57.5172 276.82 57.8084 276.645 58.1297 276.594C58.1899 276.594 58.2502 276.583 58.3105 276.583C58.923 276.583 59.4451 277.057 59.5355 277.675C59.7062 278.859 59.7564 280.075 59.6962 281.28C59.405 287.254 56.3224 292.785 51.4524 296.081L51.1913 296.256L49.8759 300.963C49.7955 301.262 49.6148 301.509 49.3537 301.674C49.3537 301.674 49.0826 301.952 48.3797 301.849H48.3898Z" fill="var(--fill-0, #3C3D3D)"/>
<path id="Vector_19" d="M48.2479 303.498L31.8105 306.063L32.1821 308.576L50.6076 305.702L50.2361 303.189L49.9349 303.241L48.2479 303.498Z" fill="var(--fill-0, #3C3D3D)"/>
<path id="Vector_20" d="M46.114 292.25C45.6722 292.25 45.2605 292.003 45.0396 291.612C44.879 291.313 44.8288 290.973 44.9191 290.644C45.0095 290.314 45.2103 290.046 45.5015 289.871C48.6042 288.048 50.5924 284.793 50.8234 281.147C50.8635 280.478 51.4057 279.963 52.0584 279.963C52.8215 280.014 53.3437 280.612 53.3035 281.312C53.0223 285.813 50.5723 289.84 46.7466 292.086C46.5558 292.199 46.3449 292.25 46.1341 292.25H46.114Z" fill="var(--fill-0, #3C3D3D)"/>
<path id="Vector_21" d="M27.9017 253.862C27.4297 253.862 27.008 253.595 26.7972 253.172L24.4677 248.496C24.3171 248.197 24.2869 247.847 24.3873 247.528C24.4877 247.209 24.7086 246.941 24.9998 246.786C25.1805 246.694 25.3613 246.642 25.5621 246.642C26.0341 246.642 26.4558 246.91 26.6666 247.332L28.9963 252.008C29.3075 252.626 29.0665 253.399 28.454 253.718C28.2732 253.811 28.0924 253.862 27.8916 253.862H27.9017Z" fill="var(--fill-0, #3C3D3D)"/>
<path id="Vector_22" d="M42.4797 250.422C42.1684 250.422 41.8571 250.278 41.6262 250.03C41.3952 249.783 41.2748 249.464 41.2848 249.124L41.5258 237.794C41.5459 237.094 42.078 236.548 42.7608 236.548C43.4738 236.569 44.016 237.145 44.0059 237.846L43.765 249.176C43.7449 249.855 43.1926 250.422 42.5299 250.422H42.4797Z" fill="var(--fill-0, #3C3D3D)"/>
<path id="Vector_23" d="M57.1565 253.554C56.9457 253.554 56.7348 253.492 56.544 253.389C55.9516 253.039 55.7408 252.266 56.0822 251.658L58.8134 246.714C59.0343 246.313 59.4459 246.076 59.8877 246.076C60.0986 246.076 60.3095 246.138 60.5003 246.241C61.0928 246.591 61.3036 247.363 60.9722 247.971L58.2411 252.915C58.0202 253.317 57.6084 253.554 57.1666 253.554H57.1565Z" fill="var(--fill-0, #3C3D3D)"/>
<path id="Vector_24" d="M66.5117 265.315C66.1101 265.315 65.7285 265.12 65.4976 264.78C65.106 264.203 65.2364 263.41 65.7887 263.008L73.6108 257.323C73.8217 257.168 74.0726 257.086 74.3237 257.086C74.7253 257.086 75.1069 257.281 75.3378 257.621C75.7294 258.188 75.599 258.991 75.0467 259.393L67.2246 265.078C67.0138 265.233 66.7728 265.315 66.5117 265.315Z" fill="var(--fill-0, #3C3D3D)"/>
<path id="Vector_25" d="M70.0875 278.82C69.4047 278.799 68.8625 278.222 68.8826 277.522C68.9026 276.832 69.4449 276.286 70.1277 276.286L75.3993 276.42C75.7306 276.42 76.0419 276.564 76.2628 276.811C76.4937 277.059 76.6142 277.378 76.6042 277.718C76.5841 278.398 76.0318 278.954 75.3691 278.954L70.0875 278.82Z" fill="var(--fill-0, #3C3D3D)"/>
<path id="Vector_26" d="M74.7856 298.688C74.5748 298.688 74.3639 298.637 74.1731 298.523L66.7125 294.177C66.1201 293.827 65.9092 293.054 66.2506 292.446C66.4715 292.045 66.8832 291.808 67.325 291.808C67.5359 291.808 67.7467 291.87 67.9375 291.973L75.3981 296.319C75.9906 296.669 76.2014 297.442 75.87 298.049C75.6491 298.451 75.2375 298.688 74.7856 298.688Z" fill="var(--fill-0, #3C3D3D)"/>
<path id="Vector_27" d="M5.83244 299.851C5.32034 299.851 4.85842 299.521 4.67768 299.037C4.55719 298.718 4.56726 298.378 4.70783 298.069C4.83837 297.76 5.08946 297.523 5.40074 297.4L13.7047 294.155C13.8453 294.104 13.9959 294.073 14.1466 294.073C14.6587 294.073 15.1206 294.402 15.3013 294.897C15.5423 295.556 15.2209 296.287 14.5883 296.535L6.28425 299.779C6.14367 299.83 5.99311 299.861 5.84249 299.861L5.83244 299.851Z" fill="var(--fill-0, #3C3D3D)"/>
<path id="Vector_28" d="M1.19542 278.366C0.864063 278.356 0.562843 278.211 0.331896 277.964C0.11099 277.717 -0.00945996 277.387 0.000581217 277.058C0.0307047 276.388 0.58296 275.832 1.24568 275.832L9.32875 276.141C9.66011 276.151 9.96133 276.296 10.1923 276.543C10.4132 276.79 10.5338 277.12 10.5237 277.46C10.4936 278.15 9.95138 278.685 9.28867 278.685L1.20547 278.376L1.19542 278.366Z" fill="var(--fill-0, #3C3D3D)"/>
<path id="Vector_29" d="M17.1799 263.956C16.979 263.956 16.7882 263.905 16.6074 263.812L7.60054 258.981C6.99807 258.652 6.75706 257.89 7.07838 257.272C7.28924 256.849 7.71094 256.592 8.17283 256.592C8.37365 256.592 8.56451 256.643 8.74525 256.736L17.7521 261.567C18.0433 261.721 18.2642 261.989 18.3646 262.308C18.4651 262.627 18.435 262.978 18.2844 263.276C18.0735 263.699 17.6518 263.956 17.1899 263.956H17.1799Z" fill="var(--fill-0, #3C3D3D)"/>
<path id="Vector_30" d="M25.694 262.216C25.3224 262.216 24.971 262.041 24.7301 261.752C24.5192 261.495 24.4288 261.165 24.4589 260.825C24.489 260.485 24.6497 260.187 24.9107 259.97C25.1316 259.785 25.4028 259.682 25.694 259.682C26.0655 259.682 26.4169 259.847 26.6478 260.146C27.0796 260.691 26.9993 261.495 26.4772 261.927C26.1961 262.164 25.8948 262.216 25.694 262.216Z" fill="var(--fill-0, #3C3D3D)"/>
<path id="Vector_31" d="M63.8503 288.212C63.7298 288.212 63.6194 288.191 63.4989 288.16C63.1776 288.067 62.9165 287.851 62.7558 287.552C62.5952 287.254 62.565 286.914 62.6553 286.584C62.806 286.048 63.298 285.667 63.8402 285.667C63.9607 285.667 64.0812 285.688 64.1917 285.719C64.8443 285.915 65.2158 286.625 65.025 287.295C64.8744 287.83 64.3825 288.201 63.8402 288.201L63.8503 288.212Z" fill="var(--fill-0, #3C3D3D)"/>
<path id="Vector_32" d="M16.9971 284.545C16.4348 284.504 15.9428 284.061 15.8725 283.494V283.422C15.8122 282.701 16.2642 282.104 16.9369 282.011C16.9972 282.011 17.0573 282.001 17.1176 282.001C17.7401 282.001 18.2423 282.444 18.3226 283.041C18.3628 283.381 18.2823 283.71 18.0815 283.978C17.8807 284.246 17.5895 284.421 17.2582 284.462C17.1477 284.483 17.0674 284.504 16.9971 284.535V284.545Z" fill="var(--fill-0, #3C3D3D)"/>
<path id="Vector_33" d="M25.8756 300.448C25.6648 300.448 25.3737 300.407 25.1026 300.18C24.5704 299.737 24.48 298.965 24.9117 298.429C25.1326 298.141 25.464 297.986 25.8255 297.986C26.1167 297.986 26.4078 298.1 26.6488 298.295L26.7091 298.347L26.7794 298.388C26.93 298.47 27.0506 298.666 27.1008 298.924C27.1811 299.315 27.0807 299.748 26.8497 300.036C26.5786 300.386 26.1668 300.458 25.8756 300.458V300.448Z" fill="var(--fill-0, #3C3D3D)"/>
<path id="Vector_34" d="M61.3899 293.918C61.169 293.918 60.9481 293.856 60.7573 293.733C60.1749 293.372 59.9842 292.589 60.3357 291.992C60.5666 291.611 60.9582 291.374 61.4 291.374C61.6209 291.374 61.8418 291.436 62.0426 291.56C62.625 291.92 62.8158 292.703 62.4644 293.3C62.2435 293.681 61.8318 293.918 61.4 293.918H61.3899Z" fill="var(--fill-0, #3C3D3D)"/>
<path id="Vector_35" d="M54.1199 260.783C53.8588 260.783 53.6279 260.721 53.4372 260.587C53.156 260.392 52.9652 260.114 52.905 259.794C52.8447 259.475 52.905 259.135 53.0857 258.857C53.3167 258.497 53.6882 258.29 54.0798 258.29C54.3208 258.29 54.5517 258.373 54.7525 258.527L54.9735 258.702H55.0136C55.1943 258.857 55.2747 259.073 55.3048 259.207C55.3952 259.568 55.3349 259.969 55.1341 260.268C54.8429 260.711 54.361 260.783 54.0999 260.783H54.1199Z" fill="var(--fill-0, #3C3D3D)"/>
<path id="Vector_36" d="M42.5944 256.736C42.2932 256.716 41.992 256.551 41.7812 256.293C41.5703 256.036 41.4598 255.706 41.4899 255.366C41.5401 254.707 42.0823 254.192 42.725 254.192C43.1567 254.223 43.448 254.377 43.6689 254.635C43.8798 254.892 43.9901 255.222 43.96 255.562C43.9098 256.221 43.3676 256.736 42.725 256.736H42.6045H42.5944Z" fill="var(--fill-0, #3C3D3D)"/>
<path id="Vector_37" d="M64.2404 275.842C63.6681 275.842 63.1559 275.42 63.0354 274.853C62.9651 274.524 63.0254 274.184 63.1961 273.895C63.3769 273.607 63.648 273.411 63.9693 273.339C64.0597 273.319 64.1501 273.308 64.2404 273.308C64.8128 273.308 65.3248 273.731 65.4453 274.297C65.596 274.977 65.1743 275.657 64.5015 275.811C64.4212 275.832 64.3308 275.842 64.2304 275.842H64.2404Z" fill="var(--fill-0, #3C3D3D)"/>
<path id="Vector_38" d="M64.7984 282.053C64.0855 282.032 63.5534 281.445 63.5734 280.735C63.5935 280.045 64.1458 279.509 64.8085 279.509C65.18 279.519 65.4913 279.663 65.7122 279.911C65.9432 280.158 66.0536 280.477 66.0435 280.817C66.0235 281.507 65.4812 282.043 64.8085 282.043H64.7984V282.053Z" fill="var(--fill-0, #3C3D3D)"/>
<path id="Vector_39" d="M58.7221 264.852C58.3706 264.852 58.0392 264.698 57.7982 264.43C57.5773 264.173 57.4669 263.853 57.487 263.513C57.5071 263.174 57.6476 262.865 57.8986 262.638C58.1296 262.432 58.4208 262.308 58.7221 262.308C59.0735 262.308 59.4148 262.463 59.6458 262.731C59.8667 262.988 59.9772 263.307 59.9571 263.647C59.937 263.987 59.7964 264.296 59.5454 264.523C59.3144 264.729 59.0233 264.842 58.7221 264.842V264.852Z" fill="var(--fill-0, #3C3D3D)"/>
<path id="Vector_40" d="M62.1649 269.981C61.693 269.981 61.2713 269.713 61.0604 269.291C60.7492 268.663 60.9801 267.901 61.5926 267.571C61.7734 267.478 61.9641 267.427 62.1549 267.427C62.6168 267.427 63.0486 267.695 63.2595 268.117C63.4101 268.416 63.4402 268.766 63.3398 269.085C63.2394 269.404 63.0185 269.672 62.7273 269.827C62.5466 269.919 62.3557 269.971 62.1649 269.971V269.981Z" fill="var(--fill-0, #3C3D3D)"/>
<path id="Vector_41" d="M57.6272 298.81C57.2959 298.81 56.9745 298.676 56.7436 298.428C56.2616 297.924 56.2717 297.12 56.7637 296.626C56.9946 296.399 57.3059 296.266 57.6272 296.266C57.9485 296.266 58.2799 296.399 58.5109 296.647C58.7418 296.894 58.8724 297.213 58.8624 297.553C58.8624 297.893 58.7319 298.212 58.4909 298.449C58.2599 298.686 57.9485 298.81 57.6272 298.81Z" fill="var(--fill-0, #3C3D3D)"/>
<path id="Vector_42" d="M21.5099 266.738C21.2388 266.738 20.9878 266.656 20.7769 266.491C20.2246 266.079 20.1041 265.275 20.5058 264.709C20.7367 264.379 21.1082 264.194 21.5099 264.194C21.7709 264.194 22.032 264.276 22.2429 264.441C22.524 264.657 22.7148 264.977 22.765 265.327C22.7951 265.543 22.7751 265.873 22.5341 266.192C22.1124 266.676 21.7509 266.738 21.5099 266.738Z" fill="var(--fill-0, #3C3D3D)"/>
<path id="Vector_43" d="M18.5665 272.205C18.4058 272.205 18.2551 272.174 18.1146 272.123C17.4719 271.865 17.1607 271.124 17.4117 270.475C17.6025 269.991 18.0544 269.672 18.5665 269.672C18.7171 269.672 18.8777 269.703 19.0183 269.764C19.3296 269.888 19.5706 270.125 19.7012 270.444C19.8317 270.753 19.8416 271.103 19.7211 271.412C19.5304 271.896 19.0786 272.216 18.5665 272.216V272.205Z" fill="var(--fill-0, #3C3D3D)"/>
<path id="Vector_44" d="M48.6687 258.003C48.5382 258.003 48.3976 257.983 48.2671 257.931C47.6244 257.705 47.283 256.973 47.5039 256.314C47.6746 255.799 48.1466 255.459 48.6687 255.459C48.8093 255.459 48.9399 255.48 49.0704 255.531C49.3817 255.645 49.6327 255.871 49.7833 256.18C49.9239 256.489 49.9439 256.829 49.8435 257.148C49.6728 257.663 49.2009 258.003 48.6687 258.003Z" fill="var(--fill-0, #3C3D3D)"/>
<path id="Vector_45" d="M16.9349 278.241C16.5835 278.2 16.2922 278.025 16.0913 277.757C15.8905 277.49 15.8002 277.16 15.8403 276.82C15.9206 276.181 16.4429 275.708 17.0654 275.708C17.1156 275.708 17.1658 275.708 17.216 275.708C17.8988 275.79 18.3808 276.429 18.3005 277.119C18.2202 277.757 17.6979 278.231 17.0754 278.231C17.0252 278.231 16.9851 278.231 16.9449 278.231L16.9349 278.241Z" fill="var(--fill-0, #3C3D3D)"/>
<path id="Vector_46" d="M36.6409 257.046C36.0384 257.046 35.5262 256.603 35.4258 255.995C35.3656 255.665 35.4359 255.325 35.6267 255.047C35.8175 254.769 36.0986 254.584 36.4299 254.522C36.5103 254.512 36.5806 254.501 36.6509 254.501C37.2534 254.501 37.7554 254.944 37.8659 255.552C37.9261 255.882 37.8558 256.222 37.665 256.5C37.4742 256.778 37.1931 256.963 36.8718 257.025C36.7915 257.035 36.7212 257.046 36.6509 257.046H36.6409Z" fill="var(--fill-0, #3C3D3D)"/>
<path id="Vector_47" d="M21.6487 295.948C21.2571 295.948 20.8856 295.763 20.6547 295.433C20.4538 295.165 20.3735 294.826 20.4237 294.496C20.4739 294.156 20.6446 293.868 20.9057 293.662C21.1166 293.497 21.3776 293.404 21.6487 293.404C22.0403 293.404 22.4119 293.59 22.6428 293.919C23.0545 294.475 22.934 295.279 22.3918 295.701C22.1809 295.866 21.9198 295.948 21.6487 295.948Z" fill="var(--fill-0, #3C3D3D)"/>
<path id="Vector_48" d="M30.8456 258.909C30.3636 258.909 29.9218 258.62 29.721 258.167C29.5804 257.858 29.5703 257.508 29.6808 257.199C29.7912 256.879 30.0222 256.622 30.3234 256.488C30.4841 256.406 30.6648 256.375 30.8456 256.375C31.3275 256.375 31.7693 256.663 31.9702 257.116C32.2513 257.755 31.9802 258.507 31.3577 258.806C31.197 258.888 31.0163 258.919 30.8456 258.919V258.909Z" fill="var(--fill-0, #3C3D3D)"/>
<path id="Vector_49" d="M18.6564 290.508C18.1543 290.508 17.7025 290.199 17.5117 289.715C17.3912 289.406 17.3912 289.056 17.5117 288.747C17.6422 288.438 17.8832 288.191 18.1845 288.067C18.3351 288.006 18.4957 287.975 18.6463 287.975C19.1484 287.975 19.6003 288.284 19.8011 288.768C20.0622 289.417 19.7508 290.158 19.1182 290.426C18.9676 290.488 18.817 290.519 18.6564 290.519V290.508Z" fill="var(--fill-0, #3C3D3D)"/>
<path id="Vector_50" d="M53.2589 271.999C52.7769 271.999 52.3552 271.721 52.1443 271.288L52.0942 271.185L51.9937 271.062C51.7828 270.815 51.6724 270.485 51.7026 270.145C51.7226 269.805 51.8732 269.496 52.1242 269.28C52.3451 269.084 52.6364 268.971 52.9376 268.971C53.2991 268.971 53.6404 269.136 53.8714 269.414C54.0722 269.651 54.2429 269.919 54.3734 270.186C54.6746 270.815 54.4136 271.577 53.8011 271.886C53.6304 271.968 53.4496 272.009 53.2589 272.009V271.999Z" fill="var(--fill-0, #3C3D3D)"/>
</g>
</g>
</svg>
