<svg preserveAspectRatio="none" width="100%" height="100%" overflow="visible" style="display: block;" viewBox="0 0 79.934 80.4161" fill="none" xmlns="http://www.w3.org/2000/svg">
<g id="Group">
<path id="Vector" d="M41.9518 42.7231L48.6894 48.0996L40.6464 50.7673L41.9518 42.7231Z" fill="var(--fill-0, #F4C058)"/>
<path id="Vector_2" d="M78.1921 16.2315C80.7726 13.1724 80.4513 8.5477 77.459 5.89033C74.4768 3.24325 69.9683 3.57283 67.3777 6.6422L43.4496 35.0184L54.2539 44.6077L78.182 16.2315H78.1921Z" fill="var(--fill-0, #F4C058)"/>
<g id="Group_2">
<path id="Vector_3" d="M67.2296 44.0218C66.6572 43.96 66.2154 43.4656 66.2154 42.8682V37.7492C66.2154 37.4402 66.3259 37.1517 66.5367 36.9354C66.7476 36.7191 67.0288 36.5956 67.33 36.5956C67.3702 36.5956 67.4104 36.5956 67.4505 36.5956C68.0229 36.6574 68.4546 37.1518 68.4647 37.7492V42.8682C68.4647 43.1772 68.3542 43.4656 68.1434 43.6819C67.9325 43.8982 67.6513 44.0218 67.3501 44.0218C67.3099 44.0218 67.2697 44.0218 67.2296 44.0218Z" fill="var(--fill-0, #3C3D3D)"/>
<path id="Vector_4" d="M67.2135 33.8752C66.6411 33.8134 66.1993 33.319 66.1993 32.7216V30.157C66.1993 29.5184 66.7014 29.0034 67.324 29.0034C67.3641 29.0034 67.4043 29.0034 67.4444 29.0034C68.0168 29.0652 68.4486 29.5596 68.4586 30.157V32.7113C68.4586 33.0203 68.3482 33.3087 68.1373 33.525C67.9264 33.7413 67.6452 33.8649 67.344 33.8649C67.3038 33.8649 67.2637 33.8649 67.2235 33.8649L67.2135 33.8752Z" fill="var(--fill-0, #3C3D3D)"/>
<path id="Vector_5" d="M47.214 17.086C46.6416 17.0242 46.1998 16.5298 46.1998 15.9324C46.1998 15.6234 46.3203 15.3351 46.5312 15.1188C46.742 14.9025 47.0232 14.7788 47.3244 14.7788C47.3244 14.7788 47.6357 14.7788 47.6658 14.7788C48.2382 14.8406 48.6699 15.335 48.68 15.9324C48.68 16.571 48.1779 17.086 47.5554 17.086H47.3244C47.3244 17.086 47.2441 17.086 47.2039 17.086H47.214Z" fill="var(--fill-0, #3C3D3D)"/>
<path id="Vector_6" d="M40.3466 17.096C39.7642 17.0342 39.3325 16.5398 39.3325 15.9424C39.3325 15.3038 39.8345 14.7888 40.4571 14.7888H43.0979C43.0979 14.7888 43.1782 14.7888 43.2184 14.7888C43.7907 14.8506 44.2225 15.345 44.2326 15.9424C44.2326 16.581 43.7305 17.096 43.108 17.096H40.4671C40.4671 17.096 40.3868 17.096 40.3466 17.096Z" fill="var(--fill-0, #3C3D3D)"/>
<path id="Vector_7" d="M29.8022 64.2079L59.7851 63.8681C61.5122 63.8681 63.1288 63.178 64.3438 61.9214C65.5588 60.6648 66.2315 59.0066 66.2315 57.235V48.1505C66.2315 47.5119 66.7235 46.9969 67.3461 46.9969C67.3863 46.9969 67.4264 46.9969 67.4666 46.9969C68.0289 47.0587 68.4808 47.5634 68.4808 48.1505V57.235C68.4908 59.6246 67.5871 61.8596 65.9404 63.559C64.2936 65.2482 62.1147 66.1753 59.7851 66.1856L30.7963 66.2165L30.5854 66.4121L13.5455 80.1728C13.3146 80.3582 13.0234 80.4407 12.7322 80.4098C12.6017 80.3995 12.4711 80.3582 12.3506 80.2964C11.9691 80.1007 11.718 79.699 11.718 79.2561V66.2268H8.74582C8.44459 66.2268 8.15339 66.2165 7.86219 66.1856C3.40391 65.7221 0.0401328 61.9111 0.0300917 57.3071L0 23.7501C0 18.8267 3.89595 14.8097 8.69563 14.8097L34.5517 14.7788C34.5517 14.7788 34.632 14.7788 34.6721 14.7788C35.2344 14.8406 35.6863 15.3453 35.6863 15.9324C35.6863 16.2414 35.5658 16.5298 35.3549 16.7461C35.1441 16.9624 34.8629 17.086 34.5617 17.086L8.70568 17.1169C5.1511 17.1169 2.25926 20.0936 2.25926 23.7398L2.28936 57.2968C2.28936 60.706 4.78964 63.5385 8.09318 63.8784C8.30405 63.899 8.52492 63.9093 8.74582 63.9093H18.0138C18.0138 63.9093 18.0942 63.9093 18.1344 63.9093C18.7067 63.9711 19.1385 64.4655 19.1385 65.0629C19.1385 65.7015 18.6364 66.2165 18.0138 66.2165H13.9572L13.9672 76.8665L27.7036 65.7735L29.7921 64.1976L29.8022 64.2079Z" fill="var(--fill-0, #3C3D3D)"/>
<path id="Vector_8" d="M38.7756 41.9503L39.0969 42.2181L43.2038 45.7819L47.4211 44.5665L39.2576 37.4596L38.7856 41.94L38.7756 41.9503ZM50.1121 45.5244C49.6502 46.2145 49.0276 46.5029 49.0276 46.5029L37.2293 49.8916C37.0887 49.9328 36.9481 49.943 36.8076 49.9327C36.5766 49.9121 36.3658 49.8194 36.1951 49.6649C35.9139 49.4177 35.7633 49.0367 35.8034 48.6556L37.0887 36.4708C37.1288 35.6263 37.7112 34.9052 37.8619 34.7301L39.3881 32.8865L39.4182 32.8453L55.6749 13.1828C55.9159 12.8944 56.2774 12.7399 56.6489 12.7811C56.8196 12.8017 56.9903 12.8634 57.1409 12.9561L57.4121 13.2034C57.7535 13.636 57.7434 14.254 57.392 14.6762L40.3119 35.3482L42.0591 36.8726L51.297 26.6138C51.5379 26.346 51.8793 26.2121 52.2408 26.243C52.4818 26.2636 52.7128 26.3769 52.8935 26.5417C53.3454 26.9743 53.3755 27.7056 52.9538 28.1794L43.7761 38.366L45.7241 40.0655L54.1587 29.8583C54.3997 29.5699 54.7612 29.4154 55.1327 29.4566C55.3636 29.4772 55.5745 29.5699 55.7452 29.7244C56.2171 30.1364 56.2774 30.8677 55.8757 31.3518L47.4412 41.5589L49.1883 43.0833L67.9653 20.3721L58.4865 12.1322L58.1049 11.7922C57.7334 11.3596 57.7233 10.7108 58.0848 10.2679L58.2053 10.1237C58.3057 10.0001 58.3659 9.93827 58.4262 9.88677L58.5065 9.82504L58.5668 9.74256L63.266 3.99527C64.491 2.76958 65.2944 1.95591 65.2944 1.95591L66.1981 1.25546C67.7444 0.0709767 70.0037 -0.124631 71.8713 0.0607672C73.3474 0.215266 74.7331 0.812599 75.8677 1.80139C78.609 4.19096 79.4625 8.49636 77.6048 11.7614L77.0626 12.6678L75.6067 14.6969L70.5961 20.7635L70.4656 20.9077L50.1824 45.4523M38.2133 31.877C38.0025 32.1345 37.6912 32.2787 37.3598 32.2787L12.287 32.3097C12.287 32.3097 12.2067 32.3097 12.1665 32.3097C11.5942 32.2479 11.1524 31.7535 11.1524 31.1561C11.1524 30.8471 11.2728 30.5586 11.4837 30.3423C11.6945 30.126 11.9757 30.0025 12.277 30.0025L37.3498 29.9716C37.3498 29.9716 37.4301 29.9716 37.4702 29.9716C38.0325 30.0334 38.4744 30.538 38.4744 31.1251C38.4744 31.3929 38.384 31.6505 38.2233 31.8565L38.2033 31.877H38.2133ZM60.7256 10.6799L69.592 18.3842L73.1466 14.0789L64.2601 6.35398L60.7256 10.6696V10.6799ZM71.6404 2.35762C70.325 2.22372 68.5577 2.5327 67.4632 3.36699L66.0273 4.86042L74.4218 12.1631L75.6167 10.4946C76.9221 8.19768 76.2995 5.2209 74.3917 3.55232C73.6084 2.87253 72.6545 2.46061 71.6303 2.34731L71.6404 2.35762Z" fill="var(--fill-0, #3C3D3D)"/>
<path id="Vector_9" d="M12.1866 40.6522C11.6143 40.5904 11.1724 40.096 11.1724 39.4987C11.1724 39.1897 11.293 38.9013 11.5038 38.6851C11.7147 38.4688 11.9959 38.3451 12.2971 38.3451L32.6405 38.3245C32.6405 38.3245 32.7208 38.3245 32.761 38.3245C33.3233 38.3863 33.7751 38.8909 33.7751 39.478C33.7751 39.787 33.6547 40.0755 33.4438 40.3021C33.233 40.5184 32.9518 40.6419 32.6505 40.6419L12.3071 40.6625C12.3071 40.6625 12.2268 40.6625 12.1866 40.6625V40.6522Z" fill="var(--fill-0, #3C3D3D)"/>
<path id="Vector_10" d="M12.1987 49.7364C11.6263 49.6746 11.1845 49.1802 11.1845 48.5828C11.1845 47.9442 11.6865 47.4292 12.3091 47.4292L32.6525 47.4086C32.6525 47.4086 32.7329 47.4086 32.773 47.4086C33.3353 47.4704 33.7872 47.9751 33.7872 48.5622C33.7872 49.2008 33.2851 49.7158 32.6626 49.7158L12.3191 49.7364C12.3191 49.7364 12.2388 49.7364 12.1987 49.7364Z" fill="var(--fill-0, #3C3D3D)"/>
</g>
</g>
</svg>
