<svg width="389" height="313" viewBox="0 0 389 313" fill="none" xmlns="http://www.w3.org/2000/svg">
<path d="M98.5612 10.1173H98.5448L95.9622 10.068C95.6826 12.0419 94.8272 13.95 93.5606 15.5456C94.9259 16.7958 96.7024 17.6676 98.808 18.0295C99.3015 18.1117 99.5153 18.4572 99.5153 18.8026C99.5153 19.2961 99.137 19.806 98.5283 19.806C98.4132 19.806 95.3042 19.4606 92.5243 16.6971C89.5305 19.6744 86.257 20.0199 86.1912 20.0199C85.5991 20.0199 85.2372 19.5593 85.2372 19.0987C85.2372 18.7533 85.4675 18.4078 85.9774 18.3256C88.1323 17.9637 90.0075 16.9274 91.4386 15.4798C90.7642 14.608 90.2049 13.6704 89.7772 12.6834C88.5271 13.8349 88.0994 13.8678 87.9349 13.8678C87.4579 13.8678 87.0795 13.4894 87.0795 13.0618C87.0795 12.7492 87.2605 12.4367 87.721 12.1899C88.5435 11.7458 89.3331 11.0056 89.6456 10.4627C89.7608 10.2653 89.9746 10.1667 90.1885 10.1667C90.6161 10.1667 91.0767 10.4956 91.0767 10.9069C91.0767 10.9891 91.0767 11.0549 90.9122 11.3839C91.2577 12.4531 91.7512 13.4401 92.4256 14.3119C93.3632 13.0289 93.9883 11.5649 94.2186 10.0351C93.7415 10.0351 93.2974 10.0186 92.8368 10.0186C91.2248 10.0186 89.4976 10.068 86.2406 10.1173H86.2241C85.7142 10.1173 85.4675 9.75542 85.4675 9.37708C85.4675 8.98229 85.7471 8.57106 86.2406 8.57106L91.5702 8.58751L91.5538 6.30104C91.5538 5.7911 91.9979 5.54436 92.4256 5.54436C92.8697 5.54436 93.2974 5.7911 93.2974 6.30104L93.281 8.58751L98.5448 8.57106C99.0383 8.57106 99.285 8.96584 99.285 9.36063C99.285 9.73897 99.0547 10.1173 98.5612 10.1173ZM109.895 7.4196C109.895 7.86373 109.418 8.24207 108.99 8.24207C108.76 8.24207 108.546 8.12692 108.431 7.84728C108.201 7.23865 107.839 6.87676 107.46 6.43263C107.362 6.31748 107.312 6.18589 107.312 6.07074C107.312 5.7253 107.724 5.42921 108.151 5.42921C108.99 5.42921 109.895 7.04126 109.895 7.4196ZM113.645 11.4004V10.4956C113.645 9.80476 113.283 9.68962 112.609 9.67317C111.293 9.65672 109.813 9.64027 108.382 9.64027C107.214 9.64027 106.062 9.65672 105.042 9.67317C104.138 9.68962 103.99 9.91991 103.94 10.4956C103.94 10.4956 103.94 10.4956 103.94 11.4497V11.4662C103.94 11.9267 103.529 12.1899 103.101 12.1899C102.723 12.1899 102.328 11.9596 102.312 11.4497C102.312 11.2359 102.295 10.9891 102.295 10.7259C102.295 10.4463 102.312 10.1667 102.312 9.91991C102.345 9.14679 102.953 8.35721 104.236 8.34077L105.618 8.32432C105.536 8.27497 105.47 8.19272 105.404 8.09402C105.059 7.51829 104.697 7.30445 104.253 6.90966C104.105 6.77807 104.039 6.63002 104.039 6.48198C104.039 6.12009 104.45 5.77465 104.878 5.77465C105.503 5.77465 106.786 7.02481 106.786 7.60054C106.786 7.89663 106.572 8.17627 106.309 8.32432C107.756 8.30787 109.188 8.30787 110.635 8.30787C111.112 7.76503 111.54 6.81097 111.803 6.13654C111.951 5.7582 112.247 5.61016 112.543 5.61016C113.004 5.61016 113.481 5.9556 113.481 6.41618C113.481 6.72872 112.954 7.53474 112.28 8.32432C112.658 8.32432 113.053 8.34077 113.432 8.34077C114.402 8.35721 115.307 8.8836 115.34 9.90346C115.356 10.1338 115.356 10.4792 115.356 10.7917C115.356 11.022 115.356 11.2359 115.34 11.4004C115.307 11.8774 114.879 12.1241 114.468 12.1241C114.04 12.1241 113.645 11.8938 113.645 11.4333C113.645 11.4168 113.645 11.4168 113.645 11.4004ZM115.34 15.7759L110.931 15.7595C110.964 15.9898 110.981 16.2365 110.981 16.4832C110.981 17.9637 110.29 20.2008 107.427 20.2008C106.144 20.2008 105.454 19.8554 105.454 19.2138C105.454 18.8026 105.766 18.4407 106.227 18.4407C106.309 18.4407 106.391 18.4407 106.49 18.4736C106.852 18.5888 107.23 18.6546 107.576 18.6546C109.418 18.6546 109.418 16.4503 109.418 16.3187C109.418 16.1213 109.401 15.9404 109.369 15.7595L102.394 15.7924C101.884 15.7924 101.637 15.4305 101.637 15.0686C101.637 14.6902 101.9 14.3119 102.377 14.3119L108.464 14.3448C108.266 14.2132 108.053 14.0816 107.806 13.9994C107.46 13.8842 107.312 13.6704 107.312 13.4565C107.312 13.1111 107.691 12.7657 108.184 12.7657C108.546 12.7657 108.891 12.9466 109.155 13.0947C109.582 12.815 110.454 12.2064 110.454 12.009C110.454 11.9432 110.388 11.9103 110.273 11.9103C110.092 11.8938 109.78 11.8938 109.401 11.8938C108.349 11.8938 106.753 11.9267 105.602 11.9761C105.585 11.9761 105.585 11.9761 105.569 11.9761C105.075 11.9761 104.828 11.6307 104.828 11.2852C104.828 10.9562 105.075 10.6108 105.585 10.5943C106.292 10.5614 107.181 10.5614 108.053 10.5614C109.253 10.5614 110.454 10.5779 111.211 10.5943C112.148 10.6108 112.543 11.0878 112.543 11.5978C112.543 12.4038 111.671 13.0782 110.191 13.9994C110.273 14.1145 110.355 14.2297 110.421 14.3448L115.323 14.2955C115.8 14.2955 116.047 14.6738 116.047 15.0521C116.047 15.414 115.817 15.7759 115.34 15.7759ZM130.078 17.7334C129.322 17.7334 128.664 17.5689 128.664 16.7793C128.664 16.3681 128.943 15.9569 129.387 15.9569C129.437 15.9569 129.503 15.9569 129.552 15.9733C129.716 16.0062 129.865 16.0227 130.013 16.0227C130.292 16.0227 130.983 15.9569 130.983 14.7725C130.983 13.9829 130.572 13.3085 130.045 12.6341C129.667 12.1735 129.536 11.7622 129.536 11.3675C129.536 10.9069 129.716 10.4792 129.93 10.0186C130.506 8.80135 130.736 8.29142 130.736 8.04468C130.736 7.69924 130.506 7.69924 129.601 7.69924C129.338 7.69924 129.075 7.69924 128.845 7.71569C128.483 7.73214 128.269 8.01178 128.269 8.35721C128.252 9.34418 128.252 10.3476 128.252 11.3675C128.252 13.5552 128.269 15.8253 128.269 18.1282C128.269 18.5723 128.269 19.0329 128.269 19.477C128.269 19.9541 127.874 20.2008 127.496 20.2008C127.085 20.2008 126.69 19.9541 126.69 19.477C126.69 12.486 126.706 10.2818 126.739 8.12692C126.756 7.07416 127.282 6.39973 128.368 6.38328C128.812 6.36683 129.289 6.36683 129.799 6.36683C130.161 6.36683 130.522 6.36683 130.884 6.38328C131.986 6.41618 132.529 6.99191 132.529 7.76503C132.529 8.39011 132.348 8.752 131.378 10.4463C131.164 10.8082 131.065 11.0385 131.065 11.2523C131.065 11.5155 131.213 11.7293 131.509 12.1077C132.118 12.9137 132.644 13.7197 132.644 14.9699C132.644 16.6642 131.674 17.7334 130.078 17.7334ZM125.407 8.63685H119.123C118.613 8.63685 118.383 8.32432 118.383 8.01178C118.383 7.68279 118.646 7.33735 119.123 7.33735H121.475L121.459 6.33393V6.31748C121.459 5.8569 121.854 5.64306 122.248 5.64306C122.643 5.64306 123.038 5.87335 123.038 6.31748V6.33393L123.022 7.33735H125.407C125.884 7.33735 126.114 7.66634 126.114 7.97888C126.114 8.30787 125.884 8.63685 125.407 8.63685ZM125.736 13.2756H118.778C118.284 13.2756 118.054 12.9631 118.054 12.6505C118.054 12.3051 118.301 11.9596 118.778 11.9596H122.38C122.709 11.3839 123.202 10.2324 123.416 9.45933C123.515 9.08099 123.811 8.93294 124.107 8.93294C124.518 8.93294 124.979 9.24548 124.979 9.65672C124.979 9.88701 124.37 11.1207 123.86 11.9596H125.736C126.196 11.9596 126.427 12.2886 126.427 12.6176C126.427 12.9466 126.196 13.2756 125.736 13.2756ZM120.932 11.7129C120.686 11.7129 120.455 11.5649 120.324 11.2523C120.094 10.6601 119.863 10.2653 119.649 10.0186C119.534 9.88701 119.485 9.75542 119.485 9.62382C119.485 9.29483 119.847 9.03164 120.209 9.03164C120.883 9.03164 121.722 10.4792 121.722 10.9069C121.722 11.351 121.311 11.7129 120.932 11.7129ZM123.943 19.6415C123.515 19.6744 122.939 19.6909 122.364 19.6909C121.706 19.6909 121.048 19.6744 120.554 19.6415C119.485 19.5757 119.041 18.9342 119.008 18.1282C118.991 17.7827 118.991 17.4867 118.991 17.207C118.991 16.7464 119.008 16.3516 119.024 15.8582C119.057 15.0192 119.633 14.4271 120.521 14.3777C120.982 14.3613 121.541 14.3448 122.084 14.3448C122.758 14.3448 123.433 14.3613 123.926 14.3777C124.732 14.4106 125.473 14.9699 125.505 15.7924C125.522 16.3845 125.555 16.8945 125.555 17.4209C125.555 18.3091 125.555 19.5099 123.943 19.6415ZM124.009 16.9109C124.009 16.6806 124.009 16.4339 123.992 16.1542C123.959 15.6279 123.696 15.6279 122.232 15.6279C121.804 15.6279 121.393 15.6279 121.097 15.6443C120.521 15.6608 120.488 15.9569 120.488 17.1412C120.488 18.3585 120.488 18.3585 122.265 18.3585C123.992 18.3585 124.009 18.3091 124.009 16.9109ZM141.33 17.4209C144.324 16.9274 146.199 15.085 146.199 12.9302C146.199 11.1043 144.768 9.54157 142.383 9.54157C142.366 9.54157 142.366 9.54157 142.35 9.54157C142.613 9.65672 142.81 9.90346 142.81 10.2324C142.81 10.2653 142.81 10.2982 142.81 10.3147C142.81 12.0419 141.116 15.0357 139.306 16.8122C138.895 17.207 138.468 17.3715 138.073 17.3715C136.905 17.3715 135.852 16.0556 135.852 14.2626C135.852 11.2852 138.78 8.25852 142.481 8.25852C145.804 8.25852 147.877 10.4627 147.877 13.0289C147.877 13.6375 147.761 14.2626 147.515 14.8876C146.067 18.5394 141.593 19.0493 141.363 19.0493C140.787 19.0493 140.425 18.6546 140.425 18.2433C140.425 17.8814 140.705 17.536 141.33 17.4209ZM141.132 10.3311C141.132 10.0022 141.264 9.75542 141.445 9.62382C139.389 10.0351 137.333 12.2228 137.333 14.1803C137.333 15.414 138.155 15.5621 138.204 15.5621C138.303 15.5621 138.418 15.5292 138.517 15.4305C139.01 14.9863 141.067 12.5518 141.132 10.3311ZM159.243 7.4196C159.243 7.86373 158.766 8.24207 158.338 8.24207C158.108 8.24207 157.894 8.12692 157.779 7.84728C157.549 7.23865 157.187 6.87676 156.809 6.43263C156.71 6.31748 156.661 6.18589 156.661 6.07074C156.661 5.7253 157.072 5.42921 157.5 5.42921C158.338 5.42921 159.243 7.04126 159.243 7.4196ZM162.994 11.4004V10.4956C162.994 9.80476 162.632 9.68962 161.957 9.67317C160.641 9.65672 159.161 9.64027 157.73 9.64027C156.562 9.64027 155.41 9.65672 154.391 9.67317C153.486 9.68962 153.338 9.91991 153.288 10.4956C153.288 10.4956 153.288 10.4956 153.288 11.4497V11.4662C153.288 11.9267 152.877 12.1899 152.45 12.1899C152.071 12.1899 151.676 11.9596 151.66 11.4497C151.66 11.2359 151.644 10.9891 151.644 10.7259C151.644 10.4463 151.66 10.1667 151.66 9.91991C151.693 9.14679 152.302 8.35721 153.585 8.34077L154.966 8.32432C154.884 8.27497 154.818 8.19272 154.752 8.09402C154.407 7.51829 154.045 7.30445 153.601 6.90966C153.453 6.77807 153.387 6.63002 153.387 6.48198C153.387 6.12009 153.798 5.77465 154.226 5.77465C154.851 5.77465 156.134 7.02481 156.134 7.60054C156.134 7.89663 155.92 8.17627 155.657 8.32432C157.105 8.30787 158.536 8.30787 159.983 8.30787C160.46 7.76503 160.888 6.81097 161.151 6.13654C161.299 5.7582 161.595 5.61016 161.892 5.61016C162.352 5.61016 162.829 5.9556 162.829 6.41618C162.829 6.72872 162.303 7.53474 161.628 8.32432C162.007 8.32432 162.401 8.34077 162.78 8.34077C163.75 8.35721 164.655 8.8836 164.688 9.90346C164.704 10.1338 164.704 10.4792 164.704 10.7917C164.704 11.022 164.704 11.2359 164.688 11.4004C164.655 11.8774 164.227 12.1241 163.816 12.1241C163.388 12.1241 162.994 11.8938 162.994 11.4333C162.994 11.4168 162.994 11.4168 162.994 11.4004ZM164.688 15.7759L160.28 15.7595C160.312 15.9898 160.329 16.2365 160.329 16.4832C160.329 17.9637 159.638 20.2008 156.776 20.2008C155.493 20.2008 154.802 19.8554 154.802 19.2138C154.802 18.8026 155.114 18.4407 155.575 18.4407C155.657 18.4407 155.739 18.4407 155.838 18.4736C156.2 18.5888 156.578 18.6546 156.924 18.6546C158.766 18.6546 158.766 16.4503 158.766 16.3187C158.766 16.1213 158.75 15.9404 158.717 15.7595L151.742 15.7924C151.232 15.7924 150.986 15.4305 150.986 15.0686C150.986 14.6902 151.249 14.3119 151.726 14.3119L157.812 14.3448C157.615 14.2132 157.401 14.0816 157.154 13.9994C156.809 13.8842 156.661 13.6704 156.661 13.4565C156.661 13.1111 157.039 12.7657 157.532 12.7657C157.894 12.7657 158.24 12.9466 158.503 13.0947C158.931 12.815 159.802 12.2064 159.802 12.009C159.802 11.9432 159.737 11.9103 159.622 11.9103C159.441 11.8938 159.128 11.8938 158.75 11.8938C157.697 11.8938 156.101 11.9267 154.95 11.9761C154.933 11.9761 154.933 11.9761 154.917 11.9761C154.424 11.9761 154.177 11.6307 154.177 11.2852C154.177 10.9562 154.424 10.6108 154.933 10.5943C155.641 10.5614 156.529 10.5614 157.401 10.5614C158.602 10.5614 159.802 10.5779 160.559 10.5943C161.497 10.6108 161.892 11.0878 161.892 11.5978C161.892 12.4038 161.02 13.0782 159.539 13.9994C159.622 14.1145 159.704 14.2297 159.77 14.3448L164.672 14.2955C165.149 14.2955 165.395 14.6738 165.395 15.0521C165.395 15.414 165.165 15.7759 164.688 15.7759ZM181.779 8.27497C181.647 8.27497 181.499 8.22562 181.384 8.09402C181.154 7.84728 180.364 7.30445 180.035 7.17285C179.739 7.05771 179.624 6.86032 179.624 6.67937C179.624 6.36683 179.92 6.07074 180.315 6.07074C180.677 6.07074 182.437 6.79452 182.437 7.55119C182.437 7.94598 182.108 8.27497 181.779 8.27497ZM180.298 9.75542C180.15 9.75542 180.002 9.68962 179.887 9.54157C179.673 9.29483 178.884 8.70265 178.555 8.57106C178.275 8.45591 178.176 8.27497 178.176 8.07757C178.176 7.78148 178.473 7.46894 178.867 7.46894C179.098 7.46894 180.956 8.20917 180.956 9.01519C180.956 9.39353 180.627 9.75542 180.298 9.75542ZM178.325 12.6012C178.259 12.5189 178.226 12.4696 178.209 12.4696C178.193 12.4696 178.193 12.4696 178.193 12.486C178.193 12.5025 178.209 12.5354 178.209 12.5683C178.242 12.7163 178.242 12.8808 178.242 13.0618C178.242 15.4963 175.972 19.4935 172.238 19.4935C170.708 19.4935 169.327 18.6546 169.327 16.2036C169.327 13.621 170.544 11.4333 172.024 9.04809C172.057 8.99874 172.057 8.98229 172.057 8.96584C172.057 8.94939 172.057 8.93294 172.024 8.93294C172.008 8.93294 171.992 8.94939 171.959 8.94939C171.695 9.01519 171.136 9.11389 170.692 9.11389C169.853 9.11389 169.59 8.7191 169.59 8.29142C169.59 7.89663 169.902 7.48539 170.462 7.48539C170.511 7.48539 170.577 7.48539 170.643 7.50184C170.84 7.53474 171.037 7.53474 171.268 7.53474C171.745 7.53474 172.271 7.46894 172.83 7.30445C173.933 6.97546 173.702 6.90966 174.344 6.71227C174.475 6.67937 174.574 6.66292 174.689 6.66292C175.166 6.66292 175.446 7.02481 175.446 7.4196C175.446 7.74859 175.232 8.11047 174.804 8.27497C173.883 8.62041 170.889 12.667 170.889 15.8253C170.889 17.2728 171.564 17.8156 172.436 17.8156C174.048 17.8156 176.712 15.924 176.712 12.3544C176.712 11.828 176.647 11.4004 176.548 11.1043C176.482 10.8904 176.252 10.5121 176.104 10.216C176.005 10.0186 175.956 9.83766 175.956 9.67317C175.956 9.19614 176.334 8.86715 176.762 8.86715C177.124 8.86715 177.519 9.09744 177.765 9.65672C178.325 10.8904 179.344 11.7622 181.088 12.486C181.516 12.667 181.713 13.0124 181.713 13.3578C181.713 13.7855 181.384 14.2132 180.841 14.2132C179.838 14.2132 178.325 12.6012 178.325 12.6012ZM192.784 14.2297C192.816 14.4764 192.816 14.7396 192.816 15.0192C192.816 15.2989 192.816 15.595 192.784 15.924C192.734 16.5819 192.29 16.9274 191.895 16.9274C191.533 16.9274 191.221 16.6642 191.221 16.1542C191.221 16.1049 191.221 16.0556 191.221 16.0062C191.27 15.6114 191.287 15.2331 191.287 14.9041C190.941 15.085 189.411 15.8911 189.411 16.9274C189.411 17.207 189.543 18.1775 191.221 18.1775C191.978 18.1775 192.816 17.9801 193.294 17.8321C193.442 17.7827 193.59 17.7663 193.705 17.7663C194.248 17.7663 194.56 18.1446 194.56 18.5394C194.56 18.8849 194.429 19.7238 191.616 19.7238C188.918 19.7238 187.931 18.3091 187.931 17.1083C187.931 15.1015 190.267 13.8513 191.122 13.4072C190.925 12.7657 190.596 12.4367 190.152 12.4367C189.888 12.4367 189.609 12.5354 189.296 12.7328C188.605 13.5059 188.194 13.7362 187.832 13.7362C187.438 13.7362 187.125 13.473 187.125 13.1111C187.125 12.9137 187.224 12.667 187.503 12.4367C188.392 11.6471 188.836 11.2359 189.609 9.93636C189.313 9.98571 189.05 10.0022 188.803 10.0022C187.141 10.0022 187.125 9.08099 187.125 8.94939C187.125 8.57106 187.405 8.22562 187.799 8.22562C187.98 8.22562 188.178 8.29142 188.392 8.43946C188.54 8.53816 188.753 8.57106 189 8.57106C189.132 8.57106 189.56 8.55461 190.3 8.39011C190.448 7.96243 190.514 7.64989 190.596 7.09061C190.662 6.67937 190.958 6.51488 191.287 6.51488C191.714 6.51488 192.175 6.81097 192.175 7.23865C192.175 7.43605 192.109 7.69924 192.076 7.84728C192.57 7.60054 192.636 7.58409 192.751 7.58409C193.145 7.58409 193.458 7.91308 193.458 8.30787C193.458 8.8507 193.03 9.17969 191.32 9.59092C191.073 10.1009 190.744 10.6601 190.382 11.2359C191.287 11.2359 192.027 11.7458 192.455 12.7821C194.527 11.8938 195.975 11.4497 196.254 11.4497C196.847 11.4497 197.176 11.8938 197.176 12.3051C197.176 12.5683 197.028 12.8315 196.731 12.9466C196.222 13.1604 195.679 13.2262 194.823 13.4894C194.132 13.7033 193.425 13.9665 192.784 14.2297ZM203.624 17.4209L203.64 16.4339L201.452 16.4832H201.436C201.008 16.4832 200.794 16.2036 200.794 15.9075C200.794 15.6279 201.025 15.3318 201.452 15.3318L203.64 15.3153V14.6738C201.222 14.6738 201.008 14.6244 201.008 12.338C201.008 10.3147 201.469 10.2982 203.657 10.2982L203.64 9.62382H201.14C200.712 9.62382 200.482 9.32773 200.482 9.03164C200.482 8.73555 200.712 8.43946 201.14 8.43946L203.64 8.45591V7.76503C202.703 7.81438 201.913 7.81438 201.584 7.81438C201.123 7.81438 200.893 7.48539 200.893 7.15641C200.893 6.84387 201.123 6.53133 201.568 6.53133C201.584 6.53133 201.6 6.53133 201.617 6.53133C201.946 6.54778 202.275 6.56423 202.62 6.56423C203.887 6.56423 205.219 6.41618 206.667 6.10364C206.716 6.08719 206.782 6.08719 206.831 6.08719C207.226 6.08719 207.506 6.41618 207.506 6.76162C207.506 7.2551 207.177 7.4196 205.006 7.64989L204.989 8.45591L207.424 8.43946C207.868 8.43946 208.098 8.73555 208.098 9.03164C208.098 9.06454 208.082 9.11389 208.082 9.14679C208.18 9.08099 208.312 9.04809 208.46 9.04809C208.888 9.04809 209.348 9.03164 209.809 9.03164V6.46553C209.809 5.97205 210.187 5.74175 210.565 5.74175C210.96 5.74175 211.355 5.9885 211.355 6.46553L211.339 9.03164C211.75 9.03164 212.177 9.04809 212.572 9.04809C213.658 9.06454 214.316 9.77187 214.332 10.874C214.332 11.351 214.349 11.8445 214.349 12.338C214.349 15.4963 214.053 19.5922 210.993 19.5922C210.549 19.5922 210.072 19.5099 209.562 19.3454C209.2 19.2138 209.036 18.9178 209.036 18.6052C209.036 18.2104 209.299 17.8321 209.743 17.8321C209.842 17.8321 209.94 17.8485 210.056 17.8814C210.384 17.9801 210.664 18.0459 210.927 18.0459C211.635 18.0459 212.819 17.6182 212.819 12.2064C212.819 11.8116 212.803 11.4333 212.803 11.0714C212.786 10.6108 212.539 10.4627 212.194 10.4463C211.931 10.4463 211.635 10.4298 211.322 10.4298C211.207 13.9007 210.286 17.6347 207.193 19.7402C207.012 19.8718 206.831 19.9212 206.65 19.9212C206.206 19.9212 205.877 19.5593 205.877 19.1645C205.877 18.9342 205.992 18.7039 206.256 18.523C206.502 18.3585 206.749 18.1611 206.963 17.9801C205.121 18.4901 201.436 19.0329 200.975 19.0329C200.548 19.0329 200.317 18.6875 200.317 18.342C200.317 18.0295 200.498 17.7169 200.893 17.7005C201.781 17.6347 202.719 17.5524 203.624 17.4209ZM206.338 12.009V11.7787C206.321 11.2523 206.124 11.2523 204.989 11.2523V12.009H206.338ZM207.045 16.3681L205.006 16.401V17.207C205.762 17.0754 206.453 16.9274 207.062 16.7793C207.111 16.7629 207.16 16.7629 207.21 16.7629C207.489 16.7629 207.687 16.9603 207.736 17.207C209.332 15.3482 209.743 12.9137 209.809 10.4463C209.348 10.4463 208.871 10.4627 208.46 10.4627C207.999 10.4627 207.769 10.1173 207.769 9.75542C207.769 9.68962 207.785 9.60737 207.802 9.54157C207.703 9.59092 207.572 9.62382 207.424 9.62382H204.989V10.2818C207.144 10.2818 207.67 10.3147 207.67 12.3873C207.67 14.6244 207.341 14.6738 204.989 14.6738V15.2989L207.045 15.2495H207.062C207.456 15.2495 207.67 15.5292 207.67 15.8088C207.67 16.0884 207.456 16.3681 207.045 16.3681ZM206.354 12.8808H204.989V13.6868C206.025 13.6868 206.321 13.6704 206.338 13.1604C206.338 13.0618 206.354 12.9795 206.354 12.8808ZM203.657 12.009V11.2523C202.423 11.2523 202.341 11.2852 202.308 11.8445V12.009H203.657ZM203.64 13.6868V12.8808H202.291C202.291 12.996 202.308 13.0947 202.308 13.1769C202.357 13.6704 202.505 13.6868 203.64 13.6868ZM229.762 8.20917H224.679V9.45933C225.09 9.45933 225.551 9.45933 226.094 9.47578C227.048 9.49223 227.739 10.1996 227.772 10.9069C227.804 11.4168 227.804 12.2722 227.804 13.1276C227.804 13.9829 227.804 14.8383 227.772 15.3153C227.739 16.1707 227.064 16.9109 226.011 16.9438C225.074 16.9767 224.597 16.9932 224.136 16.9932C223.61 16.9932 223.116 16.9767 222.047 16.9438C220.896 16.9109 220.254 16.2365 220.221 15.3318C220.205 14.7889 220.188 13.95 220.188 13.1276C220.188 12.3051 220.205 11.4991 220.221 11.0385C220.254 10.2982 220.715 9.50867 221.965 9.47578C222.425 9.45933 222.804 9.44288 223.182 9.44288V8.20917H218.313C217.787 8.20917 217.54 7.84728 217.54 7.48539C217.54 7.10706 217.82 6.71227 218.313 6.71227H229.762C230.255 6.71227 230.502 7.09061 230.502 7.46894C230.502 7.83083 230.255 8.20917 229.762 8.20917ZM219.201 10.9398V10.9562C219.185 11.9925 219.168 13.292 219.168 14.5258C219.168 15.414 219.168 16.2858 219.201 16.9603C219.234 17.6182 219.465 17.9801 220.238 18.013C221.208 18.0459 222.574 18.0624 223.955 18.0624C225.321 18.0624 226.686 18.0459 227.624 18.013C228.281 17.9801 228.693 17.6511 228.726 17.0096C228.759 16.1871 228.775 15.2166 228.775 14.2132C228.775 13.0947 228.759 11.9596 228.726 11.0056C228.726 10.9891 228.726 10.9891 228.726 10.9727C228.726 10.4956 229.12 10.2489 229.532 10.2489C229.943 10.2489 230.354 10.4956 230.371 11.0056C230.403 11.7293 230.403 12.8315 230.403 13.9829C230.403 15.1344 230.403 16.3516 230.371 17.3222C230.321 18.7368 229.252 19.4606 228.035 19.4935C226.9 19.5428 225.337 19.5593 223.807 19.5593C222.277 19.5593 220.781 19.5428 219.761 19.4935C218.412 19.4441 217.655 18.7368 217.622 17.3551C217.606 16.3023 217.589 15.1179 217.589 13.9171C217.589 12.9137 217.606 11.9103 217.622 10.9562C217.639 10.4298 218.017 10.1831 218.395 10.1831C218.79 10.1831 219.201 10.4463 219.201 10.9398ZM224.679 12.5189H226.324C226.324 12.0419 226.324 11.6307 226.308 11.3346C226.291 10.693 225.896 10.6601 224.679 10.6601V12.5189ZM223.182 12.5189V10.6766L222.36 10.693C221.85 10.7095 221.652 11.0056 221.636 11.351C221.619 11.6142 221.619 12.0419 221.619 12.5189H223.182ZM224.679 15.7101L225.6 15.6937C226.028 15.6937 226.291 15.5456 226.308 15.0357C226.324 14.7396 226.324 14.2461 226.324 13.7033H224.679V15.7101ZM223.182 15.7101V13.7033H221.619C221.619 14.2461 221.619 14.7396 221.636 15.0521C221.652 15.6772 221.883 15.7101 223.182 15.7101ZM247.494 12.2557C247.363 12.2557 247.215 12.1899 247.083 12.0583C246.853 11.7951 245.998 11.2194 245.652 11.0878C245.356 10.9727 245.224 10.7753 245.224 10.5779C245.224 10.2489 245.537 9.91991 245.948 9.91991C246.211 9.91991 248.185 10.6272 248.185 11.4826C248.185 11.8938 247.856 12.2557 247.494 12.2557ZM245.619 13.6375C245.471 13.6375 245.323 13.5717 245.191 13.4236C244.961 13.1604 244.139 12.5518 243.793 12.4038C243.497 12.2886 243.382 12.0912 243.382 11.8938C243.382 11.5649 243.695 11.2523 244.106 11.2523C244.32 11.2523 246.327 12.009 246.327 12.8644C246.327 13.2756 245.965 13.6375 245.619 13.6375ZM244.912 18.2762C244.912 18.7368 244.534 19.1974 243.777 19.1974C243.727 19.1974 243.678 19.1974 243.612 19.1974C240.043 18.8684 237.789 16.401 237.789 13.8678C237.789 13.2262 237.937 12.1077 238.974 10.8575C239.023 10.7917 239.056 10.7424 239.056 10.7095C239.056 10.693 239.039 10.6766 239.023 10.6766C238.99 10.6766 238.924 10.7095 238.858 10.7424C236.276 12.0748 235.963 12.1735 235.601 12.1735C234.993 12.1735 234.598 11.7458 234.598 11.2852C234.598 10.9562 234.828 10.5943 235.355 10.4298C235.7 10.3147 236.638 10.0351 237.131 9.85411C237.904 9.57447 239.27 9.14679 240.898 8.50526C242.115 8.02823 243.727 7.48539 245.257 7.48539C246.08 7.48539 246.376 7.86373 246.376 8.29142C246.376 9.13034 245.685 9.31128 245.06 9.31128C244.945 9.31128 244.813 9.31128 244.682 9.29483C244.55 9.27838 244.418 9.27838 244.287 9.27838C241.737 9.27838 239.237 11.4497 239.237 13.6539C239.237 15.6279 241.112 17.3057 243.695 17.3057C244.517 17.3057 244.912 17.7827 244.912 18.2762ZM263.352 8.09402C263.187 8.09402 263.039 8.02823 262.924 7.86373C262.727 7.58409 261.986 6.95901 261.674 6.79452C261.427 6.66292 261.328 6.48198 261.328 6.31748C261.328 6.00495 261.641 5.70886 262.003 5.70886C262.414 5.70886 264.026 6.67937 264.026 7.37025C264.026 7.76503 263.681 8.09402 263.352 8.09402ZM261.46 9.19614C261.295 9.19614 261.131 9.13034 261.016 8.94939C260.835 8.66975 260.128 8.01178 259.815 7.83083C259.585 7.69924 259.486 7.51829 259.486 7.3538C259.486 7.05771 259.782 6.77807 260.16 6.77807C260.522 6.77807 262.134 7.76503 262.134 8.47236C262.134 8.86715 261.789 9.19614 261.46 9.19614ZM259.996 9.82121C259.996 10.2489 259.667 10.6766 258.96 10.6766C256.723 10.6766 254.93 9.83766 254.502 9.62382C254.124 9.44288 253.959 9.09744 253.959 8.7849C253.959 8.39011 254.222 8.02823 254.699 8.02823C254.847 8.02823 254.995 8.06112 255.176 8.12692C256.344 8.62041 257.381 8.8836 259.141 8.98229C259.7 9.01519 259.996 9.40998 259.996 9.82121ZM260.391 18.9013C259.568 19.1151 258.664 19.2303 257.759 19.2303C254.354 19.2303 252.528 17.6511 252.528 16.7135C252.528 16.2365 252.923 15.8253 253.383 15.8253C253.63 15.8253 253.893 15.9569 254.124 16.2365C254.913 17.1906 256.081 17.4867 257.249 17.4867C258.269 17.4867 259.289 17.2728 260.045 17.0754C260.177 17.0425 260.309 17.0261 260.424 17.0261C260.999 17.0261 261.312 17.4209 261.312 17.865C261.312 18.2927 261.016 18.7368 260.391 18.9013ZM273.369 7.91308H273.353C272.909 7.91308 272.695 7.60054 272.695 7.27155C272.695 6.92611 272.925 6.59712 273.369 6.58067C274.241 6.56423 275.376 6.54778 276.462 6.54778C277.219 6.54778 277.975 6.56423 278.6 6.56423C279.571 6.58067 280.295 7.12351 280.295 8.39011C280.295 8.58751 280.245 10.0186 279.883 11.0056C279.472 12.1406 278.683 12.667 277.564 12.667C276.873 12.667 276.182 12.6012 276.182 11.8609C276.182 11.4826 276.413 11.1043 276.824 11.1043C276.89 11.1043 276.939 11.1043 277.005 11.1207C277.202 11.1701 277.383 11.203 277.548 11.203C278.025 11.203 278.337 10.9562 278.518 10.4463C278.6 10.2324 278.847 9.26193 278.847 8.45591C278.847 8.06112 278.633 7.88018 278.321 7.88018C277.86 7.86373 277.284 7.86373 276.692 7.86373C276.511 10.0844 275.458 11.68 273.814 12.815C273.583 12.9795 273.353 13.0453 273.156 13.0453C272.728 13.0453 272.432 12.7163 272.432 12.3544C272.432 12.1241 272.563 11.8609 272.876 11.6636C274.34 10.7588 275.162 9.59092 275.294 7.88018C274.587 7.88018 273.912 7.89663 273.369 7.91308ZM279.785 18.1446C279.752 19.0329 279.192 19.658 278.173 19.7402C277.745 19.7731 277.219 19.7896 276.676 19.7896C274.669 19.7896 273.419 19.7896 273.353 18.1775C273.336 17.8979 273.336 17.6018 273.336 17.2893C273.336 16.5161 273.369 15.6937 273.386 15.1179C273.419 14.2461 274.027 13.6539 274.932 13.6046C275.393 13.5881 275.919 13.5717 276.429 13.5717C277.038 13.5717 277.646 13.5881 278.14 13.6046C278.962 13.6375 279.719 14.1968 279.752 15.0521C279.768 15.6608 279.801 16.549 279.801 17.3057C279.801 17.6182 279.801 17.8979 279.785 18.1446ZM268.616 19.4112V19.3948L268.665 13.621C268.648 13.621 266.839 13.8678 266.642 13.8678C266.247 13.8678 266.033 13.5223 266.033 13.1933C266.033 12.8973 266.214 12.6012 266.559 12.5847C266.773 12.5683 267.036 12.5518 267.332 12.5354C267.645 12.1899 267.99 11.7622 268.319 11.2852C267.76 10.7095 266.855 10.0351 266.461 9.77187C266.247 9.62382 266.148 9.42643 266.148 9.22903C266.148 8.90005 266.411 8.57106 266.806 8.57106C266.921 8.57106 267.036 8.60396 267.168 8.66975L267.267 8.7191C267.727 7.97888 268.303 6.77807 268.517 5.8898C268.599 5.56081 268.879 5.41277 269.175 5.41277C269.57 5.41277 269.997 5.67596 269.997 6.10364C269.997 6.64647 268.879 8.6862 268.336 9.49223C268.599 9.70607 268.846 9.93636 269.076 10.1502C269.586 9.31128 270.047 8.43946 270.326 7.76503C270.441 7.46894 270.688 7.3538 270.935 7.3538C271.346 7.3538 271.757 7.64989 271.757 8.07757C271.757 8.50526 270.54 10.5614 269.142 12.3544C269.685 12.2886 270.195 12.2393 270.573 12.1899C270.211 11.68 270.195 11.6307 270.195 11.4826C270.195 11.1701 270.507 10.9398 270.836 10.9398C271.544 10.9398 272.448 12.6505 272.448 13.2591C272.448 13.7362 272.086 14.0652 271.724 14.0652C271.478 14.0652 271.247 13.9007 271.149 13.5388C271.116 13.4401 271.099 13.3249 271.066 13.2262C270.836 13.2756 270.507 13.3249 270.129 13.3907L270.162 19.3948C270.162 19.9047 269.767 20.1679 269.372 20.1679C268.994 20.1679 268.616 19.9212 268.616 19.4112ZM271.988 17.9966C271.692 17.9966 271.412 17.8156 271.346 17.388C271.231 16.6971 270.869 15.8417 270.589 15.3647C270.507 15.2331 270.474 15.1179 270.474 15.0028C270.474 14.6738 270.77 14.46 271.099 14.46C271.297 14.46 271.511 14.5422 271.675 14.7231C272.201 15.3153 272.777 16.7793 272.777 17.1577C272.777 17.6676 272.366 17.9966 271.988 17.9966ZM267.168 18.6546C266.987 18.9342 266.707 19.0658 266.444 19.0658C266.066 19.0658 265.72 18.8026 265.72 18.4243C265.72 18.2762 265.77 18.1282 265.868 17.9637C266.329 17.207 266.724 16.0556 266.839 15.1015C266.888 14.7067 267.184 14.5258 267.497 14.5258C267.875 14.5258 268.254 14.7889 268.254 15.2495C268.254 15.8417 267.744 17.7663 267.168 18.6546ZM278.304 17.3057C278.304 16.6971 278.288 15.8746 278.271 15.414C278.238 14.8547 277.992 14.8547 276.528 14.8547C276.133 14.8547 275.722 14.8547 275.426 14.8712C274.8 14.8876 274.784 15.1508 274.784 17.1577C274.784 18.4078 274.817 18.4078 276.577 18.4078C278.09 18.4078 278.304 18.3914 278.304 17.3057ZM296.958 11.3675C296.958 11.828 296.547 12.3051 296.004 12.3051C294.984 12.3051 291.497 9.11389 290.247 7.68279C290.098 7.50184 289.95 7.3867 289.802 7.3867C289.687 7.3867 289.539 7.48539 289.391 7.68279C288.075 9.37708 285.887 11.4168 284.16 12.5518C283.913 12.7163 283.683 12.7821 283.469 12.7821C282.959 12.7821 282.598 12.3709 282.598 11.9432C282.598 11.6636 282.746 11.3675 283.107 11.1865C284.983 10.216 287.039 8.22562 288.256 6.61357C288.634 6.12009 289.144 5.87335 289.687 5.87335C290.214 5.87335 290.773 6.10364 291.233 6.61357C292.813 8.30787 294.589 9.68962 296.514 10.6766C296.826 10.8411 296.958 11.1043 296.958 11.3675ZM291.151 19.3948V11.1701C291.151 10.6601 291.562 10.4134 291.99 10.4134C292.418 10.4134 292.846 10.6766 292.846 11.1701V19.3948C292.846 19.9047 292.418 20.1679 292.007 20.1679C291.579 20.1679 291.151 19.9047 291.151 19.3948ZM286.891 11.3017V11.2852C286.891 10.7917 287.286 10.545 287.697 10.545C288.125 10.545 288.552 10.8082 288.569 11.3017C288.569 11.3839 288.569 11.5155 288.569 11.68C288.569 12.3544 288.552 13.5223 288.536 13.9171C288.437 19.5428 283.7 20.2831 283.469 20.2831C282.894 20.2831 282.614 19.8554 282.614 19.4441C282.614 19.1151 282.795 18.7862 283.173 18.7039C286.233 18.0459 286.907 15.595 286.907 13.8513C286.907 13.3249 286.891 11.828 286.891 11.3017ZM301.054 15.7924C300.692 15.7924 300.346 15.5456 300.346 15.0357C300.346 15.0192 300.346 15.0192 300.346 15.0028C300.346 14.8876 300.346 14.7396 300.346 14.5916C300.346 13.144 300.215 10.1667 300.133 7.63344C300.133 7.61699 300.133 7.60054 300.133 7.58409C300.133 6.97546 300.593 6.67937 301.07 6.67937C301.547 6.67937 302.041 6.99191 302.041 7.63344C302.041 9.55802 301.827 13.1276 301.827 14.6409C301.827 14.7396 301.827 14.8383 301.827 14.9205C301.843 15.6443 301.268 15.7924 301.054 15.7924ZM302.238 17.9966C302.238 18.8026 301.547 19.1151 301.087 19.1151C300.495 19.1151 299.935 18.6217 299.935 17.9966C299.935 17.4044 300.379 16.8287 301.087 16.8287C301.728 16.8287 302.238 17.2399 302.238 17.9966Z" fill="#040000"/>
<path d="M10.0811 129.57C7.17919 127.891 4.92993 125.563 3.33339 122.587C1.73684 119.61 0.933594 116.221 0.933594 112.4V109.537L12.3102 108.28V111.257C12.3102 114.161 12.983 116.448 14.3184 118.127C15.6539 119.806 17.5115 120.65 19.9013 120.65C22.2911 120.65 24.0483 119.96 25.424 118.59C26.7996 117.221 27.4925 115.346 27.4925 112.977C27.4925 110.381 26.7695 107.899 25.3135 105.54C23.8676 103.182 20.9758 99.896 16.6681 95.6937C10.8643 90.0493 6.90806 85.3527 4.78937 81.6138C2.67068 77.8749 1.60634 73.7962 1.60634 69.3672C1.60634 63.3418 3.20285 58.5523 6.40599 54.9988C9.59908 51.4453 13.9972 49.6738 19.57 49.6738C25.1429 49.6738 29.5409 51.466 32.734 55.0503C35.9271 58.6347 37.5336 63.4447 37.5336 69.4702V71.5302L26.157 72.7867V70.5002C26.157 67.4514 25.5947 65.1236 24.4801 63.5168C23.3655 61.9203 21.759 61.117 19.6805 61.117C17.6019 61.117 15.9953 61.7659 14.8807 63.0637C13.7662 64.3615 13.2039 66.2669 13.2039 68.7904C13.2039 71.3138 13.947 73.7344 15.4331 76.0621C16.9191 78.3899 19.7809 81.727 24.0283 86.0736C29.8321 92.0269 33.7883 96.8165 35.907 100.442C38.0256 104.068 39.0901 108.054 39.0901 112.4C39.0901 116.221 38.2867 119.61 36.6902 122.587C35.0937 125.563 32.8444 127.891 29.9425 129.57C27.0406 131.249 23.7271 132.083 20.0118 132.083C16.2966 132.083 12.983 131.239 10.0811 129.57Z" fill="#262626"/>
<path d="M45.0039 50.8262H82.7185V62.2693H69.7755V130.939H57.947V62.2693H45.0039V50.8262Z" fill="#262626"/>
<path d="M96.5568 126.881C93.1328 123.409 91.4258 118.888 91.4258 113.316V50.8262H103.254V113.316C103.254 115.602 103.867 117.394 105.092 118.692C106.317 119.99 107.903 120.639 109.831 120.639C111.759 120.639 113.346 119.99 114.571 118.692C115.796 117.394 116.408 115.602 116.408 113.316V50.8262H128.016V113.316C128.016 118.888 126.339 123.409 122.995 126.881C119.652 130.352 115.253 132.092 109.831 132.092C104.409 132.092 99.9708 130.362 96.5568 126.881Z" fill="#262626"/>
<path d="M140.516 50.8262H159.042C164.695 50.8262 169.193 52.5668 172.547 56.0378C175.891 59.5089 177.568 64.1439 177.568 69.9427V111.832C177.568 117.631 175.891 122.266 172.547 125.737C169.203 129.208 164.695 130.939 159.042 130.939H140.516V50.8262ZM158.479 119.496C160.779 119.496 162.566 118.847 163.831 117.549C165.096 116.251 165.729 114.418 165.729 112.059V69.7161C165.729 67.3575 165.096 65.5241 163.831 64.2263C162.566 62.9285 160.779 62.2796 158.479 62.2796H152.344V119.506H158.479V119.496Z" fill="#262626"/>
<path d="M189.387 50.8262H222.974V62.2693H201.215V84.5892H218.506V96.0324H201.215V119.496H222.974V130.939H189.387V50.8262Z" fill="#262626"/>
<path d="M232.893 50.8262H245.946L261.008 104.622V50.8262H272.616V130.939H260.114L244.49 79.6659V130.939H232.883V50.8262H232.893Z" fill="#262626"/>
<path d="M281.762 50.8262H319.476V62.2693H306.533V130.939H294.705V62.2693H281.762V50.8262Z" fill="#262626"/>
<path d="M328.293 50.8262H340.342L338.003 74.8661H330.753L328.293 50.8262Z" fill="#262626"/>
<path d="M358.417 129.57C355.515 127.891 353.266 125.563 351.669 122.587C350.073 119.61 349.27 116.221 349.27 112.4V109.537L360.646 108.28V111.257C360.646 114.161 361.319 116.448 362.654 118.127C363.99 119.806 365.848 120.65 368.227 120.65C370.607 120.65 372.374 119.96 373.75 118.59C375.126 117.221 375.808 115.346 375.808 112.977C375.808 110.381 375.085 107.899 373.629 105.54C372.173 103.182 369.292 99.896 364.984 95.6937C359.18 90.0493 355.224 85.3527 353.105 81.6138C350.987 77.8749 349.922 73.7962 349.922 69.3672C349.922 63.3418 351.519 58.5523 354.722 54.9988C357.925 51.4453 362.313 49.6738 367.886 49.6738C373.459 49.6738 377.857 51.466 381.05 55.0503C384.243 58.6347 385.85 63.4447 385.85 69.4702V71.5302L374.473 72.7867V70.5002C374.473 67.4514 373.921 65.1236 372.796 63.5168C371.681 61.9203 370.075 61.117 367.996 61.117C365.918 61.117 364.311 61.7659 363.197 63.0637C362.082 64.3615 361.52 66.2669 361.52 68.7904C361.52 71.3138 362.263 73.7344 363.749 76.0621C365.235 78.3899 368.097 81.727 372.334 86.0736C378.138 92.0269 382.094 96.8165 384.223 100.442C386.342 104.068 387.406 108.054 387.406 112.4C387.406 116.221 386.603 119.61 385.006 122.587C383.409 125.563 381.16 127.891 378.258 129.57C375.356 131.249 372.043 132.083 368.328 132.083C364.612 132.083 361.299 131.239 358.397 129.57H358.417Z" fill="#262626"/>
<path d="M79.4572 158.93L54.9968 310.338H25.0541L0.59375 158.93H23.3671L40.2364 277.893L57.1055 158.93H79.4572Z" fill="#F4C058"/>
<path d="M104.547 302.439C97.9403 295.734 94.6367 286.907 94.6367 275.948V193.322C94.6367 182.363 97.9403 173.536 104.547 166.82C111.154 160.115 119.8 156.768 130.484 156.768C141.168 156.768 149.813 160.115 156.42 166.82C163.027 173.526 166.331 182.363 166.331 193.322V275.948C166.331 286.907 163.027 295.734 156.42 302.439C149.813 309.144 141.168 312.502 130.484 312.502C119.8 312.502 111.154 309.144 104.547 302.439ZM140.394 286.979C142.784 284.383 143.979 280.706 143.979 275.948V193.322C143.979 188.563 142.784 184.886 140.394 182.291C138.005 179.695 134.701 178.397 130.484 178.397C126.266 178.397 122.963 179.695 120.573 182.291C118.183 184.886 116.988 188.563 116.988 193.322V275.948C116.988 280.706 118.183 284.383 120.573 286.979C122.963 289.574 126.266 290.872 130.484 290.872C134.701 290.872 138.005 289.574 140.394 286.979Z" fill="#F4C058"/>
<path d="M188.898 158.93H211.25V310.338H188.898V158.93Z" fill="#F4C058"/>
<path d="M243.512 302.552C237.046 295.919 233.812 287.267 233.812 276.596V192.673C233.812 182.002 237.046 173.35 243.512 166.717C249.979 160.084 258.413 156.768 268.816 156.768C279.219 156.768 287.653 160.084 294.12 166.717C300.586 173.35 303.82 182.002 303.82 192.673V210.409H281.89V192.673C281.89 188.347 280.695 184.886 278.305 182.291C275.915 179.695 272.822 178.397 269.027 178.397C265.231 178.397 262.139 179.695 259.749 182.291C257.359 184.886 256.164 188.347 256.164 192.673V276.596C256.164 280.922 257.359 284.383 259.749 286.979C262.139 289.574 265.231 290.872 269.027 290.872C272.822 290.872 275.915 289.574 278.305 286.979C280.695 284.383 281.89 280.922 281.89 276.596V254.967H303.82V276.596C303.82 287.267 300.586 295.919 294.12 302.552C287.653 309.185 279.219 312.502 268.816 312.502C258.413 312.502 249.979 309.185 243.512 302.552Z" fill="#F4C058"/>
<path d="M324.27 158.93H387.74V180.559H346.621V222.737H379.305V244.367H346.621V288.708H387.74V310.338H324.27V158.93Z" fill="#F4C058"/>
</svg>
