<svg preserveAspectRatio="none" width="100%" height="100%" overflow="visible" style="display: block;" viewBox="0 0 386.474 82.4187" fill="none" xmlns="http://www.w3.org/2000/svg">
<g id="Group">
<path id="Vector" d="M9.1475 79.8962C6.2456 78.2173 3.99634 75.8896 2.39979 72.913C0.803247 69.9363 0 66.5476 0 62.7263V59.8629L11.3766 58.6064V61.5831C11.3766 64.4876 12.0494 66.7741 13.3848 68.453C14.7203 70.1319 16.5779 70.9766 18.9677 70.9766C21.3575 70.9766 23.1147 70.2865 24.4904 68.9166C25.866 67.5467 26.5589 65.6721 26.5589 63.3031C26.5589 60.7075 25.8359 58.2253 24.3799 55.8666C22.934 53.5079 20.0422 50.2222 15.7345 46.0198C9.9307 40.3755 5.97446 35.6788 3.85578 31.94C1.73709 28.2011 0.672742 24.1223 0.672742 19.6934C0.672742 13.6679 2.26926 8.87842 5.47239 5.32496C8.66548 1.7715 13.0636 0 18.6364 0C24.2093 0 28.6073 1.79215 31.8004 5.37651C34.9935 8.96087 36.6 13.7709 36.6 19.7964V21.8563L25.2234 23.1129V20.8263C25.2234 17.7776 24.6611 15.4498 23.5465 13.843C22.4319 12.2465 20.8254 11.4432 18.7469 11.4432C16.6683 11.4432 15.0617 12.0921 13.9471 13.3899C12.8326 14.6876 12.2703 16.5931 12.2703 19.1165C12.2703 21.64 13.0134 24.0605 14.4995 26.3883C15.9856 28.7161 18.8473 32.0532 23.0947 36.3998C28.8985 42.3531 32.8547 47.1426 34.9734 50.7682C37.0921 54.3938 38.1565 58.3798 38.1565 62.7263C38.1565 66.5476 37.3532 69.9363 35.7566 72.913C34.1601 75.8896 31.9108 78.2173 29.0089 79.8962C26.107 81.5751 22.7935 82.4094 19.0782 82.4094C15.363 82.4094 12.0494 81.5648 9.1475 79.8962Z" fill="var(--fill-0, #262626)"/>
<path id="Vector_2" d="M44.0713 1.15258H81.786V12.5957H68.8429V81.2651H57.0144V12.5957H44.0713V1.15258Z" fill="var(--fill-0, #262626)"/>
<path id="Vector_3" d="M95.623 77.2069C92.199 73.7359 90.492 69.2143 90.492 63.642V1.15258H102.32V63.642C102.32 65.9286 102.933 67.7208 104.158 69.0186C105.383 70.3163 106.97 70.9653 108.897 70.9653C110.825 70.9653 112.412 70.3163 113.637 69.0186C114.862 67.7208 115.474 65.9286 115.474 63.642V1.15258H127.082V63.642C127.082 69.2143 125.405 73.7359 122.061 77.2069C118.718 80.678 114.32 82.4187 108.897 82.4187C103.475 82.4187 99.037 80.6883 95.623 77.2069Z" fill="var(--fill-0, #262626)"/>
<path id="Vector_4" d="M139.583 1.15258H158.109C163.762 1.15258 168.261 2.8932 171.615 6.36426C174.958 9.83532 176.635 14.4703 176.635 20.2691V62.1588C176.635 67.9576 174.958 72.5926 171.615 76.0636C168.271 79.5347 163.762 81.2651 158.109 81.2651H139.583V1.15258ZM157.547 69.822C159.846 69.822 161.634 69.1731 162.899 67.8753C164.164 66.5775 164.797 64.744 164.797 62.3854V20.0425C164.797 17.6839 164.164 15.8505 162.899 14.5527C161.634 13.255 159.846 12.6061 157.547 12.6061H151.412V69.8322H157.547V69.822Z" fill="var(--fill-0, #262626)"/>
<path id="Vector_5" d="M188.454 1.15258H222.041V12.5957H200.282V34.9156H217.573V46.3588H200.282V69.822H222.041V81.2651H188.454V1.15258Z" fill="var(--fill-0, #262626)"/>
<path id="Vector_6" d="M231.961 1.15258H245.014L260.076 54.9489V1.15258H271.684V81.2651H259.182L243.558 29.9923V81.2651H231.951V1.15258H231.961Z" fill="var(--fill-0, #262626)"/>
<path id="Vector_7" d="M280.829 1.15258H318.544V12.5957H305.601V81.2651H293.772V12.5957H280.829V1.15258Z" fill="var(--fill-0, #262626)"/>
<path id="Vector_8" d="M327.362 1.15258H339.412L337.072 25.1925H329.822L327.362 1.15258Z" fill="var(--fill-0, #262626)"/>
<path id="Vector_9" d="M357.485 79.8962C354.583 78.2173 352.334 75.8896 350.738 72.913C349.141 69.9363 348.338 66.5476 348.338 62.7263V59.8629L359.714 58.6064V61.5831C359.714 64.4876 360.387 66.7741 361.723 68.453C363.058 70.1319 364.916 70.9766 367.295 70.9766C369.675 70.9766 371.442 70.2865 372.818 68.9166C374.194 67.5467 374.877 65.6721 374.877 63.3031C374.877 60.7075 374.154 58.2253 372.698 55.8666C371.242 53.5079 368.36 50.2222 364.052 46.0198C358.248 40.3755 354.292 35.6788 352.173 31.94C350.055 28.2011 348.99 24.1223 348.99 19.6934C348.99 13.6679 350.587 8.87842 353.79 5.32496C356.993 1.7715 361.381 0 366.954 0C372.527 0 376.925 1.79215 380.118 5.37651C383.311 8.96087 384.918 13.7709 384.918 19.7964V21.8563L373.541 23.1129V20.8263C373.541 17.7776 372.989 15.4498 371.864 13.843C370.75 12.2465 369.143 11.4432 367.064 11.4432C364.986 11.4432 363.379 12.0921 362.265 13.3899C361.15 14.6876 360.588 16.5931 360.588 19.1165C360.588 21.64 361.331 24.0605 362.817 26.3883C364.303 28.7161 367.165 32.0532 371.402 36.3998C377.206 42.3531 381.162 47.1426 383.291 50.7682C385.41 54.3938 386.474 58.3798 386.474 62.7263C386.474 66.5476 385.671 69.9363 384.074 72.913C382.478 75.8896 380.228 78.2173 377.327 79.8962C374.425 81.5751 371.111 82.4094 367.396 82.4094C363.681 82.4094 360.367 81.5648 357.465 79.8962H357.485Z" fill="var(--fill-0, #262626)"/>
</g>
</svg>
