<svg preserveAspectRatio="none" width="100%" height="100%" overflow="visible" style="display: block;" viewBox="0 0 44.7996 47.0684" fill="none" xmlns="http://www.w3.org/2000/svg">
<path id="Vector" d="M25.9626 47.0581C24.1853 47.0581 22.0566 46.4401 20.0283 45.2557C17.6786 43.8755 14.3349 42.2172 11.1117 40.6207C1.74327 35.9652 -0.395509 34.7189 0.0563442 33.1533C0.206962 32.628 0.739208 32.3293 1.25131 32.4941C1.62283 32.6074 1.88382 32.937 1.92399 33.3181C2.76745 34.2966 8.05925 36.9231 11.9452 38.8492C15.1985 40.4662 18.5724 42.1349 20.9822 43.546C23.9845 45.3072 26.8864 45.4514 27.8604 44.576C28.483 44.0198 28.2419 42.9485 27.9206 42.1554C27.78 41.8052 27.8504 41.4138 28.0913 41.1357C28.3323 40.8576 28.7139 40.7443 29.0653 40.8473C31.7764 41.6301 33.2124 41.1049 33.624 40.4148C34.0759 39.6629 33.594 38.3341 32.4091 37.0157C32.1079 36.6861 32.0676 36.1815 32.3186 35.8107C32.5596 35.4296 33.0215 35.2751 33.4432 35.4296C36.1644 36.4184 38.2831 36.1299 38.986 34.6776C39.5784 33.4417 39.0362 31.3611 36.8673 29.9088C36.4556 29.6307 36.3151 29.0848 36.536 28.6419C36.7569 28.1887 37.279 27.9931 37.7308 28.1682C38.0923 28.3021 41.3256 29.4144 42.8017 26.2009C42.9423 25.8919 42.9021 25.4078 42.6812 24.8516C41.8277 22.6681 38.3836 19.4751 32.64 17.2503C32.2585 17.1061 32.0074 16.7147 32.0175 16.3027C32.0275 15.8804 32.3086 15.5199 32.7002 15.3963C37.2489 13.9852 40.8236 9.19575 41.3156 5.61139C41.4562 4.5711 41.3959 3.17035 40.2813 2.42876C38.8254 1.47087 38.2329 1.9858 36.3854 3.90158C34.7788 5.57016 32.5697 7.86709 28.6636 8.97948C25.5308 9.86527 22.7394 9.39146 20.2793 8.96917C17.9397 8.56747 15.9214 8.22764 14.0136 9.04134C13.5316 9.24733 12.9593 9.01043 12.7585 8.51603C12.5576 8.01134 12.7886 7.43454 13.2706 7.22855C15.6804 6.19856 18.0703 6.60019 20.5906 7.03278C22.9704 7.44478 25.4204 7.85683 28.1416 7.09464C31.5656 6.12645 33.4734 4.13852 35.0097 2.53174C36.7167 0.749855 38.484 -1.08348 41.3156 0.780805C42.8519 1.79019 43.5247 3.61323 43.2134 5.88951C42.7214 9.46357 39.729 14.0573 35.4716 16.3439C39.96 18.4657 43.3841 21.4011 44.4585 24.1203C44.8903 25.2018 44.9103 26.2215 44.5287 27.0455C43.4744 29.3424 41.7172 30.1973 40.0804 30.3827C41.195 32.0204 41.4763 33.9361 40.7031 35.5429C39.9802 37.0467 38.2229 38.2826 35.301 37.9015C35.8633 39.1993 35.8632 40.4354 35.2608 41.4447C34.4073 42.8764 32.5497 43.4532 30.1297 43.0927C30.3004 44.6892 29.6277 45.6162 29.1156 46.0694C28.3725 46.7389 27.2579 47.0684 25.9626 47.0684V47.0581Z" fill="var(--fill-0, #4C4B4C)"/>
</svg>
