<svg preserveAspectRatio="none" width="100%" height="100%" overflow="visible" style="display: block;" viewBox="0 0 104.357 33.0832" fill="none" xmlns="http://www.w3.org/2000/svg">
<g id="Group">
<path id="Vector" d="M29.0491 10.517L23.406 10.4036C22.7935 14.8222 20.9258 19.0967 18.1645 22.6708C21.1467 25.4724 25.0226 27.4191 29.6215 28.2328C30.6959 28.4181 31.1678 29.1906 31.1678 29.9631C31.1678 31.0651 30.3444 32.2085 29.009 32.2085C28.7579 32.2085 21.9701 31.436 15.9052 25.2458C9.36838 31.9098 2.21911 32.6822 2.07853 32.6822C0.783219 32.6822 0 31.6523 0 30.6223C0 29.8498 0.502044 29.0774 1.61661 28.892C6.32593 28.0783 10.4127 25.7607 13.5355 22.5163C12.0594 20.5593 10.8445 18.4685 9.91063 16.254C7.17944 18.8289 6.2456 18.9113 5.88411 18.9113C4.83983 18.9113 4.01647 18.0667 4.01647 17.1088C4.01647 16.4084 4.40809 15.7081 5.41221 15.1519C7.20958 14.1529 8.92661 12.4946 9.60941 11.2895C9.86044 10.8466 10.3324 10.6303 10.7943 10.6303C11.7281 10.6303 12.7322 11.3719 12.7322 12.2885C12.7322 12.4739 12.7322 12.6181 12.3707 13.3596C13.1238 15.7492 14.1982 17.9637 15.6743 19.9207C17.7227 17.047 19.0883 13.7717 19.5903 10.3419C18.5461 10.3419 17.5821 10.3006 16.578 10.3006C13.0636 10.3006 9.28807 10.414 2.17892 10.517H2.13878C1.0242 10.517 0.481957 9.70319 0.481957 8.8586C0.481957 8.01401 1.09446 7.05612 2.16887 7.05612L13.8066 7.09736L13.7664 1.97835C13.7664 0.835059 14.7404 0.28915 15.6743 0.28915C16.6081 0.28915 17.5821 0.845359 17.5821 1.97835L17.5419 7.09736L29.0391 7.05612C30.1135 7.05612 30.6557 7.94201 30.6557 8.8278C30.6557 9.71359 30.1536 10.5272 29.0792 10.5272H29.0391L29.0491 10.517Z" fill="var(--fill-0, #236242)"/>
<path id="Vector_2" d="M56.0916 23.1438C56.1619 23.6588 56.2021 24.2151 56.2021 24.761C56.2021 28.0775 54.6959 33.0832 48.4403 33.0832C45.6388 33.0832 44.1326 32.3107 44.1326 30.8687C44.1326 29.952 44.8154 29.1384 45.8195 29.1384C46.0003 29.1384 46.181 29.1384 46.3919 29.2105C47.1851 29.468 48.0085 29.6122 48.7616 29.6122C52.7881 29.6122 52.7881 24.6786 52.7881 24.3799C52.7881 23.937 52.7479 23.5353 52.6776 23.1233L37.4452 23.1954C36.3306 23.1954 35.7984 22.3817 35.7984 21.5783C35.7984 20.775 36.3708 19.8788 37.4151 19.8788L50.6995 19.9509C50.2678 19.6522 49.8059 19.3638 49.2637 19.1784C48.5106 18.9209 48.1892 18.4369 48.1892 17.9631C48.1892 17.1906 49.0126 16.4181 50.0971 16.4181C50.8903 16.4181 51.6434 16.8198 52.2158 17.1597C53.1496 16.5314 55.0574 15.1718 55.0574 14.7289C55.0574 14.5847 54.9168 14.5125 54.6658 14.5125C54.2742 14.4713 53.5914 14.4714 52.758 14.4714C50.4585 14.4714 46.9742 14.5434 44.4639 14.6567H44.3936C43.3192 14.6567 42.777 13.8842 42.777 13.1117C42.777 12.3392 43.3193 11.5977 44.4339 11.5668C45.9802 11.4947 47.9181 11.4947 49.826 11.4947C52.4467 11.4947 55.0674 11.5359 56.7242 11.5668C58.7726 11.608 59.6362 12.6689 59.6362 13.8122C59.6362 15.6147 57.7283 17.1287 54.5051 19.1887C54.6859 19.4462 54.8666 19.7037 55.0072 19.9612L65.7111 19.8479C66.7554 19.8479 67.2876 20.6925 67.2876 21.5474C67.2876 22.4023 66.7855 23.1644 65.7412 23.1644L56.1218 23.1233L56.0916 23.1438ZM62.016 11.3608C62.016 9.81582 61.2227 9.55829 59.7567 9.51709C56.8849 9.47589 53.6517 9.44504 50.5289 9.44504C47.9784 9.44504 45.4681 9.48619 43.239 9.51709C41.2608 9.55829 40.9395 10.0733 40.829 11.3608V13.5341C40.829 14.5641 39.9354 15.1512 39.0015 15.1512C38.1782 15.1512 37.3147 14.6361 37.2745 13.4928C37.2745 13.019 37.2343 12.4629 37.2343 11.8758C37.2343 11.2475 37.2745 10.6192 37.2745 10.0733C37.3448 8.34294 38.6802 6.5713 41.4717 6.5404L44.484 6.49929C44.3033 6.38599 44.1627 6.20059 44.0221 5.9843C43.269 4.69681 42.4758 4.21263 41.5118 3.32684C41.1905 3.02815 41.05 2.69862 41.05 2.36902C41.05 1.55533 41.9437 0.782802 42.8775 0.782802C44.2431 0.782802 47.0445 3.58434 47.0445 4.87183C47.0445 5.53102 46.5827 6.15938 46.0003 6.48898C49.1632 6.44778 52.286 6.44774 55.449 6.44774C56.4933 5.23235 57.4271 3.10031 57.9995 1.58622C58.3208 0.741632 58.9735 0.412021 59.6161 0.412021C60.6202 0.412021 61.6645 1.18451 61.6645 2.2145C61.6645 2.91489 60.5198 4.7174 59.0437 6.48898C59.8671 6.48898 60.7307 6.53009 61.554 6.53009C63.6727 6.57129 65.6509 7.74551 65.7212 10.0321C65.7613 10.5471 65.7613 11.3196 65.7613 12.02C65.7613 12.535 65.7613 13.019 65.7212 13.3795C65.6509 14.4507 64.717 14.9967 63.8133 14.9967C62.9096 14.9967 62.016 14.4817 62.016 13.4517V11.3505V11.3608ZM51.8543 6.31384C51.3522 6.31384 50.8803 6.05635 50.6292 5.42806C50.1272 4.06848 49.3339 3.25483 48.5106 2.25574C48.2997 1.99824 48.1892 1.69951 48.1892 1.44201C48.1892 0.669518 49.0829 0 50.0167 0C51.8442 0 53.8223 3.61534 53.8223 4.45993C53.8223 5.45902 52.7781 6.30353 51.8442 6.30353L51.8543 6.31384Z" fill="var(--fill-0, #236242)"/>
<path id="Vector_3" d="M81.5839 31.3217C81.5839 32.3517 80.7203 32.8667 79.8267 32.8667C78.933 32.8667 78.0695 32.3517 78.0695 31.3217V31.2805L78.21 19.5695C76.985 21.5574 75.5491 23.401 74.2638 24.843C73.832 25.2859 73.3702 25.5022 72.8982 25.5022C71.9242 25.5022 71.0707 24.6577 71.0707 23.7719C71.0707 23.329 71.2515 22.9272 71.6833 22.5152C73.6212 20.7437 76.5331 17.1387 78.2502 13.75L78.21 12.9775L74.0128 13.091H73.9726C72.8982 13.091 72.3962 12.3184 72.3962 11.5047C72.3962 10.691 72.9384 9.88758 74.0128 9.88758H78.1799L78.1096 6.2415C77.4268 6.3548 75.0169 6.79761 74.6253 6.79761C73.5509 6.79761 72.9786 5.95303 72.9786 5.13934C72.9786 4.40805 73.4405 3.66654 74.4145 3.55325C77.7883 3.22365 80.2283 2.63644 83.321 1.37986C83.5318 1.30776 83.7126 1.26657 83.8933 1.26657C84.8272 1.26657 85.5099 2.08028 85.5099 2.95577C85.5099 4.24326 84.1443 4.72741 81.5638 5.4587C81.5236 6.23119 81.5236 7.88939 81.4935 9.87727H85.1585C86.2329 9.87727 86.7751 10.691 86.7751 11.4944C86.7751 12.2978 86.2329 13.0806 85.1987 13.0806H85.1585L81.4232 13.0085V14.811C81.5637 14.7698 81.6742 14.7697 81.7847 14.7697C83.1101 14.7697 86.0622 17.4271 86.2329 17.6434C86.5944 18.0451 86.735 18.4571 86.735 18.9C86.735 19.8167 85.9819 20.6717 85.1585 20.6717C84.7669 20.6717 84.3653 20.4863 84.0138 20.0434C83.4013 19.2297 82.3269 18.3129 81.4332 17.6537C81.4734 23.2157 81.614 31.2805 81.614 31.2805V31.3217H81.5839ZM95.4808 22.9685L86.8956 25.4405C86.6848 25.5126 86.504 25.5126 86.3233 25.5126C85.3493 25.5126 84.8171 24.74 84.8171 23.9263C84.8171 23.2671 85.2087 22.5977 86.0422 22.3402L95.4909 19.6107L95.4206 2.15235C95.4206 1.08116 96.2439 0.566253 97.1075 0.566253C97.971 0.566253 98.8647 1.12236 98.8647 2.15235L98.7945 18.694L102.309 17.664C102.49 17.6228 102.67 17.592 102.811 17.592C103.745 17.592 104.357 18.4366 104.357 19.2503C104.357 19.8786 103.996 20.5068 103.213 20.7231L98.7945 21.9796L98.8647 31.4453C98.8647 32.4032 98.0012 32.8873 97.1376 32.8873C96.2741 32.8873 95.4106 32.4135 95.4106 31.4453L95.4808 22.9685ZM90.7414 17.3653C89.6971 16.2632 88.2311 15.2642 87.4379 14.7492C86.9358 14.4505 86.7249 14.0179 86.7249 13.6059C86.7249 12.8747 87.4379 12.133 88.4821 12.133C89.7373 12.133 92.3279 14.0488 92.9705 14.708C93.4023 15.1509 93.5831 15.6247 93.5831 16.1087C93.5831 17.1078 92.83 17.9525 91.9363 17.9525C91.5447 17.9525 91.1431 17.767 90.7515 17.3653H90.7414ZM91.0225 9.55803C90.1289 8.34265 88.7633 7.16844 87.9299 6.57104C87.5383 6.27235 87.3575 5.94282 87.3575 5.61322C87.3575 4.84073 88.2211 4.06824 89.1549 4.06824C90.0887 4.06824 93.9345 6.57108 93.9345 8.41476C93.9345 9.44475 93.1412 10.2893 92.2777 10.2893C91.8459 10.2893 91.4141 10.073 91.0225 9.54772V9.55803Z" fill="var(--fill-0, #236242)"/>
</g>
</svg>
