<svg preserveAspectRatio="none" width="100%" height="100%" overflow="visible" style="display: block;" viewBox="0 0 221.277 261.684" fill="none" xmlns="http://www.w3.org/2000/svg">
<path id="Vector" d="M110.634 261.684C110.423 261.684 110.212 261.622 110.021 261.509L0.612528 196.723C0.230963 196.496 0 196.084 0 195.631V66.048C0 65.5948 0.241004 65.1829 0.612528 64.9563L110.021 0.169948C110.403 -0.0566494 110.875 -0.0566494 111.256 0.169948L220.665 64.9563C221.046 65.1829 221.277 65.5948 221.277 66.048V195.631C221.277 196.084 221.036 196.496 220.665 196.723L111.256 261.509C111.065 261.622 110.855 261.684 110.644 261.684H110.634ZM2.4601 194.9L110.634 258.965L218.807 194.9V66.7792L110.634 2.71399L2.4601 66.7792V194.9Z" fill="var(--fill-0, #236242)"/>
</svg>
