<svg preserveAspectRatio="none" width="100%" height="100%" overflow="visible" style="display: block;" viewBox="0 0 85.5049 90.107" fill="none" xmlns="http://www.w3.org/2000/svg">
<g id="Group">
<path id="Vector" d="M59.8526 54.5926L23.0115 62.2144L19.3264 45.8994L56.1775 38.2774L59.8526 54.5926Z" fill="var(--fill-0, #F4C058)"/>
<g id="Group_2">
<path id="Vector_2" d="M14.9274 43.2329L53.2043 35.3225L57.1807 52.9972L18.9037 60.9074L14.9274 43.2329ZM16.6745 44.304L20.0384 59.2388L24.6272 58.2913L23.8139 57.5909L34.9194 45.7975L39.1969 48.0224L43.7857 42.6354L50.2824 46.0963L49.5694 47.3219L44.1472 44.4276L40.5123 48.7021L48.1134 52.6573L47.6114 53.5431L55.4736 51.9156L52.1099 36.9808L16.6946 44.2938L16.6745 44.304ZM25.2397 58.1677L46.9789 53.677L35.2307 47.5588L25.2397 58.1677Z" fill="var(--fill-0, #3C3D3D)"/>
<path id="Vector_3" d="M35.6337 32.7068L51.5591 29.421L51.8704 30.7909L35.935 34.0766L35.6337 32.7068Z" fill="var(--fill-0, #3C3D3D)"/>
<path id="Vector_4" d="M13.6704 37.2386L30.3488 33.7985L30.6601 35.1683L13.9817 38.6085L13.6704 37.2386Z" fill="var(--fill-0, #3C3D3D)"/>
<path id="Vector_5" d="M20.0076 65.3656L58.0436 57.5068L58.3448 58.8766L20.3189 66.7354L20.0076 65.3656Z" fill="var(--fill-0, #3C3D3D)"/>
<path id="Vector_6" d="M21.4252 71.6385L59.4512 63.7797L59.7624 65.1497L21.7365 73.0084L21.4252 71.6385Z" fill="var(--fill-0, #3C3D3D)"/>
<path id="Vector_7" d="M34.2 26.3618L50.1354 23.0658L50.4366 24.4357L34.5113 27.7316L34.2 26.3618Z" fill="var(--fill-0, #3C3D3D)"/>
<path id="Vector_8" d="M12.2447 30.8935L28.9231 27.4532L29.2243 28.8232L12.556 32.2633L12.2447 30.8935Z" fill="var(--fill-0, #3C3D3D)"/>
<path id="Vector_9" d="M30.5094 80.5796L31.9452 80.2912L33.7727 88.4385L83.7677 78.1179L73.2747 31.511L64.4284 33.3341L64.1272 31.9641L72.9634 30.141L71.628 24.2084L62.4604 26.1035L62.1491 24.7335L72.7526 22.5397L85.5049 79.189L32.6582 90.107L30.5094 80.5796Z" fill="var(--fill-0, #3C3D3D)"/>
<path id="Vector_10" d="M16.1441 80.5906C15.8127 80.5803 15.5315 80.3537 15.4613 80.0344L0.0179292 11.4886C-0.0724413 11.1075 0.188627 10.7367 0.580232 10.6543L52.0814 0.0144746C52.1416 0.00417476 52.2019 -0.00600946 52.2621 0.00429043C52.3927 0.00429043 52.5232 0.0454749 52.6336 0.117574C52.7943 0.220573 52.9148 0.375001 52.955 0.560399L61.6507 39.1644L70.0551 37.4237L70.3664 38.7936L61.9619 40.5343L63.1166 45.643L71.5211 43.9024L71.8324 45.2722L63.4279 47.0026L64.6731 52.5337L73.0775 50.793L73.3888 52.1628L64.9843 53.9036L68.4083 69.1062C68.4485 69.2813 68.4084 69.477 68.308 69.6315C68.2075 69.786 68.0368 69.8992 67.846 69.9404L16.3449 80.5803C16.2846 80.5906 16.2244 80.6009 16.1642 80.5906H16.1441ZM3.48215 20.2435L16.7265 79.0559L66.8018 68.7148L53.5575 9.90247L3.48215 20.2435ZM1.60445 11.88L3.18086 18.8736L53.2563 8.5325L51.6798 1.53896L1.60445 11.88Z" fill="var(--fill-0, #3C3D3D)"/>
<path id="Vector_11" d="M41.7581 78.2629L43.194 77.9641L43.8266 80.7863L48.4254 79.8387L48.7367 81.2086L42.702 82.4549L41.7581 78.2629Z" fill="var(--fill-0, #3C3D3D)"/>
<path id="Vector_12" d="M49.6214 79.5904L52.684 78.9621L52.9953 80.3218L49.9227 80.9604L49.6214 79.5904Z" fill="var(--fill-0, #3C3D3D)"/>
<path id="Vector_13" d="M65.6532 76.2735L67.6313 75.8718L67.9425 77.2418L65.9645 77.6434L65.6532 76.2735Z" fill="var(--fill-0, #3C3D3D)"/>
<path id="Vector_14" d="M60.5448 77.336L62.523 76.924L62.8343 78.2938L60.8561 78.7059L60.5448 77.336Z" fill="var(--fill-0, #3C3D3D)"/>
<path id="Vector_15" d="M55.6534 78.344L57.6315 77.932L57.9428 79.302L55.9647 79.7139L55.6534 78.344Z" fill="var(--fill-0, #3C3D3D)"/>
<path id="Vector_16" d="M70.1373 75.3586L71.7137 75.029L67.617 56.8497L69.0529 56.551L73.461 76.1001L70.4486 76.7285L70.1373 75.3586Z" fill="var(--fill-0, #3C3D3D)"/>
<path id="Vector_17" d="M10.0399 24.1268L48.3169 16.2165L48.6282 17.5863L10.3512 25.4967L10.0399 24.1268Z" fill="var(--fill-0, #3C3D3D)"/>
</g>
</g>
</svg>
