<svg preserveAspectRatio="none" width="100%" height="100%" overflow="visible" style="display: block;" viewBox="0 0 64.3545 271.844" fill="none" xmlns="http://www.w3.org/2000/svg">
<g id="Group">
<path id="Vector" d="M27.1557 232.803L13.3102 235.471L14.7396 243.275L28.5851 240.607L27.1557 232.803Z" fill="var(--fill-0, #F4C058)"/>
<path id="Vector_2" d="M42.7423 243.156L34.876 237.639L29.4979 245.708L37.3642 251.225L42.7423 243.156Z" fill="var(--fill-0, #F4C058)"/>
<path id="Vector_3" d="M5.04623 256.28L42.4898 249.482C42.4898 249.482 43.0219 266.529 39.0456 267.518C35.0693 268.506 13.7218 271.844 13.7218 271.844C13.7218 271.844 4.58433 264.479 5.04623 256.28Z" fill="var(--fill-0, #F4C058)"/>
<path id="Vector_4" d="M49.0781 6.55038C39.3282 0.95754 26.9975 4.5316 21.5452 14.5328C16.0928 24.534 19.5771 37.1823 29.3271 42.7751C39.0771 48.368 51.4077 44.7939 56.86 34.7927C62.3124 24.7915 58.8281 12.1432 49.0781 6.55038ZM31.8374 38.1711C24.5676 33.9997 21.967 24.5752 26.0337 17.1181C30.1004 9.66096 39.288 6.99338 46.5578 11.1648C53.8276 15.3363 56.4283 24.7606 52.3616 32.2177C48.2949 39.6749 39.1072 42.3426 31.8374 38.1711Z" fill="var(--fill-0, #F4C058)"/>
<path id="Vector_5" d="M26.393 45.8336C26.2323 45.8336 26.0717 45.7924 25.9211 45.71C25.4592 45.4422 25.2984 44.8449 25.5595 44.3711L27.7385 40.4158C27.9995 39.942 28.582 39.7773 29.0439 40.0451C29.5058 40.3129 29.6664 40.9103 29.4053 41.3841L27.2263 45.3392C27.0456 45.6585 26.7243 45.8336 26.393 45.8336Z" fill="var(--fill-0, #4C4B4C)"/>
<path id="Vector_6" d="M22.2766 43.4642C22.116 43.4642 21.9552 43.423 21.8046 43.3406C21.3427 43.0728 21.1821 42.4753 21.4431 42.0015L23.6221 38.0464C23.8832 37.5726 24.4655 37.4078 24.9274 37.6756C25.3893 37.9434 25.5501 38.5407 25.289 39.0145L23.11 42.9697C22.9293 43.289 22.608 43.4642 22.2766 43.4642Z" fill="var(--fill-0, #4C4B4C)"/>
<path id="Vector_7" d="M36.3038 43.4752C32.7291 43.4752 29.1946 42.5378 25.9914 40.7045C15.7896 34.8541 12.1346 21.5879 17.838 11.1232C23.5414 0.668827 36.4744 -3.09063 46.6762 2.75971C51.6165 5.59218 55.1811 10.2271 56.7275 15.8199C58.2638 21.4024 57.591 27.2734 54.8297 32.341C52.0683 37.4085 47.5499 41.065 42.0975 42.6512C40.1797 43.2073 38.2417 43.4854 36.3038 43.4854V43.4752ZM36.3639 1.95629C29.6062 1.95629 23.0293 5.6024 19.5049 12.081C14.3136 21.5981 17.6473 33.6696 26.9253 38.9946C31.4238 41.5696 36.6251 42.198 41.5754 40.7663C46.5257 39.3243 50.6426 35.9974 53.1529 31.383C55.6632 26.7687 56.2756 21.4333 54.8799 16.3452C53.4742 11.2571 50.2309 7.0445 45.7324 4.46953C42.7602 2.77004 39.5369 1.95629 36.3539 1.95629H36.3639ZM36.3038 38.181C33.6529 38.181 30.9719 37.5115 28.5017 36.0901C20.7801 31.6612 18.0187 21.6188 22.3364 13.6982C26.6541 5.77757 36.4443 2.94508 44.1659 7.36373C47.9013 9.50611 50.6024 13.0183 51.7672 17.2516C52.932 21.4746 52.4198 25.9241 50.3312 29.7557C47.3992 35.1425 41.9268 38.181 36.3038 38.181ZM29.4356 34.3803C36.2335 38.284 44.8588 35.7812 48.6644 28.7979C50.5019 25.4195 50.9538 21.5055 49.9296 17.7872C48.9054 14.0587 46.5257 10.9687 43.2322 9.08386C36.4343 5.1802 27.8089 7.68298 24.0033 14.656C20.1977 21.629 22.6377 30.4767 29.4356 34.3803Z" fill="var(--fill-0, #4C4B4C)"/>
<path id="Vector_8" d="M12.6456 75.7965C11.27 75.7965 9.33205 74.9828 7.7857 74.097C5.93813 73.0361 3.86966 71.4189 3.52826 70.0181C3.16677 68.9881 3.24709 67.8551 3.76924 66.9178L16.652 43.29C17.1641 42.3424 18.0679 41.6729 19.1122 41.4566C20.4477 41.0343 22.8776 41.9922 24.7151 43.0531C26.5627 44.114 28.6211 45.7207 28.9726 47.1112C29.3441 48.1412 29.2638 49.2742 28.7416 50.2218L15.8588 73.8498C15.3467 74.7974 14.453 75.4565 13.4087 75.6831C13.1878 75.7552 12.9268 75.7862 12.6456 75.7862V75.7965ZM19.8753 43.3003C19.7849 43.3003 19.7246 43.3003 19.6744 43.3209C19.6343 43.3312 19.5641 43.3517 19.5139 43.362C18.9917 43.465 18.5498 43.7741 18.2988 44.2376L5.416 67.8655C5.16497 68.3187 5.13488 68.8748 5.32567 69.3795C5.34575 69.431 5.36576 69.4929 5.3758 69.5444C5.45613 69.9049 6.56074 71.1511 8.71959 72.3768C10.8985 73.6231 12.475 73.9321 12.8264 73.8085C12.8666 73.7982 12.9469 73.7673 12.9871 73.7673C13.5092 73.6643 13.951 73.345 14.202 72.8918L27.0848 49.2639C27.3358 48.8108 27.3661 48.2545 27.1753 47.7498C27.1552 47.6983 27.1451 47.6469 27.1351 47.5954C27.0447 47.2246 25.9702 46.0092 23.8013 44.7629C21.9035 43.6711 20.4678 43.3106 19.8954 43.3106L19.8753 43.3003Z" fill="var(--fill-0, #4C4B4C)"/>
<g id="Group_2">
<path id="Vector_9" d="M3.0577 261.513C2.78659 261.616 2.47534 261.616 2.20423 261.492C1.93312 261.369 1.72217 261.132 1.62176 260.854C1.52135 260.576 1.52137 260.256 1.64186 259.978C1.76236 259.71 1.98326 259.494 2.26441 259.381C2.53552 259.278 2.84678 259.278 3.11789 259.401C3.389 259.525 3.59994 259.762 3.70035 260.04C3.80077 260.318 3.79071 260.637 3.68025 260.916C3.55976 261.183 3.33886 261.41 3.0577 261.513Z" fill="var(--fill-0, #4C4B4C)"/>
<g id="Group_3">
<path id="Vector_10" d="M33.4387 266.829C33.3584 266.86 33.2781 266.88 33.2078 266.89L21.8411 268.611C21.8411 268.611 21.7507 268.631 21.7005 268.642L21.5901 268.662C19.5819 268.961 12.9346 269.929 11.559 270.166C11.0971 270.248 10.5448 270.166 8.52651 268.446C7.75334 267.787 6.21712 266.396 4.59045 264.501C4.38963 264.274 4.29924 263.976 4.31932 263.677C4.3394 263.368 4.46993 263.1 4.69084 262.894C4.79125 262.801 4.90167 262.729 5.0322 262.688C5.46398 262.523 5.95597 262.647 6.26725 262.997C8.38594 265.469 10.4445 267.158 11.2377 267.704L11.4787 267.869L11.7698 267.828C13.9889 267.478 19.9031 266.612 21.1683 266.427L21.54 266.365C21.54 266.365 21.6202 266.345 21.6704 266.334L32.3944 264.717L32.5752 264.408C34.9148 260.536 37.5556 254.582 37.3046 250.503L37.164 248.217L34.1114 252.934L34.6135 256.096C34.6938 256.632 34.4026 257.157 33.9106 257.342C33.8403 257.373 33.7701 257.394 33.6898 257.404C33.0873 257.507 32.5149 257.085 32.4145 256.457L31.8121 252.687L29.6833 251.235L29.2515 251.605C29.1611 251.688 29.0508 251.75 28.9403 251.791C28.87 251.822 28.7996 251.842 28.7193 251.853L5.11249 255.808C4.51002 255.911 3.93778 255.489 3.83736 254.86C3.75703 254.325 4.04818 253.799 4.5402 253.614C4.61049 253.583 4.68074 253.562 4.76107 253.552L27.5044 249.741L24.241 247.516L21.0379 248.052C20.4354 248.155 19.8631 247.733 19.7627 247.115C19.6823 246.579 19.9735 246.054 20.4655 245.868C20.5358 245.838 20.606 245.817 20.6864 245.807L23.9197 245.261L25.2853 243.149L24.8133 242.706C24.1104 242.047 23.6485 241.285 23.4276 240.451L23.2469 239.781L13.1255 241.481V242.15C13.1857 245.302 10.364 246.847 7.86376 248.206C4.4096 250.091 2.15034 251.585 2.22063 255.107C2.22063 255.427 2.27083 255.767 2.34112 256.117C2.45157 256.673 2.16043 257.219 1.64833 257.415C1.59813 257.435 1.53784 257.456 1.47759 257.466C0.87512 257.6 0.282754 257.198 0.16226 256.58C0.0618487 256.096 0.0116085 255.612 0.00156729 255.149C-0.0888033 249.968 3.74697 247.867 6.82961 246.188C9.32987 244.828 10.4343 244.066 10.7958 242.933L11.0871 242.037L10.1833 241.924C9.99255 241.903 9.82184 241.831 9.67122 241.718C9.43023 241.543 9.26962 241.275 9.21942 240.976L8.0144 233.416C7.93407 232.88 8.22534 232.355 8.71736 232.17C8.78765 232.139 8.85791 232.118 8.93824 232.108L19.3911 230.357L19.5517 229.965C21.1382 226.154 23.1365 222.323 25.6568 218.265L25.9078 217.863L25.6769 217.461C24.8535 216.009 24.3715 214.114 24.2611 211.827C24.0803 208.099 24.8635 203.526 26.5203 198.613C26.7312 197.984 26.9621 197.366 27.193 196.769L27.2232 196.697V196.625C27.2633 196.48 27.3136 196.347 27.3939 196.223L27.4341 196.161L27.4642 196.099C32.6856 183.4 43.1284 176.148 50.7497 170.854C54.8565 168.001 58.4011 165.54 60.2888 162.965C60.3189 162.923 60.349 162.882 60.3791 162.851L60.4896 162.759L60.6101 162.676C60.6603 162.645 60.7005 162.625 60.7406 162.604L60.8611 162.563L60.9916 162.532C61.082 162.522 61.1222 162.511 61.1624 162.511C61.2126 162.511 61.2528 162.511 61.303 162.511L61.4436 162.542C61.554 162.573 61.6343 162.604 61.7146 162.645L61.8351 162.728C61.8853 162.769 61.9256 162.8 61.9557 162.831C61.9858 162.862 62.0159 162.893 62.046 162.934L62.1263 163.047C62.1665 163.109 62.1866 163.16 62.2067 163.202C63.3514 165.91 65.1085 173.491 64.004 178.734C63.9237 179.115 63.6627 179.424 63.3112 179.558C63.1104 179.64 62.8895 179.65 62.6786 179.609C62.0761 179.475 61.6946 178.868 61.8251 178.25C62.1264 176.808 62.1966 175.015 62.0259 172.925L60.5799 172.708C57.8588 179.99 52.0149 187.561 46.2613 194.678L44.6948 196.625L47.0545 195.914C48.0285 195.615 48.9925 195.286 49.9063 194.925C53.4408 193.535 58.1802 191.001 60.6503 186.757C60.7808 186.531 60.9716 186.366 61.2026 186.273C61.5239 186.15 61.8753 186.181 62.1665 186.356C62.4175 186.51 62.5983 186.757 62.6786 187.056C62.7489 187.355 62.7087 187.664 62.5581 187.921C60.6302 191.248 57.3668 194.009 52.8583 196.141L53.3704 197.583C53.7721 197.469 54.1837 197.325 54.5954 197.171C56.1819 196.553 57.6781 195.636 59.0337 194.441C59.1341 194.359 59.2445 194.287 59.3549 194.245C59.4453 194.215 59.5357 194.194 59.6261 194.173H59.6964L59.7667 194.142C60.0177 194.06 60.2687 194.07 60.5097 194.173C60.7908 194.287 61.0017 194.503 61.1222 194.781C61.2427 195.059 61.2427 195.368 61.1222 195.657C60.9716 196.038 57.3568 205.184 52.2458 208.737L52.1655 208.799L52.1052 208.871C50.4685 210.818 44.5844 217.379 37.8869 220.005C34.4126 221.365 31.2698 221.427 28.5487 220.181C28.388 220.108 28.2373 220.026 28.0766 219.933L27.4541 219.583L27.0725 220.201C25.3254 223.075 23.8493 225.825 22.5741 228.596L21.9717 229.914L24.5924 229.471C24.8836 229.42 25.1849 229.492 25.4158 229.667C25.6568 229.842 25.8174 230.11 25.8676 230.408L27.3839 239.905L29.3219 236.908L28.8398 233.9C28.7595 233.364 29.0507 232.839 29.5427 232.654C29.613 232.623 29.6833 232.602 29.7636 232.592C30.3661 232.489 30.9385 232.911 31.0389 233.529L31.5811 236.949L39.8349 242.572L40.1462 242.531L42.2449 242.181C42.8473 242.078 43.4196 242.5 43.52 243.129C43.6003 243.664 43.3092 244.19 42.8171 244.375C42.7469 244.406 42.6766 244.426 42.5963 244.437L39.2525 244.993L38.3388 246.404L38.5697 246.816C42.1946 253.212 34.8444 265.036 33.9909 266.365C33.8604 266.571 33.6797 266.715 33.4588 266.808L33.4387 266.829ZM26.5906 245.24L26.7714 245.631C26.8115 245.734 26.8416 245.827 26.8617 245.93C26.8717 246.002 26.8818 246.074 26.8718 246.146V246.569L32.3944 250.339L32.6555 250.318H33.0572L33.3383 249.968L37.415 243.685L31.3301 239.534L30.9987 239.637C30.9987 239.637 30.9083 239.658 30.8681 239.668C30.7978 239.678 30.7175 239.689 30.6271 239.678L30.2054 239.658L26.5906 245.23V245.24ZM11.2076 239.493L24.6827 237.237L23.8393 231.933L10.3641 234.188L11.2076 239.493ZM29.4323 218.1C31.5912 219.089 34.1617 219.006 37.0736 217.873C39.2325 217.029 41.562 215.607 43.992 213.65L43.3494 212.291C39.5638 213.228 36.1799 213.259 33.2981 212.394C33.2278 212.373 33.1675 212.342 33.1073 212.311L32.535 212.013L32.1534 212.538C31.0489 214.083 30.0447 215.525 29.1009 216.967L28.5988 217.729L29.3519 218.069L29.4223 218.1H29.4323ZM42.2749 199.55C39.9052 202.465 37.154 205.853 34.5935 209.252L33.8503 210.241L35.0453 210.478C39.112 211.292 43.5803 210.045 46.6127 208.861C49.1933 207.852 50.9706 206.791 50.9907 206.78C51.0409 206.749 51.1012 206.719 51.1614 206.698L51.2618 206.657L51.3622 206.585C52.9788 205.338 54.6357 203.268 56.2924 200.425L57.407 198.52L55.3787 199.313C49.9263 201.455 44.9861 200.034 43.1184 199.313L42.6264 199.128L42.2849 199.539L42.2749 199.55ZM27.0425 205.112C26.3296 208.717 26.2392 211.848 26.7714 214.176L27.1529 215.855L28.1169 214.433C29.1913 212.837 30.3761 211.168 31.6313 209.479L32.2438 208.655L32.9266 207.749C35.5373 204.298 38.1781 201.033 40.6583 197.984L41.0398 197.521L40.6884 197.037C40.6483 196.975 40.6081 196.913 40.5679 196.841C38.9011 193.257 38.1079 189.075 37.7263 186.201L37.5053 184.533L36.4209 185.789C33.4186 189.271 31.1593 192.917 29.5025 196.944L29.4323 197.119L29.4523 197.304C29.6029 199.179 30.105 203.855 31.4706 206.688C31.5509 206.863 31.5912 207.048 31.5811 207.244L31.5409 208.047L30.7979 208.284C30.2757 208.459 29.7134 208.212 29.4623 207.707C29.1109 206.976 28.7796 206.09 28.4884 205.05L27.0325 205.112H27.0425ZM43.8112 178.723C42.3854 179.877 41.0901 181.01 39.8651 182.174L39.604 182.421L39.634 182.792C39.8148 185.336 40.357 190.239 42.0339 194.534L42.5058 195.729L43.3092 194.74C44.8756 192.814 46.7031 190.548 48.39 188.364L49.0025 187.571L48.0888 187.18C47.9181 187.108 47.6871 186.963 47.5364 186.665C47.3356 186.273 45.5382 182.73 45.0161 179.228L44.8254 177.92L43.8112 178.744V178.723ZM58.1802 168.207C56.3828 169.67 54.244 171.163 51.9747 172.729C50.5187 173.738 49.0126 174.789 47.4964 175.901L47.2654 176.066L47.2051 176.344C46.4922 179.434 49.2335 185.037 49.3439 185.274L49.8862 186.376L50.6091 185.387C55.4791 178.754 58.1902 173.697 59.365 168.99L59.9173 166.765L58.1701 168.187L58.1802 168.207Z" fill="var(--fill-0, #4C4B4C)"/>
<path id="Vector_11" d="M62.9995 183.936C62.8589 183.988 62.7083 184.019 62.5577 184.008C62.2565 183.998 61.9854 183.864 61.7845 183.638C61.5837 183.411 61.4833 183.122 61.4933 182.813C61.4933 182.577 61.5636 182.371 61.664 182.185C61.8147 181.866 62.0356 181.66 62.2966 181.557C62.4272 181.505 62.5777 181.475 62.7183 181.485C63.0195 181.485 63.2907 181.619 63.5015 181.835C63.7024 182.051 63.8129 182.35 63.8129 182.649C63.8129 182.896 63.7425 183.133 63.622 183.328C63.4714 183.637 63.2505 183.833 62.9995 183.936Z" fill="var(--fill-0, #4C4B4C)"/>
</g>
</g>
</g>
</svg>
