<svg preserveAspectRatio="none" width="100%" height="100%" overflow="visible" style="display: block;" viewBox="0 0 46.7416 54.5728" fill="none" xmlns="http://www.w3.org/2000/svg">
<path id="Vector" d="M45.5166 54.5624C45.5166 54.5624 45.4865 54.5624 45.4664 54.5624C45.2556 54.5624 45.0447 54.5109 44.864 54.3976L0.632599 28.926C0.251034 28.7097 0.0100412 28.2874 0 27.8342C0 27.381 0.220912 26.9587 0.602476 26.7321L44.2213 0.178987C44.5929 -0.0579103 45.0648 -0.0579204 45.4564 0.168677C45.8379 0.384975 46.0789 0.807331 46.089 1.26053L46.6915 52.935C46.7316 53.0586 46.7416 53.1823 46.7416 53.3059C46.7416 54.0063 46.1894 54.5728 45.5066 54.5728L45.5166 54.5624ZM3.7052 27.793L44.2113 51.1223L43.659 3.47503L3.71525 27.793H3.7052Z" fill="var(--fill-0, #706458)"/>
</svg>
