<svg preserveAspectRatio="none" width="100%" height="100%" overflow="visible" style="display: block;" viewBox="0 0 97.6532 24.3696" fill="none" xmlns="http://www.w3.org/2000/svg">
<g id="Group">
<path id="Vector" d="M13.7827 4.06853C13.9936 3.09004 14.1944 1.89527 15.0479 1.25668C15.801 0.700483 17.0963 0.648893 18 0.648893C19.8175 0.648893 21.655 1.18452 21.655 3.3887V11.9994C21.655 13.9152 20.5907 14.7083 18.7833 14.7083C17.2771 14.7083 16.3533 14.1212 16.0119 12.5556L14.2748 21.4032C14.1442 22.0109 13.7526 22.598 13.3409 22.9997C12.7485 23.5559 11.9151 23.7207 11.1419 23.7207C10.3687 23.7207 9.56545 23.5662 8.96298 22.9997C8.52117 22.6289 8.12957 22.0109 8.02916 21.4032L6.27196 12.5556V21.0015C6.27196 22.9379 5.20756 23.7104 3.42024 23.7104C1.63291 23.7104 0.648893 22.8658 0.648893 21.0015V3.3887C0.648893 1.15362 2.48641 0.648893 4.30386 0.648893C5.36823 0.648893 6.94471 0.731272 7.64759 1.65826C8.16973 2.34835 8.35048 3.25484 8.5011 4.07884L11.1419 17.3554L13.7827 4.07884V4.06853ZM21.655 20.9912C21.655 22.9275 20.5907 23.7 18.7833 23.7C16.9758 23.7 16.0119 22.8555 16.0119 20.9912V14.0594C16.8152 14.9864 17.6385 15.3365 18.8636 15.3365C20.0886 15.3365 20.932 14.9658 21.655 14.0594V20.9912Z" stroke="var(--stroke-0, #236242)" stroke-width="1.29779" stroke-linecap="round" stroke-linejoin="round"/>
<path id="Vector_2" d="M45.2688 7.11644C45.8111 8.76442 46.042 10.5154 46.042 12.2458C46.042 15.8095 45.0278 19.26 42.2364 21.5466C40.3687 23.0298 37.989 23.6992 35.6293 23.6992C33.2696 23.6992 30.9401 23.0401 29.0523 21.5466C26.2006 19.2909 25.2467 15.7272 25.2467 12.1737C25.2467 7.84777 26.7228 3.72781 30.7393 1.73993C32.2655 0.998339 33.9725 0.679013 35.6594 0.679013C37.9589 0.679013 40.2181 1.31765 42.0557 2.78023C42.8087 3.41882 43.4815 4.21183 43.4815 5.27272C43.4815 6.81771 42.1059 7.93017 40.66 7.93017C39.7562 7.93017 39.2341 7.50784 38.3304 6.73535C37.6074 6.09676 36.523 5.85989 35.559 5.85989C34.1332 5.85989 32.8378 6.49843 32.0346 7.74472C31.1509 9.04251 31.0003 10.6699 31.0003 12.184C31.0003 13.6981 31.1811 15.3667 32.0346 16.6954C32.8378 17.9726 34.1633 18.5287 35.6293 18.5287C37.5673 18.5287 38.973 17.6224 39.7161 15.7684C40.1579 14.6766 40.2884 13.4097 40.2884 12.1531C40.2884 10.8244 40.1378 9.52664 39.5654 8.30095C39.957 8.46575 40.3185 8.56876 40.7302 8.56876C42.5376 8.56876 44.0739 7.137 44.0739 5.27272C44.0739 5.05642 44.0438 4.85043 44.0237 4.63413C44.5459 5.42723 44.9877 6.25126 45.2688 7.12675V7.11644Z" stroke="var(--stroke-0, #236242)" stroke-width="1.29779" stroke-linecap="round" stroke-linejoin="round"/>
<path id="Vector_3" d="M57.1026 14.821C56.942 15.2742 56.8415 15.6966 56.8415 16.1807C56.8415 18.1479 58.5284 19.5796 60.3861 19.5796C61.109 19.5796 61.7818 19.3427 62.3842 18.8895L61.9224 20.2491C61.1191 22.5562 60.2154 23.6995 57.6549 23.6995C55.0944 23.6995 53.8794 22.6592 53.0962 20.2181L48.0957 4.57267C47.9451 4.17097 47.8647 3.69714 47.8647 3.24394C47.8647 1.67836 49.4914 0.668973 50.8971 0.668973C52.1121 0.668973 52.9958 1.44145 53.3572 2.58474L57.193 14.5635L57.1126 14.8313L57.1026 14.821ZM61.6412 2.58474C62.0027 1.47235 62.9064 0.668973 64.0712 0.668973C65.4669 0.668973 67.1538 1.67839 67.1538 3.27487C67.1538 3.69717 67.0534 4.15038 66.9229 4.57267L63.0369 16.8193C62.6253 18.1479 61.8722 18.941 60.5267 18.941C59.0205 18.941 57.4741 17.8492 57.4741 16.1807C57.4741 15.8614 57.5545 15.542 57.6348 15.2227L61.6513 2.58474H61.6412Z" stroke="var(--stroke-0, #236242)" stroke-width="1.29779" stroke-linecap="round" stroke-linejoin="round"/>
<path id="Vector_4" d="M75.6439 21.0936C75.6439 22.8755 74.7402 23.6995 72.7922 23.6995C71.0049 23.6995 70.0209 22.9579 70.0209 21.0936V3.27487C70.0209 1.3076 71.1354 0.668973 72.8926 0.668973C74.6498 0.668973 75.6138 1.44149 75.6339 3.27487V21.0936H75.6439Z" stroke="var(--stroke-0, #236242)" stroke-width="1.29779" stroke-linecap="round" stroke-linejoin="round"/>
<path id="Vector_5" d="M93.0982 9.48572C94.7048 9.48572 95.6085 10.3096 95.6085 11.9782C95.6085 13.6468 94.6245 14.3987 93.0982 14.3987H85.9489V17.4784C84.4227 17.8183 83.6997 19.0233 83.6997 20.5889C83.6997 21.5674 83.9808 22.5254 84.7841 23.1434C82.0629 23.1434 80.3258 23.1434 80.3258 19.7959V4.57265C80.3258 1.89468 81.5208 1.22519 83.9507 1.22519H93.9216C95.5282 1.22519 96.462 2.10066 96.462 3.77954C96.462 5.45842 95.5282 6.33389 93.9216 6.33389H87.2442C86.1296 6.33389 85.9489 6.51936 85.9489 7.69355V9.49603H93.0982V9.48572ZM86.8526 23.1331C85.246 23.1331 84.3122 22.2781 84.3122 20.6095C84.3122 18.9409 85.2159 18.0345 86.8526 18.0345H94.4638C96.0905 18.0345 97.0043 18.8894 97.0043 20.5889C97.0043 21.4438 96.7231 22.3399 95.97 22.824C95.5081 23.0918 94.9859 23.1125 94.4638 23.1434H86.8526V23.1331Z" stroke="var(--stroke-0, #236242)" stroke-width="1.29779" stroke-linecap="round" stroke-linejoin="round"/>
</g>
</svg>
