<svg preserveAspectRatio="none" width="100%" height="100%" overflow="visible" style="display: block;" viewBox="0 0 47.6744 41.7383" fill="none" xmlns="http://www.w3.org/2000/svg">
<path id="Vector" d="M37.2989 41.7176C37.1684 41.7176 37.0378 41.697 36.9173 41.6455L25.2696 37.0105L2.89784 41.0894C1.69289 41.3057 0.538213 40.4816 0.317307 39.2456L0.016023 37.4947C-0.0843887 36.9076 0.297161 36.341 0.879549 36.238C1.47198 36.135 2.00413 36.5264 2.10454 37.1238L2.40583 38.8749C2.40583 38.9367 2.47611 38.9675 2.52632 38.9572L25.1892 34.8269C25.38 34.7857 25.5809 34.8167 25.7616 34.8888L35.9233 38.9366L35.0899 34.1369C34.9895 33.5498 35.371 32.9833 35.9534 32.8803L45.4624 31.1499C45.4624 31.1499 45.5527 31.0778 45.5427 31.0263L40.5623 2.25871C40.5623 2.25871 40.492 2.15575 40.4418 2.17635L24.1751 5.14273C23.6028 5.25603 23.0504 4.85435 22.95 4.25695C22.8496 3.66986 23.2312 3.10327 23.8136 3.00027L40.0803 0.0338972C40.6728 -0.0691017 41.2552 0.0649075 41.7472 0.404804C42.2292 0.755 42.5604 1.28022 42.6609 1.87762L47.6414 30.6453C47.7418 31.2427 47.6111 31.8504 47.2798 32.3448C46.9384 32.8495 46.4263 33.179 45.844 33.282L37.3792 34.8269L38.3533 40.461C38.4236 40.8524 38.283 41.2437 37.9818 41.4909C37.791 41.6557 37.5499 41.7383 37.309 41.7383L37.2989 41.7176Z" fill="var(--fill-0, #4C4B4C)"/>
</svg>
