<svg preserveAspectRatio="none" width="100%" height="100%" overflow="visible" style="display: block;" viewBox="0 0 387.146 155.734" fill="none" xmlns="http://www.w3.org/2000/svg">
<g id="Group">
<path id="Vector" d="M78.8634 2.1626L54.4031 153.571H24.4603L0 2.1626H22.7734L39.6426 121.126L56.5118 2.1626H78.8634Z" fill="var(--fill-0, #F4C058)"/>
<path id="Vector_2" d="M103.953 145.671C97.3456 138.966 94.0421 130.139 94.0421 119.18V36.5543C94.0421 25.5952 97.3456 16.7682 103.953 10.0527C110.56 3.34747 119.205 0 129.889 0C140.573 0 149.218 3.34747 155.825 10.0527C162.433 16.7579 165.736 25.5952 165.736 36.5543V119.18C165.736 130.139 162.433 138.966 155.825 145.671C149.218 152.376 140.573 155.734 129.889 155.734C119.205 155.734 110.56 152.376 103.953 145.671ZM139.8 130.211C142.19 127.616 143.384 123.939 143.384 119.18V36.5543C143.384 31.7957 142.19 28.1187 139.8 25.5232C137.41 22.9276 134.106 21.6298 129.889 21.6298C125.672 21.6298 122.368 22.9276 119.978 25.5232C117.589 28.1187 116.394 31.7957 116.394 36.5543V119.18C116.394 123.939 117.589 127.616 119.978 130.211C122.368 132.807 125.672 134.105 129.889 134.105C134.106 134.105 137.41 132.807 139.8 130.211Z" fill="var(--fill-0, #F4C058)"/>
<path id="Vector_3" d="M188.305 2.1626H210.657V153.571H188.305V2.1626Z" fill="var(--fill-0, #F4C058)"/>
<path id="Vector_4" d="M242.916 145.785C236.449 139.152 233.216 130.5 233.216 119.829V35.9054C233.216 25.2347 236.449 16.5829 242.916 9.94973C249.382 3.3166 257.817 0 268.219 0C278.622 0 287.057 3.3166 293.523 9.94973C299.99 16.5829 303.223 25.2347 303.223 35.9054V53.6418H281.293V35.9054C281.293 31.5794 280.098 28.1187 277.708 25.5232C275.318 22.9276 272.226 21.6298 268.43 21.6298C264.635 21.6298 261.542 22.9276 259.152 25.5232C256.762 28.1187 255.567 31.5794 255.567 35.9054V119.829C255.567 124.155 256.762 127.616 259.152 130.211C261.542 132.807 264.635 134.105 268.43 134.105C272.226 134.105 275.318 132.807 277.708 130.211C280.098 127.616 281.293 124.155 281.293 119.829V98.1991H303.223V119.829C303.223 130.5 299.99 139.152 293.523 145.785C287.057 152.418 278.622 155.734 268.219 155.734C257.817 155.734 249.382 152.418 242.916 145.785Z" fill="var(--fill-0, #F4C058)"/>
<path id="Vector_5" d="M323.676 2.1626H387.146V23.7924H346.027V65.9704H378.711V87.6001H346.027V131.941H387.146V153.571H323.676V2.1626Z" fill="var(--fill-0, #F4C058)"/>
</g>
</svg>
