<svg preserveAspectRatio="none" width="100%" height="100%" overflow="visible" style="display: block;" viewBox="0 0 439 108.62" fill="none" xmlns="http://www.w3.org/2000/svg">
<g id="Group11111">
<path id="Vector" d="M418.026 0H20.9743C9.3905 0 0 9.4104 0 21.0187V87.6015C0 99.2099 9.3905 108.62 20.9743 108.62H418.026C429.609 108.62 439 99.2099 439 87.6015V21.0187C439 9.4104 429.609 0 418.026 0Z" fill="var(--fill-0, #FEFCF2)"/>
<g id="Group">
<path id="Vector_2" d="M187.063 88.573C187.123 88.7834 187.213 88.8335 187.293 88.8335C187.393 88.8335 187.463 88.7634 187.523 88.573L189.432 82.5419C189.492 82.3516 189.662 82.041 190.092 82.041C190.522 82.041 190.922 82.3516 190.922 82.7022C190.922 82.7623 190.892 82.9627 190.862 83.0729L188.652 90.0357C188.422 90.7571 187.872 90.9775 187.343 90.9775C187.083 90.9775 186.253 90.9775 185.953 90.0357L183.754 83.0629C183.734 83.0128 183.694 82.8325 183.694 82.7122C183.694 82.3416 184.084 82.041 184.533 82.041C184.983 82.041 185.163 82.4818 185.183 82.5419L187.083 88.573H187.063Z" fill="var(--fill-0, #386F6B)"/>
<path id="Vector_3" d="M194.382 90.2559C194.382 90.6366 194.212 90.9772 193.631 90.9772C193.099 90.9772 192.859 90.7168 192.859 90.2559V82.7621C192.859 82.3914 193.019 82.0508 193.61 82.0508C194.152 82.0508 194.382 82.3112 194.382 82.7621V90.2559Z" fill="var(--fill-0, #386F6B)"/>
<path id="Vector_4" d="M201.925 85.7665C202.325 85.7665 202.585 85.9568 202.585 86.3977C202.585 86.7984 202.385 87.0389 201.925 87.0389H198.516V88.9925C198.516 89.263 198.656 89.4233 198.946 89.4233H202.495C202.755 89.4233 203.165 89.5134 203.165 90.0845C203.165 90.5954 202.855 90.7457 202.495 90.7457H198.436C197.436 90.7457 196.986 90.395 196.986 89.293V83.7027C196.986 82.6207 197.426 82.25 198.436 82.25H202.295C202.555 82.25 202.965 82.3402 202.965 82.9113C202.965 83.4222 202.645 83.5724 202.295 83.5724H198.946C198.666 83.5724 198.516 83.7227 198.516 84.0032V85.7565H201.925V85.7665Z" fill="var(--fill-0, #386F6B)"/>
<path id="Vector_5" d="M207.236 88.7333C207.246 88.8035 207.286 88.9137 207.386 88.9137C207.466 88.9137 207.506 88.8135 207.516 88.7434L208.446 82.8224C208.526 82.3015 208.906 82.041 209.546 82.041C210.495 82.041 210.765 82.3516 210.835 82.8224L211.805 88.7434C211.815 88.8235 211.845 88.9337 211.935 88.9337C212.025 88.9337 212.065 88.8436 212.075 88.7534L213.125 82.582C213.195 82.1512 213.565 82.041 213.834 82.041C214.224 82.041 214.624 82.2814 214.624 82.7122C214.624 82.7924 214.614 82.8826 214.594 82.9727L213.175 90.0257C213.065 90.5266 212.875 90.9674 212.115 90.9674C211.405 90.9674 210.895 90.8172 210.785 90.1059L209.766 83.6039C209.756 83.5538 209.706 83.4536 209.626 83.4536C209.566 83.4536 209.526 83.5237 209.506 83.6039L208.486 90.1059C208.366 90.8573 207.796 90.9674 207.406 90.9674C206.486 90.9674 206.237 90.707 206.097 90.0257L204.677 82.9727C204.667 82.9126 204.647 82.7924 204.647 82.7122C204.647 82.3315 204.977 82.041 205.467 82.041C206.037 82.041 206.137 82.5219 206.147 82.582L207.226 88.7333H207.236Z" fill="var(--fill-0, #386F6B)"/>
<path id="Vector_6" d="M227.556 85.5272L227.596 83.9543C227.596 83.9543 227.586 83.9242 227.566 83.9242C227.546 83.9242 227.536 83.9242 227.536 83.9442L225.907 90.2759C225.737 90.9271 225.257 90.9772 224.947 90.9772C224.497 90.9772 224.197 90.7368 224.077 90.2759L222.448 83.9442C222.448 83.9442 222.438 83.9242 222.418 83.9242C222.398 83.9242 222.388 83.9242 222.388 83.9543L222.428 85.5272V90.2559C222.428 90.7168 222.198 90.9772 221.668 90.9772C221.078 90.9772 220.918 90.6266 220.918 90.2559V82.9725C220.918 82.1209 221.538 82.0508 222.078 82.0508C222.547 82.0508 223.137 82.1409 223.297 82.752L224.927 89.264C224.937 89.3241 224.947 89.3842 224.997 89.3842C225.047 89.3842 225.057 89.3542 225.077 89.264L226.716 82.752C226.876 82.1209 227.506 82.0508 227.996 82.0508C228.536 82.0508 229.096 82.181 229.096 82.9725V90.2559C229.096 90.7168 228.866 90.9772 228.316 90.9772C227.736 90.9772 227.576 90.6266 227.576 90.2559V85.5272H227.556Z" fill="var(--fill-0, #386F6B)"/>
<path id="Vector_7" d="M239.494 86.5092C239.494 89.104 237.985 90.9875 235.445 90.9875C232.906 90.9875 231.397 89.104 231.397 86.5092C231.397 83.9144 232.846 82.041 235.445 82.041C238.045 82.041 239.494 84.0847 239.494 86.5092ZM232.966 86.5092C232.966 88.3727 233.866 89.635 235.445 89.635C237.025 89.635 237.945 88.4528 237.945 86.5092C237.945 84.6859 237.065 83.3835 235.445 83.3835C233.826 83.3835 232.966 84.5957 232.966 86.5092Z" fill="var(--fill-0, #386F6B)"/>
<path id="Vector_8" d="M243.385 90.2565C243.385 90.6372 243.215 90.9778 242.635 90.9778C242.105 90.9778 241.875 90.7174 241.875 90.2565V83.7144C241.875 82.6324 242.315 82.2617 243.325 82.2617H245.614C246.754 82.2617 247.264 82.5222 247.644 82.8528C248.143 83.2736 248.463 83.9047 248.463 84.6361C248.463 84.7964 248.463 86.0988 247.304 86.6398C248.193 87.1006 248.203 87.802 248.233 89.3047C248.233 89.475 248.363 90.2264 248.363 90.3767C248.363 90.8275 247.983 90.9577 247.504 90.9577C246.824 90.9577 246.724 90.2765 246.714 88.7938C246.714 88.3329 246.664 87.3411 245.504 87.3411H243.395V90.2465L243.385 90.2565ZM243.385 86.0287H245.494C246.434 86.0287 246.944 85.4075 246.944 84.7563C246.944 83.9148 246.364 83.5842 245.524 83.5842H243.815C243.525 83.5842 243.385 83.7545 243.385 84.015V86.0287Z" fill="var(--fill-0, #386F6B)"/>
<path id="Vector_9" d="M255.71 85.7665C256.109 85.7665 256.369 85.9568 256.369 86.3977C256.369 86.7984 256.169 87.0389 255.71 87.0389H252.3V88.9925C252.3 89.263 252.44 89.4233 252.73 89.4233H256.279C256.539 89.4233 256.949 89.5134 256.949 90.0845C256.949 90.5954 256.639 90.7457 256.279 90.7457H252.22C251.221 90.7457 250.771 90.395 250.771 89.293V83.7027C250.771 82.6207 251.211 82.25 252.22 82.25H256.079C256.339 82.25 256.749 82.3402 256.749 82.9113C256.749 83.4222 256.429 83.5724 256.079 83.5724H252.73C252.45 83.5724 252.3 83.7227 252.3 84.0032V85.7565H255.71V85.7665Z" fill="var(--fill-0, #386F6B)"/>
</g>
<g id="Group_2" opacity="0.85">
<path id="Vector_10" d="M109.334 60.6514C111.724 60.6514 113.173 61.6032 113.173 64.0778C113.173 66.5523 112.144 67.8146 109.334 67.8146H80.1524C77.8331 67.8146 76.3135 66.903 76.3135 64.3883C76.3135 61.8737 77.2632 60.6514 80.1524 60.6514H96.338C97.4777 57.2251 98.5074 52.3862 99.4172 47.8177C99.7171 46.1847 100.177 43.9306 103.406 43.9306C106.105 43.9306 107.545 45.7539 107.545 47.5072C107.545 49.4107 104.426 59.6195 104.046 60.6414H109.324L109.334 60.6514ZM108.725 36.6973C111.084 36.6973 112.564 37.6089 112.564 40.1236C112.564 42.6382 111.574 43.8204 108.725 43.8204H80.9122C78.6328 43.8204 77.0733 42.9488 77.0733 40.3941C77.0733 37.8394 78.173 36.6973 80.9122 36.6973H90.8295V35.475C90.8295 33.5314 91.3594 31.8984 94.6285 31.8984C97.0178 31.8984 98.5774 32.6999 98.5774 35.475V36.6973H108.725ZM90.5596 48.8096C91.6593 54.0292 91.8092 56.2733 91.8092 56.9546C91.8092 60.0002 89 60.461 87.9703 60.461C84.6212 60.461 84.3613 57.9865 84.0913 55.8125C83.9014 54.2096 83.4415 51.204 83.2516 50.2923C82.7917 47.8979 82.7217 47.6274 82.7217 46.9762C82.7217 44.5818 85.231 43.9306 86.7506 43.9306C89.5199 43.9306 89.9797 46.0244 90.5496 48.8096H90.5596Z" fill="var(--fill-0, #00AEEB)"/>
<path id="Vector_11" d="M140.154 46.0634H147.872C148.632 46.0634 151.061 46.0634 151.061 49.4096C151.061 52.2648 149.392 52.7958 147.872 52.7958H140.154V60.5601H150.681C151.441 60.5601 153.87 60.6002 153.87 63.8762C153.87 66.8818 152.391 67.5329 150.681 67.5329H120.549C119.45 67.5329 117.36 67.2324 117.36 64.2569C117.36 61.5119 118.5 60.5601 120.549 60.5601H122.339V45.1718C122.339 44.22 122.449 42.0159 125.758 42.0159C128.757 42.0159 129.637 43.0779 129.637 45.1718V60.5601H132.866V39.7718H121.619C120.899 39.7718 118.43 39.7718 118.43 36.4957C118.43 33.6004 119.87 32.9492 121.619 32.9492H149.891C150.611 32.9492 153.081 32.9492 153.081 36.3355C153.081 39.1206 151.481 39.7618 149.891 39.7618H140.164V46.0434L140.154 46.0634Z" fill="var(--fill-0, #00AEEB)"/>
<path id="Vector_12" d="M162.117 47.2866C159.728 47.2866 158.278 46.3348 158.278 43.6299C158.278 41.1954 159.568 40.0533 162.117 40.0533H172.684V35.1442C172.684 32.9001 173.904 31.8281 176.143 31.8281C178.383 31.8281 180.092 32.4392 180.092 35.1442V40.0533H190.809C193.129 40.0533 194.688 41.0451 194.688 43.4796C194.688 45.9141 193.778 47.2866 190.809 47.2866H180.852C182.142 53.9489 186.061 57.9062 191.529 60.6913C192.749 61.3025 193.888 62.0639 193.888 64.0776C193.888 65.8308 192.639 68.3855 189.899 68.3855C187.66 68.3855 180.552 63.9273 176.443 55.632C173.134 62.4846 166.106 68.1952 162.837 68.1952C160.518 68.1952 158.958 65.8008 158.958 63.8171C158.958 62.1039 159.908 61.4227 161.047 60.7314C166.866 57.265 170.205 54.4498 171.804 47.2866H162.117Z" fill="var(--fill-0, #00AEEB)"/>
<path id="Vector_13" d="M214.108 37.0778C214.028 36.9275 213.838 36.3564 213.688 36.0158C213.578 35.6752 213.388 35.1743 213.388 34.5732C213.388 32.7798 215.518 31.9082 217.487 31.9082C219.157 31.9082 219.877 32.3992 220.676 34.1524C220.946 34.7635 221.516 35.9457 221.666 37.0878H223.866C224.096 36.667 224.286 36.2462 224.895 34.533C225.425 32.9702 225.955 32.0986 227.974 32.0986C230.334 32.0986 232.263 33.3208 232.263 35.1843C232.263 35.8355 231.843 36.5969 231.544 37.1278C233.673 37.5486 234.543 39.5223 234.543 42.0369V44.4013C234.543 46.415 233.863 48.1682 230.364 47.7875C230.214 49.7712 229.224 50.3723 228.354 50.9133C226.495 52.1355 225.125 52.7767 224.405 53.0873H232.273C233.033 53.0873 235.732 53.0873 235.732 56.2832C235.732 59.2486 233.563 59.5191 232.273 59.5191H221.066V63.5165C221.066 68.1651 219.087 68.7361 214.108 68.7361C209.659 68.7361 209.17 68.6259 208.56 68.3154C207.53 67.8545 206.96 66.4519 206.96 65.1195C206.96 62.9455 208.25 61.8835 210.269 61.8835C210.649 61.8835 212.249 61.9636 212.589 61.9236C213.428 61.8434 213.428 61.4327 213.428 60.511V59.5191H202.292C201.532 59.5191 198.832 59.5192 198.832 56.4335C198.832 53.999 200.052 53.0873 202.292 53.0873H213.458C213.538 52.6264 213.798 52.0554 214.868 51.6747C215.398 51.4843 216.048 51.2539 216.048 50.9934C216.048 50.8432 215.938 50.6928 215.748 50.6928H207.01C206.14 50.6928 204.271 50.6929 204.121 47.7975C201.162 48.1382 199.862 46.8859 199.862 44.4814V42.0469C199.862 40.6042 199.942 37.739 203.281 37.208C203.051 36.7472 202.561 35.8755 202.561 34.9939C202.561 33.6214 204.231 32.1787 206.63 32.1787C207.77 32.1787 208.87 32.2889 210.009 34.6132C210.309 35.2644 210.769 36.4065 210.919 37.0878H214.108V37.0778ZM206.92 44.5014H226.375C226.985 44.5014 227.055 44.5015 227.515 44.5415V43.5497C227.515 43.3192 227.285 43.2491 227.175 43.2491H207.22C207.11 43.2491 206.92 43.3293 206.92 43.5497V44.5014Z" fill="var(--fill-0, #00AEEB)"/>
<path id="Vector_14" d="M243.482 43.8996C241.433 43.8996 239.793 43.058 239.793 40.6235C239.793 37.9987 240.823 36.7764 243.482 36.7764H254.389V35.484C254.389 33.9211 254.729 31.9375 257.848 31.9375C260.967 31.9375 261.877 32.8892 261.877 35.484V36.7764H272.744C274.834 36.7764 276.473 37.618 276.473 40.0925C276.473 42.5671 275.603 43.8996 272.744 43.8996H270.045C269.015 48.5481 267.046 53.5373 263.777 57.2642C266.096 58.5165 267.616 59.0174 273.164 60.7306C274.534 61.1513 276.053 61.7625 276.053 64.1569C276.053 66.371 274.614 68.2745 272.334 68.2745C270.355 68.2745 263.287 65.7999 258.158 62.2534C253.1 65.7198 246.451 68.2745 243.942 68.2745C241.813 68.2745 240.333 66.411 240.333 64.1569C240.333 61.9027 241.513 61.2615 243.182 60.7706C248.541 59.1376 249.531 58.8271 251.92 57.6148C252.22 57.4646 252.34 57.3844 252.57 57.2742C249.341 53.4672 247.321 48.7786 246.262 43.9096H243.492L243.482 43.8996ZM253.859 43.8996C254.319 45.7229 255.489 49.9106 258.148 52.9663C259.058 51.9344 260.808 49.8806 262.407 43.8996H253.859Z" fill="var(--fill-0, #F18904)"/>
<path id="Vector_15" d="M295.819 37.0778C295.739 36.9275 295.549 36.3564 295.399 36.0158C295.289 35.6752 295.099 35.1743 295.099 34.5732C295.099 32.7798 297.229 31.9082 299.198 31.9082C300.868 31.9082 301.587 32.3992 302.387 34.1524C302.657 34.7635 303.227 35.9457 303.377 37.0878H305.576C305.806 36.667 305.996 36.2462 306.606 34.533C307.136 32.9702 307.666 32.0986 309.685 32.0986C312.044 32.0986 313.974 33.3208 313.974 35.1843C313.974 35.8355 313.554 36.5969 313.254 37.1278C315.384 37.5486 316.253 39.5223 316.253 42.0369V44.4013C316.253 46.415 315.573 48.1682 312.074 47.7875C311.924 49.7712 310.935 50.3723 310.065 50.9133C308.205 52.1355 306.836 52.7767 306.116 53.0873H313.984C314.744 53.0873 317.443 53.0873 317.443 56.2832C317.443 59.2486 315.274 59.5191 313.984 59.5191H302.777V63.5165C302.777 68.1651 300.798 68.7361 295.819 68.7361C291.37 68.7361 290.88 68.6259 290.27 68.3154C289.241 67.8545 288.671 66.4519 288.671 65.1195C288.671 62.9455 289.96 61.8835 291.98 61.8835C292.36 61.8835 293.959 61.9636 294.299 61.9236C295.139 61.8434 295.139 61.4327 295.139 60.511V59.5191H284.002C283.242 59.5191 280.543 59.5192 280.543 56.4335C280.543 53.999 281.763 53.0873 284.002 53.0873H295.169C295.249 52.6264 295.509 52.0554 296.579 51.6747C297.109 51.4843 297.758 51.2539 297.758 50.9934C297.758 50.8432 297.648 50.6928 297.458 50.6928H288.721C287.851 50.6928 285.982 50.6929 285.832 47.7975C282.872 48.1382 281.573 46.8859 281.573 44.4814V42.0469C281.573 40.6042 281.653 37.739 284.992 37.208C284.762 36.7472 284.272 35.8755 284.272 34.9939C284.272 33.6214 285.942 32.1787 288.341 32.1787C289.481 32.1787 290.58 32.2889 291.72 34.6132C292.02 35.2644 292.48 36.4065 292.63 37.0878H295.819V37.0778ZM288.641 44.5014H308.096C308.705 44.5014 308.775 44.5015 309.235 44.5415V43.5497C309.235 43.3192 309.005 43.2491 308.895 43.2491H288.941C288.831 43.2491 288.641 43.3293 288.641 43.5497V44.5014Z" fill="var(--fill-0, #F18904)"/>
<path id="Vector_16" d="M341.915 50.413C341.345 51.3247 340.695 51.5551 339.445 51.5551H324.249C322.58 51.5551 321.32 51.0241 321.32 48.239C321.32 45.2335 323.33 45.2335 324.629 45.2335C324.519 44.432 324.169 42.3782 324.059 41.8873C322.39 41.4665 322.01 39.7934 322.01 38.8016C322.01 36.0264 324.019 35.6458 325.239 35.6458H328.278V34.5838C328.278 32.2996 330.068 31.959 331.927 31.959C333.447 31.959 335.046 32.49 335.046 34.5838V35.6458H338.356C340.405 35.6458 341.545 36.7077 341.545 38.8417C341.545 40.2142 340.865 41.5066 339.565 41.8472C339.265 43.2598 339.105 43.901 338.725 45.2335H339.445C340.625 45.2335 341.265 45.4238 341.915 46.3355V38.0302C341.915 34.1029 342.754 33.0009 346.933 33.0009H352.402C354.951 33.0009 357.72 33.0009 357.72 37.3389C357.72 39.2023 357.23 40.7652 356.88 41.717C356.311 43.3901 355.321 45.6041 354.831 46.596C354.411 47.3974 354.371 47.4676 354.371 47.6579C354.371 47.8883 354.451 47.9284 355.021 48.5696C356.691 50.3929 358.36 53.8994 358.36 58.1673C358.36 65.06 353.871 65.06 352.052 65.06C349.542 65.06 349.053 64.6392 348.743 64.3787V65.2203C348.743 67.8852 347.563 68.6867 345.054 68.6867C342.124 68.6867 341.905 66.5126 341.905 65.2203V50.403L341.915 50.413ZM336.066 52.8074C340.095 52.8074 340.705 54.0998 340.705 57.486V63.427C340.705 67.234 339.835 68.1056 336.066 68.1056H327.209C323.64 68.1056 322.61 67.2641 322.61 63.427V57.486C322.61 53.9395 323.41 52.8074 327.209 52.8074H336.066ZM334.197 59.089C334.197 58.8986 334.047 58.7484 333.857 58.7484H329.488C329.258 58.7484 329.148 58.8986 329.148 59.089V61.6437C329.148 61.7939 329.228 61.9843 329.488 61.9843H333.857C334.087 61.9843 334.197 61.7939 334.197 61.6437V59.089ZM330.288 41.9975C330.438 43.0594 330.668 44.8528 330.668 45.2335H332.417C332.607 44.6624 332.877 43.7908 333.027 41.9975H330.288ZM348.753 45.9548C348.943 45.4939 350.652 40.8153 350.652 40.124C350.652 39.8234 350.422 39.6331 350.162 39.6331H349.213C348.913 39.6331 348.753 39.8235 348.753 40.094V45.9548ZM348.753 58.7083C349.213 58.3676 349.592 58.2875 350.272 58.2474C350.802 58.2074 350.992 57.7164 350.992 56.384C350.992 52.8775 349.662 51.2045 348.753 50.1024V58.7083Z" fill="var(--fill-0, #F18904)"/>
</g>
<g id="Group_3">
<path id="Vector_17" d="M111.618 58.3582C114.008 58.3582 115.457 59.31 115.457 61.7845C115.457 64.2591 114.428 65.5215 111.618 65.5215H82.4363C80.1169 65.5215 78.5973 64.6097 78.5973 62.0951C78.5973 59.5805 79.5471 58.3582 82.4363 58.3582H98.6219C99.7615 54.9319 100.791 50.093 101.701 45.5246C102.001 43.8916 102.461 41.6374 105.69 41.6374C108.389 41.6374 109.829 43.4608 109.829 45.214C109.829 47.1175 106.71 57.3263 106.33 58.3482H111.608L111.618 58.3582ZM111.008 34.4141C113.368 34.4141 114.847 35.3258 114.847 37.8404C114.847 40.3551 113.858 41.5372 111.008 41.5372H83.1961C80.9167 41.5372 79.3571 40.6656 79.3571 38.1109C79.3571 35.5562 80.4568 34.4141 83.1961 34.4141H93.1134V33.1918C93.1134 31.2483 93.6432 29.6152 96.9123 29.6152C99.3017 29.6152 100.861 30.4167 100.861 33.1918V34.4141H111.008ZM92.8434 46.5164C93.9431 51.736 94.0931 53.9802 94.0931 54.6614C94.0931 57.707 91.2839 58.1679 90.2542 58.1679C86.9051 58.1679 86.6451 55.6933 86.3752 53.5193C86.1853 51.9163 85.7254 48.9108 85.5354 47.9991C85.0756 45.6047 85.0056 45.3342 85.0056 44.683C85.0056 42.2886 87.5149 41.6374 89.0345 41.6374C91.8037 41.6374 92.2636 43.7313 92.8334 46.5164H92.8434Z" stroke="var(--stroke-0, #386F6B)" stroke-width="0.631164"/>
<path id="Vector_18" d="M142.438 43.7822H150.156C150.916 43.7822 153.345 43.7821 153.345 47.1283C153.345 49.9836 151.675 50.5146 150.156 50.5146H142.438V58.2789H152.965C153.725 58.2789 156.154 58.3189 156.154 61.595C156.154 64.6005 154.675 65.2518 152.965 65.2518H122.833C121.734 65.2518 119.644 64.9512 119.644 61.9757C119.644 59.2306 120.784 58.2789 122.833 58.2789H124.623V42.8905C124.623 41.9388 124.733 39.7347 128.042 39.7347C131.041 39.7347 131.921 40.7967 131.921 42.8905V58.2789H135.15V37.4905H123.903C123.183 37.4905 120.714 37.4906 120.714 34.2145C120.714 31.3192 122.153 30.668 123.903 30.668H152.175C152.895 30.668 155.364 30.668 155.364 34.0542C155.364 36.8394 153.765 37.4805 152.175 37.4805H142.448V43.7621L142.438 43.7822Z" stroke="var(--stroke-0, #386F6B)" stroke-width="0.631164"/>
<path id="Vector_19" d="M164.417 44.9937C162.027 44.9937 160.578 44.0419 160.578 41.3369C160.578 38.9025 161.867 37.7603 164.417 37.7603H174.984V32.8513C174.984 30.6071 176.203 29.5352 178.443 29.5352C180.682 29.5352 182.392 30.1463 182.392 32.8513V37.7603H193.109C195.428 37.7603 196.988 38.7522 196.988 41.1866C196.988 43.6211 196.078 44.9937 193.109 44.9937H183.151C184.441 51.6559 188.36 55.6132 193.829 58.3984C195.048 59.0095 196.188 59.7709 196.188 61.7846C196.188 63.5379 194.938 66.0925 192.199 66.0925C189.96 66.0925 182.852 61.6343 178.743 53.3391C175.434 60.1917 168.405 65.9022 165.136 65.9022C162.817 65.9022 161.257 63.5078 161.257 61.5241C161.257 59.811 162.207 59.1298 163.347 58.4385C169.165 54.9721 172.504 52.1569 174.104 44.9937H164.417Z" stroke="var(--stroke-0, #386F6B)" stroke-width="0.631164"/>
<path id="Vector_20" d="M216.4 34.7945C216.32 34.6442 216.13 34.0732 215.98 33.7325C215.87 33.3919 215.68 32.891 215.68 32.2899C215.68 30.4966 217.81 29.625 219.779 29.625C221.449 29.625 222.168 30.1159 222.968 31.8691C223.238 32.4803 223.808 33.6624 223.958 34.8045H226.157C226.387 34.3838 226.577 33.963 227.187 32.2498C227.717 30.687 228.247 29.8154 230.266 29.8154C232.626 29.8154 234.555 31.0376 234.555 32.9011C234.555 33.5523 234.135 34.3136 233.835 34.8446C235.965 35.2654 236.834 37.239 236.834 39.7537V42.118C236.834 44.1317 236.155 45.885 232.656 45.5043C232.506 47.4879 231.516 48.089 230.646 48.63C228.787 49.8523 227.417 50.4935 226.697 50.8041H234.565C235.325 50.8041 238.024 50.8041 238.024 54C238.024 56.9654 235.855 57.2359 234.565 57.2359H223.358V61.2333C223.358 65.8818 221.379 66.4529 216.4 66.4529C211.951 66.4529 211.461 66.3427 210.851 66.0321C209.822 65.5712 209.252 64.1687 209.252 62.8362C209.252 60.6622 210.542 59.6002 212.561 59.6002C212.941 59.6002 214.54 59.6804 214.88 59.6403C215.72 59.5602 215.72 59.1494 215.72 58.2277V57.2359H204.583C203.823 57.2359 201.124 57.2359 201.124 54.1502C201.124 51.7157 202.344 50.8041 204.583 50.8041H215.75C215.83 50.3432 216.09 49.7721 217.16 49.3914C217.69 49.2011 218.339 48.9707 218.339 48.7102C218.339 48.5599 218.229 48.4096 218.04 48.4096H209.302C208.432 48.4096 206.563 48.4096 206.413 45.5143C203.454 45.8549 202.154 44.6026 202.154 42.1982V39.7637C202.154 38.321 202.234 35.4557 205.573 34.9247C205.343 34.4639 204.853 33.5923 204.853 32.7107C204.853 31.3382 206.523 29.8955 208.922 29.8955C210.062 29.8955 211.161 30.0057 212.301 32.33C212.601 32.9812 213.061 34.1233 213.211 34.8045H216.4V34.7945ZM209.222 42.2182H228.677C229.286 42.2182 229.356 42.2182 229.816 42.2583V41.2665C229.816 41.036 229.586 40.9659 229.476 40.9659H209.522C209.412 40.9659 209.222 41.0461 209.222 41.2665V42.2182Z" stroke="var(--stroke-0, #386F6B)" stroke-width="0.631164"/>
<path id="Vector_21" d="M245.782 41.6065C243.732 41.6065 242.093 40.765 242.093 38.3305C242.093 35.7057 243.123 34.4834 245.782 34.4834H256.689V33.191C256.689 31.6282 257.029 29.6445 260.148 29.6445C263.267 29.6445 264.177 30.5963 264.177 33.191V34.4834H275.044C277.133 34.4834 278.773 35.325 278.773 37.7995C278.773 40.2741 277.903 41.6065 275.044 41.6065H272.345C271.315 46.2551 269.345 51.2443 266.076 54.9712C268.396 56.2235 269.915 56.7244 275.464 58.4376C276.833 58.8584 278.353 59.4695 278.353 61.8639C278.353 64.078 276.913 65.9815 274.634 65.9815C272.654 65.9815 265.586 63.5069 260.458 59.9604C255.399 63.4268 248.751 65.9815 246.242 65.9815C244.112 65.9815 242.633 64.1181 242.633 61.8639C242.633 59.6097 243.812 58.9686 245.482 58.4777C250.84 56.8446 251.83 56.534 254.219 55.3218C254.519 55.1715 254.639 55.0914 254.869 54.9812C251.64 51.1742 249.621 46.4855 248.561 41.6166H245.792L245.782 41.6065ZM256.159 41.6065C256.619 43.4299 257.788 47.6177 260.448 50.6733C261.358 49.6414 263.107 47.5876 264.707 41.6065H256.159Z" stroke="var(--stroke-0, #386F6B)" stroke-width="0.631164"/>
<path id="Vector_22" d="M298.107 34.7945C298.027 34.6442 297.837 34.0732 297.687 33.7325C297.577 33.3919 297.387 32.891 297.387 32.2899C297.387 30.4966 299.516 29.625 301.486 29.625C303.155 29.625 303.875 30.1159 304.675 31.8691C304.945 32.4803 305.515 33.6624 305.665 34.8045H307.864C308.094 34.3838 308.284 33.963 308.894 32.2498C309.424 30.687 309.953 29.8154 311.973 29.8154C314.332 29.8154 316.262 31.0376 316.262 32.9011C316.262 33.5523 315.842 34.3136 315.542 34.8446C317.671 35.2654 318.541 37.239 318.541 39.7537V42.118C318.541 44.1317 317.861 45.885 314.362 45.5043C314.212 47.4879 313.222 48.089 312.353 48.63C310.493 49.8523 309.124 50.4935 308.404 50.8041H316.272C317.031 50.8041 319.731 50.8041 319.731 54C319.731 56.9654 317.561 57.2359 316.272 57.2359H305.065V61.2333C305.065 65.8818 303.085 66.4529 298.107 66.4529C293.658 66.4529 293.168 66.3427 292.558 66.0321C291.528 65.5712 290.959 64.1687 290.959 62.8362C290.959 60.6622 292.248 59.6002 294.268 59.6002C294.648 59.6002 296.247 59.6804 296.587 59.6403C297.427 59.5602 297.427 59.1494 297.427 58.2277V57.2359H286.29C285.53 57.2359 282.831 57.2359 282.831 54.1502C282.831 51.7157 284.05 50.8041 286.29 50.8041H297.457C297.537 50.3432 297.797 49.7721 298.866 49.3914C299.396 49.2011 300.046 48.9707 300.046 48.7102C300.046 48.5599 299.936 48.4096 299.746 48.4096H291.009C290.139 48.4096 288.269 48.4096 288.119 45.5143C285.16 45.8549 283.861 44.6026 283.861 42.1982V39.7637C283.861 38.321 283.94 35.4557 287.28 34.9247C287.05 34.4639 286.56 33.5923 286.56 32.7107C286.56 31.3382 288.229 29.8955 290.629 29.8955C291.768 29.8955 292.868 30.0057 294.008 32.33C294.308 32.9812 294.768 34.1233 294.918 34.8045H298.107V34.7945ZM290.929 42.2182H310.383C310.993 42.2182 311.063 42.2182 311.523 42.2583V41.2665C311.523 41.036 311.293 40.9659 311.183 40.9659H291.229C291.119 40.9659 290.929 41.0461 290.929 41.2665V42.2182Z" stroke="var(--stroke-0, #386F6B)" stroke-width="0.631164"/>
<path id="Vector_23" d="M344.214 48.1181C343.644 49.0298 342.994 49.2602 341.745 49.2602H326.549C324.879 49.2602 323.62 48.7292 323.62 45.9441C323.62 42.9385 325.629 42.9385 326.929 42.9385C326.819 42.1371 326.469 40.0833 326.359 39.5924C324.689 39.1716 324.31 37.4985 324.31 36.5067C324.31 33.7316 326.319 33.3509 327.539 33.3509H330.578V32.2889C330.578 30.0047 332.367 29.6641 334.227 29.6641C335.746 29.6641 337.346 30.195 337.346 32.2889V33.3509H340.655C342.704 33.3509 343.844 34.4128 343.844 36.5467C343.844 37.9193 343.164 39.2117 341.865 39.5523C341.565 40.9649 341.405 41.6061 341.025 42.9385H341.745C342.924 42.9385 343.564 43.1289 344.214 44.0406V35.7353C344.214 31.808 345.054 30.706 349.233 30.706H354.701C357.251 30.706 360.02 30.706 360.02 35.044C360.02 36.9074 359.53 38.4703 359.18 39.422C358.61 41.0951 357.62 43.3092 357.131 44.301C356.711 45.1025 356.671 45.1726 356.671 45.363C356.671 45.5934 356.751 45.6335 357.321 46.2747C358.99 48.0981 360.66 51.6045 360.66 55.8724C360.66 62.7651 356.171 62.7651 354.351 62.7651C351.842 62.7651 351.352 62.3443 351.042 62.0838V62.9254C351.042 65.5903 349.863 66.3918 347.353 66.3918C344.424 66.3918 344.204 64.2178 344.204 62.9254V48.1081L344.214 48.1181ZM338.356 50.5225C342.385 50.5225 342.994 51.8149 342.994 55.2011V61.1421C342.994 64.9491 342.125 65.8208 338.356 65.8208H329.498C325.929 65.8208 324.899 64.9792 324.899 61.1421V55.2011C324.899 51.6546 325.699 50.5225 329.498 50.5225H338.356ZM336.496 56.8041C336.496 56.6138 336.346 56.4635 336.156 56.4635H331.787C331.558 56.4635 331.448 56.6138 331.448 56.8041V59.3588C331.448 59.5091 331.528 59.6995 331.787 59.6995H336.156C336.386 59.6995 336.496 59.5091 336.496 59.3588V56.8041ZM332.577 39.7026C332.727 40.7645 332.957 42.5578 332.957 42.9385H334.707C334.897 42.3675 335.167 41.4959 335.317 39.7026H332.577ZM351.052 43.6599C351.242 43.199 352.952 38.5204 352.952 37.8291C352.952 37.5286 352.722 37.3382 352.462 37.3382H351.512C351.212 37.3382 351.052 37.5286 351.052 37.7991V43.6599ZM351.052 56.4234C351.512 56.0828 351.892 56.0026 352.572 55.9626C353.102 55.9225 353.292 55.4316 353.292 54.0991C353.292 50.5927 351.962 48.9196 351.052 47.8175V56.4234Z" stroke="var(--stroke-0, #386F6B)" stroke-width="0.631164"/>
</g>
<path id="Vector_24" d="M154.607 81.5597L154.257 81.2392C152.568 79.6963 151.168 78.3839 150.488 77.7327L150.458 77.7026L150.428 77.6825C150.428 77.6825 150.368 77.6425 150.348 77.6224C150.318 77.5924 150.288 77.5624 150.268 77.5323L150.248 77.5022C150.248 77.5022 149.918 77.1917 149.898 77.1616C149.179 76.5104 148.689 75.6989 148.499 74.8874C148.429 74.5668 148.399 74.2563 148.419 73.9557C148.459 73.4347 148.649 72.9739 148.989 72.6132L150.848 70.5594C151.368 69.9884 152.178 69.7179 153.087 69.808C153.947 69.8982 154.817 70.309 155.527 70.9502L170.713 84.7957C171.013 85.0662 171.302 85.3667 171.322 85.7675C171.322 85.8075 171.322 85.8476 171.322 85.8776C171.302 86.1081 171.203 86.3085 170.953 86.609L170.423 87.2302L171.232 87.13C171.572 87.0899 171.892 87.0098 172.182 86.9296C172.742 86.7894 173.192 86.6691 173.552 86.8795C173.612 86.9096 173.722 86.9797 174.392 87.691C174.412 87.711 174.432 87.7311 174.442 87.7611C175.411 89.2839 177.051 93.2814 177.371 94.0728L177.401 94.1429L179.13 95.7659C179.24 95.8661 179.29 96.0063 179.28 96.1466C179.28 96.2468 179.23 96.347 179.16 96.4271L177.531 98.2304C177.361 98.4208 177.071 98.4408 176.881 98.2805L175.091 96.7878L175.031 96.7678C174.242 96.5073 170.233 95.1848 168.533 94.3533C168.503 94.3433 168.483 94.3233 168.463 94.3132L167.673 93.7322C167.623 93.6921 167.573 93.642 167.544 93.5919C167.404 93.3615 167.404 93.071 167.454 92.5099L167.484 92.0991C167.504 91.8487 167.524 91.5782 167.524 91.3077V90.5463L166.984 91.0772C166.824 91.2275 166.694 91.3277 166.554 91.3978C165.994 91.6784 165.544 91.3778 165.154 91.0772L165.094 91.0171C164.684 90.6464 161.045 87.3604 157.406 84.0443L157.056 83.7237L154.617 81.5497L154.607 81.5597Z" fill="var(--fill-0, #F4C058)"/>
<g id="Group_4">
<path id="Vector_25" d="M178.559 97.7401C178.559 97.8403 178.509 97.9405 178.439 98.0207L176.81 99.824C176.64 100.014 176.35 100.034 176.16 99.8741L174.37 98.3813L174.31 98.3613C173.521 98.1008 169.512 96.7784 167.812 95.9468C167.782 95.9368 167.762 95.9167 167.742 95.9067L166.952 95.3257C166.902 95.2856 166.852 95.2355 166.823 95.1854C166.683 94.955 166.683 94.6645 166.733 94.1034L166.763 93.6927C166.783 93.4422 166.803 93.1717 166.803 92.9012V92.1398L166.263 92.6708C166.103 92.8211 165.973 92.9213 165.833 92.9914C165.273 93.2719 164.823 92.9713 164.433 92.6708L164.373 92.6107C163.963 92.24 160.324 88.9539 156.685 85.6378L156.335 85.3172L156.975 84.616L157.325 84.9365C160.804 88.1123 164.283 91.2582 164.933 91.8493L165.023 91.9294C165.093 91.9895 165.143 92.0196 165.173 92.0496L165.383 92.1999L165.573 92.0296C165.773 91.8493 166.103 91.4585 166.453 91.0378L166.573 90.8975L168.412 88.8738C168.752 88.443 169.032 88.1324 169.242 87.902C169.322 87.8118 169.402 87.7216 169.472 87.6415L169.672 87.4111L169.452 87.2007L169.352 87.1105L154.996 74.0164L150.617 78.8353L150.847 79.0557C151.597 79.767 152.786 80.869 154.176 82.1414L154.526 82.462L153.886 83.1633L153.536 82.8427C151.847 81.2998 150.447 79.9874 149.767 79.3362L149.737 79.3061L149.707 79.2861C149.707 79.2861 149.647 79.246 149.627 79.226C149.597 79.196 149.567 79.1659 149.547 79.1358L149.527 79.1058C149.527 79.1058 149.197 78.7952 149.177 78.7651C148.458 78.1139 147.968 77.3024 147.778 76.4909C147.708 76.1703 147.678 75.8598 147.698 75.5592C147.738 75.0383 147.928 74.5774 148.268 74.2168L150.127 72.1629C150.647 71.5919 151.457 71.3214 152.366 71.4116C153.226 71.5017 154.096 71.9125 154.806 72.5537L169.992 86.3992C170.292 86.6697 170.581 86.9703 170.601 87.371C170.601 87.4111 170.601 87.4512 170.601 87.4812C170.581 87.7116 170.482 87.912 170.232 88.2126L169.702 88.8337L170.512 88.7335C170.851 88.6935 171.171 88.6133 171.461 88.5331C172.021 88.3929 172.471 88.2727 172.831 88.4831C172.891 88.5131 173.001 88.5833 173.671 89.2946C173.691 89.3146 173.711 89.3346 173.721 89.3647C174.69 90.8875 176.33 94.8849 176.65 95.6763L176.68 95.7465L178.409 97.3694C178.519 97.4696 178.569 97.6099 178.559 97.7502V97.7401ZM175.16 96.1071L175.67 95.7465C175.13 94.434 173.791 91.2482 172.971 89.9257L172.951 89.8956L172.931 89.8757C172.771 89.7053 172.601 89.525 172.481 89.4048L172.361 89.2845L172.201 89.3146C172.061 89.3347 171.861 89.3847 171.701 89.4348C171.051 89.5951 170.172 89.8255 169.262 89.575L169.072 89.525L167.542 91.2081L167.592 91.3784C167.802 92.1599 167.772 92.9713 167.712 93.7428L167.682 94.1435C167.682 94.2537 167.662 94.3739 167.662 94.4741V94.6444L168.282 95.1053H168.312C169.762 95.8166 172.891 96.8785 174.171 97.3093L174.49 96.7684L171.551 94.1034L171.371 94.1635C170.961 94.2938 170.501 94.1936 170.192 93.9131C169.912 93.6526 169.762 93.2919 169.792 92.9112C169.812 92.6407 169.922 92.4003 170.102 92.1999C170.322 91.9594 170.621 91.8192 170.941 91.7992C171.261 91.7791 171.571 91.8893 171.811 92.1098C172.091 92.3702 172.241 92.7309 172.211 93.1116C172.211 93.1517 172.211 93.1817 172.201 93.2218L172.171 93.3921L175.18 96.1272L175.16 96.1071ZM170.611 92.9713C170.611 93.0915 170.651 93.2017 170.741 93.2819L170.841 93.3721H171.011C171.111 93.3721 171.201 93.332 171.271 93.2619L171.341 93.1817L171.361 93.0415C171.361 92.9313 171.321 92.811 171.241 92.7409C171.081 92.6007 170.851 92.6107 170.711 92.761L170.641 92.8411L170.621 92.9814L170.611 92.9713ZM148.647 75.6193C148.627 75.8698 148.667 76.1002 148.697 76.2505C148.837 76.8316 149.187 77.4327 149.697 77.9336L149.937 78.1641L154.306 73.3551L154.046 73.1448C153.506 72.694 152.876 72.4135 152.266 72.3433C151.917 72.3033 151.257 72.3133 150.827 72.7841L148.967 74.8379C148.777 75.0483 148.667 75.3088 148.647 75.6294V75.6193Z" fill="var(--fill-0, #3C3D3D)"/>
<path id="Vector_26" d="M155.852 83.3575L154.887 83.4766L155.003 84.4212L155.968 84.3021L155.852 83.3575Z" fill="var(--fill-0, #3C3D3D)"/>
</g>
</g>
</svg>
