<svg preserveAspectRatio="none" width="100%" height="100%" overflow="visible" style="display: block;" viewBox="0 0 251.387 274.23" fill="none" xmlns="http://www.w3.org/2000/svg">
<g id="Group">
<g id="Group_2">
<path id="Vector" d="M216.178 175.762C215.224 176.36 214.692 177.565 214.531 179.244C208.356 195.013 197.019 206.085 188.565 212.615C188.454 212.677 188.354 212.759 188.263 212.852C182.319 217.405 177.861 219.681 177.8 219.722C175.109 221.411 176.013 229.219 180.502 236.748C184.99 244.277 191.356 248.654 194.047 246.965C194.067 246.955 194.449 246.687 195.142 246.244C196.547 250.889 200.122 254.876 200.684 255.277C200.795 255.36 201.347 255.174 202.19 254.824C206.578 261.9 213.396 269.841 219.722 273.498C221.379 273.694 227.554 264.568 226.781 263.62C222.684 260.726 216.529 254.216 212.734 249.447C214.119 248.644 215.134 248.006 215.344 247.748C216.047 246.893 212.523 240.6 211.157 238.231C217.031 235.934 224.161 233.802 232.093 232.71C232.123 232.731 232.143 232.751 232.173 232.772L232.133 232.7C236.652 232.082 241.421 231.804 246.382 232.02C247.707 232.463 248.832 232.463 249.685 231.927C253.953 229.25 249.916 214.5 240.668 198.988C231.42 183.477 220.455 173.074 216.188 175.752L216.178 175.762Z" fill="var(--fill-0, #F4C058)"/>
<path id="Vector_2" d="M217.355 273.818C216.883 274.117 216.432 274.272 216.03 274.22C215.889 274.2 215.759 274.158 215.628 274.086C208.62 270.028 201.611 261.314 197.735 255.083C197.424 254.578 197.564 253.909 198.056 253.589C198.538 253.28 199.201 253.414 199.512 253.919C203.187 259.821 209.744 268.03 216.291 271.985C216.291 271.985 216.301 271.985 216.311 271.975C217.717 271.089 221.583 265.682 222.145 263.817C217.958 260.707 211.983 254.352 208.328 249.758C207.957 249.294 208.027 248.615 208.479 248.244C208.921 247.863 209.594 247.935 209.965 248.398C213.66 253.033 219.765 259.512 223.802 262.375C223.882 262.427 223.952 262.499 224.013 262.571C224.645 263.344 224.254 264.507 223.46 266.011C223.42 266.083 219.996 272.16 217.355 273.818Z" fill="var(--fill-0, #4C4B4C)"/>
<path id="Vector_3" d="M211.069 249.2C209.241 250.343 206.299 251.898 204.813 252.671C197.463 256.482 197.061 256.204 196.519 255.813C195.856 255.349 192.071 251.188 190.564 246.213C190.394 245.647 190.705 245.039 191.257 244.864C191.81 244.689 192.402 245.008 192.573 245.574C193.717 249.355 196.459 252.764 197.453 253.783C199.632 253.052 209.04 248.16 210.797 246.831C210.617 245.873 209.321 242.989 206.681 238.426C206.379 237.911 206.55 237.262 207.052 236.943C207.554 236.634 208.197 236.809 208.498 237.324C213.84 246.563 213.087 247.48 212.585 248.088C212.374 248.345 211.812 248.736 211.079 249.21L211.069 249.2Z" fill="var(--fill-0, #4C4B4C)"/>
<path id="Vector_4" d="M243.348 232.587C243.177 232.69 242.977 232.751 242.756 232.741C215.223 231.526 193.494 245.843 191.104 247.48C187.6 249.674 180.741 244.833 176.042 236.954C171.343 229.074 170.268 220.597 173.692 218.445C173.713 218.434 173.803 218.383 173.823 218.373C176.474 216.962 200.081 203.829 210.001 178.492C210.222 177.935 210.835 177.668 211.367 177.894C211.909 178.121 212.17 178.749 211.949 179.295C201.748 205.354 177.518 218.836 174.787 220.289C172.97 221.432 173.441 228.456 177.839 235.831C182.238 243.206 188.112 246.831 189.939 245.688C192.379 244.009 214.65 229.342 242.856 230.588C243.438 230.609 243.89 231.114 243.86 231.711C243.84 232.082 243.649 232.401 243.358 232.587H243.348Z" fill="var(--fill-0, #4C4B4C)"/>
<path id="Vector_5" d="M202.278 241.239C198.523 243.598 191.906 237.16 187.588 229.92C183.27 222.668 180.7 213.697 184.455 211.349C184.947 211.04 185.6 211.194 185.901 211.709C186.202 212.224 186.052 212.884 185.549 213.193C183.883 214.233 184.545 220.681 189.385 228.797C194.225 236.913 199.517 240.446 201.184 239.406C201.676 239.097 202.328 239.251 202.629 239.766C202.931 240.281 202.78 240.94 202.278 241.249V241.239Z" fill="var(--fill-0, #4C4B4C)"/>
<path id="Vector_6" d="M246.662 232.505C241.059 236.027 229.12 222.977 220.735 208.918C212.351 194.859 206.467 178.018 212.07 174.496C217.673 170.973 229.612 184.023 237.996 198.083C246.381 212.142 252.265 228.982 246.662 232.505ZM213.164 176.329C209.931 178.358 212.984 191.779 222.523 207.785C232.072 223.791 242.324 232.69 245.557 230.661C248.79 228.632 245.738 215.222 236.199 199.205C226.65 183.199 216.398 174.3 213.164 176.329Z" fill="var(--fill-0, #4C4B4C)"/>
<path id="Vector_7" d="M229.153 233.338C228.792 233.565 228.33 233.554 227.968 233.276C222.667 229.167 216.903 222.255 212.163 214.294C207.424 206.332 204.402 198.864 203.086 192.272C202.966 191.685 203.337 191.119 203.91 190.995C204.482 190.872 205.034 191.253 205.155 191.84C206.43 198.195 209.563 205.776 213.971 213.171C218.58 220.906 224.153 227.611 229.254 231.556C229.715 231.917 229.806 232.597 229.454 233.07C229.374 233.184 229.274 233.276 229.163 233.338H229.153Z" fill="var(--fill-0, #4C4B4C)"/>
<path id="Vector_8" d="M235.213 214.954C232.422 216.705 227.562 210.247 225.122 206.168C222.682 202.079 219.308 194.704 222.09 192.953C224.881 191.203 229.741 197.65 232.181 201.739C234.621 205.828 238.005 213.213 235.213 214.954ZM223.194 194.808C222.812 195.632 223.716 199.679 226.909 205.035C230.102 210.391 233.205 213.059 234.099 213.09C234.48 212.266 233.577 208.218 230.384 202.862C227.19 197.506 224.088 194.838 223.194 194.808Z" fill="var(--fill-0, #4C4B4C)"/>
<path id="Vector_9" d="M217.775 200.442C217.353 200.709 216.801 200.637 216.459 200.256C216.068 199.824 216.088 199.133 216.519 198.732C216.56 198.701 220.074 195.353 221.851 193.149C222.223 192.696 222.885 192.624 223.337 193.005C223.789 193.386 223.849 194.066 223.478 194.529C221.61 196.837 218.106 200.174 217.955 200.318C217.905 200.369 217.845 200.411 217.785 200.452L217.775 200.442Z" fill="var(--fill-0, #4C4B4C)"/>
<path id="Vector_10" d="M235.245 214.944C235.145 215.006 235.044 215.047 234.924 215.078C232.203 215.696 227.694 217.385 227.654 217.406C227.112 217.612 226.499 217.323 226.309 216.767C226.108 216.211 226.389 215.593 226.931 215.387C227.122 215.315 231.61 213.636 234.472 212.977C235.045 212.843 235.607 213.214 235.727 213.79C235.828 214.254 235.627 214.707 235.245 214.944Z" fill="var(--fill-0, #4C4B4C)"/>
</g>
<g id="Group_3">
<path id="Vector_11" d="M80.241 112.152V101.893" stroke="var(--stroke-0, #236242)" stroke-width="1.94668" stroke-linecap="round" stroke-linejoin="round"/>
<path id="Vector_12" d="M80.241 88.7184V78.4598" stroke="var(--stroke-0, #236242)" stroke-width="1.94668" stroke-linecap="round" stroke-linejoin="round"/>
<path id="Vector_13" d="M96.6675 95.3108H86.6665" stroke="var(--stroke-0, #236242)" stroke-width="1.94668" stroke-linecap="round" stroke-linejoin="round"/>
<path id="Vector_14" d="M73.8106 95.3108H63.8196" stroke="var(--stroke-0, #236242)" stroke-width="1.94668" stroke-linecap="round" stroke-linejoin="round"/>
<path id="Vector_15" d="M91.856 83.3934L84.787 90.6445" stroke="var(--stroke-0, #236242)" stroke-width="1.94668" stroke-linecap="round" stroke-linejoin="round"/>
<path id="Vector_16" d="M75.6998 99.9653L68.6308 107.216" stroke="var(--stroke-0, #236242)" stroke-width="1.94668" stroke-linecap="round" stroke-linejoin="round"/>
<path id="Vector_17" d="M91.856 107.216L84.787 99.9653" stroke="var(--stroke-0, #236242)" stroke-width="1.94668" stroke-linecap="round" stroke-linejoin="round"/>
<path id="Vector_18" d="M75.6998 90.6445L68.6308 83.3934" stroke="var(--stroke-0, #236242)" stroke-width="1.94668" stroke-linecap="round" stroke-linejoin="round"/>
</g>
<path id="Vector_19" d="M55.5172 237.738C55.3866 237.738 55.246 237.707 55.1256 237.645C54.9348 237.552 54.8143 237.449 54.7139 237.305C54.5934 237.13 51.8622 233.185 47.5445 229.786C43.287 226.439 39.0095 224.75 34.8324 224.75C33.3764 224.75 31.9204 224.956 30.4845 225.368C30.4042 225.388 30.3138 225.398 30.2335 225.398C29.8218 225.398 29.4503 225.11 29.3398 224.698C29.2394 224.327 29.3599 223.936 29.6511 223.699L30.7757 222.772L29.3499 222.556C29.2595 222.545 29.1691 222.515 29.0888 222.473L28.1851 221.958L28.0947 222.978C28.0947 223.297 27.924 223.586 27.663 223.761C27.5123 223.864 27.3416 223.915 27.1609 223.915C26.8396 223.915 26.5484 223.75 26.3777 223.472C23.0239 218.086 17.913 214.388 11.1854 212.493C7.18901 211.37 3.75493 211.246 2.46966 211.246C2.10818 211.246 1.8973 211.246 1.88726 211.257H1.86719C1.71657 211.257 1.61615 211.236 1.51574 211.205L1.33501 211.143L1.15427 211.195C1.07394 211.216 0.993603 211.226 0.923315 211.226C0.792779 211.226 0.652219 211.195 0.531725 211.133C0.0698307 210.907 -0.130995 210.34 0.0899106 209.866L17.6017 171.53C17.7523 171.201 18.0837 170.984 18.4452 170.984C18.5858 170.984 18.7163 171.015 18.8368 171.077C19.2987 171.303 19.4995 171.87 19.2886 172.344L2.38932 209.331L3.34324 209.362C5.23098 209.423 8.18308 209.691 11.587 210.639C17.0996 212.173 21.6784 214.913 25.1728 218.776L26.1367 217.952C25.4037 216.942 24.5301 215.943 23.526 214.985C23.1545 214.625 23.1344 214.027 23.4859 213.636C23.6666 213.44 23.9076 213.337 24.1687 213.337C24.3996 213.337 24.6306 213.43 24.8013 213.595C26.448 215.171 27.7834 216.85 28.7675 218.57L29.37 219.62L37.7443 201.286C37.8949 200.957 38.2263 200.741 38.5878 200.741C38.7283 200.741 38.8589 200.771 38.9794 200.833C39.2003 200.936 39.371 201.132 39.4613 201.369C39.5417 201.606 39.5316 201.863 39.4312 202.1L31.1272 220.279L32.3421 220.032C33.7881 219.734 35.2943 219.579 36.8205 219.579C37.1619 219.579 37.5133 219.579 37.8648 219.6C41.5298 219.764 47.0525 220.939 52.5651 225.584L53.1876 226.109L68.3599 192.892L67.8478 192.604C62.6163 189.606 58.2484 188.216 56.1197 187.649L55.6176 187.515L46.0785 208.414C45.9379 208.723 45.6467 208.929 45.3254 208.96C45.3254 208.96 45.3254 208.96 45.3154 208.96C44.9438 208.96 44.6627 208.816 44.492 208.568L43.0059 206.447L40.6462 207.168C40.5558 207.199 40.4755 207.209 40.3851 207.209C40.114 207.209 39.863 207.085 39.6822 206.879C39.4412 206.591 39.3911 206.189 39.5417 205.849L48.3277 186.609L47.173 186.784C46.9922 186.815 46.8215 186.836 46.681 186.867L46.3596 186.928L42.3934 195.611C42.2427 195.941 41.9114 196.157 41.5499 196.157C41.4194 196.157 41.2788 196.126 41.1583 196.064C40.9374 195.961 40.7667 195.766 40.6763 195.529C40.596 195.292 40.606 195.034 40.7064 194.798L44.6426 186.177L44.4217 185.867C39.2605 178.802 29.37 174.414 25.3535 172.848L24.8112 172.642L10.101 204.84L10.7336 205.087C11.9285 205.551 13.8061 206.333 15.9248 207.446C16.1457 207.559 16.3064 207.755 16.3867 208.002C16.467 208.239 16.447 208.507 16.3365 208.733C16.1759 209.053 15.8646 209.259 15.5031 209.259C15.3525 209.259 15.2119 209.228 15.0814 209.155C11.5469 207.312 8.66506 206.375 8.54456 206.333C8.28349 206.251 8.07265 206.055 7.97224 205.808C7.86179 205.561 7.87183 205.273 7.97224 205.015L23.3252 171.407L23.4055 171.262L23.4658 171.17V171.097C23.6164 170.747 23.9477 170.521 24.3192 170.521C24.4196 170.521 24.5101 170.541 24.6105 170.572C25.2029 170.768 39.15 175.516 45.8977 184.735L46.1287 185.054L46.5103 184.982C47.2332 184.848 48.398 184.693 49.8238 184.693C51.6614 184.693 53.4688 184.951 55.1958 185.445C55.2561 185.466 55.3163 185.486 55.3766 185.517L55.4469 185.559L55.5272 185.579C59.8349 186.558 64.986 188.721 69.6652 191.502C69.7154 191.532 69.7756 191.574 69.8158 191.615L69.876 191.677L69.9564 191.718C70.4082 191.944 70.609 192.511 70.3881 192.974L54.5632 227.623C54.5231 227.716 54.4629 227.798 54.3926 227.881L54.3223 227.963L54.2821 228.056C54.242 228.149 54.1817 228.231 54.1214 228.313C53.9407 228.509 53.6997 228.612 53.4487 228.612C53.2077 228.612 52.9868 228.519 52.8161 228.354C46.942 222.71 40.8771 221.526 36.8105 221.526C36.208 221.526 35.5955 221.557 34.993 221.608L35.0332 222.885C39.6321 222.947 44.241 224.791 48.7595 228.354C51.4104 230.445 53.4587 232.701 54.7139 234.226L55.3465 234.988L72.2056 198.073C72.3562 197.743 72.6876 197.527 73.0491 197.527C73.1897 197.527 73.3202 197.558 73.4407 197.62C73.9026 197.846 74.1034 198.413 73.8825 198.887L56.3707 237.223C56.2201 237.552 55.8887 237.769 55.5272 237.769L55.5172 237.738ZM43.3573 204.397C43.6586 204.397 43.9397 204.541 44.1104 204.799L45.0543 206.148L53.7901 187.021L52.9868 186.877C52.2638 186.743 51.5208 186.661 50.7878 186.619L50.366 186.599L42.1925 204.5L43.277 204.407H43.3573V204.397Z" fill="var(--fill-0, #3C3D3D)"/>
<path id="Vector_20" d="M103.818 2.83756L104.632 9.04842L110.074 11.8706L104.581 14.5898L103.637 20.7697L99.4202 16.2377L93.3955 17.2368L96.2974 11.7264L93.506 6.15409L99.5106 7.27675L103.818 2.83756Z" fill="var(--fill-0, #E7D56D)"/>
<path id="Vector_21" d="M101.718 0.438016L102.531 6.63844L107.974 9.47091L102.481 12.1798L101.537 18.3597L97.3199 13.8381L91.2952 14.8269L94.1971 9.31651L91.4056 3.74424L97.4103 4.86689L101.718 0.438016Z" stroke="var(--stroke-0, #020B18)" stroke-width="0.876006" stroke-linecap="round" stroke-linejoin="round"/>
<path id="Vector_22" d="M154.766 107.02L159.315 134.315L134.001 124.705L154.766 107.02Z" fill="var(--fill-0, #70B791)"/>
<path id="Vector_23" d="M157.268 111.068L161.817 138.363L136.503 128.753L157.268 111.068Z" stroke="var(--stroke-0, #020B18)" stroke-width="0.986317" stroke-linecap="round" stroke-linejoin="round"/>
</g>
</svg>
