<svg preserveAspectRatio="none" width="100%" height="100%" overflow="visible" style="display: block;" viewBox="0 0 60.7522 65.0897" fill="none" xmlns="http://www.w3.org/2000/svg">
<g id="Group">
<path id="Vector" d="M58.522 53.4817C55.4494 45.2315 41.8637 48.3833 39.3635 41.9356C44.3539 28.3809 36.8029 20.9135 29.6335 23.2722C22.4741 25.6309 20.5664 36.2088 32.3145 44.2531C33.9412 50.9892 21.0986 56.5408 23.2875 65.0897" fill="var(--fill-0, #F4C058)"/>
<path id="Vector_2" d="M20.2416 63.0097C19.7898 63.0097 19.3781 62.7007 19.2576 62.2372C17.9623 57.1697 21.316 53.1424 24.2782 49.589C26.5475 46.8698 28.6962 44.2845 28.3448 41.7611C22.2699 37.4763 19.1974 32.0586 19.9103 26.8468C20.4124 23.1801 22.7921 20.3166 26.2764 19.163C29.7607 18.0095 33.3253 18.9262 35.8054 21.6144C39.3399 25.4254 39.9122 31.6672 37.4019 38.7844C38.5466 41.0504 41.7598 41.864 45.1537 42.7189C49.5819 43.8416 54.6025 45.1085 56.42 50.001C56.6208 50.5366 56.3597 51.134 55.8375 51.34C55.3154 51.546 54.7331 51.2781 54.5322 50.7425C53.0964 46.8698 48.8087 45.7883 44.6818 44.7377C40.7858 43.749 36.7493 42.7293 35.3837 39.2067C35.2933 38.9698 35.2832 38.702 35.3837 38.4548C37.7433 32.0483 37.3617 26.2906 34.3594 23.0461C32.4215 20.9552 29.6402 20.2446 26.919 21.151C24.1979 22.0471 22.3301 24.2822 21.9486 27.1353C21.3461 31.5539 24.2982 36.467 29.851 40.2676C30.0618 40.4118 30.2125 40.6281 30.2727 40.8856C31.1564 44.5627 28.4552 47.8071 25.8445 50.9383C23.0732 54.2549 20.2115 57.695 21.2357 61.7119C21.3763 62.2681 21.055 62.8346 20.5127 62.9788C20.4224 62.9994 20.342 63.0097 20.2517 63.0097H20.2416Z" fill="var(--fill-0, #4C4B4C)"/>
<path id="Vector_3" d="M16.8859 64.5132C15.7713 64.5132 14.727 63.782 14.3756 62.6387L0.127069 17.1131C-0.0837952 16.423 -0.033555 15.6917 0.287763 15.0531C0.60908 14.4145 1.16137 13.9305 1.82409 13.7142L43.0631 0.128571C44.4488 -0.324624 45.935 0.458243 46.3768 1.87963L60.6251 47.3948C60.836 48.0849 60.7858 48.8162 60.4644 49.4548C60.1431 50.0933 59.601 50.5775 58.9282 50.7938L17.6891 64.3793C17.418 64.4617 17.157 64.5132 16.8859 64.5132ZM43.6857 2.11651L2.44664 15.702C2.29602 15.7535 2.16551 15.8668 2.09522 16.011C2.02493 16.1552 2.00481 16.3303 2.05502 16.4848L16.3034 62.0104C16.4038 62.34 16.7452 62.5151 17.0665 62.4121L58.3057 48.8265C58.4563 48.775 58.5868 48.6616 58.6571 48.5174C58.7274 48.3732 58.7475 48.1982 58.6973 48.0437L44.4488 2.52853C44.3484 2.19893 43.997 2.02382 43.6857 2.12682V2.11651Z" fill="var(--fill-0, #4C4B4C)"/>
</g>
</svg>
