<svg preserveAspectRatio="none" width="100%" height="100%" overflow="visible" style="display: block;" viewBox="0 0 104.128 33.0935" fill="none" xmlns="http://www.w3.org/2000/svg">
<g id="Group">
<path id="Vector" d="M13.7665 2.12118V2.08007C13.7665 0.977982 14.63 0.421677 15.4936 0.421677C16.3571 0.421677 17.2909 1.00884 17.321 2.03883V5.79831C19.5502 5.79831 21.7793 5.83946 23.9984 5.87036C26.5891 5.94246 28.0952 7.3845 28.2358 9.40328C28.3061 10.32 28.3462 11.2469 28.3462 12.0915C28.3462 12.9361 28.3061 13.8219 28.2358 14.6665C28.0952 16.4381 26.6594 17.911 24.0688 18.014C21.9099 18.0861 19.51 18.1272 17.1002 18.1272C16.8491 20.6301 16.3069 22.8445 15.3027 24.7603C18.6063 26.8203 23.2353 28.2623 29.3103 28.2623C30.2842 28.2623 30.8164 29.076 30.8164 29.9618C30.8164 31.9497 28.7379 31.9497 28.1555 31.9497C22.3718 31.9497 17.311 30.1781 13.4351 27.4589C9.40859 31.8466 2.01826 32.5059 1.86764 32.5059C0.682785 32.5059 0 31.6201 0 30.7343C0 29.9927 0.502083 29.2202 1.65682 29.076C6.07494 28.4477 8.94667 27.2014 10.7742 25.2856C10.0211 24.5852 9.33836 23.854 8.72584 23.0712C6.28584 25.8007 5.28174 25.8315 5.101 25.8315C4.20733 25.8315 3.44418 25.0179 3.44418 24.1733C3.44418 23.6171 3.73541 23.03 4.4885 22.5871C6.03484 21.6704 7.14938 20.3727 7.72173 19.3118C7.93259 18.9101 8.33418 18.7246 8.79608 18.7246C9.58933 18.7246 10.5231 19.3529 10.5231 20.1563V20.2696C11.0654 21.0833 11.7482 21.8558 12.5314 22.6283C13.1037 21.3408 13.4251 19.8267 13.6058 18.1376C11.196 18.0964 8.89653 18.0964 6.95859 18.0243C4.1571 17.9522 2.9019 16.5926 2.76132 14.6768C2.72116 13.9043 2.69109 12.9464 2.69109 11.9886C2.69109 11.0307 2.7312 10.0316 2.76132 9.3003C2.9019 7.38452 4.12702 5.95276 7.24982 5.87036C9.33839 5.82916 11.5574 5.79831 13.7865 5.79831L13.7464 2.11087L13.7665 2.12118ZM13.8066 8.89859C11.6176 8.89859 9.56928 8.93973 7.95265 8.97063C6.29586 8.97063 6.2256 9.92858 6.2256 11.9886C6.2256 12.5448 6.22552 13.1318 6.26568 13.6056C6.37614 15.0785 6.76779 15.1196 13.8468 15.1196C13.8468 13.9455 13.8066 11.4324 13.8066 8.89859ZM17.2508 15.1196C24.1792 15.1196 24.6813 15.1197 24.7917 13.6056C24.8319 13.1318 24.862 12.5757 24.862 11.9886C24.862 9.59898 24.7917 9.00153 23.1048 8.97063C21.448 8.92943 19.3695 8.89859 17.291 8.89859C17.291 11.4736 17.2508 13.9866 17.2508 15.1196Z" fill="var(--fill-0, #236242)"/>
<path id="Vector_2" d="M55.8466 23.1541C55.9169 23.6691 55.957 24.2253 55.957 24.7712C55.957 28.0877 54.4509 33.0935 48.1952 33.0935C45.3937 33.0935 43.8877 32.321 43.8877 30.879C43.8877 29.9624 44.5704 29.1486 45.5745 29.1486C45.7552 29.1486 45.9361 29.1487 46.1469 29.2208C46.9402 29.4783 47.7635 29.6225 48.5166 29.6225C52.5431 29.6225 52.5431 24.6888 52.5431 24.3901C52.5431 23.9472 52.503 23.5455 52.4327 23.1335L37.2002 23.2057C36.0856 23.2057 35.5534 22.3919 35.5534 21.5885C35.5534 20.7851 36.1258 19.889 37.17 19.889L50.4545 19.9612C50.0227 19.6625 49.5609 19.3741 49.0187 19.1887C48.2656 18.9312 47.9442 18.447 47.9442 17.9733C47.9442 17.2008 48.7676 16.4283 49.8521 16.4283C50.6453 16.4283 51.3984 16.8299 51.9707 17.1698C52.9046 16.5415 54.8125 15.182 54.8125 14.7391C54.8125 14.5949 54.6719 14.5228 54.4208 14.5228C54.0292 14.4816 53.3464 14.4816 52.513 14.4816C50.2136 14.4816 46.7293 14.5537 44.219 14.667H44.1487C43.0743 14.667 42.532 13.8945 42.532 13.122C42.532 12.3496 43.0742 11.608 44.1888 11.5771C45.7352 11.505 47.6731 11.5049 49.5809 11.5049C52.2017 11.5049 54.8224 11.5462 56.4792 11.5771C58.5276 11.6183 59.3912 12.6791 59.3912 13.8224C59.3912 15.6248 57.4834 17.139 54.2601 19.199C54.4409 19.4565 54.6216 19.714 54.7622 19.9715L65.4661 19.8582C66.5104 19.8582 67.0425 20.7027 67.0425 21.5576C67.0425 22.4125 66.5404 23.1747 65.4962 23.1747L55.8768 23.1335L55.8466 23.1541ZM61.781 11.3608C61.781 9.81582 60.9877 9.55829 59.5217 9.51709C56.6499 9.47589 53.4167 9.44492 50.2939 9.44492C47.7435 9.44492 45.2332 9.48619 43.004 9.51709C41.0259 9.55829 40.7046 10.0733 40.5941 11.3608V13.5341C40.5941 14.5641 39.7004 15.1511 38.7666 15.1511C37.9432 15.1511 37.0797 14.6361 37.0395 13.4928C37.0395 13.019 36.9993 12.4629 36.9993 11.8758C36.9993 11.2475 37.0395 10.6192 37.0395 10.0733C37.1098 8.34294 38.4453 6.5713 41.2368 6.5404L44.2491 6.49916C44.0684 6.38586 43.9277 6.20047 43.7871 5.98417C43.0341 4.69668 42.2408 4.21263 41.2769 3.32684C40.9555 3.02815 40.815 2.6985 40.815 2.3689C40.815 1.55521 41.7087 0.782802 42.6426 0.782802C44.0082 0.782802 46.8096 3.58434 46.8096 4.87183C46.8096 5.53102 46.3477 6.15926 45.7654 6.48885C48.9283 6.44765 52.051 6.44774 55.214 6.44774C56.2583 5.23235 57.1922 3.10018 57.7645 1.5861C58.0858 0.741506 58.7385 0.412021 59.3811 0.412021C60.3852 0.412021 61.4296 1.18451 61.4296 2.2145C61.4296 2.91489 60.2849 4.71727 58.8088 6.48885C59.6322 6.48885 60.4957 6.53009 61.3191 6.53009C63.4378 6.57129 65.4159 7.74551 65.4862 10.0321C65.5264 10.5471 65.5263 11.3195 65.5263 12.0199C65.5263 12.5349 65.5264 13.019 65.4862 13.3795C65.4159 14.4507 64.4821 14.9966 63.5784 14.9966C62.6747 14.9966 61.781 14.4816 61.781 13.4516V11.3505V11.3608ZM51.6093 6.31384C51.1072 6.31384 50.6353 6.05635 50.3843 5.42806C49.8822 4.06848 49.089 3.2547 48.2656 2.25562C48.0547 1.99812 47.9442 1.69951 47.9442 1.44201C47.9442 0.669518 48.8379 0 49.7718 0C51.5993 0 53.5773 3.61522 53.5773 4.45981C53.5773 5.4589 52.533 6.30353 51.5992 6.30353L51.6093 6.31384Z" fill="var(--fill-0, #236242)"/>
<path id="Vector_3" d="M81.3549 31.332C81.3549 32.362 80.4913 32.877 79.5977 32.877C78.704 32.877 77.8405 32.362 77.8405 31.332V31.2909L77.9811 19.5799C76.756 21.5678 75.3201 23.4115 74.0348 24.8535C73.6031 25.2964 73.1412 25.5127 72.6692 25.5127C71.6953 25.5127 70.8418 24.668 70.8418 23.7822C70.8418 23.3393 71.0225 22.9377 71.4543 22.5257C73.3923 20.7541 76.3042 17.1491 78.0213 13.7605L77.9811 12.988L73.7838 13.1013H73.7437C72.6693 13.1013 72.1672 12.3287 72.1672 11.515C72.1672 10.7013 72.7094 9.89801 73.7838 9.89801H77.9509L77.8807 6.25181C77.1979 6.36511 74.788 6.80804 74.3964 6.80804C73.322 6.80804 72.7497 5.96347 72.7497 5.14978C72.7497 4.41849 73.2115 3.67685 74.1855 3.56356C77.5593 3.23396 79.9993 2.64688 83.092 1.39029C83.3029 1.31819 83.4837 1.27701 83.6644 1.27701C84.5982 1.27701 85.281 2.09072 85.281 2.96621C85.281 4.25369 83.9154 4.73772 81.3348 5.46901C81.2946 6.2415 81.2947 7.89982 81.2646 9.8877H84.9296C86.004 9.8877 86.5462 10.7013 86.5462 11.5047C86.5462 12.3081 86.0039 13.091 84.9697 13.091H84.9296L81.1942 13.0189V14.8214C81.3348 14.7802 81.4453 14.7801 81.5558 14.7801C82.8812 14.7801 85.8333 17.4376 86.004 17.6539C86.3654 18.0556 86.506 18.4675 86.506 18.9104C86.506 19.8271 85.753 20.682 84.9296 20.682C84.538 20.682 84.1363 20.4966 83.7849 20.0537C83.1724 19.24 82.0979 18.3234 81.2042 17.6642C81.2444 23.2261 81.385 31.2909 81.385 31.2909V31.332H81.3549ZM95.2518 22.9685L86.6667 25.4405C86.4558 25.5126 86.275 25.5127 86.0943 25.5127C85.1203 25.5127 84.5881 24.7401 84.5881 23.9265C84.5881 23.2673 84.9798 22.5977 85.8132 22.3402L95.2619 19.6107L95.1917 2.15248C95.1917 1.08129 96.015 0.566253 96.8785 0.566253C97.7421 0.566253 98.6357 1.12249 98.6357 2.15248L98.5655 18.6942L102.08 17.6642C102.261 17.623 102.441 17.592 102.582 17.592C103.516 17.592 104.128 18.4366 104.128 19.2503C104.128 19.8786 103.767 20.5069 102.984 20.7232L98.5655 21.9798L98.6357 31.4454C98.6357 32.4033 97.7722 32.8873 96.9087 32.8873C96.0451 32.8873 95.1816 32.4136 95.1816 31.4454L95.2518 22.9685ZM90.5124 17.3654C89.4682 16.2633 88.0021 15.2642 87.2089 14.7492C86.7068 14.4505 86.496 14.0179 86.496 13.6059C86.496 12.8747 87.2089 12.1331 88.2532 12.1331C89.5083 12.1331 92.0989 14.0489 92.7415 14.7081C93.1733 15.151 93.3542 15.6248 93.3542 16.1089C93.3542 17.108 92.6011 17.9525 91.7074 17.9525C91.3158 17.9525 90.9141 17.7671 90.5225 17.3654H90.5124ZM90.7936 9.55816C89.9 8.34277 88.5344 7.16856 87.701 6.57117C87.3094 6.27247 87.1286 5.94282 87.1286 5.61322C87.1286 4.84073 87.9921 4.06824 88.926 4.06824C89.8598 4.06824 93.7056 6.57108 93.7056 8.41476C93.7056 9.44475 92.9123 10.2894 92.0488 10.2894C91.617 10.2894 91.1852 10.0731 90.7936 9.54785V9.55816Z" fill="var(--fill-0, #236242)"/>
</g>
</svg>
