<svg preserveAspectRatio="none" width="100%" height="100%" overflow="visible" style="display: block;" viewBox="0 0 104.357 33.0935" fill="none" xmlns="http://www.w3.org/2000/svg">
<g id="Group">
<path id="Vector" d="M29.0492 10.515L23.406 10.4017C22.7935 14.8204 20.9259 19.0947 18.1646 22.6688C21.1468 25.4703 25.0226 27.4171 29.6215 28.2307C30.6959 28.4161 31.1678 29.1887 31.1678 29.9612C31.1678 31.0633 30.3444 32.2065 29.009 32.2065C28.7579 32.2065 21.9702 31.434 15.9053 25.2437C9.3685 31.9078 2.21917 32.6804 2.07859 32.6804C0.78328 32.6804 0 31.6504 0 30.6204C0 29.8479 0.502167 29.0753 1.61674 28.89C6.32605 28.0763 10.4128 25.7588 13.5356 22.5144C12.0596 20.5574 10.8446 18.4664 9.91076 16.252C7.17956 18.8269 6.24572 18.9094 5.88424 18.9094C4.83995 18.9094 4.01647 18.0648 4.01647 17.1069C4.01647 16.4065 4.40809 15.7061 5.41221 15.1499C7.20958 14.1508 8.92667 12.4926 9.60947 11.2875C9.8605 10.8446 10.3324 10.6283 10.7943 10.6283C11.7281 10.6283 12.7323 11.3698 12.7323 12.2865C12.7323 12.4719 12.7323 12.6162 12.3708 13.3578C13.1239 15.7473 14.1983 17.9618 15.6744 19.9188C17.7228 17.0451 19.0883 13.7697 19.5903 10.3398C18.5461 10.3398 17.5821 10.2986 16.578 10.2986C13.0636 10.2986 9.28813 10.412 2.17898 10.515H2.13877C1.0242 10.515 0.482079 9.70131 0.482079 8.85672C0.482079 8.01213 1.09452 7.05424 2.16893 7.05424L13.8066 7.09535L13.7665 1.97634C13.7665 0.833051 14.7406 0.287142 15.6744 0.287142C16.6082 0.287142 17.5821 0.843351 17.5821 1.97634L17.542 7.09535L29.0391 7.05424C30.1135 7.05424 30.6557 7.94 30.6557 8.82579C30.6557 9.71158 30.1537 10.5253 29.0793 10.5253H29.0391L29.0492 10.515Z" fill="var(--fill-0, #236242)"/>
<path id="Vector_2" d="M56.0917 23.1543C56.162 23.6692 56.2021 24.2254 56.2021 24.7713C56.2021 28.0878 54.696 33.0935 48.4403 33.0935C45.6388 33.0935 44.1326 32.3212 44.1326 30.8792C44.1326 29.9625 44.8154 29.1487 45.8195 29.1487C46.0002 29.1487 46.181 29.1487 46.3919 29.2208C47.1851 29.4783 48.0085 29.6225 48.7616 29.6225C52.7881 29.6225 52.7881 24.6889 52.7881 24.3902C52.7881 23.9473 52.748 23.5456 52.6777 23.1336L37.4452 23.2057C36.3306 23.2057 35.7984 22.392 35.7984 21.5887C35.7984 20.7853 36.3707 19.8891 37.415 19.8891L50.6996 19.9612C50.2678 19.6625 49.8059 19.3741 49.2637 19.1887C48.5106 18.9312 48.1893 18.4472 48.1893 17.9734C48.1893 17.2009 49.0126 16.4284 50.097 16.4284C50.8903 16.4284 51.6434 16.8301 52.2157 17.17C53.1495 16.5417 55.0574 15.1821 55.0574 14.7392C55.0574 14.595 54.9168 14.5229 54.6658 14.5229C54.2742 14.4817 53.5914 14.4817 52.758 14.4817C50.4585 14.4817 46.9742 14.5537 44.4639 14.667H44.3937C43.3193 14.667 42.7771 13.8945 42.7771 13.122C42.7771 12.3496 43.3192 11.608 44.4338 11.5771C45.9801 11.505 47.9182 11.505 49.826 11.505C52.4468 11.505 55.0675 11.5462 56.7243 11.5771C58.7727 11.6183 59.6361 12.6792 59.6361 13.8225C59.6361 15.625 57.7283 17.139 54.5051 19.199C54.6859 19.4565 54.8666 19.714 55.0072 19.9715L65.7111 19.8582C66.7554 19.8582 67.2875 20.7028 67.2875 21.5577C67.2875 22.4126 66.7855 23.1747 65.7413 23.1747L56.1217 23.1336L56.0917 23.1543ZM62.0159 11.3608C62.0159 9.81582 61.2226 9.55829 59.7566 9.51709C56.8849 9.47589 53.6517 9.44504 50.5289 9.44504C47.9784 9.44504 45.4681 9.48619 43.239 9.51709C41.2608 9.55829 40.9395 10.0733 40.829 11.3608V13.5341C40.829 14.5641 39.9354 15.1512 39.0016 15.1512C38.1782 15.1512 37.3147 14.6362 37.2746 13.493C37.2746 13.0192 37.2344 12.4629 37.2344 11.8758C37.2344 11.2475 37.2746 10.6192 37.2746 10.0733C37.3448 8.34294 38.6803 6.57143 41.4717 6.54053L44.484 6.49929C44.3033 6.38599 44.1628 6.20059 44.0222 5.9843C43.2691 4.69681 42.4759 4.21276 41.5119 3.32697C41.1906 3.02827 41.0499 2.69862 41.0499 2.36902C41.0499 1.55533 41.9437 0.782802 42.8775 0.782802C44.2431 0.782802 47.0446 3.58447 47.0446 4.87195C47.0446 5.53115 46.5827 6.15938 46.0003 6.48898C49.1632 6.44778 52.2861 6.44774 55.4491 6.44774C56.4933 5.23235 57.4271 3.10031 57.9994 1.58622C58.3207 0.741632 58.9735 0.412021 59.6162 0.412021C60.6203 0.412021 61.6645 1.18451 61.6645 2.2145C61.6645 2.91489 60.5198 4.7174 59.0438 6.48898C59.8671 6.48898 60.7307 6.53022 61.554 6.53022C63.6727 6.57142 65.6509 7.74551 65.7212 10.0321C65.7613 10.5471 65.7614 11.3196 65.7614 12.02C65.7614 12.535 65.7613 13.019 65.7212 13.3795C65.6509 14.4507 64.717 14.9967 63.8133 14.9967C62.9096 14.9967 62.0159 14.4817 62.0159 13.4517V11.3505V11.3608ZM51.8542 6.31384C51.3522 6.31384 50.8803 6.05635 50.6292 5.42806C50.1272 4.06848 49.3339 3.25483 48.5106 2.25574C48.2997 1.99824 48.1893 1.69951 48.1893 1.44201C48.1893 0.669518 49.0829 0 50.0167 0C51.8442 0 53.8224 3.61534 53.8224 4.45993C53.8224 5.45902 52.778 6.30353 51.8442 6.30353L51.8542 6.31384Z" fill="var(--fill-0, #236242)"/>
<path id="Vector_3" d="M81.5838 31.332C81.5838 32.362 80.7203 32.877 79.8266 32.877C78.9329 32.877 78.0694 32.362 78.0694 31.332V31.2908L78.21 19.5798C76.985 21.5677 75.5491 23.4114 74.2639 24.8533C73.8321 25.2962 73.3702 25.5126 72.8983 25.5126C71.9243 25.5126 71.0707 24.668 71.0707 23.7822C71.0707 23.3393 71.2514 22.9376 71.6832 22.5256C73.6212 20.754 76.5331 17.1491 78.2502 13.7605L78.21 12.988L74.0128 13.1013H73.9726C72.8982 13.1013 72.3962 12.3287 72.3962 11.515C72.3962 10.7013 72.9384 9.89801 74.0128 9.89801H78.18L78.1096 6.25181C77.4268 6.36511 75.0169 6.80804 74.6253 6.80804C73.5509 6.80804 72.9786 5.96334 72.9786 5.14965C72.9786 4.41836 73.4405 3.67685 74.4145 3.56356C77.7883 3.23396 80.2283 2.64688 83.321 1.39029C83.5319 1.31819 83.7126 1.27688 83.8933 1.27688C84.8272 1.27688 85.5099 2.09059 85.5099 2.96608C85.5099 4.25357 84.1444 4.73772 81.5638 5.46901C81.5237 6.2415 81.5236 7.89982 81.4935 9.8877H85.1585C86.2329 9.8877 86.7751 10.7013 86.7751 11.5047C86.7751 12.3081 86.233 13.091 85.1987 13.091H85.1585L81.4232 13.0188V14.8213C81.5638 14.7801 81.6742 14.7801 81.7847 14.7801C83.1101 14.7801 86.0622 17.4374 86.2329 17.6537C86.5944 18.0554 86.7349 18.4675 86.7349 18.9104C86.7349 19.8271 85.9819 20.682 85.1585 20.682C84.7669 20.682 84.3653 20.4966 84.0138 20.0537C83.4013 19.24 82.3269 18.3232 81.4333 17.664C81.4734 23.226 81.614 31.2908 81.614 31.2908V31.332H81.5838ZM95.4809 22.9685L86.8956 25.4405C86.6848 25.5126 86.5041 25.5126 86.3233 25.5126C85.3493 25.5126 84.8172 24.7401 84.8172 23.9265C84.8172 23.2673 85.2087 22.5977 86.0421 22.3402L95.4909 19.6107L95.4206 2.15248C95.4206 1.08129 96.244 0.566253 97.1075 0.566253C97.9711 0.566253 98.8647 1.12249 98.8647 2.15248L98.7944 18.694L102.309 17.664C102.49 17.6228 102.67 17.592 102.811 17.592C103.745 17.592 104.357 18.4366 104.357 19.2503C104.357 19.8786 103.996 20.5068 103.213 20.7231L98.7944 21.9798L98.8647 31.4453C98.8647 32.4032 98.0012 32.8873 97.1377 32.8873C96.2742 32.8873 95.4105 32.4135 95.4105 31.4453L95.4809 22.9685ZM90.7415 17.3654C89.6972 16.2633 88.2311 15.2642 87.4379 14.7492C86.9358 14.4505 86.725 14.0179 86.725 13.6059C86.725 12.8747 87.4379 12.133 88.4822 12.133C89.7374 12.133 92.3279 14.0488 92.9706 14.708C93.4024 15.1509 93.5831 15.6247 93.5831 16.1087C93.5831 17.1078 92.83 17.9525 91.9363 17.9525C91.5447 17.9525 91.143 17.7671 90.7514 17.3654H90.7415ZM91.0326 9.55803C90.1389 8.34265 88.7734 7.16844 87.9399 6.57104C87.5483 6.27235 87.3675 5.94282 87.3675 5.61322C87.3675 4.84073 88.2311 4.06824 89.1649 4.06824C90.0988 4.06824 93.9445 6.57108 93.9445 8.41476C93.9445 9.44475 93.1513 10.2893 92.2877 10.2893C91.856 10.2893 91.4242 10.073 91.0326 9.54772V9.55803Z" fill="var(--fill-0, #236242)"/>
</g>
</svg>
