<svg preserveAspectRatio="none" width="100%" height="100%" overflow="visible" style="display: block;" viewBox="0 0 140.706 33.0832" fill="none" xmlns="http://www.w3.org/2000/svg">
<g id="Group">
<path id="Vector" d="M9.60941 31.414C9.60941 32.444 8.74588 32.928 7.89238 32.928C6.99871 32.928 6.095 32.4131 6.095 31.4243V31.3831L6.25566 19.5897C5.00052 20.7021 2.88183 22.2471 1.83755 22.2471C0.79327 22.2471 0 21.4438 0 20.558C0 20.0018 0.321326 19.4558 1.04429 19.0438C7.50077 15.4594 10.0412 9.52676 10.0412 9.31046C10.0412 8.93966 9.49897 8.90875 9.24794 8.90875H8.60529C6.55689 8.90875 5.01058 9.06331 2.79148 9.10451H2.7513C1.6769 9.10451 1.09451 8.29078 1.09451 7.51829C1.09451 6.7458 1.62668 5.93207 2.71113 5.93207C3.8257 5.89087 4.94029 5.89091 6.05486 5.84971L6.01468 2.16227C6.01468 1.06018 6.90835 0.504005 7.77189 0.504005C8.66555 0.504005 9.56927 1.06018 9.56927 2.16227V5.80847H10.7641C12.8427 5.83937 13.8568 6.86938 13.8568 8.27016C13.8568 10.1859 11.1357 14.1308 9.41863 16.232C9.45879 21.9381 9.61946 31.3729 9.61946 31.3729V31.414H9.60941ZM13.405 21.0214C12.6519 19.9193 11.5373 19.0027 10.6336 18.4877C10.242 18.2714 10.0613 17.9006 10.0613 17.571C10.0613 16.7573 10.8545 15.9127 11.7482 15.9127C12.431 15.9127 16.2768 17.9315 16.2768 19.7339C16.2768 20.7639 15.4132 21.6909 14.5196 21.6909C14.128 21.6909 13.7263 21.5055 13.405 21.0317V21.0214ZM12.8728 31.3007C11.7582 31.3007 11.216 30.4561 11.216 29.6424C11.216 28.7978 11.7482 27.9842 12.8628 27.9842L19.9719 28.0151L19.9217 15.1607L15.2525 15.202C14.138 15.202 13.5958 14.3574 13.5958 13.5437C13.5958 12.6991 14.128 11.8854 15.2124 11.8854H15.2525L19.9217 11.9164V2.7082C19.9117 1.56491 20.8053 1.00869 21.7392 1.00869C22.6328 1.00869 23.5365 1.5546 23.5365 2.69789L23.5164 11.9472L28.7178 11.8648H28.7579C29.8725 11.8648 30.4448 12.6785 30.4448 13.5231C30.4448 14.3368 29.8725 15.1813 28.7278 15.1813L23.5164 15.1505L23.5365 28.0048L30.5051 27.9635C31.6498 27.9635 32.2322 28.8081 32.2322 29.6218C32.2322 30.4664 31.6598 31.2801 30.5151 31.2801L12.8828 31.3007H12.8728Z" fill="var(--fill-0, #236242)"/>
<path id="Vector_2" d="M52.9186 5.09895C52.527 4.65606 52.2358 4.43974 51.9848 4.43974C51.7337 4.43974 51.4827 4.65606 51.1212 5.09895C48.1791 8.93051 43.4497 13.586 39.604 16.161C39.0618 16.5318 38.5597 16.676 38.0978 16.676C36.9531 16.676 36.1197 15.7181 36.1197 14.7293C36.1197 14.101 36.4812 13.4418 37.2644 12.9989C41.4315 10.7844 45.8797 6.28341 48.6009 2.62695C49.4644 1.48367 50.579 0.855403 51.7237 0.855403C52.8383 0.855403 54.0231 1.40126 55.0975 2.61664C58.622 6.4791 62.4677 9.569 66.7453 11.8144C67.4281 12.1852 67.7193 12.7723 67.7193 13.4006C67.7193 14.4718 66.8256 15.5739 65.6006 15.5739C63.6626 15.5739 56.9049 9.65149 52.9085 5.08864L52.9186 5.09895ZM51.1112 20.971C50.4685 23.0722 49.5749 25.8017 48.5005 28.1604C51.804 27.9029 55.0674 27.4908 58.2003 27.0067C57.3769 26.2342 56.4732 25.503 55.5795 24.8747C55.0373 24.5039 54.8264 24.061 54.8264 23.6181C54.8264 22.8456 55.5795 22.1041 56.5133 22.1041C58.632 22.1041 65.1086 28.2428 65.1086 30.416C65.1086 31.5181 64.1045 32.404 63.1003 32.404C62.528 32.404 61.9858 32.1155 61.6243 31.4151C61.2628 30.7559 60.8712 30.1277 60.4394 29.5406C52.0349 31.3533 41.8432 32.0743 41.1202 32.0743C40.0458 32.0743 39.4634 31.1164 39.4634 30.2306C39.4634 29.4169 39.9253 28.6135 40.9294 28.5723C42.1846 28.5311 43.4799 28.5003 44.7752 28.4179C45.7793 26.2755 46.7031 23.443 47.3156 21.0122L40.5278 21.0535C39.3831 21.0535 38.8409 20.2809 38.8409 19.4672C38.8409 18.6227 39.4132 17.7368 40.5278 17.7368L63.3313 17.706C64.476 17.706 65.0584 18.5506 65.0584 19.3952C65.0584 20.2089 64.486 21.0122 63.3413 21.0225L51.1313 20.9607L51.1112 20.971ZM47.0043 14.204C45.8898 14.204 45.3174 13.4006 45.3174 12.5458C45.3174 11.7321 45.8898 10.8875 47.0043 10.8875H57.3166C58.4312 10.8772 59.0035 11.7217 59.0035 12.5251C59.0035 13.3697 58.4312 14.1834 57.3166 14.1834H47.0043V14.204Z" fill="var(--fill-0, #236242)"/>
<path id="Vector_3" d="M92.4402 23.1336C92.5105 23.6486 92.5507 24.2048 92.5507 24.7507C92.5507 28.0672 91.0545 33.0832 84.8089 33.0832C82.0075 33.0832 80.5013 32.3107 80.5013 30.879C80.5013 29.9624 81.1841 29.1487 82.1882 29.1487C82.3689 29.1487 82.5497 29.1487 82.7605 29.2208C83.5538 29.4783 84.3772 29.6225 85.1303 29.6225C89.1568 29.6225 89.1467 24.6786 89.1467 24.3902C89.1467 23.9473 89.1066 23.5456 89.0363 23.1336L73.8038 23.2263C72.6892 23.2263 72.147 22.4125 72.147 21.6091C72.147 20.7646 72.7194 19.9098 73.7636 19.9098L87.0481 19.9612C86.6163 19.6625 86.1544 19.3741 85.6122 19.1887C84.8591 18.9312 84.5378 18.4575 84.5278 17.9734C84.5278 17.2009 85.3511 16.4284 86.4256 16.4284C87.2188 16.4284 87.9719 16.8301 88.5443 17.1597C89.4781 16.5314 91.3758 15.1615 91.3758 14.7186C91.3758 14.5744 91.2353 14.5023 90.9843 14.5023C90.5926 14.4611 89.9099 14.4611 89.0764 14.4714C86.777 14.4714 83.2927 14.5537 80.7824 14.667H80.7121C79.6377 14.667 79.0955 13.8945 79.0955 13.122C79.0955 12.3805 79.6277 11.608 80.7422 11.5771C82.2886 11.505 84.2266 11.4947 86.1344 11.4947C88.7551 11.4947 91.3759 11.5255 93.0327 11.5564C95.0811 11.5873 95.9446 12.6586 95.9446 13.8019C95.9446 15.6044 94.0468 17.1184 90.8135 19.1887C90.9943 19.4462 91.175 19.7037 91.3156 19.9612L102.019 19.8376C103.064 19.8376 103.596 20.6822 103.606 21.5268C103.606 22.3405 103.104 23.1438 102.06 23.1541L92.4402 23.1336ZM98.3545 11.3402C98.3545 9.7952 97.5612 9.53767 96.0952 9.49647C93.2234 9.46557 89.9902 9.43473 86.8674 9.43473C84.3169 9.43473 81.8066 9.47589 79.5775 9.51709C77.5994 9.55829 77.2781 10.0733 77.1776 11.3608V13.4928V13.5341C77.1776 14.5641 76.284 15.1511 75.3501 15.1614C74.5268 15.1614 73.6632 14.6464 73.6231 13.5031C73.6231 13.0293 73.5829 12.4732 73.5829 11.8861C73.5829 11.2578 73.613 10.6295 73.613 10.0836C73.6833 8.35325 75.0088 6.5816 77.8102 6.5404L80.8226 6.49929C80.6419 6.38599 80.5013 6.20059 80.3507 5.9843C79.5976 4.69681 78.8043 4.22294 77.8303 3.33715C77.509 3.03846 77.3584 2.70893 77.3584 2.37933C77.3584 1.56564 78.252 0.793112 79.1859 0.793112C80.5515 0.793112 83.353 3.58435 83.353 4.88214C83.353 5.54133 82.8911 6.16969 82.3087 6.49929C85.4716 6.45809 88.5944 6.45804 91.7574 6.44774C92.8017 5.23235 93.7255 3.09 94.2978 1.57591C94.6191 0.731322 95.2618 0.391401 95.9145 0.391401C96.9186 0.391401 97.9629 1.16389 97.9629 2.19388C97.9629 2.89427 96.8182 4.69678 95.3421 6.46836C96.1655 6.46836 97.029 6.49929 97.8524 6.49929C99.9711 6.53019 101.949 7.70439 102.019 9.99097C102.06 10.506 102.06 11.2784 102.06 11.9788C102.06 12.4938 102.06 12.9779 102.03 13.3384C101.959 14.4096 101.025 14.9658 100.132 14.9658C99.1979 14.9658 98.3344 14.4508 98.3344 13.4208V11.3196L98.3545 11.3402ZM88.1828 6.30353C87.6807 6.30353 87.2088 6.04604 86.9577 5.41775C86.4557 4.05817 85.6624 3.24453 84.8391 2.25574C84.6282 1.99824 84.5177 1.69951 84.5177 1.44201C84.5177 0.669518 85.4114 0 86.3452 0C88.1727 0 90.1609 3.60503 90.1609 4.44962C90.1609 5.44871 89.1166 6.29322 88.1928 6.29322L88.1828 6.30353Z" fill="var(--fill-0, #236242)"/>
<path id="Vector_4" d="M117.953 31.2803C117.953 32.3103 117.089 32.8253 116.195 32.8253C115.302 32.8253 114.438 32.3103 114.438 31.2803V31.2392L114.569 19.5283C113.354 21.5161 111.918 23.3598 110.622 24.8018C110.191 25.2447 109.729 25.4609 109.257 25.4712C108.283 25.4712 107.429 24.6267 107.419 23.7409C107.419 23.298 107.6 22.8963 108.032 22.4843C109.97 20.7127 112.872 17.0975 114.589 13.7088L114.549 12.9363L110.351 13.0496H110.311C109.237 13.0496 108.735 12.2771 108.725 11.4634C108.725 10.6497 109.257 9.84633 110.341 9.83603H114.508L114.428 6.17952C113.745 6.29282 111.335 6.73576 110.944 6.73576C109.869 6.73576 109.287 5.89118 109.287 5.07749C109.287 4.3462 109.749 3.60457 110.723 3.49127C114.097 3.15137 116.537 2.56428 119.629 1.3077C119.84 1.2356 120.021 1.19441 120.202 1.19441C121.136 1.19441 121.818 1.99782 121.818 2.88361C121.818 4.1711 120.453 4.65513 117.872 5.39672C117.832 6.16921 117.842 7.82754 117.802 9.81541H121.467C122.541 9.81541 123.084 10.6187 123.084 11.4324C123.084 12.2461 122.541 13.0187 121.507 13.0187H121.467L117.732 12.9466V14.7491C117.872 14.7079 117.983 14.7079 118.093 14.7079C119.419 14.7079 122.371 17.355 122.551 17.5816C122.913 17.9833 123.053 18.3952 123.053 18.8278C123.053 19.7445 122.3 20.5994 121.477 20.5994C121.085 20.5994 120.684 20.414 120.322 19.9711C119.71 19.1574 118.635 18.2408 117.732 17.5816C117.772 23.1435 117.932 31.2083 117.932 31.2083V31.2495L117.953 31.2803ZM131.839 22.8962L123.264 25.3785C123.053 25.4506 122.873 25.4507 122.692 25.4507C121.718 25.4507 121.186 24.6782 121.186 23.8645C121.186 23.2053 121.577 22.5357 122.401 22.2783L131.839 19.5384L131.749 2.08019C131.749 1.009 132.572 0.493965 133.436 0.493965C134.3 0.493965 135.193 1.0399 135.193 2.08019L135.143 18.6219L138.657 17.5919C138.838 17.5507 139.019 17.5197 139.159 17.5197C140.093 17.5197 140.706 18.3643 140.706 19.178C140.706 19.8063 140.344 20.4346 139.561 20.6509L135.143 21.9075L135.223 31.3731C135.223 32.331 134.36 32.815 133.506 32.815C132.653 32.815 131.779 32.3412 131.779 31.3833L131.839 22.9065V22.8962ZM127.09 17.3035C126.046 16.2014 124.57 15.2022 123.786 14.6872C123.284 14.3885 123.063 13.956 123.063 13.544C123.063 12.8127 123.776 12.071 124.821 12.071C126.076 12.071 128.666 13.9868 129.309 14.646C129.741 15.0889 129.922 15.5628 129.922 16.0469C129.922 17.046 129.168 17.8905 128.275 17.8905C127.883 17.8905 127.482 17.7051 127.09 17.3035ZM127.361 9.49606C126.457 8.28067 125.092 7.10659 124.268 6.5195C123.877 6.2208 123.696 5.89115 123.696 5.56156C123.696 4.78906 124.56 4.01657 125.493 4.01657C126.467 4.01657 130.273 6.5194 130.273 8.35278C130.273 9.38277 129.49 10.2377 128.626 10.2377C128.195 10.2377 127.763 10.0214 127.371 9.50637L127.361 9.49606Z" fill="var(--fill-0, #236242)"/>
</g>
</svg>
