<svg preserveAspectRatio="none" width="100%" height="100%" overflow="visible" style="display: block;" viewBox="0 0 247.163 292.367" fill="none" xmlns="http://www.w3.org/2000/svg">
<path id="Vector" d="M123.577 292.367C123.366 292.367 123.155 292.306 122.964 292.192L0.612527 219.733C0.230963 219.506 0 219.094 0 218.641V73.7214C0 73.2682 0.241004 72.8562 0.612527 72.6296L122.964 0.169948C123.346 -0.0566494 123.818 -0.0566494 124.199 0.169948L246.551 72.6296C246.932 72.8562 247.163 73.2682 247.163 73.7214V218.641C247.163 219.094 246.922 219.506 246.551 219.733L124.199 292.192C124.008 292.306 123.798 292.367 123.587 292.367H123.577ZM2.4601 217.91L123.577 289.638L244.693 217.91V74.4527L123.577 2.7243L2.4601 74.4527V217.91Z" fill="var(--fill-0, #236242)"/>
</svg>
