<svg preserveAspectRatio="none" width="100%" height="100%" overflow="visible" style="display: block;" viewBox="0 0 203.007 125.317" fill="none" xmlns="http://www.w3.org/2000/svg">
<g id="Group">
<g id="Group_2">
<path id="Vector" d="M114.893 38.7554C115.556 41.4436 113.96 44.173 111.329 44.8528C108.698 45.5326 106.047 43.895 105.385 41.1964C104.722 38.5082 106.318 35.7786 108.949 35.0988C111.57 34.4191 114.231 36.0568 114.893 38.7554Z" fill="var(--fill-0, #F4C058)"/>
<path id="Vector_2" d="M116.7 23.5734C118.105 24.8094 118.266 26.9826 117.061 28.4246C115.856 29.8666 113.737 30.0314 112.332 28.7954C110.926 27.5594 110.765 25.3862 111.97 23.9442C113.175 22.5022 115.294 22.3374 116.7 23.5734Z" fill="var(--fill-0, #F4C058)"/>
<path id="Vector_3" d="M116.445 11.399C118.092 12.841 118.283 15.3851 116.867 17.064C115.461 18.7531 112.981 18.9489 111.344 17.4966C109.697 16.0546 109.507 13.5105 110.923 11.8317C112.328 10.1425 114.808 9.94674 116.445 11.399Z" fill="var(--fill-0, #F4C058)"/>
<g id="Group_3">
<path id="Vector_4" d="M87.6412 35.3939C96.1077 33.2157 101.25 24.4096 99.1262 15.725C97.0027 7.0403 88.4178 1.76579 79.9513 3.944C71.4848 6.12221 66.3427 14.9283 68.4662 23.613C70.5897 32.2976 79.1746 37.5721 87.6412 35.3939Z" fill="var(--fill-0, #70B791)"/>
<path id="Vector_5" d="M89.5401 34.7181L75.4926 43.5245L80.2923 30.0522" fill="var(--fill-0, #70B791)"/>
</g>
<path id="Vector_6" d="M62.4071 80.8189L62.0757 80.9012L18.7982 92.0252L7.04001 43.9041L58.2701 30.7305L59.214 30.4833L59.7963 39.5678L56.4225 37.5903L53.9925 39.4854L53.119 44.244L60.9009 57.1497L63.6723 63.6902L61.3828 64.6172L56.3421 63.7314L53.1089 66.9037L55.8501 69.8084L61.925 73.1969L62.4071 80.8189Z" fill="var(--fill-0, #70B791)"/>
<path id="Vector_7" d="M105.319 79.7272C104.877 79.8405 104.416 79.655 104.164 79.2636L101.945 75.8132C101.825 75.6278 101.765 75.4012 101.775 75.1849V74.9377L101.644 74.7419C101.473 74.4947 101.413 74.1961 101.463 73.8974C101.704 72.6202 101.966 70.2306 101.634 69.2109L99.2544 61.7538L93.0289 51.8659C93.0289 51.8659 92.9887 51.7939 92.9686 51.763C92.3561 50.4858 91.1512 49.7854 90.2474 49.4249C89.3036 49.0438 88.2292 48.9201 87.5062 49.1055C87.3757 49.1364 87.2452 49.1879 87.1347 49.2394L86.3214 49.6617L86.7029 50.3519L87.2552 51.2994C87.5564 51.8144 87.3958 52.4943 86.8937 52.8033C86.8034 52.8548 86.7029 52.9062 86.6025 52.9268C86.1406 53.0401 85.6687 52.8445 85.4277 52.4222L84.0721 50.1047C83.7809 49.6103 82.9375 49.1776 82.3652 49.2291L81.7928 49.2806C81.1803 49.3321 80.6682 49.3733 79.9452 49.5381H79.9351C79.3929 49.6823 79.1017 49.8575 78.9511 50.0944C78.7403 50.4549 78.7402 51.0522 78.931 51.9586C79.0816 52.4221 79.6138 53.4933 79.8046 53.8023C80.1159 54.3173 79.9552 54.9971 79.4532 55.3164C79.3628 55.3782 79.2624 55.4194 79.152 55.4503C78.7001 55.5636 78.2282 55.3679 77.9772 54.9559C77.937 54.8838 77.5253 54.1422 77.1839 53.3903L77.1136 53.2255L76.973 53.1122C76.8626 53.0298 76.7823 52.9269 76.712 52.8136L76.3103 52.144C75.5271 50.8154 74.3824 50.7536 71.9625 51.1244C71.8219 51.145 71.6411 51.1758 71.4604 51.2273C70.6973 51.423 70.2053 51.7629 69.9844 52.247C69.5526 53.174 70.0647 54.4923 70.2956 55.0176L72.0227 57.9532L72.2035 58.2415L72.7858 59.251C72.9365 59.4982 72.9766 59.7968 72.9063 60.0852C72.836 60.3736 72.6654 60.6105 72.4244 60.765C72.334 60.8268 72.2336 60.868 72.1332 60.8886C71.6713 61.0019 71.1993 60.8063 70.9583 60.3943L70.2354 59.1788L68.8096 56.8201C68.7192 56.6656 68.5987 56.439 68.4581 56.1712L65.3554 50.8875C65.1144 50.4858 65.1546 49.9707 65.4558 49.6102L65.7169 49.3013L66.1085 49.2394C66.5403 49.1673 66.9619 49.3733 67.1929 49.7544L67.9962 51.1244L68.6489 50.4033C69.2011 49.7853 69.9743 49.3527 70.9383 49.1055C71.1592 49.0437 71.3902 49.0025 71.6412 48.9613C72.9365 48.7656 74.7238 48.4876 76.24 49.2086L76.8124 49.4763L77.1538 48.9305C77.6056 48.2095 78.3386 47.7047 79.3226 47.4575L79.4733 47.4163C80.3469 47.2206 80.9996 47.1692 81.6221 47.1177L82.1643 47.0765C82.9676 47.0044 83.8813 47.2516 84.6646 47.7563L85.0762 48.0241L85.4678 47.7357C85.6887 47.5812 85.9398 47.4266 86.2009 47.2927C86.4519 47.1691 86.713 47.0662 86.9941 46.9941C88.7011 46.5512 90.5186 47.1898 91.0307 47.3958C92.7979 48.0962 94.1133 49.2498 94.8463 50.7123L101.132 60.7032C101.182 60.7856 101.222 60.868 101.253 60.9504L103.683 68.5517C104.215 70.2306 103.773 73.2072 103.622 74.0724L103.572 74.3505L103.743 74.6287L103.763 74.6596L105.952 78.0688C106.273 78.5735 106.143 79.2534 105.651 79.5933C105.55 79.6654 105.44 79.7168 105.319 79.7374V79.7272ZM64.773 48.3743C64.3613 48.4463 63.9396 48.261 63.7187 47.9005C63.6685 47.8284 63.6384 47.7872 63.6082 47.7357C63.307 47.2207 63.4677 46.5409 63.9697 46.2319C64.0601 46.1701 64.1605 46.1289 64.2609 46.1083C64.7027 45.995 65.1646 46.1804 65.4156 46.5615C65.4659 46.6336 65.496 46.6748 65.5261 46.7263C65.7671 47.128 65.7269 47.643 65.4257 48.0035L65.1747 48.3125L64.773 48.3743Z" fill="var(--fill-0, #3C3D3D)"/>
<path id="Vector_8" d="M85.4293 92.9948C84.9975 93.1081 84.5457 92.9331 84.2947 92.5623L82.0856 89.3178C82.0856 89.3178 82.0253 89.2251 82.0052 89.1736L81.8647 88.8955L74.6651 86.6399C72.0544 85.8571 70.8696 84.755 69.1525 83.0349C68.6204 82.4993 67.9476 81.5517 67.1644 80.4599C66.331 79.2857 65.3871 77.9467 64.624 77.1742C61.8024 74.3005 59.7641 73.1367 57.806 72.0038L57.2036 71.6535C56.8722 71.4578 56.5107 71.2621 56.1191 71.0561C54.0004 69.9025 52.0524 68.852 52.0123 67.1113C51.962 65.2264 53.2373 63.7638 55.4263 63.1973C55.8681 63.084 56.3601 63.0016 56.8823 62.9604C57.8462 62.878 60.1155 63.1458 61.9129 63.4239L63.399 63.6607L52.6047 44.5853C51.8817 43.3494 51.701 41.9074 52.0926 40.4963C52.4742 39.1058 53.3678 37.9213 54.6029 37.1488C55.0447 36.8708 55.5066 36.6751 55.9484 36.5618C56.7819 36.3455 57.6052 36.4176 58.3985 36.7574C59.4026 37.2003 60.2963 38.0655 61.0393 39.3324C61.0393 39.3324 61.8727 40.7332 63.3086 43.1743C63.6098 43.6893 63.4492 44.3691 62.9471 44.6884C62.8567 44.7502 62.7563 44.7914 62.6559 44.812C62.194 44.9253 61.7221 44.7297 61.4811 44.3177C59.6435 41.1968 59.272 40.5788 59.1817 40.4346L59.2118 40.486C58.8604 39.8886 58.288 39.1059 57.555 38.7866C57.4144 38.7248 57.0328 38.5599 56.4605 38.7041C56.2195 38.7659 55.9685 38.8793 55.7074 39.0441C54.9342 39.5179 54.382 40.2595 54.151 41.1041C53.9201 41.9281 54.0306 42.7623 54.4423 43.4627L70.5382 71.911C70.6788 72.1685 70.719 72.4569 70.6487 72.7453C70.5784 73.0234 70.3976 73.2706 70.1466 73.4148C70.0562 73.4663 69.9659 73.5075 69.8655 73.5281C69.4036 73.6414 68.9216 73.4354 68.6806 73.0131L67.6263 71.1385L67.4455 71.0355C67.2949 70.9531 67.1644 70.8399 67.074 70.6957C66.1201 69.264 63.1881 66.8846 61.6116 65.7001L61.4711 65.5971L61.2903 65.5663C60.959 65.5148 58.0069 65.0822 57.063 65.1646C56.832 65.1852 56.3701 65.2367 55.9082 65.3603C54.9443 65.6075 54.3619 66.0504 54.1912 66.6684L54.0807 67.0804L54.372 67.3893C54.8339 67.8734 55.9083 68.4811 57.063 69.1094C57.4546 69.3257 57.8663 69.5523 58.2579 69.7686L58.77 70.0674C60.8385 71.2622 63.0977 72.5599 66.1301 75.6395C67.0037 76.5253 67.9978 77.9261 68.8714 79.1518C69.5843 80.1612 70.237 81.0779 70.6487 81.4899C72.2251 83.0658 73.149 83.9207 75.2777 84.5593L82.2061 86.7325C82.4872 86.8252 82.7182 87.021 82.8487 87.2888L82.9893 87.5669L83.2805 87.6595C83.5114 87.7316 83.7022 87.8759 83.8327 88.0716L86.0418 91.316C86.2025 91.5529 86.2727 91.8516 86.2225 92.14C86.1723 92.4284 86.0117 92.6859 85.7807 92.8507C85.6703 92.9331 85.5498 92.9845 85.4293 93.0154V92.9948Z" fill="var(--fill-0, #3C3D3D)"/>
<path id="Vector_9" d="M89.8089 106.116C89.3771 106.229 88.9152 106.044 88.6641 105.673L83.5833 98.0098C83.4227 97.7729 83.3624 97.4639 83.4227 97.1755C83.4729 96.8871 83.6436 96.6295 83.8846 96.475L110.423 78.4091C110.524 78.337 110.634 78.2855 110.755 78.2546C111.176 78.1413 111.618 78.3061 111.879 78.6666L116.729 85.3718C117.081 85.8559 116.98 86.546 116.508 86.9065C116.398 86.9889 116.267 87.0506 116.137 87.0918C115.715 87.2051 115.273 87.0404 115.012 86.6799L110.775 80.8192L85.9832 97.6905L90.4616 104.437C90.7929 104.942 90.6624 105.621 90.1804 105.961C90.08 106.033 89.9595 106.085 89.839 106.116H89.8089Z" fill="var(--fill-0, #3C3D3D)"/>
<path id="Vector_10" d="M65.5096 84.826C64.9372 84.9702 64.3549 84.62 64.2143 84.0226C64.0737 83.4252 64.4251 82.838 64.9975 82.6938L65.4092 82.5909C65.9815 82.4467 66.5639 82.7969 66.7045 83.384C66.8451 83.9711 66.4936 84.5685 65.9213 84.7127L65.5096 84.8157V84.826Z" fill="var(--fill-0, #3C3D3D)"/>
<path id="Vector_11" d="M51.7829 81.2218L16.0564 90.4094L16.438 91.223C17.3718 93.2417 19.6211 94.3645 21.6695 93.8392L60.6693 83.8071C61.2417 83.6629 61.8241 84.0131 61.9647 84.6002C62.1053 85.1873 61.7538 85.7846 61.1814 85.9288L45.8586 89.8737L46.0996 90.6256C46.1298 90.7286 46.1297 91.0582 46.0695 91.2539L41.6313 104.046C41.0389 105.766 39.7536 107.188 38.1169 107.94L37.5646 108.197L38.0968 110.371L40.7376 109.691C41.31 109.547 41.9124 109.928 42.053 110.525L43.5993 116.87C43.7399 117.457 43.3985 118.054 42.8162 118.198C42.2438 118.343 41.6614 117.992 41.5209 117.395L40.2255 112.08L17.7433 117.858L19.2395 123.956C19.3801 124.543 19.0286 125.141 18.4563 125.285C17.8839 125.429 17.3015 125.079 17.161 124.492L15.4138 117.364C15.3636 117.168 15.3736 116.962 15.4339 116.767L15.5745 116.324L15.2531 116.005C15.1125 115.86 15.0122 115.685 14.962 115.49L10.5639 97.4957L10.0418 97.4544C9.73048 97.4338 9.44935 97.3617 9.31882 97.2793C8.85692 96.9703 8.42513 96.5892 8.04357 96.1257C7.4411 95.3944 7.0194 94.5911 6.81858 93.7362L0.171263 66.5548C-0.601907 63.3824 1.31597 60.1379 4.44881 59.3345C4.78017 59.2521 5.15173 59.1903 5.55338 59.1491L6.3968 59.077L1.75779 40.0738C0.864121 36.3967 2.96275 32.802 6.54745 31.8853L59.0728 18.3719C59.6653 18.2174 60.2175 18.5366 60.3581 19.1237L60.4083 19.3401C60.569 20.0199 60.0167 20.3907 59.5849 20.504L7.05955 34.0175C4.70992 34.6252 3.17359 37.0971 3.70578 39.4249L3.87646 40.1562L58.0185 26.2307C58.5909 26.0865 59.1732 26.4367 59.3138 27.0341C59.4544 27.6315 59.103 28.2185 58.5306 28.3627L4.48902 42.2676L15.7251 88.2258L60.087 76.8134C60.6593 76.6692 61.2417 77.0195 61.3823 77.6168C61.5229 78.2142 61.1714 78.8014 60.5991 78.9456L53.741 80.7068L51.7829 81.2115V81.2218ZM83.8343 36.5718L82.7499 37.2207L70.2888 44.5542C70.1984 44.6057 70.108 44.6469 70.0177 44.6675C69.6562 44.7602 69.2746 44.6675 69.0135 44.3894C68.6721 44.0495 68.5919 43.5139 68.8228 43.0813L72.7589 35.6242L72.0561 35.2946C67.2262 33.0493 63.5813 28.5791 62.3061 23.3365C62.0149 22.152 61.8542 20.9675 61.804 19.7212V18.9281C61.8241 10.7088 67.2564 3.58119 74.9881 1.59331C84.3264 -0.80656 93.8153 5.03348 96.1549 14.6021C97.1891 18.8147 96.687 23.2643 94.7591 27.1165C92.8513 30.9377 89.6683 33.9247 85.8024 35.5315C85.7522 35.5521 85.712 35.5623 85.6618 35.5829L83.8544 36.5512L83.8343 36.5718ZM17.0204 115.788L36.0082 110.906L35.5062 108.846C35.4359 108.568 35.5062 108.321 35.5664 108.156L35.6669 107.909L35.5865 107.631L35.5664 107.528C35.4459 106.951 35.7873 106.384 36.3496 106.24L36.5404 106.199C37.9763 105.828 39.1311 104.767 39.6231 103.346L44.1416 90.3166L22.1816 95.9609C18.6571 96.8673 15.0523 94.5911 14.1486 90.8934L6.94906 61.4358L6.447 61.3842C5.90477 61.3224 5.41276 61.3533 4.94082 61.4666C2.98279 61.9713 1.73773 64.0519 2.2197 66.0192L8.86695 93.2006C8.99749 93.7362 9.25858 94.2408 9.64014 94.7043C9.85101 94.9618 10.1221 95.1988 10.4735 95.4254C10.6442 95.5387 10.7748 95.7035 10.8651 95.9095L11.066 96.3935L11.5781 96.3523C12.0801 96.3111 12.542 96.6613 12.6625 97.1866L17.0304 115.057L17.0003 115.778L17.0204 115.788ZM84.979 33.523C91.9978 30.6081 95.9038 22.7081 94.0562 15.1583C92.0078 6.7639 83.6737 1.6449 75.4801 3.74608C67.2965 5.84726 62.3061 14.3962 64.3545 22.7906C65.6297 28.0332 69.5558 32.2973 74.5764 33.9453L74.7872 34.0175C75.3495 34.1926 75.5102 34.6457 75.3295 35.2225C75.2592 35.4594 75.2492 35.6344 75.0785 35.9743L74.9379 36.0774L72.4878 40.7329L82.7399 34.6869L84.979 33.5333V33.523Z" fill="var(--fill-0, #3C3D3D)"/>
<path id="Vector_12" d="M13.4767 51.5671C12.9044 51.7113 12.322 51.3611 12.1815 50.7637L10.6452 44.4601C10.5046 43.873 10.856 43.2757 11.4284 43.1315L17.5736 41.5556C18.1459 41.4114 18.7283 41.7616 18.8689 42.3487L20.4052 48.6523C20.5458 49.2394 20.1943 49.8368 19.622 49.981L13.4767 51.5568V51.5671ZM13.9889 49.1673L18.0555 48.127L17.0414 43.9555L12.9747 44.9958L13.9889 49.1673Z" fill="var(--fill-0, #3C3D3D)"/>
<path id="Vector_13" d="M23.5432 45.6251C22.9709 45.7693 22.3885 45.4192 22.2479 44.8218C22.1073 44.2244 22.4487 43.6373 23.0311 43.4931L34.458 40.5576C35.0303 40.4134 35.6127 40.7637 35.7533 41.361C35.8938 41.9584 35.5525 42.5454 34.9701 42.6896L23.5432 45.6251Z" fill="var(--fill-0, #3C3D3D)"/>
<path id="Vector_14" d="M15.9873 61.858C15.415 62.0022 14.8326 61.6521 14.692 61.0547L13.1558 54.7512C13.0152 54.1641 13.3565 53.5666 13.9389 53.4224L20.0841 51.8465C20.6565 51.7023 21.2389 52.0526 21.3795 52.6499L22.9157 58.9535C23.0563 59.5406 22.7049 60.138 22.1326 60.2822L15.9873 61.858ZM16.5597 59.6641L20.6264 58.6238L19.552 54.2464L15.4853 55.2867L16.5597 59.6641Z" fill="var(--fill-0, #3C3D3D)"/>
<path id="Vector_15" d="M26.1048 56.131C25.5325 56.2752 24.9501 55.925 24.8095 55.3276C24.669 54.7302 25.0204 54.1431 25.5927 53.9989L37.0196 51.0634C37.5919 50.9193 38.1744 51.2695 38.3149 51.8566C38.4555 52.4437 38.1141 53.0411 37.5317 53.1853L26.1048 56.1207V56.131Z" fill="var(--fill-0, #3C3D3D)"/>
<path id="Vector_16" d="M18.5048 72.147C17.9325 72.2912 17.3501 71.9411 17.2095 71.3437L15.6732 65.0401C15.5326 64.453 15.8841 63.8556 16.4564 63.7114L22.6016 62.1355C23.174 61.9913 23.7563 62.3415 23.8969 62.9286L25.4332 69.2321C25.5738 69.8192 25.2223 70.4167 24.65 70.5609L18.5048 72.1366V72.147ZM19.0169 69.7471L23.0836 68.7068L22.0694 64.5355L18.0027 65.5756L19.0169 69.7471Z" fill="var(--fill-0, #3C3D3D)"/>
<path id="Vector_17" d="M28.5753 66.2031C28.0029 66.3473 27.4205 65.997 27.2799 65.3996C27.1394 64.8023 27.4808 64.2151 28.0632 64.0709L39.49 61.1355C40.0624 60.9913 40.6447 61.3415 40.7853 61.9389C40.9259 62.5363 40.5845 63.1233 40.0021 63.2675L28.5753 66.2031Z" fill="var(--fill-0, #3C3D3D)"/>
<path id="Vector_18" d="M21.0635 82.6427C20.4912 82.7869 19.9088 82.4367 19.7682 81.8393L18.2319 75.5357C18.0914 74.9486 18.4327 74.3512 19.0151 74.207L25.1603 72.6312C25.7327 72.487 26.3151 72.8371 26.4557 73.4345L27.9919 79.738C28.1325 80.3251 27.7811 80.9226 27.2088 81.0668L21.0635 82.6427ZM21.6359 80.4488L25.7026 79.4085L24.6282 75.031L20.5614 76.0713L21.6359 80.4488Z" fill="var(--fill-0, #3C3D3D)"/>
<path id="Vector_19" d="M31.185 76.9156C30.6127 77.0598 30.0303 76.7097 29.8897 76.1123C29.7492 75.5149 30.1006 74.9278 30.6729 74.7836L42.0998 71.8481C42.6721 71.7039 43.2546 72.0542 43.3951 72.6412C43.5357 73.2283 43.1943 73.8256 42.6119 73.9698L31.185 76.9053V76.9156Z" fill="var(--fill-0, #3C3D3D)"/>
<path id="Vector_20" d="M108.07 44.1407C107.458 44.2952 106.825 44.3467 106.193 44.2849C104.727 44.1407 103.401 43.4198 102.467 42.2456C101.533 41.0817 101.092 39.6088 101.232 38.105C101.453 35.7257 103.12 33.7481 105.379 33.161C105.992 33.0065 106.624 32.955 107.257 33.0168C108.723 33.161 110.048 33.882 110.982 35.0561C111.916 36.22 112.358 37.6929 112.217 39.1967C111.996 41.576 110.33 43.5536 108.07 44.1407ZM105.911 35.3035C104.536 35.6537 103.512 36.869 103.371 38.3213C103.281 39.2379 103.552 40.1443 104.124 40.855C104.696 41.5657 105.51 42.0087 106.403 42.1014C106.795 42.1426 107.177 42.1013 107.548 42.0189C108.924 41.6687 109.948 40.4534 110.089 39.0011C110.179 38.0844 109.908 37.178 109.335 36.4674C108.763 35.7567 107.95 35.3137 107.056 35.221C106.664 35.1798 106.283 35.2211 105.911 35.3035Z" fill="var(--fill-0, #3C3D3D)"/>
<path id="Vector_21" d="M112.799 28.8861C112.387 28.9891 111.975 29.0201 111.554 28.9789C110.58 28.8862 109.696 28.4021 109.083 27.6296C108.461 26.8571 108.17 25.8787 108.27 24.8796C108.421 23.3037 109.525 21.9852 111.021 21.5939C111.433 21.4909 111.845 21.46 112.266 21.5012C113.24 21.5939 114.114 22.0779 114.747 22.8504C115.369 23.6229 115.66 24.6014 115.56 25.6005C115.409 27.1764 114.305 28.4947 112.809 28.8861H112.799ZM111.533 23.7362C111.011 23.8701 110.459 24.3439 110.389 25.0958C110.349 25.5078 110.469 25.9095 110.73 26.2391C110.991 26.5687 111.363 26.7645 111.764 26.8057C111.945 26.8263 112.116 26.8056 112.287 26.7644C112.809 26.6305 113.361 26.1567 113.431 25.4048C113.481 24.8486 113.24 24.4572 113.09 24.2615C112.939 24.0761 112.608 23.7569 112.066 23.6951C111.895 23.6745 111.714 23.695 111.543 23.7362H111.533Z" fill="var(--fill-0, #3C3D3D)"/>
<path id="Vector_22" d="M113.476 16.8369C113.105 16.9296 112.723 16.9605 112.331 16.9193C110.494 16.7339 109.138 15.0448 109.319 13.1599C109.46 11.7179 110.474 10.5025 111.839 10.1523C112.211 10.0596 112.592 10.0288 112.984 10.07C113.878 10.1627 114.681 10.5952 115.253 11.3059C115.826 12.0166 116.087 12.9126 116.006 13.8293C115.866 15.2713 114.852 16.4867 113.486 16.8369H113.476ZM112.372 12.2843C111.88 12.4079 111.508 12.8509 111.458 13.3762C111.397 14.056 111.88 14.6636 112.552 14.7357C112.693 14.746 112.833 14.7358 112.964 14.7049C113.456 14.5813 113.827 14.1384 113.878 13.6131C113.908 13.2835 113.817 12.9642 113.607 12.7067C113.406 12.4492 113.105 12.2844 112.783 12.2535C112.643 12.2432 112.512 12.2534 112.372 12.2843Z" fill="var(--fill-0, #3C3D3D)"/>
</g>
<path id="Vector_23" d="M185.258 81.4783C184.525 84.0945 181.864 85.5983 179.314 84.8361C176.763 84.0842 175.297 81.3547 176.04 78.7385C176.773 76.1223 179.434 74.6185 181.985 75.3807C184.535 76.1326 186.001 78.8621 185.258 81.4783Z" fill="var(--fill-0, #3C3D3D)"/>
<path id="Vector_24" d="M180.647 91.7574C179.603 91.7574 178.548 91.6133 177.494 91.294C174.582 90.4288 172.172 88.4512 170.706 85.732C169.24 83.0129 168.899 79.8611 169.742 76.8742C170.586 73.8872 172.514 71.4152 175.164 69.9114C177.815 68.4076 180.888 68.0574 183.8 68.9225C186.712 69.7877 189.122 71.7653 190.588 74.4845C192.054 77.214 192.395 80.3554 191.552 83.3424C190.116 88.4305 185.567 91.7574 180.637 91.7574H180.647ZM180.637 70.3646C179.05 70.3646 177.484 70.7766 176.068 71.58C173.849 72.8366 172.232 74.9069 171.53 77.4098C170.827 79.9126 171.108 82.5391 172.333 84.8153C173.558 87.0916 175.576 88.7499 178.006 89.4709C183.037 90.9644 188.318 87.9775 189.764 82.8172C190.467 80.3143 190.186 77.6878 188.961 75.4115C187.736 73.1352 185.718 71.4769 183.288 70.756C182.414 70.4985 181.521 70.3646 180.637 70.3646Z" fill="var(--fill-0, #4C4B4C)"/>
<path id="Vector_25" d="M180.65 96.3914C179.194 96.3914 177.718 96.1854 176.242 95.7528C167.827 93.2602 162.967 84.2067 165.397 75.5857C166.572 71.4039 169.273 67.9431 172.988 65.8522C176.704 63.751 180.991 63.2567 185.068 64.472C193.482 66.9646 198.342 76.0182 195.912 84.6392C193.904 91.7667 187.538 96.4017 180.65 96.4017V96.3914ZM180.63 65.7183C178.29 65.7183 175.981 66.326 173.882 67.5105C170.598 69.3644 168.219 72.4236 167.184 76.111C165.036 83.7329 169.333 91.7152 176.764 93.9194C180.359 94.9906 184.154 94.5477 187.428 92.6938C190.711 90.8398 193.091 87.7807 194.125 84.0934C196.274 76.4715 191.976 68.489 184.546 66.2848C183.25 65.9037 181.935 65.708 180.63 65.708V65.7183Z" fill="var(--fill-0, #4C4B4C)"/>
<path id="Vector_26" d="M174.452 103.047C174.371 103.047 174.281 103.037 174.191 103.006C173.699 102.862 173.418 102.336 173.558 101.832L185.949 57.8509C186.09 57.3462 186.602 57.0578 187.094 57.202C187.586 57.3462 187.867 57.8715 187.726 58.3762L175.335 102.357C175.215 102.769 174.843 103.047 174.442 103.047H174.452Z" fill="var(--fill-0, #4C4B4C)"/>
<path id="Vector_27" d="M202.087 87.4206C202.007 87.4206 201.916 87.4103 201.826 87.3794L158.95 74.6694C158.458 74.5252 158.177 73.9998 158.318 73.4951C158.458 72.9905 158.97 72.7021 159.462 72.8463L202.338 85.5563C202.83 85.7005 203.111 86.2258 202.971 86.7305C202.85 87.1425 202.479 87.4206 202.077 87.4206H202.087Z" fill="var(--fill-0, #4C4B4C)"/>
</g>
</svg>
