<svg preserveAspectRatio="none" width="100%" height="100%" overflow="visible" style="display: block;" viewBox="0 0 38.0771 39.0525" fill="none" xmlns="http://www.w3.org/2000/svg">
<path id="Vector" d="M17.9892 39.0525C17.9089 39.0525 17.8286 39.0525 17.7482 39.0319L12.7277 37.971C12.1051 37.8371 11.6934 37.2397 11.7737 36.5908L12.3963 31.9662C11.6332 31.5336 10.9102 31.0392 10.2374 30.4624L6.28122 32.7799C5.72895 33.0992 5.02608 32.9344 4.67464 32.3885L1.85307 28.0008C1.50163 27.4549 1.62212 26.7236 2.13422 26.3322L5.76912 23.51C5.52813 22.6551 5.35743 21.7796 5.2771 20.8835L0.889112 19.6476C0.2766 19.4725 -0.104965 18.8442 0.0255702 18.2056L1.05981 13.0556C1.19034 12.417 1.77273 11.9843 2.40532 12.077L6.91382 12.7156C7.33554 11.9328 7.81753 11.1912 8.37983 10.5114L6.12057 6.45335C5.80929 5.88686 5.96994 5.16589 6.50212 4.80539L10.7797 1.91106C11.3119 1.55057 12.0147 1.6742 12.4063 2.19949L15.1476 5.92805C15.981 5.68085 16.8345 5.50576 17.7081 5.42336L18.913 0.912005C19.0837 0.283712 19.6762 -0.107669 20.3188 0.0262298L25.3394 1.08715C25.9619 1.22105 26.3736 1.81841 26.2933 2.4673L25.6707 7.09194C26.4339 7.52453 27.1568 8.01888 27.8296 8.58537L31.7858 6.2679C32.3381 5.9486 33.041 6.1237 33.3924 6.6593L36.214 11.0471C36.5654 11.593 36.4449 12.3242 35.9328 12.7156L32.2979 15.5378C32.5389 16.3927 32.7096 17.2785 32.7899 18.1643L37.188 19.4003C37.8005 19.5754 38.182 20.2037 38.0515 20.8423L37.0172 25.9922C36.8867 26.6308 36.3043 27.0635 35.6717 26.9708L31.1633 26.3322C30.7516 27.115 30.2595 27.8462 29.7073 28.5466L31.9665 32.6048C32.2778 33.1713 32.1171 33.8922 31.585 34.2527L27.3074 37.1471C26.7753 37.5076 26.0623 37.3839 25.6808 36.8586L22.9295 33.1301C22.086 33.3876 21.2325 33.5524 20.369 33.6348L19.164 38.1358C19.0134 38.6817 18.5315 39.0525 17.9993 39.0422L17.9892 39.0525ZM14.3242 35.7771L17.1257 36.3643L18.2503 32.1207C18.3909 31.5954 18.8427 31.2246 19.3749 31.2143C20.5799 31.1731 21.7747 30.9362 22.9295 30.5036C23.4215 30.3182 23.9838 30.483 24.3051 30.9156L26.8857 34.4279L29.2755 32.8107L27.1468 28.9895C26.8857 28.5157 26.956 27.9286 27.3175 27.5269C28.1609 26.6102 28.8437 25.5699 29.3458 24.4472C29.5667 23.9528 30.0688 23.6645 30.601 23.7469L34.8484 24.3546L35.4207 21.4809L31.2837 20.317C30.7716 20.1728 30.4102 19.7093 30.4001 19.1634C30.36 17.9274 30.129 16.6915 29.7073 15.5173C29.5265 15.0023 29.6872 14.4358 30.1089 14.1062L33.533 11.4591L31.9565 9.0077L28.2312 11.181C27.7693 11.4488 27.197 11.3767 26.8054 11.0059C25.9218 10.1511 24.9076 9.45064 23.8031 8.92535C23.3211 8.69875 23.05 8.17346 23.1203 7.63786L23.7127 3.28103L20.9112 2.69387L19.7766 6.93741C19.636 7.46271 19.1841 7.83351 18.6519 7.84381C17.437 7.88501 16.2421 8.11166 15.0974 8.54426C14.6054 8.72965 14.043 8.56483 13.7217 8.13224L11.1412 4.61994L8.75135 6.23709L10.8801 10.0583C11.1411 10.5321 11.0709 11.1192 10.7094 11.5209C9.86592 12.4376 9.18311 13.4676 8.68106 14.6006C8.46015 15.095 7.95809 15.3833 7.42591 15.3009L3.1785 14.6933L2.60616 17.567L6.74312 18.7309C7.25522 18.8751 7.6167 19.3386 7.62675 19.8844C7.66691 21.1307 7.89785 22.3563 8.30954 23.5305C8.49028 24.0455 8.32963 24.612 7.9079 24.9416L4.48385 27.5887L6.06032 30.0401L9.78559 27.8565C10.2475 27.5888 10.8198 27.6608 11.2114 28.0316C12.0951 28.8865 13.1092 29.5972 14.2138 30.1225C14.6957 30.3491 14.9668 30.8744 14.8965 31.41L14.3041 35.7668L14.3242 35.7771ZM19.0134 27.4651C18.5114 27.4651 17.9993 27.4136 17.4872 27.3003C13.31 26.4145 10.619 22.2225 11.4725 17.9378C11.8842 15.8675 13.059 14.0753 14.7861 12.9114C16.5132 11.7475 18.5716 11.3355 20.5899 11.7681C24.757 12.6436 27.4581 16.8459 26.6046 21.1307C25.8515 24.8798 22.6082 27.4754 19.0134 27.4651ZM17.9691 24.8799C20.8409 25.4773 23.6524 23.5821 24.2449 20.6363C24.8373 17.6905 22.9797 14.7963 20.1079 14.1989C18.7122 13.9105 17.2964 14.1886 16.1115 14.992C14.9267 15.7954 14.1133 17.0211 13.8322 18.4527C13.2398 21.3985 15.0974 24.2825 17.9691 24.8902V24.8799Z" fill="var(--fill-0, #4C4B4C)"/>
</svg>
