<svg preserveAspectRatio="none" width="100%" height="100%" overflow="visible" style="display: block;" viewBox="0 0 80.0742 75.6045" fill="none" xmlns="http://www.w3.org/2000/svg">
<g id="Group">
<path id="Vector" d="M14.0432 36.4677C13.6416 36.4059 13.2901 36.138 13.1194 35.7569L8.84183 26.4047C8.70125 26.106 8.69129 25.766 8.80175 25.4467C8.9122 25.1377 9.14315 24.8803 9.43435 24.7361L42.0682 9.00813C42.2891 8.90513 42.53 8.86395 42.771 8.90515C42.8513 8.91545 42.9316 8.93599 43.0019 8.96689C43.3032 9.08019 43.5542 9.31709 43.6948 9.61579L47.9724 18.9682C48.2535 19.5965 47.9924 20.338 47.3899 20.6367L14.7561 36.3646C14.5352 36.4676 14.2942 36.5089 14.0533 36.4677H14.0432ZM11.5731 26.4767L14.8164 33.563L45.2411 18.9063L41.9978 11.8303L11.5731 26.487V26.4767Z" fill="var(--fill-0, #3C3D3D)"/>
<path id="Vector_2" d="M16.9563 42.1217C16.5546 42.0599 16.2032 41.7921 16.0325 41.411C15.7513 40.7827 16.0123 40.0411 16.6148 39.7424L48.9776 24.1484C49.1985 24.0454 49.4394 24.0042 49.6704 24.0454C50.072 24.1072 50.4235 24.375 50.5942 24.7561C50.7348 25.0548 50.7448 25.3947 50.6343 25.714C50.5238 26.023 50.3029 26.2805 50.0017 26.4247L17.639 42.0188C17.4181 42.1218 17.1772 42.1629 16.9362 42.1217H16.9563Z" fill="var(--fill-0, #3C3D3D)"/>
<path id="Vector_3" d="M19.6049 47.9104C19.2032 47.8486 18.8517 47.5807 18.681 47.1996C18.5405 46.9009 18.5304 46.5611 18.6408 46.2418C18.7513 45.9328 18.9722 45.6752 19.2734 45.531L42.8501 34.1702C43.071 34.0672 43.3121 34.026 43.553 34.0672C43.9547 34.129 44.3061 34.3969 44.4768 34.778C44.768 35.4063 44.4969 36.1479 43.8944 36.4466L20.3178 47.8074C20.0968 47.9104 19.8558 47.9516 19.6148 47.9104H19.6049Z" fill="var(--fill-0, #3C3D3D)"/>
<path id="Vector_4" d="M21.3208 52.2667L36.8947 44.758L40.0175 51.5663L24.4436 59.0749L21.3208 52.2667ZM24.5641 53.4718L25.6084 55.7481L36.7641 50.3716L35.7198 48.0952L24.5641 53.4718Z" fill="var(--fill-0, #3C3D3D)"/>
<path id="Vector_5" d="M39.7983 43.3573L55.3722 35.8486L58.495 42.6569L42.9211 50.1655L39.7983 43.3573ZM43.0516 44.5624L44.0958 46.8386L55.2517 41.4621L54.2074 39.1859L43.0516 44.5624Z" fill="var(--fill-0, #3C3D3D)"/>
<path id="Vector_6" d="M28.0805 65.7084C27.6789 65.6466 27.3274 65.3787 27.1567 64.9976C26.8755 64.3693 27.1367 63.6277 27.7391 63.329L40.5316 57.1697C40.7525 57.0667 40.9934 57.0255 41.2344 57.0667C41.6361 57.1285 41.9876 57.3963 42.1583 57.7774C42.2988 58.0761 42.3089 58.416 42.1985 58.7353C42.088 59.0546 41.8671 59.3018 41.5659 59.4459L28.7733 65.6053C28.5524 65.7083 28.3115 65.7496 28.0705 65.7084H28.0805Z" fill="var(--fill-0, #3C3D3D)"/>
<path id="Vector_7" d="M46.8752 56.6564C46.4735 56.5946 46.1222 56.3267 45.9515 55.9456C45.6703 55.3173 45.9313 54.5757 46.5338 54.277L59.3263 48.1177C59.5472 48.0147 59.7881 47.9735 60.0291 48.0147C60.4307 48.0765 60.7822 48.3443 60.9529 48.7254C61.2341 49.3537 60.9731 50.0952 60.3706 50.3939L47.5781 56.5534C47.3572 56.6564 47.1162 56.6976 46.8752 56.6564Z" fill="var(--fill-0, #3C3D3D)"/>
<path id="Vector_8" d="M27.1459 75.5242C25.1176 75.2152 23.3805 73.8866 22.5069 71.9914L0.115184 23.1184C-0.0253929 22.8197 -0.0354733 22.4798 0.0749796 22.1606C0.185433 21.8413 0.406343 21.594 0.707578 21.4498L44.969 0.118766C45.1899 0.0157668 45.431 -0.0254076 45.672 0.015792C45.7523 0.0260919 45.8326 0.0466263 45.9029 0.0775259C46.2041 0.190825 46.4551 0.417427 46.5957 0.726424L53.5342 15.8878L60.6334 12.4683C60.7438 12.4168 60.8743 12.3756 61.0049 12.355C61.6073 12.2108 62.1394 12.1903 62.6716 12.2727C63.013 12.3242 63.3645 12.4271 63.6958 12.561C64.7803 13.0142 65.6639 13.8897 66.176 15.0124L79.6613 44.4598C79.7316 44.6246 79.7718 44.7894 79.7718 44.9748V45.1602L79.8522 45.325C79.9024 45.428 79.9325 45.5309 79.9526 45.6339C80.4647 48.4561 79.3401 51.0723 76.9503 52.6173C76.7796 52.7615 76.6891 52.813 76.5987 52.8645L30.6404 75.0092C29.5459 75.5345 28.3408 75.7199 27.1459 75.5345V75.5242ZM2.84635 23.1802L24.7161 70.9202C25.2382 72.0635 26.2825 72.8566 27.4975 73.042C28.2104 73.1553 28.9434 73.042 29.5961 72.7227L70.1021 53.1941L68.9173 52.3598C67.8228 51.5873 66.9392 50.5161 66.3668 49.2801L66.156 48.8064L66.0355 48.6415C65.8347 48.384 65.5534 48.0339 65.4329 47.4262C65.3727 47.0966 65.433 46.767 65.6137 46.4889C65.7945 46.2108 66.0656 46.0151 66.3869 45.9533C66.5275 45.9224 66.668 45.9224 66.8086 45.943C67.2705 46.0151 67.6521 46.3549 67.7927 46.8081L67.8428 46.9626L67.9432 47.0862C68.0436 47.2201 68.2446 47.4673 68.4052 47.8278L68.5859 48.2295C69.1482 49.4655 70.1624 50.4234 71.4276 50.9075C71.769 51.0413 72.1204 51.1341 72.4718 51.1856C73.3655 51.3195 74.2391 51.2062 75.0022 50.8354C76.9904 49.8775 77.9142 48.1368 77.5326 46.0666C77.5226 45.9945 77.5125 45.9224 77.5125 45.8503V45.6339L77.4021 45.4486L63.9368 16.0527C63.6858 15.4965 63.2641 15.0741 62.742 14.8578C62.5914 14.796 62.4407 14.755 62.2901 14.7241C61.9587 14.6726 61.6274 14.7239 61.3261 14.8578C60.3923 15.311 60.0408 16.578 60.5529 17.6801L68.6562 35.3753C68.9374 36.0036 68.6762 36.7451 68.0738 37.0438C67.8529 37.1468 67.6119 37.188 67.381 37.1468C67.0898 37.1056 66.8187 36.9512 66.6279 36.7143L66.2162 36.2199L63.5152 37.5176L63.7762 38.2387C63.9972 38.8567 63.726 39.5262 63.1537 39.8043C62.9328 39.9073 62.6917 39.9484 62.4507 39.9072C62.0491 39.8454 61.6977 39.5776 61.527 39.1965L44.8887 2.87919L2.8363 23.1493L2.84635 23.1802ZM54.5785 18.1436L62.4407 35.3135L65.3125 33.9333L58.364 18.7718C58.2034 18.432 58.0829 18.0509 58.0026 17.6492L57.7916 16.5986L54.5785 18.1436Z" fill="var(--fill-0, #3C3D3D)"/>
<path id="Vector_9" d="M64.2162 44.3881C63.9652 44.3469 63.7342 44.2337 63.5535 44.0586C63.1619 43.6878 63.0616 43.1006 63.2825 42.6166C63.3025 42.5754 63.3226 42.5342 63.3427 42.5033C63.5535 42.0295 63.895 41.7616 64.2866 41.6792C64.4171 41.6586 64.5576 41.6483 64.6881 41.6792C65.2002 41.7616 65.6119 42.1633 65.7124 42.6886C65.7425 42.8637 65.7525 43.0388 65.7224 43.2036C65.6421 43.9143 65.1601 44.3778 64.5676 44.4087C64.4271 44.419 64.3267 44.4087 64.2162 44.4087V44.3881Z" fill="var(--fill-0, #3C3D3D)"/>
</g>
</svg>
