<svg preserveAspectRatio="none" width="100%" height="100%" overflow="visible" style="display: block;" viewBox="0 0 113.024 108.284" fill="none" xmlns="http://www.w3.org/2000/svg">
<g id="Group">
<path id="Vector" d="M98.3436 0.990439L14.0279 1.50543C7.06936 1.54663 1.45636 7.37637 1.49653 14.5142L1.82784 71.0297C1.86801 78.1675 7.55132 83.9251 14.5098 83.8839L20.2936 83.853L20.2132 106.986L48.3486 83.6882L98.8256 83.3792C105.784 83.338 111.397 77.5083 111.357 70.3705L111.026 13.855C110.985 6.71717 105.302 0.959549 98.3436 1.00075V0.990439Z" fill="var(--fill-0, #F4C058)"/>
<g id="Group_2">
<path id="Vector_2" d="M103.395 83.379C102.069 83.8116 100.693 84.0382 99.2777 84.0485L50.7084 84.4501L50.106 84.8724C50.0457 84.9445 49.9855 85.0167 49.9152 85.0682L22.1212 108.006C22.0007 108.099 21.8702 108.171 21.7296 108.222C21.4284 108.325 21.1071 108.294 20.826 108.16C20.4042 107.954 20.1331 107.512 20.123 107.027L19.8018 85.2225C19.8018 85.0269 19.8419 84.8415 19.9222 84.6664L20.6653 84.7076L14.3795 84.7591C6.74821 84.8209 0.492542 78.4968 0.432295 70.6689L0.00047096 14.8641C-0.0296526 11.0737 1.38624 7.48933 3.97686 4.79076C5.55332 3.14278 7.50131 1.90682 9.61999 1.21673C10.9454 0.784136 12.321 0.557514 13.7369 0.547214L58.2092 0.186743C58.5406 0.186743 58.8519 0.310316 59.0828 0.547214C59.3138 0.784111 59.4443 1.1034 59.4543 1.4433C59.4543 1.99949 59.113 2.49394 58.6009 2.65874C58.4804 2.69994 58.3598 2.72048 58.2393 2.72048L13.767 3.08095C12.6123 3.08095 11.4776 3.27667 10.3932 3.62687C8.65606 4.19336 7.04948 5.21303 5.75417 6.56231C3.62544 8.78709 2.46066 11.7226 2.49078 14.8435L2.92249 70.6483C2.94257 73.7589 4.15757 76.6737 6.32646 78.8676C8.49535 81.0615 11.3571 82.246 14.3896 82.2254L29.8027 82.1018C30.4855 82.1018 31.0378 82.6579 31.0478 83.3583C31.0478 83.9145 30.7064 84.409 30.1943 84.5738C30.0739 84.615 29.9534 84.6355 29.8329 84.6355L21.7296 84.6974L22.1715 84.6561C22.2618 84.8312 22.302 85.0167 22.302 85.2124L22.6032 104.411L46.9129 84.5016L48.7203 83.0185C48.4492 83.2348 49.2023 82.6374 49.373 82.4932C50.1261 81.8752 50.5076 81.9679 51.0097 81.8649C51.1302 81.8443 51.9837 81.9369 52.1142 81.9369L99.2876 81.5455C100.442 81.5455 101.577 81.3498 102.662 80.9996C104.399 80.4331 106.005 79.4135 107.301 78.0642C109.429 75.8394 110.594 72.9039 110.564 69.783L110.423 51.6449C110.423 51.0887 110.765 50.5944 111.277 50.4296C111.397 50.3884 111.518 50.3678 111.638 50.3678C112.321 50.3678 112.873 50.9239 112.883 51.6243L113.024 69.7625C113.054 73.5529 111.638 77.1269 109.048 79.8357C107.471 81.4837 105.523 82.7095 103.405 83.4099L103.395 83.379Z" fill="var(--fill-0, #236242)"/>
<path id="Vector_3" d="M111.98 46.2466C111.859 46.2878 111.739 46.3084 111.618 46.3084C110.935 46.3084 110.383 45.7522 110.373 45.0518L110.353 42.7138V42.6416C110.333 42.5695 110.323 42.5078 110.323 42.4357V40.7671C110.313 40.695 110.323 40.6331 110.323 40.5713V40.5096L110.303 37.3167C110.303 36.7605 110.644 36.266 111.156 36.1012C111.277 36.06 111.397 36.0394 111.518 36.0394C112.201 36.0394 112.753 36.5957 112.763 37.296L112.843 45.021C112.843 45.5772 112.502 46.0715 111.99 46.2363L111.98 46.2466Z" fill="var(--fill-0, #236242)"/>
<path id="Vector_4" d="M111.841 30.5698C111.721 30.611 111.6 30.6315 111.47 30.6315C110.797 30.6315 110.235 30.0753 110.235 29.3749V28.5818C110.235 27.9432 110.576 27.4591 111.098 27.284C111.219 27.2428 111.339 27.2223 111.46 27.2223C111.791 27.2223 112.102 27.3459 112.333 27.5828C112.564 27.8197 112.695 28.139 112.705 28.4788V29.344C112.705 29.9002 112.363 30.3843 111.851 30.5594L111.841 30.5698Z" fill="var(--fill-0, #236242)"/>
<path id="Vector_5" d="M79.8183 2.472C79.6978 2.5132 79.5772 2.53386 79.4567 2.53386L75.4403 2.56466C74.7575 2.56466 74.2052 2.0085 74.1952 1.30811C74.1952 0.751912 74.5367 0.257588 75.0488 0.0927895C75.1692 0.05159 75.2897 0.0309298 75.4102 0.0309298L79.4267 0C80.1095 0 80.6617 0.556289 80.6718 1.25668C80.6718 1.81288 80.3304 2.3072 79.8183 2.472Z" fill="var(--fill-0, #236242)"/>
<path id="Vector_6" d="M70.5769 2.53425C70.4263 2.58575 70.2656 2.60627 70.0949 2.58567L64.271 2.77112C63.9397 2.74022 63.6485 2.58567 63.4376 2.32817C63.2268 2.07068 63.1263 1.74118 63.1565 1.40128C63.1966 0.886289 63.538 0.463923 64.0099 0.299125C64.1606 0.247626 64.3213 0.226975 64.492 0.247575L70.3158 0.0622476C70.6472 0.0931473 70.9385 0.247575 71.1493 0.505072C71.3602 0.76257 71.4605 1.09219 71.4304 1.43209C71.3902 1.94708 71.0488 2.36945 70.5769 2.53425Z" fill="var(--fill-0, #236242)"/>
<path id="Vector_7" d="M111.76 21.8253C111.639 21.8665 111.519 21.8871 111.398 21.8871C111.067 21.8871 110.756 21.7635 110.525 21.5266C110.294 21.2897 110.163 20.9704 110.153 20.6305L110.103 14.2034C110.073 11.0825 108.868 8.16766 106.709 5.98409C104.54 3.80051 101.679 2.60572 98.636 2.63662L86.3356 2.7396C85.6528 2.7396 85.1005 2.18343 85.0905 1.48304C85.0905 0.926846 85.4319 0.432396 85.944 0.267598C86.0645 0.226399 86.1849 0.205864 86.3054 0.205864L98.6059 0.102891C102.301 0.0719908 105.795 1.52423 108.426 4.18161C111.057 6.83898 112.533 10.3924 112.553 14.1931L112.603 20.6202C112.603 21.1764 112.262 21.6605 111.75 21.8356L111.76 21.8253Z" fill="var(--fill-0, #236242)"/>
</g>
<g id="Group_3">
<path id="Vector_8" d="M21.2822 29.4287C21.4931 28.4502 21.6939 27.2554 22.5474 26.6168C23.3005 26.0606 24.5957 26.0091 25.4994 26.0091C27.3169 26.0091 29.1544 26.5447 29.1544 28.7489V37.3492C29.1544 39.265 28.0901 40.0581 26.2827 40.0581C24.7765 40.0581 23.8527 39.4711 23.5113 37.9055L21.7742 46.753C21.6437 47.3607 21.252 47.9479 20.8403 48.3496C20.2479 48.9058 19.4145 49.0705 18.6414 49.0705C17.8682 49.0705 17.0649 48.9058 16.4624 48.3496C16.0206 47.9788 15.629 47.371 15.5286 46.753L13.7714 37.9055V46.3513C13.7714 48.2877 12.7071 49.0602 10.9198 49.0602C9.13244 49.0602 8.14839 48.2053 8.14839 46.3513V28.7385C8.14839 26.5035 9.98582 25.9987 11.8033 25.9987C12.8676 25.9987 14.4442 26.0812 15.1471 27.0082C15.6692 27.6983 15.8499 28.6047 16.0005 29.4287L18.6414 42.7053L21.2822 29.4287ZM29.1544 46.3513C29.1544 48.2877 28.0901 49.0602 26.2827 49.0602C24.4753 49.0602 23.5113 48.2053 23.5113 46.3513V39.4195C24.3146 40.3465 25.138 40.6967 26.363 40.6967C27.588 40.6967 28.4315 40.3259 29.1544 39.4195V46.3513Z" fill="var(--fill-0, white)"/>
<path id="Vector_9" d="M52.7683 32.4864C53.3105 34.1344 53.5415 35.8853 53.5415 37.6157C53.5415 41.1795 52.5273 44.63 49.7358 46.9165C47.8682 48.3997 45.4885 49.0692 43.1288 49.0692C40.7691 49.0692 38.4395 48.3997 36.5518 46.9165C33.7001 44.6609 32.7462 41.0971 32.7462 37.5437C32.7462 33.2177 34.2223 29.0977 38.2387 27.1099C39.765 26.3683 41.472 26.0489 43.1589 26.0489C45.4584 26.0489 47.7176 26.6876 49.5552 28.1502C50.3082 28.7888 50.9809 29.5818 50.9809 30.6427C50.9809 32.1876 49.6053 33.3001 48.1594 33.3001C47.2557 33.3001 46.7335 32.8778 45.8298 32.1053C45.1068 31.4667 44.0224 31.2298 43.0584 31.2298C41.6326 31.2298 40.3374 31.8684 39.5341 33.1147C38.6505 34.4124 38.4998 36.0399 38.4998 37.554C38.4998 39.068 38.6806 40.7366 39.5341 42.0653C40.3374 43.3425 41.6628 43.8986 43.1288 43.8986C45.0667 43.8986 46.4724 42.9923 47.2155 41.1383C47.6573 40.0465 47.7879 38.7796 47.7879 37.523C47.7879 36.1943 47.6373 34.8966 47.065 33.6709C47.4566 33.8254 47.818 33.9387 48.2297 33.9387C50.0371 33.9387 51.5734 32.5069 51.5734 30.6427C51.5734 30.4264 51.5433 30.2204 51.5232 30.0041C52.0453 30.7972 52.4771 31.6212 52.7683 32.4967V32.4864Z" fill="var(--fill-0, white)"/>
<path id="Vector_10" d="M64.5982 40.1912C64.4375 40.6444 64.3371 41.0668 64.3371 41.5509C64.3371 43.5181 66.024 44.9497 67.8816 44.9497C68.6046 44.9497 69.2774 44.7129 69.8798 44.2597L69.4178 45.6193C68.6146 47.9264 67.7108 49.0697 65.1503 49.0697C62.5898 49.0697 61.3749 48.0294 60.5917 45.5883L55.5913 29.9429C55.4406 29.5412 55.3602 29.0673 55.3602 28.6141C55.3602 27.0486 56.9869 26.0392 58.3927 26.0392C59.6076 26.0392 60.4913 26.8116 60.8528 27.9549L64.6885 39.9337L64.6082 40.2015L64.5982 40.1912ZM69.1368 27.9446C69.4983 26.8322 70.4019 26.0289 71.5667 26.0289C72.9624 26.0289 74.6494 27.0383 74.6494 28.6348C74.6494 29.0571 74.549 29.5103 74.4185 29.9326L70.5325 42.1791C70.1208 43.5078 69.3677 44.3009 68.0222 44.3009C66.5161 44.3009 64.9697 43.2091 64.9697 41.5406C64.9697 41.2213 65.05 40.9019 65.1304 40.5826L69.1468 27.9446H69.1368Z" fill="var(--fill-0, white)"/>
<path id="Vector_11" d="M83.1434 46.4536C83.1434 48.2355 82.2397 49.0594 80.2917 49.0594C78.5044 49.0594 77.5204 48.3179 77.5204 46.4536V28.6348C77.5204 26.6675 78.6349 26.0289 80.3921 26.0289C82.1493 26.0289 83.1133 26.8014 83.1333 28.6348V46.4536H83.1434Z" fill="var(--fill-0, white)"/>
<path id="Vector_12" d="M100.594 34.8456C102.2 34.8456 103.104 35.6695 103.104 37.3381C103.104 39.0067 102.12 39.7587 100.594 39.7587H93.4444V42.8383C91.9181 43.1885 91.1952 44.3833 91.1952 45.9489C91.1952 46.9274 91.4763 47.8853 92.2796 48.5033C89.5584 48.5033 87.8213 48.5033 87.8213 45.1558V29.9325C87.8213 27.2546 89.0162 26.5851 91.4462 26.5851H101.417C103.024 26.5851 103.957 27.4605 103.957 29.1394C103.957 30.8183 103.024 31.6938 101.417 31.6938H94.7397C93.6252 31.6938 93.4444 31.8792 93.4444 33.0534V34.8559H100.594V34.8456ZM94.3481 48.5033C92.7415 48.5033 91.8077 47.6483 91.8077 45.9797C91.8077 44.3111 92.7114 43.4047 94.3481 43.4047H101.959C103.586 43.4047 104.5 44.2596 104.5 45.9591C104.5 46.814 104.219 47.7101 103.465 48.1942C103.004 48.462 102.481 48.4827 101.959 48.5136H94.3481V48.5033Z" fill="var(--fill-0, white)"/>
</g>
<g id="Group_4">
<path id="Vector_13" d="M21.6583 29.2303C21.8692 28.2518 22.07 27.0571 22.9235 26.4185C23.6766 25.8623 24.9718 25.8108 25.8755 25.8108C27.693 25.8108 29.5305 26.3464 29.5305 28.5506V37.151C29.5305 39.0668 28.4662 39.8599 26.6588 39.8599C25.1526 39.8599 24.2288 39.2728 23.8874 37.7072L22.1503 46.5548C22.0198 47.1625 21.6281 47.7495 21.2164 48.1512C20.624 48.7074 19.7906 48.8723 19.0175 48.8723C18.2443 48.8723 17.441 48.7074 16.8385 48.1512C16.3967 47.7804 16.0051 47.1728 15.9047 46.5548L14.1475 37.7072V46.1531C14.1475 48.0895 13.0831 48.862 11.2957 48.862C9.50841 48.862 8.52449 48.0071 8.52449 46.1531V28.5403C8.52449 26.3052 10.3619 25.8005 12.1794 25.8005C13.2437 25.8005 14.8203 25.8829 15.5232 26.8099C16.0453 27.5 16.226 28.4063 16.3766 29.2303L19.0175 42.5069L21.6583 29.2303ZM29.5305 46.1531C29.5305 48.0895 28.4662 48.862 26.6588 48.862C24.8514 48.862 23.8874 48.0071 23.8874 46.1531V39.2213C24.6907 40.1483 25.514 40.4984 26.7391 40.4984C27.9641 40.4984 28.8076 40.1277 29.5305 39.2213V46.1531Z" stroke="var(--stroke-0, #236242)" stroke-width="1.29779" stroke-linecap="round" stroke-linejoin="round"/>
<path id="Vector_14" d="M53.1484 32.2881C53.6906 33.9361 53.9216 35.6871 53.9216 37.4174C53.9216 40.9812 52.9074 44.4317 50.1159 46.7183C48.2483 48.2015 45.8686 48.8709 43.5089 48.8709C41.1492 48.8709 38.8196 48.2015 36.9319 46.7183C34.0802 44.4626 33.1264 40.8987 33.1264 37.3453C33.1264 33.0193 34.6024 28.8994 38.6188 26.9115C40.1451 26.1699 41.8521 25.8507 43.539 25.8507C45.8385 25.8507 48.0977 26.4892 49.9353 27.9518C50.6884 28.5904 51.361 29.3835 51.361 30.4444C51.361 31.9894 49.9855 33.1017 48.5395 33.1017C47.6358 33.1017 47.1136 32.6795 46.2099 31.907C45.4869 31.2684 44.4025 31.0314 43.4385 31.0314C42.0127 31.0314 40.7174 31.6701 39.9141 32.9164C39.0305 34.2142 38.8799 35.8415 38.8799 37.3556C38.8799 38.8697 39.0606 40.5383 39.9141 41.8669C40.7174 43.1441 42.0429 43.7003 43.5089 43.7003C45.4468 43.7003 46.8525 42.7939 47.5956 40.9399C48.0374 39.8481 48.168 38.5812 48.168 37.3247C48.168 35.996 48.0173 34.6982 47.445 33.4725C47.8366 33.627 48.1981 33.7403 48.6098 33.7403C50.4172 33.7403 51.9536 32.3087 51.9536 30.4444C51.9536 30.2281 51.9234 30.0221 51.9033 29.8058C52.4254 30.5989 52.8572 31.4229 53.1484 32.2984V32.2881Z" stroke="var(--stroke-0, #236242)" stroke-width="1.29779" stroke-linecap="round" stroke-linejoin="round"/>
<path id="Vector_15" d="M64.9783 39.993C64.8176 40.4461 64.7172 40.8684 64.7172 41.3525C64.7172 43.3198 66.4041 44.7515 68.2618 44.7515C68.9847 44.7515 69.6575 44.5146 70.2599 44.0614L69.798 45.421C68.9947 47.7282 68.091 48.8714 65.5305 48.8714C62.97 48.8714 61.7551 47.8312 60.9719 45.3901L55.9714 29.7445C55.8207 29.3428 55.7403 28.8691 55.7403 28.4159C55.7403 26.8503 57.367 25.8409 58.7728 25.8409C59.9878 25.8409 60.8715 26.6134 61.2329 27.7567L65.0686 39.7355L64.9883 40.0033L64.9783 39.993ZM69.5169 27.7464C69.8784 26.634 70.782 25.8306 71.9468 25.8306C73.3425 25.8306 75.0295 26.84 75.0295 28.4365C75.0295 28.8588 74.9291 29.3119 74.7986 29.7342L70.9126 41.9808C70.501 43.3094 69.7479 44.1026 68.4023 44.1026C66.8962 44.1026 65.3498 43.0108 65.3498 41.3422C65.3498 41.0229 65.4302 40.7036 65.5105 40.3844L69.527 27.7464H69.5169Z" stroke="var(--stroke-0, #236242)" stroke-width="1.29779" stroke-linecap="round" stroke-linejoin="round"/>
<path id="Vector_16" d="M83.5235 46.2552C83.5235 48.0371 82.6198 48.8611 80.6718 48.8611C78.8845 48.8611 77.9005 48.1195 77.9005 46.2552V28.4365C77.9005 26.4692 79.015 25.8306 80.7722 25.8306C82.5294 25.8306 83.4934 26.6031 83.5135 28.4365V46.2552H83.5235Z" stroke="var(--stroke-0, #236242)" stroke-width="1.29779" stroke-linecap="round" stroke-linejoin="round"/>
<path id="Vector_17" d="M100.974 34.6574C102.58 34.6574 103.484 35.4814 103.484 37.15C103.484 38.8186 102.5 39.5705 100.974 39.5705H93.8245V42.6501C92.2982 43.0003 91.5753 44.1951 91.5753 45.7607C91.5753 46.7392 91.8564 47.6971 92.6597 48.3151C89.9385 48.3151 88.2014 48.3151 88.2014 44.9676V29.7443C88.2014 27.0664 89.3963 26.3969 91.8263 26.3969H101.797C103.404 26.3969 104.338 27.2725 104.338 28.9513C104.338 30.6302 103.404 31.5057 101.797 31.5057H95.1198C94.0053 31.5057 93.8245 31.691 93.8245 32.8652V34.6677H100.974V34.6574ZM94.7282 48.3047C93.1216 48.3047 92.1878 47.4499 92.1878 45.7813C92.1878 44.1127 93.0915 43.2064 94.7282 43.2064H102.339C103.966 43.2064 104.88 44.0612 104.88 45.7607C104.88 46.6156 104.599 47.5117 103.846 47.9958C103.384 48.2636 102.862 48.2842 102.339 48.3151H94.7282V48.3047Z" stroke="var(--stroke-0, #236242)" stroke-width="1.29779" stroke-linecap="round" stroke-linejoin="round"/>
</g>
<g id="Group_5">
<path id="Vector_18" d="M26.1105 62.9441C26.1105 62.7587 26.221 62.5732 26.462 62.5114C27.8075 62.1715 28.4301 61.3167 28.6108 60.0807C28.651 59.8232 28.8417 59.7099 29.0325 59.7099C29.2735 59.7099 29.5144 59.8746 29.5144 60.1321V60.1939C29.173 62.7174 26.964 63.3766 26.5624 63.3766C26.2612 63.3766 26.1105 63.1705 26.1105 62.9542V62.9441ZM33.2197 59.576L31.0206 59.5451C31.0206 60.1424 31.0006 61.2652 31.0006 61.7596C31.0006 62.2024 31.0005 62.3569 31.7838 62.3569C32.2758 62.3569 32.818 62.3363 32.818 61.4814C32.818 61.193 33.0189 61.0591 33.2398 61.0591C33.4105 61.0591 33.7117 61.1621 33.7117 61.5432C33.7117 63.1397 32.5068 63.1603 31.8441 63.1603C31.0307 63.1603 30.1671 63.1294 30.1671 62.1097C30.1671 61.8213 30.1671 60.266 30.1671 59.5451C29.5848 59.5451 28.5204 59.5451 26.6527 59.576C26.3917 59.576 26.2511 59.3803 26.2511 59.1846C26.2511 58.9889 26.3917 58.7829 26.6628 58.7829H29.5144V57.6602H28.1187C27.6367 58.5151 27.3958 58.6593 27.1548 58.6593C26.9138 58.6593 26.703 58.4945 26.703 58.2885C26.703 58.1855 26.7531 58.0824 26.8636 57.9794C27.4158 57.4336 27.7573 56.6919 27.9782 56.0018C28.0184 55.8473 28.1489 55.7856 28.2894 55.7856C28.5204 55.7856 28.7915 55.9607 28.7915 56.1976C28.7915 56.3315 28.5605 56.8053 28.5304 56.8877H29.5144V55.8371C29.5144 55.5693 29.7253 55.4457 29.9362 55.4457C30.1471 55.4457 30.388 55.5796 30.388 55.8371V56.8877H32.4063C32.6774 56.8877 32.808 57.0834 32.808 57.2791C32.808 57.4748 32.6774 57.6704 32.4063 57.6704H30.378V58.8035H33.2297C33.5009 58.8035 33.6314 58.9992 33.6314 59.2052C33.6314 59.4112 33.5009 59.5966 33.2398 59.5966L33.2197 59.576Z" fill="var(--fill-0, #236242)"/>
<path id="Vector_19" d="M35.5963 57.1346C35.4056 57.1346 35.3152 57.0211 35.3152 56.8975C35.3152 56.774 35.4156 56.6504 35.5963 56.6504H37.6547V56.3826H35.4055C35.2047 56.3826 35.1043 56.2488 35.1043 56.1046C35.1043 55.9501 35.2047 55.8058 35.4055 55.8058H37.6448V55.6719V55.641C37.6448 55.4144 37.8255 55.3115 38.0163 55.3115C38.2272 55.3115 38.4379 55.435 38.4379 55.6719C38.4379 55.7749 38.4379 55.8985 38.4379 56.0118C38.4379 57.7319 38.2472 58.7001 35.8574 58.9267H35.8072C35.5762 58.9267 35.4658 58.7722 35.4658 58.628C35.4658 58.4838 35.5662 58.3292 35.757 58.3189C36.6708 58.2262 37.1427 58.0821 37.3837 57.8349C36.239 57.9688 35.3152 58.01 35.255 58.01C35.024 58.01 34.9135 57.8658 34.9135 57.7216C34.9135 57.5671 35.024 57.4229 35.2449 57.4229H35.4155C36.1285 57.4229 36.9218 57.3714 37.6247 57.3096C37.6247 57.2478 37.6247 57.1757 37.6448 57.1036L35.5963 57.1242V57.1346ZM38.9903 62.5317V63.0261C38.9903 63.3042 38.7995 63.4381 38.6087 63.4381C38.4179 63.4381 38.2171 63.3042 38.2171 63.0261V62.5317L35.3152 62.5523C35.0842 62.5523 34.9738 62.3874 34.9738 62.2226C34.9738 62.0578 35.0842 61.9034 35.3152 61.9034L38.2171 61.9239V61.6356C37.6949 61.6356 37.2129 61.6356 36.8213 61.6356C35.9678 61.6356 35.9478 61.2648 35.9478 60.7498C35.9478 60.1112 35.9779 59.8434 36.8012 59.8434C37.1828 59.8434 37.6849 59.8434 38.2171 59.8434V59.5756L35.8876 59.5962C35.6566 59.5962 35.536 59.4417 35.536 59.2975C35.536 59.1533 35.6566 58.9988 35.8876 58.9988H38.2171V58.7C38.2171 58.4837 38.4079 58.3808 38.5986 58.3808C38.7894 58.3808 38.9702 58.4837 38.9702 58.7V58.9988H41.4102C41.6412 58.9988 41.7516 59.143 41.7516 59.2872C41.7516 59.4417 41.6412 59.5859 41.4102 59.5859L38.9802 59.5653V59.8331C39.5425 59.8331 40.0947 59.8331 40.5667 59.8331C41.3398 59.8331 41.3399 60.2142 41.3399 60.688C41.3399 61.2339 41.3399 61.5944 40.5266 61.6253C40.0848 61.6253 39.5425 61.6459 38.9903 61.6459V61.9239L41.9926 61.9034C42.2135 61.9034 42.3239 62.0681 42.3239 62.2329C42.3239 62.3977 42.2135 62.5523 41.9926 62.5523L38.9903 62.5317ZM38.2171 60.2348C37.7652 60.2348 37.3435 60.2348 37.0623 60.2348C36.7711 60.2348 36.731 60.3172 36.7109 60.4614C36.7109 60.482 36.7109 60.5025 36.7109 60.5231H38.2271V60.2245L38.2171 60.2348ZM38.2171 60.8837H36.7008C36.7008 60.8837 36.7008 60.9455 36.7008 60.9764C36.731 61.1721 36.7812 61.1927 37.0623 61.203C37.3836 61.203 37.7853 61.203 38.207 61.203V60.8837H38.2171ZM39.8035 58.185V58.4323C39.8035 58.6692 39.6028 58.7928 39.3919 58.7928C39.1811 58.7928 38.9702 58.6795 38.9702 58.4323V55.6513C38.9702 55.4144 39.1811 55.3011 39.3819 55.3011C39.5827 55.3011 39.8035 55.4144 39.8035 55.641V55.8058H42.0026C42.2235 55.8058 42.3239 55.95 42.3239 56.0839C42.3239 56.2281 42.2235 56.3724 42.0026 56.3724H39.7935V56.7432H41.7013C41.8921 56.7432 41.9926 56.8564 41.9926 56.98C41.9926 57.1139 41.9022 57.2375 41.7013 57.2375H39.7836V57.6083H42.0628C42.2737 57.6083 42.3641 57.7422 42.3641 57.8864C42.3641 58.0409 42.2636 58.185 42.0628 58.185H39.8035ZM40.5566 60.4717C40.5566 60.3275 40.5366 60.2553 40.2253 60.245C39.9241 60.245 39.4722 60.245 38.9903 60.245V60.5438H40.5566V60.4717ZM40.5566 60.8837H38.9903V61.203C39.4421 61.203 39.8739 61.203 40.2354 61.203C40.5165 61.203 40.5466 61.1412 40.5566 60.9661V60.8837Z" fill="var(--fill-0, #236242)"/>
<path id="Vector_20" d="M49.2552 59.4117C49.2552 58.4229 48.5021 57.568 47.2369 57.568H47.2168C47.3574 57.6298 47.4578 57.7636 47.4578 57.9387V57.98C47.4578 58.9173 46.5641 60.5447 45.6002 61.5026C45.3793 61.7189 45.1583 61.8012 44.9475 61.8012C44.3249 61.8012 43.7727 61.0906 43.7727 60.1121C43.7727 58.495 45.3191 56.8573 47.2771 56.8573C49.0343 56.8573 50.1287 58.0521 50.1287 59.4426C50.1287 59.7722 50.0686 60.1121 49.938 60.452C49.1749 62.4296 46.8052 62.7076 46.6847 62.7076C46.3835 62.7076 46.1926 62.4914 46.1926 62.2751C46.1926 62.0794 46.3433 61.8939 46.6746 61.8321C48.2611 61.5643 49.2552 60.5653 49.2552 59.3911V59.4117ZM46.7348 57.6195C45.6504 57.8461 44.556 59.0306 44.556 60.0915C44.556 60.761 44.9877 60.8434 45.0178 60.8434C45.068 60.8434 45.1282 60.8227 45.1884 60.7712C45.4495 60.5343 46.534 59.2057 46.5741 58.0006C46.5741 57.8255 46.6445 57.6916 46.7449 57.6195H46.7348Z" fill="var(--fill-0, #236242)"/>
<path id="Vector_21" d="M52.4268 62.9848C51.6737 63.4483 51.0511 62.5523 51.8443 62.1506C53.1296 61.4914 53.7221 60.4716 53.9129 59.3696C53.953 59.1018 53.953 58.7826 53.9129 58.556C53.8124 57.9998 54.7965 57.804 54.917 58.4632C54.9371 58.5559 54.9371 58.6897 54.9371 58.8339C55.4592 58.5764 56.1018 58.1028 56.4231 57.6496C56.5738 57.4436 56.5938 57.3405 56.2625 57.3508C55.168 57.392 53.7622 57.5878 53.3706 57.6496C52.8987 57.7114 52.6678 57.7834 52.1758 57.7628C51.6134 57.7422 51.5029 56.8152 52.2359 56.8358C52.6075 56.8358 53.0192 56.7947 53.3806 56.7638C53.7622 56.7329 55.2181 56.5989 56.6139 56.5165C57.5879 56.465 57.9595 57.2169 57.347 57.9585C56.7947 58.628 56.0516 59.3284 55.1579 59.6683C55.0274 59.7198 54.8969 59.7198 54.7965 59.6683C54.4651 61.0485 53.7924 62.1299 52.4067 62.9848H52.4268Z" fill="var(--fill-0, #236242)"/>
<path id="Vector_22" d="M60.6909 58.9883C60.3294 58.7205 59.8675 58.4733 59.4558 58.3806C58.9337 58.2673 59.1546 57.3713 59.8173 57.5361C60.2792 57.6597 60.8214 57.8553 61.2531 58.1334C61.5343 58.3085 61.5343 58.6381 61.4038 58.8544C61.2732 59.0706 60.9821 59.1942 60.7009 58.9779L60.6909 58.9883ZM61.0725 62.3563C60.7813 62.5211 60.5805 62.6139 60.2391 62.6448C59.5161 62.7066 59.4157 61.7692 59.968 61.7074C60.1387 61.6868 60.4599 61.5633 60.6406 61.4809C62.2171 60.7496 63.623 59.2972 64.5066 57.5566C64.7978 56.9901 65.6713 57.3712 65.2897 58.0819C64.2153 60.0903 62.8598 61.3984 61.0825 62.3563H61.0725Z" fill="var(--fill-0, #236242)"/>
<path id="Vector_23" d="M70.9209 59.1948C70.7 60.5132 69.445 62.2229 67.7581 62.913C67.005 63.2117 66.6435 62.2846 67.3966 62.0477C68.8024 61.5945 69.8466 60.0599 69.9872 59.1226C70.0073 58.999 69.9871 58.8342 69.9269 58.7106C69.5955 58.7621 69.3044 58.8136 69.0835 58.8445C68.722 58.896 68.5513 58.9166 68.3806 58.9063C68.0894 59.3492 67.7178 59.7921 67.3162 60.1526C66.6936 60.7088 66.1414 59.9363 66.6836 59.514C67.3162 59.0196 67.9287 58.1133 68.1596 57.5262C68.3102 57.1554 68.3203 57.0523 68.3304 56.6918C68.3304 56.0532 69.2641 56.1357 69.2842 56.7434C69.2842 56.97 69.204 57.2584 69.1136 57.5159C69.0534 57.691 68.973 57.8661 68.8827 58.0515C68.953 58.0515 69.0232 58.0515 69.0835 58.0309C69.5654 57.9588 70.5997 57.7939 71.2624 57.7115C71.644 57.66 72.0959 57.5777 72.4071 57.6189C72.7084 57.6601 72.869 57.8454 72.8388 58.1235C72.8087 58.3707 72.5879 58.5562 72.2867 58.5459C71.9151 58.5253 71.6139 58.5047 71.2725 58.5459C71.162 58.5459 71.0415 58.5767 70.911 58.587C70.9713 58.7415 70.9812 58.9578 70.941 59.2256L70.9209 59.1948Z" fill="var(--fill-0, #236242)"/>
<path id="Vector_24" d="M79.9213 59.7516H79.4694C77.8025 59.7516 76.5374 59.8341 75.8445 59.8547C75.3927 59.8753 75.1617 59.8855 74.981 59.8855C74.8806 59.8855 74.8002 59.8855 74.6998 59.8855C74.3685 59.8855 74.1978 59.6384 74.1978 59.4015C74.1978 59.1646 74.3685 58.9688 74.7199 58.9688H74.7702C75.0915 58.9894 75.473 58.9998 75.8244 58.9998C76.5373 58.9998 78.4051 58.8967 79.9314 58.8452H79.9515C80.3029 58.8452 80.4835 59.0822 80.4835 59.2985C80.4835 59.5148 80.3029 59.7619 79.9314 59.7619L79.9213 59.7516Z" fill="var(--fill-0, #236242)"/>
<path id="Vector_25" d="M83.6448 62.5638C83.6448 62.9861 83.4239 63.2127 83.1729 63.2436C82.9319 63.2745 82.6809 63.0994 82.6909 62.6977C82.7411 61.2454 82.7611 58.4336 82.7209 57.1358C82.7209 56.8474 82.6909 56.5692 82.6407 56.3838C82.48 55.7452 83.4842 55.6218 83.5645 56.2397C83.6047 56.5075 83.6046 56.4147 83.6046 57.0327C83.6046 57.3932 83.6046 57.9083 83.6046 58.5057C83.6447 58.5057 83.705 58.5057 83.7552 58.5057C84.187 58.5469 85.3418 58.8044 85.8036 59.3194C86.2153 59.7726 85.6129 60.4936 85.161 60.0507C84.8196 59.7211 84.0464 59.4429 83.6046 59.3811C83.6046 60.5347 83.6347 61.7605 83.6448 62.5536V62.5638Z" fill="var(--fill-0, #236242)"/>
<path id="Vector_26" d="M36.2612 72.4505L35.1064 72.4813C34.8755 72.4813 34.765 72.3268 34.765 72.1723C34.765 72.0178 34.8855 71.8633 35.1165 71.8633H36.2712V71.5028C34.996 71.5028 34.8755 71.4719 34.8755 70.236C34.8755 69.1339 35.1164 69.1236 36.2811 69.1236V68.7527H34.9457C34.7148 68.7527 34.5943 68.588 34.5943 68.4335C34.5943 68.279 34.7148 68.1141 34.9457 68.1141H36.2712V67.7433C35.7792 67.7742 35.3574 67.7743 35.1867 67.7743C34.9457 67.7743 34.8252 67.5992 34.8252 67.4138C34.8252 67.2284 34.9457 67.0738 35.1867 67.0738H35.2168C35.3875 67.0738 35.5683 67.0944 35.7491 67.0944C36.4218 67.0944 37.1247 67.012 37.8878 66.8472C37.918 66.8472 37.948 66.8472 37.9782 66.8472C38.189 66.8472 38.3396 67.0223 38.3396 67.218C38.3396 67.4858 38.169 67.5786 37.0143 67.7022V68.1347H38.2894C38.5203 68.1347 38.651 68.2996 38.651 68.4541C38.651 68.4747 38.651 68.4952 38.651 68.5158C38.7012 68.4746 38.7714 68.4644 38.8517 68.4644C39.0726 68.4644 39.3236 68.4644 39.5646 68.4644V67.0738C39.5646 66.806 39.7655 66.6824 39.9663 66.6824C40.1671 66.6824 40.3881 66.8163 40.3881 67.0738V68.4644C40.5989 68.4644 40.8199 68.4644 41.0307 68.4644C41.6031 68.4644 41.9544 68.8558 41.9645 69.4531C41.9645 69.7106 41.9645 69.9785 41.9645 70.2463C41.9645 71.956 41.8038 74.1808 40.1872 74.1808C39.9562 74.1808 39.6952 74.1396 39.4341 74.0469C39.2433 73.9748 39.153 73.8202 39.153 73.6451C39.153 73.4289 39.2936 73.2229 39.5245 73.2229C39.5747 73.2229 39.6249 73.2228 39.6851 73.2537C39.8558 73.3052 40.0065 73.3465 40.1471 73.3465C40.5186 73.3465 41.1512 73.1096 41.1512 70.1741C41.1512 69.9578 41.1512 69.7518 41.1512 69.5561C41.1512 69.3089 41.0106 69.2266 40.8298 69.2163C40.6892 69.2163 40.5387 69.2163 40.368 69.2163C40.3077 71.1012 39.8156 73.1303 38.1789 74.2736C38.0785 74.3457 37.9882 74.3765 37.8878 74.3765C37.6569 74.3765 37.4761 74.1808 37.4761 73.9645C37.4761 73.8409 37.5363 73.7173 37.6769 73.6143C37.8074 73.5216 37.9379 73.4186 38.0484 73.3156C37.0744 73.5937 35.1265 73.8822 34.8755 73.8822C34.6546 73.8822 34.5239 73.6966 34.5239 73.5112C34.5239 73.3361 34.6244 73.1714 34.8252 73.1611C35.2972 73.1199 35.7892 73.0787 36.2712 73.0066V72.4711L36.2612 72.4505ZM36.2612 70.5244H35.5482C35.5482 70.5862 35.5482 70.6376 35.5482 70.6891C35.5783 70.9569 35.6486 70.9672 36.2511 70.9672V70.5347L36.2612 70.5244ZM36.2712 69.6386C35.6185 69.6386 35.5783 69.6591 35.5582 69.9578V70.0505H36.2712V69.6386ZM36.9841 72.4298V72.8623C37.3857 72.7902 37.7472 72.7079 38.0685 72.6255C38.0986 72.6255 38.1188 72.6255 38.1489 72.6255C38.2995 72.6255 38.3998 72.7284 38.43 72.8623C39.2734 71.853 39.4944 70.5346 39.5245 69.1957C39.2836 69.1957 39.0324 69.1957 38.8115 69.1957C38.5705 69.1957 38.4501 69.0103 38.4501 68.8146C38.4501 68.7837 38.4501 68.7322 38.4702 68.7013C38.42 68.7322 38.3497 68.7424 38.2694 68.7424H36.9841V69.103C38.1288 69.103 38.3999 69.1236 38.3999 70.2463C38.3999 71.4616 38.2292 71.4925 36.9841 71.4925V71.8324L38.0685 71.8016C38.2794 71.8016 38.3899 71.956 38.3899 72.1002C38.3899 72.2444 38.2794 72.3989 38.0584 72.3989L36.9841 72.4195V72.4298ZM37.6869 69.9269C37.6869 69.6385 37.5765 69.6386 36.974 69.6386V70.0505H37.6869V69.9269ZM36.974 70.5244V70.9569C37.5263 70.9569 37.6769 70.957 37.6869 70.6686C37.6869 70.6171 37.6869 70.5759 37.6869 70.5141H36.964L36.974 70.5244Z" fill="var(--fill-0, #236242)"/>
<path id="Vector_27" d="M47.3856 67.9923V68.6721C47.6065 68.6721 47.8475 68.6721 48.1387 68.6721C48.6407 68.6721 49.0123 69.0635 49.0223 69.4446C49.0424 69.7227 49.0424 70.1862 49.0424 70.6497C49.0424 71.1132 49.0424 71.5766 49.0223 71.8341C49.0022 72.2976 48.6507 72.6994 48.0884 72.72C47.5964 72.7406 47.3353 72.7508 47.0943 72.7508C46.8132 72.7508 46.5521 72.7509 45.9898 72.72C45.3773 72.6994 45.046 72.3388 45.0259 71.8444C45.0259 71.5457 45.0058 71.0926 45.0058 70.6497C45.0058 70.2068 45.0058 69.7638 45.0259 69.5166C45.046 69.1149 45.2869 68.6824 45.9496 68.6721C46.1906 68.6721 46.3915 68.6515 46.5923 68.6515V67.982H44.0118C43.7306 67.982 43.6 67.7863 43.6 67.5906C43.6 67.3846 43.7507 67.1684 44.0118 67.1684H50.0666C50.3277 67.1684 50.4581 67.3744 50.4581 67.5804C50.4581 67.7864 50.3277 67.982 50.0666 67.982H47.3755L47.3856 67.9923ZM44.4837 69.4858C44.4837 70.0523 44.4636 70.7527 44.4636 71.4222C44.4636 71.9063 44.4636 72.38 44.4837 72.7405C44.5037 73.101 44.6243 73.2967 45.036 73.307C45.5481 73.3276 46.271 73.338 47.004 73.338C47.737 73.338 48.45 73.3379 48.942 73.307C49.2935 73.2864 49.5043 73.1113 49.5244 72.7611C49.5444 72.3182 49.5545 71.793 49.5545 71.2471C49.5545 70.6394 49.5545 70.0214 49.5244 69.5064V69.4858C49.5244 69.2283 49.7353 69.0944 49.9461 69.0944C50.157 69.0944 50.3778 69.2284 50.3879 69.5064C50.408 69.8978 50.408 70.4952 50.408 71.1235C50.408 71.7518 50.408 72.411 50.3879 72.9363C50.3578 73.7088 49.7955 74.1002 49.1528 74.1105C48.5504 74.1414 47.727 74.1516 46.9137 74.1516C46.1003 74.1516 45.3171 74.1517 44.7749 74.1105C44.062 74.0796 43.6603 73.6985 43.6402 72.9466C43.6402 72.3801 43.6201 71.7311 43.6201 71.0822C43.6201 70.5363 43.6202 69.9905 43.6402 69.4755C43.6402 69.1871 43.8511 69.0532 44.052 69.0532C44.2528 69.0532 44.4736 69.1974 44.4736 69.4652L44.4837 69.4858ZM46.5923 69.3313H46.1606C45.8895 69.3519 45.7891 69.5064 45.779 69.7021C45.779 69.8463 45.779 70.0729 45.779 70.3407H46.6023V69.3416L46.5923 69.3313ZM46.5923 70.969H45.769C45.769 71.2676 45.769 71.5355 45.769 71.7003C45.769 72.0402 45.8994 72.0608 46.5923 72.0608V70.969ZM48.2592 70.3304C48.2592 70.0729 48.2592 69.8463 48.2592 69.6918C48.2592 69.3416 48.0383 69.321 47.3956 69.321V70.3304H48.2692H48.2592ZM47.8675 72.0505C48.0985 72.0505 48.229 71.9681 48.2391 71.69C48.2391 71.5252 48.2391 71.2573 48.2391 70.969H47.3655V72.0608H47.8575L47.8675 72.0505Z" fill="var(--fill-0, #236242)"/>
<path id="Vector_28" d="M55.5881 71.6884C55.5881 71.8429 55.5881 71.9974 55.568 72.1828C55.5379 72.5433 55.307 72.7287 55.0961 72.7287C54.9053 72.7287 54.7345 72.5845 54.7345 72.3064V72.2239C54.7646 72.0076 54.7747 71.8017 54.7747 71.6266C54.594 71.7296 53.7806 72.1622 53.7806 72.7287C53.7806 72.8832 53.8509 73.4084 54.7345 73.4084C55.1361 73.4084 55.578 73.3055 55.8291 73.2231C55.9094 73.1922 55.9897 73.1819 56.05 73.1819C56.3411 73.1819 56.5018 73.3879 56.5018 73.6042C56.5018 73.7896 56.4315 74.2428 54.9454 74.2428C53.4594 74.2428 52.9974 73.4703 52.9974 72.8214C52.9974 71.7296 54.2325 71.0497 54.6844 70.8128C54.584 70.4626 54.4032 70.2875 54.1723 70.2875C54.0317 70.2875 53.881 70.3391 53.7203 70.4524C53.3589 70.8747 53.138 70.9983 52.9473 70.9983C52.7364 70.9983 52.5757 70.8541 52.5757 70.6584C52.5757 70.5554 52.6259 70.4214 52.7765 70.2875C53.2485 69.8549 53.4794 69.6387 53.8911 68.928C53.7304 68.9589 53.5998 68.9589 53.4693 68.9589C52.5857 68.9589 52.5858 68.4542 52.5858 68.3924C52.5858 68.1864 52.7364 68.001 52.9372 68.001C53.0376 68.001 53.138 68.0319 53.2484 68.1143C53.3288 68.1658 53.4393 68.1864 53.5698 68.1864C53.6401 68.1864 53.8609 68.1865 54.2626 68.0938C54.3429 67.8569 54.3731 67.692 54.4233 67.383C54.4635 67.1564 54.6141 67.074 54.7848 67.074C55.0157 67.074 55.2567 67.2388 55.2567 67.4654C55.2567 67.5684 55.2266 67.7126 55.2065 67.795C55.4676 67.6611 55.4977 67.6508 55.568 67.6508C55.7789 67.6508 55.9395 67.8259 55.9395 68.0422C55.9395 68.3409 55.7086 68.516 54.8049 68.7426C54.6743 69.0207 54.5036 69.3195 54.3129 69.6388C54.7948 69.6388 55.1864 69.9168 55.4073 70.473C56.5018 69.9889 57.2649 69.752 57.4155 69.752C57.7268 69.752 57.9075 69.9889 57.9075 70.2155C57.9075 70.3597 57.8272 70.5039 57.6766 70.5657C57.4055 70.679 57.1243 70.7202 56.6625 70.8644C56.301 70.9777 55.9195 71.1219 55.5881 71.2661C55.6082 71.4 55.6081 71.5442 55.6081 71.6987L55.5881 71.6884Z" fill="var(--fill-0, #236242)"/>
<path id="Vector_29" d="M62.4675 74.1513C62.1763 74.1513 61.9956 73.9351 61.9956 73.7188C61.9956 73.5437 62.106 73.3789 62.3571 73.3068C63.1905 73.0699 63.823 72.5549 64.2146 71.8957C63.5419 71.597 62.8289 71.3911 62.1461 71.2984C61.3127 72.4005 60.901 72.5962 60.3889 72.5962C59.7463 72.5962 59.3146 72.1532 59.3146 71.6382C59.3146 71.2056 59.6358 70.7009 60.4993 70.5773C60.7604 70.5361 61.0316 70.5259 61.3127 70.5259C61.4834 70.5259 61.6642 70.5258 61.8449 70.5464C62.4575 69.6812 63.0398 68.5379 63.0398 68.3731C63.0398 68.3422 63.0398 68.332 63.0096 68.332C62.9896 68.332 62.9695 68.332 62.9394 68.3526C62.7587 68.4247 62.5176 68.507 62.2565 68.507C61.8951 68.507 61.5336 68.3628 61.5336 67.992C61.5336 67.7963 61.6441 67.6213 61.865 67.6213C61.9052 67.6213 61.9353 67.6213 61.9755 67.6419C62.0458 67.6625 62.1964 67.6728 62.337 67.6728C62.4775 67.6728 62.6282 67.6522 62.7487 67.6316C62.9897 67.5801 63.2908 67.4977 63.5318 67.4977C63.7929 67.4977 64.1243 67.6212 64.1243 67.992C64.1243 68.1465 64.064 68.332 63.9435 68.5483C63.6523 69.053 63.1503 69.8873 62.6181 70.6598C63.2708 70.7628 63.9234 70.9585 64.546 71.1851C64.6263 70.9173 64.6866 70.6495 64.7067 70.3611C64.7267 70.1242 64.9075 70.0006 65.0983 70.0006C65.3192 70.0006 65.54 70.1653 65.54 70.4537C65.54 70.5155 65.4698 70.9584 65.2991 71.494C65.8915 71.7824 66.4136 72.0915 66.7952 72.4313C66.9257 72.5343 66.976 72.6785 66.976 72.8227C66.976 73.0802 66.7851 73.3274 66.5441 73.3274C66.4437 73.3274 66.3233 73.2965 66.2229 73.1832C65.8614 72.833 65.4296 72.524 64.9476 72.2562C64.1945 73.5952 62.8189 74.1513 62.4675 74.1513ZM60.0877 71.5867C60.0877 71.6794 60.1881 71.8134 60.399 71.8134C60.5496 71.8134 60.7705 71.8133 61.2926 71.2468C60.1279 71.2468 60.0877 71.5352 60.0877 71.597V71.5867Z" fill="var(--fill-0, #236242)"/>
<path id="Vector_30" d="M72.4192 71.7001C72.4192 70.7628 71.3147 70.7628 71.2343 70.7628C70.2603 70.7628 69.5073 71.4941 69.1559 71.9473C69.0655 72.0709 68.9349 72.1223 68.8043 72.1223C68.5734 72.1223 68.3425 71.937 68.3425 71.6898C68.3425 71.5765 68.3927 71.4528 68.5132 71.3189C69.7684 70.052 71.0336 68.4658 71.0336 68.3628C71.0336 68.3422 71.0335 68.332 71.0034 68.332C70.9833 68.332 70.9632 68.332 70.9431 68.3526C70.2904 68.7749 69.4671 69.0014 69.206 69.0014C68.9148 69.0014 68.7542 68.7749 68.7542 68.5689C68.7542 68.3835 68.8646 68.1981 69.1157 68.1775C69.9792 68.0951 71.0736 67.6934 71.3146 67.5698C71.415 67.5183 71.5356 67.4977 71.626 67.4977C71.9473 67.4977 72.1982 67.7346 72.1982 68.023C72.1982 68.1672 72.138 68.3217 71.9975 68.4556C71.405 69.0324 70.7322 69.7945 70.19 70.4228C70.5615 70.1756 71.0033 70.0623 71.4351 70.0623C72.3589 70.0623 73.2727 70.6391 73.2727 71.6382C73.2727 72.833 72.0677 73.9763 70.5615 73.9763C69.5172 73.9763 68.965 73.3584 68.965 72.8331C68.965 72.349 69.3968 71.9987 69.939 71.9987C70.6921 71.9987 71.2142 72.4314 71.2945 73.1112C71.666 73.0185 72.3891 72.3799 72.3891 71.6795L72.4192 71.7001ZM70.0494 72.6476C69.7582 72.6476 69.7483 72.8433 69.7483 72.8845C69.7483 73.2347 70.3406 73.2759 70.5615 73.2759H70.6218C70.5917 72.8948 70.4009 72.6476 70.0595 72.6476H70.0494Z" fill="var(--fill-0, #236242)"/>
<path id="Vector_31" d="M76.3343 74.1705C76.0029 74.1705 75.7319 73.8822 75.7319 73.5835C75.7319 73.1921 76.0933 72.9655 76.3343 72.9655C76.6757 72.9655 76.9369 73.1818 76.9369 73.5835C76.9369 74.0161 76.5753 74.1705 76.3343 74.1705ZM75.9628 71.8943V71.7089C75.9628 70.8437 75.8724 68.7631 75.8222 67.3623V67.3314C75.8222 67.0018 76.0732 66.837 76.3243 66.837C76.5753 66.837 76.8464 67.0121 76.8464 67.352C76.8464 68.4026 76.7058 70.8643 76.7058 71.7295C76.7058 71.9458 76.7058 72.3166 76.3243 72.3166C76.1435 72.3166 75.9628 72.1724 75.9628 71.8943Z" fill="var(--fill-0, #236242)"/>
</g>
<path id="Vector_32" d="M56.9336 18.8085C59.8173 18.8085 62.1549 16.4106 62.1549 13.4526C62.1549 10.4946 59.8173 8.09671 56.9336 8.09671C54.0499 8.09671 51.7121 10.4946 51.7121 13.4526C51.7121 16.4106 54.0499 18.8085 56.9336 18.8085Z" stroke="var(--stroke-0, #236242)" stroke-width="0.973339" stroke-miterlimit="10"/>
<path id="Vector_33" d="M59.0436 11.2372H56.0212V14.2551H59.0436V11.2372Z" stroke="var(--stroke-0, #236242)" stroke-width="0.973339" stroke-linecap="round" stroke-linejoin="round"/>
<path id="Vector_34" d="M54.6477 13.0504V15.6563H57.3187" stroke="var(--stroke-0, #236242)" stroke-width="0.973339" stroke-linecap="round" stroke-linejoin="round"/>
</g>
</svg>
