<svg preserveAspectRatio="none" width="100%" height="100%" overflow="visible" style="display: block;" viewBox="0 0 104.189 33.0731" fill="none" xmlns="http://www.w3.org/2000/svg">
<g id="Group">
<path id="Vector" d="M9.44875 15.3995V15.4716C9.44875 17.6448 8.08316 19.5607 4.8499 19.5607C3.0927 19.5607 1.58652 19.3752 1.58652 17.789C1.58652 16.9753 2.08856 16.2029 2.91193 16.2029C3.02239 16.2029 3.12281 16.2029 3.23326 16.2441C3.77548 16.3574 4.27753 16.4295 4.66914 16.4295C5.71342 16.4295 6.32596 16.0277 6.32596 14.8124V13.3395C6.11509 13.3807 2.12873 13.9678 1.47605 13.9678C0.471936 13.9678 0 13.2366 0 12.4538C0 11.671 0.431778 10.9809 1.32544 10.9088C3.1931 10.7646 4.80973 10.5791 6.31591 10.3216V7.19054L2.00823 7.23165C1.03424 7.23165 0.572354 6.50035 0.572354 5.79995C0.572354 5.05836 1.03424 4.35807 2.00823 4.35807L6.28578 4.39918V1.96842C6.28578 0.866337 7.07905 0.351398 7.83213 0.351398C8.58522 0.351398 9.37845 0.866337 9.37845 1.96842V4.39918L12.7523 4.35807C13.646 4.35807 14.0777 5.05836 14.0777 5.79995C14.0777 6.54154 13.646 7.23165 12.7523 7.23165L9.37845 7.19054V9.69334C10.2721 9.47704 11.2059 9.17843 12.1097 8.87974C12.2904 8.80764 12.431 8.80757 12.5816 8.80757C13.3748 8.80757 13.8367 9.50794 13.8367 10.2083C13.8367 11.4237 13.1539 11.7224 9.3885 12.6391L9.4588 15.3995H9.44875ZM22.3717 32.1678C20.2932 32.2399 17.8432 32.281 15.4032 32.281C12.9631 32.281 10.6236 32.2399 8.61534 32.1678C5.9946 32.0545 4.80971 30.6227 4.69926 28.5936C4.6591 27.8211 4.65912 27.1208 4.65912 26.4925C4.65912 25.6479 4.6591 24.8755 4.69926 24.0618C4.76955 22.4035 5.67327 20.673 8.54505 20.6009C10.0512 20.5597 12.1699 20.5288 14.4392 20.5288C17.2005 20.5288 20.1828 20.57 22.4822 20.6009C24.6712 20.6421 26.1071 22.1871 26.2175 23.7733C26.2577 24.5149 26.2878 25.2874 26.2878 26.0908C26.2878 26.8942 26.2476 27.677 26.2175 28.5628C26.1071 30.4786 24.7816 32.0957 22.3717 32.1678ZM22.7031 26.4203C22.7031 24.4325 22.7031 23.5467 21.1969 23.5055C19.8715 23.4643 18.0038 23.4334 16.0559 23.4334C13.7263 23.4334 11.2763 23.4746 9.58934 23.5055C8.15345 23.5467 8.11328 24.7929 8.11328 26.2658C8.11328 28.367 8.18357 29.0674 9.61946 29.0983C11.1658 29.1395 13.2443 29.1705 15.3329 29.1705C17.4215 29.1705 19.6104 29.1292 21.2572 29.0983C22.3015 29.0571 22.6931 28.7687 22.6931 26.41L22.7031 26.4203ZM25.605 11.4547L25.6452 18.0878C25.6452 19.2311 24.8218 19.7873 23.9884 19.7873C23.155 19.7873 22.3416 19.2311 22.3416 18.0878L22.3818 11.4547H18.3954C17.7528 16.0588 15.0919 19.4165 13.3648 19.4165C12.3908 19.4165 11.5675 18.6749 11.5675 17.8303C11.5675 17.3874 11.7783 16.9445 12.2502 16.5428C15.0116 14.1841 15.4132 11.4547 15.4132 8.36474C15.4132 7.66435 15.4132 6.93295 15.373 6.19135V6.11931C15.373 4.24473 16.4876 2.68939 19.1084 2.58639C21.8697 2.44219 24.139 2.32895 26.9003 1.74186C27.0811 1.70066 27.2216 1.70062 27.4024 1.70062C28.4467 1.70062 29.1295 2.47315 29.1295 3.28684C29.1295 5.08932 26.6191 5.20268 19.8614 5.53227C18.9979 5.57347 18.6364 6.34591 18.6364 7.1493C18.6364 7.59219 18.5963 8.066 18.5963 8.581L29.4106 8.53976C30.4147 8.53976 30.9168 9.28138 30.9168 9.98177C30.9168 10.7131 30.4147 11.4547 29.4106 11.4547H25.605Z" fill="var(--fill-0, #236242)"/>
<path id="Vector_2" d="M55.9229 23.1336C55.9932 23.6486 56.0334 24.2048 56.0334 24.7507C56.0334 28.0672 54.5272 33.073 48.2716 33.073C45.4701 33.073 43.9639 32.3005 43.9639 30.8585C43.9639 29.9419 44.6467 29.1281 45.6508 29.1281C45.8316 29.1281 46.0123 29.1282 46.2232 29.2003C47.0164 29.4578 47.8398 29.602 48.5929 29.602C52.6194 29.602 52.6194 24.6683 52.6194 24.3696C52.6194 23.9267 52.5792 23.525 52.509 23.113L37.2865 23.1851C36.172 23.1851 35.6297 22.3714 35.6297 21.568C35.6297 20.7646 36.2021 19.8685 37.2464 19.8685L50.5308 19.9407C50.0991 19.642 49.6372 19.3536 49.095 19.1682C48.3419 18.9107 48.0205 18.4266 48.0205 17.9528C48.0205 17.1803 48.8439 16.4078 49.9284 16.4078C50.7216 16.4078 51.4747 16.8094 52.0471 17.1493C52.9809 16.521 54.8887 15.1615 54.8887 14.7186C54.8887 14.5744 54.7481 14.5023 54.4971 14.5023C54.1055 14.4611 53.4227 14.4611 52.5893 14.4611C50.2898 14.4611 46.8056 14.5332 44.2953 14.6465H44.225C43.1506 14.6465 42.6083 13.874 42.6083 13.1016C42.6083 12.3291 43.1506 11.5875 44.2652 11.5566C45.8115 11.4845 47.7494 11.4844 49.6472 11.4844C52.268 11.4844 54.8887 11.5257 56.5455 11.5566C58.5939 11.5978 59.4575 12.6586 59.4575 13.8019C59.4575 15.6044 57.5496 17.1185 54.3264 19.1785C54.5071 19.436 54.6879 19.6935 54.8285 19.951L65.5324 19.8376C66.5766 19.8376 67.1088 20.6822 67.1088 21.5371C67.1088 22.392 66.6068 23.1543 65.5625 23.1543L55.943 23.113L55.9229 23.1336ZM61.8472 11.3505C61.8472 9.80551 61.054 9.5481 59.588 9.5069C56.7162 9.4657 53.4829 9.43473 50.3601 9.43473C47.8097 9.43473 45.2994 9.476 43.0703 9.5069C41.0921 9.5481 40.7708 10.063 40.6604 11.3505V13.5238C40.6604 14.5537 39.7667 15.1409 38.8329 15.1409C38.0095 15.1409 37.146 14.6259 37.1058 13.4826C37.1058 13.0088 37.0656 12.4526 37.0656 11.8655C37.0656 11.2372 37.1058 10.6089 37.1058 10.063C37.1761 8.33263 38.5116 6.56112 41.313 6.53022L44.3254 6.48898C44.1447 6.37568 44.0041 6.19028 43.8635 5.97399C43.1104 4.6865 42.3171 4.20245 41.3532 3.31666C41.0319 3.01796 40.8913 2.68831 40.8913 2.35871C40.8913 1.54502 41.785 0.772492 42.7188 0.772492C44.0844 0.772492 46.8859 3.57416 46.8859 4.86164C46.8859 5.52084 46.424 6.14907 45.8416 6.47867C49.0046 6.43747 52.1274 6.43743 55.2903 6.43743C56.3346 5.22204 57.2685 3.09 57.8408 1.57591C58.1621 0.731322 58.8148 0.401711 59.4575 0.401711C60.4616 0.401711 61.5058 1.1742 61.5058 2.20419C61.5058 2.90458 60.3612 4.70709 58.8851 6.47867C59.7085 6.47867 60.572 6.51991 61.3954 6.51991C63.5141 6.56111 65.4922 7.73532 65.5625 10.0219C65.6026 10.5369 65.6027 11.3093 65.6027 12.0097C65.6027 12.5247 65.6026 13.0089 65.5625 13.3694C65.4922 14.4405 64.5584 14.9864 63.6547 14.9864C62.751 14.9864 61.8573 14.4714 61.8573 13.4414V11.3402L61.8472 11.3505ZM51.6856 6.30365C51.1835 6.30365 50.7116 6.04604 50.4605 5.41775C49.9585 4.05817 49.1652 3.24452 48.3419 2.24543C48.131 1.98793 48.0205 1.6892 48.0205 1.4317C48.0205 0.659208 48.9142 0 49.848 0C51.6755 0 53.6536 3.60504 53.6536 4.45993C53.6536 5.45902 52.6094 6.30365 51.6755 6.30365H51.6856Z" fill="var(--fill-0, #236242)"/>
<path id="Vector_3" d="M81.4152 31.3119C81.4152 32.3419 80.5516 32.8569 79.658 32.8569C78.7643 32.8569 77.9008 32.3419 77.9008 31.3119V31.2708L78.0413 19.5599C76.8163 21.5477 75.3804 23.3914 74.0951 24.8334C73.6634 25.2763 73.2015 25.4925 72.7295 25.4925C71.7656 25.4925 70.9021 24.648 70.9021 23.7622C70.9021 23.3193 71.0828 22.9176 71.5146 22.5056C73.4525 20.734 76.3645 17.1291 78.0915 13.7404L78.0514 12.9679L73.8542 13.0812H73.814C72.7396 13.0812 72.2375 12.3086 72.2375 11.495C72.2375 10.6813 72.7798 9.87793 73.8542 9.87793H78.0212L77.9509 6.23173C77.2681 6.34503 74.8583 6.78796 74.4667 6.78796C73.3923 6.78796 72.8199 5.94339 72.8199 5.1297C72.8199 4.39841 73.2818 3.65677 74.2558 3.54348C77.6296 3.21388 80.0696 2.6268 83.1623 1.37021C83.3732 1.29811 83.5539 1.25693 83.7347 1.25693C84.6685 1.25693 85.3513 2.07065 85.3513 2.95644C85.3513 4.24392 83.9857 4.72795 81.4051 5.45924C81.3649 6.23173 81.3649 7.89005 81.3348 9.87793H84.9998C86.0742 9.87793 86.6165 10.6916 86.6165 11.495C86.6165 12.2983 86.0743 13.0812 85.04 13.0812H84.9998L81.2645 13.009V14.8115C81.4051 14.7703 81.5156 14.7704 81.626 14.7704C82.9515 14.7704 85.9036 17.4277 86.0743 17.644C86.4357 18.0457 86.5763 18.4577 86.5763 18.9006C86.5763 19.8173 85.8232 20.6722 84.9998 20.6722C84.6082 20.6722 84.2066 20.4868 83.8552 20.0439C83.2426 19.2302 82.1682 18.3135 81.2645 17.6543C81.3047 23.2162 81.4453 31.2811 81.4453 31.2811V31.3222L81.4152 31.3119ZM95.3121 22.9484L86.7269 25.4204C86.5161 25.4925 86.3353 25.4925 86.1546 25.4925C85.1806 25.4925 84.6484 24.7201 84.6484 23.9064C84.6484 23.2472 85.04 22.5776 85.8734 22.3202L95.3222 19.5907L95.2519 2.1324C95.2519 1.06121 96.0753 0.546173 96.9388 0.546173C97.8024 0.546173 98.696 1.10241 98.696 2.1324L98.6257 18.6739L102.14 17.644C102.321 17.6028 102.502 17.5719 102.642 17.5719C103.576 17.5719 104.189 18.4165 104.189 19.2302C104.189 19.8585 103.827 20.4868 103.044 20.7031L98.6257 21.9597L98.696 31.4252C98.696 32.3831 97.8325 32.8672 96.9689 32.8672C96.1054 32.8672 95.2418 32.3934 95.2418 31.4252L95.3121 22.9484ZM90.5727 17.3557C89.5284 16.2536 88.0624 15.2544 87.2692 14.7394C86.7671 14.4408 86.5462 14.0082 86.5462 13.5962C86.5462 12.8649 87.2692 12.1232 88.3034 12.1232C89.5585 12.1232 92.1492 14.039 92.7918 14.6982C93.2236 15.1411 93.4043 15.6149 93.4043 16.099C93.4043 17.0981 92.6512 17.9427 91.7576 17.9427C91.366 17.9427 90.9643 17.7574 90.5727 17.3557ZM90.8539 9.53795C89.9602 8.32257 88.5946 7.14848 87.7612 6.55109C87.3696 6.25239 87.1888 5.92274 87.1888 5.59314C87.1888 4.82065 88.0524 4.04816 88.9862 4.04816C89.92 4.04816 93.7658 6.551 93.7658 8.39468C93.7658 9.42467 92.9725 10.2693 92.109 10.2693C91.6772 10.2693 91.2455 10.0529 90.8539 9.52764V9.53795Z" fill="var(--fill-0, #236242)"/>
</g>
</svg>
