<svg preserveAspectRatio="none" width="100%" height="100%" overflow="visible" style="display: block;" viewBox="0 0 113.024 108.282" fill="none" xmlns="http://www.w3.org/2000/svg">
<g id="Group">
<path id="Vector" d="M98.3449 0.989964L14.0292 1.50496C7.07065 1.54616 1.45766 7.3759 1.49782 14.5137L1.82917 71.0292C1.86933 78.167 7.55264 83.9246 14.5112 83.8834L20.2949 83.8525L20.2146 106.986L48.3499 83.6878L98.8269 83.3788C105.785 83.3376 111.398 77.5078 111.358 70.37L111.027 13.8545C110.987 6.71669 105.303 0.959075 98.3449 1.00027V0.989964Z" fill="var(--fill-0, #F4C058)"/>
<g id="Group_2">
<path id="Vector_2" d="M103.394 83.377C102.069 83.8096 100.693 84.0362 99.2776 84.0465L50.7084 84.4482L50.106 84.8704C50.0457 84.9425 49.9855 85.0147 49.9152 85.0662L22.1212 108.004C22.0007 108.097 21.8702 108.169 21.7296 108.22C21.4284 108.323 21.107 108.292 20.8259 108.159C20.4042 107.953 20.133 107.51 20.123 107.025L19.8017 85.2207C19.8017 85.025 19.8419 84.8395 19.9222 84.6644L20.6652 84.7057L14.3794 84.7571C6.74815 84.8189 0.492512 78.4948 0.432265 70.6669L0.00047098 14.8621C-0.0296525 11.0717 1.38618 7.48733 3.9768 4.78876C5.55326 3.14077 7.50125 1.90482 9.61993 1.21472C10.9454 0.782128 12.321 0.555506 13.7368 0.545206L58.2092 0.184735C58.5405 0.184735 58.8518 0.308308 59.0828 0.545206C59.3137 0.782103 59.4442 1.10139 59.4543 1.44129C59.4543 1.99749 59.1129 2.49194 58.6008 2.65673C58.4803 2.69793 58.3598 2.71847 58.2393 2.71847L13.7669 3.07906C12.6122 3.07906 11.4775 3.27467 10.3931 3.62486C8.65597 4.19136 7.04939 5.21115 5.75407 6.56043C3.62535 8.78521 2.46057 11.7206 2.49069 14.8415L2.92246 70.6463C2.94254 73.7569 4.15754 76.6717 6.32643 78.8656C8.49532 81.0595 11.3571 82.244 14.3895 82.2234L29.8027 82.0998C30.4855 82.0998 31.0378 82.6559 31.0478 83.3563C31.0478 83.9125 30.7064 84.407 30.1943 84.5718C30.0738 84.613 29.9533 84.6335 29.8328 84.6335L21.7296 84.6954L22.1714 84.6541C22.2618 84.8292 22.3019 85.0147 22.3019 85.2104L22.6032 104.409L46.9128 84.4996L48.7203 83.0165C48.4492 83.2328 49.2022 82.6354 49.3729 82.4912C50.126 81.8732 50.5076 81.9659 51.0097 81.8629C51.1301 81.8423 51.9837 81.9349 52.1142 81.9349L99.2876 81.5435C100.442 81.5435 101.577 81.3478 102.661 80.9976C104.399 80.4311 106.005 79.4115 107.3 78.0622C109.429 75.8374 110.594 72.902 110.564 69.7812L110.423 51.6429C110.423 51.0867 110.765 50.5924 111.277 50.4276C111.397 50.3864 111.518 50.3658 111.638 50.3658C112.321 50.3658 112.873 50.9221 112.883 51.6224L113.024 69.7605C113.054 73.5509 111.638 77.125 109.048 79.8339C107.471 81.4818 105.523 82.7075 103.405 83.4079L103.394 83.377Z" fill="var(--fill-0, #236242)"/>
<path id="Vector_3" d="M111.98 46.2465C111.859 46.2877 111.739 46.3083 111.618 46.3083C110.935 46.3083 110.383 45.7522 110.373 45.0518L110.353 42.7137V42.6415C110.333 42.5694 110.323 42.5077 110.323 42.4356V40.767C110.313 40.6949 110.323 40.633 110.323 40.5712V40.5095L110.303 37.3165C110.303 36.7603 110.644 36.2659 111.156 36.1011C111.277 36.0599 111.397 36.0394 111.518 36.0394C112.201 36.0394 112.753 36.5955 112.763 37.2959L112.843 45.0208C112.843 45.577 112.502 46.0714 111.99 46.2362L111.98 46.2465Z" fill="var(--fill-0, #236242)"/>
<path id="Vector_4" d="M111.841 30.5597C111.721 30.6009 111.6 30.6216 111.47 30.6216C110.797 30.6216 110.235 30.0654 110.235 29.365V28.5719C110.235 27.9333 110.576 27.4492 111.098 27.2741C111.219 27.2329 111.339 27.2123 111.46 27.2123C111.791 27.2123 112.102 27.3358 112.333 27.5727C112.564 27.8096 112.695 28.1289 112.705 28.4688V29.3341C112.705 29.8903 112.363 30.3743 111.851 30.5494L111.841 30.5597Z" fill="var(--fill-0, #236242)"/>
<path id="Vector_5" d="M79.8182 2.47187C79.6977 2.51307 79.5772 2.53373 79.4567 2.53373L75.4403 2.56466C74.7575 2.56466 74.2052 2.00837 74.1952 1.30798C74.1952 0.751786 74.5366 0.257462 75.0487 0.0926638C75.1692 0.0514642 75.2896 0.0308041 75.4101 0.0308041L79.4266 0C80.1094 0 80.6617 0.556164 80.6717 1.25656C80.6717 1.81275 80.3303 2.30707 79.8182 2.47187Z" fill="var(--fill-0, #236242)"/>
<path id="Vector_6" d="M70.5769 2.53425C70.4263 2.58575 70.2656 2.6064 70.0949 2.5858L64.271 2.77112C63.9397 2.74022 63.6485 2.5858 63.4376 2.3283C63.2267 2.0708 63.1263 1.74118 63.1565 1.40128C63.1966 0.886289 63.538 0.463923 64.0099 0.299125C64.1606 0.247626 64.3212 0.227101 64.4919 0.247701L70.3158 0.0622476C70.6471 0.0931473 70.9384 0.247701 71.1492 0.505198C71.3601 0.762695 71.4605 1.09219 71.4304 1.43209C71.3902 1.94708 71.0488 2.36945 70.5769 2.53425Z" fill="var(--fill-0, #236242)"/>
<path id="Vector_7" d="M111.76 21.8253C111.639 21.8665 111.519 21.8872 111.398 21.8872C111.067 21.8872 110.756 21.7635 110.525 21.5266C110.294 21.2897 110.163 20.9704 110.153 20.6305L110.103 14.2034C110.073 11.0825 108.868 8.16766 106.709 5.98409C104.54 3.80051 101.679 2.60572 98.636 2.63662L86.3356 2.7396C85.6528 2.7396 85.1005 2.18343 85.0905 1.48304C85.0905 0.926846 85.4319 0.432522 85.944 0.267724C86.0645 0.226524 86.185 0.205864 86.3055 0.205864L98.6059 0.102891C102.301 0.0719909 105.795 1.52423 108.426 4.18161C111.057 6.83898 112.533 10.3924 112.553 14.1931L112.603 20.6202C112.603 21.1764 112.262 21.6605 111.75 21.8356L111.76 21.8253Z" fill="var(--fill-0, #236242)"/>
</g>
<g id="Group_3">
<path id="Vector_8" d="M21.2699 29.4266C21.4808 28.4481 21.6816 27.2534 22.5351 26.6148C23.2881 26.0586 24.5835 26.0071 25.4872 26.0071C27.3046 26.0071 29.1422 26.5426 29.1422 28.7468V37.3473C29.1422 39.2631 28.0778 40.056 26.2704 40.056C24.7642 40.056 23.8404 39.469 23.499 37.9034L21.7619 46.751C21.6314 47.3587 21.2398 47.9458 20.8281 48.3475C20.2356 48.9037 19.4022 49.0684 18.6291 49.0684C17.8559 49.0684 17.0526 48.9037 16.4501 48.3475C16.0083 47.9767 15.6167 47.369 15.5163 46.751L13.7591 37.9034V46.3494C13.7591 48.2858 12.6947 49.0583 10.9074 49.0583C9.12006 49.0583 8.13601 48.2034 8.13601 46.3494V28.7365C8.13601 26.5014 9.97356 25.9968 11.791 25.9968C12.8554 25.9968 14.4318 26.0792 15.1347 27.0062C15.6569 27.6963 15.8376 28.6026 15.9882 29.4266L18.6291 42.7032L21.2699 29.4266ZM29.1422 46.3494C29.1422 48.2858 28.0778 49.0583 26.2704 49.0583C24.463 49.0583 23.499 48.2034 23.499 46.3494V39.4175C24.3023 40.3444 25.1257 40.6948 26.3507 40.6948C27.5757 40.6948 28.4192 40.3238 29.1422 39.4175V46.3494Z" fill="var(--fill-0, white)"/>
<path id="Vector_9" d="M52.756 32.4864C53.2982 34.1344 53.5291 35.8854 53.5291 37.6158C53.5291 41.1795 52.515 44.63 49.7235 46.9166C47.8559 48.3998 45.4761 49.0692 43.1164 49.0692C40.7568 49.0692 38.4272 48.3998 36.5395 46.9166C33.6878 44.6609 32.7339 41.0972 32.7339 37.5437C32.7339 33.2178 34.2099 29.0978 38.2264 27.1099C39.7526 26.3683 41.4596 26.049 43.1466 26.049C45.446 26.049 47.7053 26.6876 49.5428 28.1502C50.2959 28.7888 50.9686 29.5819 50.9686 30.6428C50.9686 32.1878 49.593 33.3002 48.1471 33.3002C47.2434 33.3002 46.7212 32.8778 45.8175 32.1053C45.0946 31.4667 44.0101 31.2299 43.0462 31.2299C41.6203 31.2299 40.325 31.8684 39.5217 33.1147C38.6381 34.4125 38.4875 36.0399 38.4875 37.554C38.4875 39.0681 38.6682 40.7367 39.5217 42.0654C40.325 43.3426 41.6504 43.8988 43.1164 43.8988C45.0544 43.8988 46.4602 42.9923 47.2032 41.1384C47.645 40.0466 47.7756 38.7797 47.7756 37.5231C47.7756 36.1944 47.6249 34.8966 47.0526 33.6709C47.4442 33.8254 47.8057 33.9387 48.2174 33.9387C50.0248 33.9387 51.5611 32.5071 51.5611 30.6428C51.5611 30.4265 51.531 30.2205 51.5109 30.0042C52.033 30.7973 52.4648 31.6212 52.756 32.4967V32.4864Z" fill="var(--fill-0, white)"/>
<path id="Vector_10" d="M64.5937 40.1893C64.4331 40.6424 64.3327 41.0648 64.3327 41.5489C64.3327 43.5162 66.0196 44.9478 67.8772 44.9478C68.6002 44.9478 69.2729 44.711 69.8754 44.2578L69.4135 45.6173C68.6102 47.9245 67.7065 49.0678 65.146 49.0678C62.5855 49.0678 61.3705 48.0276 60.5873 45.5865L55.5868 29.9409C55.4362 29.5392 55.3559 29.0654 55.3559 28.6122C55.3559 27.0466 56.9825 26.0372 58.3883 26.0372C59.6033 26.0372 60.4869 26.8097 60.8484 27.953L64.6841 39.9318L64.6038 40.1996L64.5937 40.1893ZM69.1223 27.9428C69.4838 26.8304 70.3875 26.0269 71.5523 26.0269C72.948 26.0269 74.6349 27.0363 74.6349 28.6328C74.6349 29.0551 74.5345 29.5083 74.404 29.9306L70.518 42.1772C70.1063 43.5059 69.3533 44.299 68.0077 44.299C66.5016 44.299 64.9552 43.2072 64.9552 41.5386C64.9552 41.2193 65.0355 40.9 65.1159 40.5807L69.1323 27.9428H69.1223Z" fill="var(--fill-0, white)"/>
<path id="Vector_11" d="M83.131 46.4517C83.131 48.2335 82.2273 49.0576 80.2794 49.0576C78.492 49.0576 77.508 48.3159 77.508 46.4517V28.6328C77.508 26.6655 78.6226 26.0269 80.3798 26.0269C82.137 26.0269 83.1009 26.7994 83.121 28.6328V46.4517H83.131Z" fill="var(--fill-0, white)"/>
<path id="Vector_12" d="M100.585 34.8437C102.192 34.8437 103.096 35.6677 103.096 37.3363C103.096 39.0049 102.112 39.7567 100.585 39.7567H93.436V42.8364C91.9098 43.1866 91.1868 44.3814 91.1868 45.947C91.1868 46.9255 91.468 47.8833 92.2713 48.5013C89.5501 48.5013 87.813 48.5013 87.813 45.1539V29.9306C87.813 27.2526 89.0079 26.5831 91.4378 26.5831H101.409C103.015 26.5831 103.949 27.4586 103.949 29.1375C103.949 30.8164 103.015 31.6918 101.409 31.6918H94.7314C93.6168 31.6918 93.436 31.8773 93.436 33.0515V34.854H100.585V34.8437ZM94.3498 48.5013C92.7432 48.5013 91.8094 47.6463 91.8094 45.9778C91.8094 44.3092 92.7131 43.4028 94.3498 43.4028H101.961C103.588 43.4028 104.501 44.2578 104.501 45.9573C104.501 46.8122 104.22 47.7082 103.467 48.1923C103.005 48.4601 102.483 48.4807 101.961 48.5116H94.3498V48.5013Z" fill="var(--fill-0, white)"/>
</g>
<g id="Group_4">
<path id="Vector_13" d="M21.646 29.2304C21.8568 28.2519 22.0577 27.0571 22.9112 26.4185C23.6642 25.8623 24.9596 25.8108 25.8633 25.8108C27.6807 25.8108 29.5183 26.3464 29.5183 28.5506V37.151C29.5183 39.0668 28.4539 39.8599 26.6465 39.8599C25.1403 39.8599 24.2165 39.2728 23.8751 37.7072L22.138 46.5548C22.0075 47.1625 21.6159 47.7496 21.2042 48.1513C20.6117 48.7075 19.7783 48.8723 19.0052 48.8723C18.232 48.8723 17.4287 48.7075 16.8262 48.1513C16.3844 47.7805 15.9928 47.1728 15.8924 46.5548L14.1352 37.7072V46.1531C14.1352 48.0895 13.0708 48.862 11.2835 48.862C9.49616 48.862 8.51211 48.0071 8.51211 46.1531V28.5403C8.51211 26.3052 10.3497 25.8005 12.1671 25.8005C13.2315 25.8005 14.8079 25.8829 15.5108 26.8099C16.033 27.5 16.2137 28.4064 16.3643 29.2304L19.0052 42.5069L21.646 29.2304ZM29.5183 46.1531C29.5183 48.0895 28.4539 48.862 26.6465 48.862C24.8391 48.862 23.8751 48.0071 23.8751 46.1531V39.2213C24.6784 40.1483 25.5018 40.4985 26.7268 40.4985C27.9518 40.4985 28.7953 40.1277 29.5183 39.2213V46.1531Z" stroke="var(--stroke-0, #236242)" stroke-width="1.29779" stroke-linecap="round" stroke-linejoin="round"/>
<path id="Vector_14" d="M53.1361 32.2881C53.6783 33.9361 53.9092 35.6871 53.9092 37.4174C53.9092 40.9812 52.8951 44.4317 50.1037 46.7183C48.236 48.2015 45.8562 48.8709 43.4965 48.8709C41.1369 48.8709 38.8073 48.2015 36.9196 46.7183C34.0679 44.4626 33.114 40.8989 33.114 37.3454C33.114 33.0194 34.59 28.8995 38.6065 26.9116C40.1328 26.17 41.8398 25.8507 43.5267 25.8507C45.8261 25.8507 48.0854 26.4892 49.9229 27.9518C50.676 28.5904 51.3488 29.3835 51.3488 30.4444C51.3488 31.9894 49.9731 33.1017 48.5272 33.1017C47.6235 33.1017 47.1013 32.6795 46.1976 31.907C45.4747 31.2684 44.3902 31.0316 43.4263 31.0316C42.0004 31.0316 40.7051 31.6701 39.9018 32.9164C39.0182 34.2142 38.8676 35.8415 38.8676 37.3556C38.8676 38.8697 39.0483 40.5383 39.9018 41.8669C40.7051 43.1441 42.0305 43.7003 43.4965 43.7003C45.4345 43.7003 46.8403 42.794 47.5833 40.9401C48.0251 39.8483 48.1557 38.5814 48.1557 37.3248C48.1557 35.9961 48.005 34.6983 47.4327 33.4726C47.8243 33.6271 48.1858 33.7404 48.5975 33.7404C50.4049 33.7404 51.9412 32.3087 51.9412 30.4444C51.9412 30.2281 51.9111 30.0221 51.891 29.8058C52.4131 30.5989 52.8549 31.4229 53.1361 32.2984V32.2881Z" stroke="var(--stroke-0, #236242)" stroke-width="1.29779" stroke-linecap="round" stroke-linejoin="round"/>
<path id="Vector_15" d="M64.9779 39.993C64.8172 40.4461 64.7168 40.8684 64.7168 41.3525C64.7168 43.3198 66.4037 44.7515 68.2613 44.7515C68.9843 44.7515 69.657 44.5146 70.2595 44.0614L69.7976 45.421C68.9943 47.7282 68.0906 48.8715 65.5301 48.8715C62.9696 48.8715 61.7546 47.8312 60.9714 45.3901L55.9709 29.7446C55.8203 29.3429 55.74 28.8691 55.74 28.4159C55.74 26.8503 57.3666 25.8409 58.7724 25.8409C59.9874 25.8409 60.871 26.6134 61.2325 27.7567L65.0682 39.7355L64.9879 40.0033L64.9779 39.993ZM69.5064 27.7464C69.8679 26.634 70.7716 25.8306 71.9364 25.8306C73.3321 25.8306 75.0191 26.84 75.0191 28.4365C75.0191 28.8588 74.9186 29.312 74.7881 29.7343L70.9022 41.9809C70.4905 43.3096 69.7374 44.1026 68.3919 44.1026C66.8857 44.1026 65.3393 43.0108 65.3393 41.3422C65.3393 41.0229 65.4197 40.7037 65.5 40.3844L69.5165 27.7464H69.5064Z" stroke="var(--stroke-0, #236242)" stroke-width="1.29779" stroke-linecap="round" stroke-linejoin="round"/>
<path id="Vector_16" d="M83.5112 46.2552C83.5112 48.0371 82.6074 48.8611 80.6595 48.8611C78.8721 48.8611 77.8881 48.1195 77.8881 46.2552V28.4365C77.8881 26.4692 79.0027 25.8306 80.7599 25.8306C82.5171 25.8306 83.481 26.6031 83.5011 28.4365V46.2552H83.5112Z" stroke="var(--stroke-0, #236242)" stroke-width="1.29779" stroke-linecap="round" stroke-linejoin="round"/>
<path id="Vector_17" d="M100.961 34.6472C102.568 34.6472 103.472 35.4713 103.472 37.1398C103.472 38.8084 102.488 39.5603 100.961 39.5603H93.8121V42.6399C92.2859 42.9901 91.5629 44.185 91.5629 45.7505C91.5629 46.729 91.8441 47.6869 92.6474 48.3049C89.9262 48.3049 88.1891 48.3049 88.1891 44.9574V29.7343C88.1891 27.0563 89.384 26.3868 91.8139 26.3868H101.785C103.391 26.3868 104.325 27.2623 104.325 28.9412C104.325 30.6201 103.391 31.4955 101.785 31.4955H95.1074C93.9929 31.4955 93.8121 31.6809 93.8121 32.8551V34.6575H100.961V34.6472ZM94.7259 48.3049C93.1193 48.3049 92.1854 47.45 92.1854 45.7815C92.1854 44.1129 93.0892 43.2065 94.7259 43.2065H102.337C103.964 43.2065 104.877 44.0614 104.877 45.7608C104.877 46.6157 104.596 47.5119 103.843 47.996C103.381 48.2638 102.859 48.2843 102.337 48.3152H94.7259V48.3049Z" stroke="var(--stroke-0, #236242)" stroke-width="1.29779" stroke-linecap="round" stroke-linejoin="round"/>
</g>
<g id="Group_5">
<path id="Vector_18" d="M26.1105 62.9421C26.1105 62.7567 26.2209 62.5713 26.4619 62.5095C27.8074 62.1696 28.43 61.3147 28.6107 60.0787C28.6509 59.8212 28.8417 59.7079 29.0325 59.7079C29.2734 59.7079 29.5144 59.8728 29.5144 60.1303V60.192C29.173 62.7155 26.964 63.3746 26.5623 63.3746C26.2611 63.3746 26.1105 63.1687 26.1105 62.9524V62.9421ZM33.2096 59.574L31.0106 59.5431C31.0106 60.1405 30.9905 61.2632 30.9905 61.7576C30.9905 62.2005 30.9905 62.3549 31.7737 62.3549C32.2657 62.3549 32.8079 62.3344 32.8079 61.4795C32.8079 61.1911 33.0088 61.0572 33.2297 61.0572C33.4004 61.0572 33.7016 61.1602 33.7016 61.5413C33.7016 63.1378 32.4967 63.1584 31.8339 63.1584C31.0206 63.1584 30.1571 63.1274 30.1571 62.1078C30.1571 61.8194 30.1571 60.2641 30.1571 59.5431C29.5747 59.5431 28.5103 59.5431 26.6426 59.574C26.3816 59.574 26.241 59.3783 26.241 59.1826C26.241 58.9869 26.3816 58.7809 26.6527 58.7809H29.5044V57.6583H28.1087C27.6267 58.5132 27.3857 58.6573 27.1447 58.6573C26.9037 58.6573 26.6929 58.4925 26.6929 58.2865C26.6929 58.1835 26.7431 58.0805 26.8535 57.9775C27.4058 57.4316 27.7472 56.6901 27.9681 56C28.0083 55.8455 28.1388 55.7836 28.2794 55.7836C28.5103 55.7836 28.7814 55.9587 28.7814 56.1956C28.7814 56.3295 28.5505 56.8034 28.5204 56.8858H29.5044V55.8352C29.5044 55.5674 29.7153 55.4438 29.9261 55.4438C30.137 55.4438 30.378 55.5777 30.378 55.8352V56.8858H32.3963C32.6674 56.8858 32.7979 57.0815 32.7979 57.2772C32.7979 57.4729 32.6674 57.6686 32.3963 57.6686H30.3679V58.8015H33.2196C33.4907 58.8015 33.6213 58.9972 33.6213 59.2032C33.6213 59.4092 33.4908 59.5946 33.2297 59.5946L33.2096 59.574Z" fill="var(--fill-0, #236242)"/>
<path id="Vector_19" d="M35.5963 57.1223C35.4055 57.1223 35.3151 57.009 35.3151 56.8854C35.3151 56.7618 35.4155 56.6382 35.5963 56.6382H37.6547V56.3704H35.4055C35.2047 56.3704 35.1043 56.2365 35.1043 56.0923C35.1043 55.9378 35.2047 55.7936 35.4055 55.7936H37.6447V55.6597V55.6289C37.6447 55.4023 37.8254 55.2992 38.0162 55.2992C38.2271 55.2992 38.4379 55.4228 38.4379 55.6597C38.4379 55.7627 38.4379 55.8863 38.4379 55.9996C38.4379 57.7197 38.2472 58.6879 35.8574 58.9145H35.8071C35.5762 58.9145 35.4657 58.7599 35.4657 58.6157C35.4657 58.4715 35.5662 58.3171 35.7569 58.3068C36.6707 58.2141 37.1426 58.0698 37.3836 57.8226C36.2389 57.9565 35.3151 57.9978 35.2549 57.9978C35.0239 57.9978 34.9135 57.8535 34.9135 57.7093C34.9135 57.5548 35.0239 57.4107 35.2448 57.4107H35.4155C36.1285 57.4107 36.9217 57.3592 37.6246 57.2974C37.6246 57.2356 37.6246 57.1635 37.6447 57.0914L35.5963 57.112V57.1223ZM38.9902 62.5297V63.0344C38.9902 63.3125 38.7994 63.4464 38.6086 63.4464C38.4178 63.4464 38.217 63.3125 38.217 63.0344V62.5297L35.3151 62.5503C35.0842 62.5503 34.9737 62.3855 34.9737 62.2207C34.9737 62.0559 35.0842 61.9014 35.3151 61.9014L38.217 61.9221V61.6336C37.6949 61.6336 37.2129 61.6336 36.8213 61.6336C35.9678 61.6336 35.9477 61.2629 35.9477 60.7479C35.9477 60.1093 35.9779 59.8415 36.8012 59.8415C37.1828 59.8415 37.6848 59.8415 38.217 59.8415V59.5737L35.8875 59.5943C35.6565 59.5943 35.536 59.4397 35.536 59.2955C35.536 59.1513 35.6565 58.9968 35.8875 58.9968H38.217V58.6982C38.217 58.4819 38.4078 58.3788 38.5986 58.3788C38.7894 58.3788 38.9701 58.4819 38.9701 58.6982V58.9968H41.4101C41.6411 58.9968 41.7515 59.141 41.7515 59.2852C41.7515 59.4397 41.6411 59.584 41.4101 59.584L38.9801 59.5634V59.8312C39.5425 59.8312 40.0947 59.8312 40.5667 59.8312C41.3398 59.8312 41.3398 60.2122 41.3398 60.686C41.3398 61.2319 41.3398 61.5924 40.5265 61.6233C40.0847 61.6233 39.5425 61.644 38.9902 61.644V61.9221L41.9925 61.9014C42.2134 61.9014 42.3239 62.0662 42.3239 62.231C42.3239 62.3958 42.2134 62.5503 41.9925 62.5503L38.9902 62.5297ZM38.207 60.2329C37.7551 60.2329 37.3334 60.2329 37.0523 60.2329C36.7611 60.2329 36.7209 60.3153 36.7008 60.4697C36.7008 60.4903 36.7008 60.5109 36.7008 60.5315H38.217V60.2329H38.207ZM38.207 60.8818H36.6908C36.6908 60.8818 36.6908 60.9435 36.6908 60.9744C36.7209 61.1701 36.7711 61.1907 37.0523 61.201C37.3736 61.201 37.7752 61.201 38.1969 61.201V60.8818H38.207ZM39.7935 58.1832V58.4304C39.7935 58.6673 39.5927 58.7909 39.3818 58.7909C39.1709 58.7909 38.9601 58.6776 38.9601 58.4304V55.6493C38.9601 55.4124 39.1709 55.2992 39.3718 55.2992C39.5726 55.2992 39.7935 55.4124 39.7935 55.639V55.8039H41.9925C42.2134 55.8039 42.3138 55.9481 42.3138 56.082C42.3138 56.2262 42.2134 56.3704 41.9925 56.3704H39.7835V56.7412H41.6913C41.8821 56.7412 41.9825 56.8545 41.9825 56.9781C41.9825 57.112 41.8921 57.2356 41.6913 57.2356H39.7734V57.6064H42.0527C42.2636 57.6064 42.354 57.7403 42.354 57.8845C42.354 58.039 42.2536 58.1832 42.0527 58.1832H39.7935ZM40.5566 60.4697C40.5566 60.3256 40.5365 60.2535 40.2252 60.2432C39.924 60.2432 39.4722 60.2432 38.9902 60.2432V60.5418H40.5566V60.4697ZM40.5566 60.8818H38.9902V61.201C39.4421 61.201 39.8738 61.201 40.2353 61.201C40.5164 61.201 40.5466 61.1392 40.5566 60.9641V60.8818Z" fill="var(--fill-0, #236242)"/>
<path id="Vector_20" d="M49.2431 59.4097C49.2431 58.4209 48.4901 57.566 47.2249 57.566H47.2048C47.3454 57.6278 47.4458 57.7618 47.4458 57.9369V57.978C47.4458 58.9153 46.5521 60.5427 45.5882 61.5006C45.3673 61.7169 45.1463 61.7994 44.9355 61.7994C44.3129 61.7994 43.7607 61.0887 43.7607 60.1102C43.7607 58.4931 45.307 56.8554 47.265 56.8554C49.0222 56.8554 50.1167 58.0502 50.1167 59.4407C50.1167 59.7703 50.0565 60.1101 49.9259 60.45C49.1628 62.4276 46.7931 62.7058 46.6726 62.7058C46.3714 62.7058 46.1806 62.4894 46.1806 62.2731C46.1806 62.0774 46.3312 61.892 46.6626 61.8302C48.2491 61.5624 49.2431 60.5633 49.2431 59.3891V59.4097ZM46.7329 57.6176C45.6484 57.8442 44.5539 59.0287 44.5539 60.0896C44.5539 60.759 44.9857 60.8414 45.0158 60.8414C45.066 60.8414 45.1263 60.8209 45.1865 60.7694C45.4476 60.5325 46.532 59.2037 46.5722 57.9986C46.5722 57.8236 46.6425 57.6897 46.7429 57.6176H46.7329Z" fill="var(--fill-0, #236242)"/>
<path id="Vector_21" d="M52.4267 62.983C51.6736 63.4465 51.0511 62.5505 51.8443 62.1488C53.1296 61.4896 53.722 60.4698 53.9128 59.3677C53.953 59.1 53.953 58.7807 53.9128 58.5541C53.8124 57.9979 54.7964 57.8023 54.9169 58.4615C54.937 58.5542 54.937 58.6881 54.937 58.8219C55.4592 58.5645 56.1018 58.0906 56.4231 57.6374C56.5737 57.4314 56.5938 57.3284 56.2624 57.3387C55.168 57.3799 53.7622 57.5756 53.3706 57.6374C52.8987 57.6992 52.6677 57.7713 52.1757 57.7507C51.6134 57.7301 51.5029 56.8031 52.236 56.8237C52.6075 56.8237 53.0191 56.7826 53.3806 56.7517C53.7622 56.7208 55.2182 56.5869 56.6139 56.5045C57.5879 56.453 57.9594 57.2049 57.3469 57.9465C56.7946 58.616 56.0516 59.3163 55.1579 59.6562C55.0274 59.7077 54.8968 59.7077 54.7964 59.6562C54.4651 61.0364 53.7923 62.1178 52.4066 62.9727L52.4267 62.983Z" fill="var(--fill-0, #236242)"/>
<path id="Vector_22" d="M60.6909 58.9864C60.3294 58.7186 59.8675 58.4715 59.4559 58.3788C58.9337 58.2655 59.1546 57.3694 59.8173 57.5342C60.2792 57.6578 60.8214 57.8535 61.2532 58.1316C61.5344 58.3067 61.5344 58.6362 61.4038 58.8525C61.2733 59.0688 60.9821 59.1926 60.7009 58.9763L60.6909 58.9864ZM61.0624 62.3442C60.7712 62.509 60.5704 62.6017 60.229 62.6326C59.506 62.6944 59.4056 61.7571 59.9579 61.6953C60.1286 61.6747 60.4499 61.5511 60.6307 61.4688C62.2071 60.7375 63.6129 59.2852 64.4965 57.5446C64.7877 56.9781 65.6613 57.3592 65.2797 58.0699C64.2053 60.0783 62.8498 61.376 61.0725 62.3442H61.0624Z" fill="var(--fill-0, #236242)"/>
<path id="Vector_23" d="M70.9129 59.1931C70.692 60.5115 69.4369 62.2212 67.75 62.9113C66.9969 63.21 66.6354 62.2831 67.3885 62.0462C68.7942 61.593 69.8385 60.0582 69.9791 59.1209C69.9992 58.9973 69.9791 58.8326 69.9188 58.709C69.5875 58.7605 69.2963 58.812 69.0754 58.8429C68.7139 58.8944 68.5432 58.915 68.3725 58.9047C68.0813 59.3476 67.7098 59.7904 67.3081 60.1509C66.6856 60.7071 66.1333 59.9346 66.6756 59.5123C67.3082 59.0179 67.9207 58.1116 68.1516 57.5245C68.3022 57.1537 68.3123 57.0506 68.3223 56.6798C68.3223 56.0413 69.2561 56.1237 69.2762 56.7314C69.2762 56.958 69.1959 57.2464 69.1055 57.5039C69.0453 57.679 68.965 57.8541 68.8746 58.0395C68.9449 58.0395 69.0151 58.0395 69.0754 58.0189C69.5574 57.9468 70.5916 57.7819 71.2543 57.6995C71.6359 57.648 72.0877 57.5657 72.399 57.6069C72.7003 57.6481 72.8609 57.8335 72.8308 58.1115C72.8007 58.3587 72.5798 58.5442 72.2785 58.5339C71.907 58.5133 71.6058 58.4927 71.2644 58.5339C71.1539 58.5339 71.0334 58.5648 70.9029 58.5751C70.9631 58.7296 70.9732 58.9459 70.933 59.2137L70.9129 59.1931Z" fill="var(--fill-0, #236242)"/>
<path id="Vector_24" d="M79.9212 59.7497H79.4694C77.8025 59.7497 76.5373 59.8321 75.8445 59.8527C75.3926 59.8733 75.1617 59.8835 74.981 59.8835C74.8806 59.8835 74.8002 59.8835 74.6998 59.8835C74.3685 59.8835 74.1978 59.6363 74.1978 59.3994C74.1978 59.1625 74.3685 58.9669 74.7199 58.9669H74.7701C75.0914 58.9875 75.473 58.9977 75.8244 58.9977C76.5374 58.9977 78.405 58.8948 79.9313 58.8433H79.9514C80.3028 58.8433 80.4835 59.0801 80.4835 59.2964C80.4835 59.5127 80.3028 59.7599 79.9313 59.7599L79.9212 59.7497Z" fill="var(--fill-0, #236242)"/>
<path id="Vector_25" d="M83.6448 62.5599C83.6448 62.9822 83.4239 63.2087 83.1728 63.2396C82.9318 63.2705 82.6808 63.0955 82.6908 62.6938C82.741 61.2415 82.7611 58.4296 82.721 57.1318C82.721 56.8434 82.6909 56.5653 82.6406 56.38C82.48 55.7414 83.4841 55.6177 83.5644 56.2357C83.6046 56.5035 83.6046 56.4109 83.6046 57.0288C83.6046 57.3893 83.6046 57.9043 83.6046 58.5017C83.6448 58.5017 83.705 58.5017 83.7552 58.5017C84.187 58.5429 85.3417 58.8004 85.8036 59.3154C86.2153 59.7686 85.6128 60.4895 85.161 60.0466C84.8196 59.717 84.0464 59.4389 83.6046 59.3771C83.6046 60.5307 83.6347 61.7565 83.6448 62.5599Z" fill="var(--fill-0, #236242)"/>
<path id="Vector_26" d="M36.253 72.4484L35.0983 72.4793C34.8673 72.4793 34.7569 72.3248 34.7569 72.1703C34.7569 72.0158 34.8774 71.8612 35.1083 71.8612H36.2631V71.5007C34.9878 71.5007 34.8673 71.4699 34.8673 70.2339C34.8673 69.1318 35.1083 69.1215 36.2731 69.1215V68.7508H34.9376C34.7067 68.7508 34.5862 68.5859 34.5862 68.4314C34.5862 68.2769 34.7067 68.1122 34.9376 68.1122H36.2631V67.7413C35.771 67.7722 35.3493 67.7722 35.1786 67.7722C34.9376 67.7722 34.8171 67.5971 34.8171 67.4117C34.8171 67.2263 34.9376 67.0719 35.1786 67.0719H35.2087C35.3794 67.0719 35.5602 67.0924 35.7409 67.0924C36.4137 67.0924 37.1165 67.01 37.8797 66.8452C37.9098 66.8452 37.9399 66.8452 37.97 66.8452C38.1809 66.8452 38.3315 67.0204 38.3315 67.2161C38.3315 67.4839 38.1608 67.5765 37.0061 67.7001V68.1327H38.2813C38.5123 68.1327 38.6428 68.2975 38.6428 68.452C38.6428 68.4726 38.6428 68.4931 38.6428 68.5137C38.693 68.4725 38.7633 68.4623 38.8436 68.4623C39.0646 68.4623 39.3156 68.4623 39.5566 68.4623V67.0719C39.5566 66.8041 39.7574 66.6805 39.9582 66.6805C40.159 66.6805 40.3799 66.8144 40.3799 67.0719V68.4623C40.5908 68.4623 40.8117 68.4623 41.0226 68.4623C41.5949 68.4623 41.9463 68.8537 41.9564 69.4511C41.9564 69.7086 41.9564 69.9764 41.9564 70.2442C41.9564 71.954 41.7957 74.1787 40.1791 74.1787C39.9482 74.1787 39.6871 74.1375 39.426 74.0448C39.2352 73.9727 39.1449 73.8183 39.1449 73.6432C39.1449 73.4269 39.2854 73.2209 39.5164 73.2209C39.5666 73.2209 39.6168 73.2209 39.6771 73.2518C39.8478 73.3033 39.9984 73.3445 40.1389 73.3445C40.5105 73.3445 41.1431 73.1179 41.1431 70.1721C41.1431 69.9558 41.1431 69.7497 41.1431 69.554C41.1431 69.3069 41.0025 69.2245 40.8218 69.2142C40.6812 69.2142 40.5305 69.2142 40.3598 69.2142C40.2996 71.0991 39.8076 73.1282 38.1709 74.2715C38.0705 74.3436 37.9801 74.3745 37.8797 74.3745C37.6487 74.3745 37.468 74.1787 37.468 73.9624C37.468 73.8388 37.5282 73.7153 37.6688 73.6123C37.7994 73.5196 37.9299 73.4165 38.0403 73.3135C37.0663 73.5916 35.1183 73.8801 34.8673 73.8801C34.6464 73.8801 34.5159 73.6947 34.5159 73.5093C34.5159 73.3342 34.6163 73.1693 34.8171 73.159C35.2891 73.1178 35.7811 73.0767 36.2631 73.0046V72.469L36.253 72.4484ZM36.253 70.5223H35.5401C35.5401 70.5841 35.5401 70.6356 35.5401 70.6871C35.5702 70.9549 35.6405 70.9651 36.243 70.9651V70.5326L36.253 70.5223ZM36.2631 69.6365C35.6104 69.6365 35.5702 69.6571 35.5501 69.9558V70.0485H36.2631V69.6365ZM36.976 72.4278V72.8604C37.3776 72.7883 37.7391 72.7059 38.0604 72.6235C38.0906 72.6235 38.1106 72.6235 38.1408 72.6235C38.2914 72.6235 38.3918 72.7265 38.4219 72.8604C39.2654 71.851 39.4863 70.5326 39.5164 69.1936C39.2754 69.1936 39.0244 69.1936 38.8035 69.1936C38.5625 69.1936 38.442 69.0082 38.442 68.8125C38.442 68.7816 38.442 68.7301 38.4621 68.6992C38.4119 68.7301 38.3416 68.7404 38.2612 68.7404H36.976V69.1009C38.1207 69.1009 38.3918 69.1215 38.3918 70.2442C38.3918 71.4596 38.2211 71.4904 36.976 71.4904V71.8304L38.0604 71.7995C38.2713 71.7995 38.3817 71.954 38.3817 72.0982C38.3817 72.2424 38.2713 72.3968 38.0504 72.3968L36.976 72.4174V72.4278ZM37.6889 69.9248C37.6889 69.6364 37.5784 69.6365 36.976 69.6365V70.0485H37.6889V69.9248ZM36.9659 70.5223V70.9548C37.5182 70.9548 37.6688 70.9549 37.6789 70.6665C37.6789 70.615 37.6789 70.5738 37.6789 70.512H36.9559L36.9659 70.5223Z" fill="var(--fill-0, #236242)"/>
<path id="Vector_27" d="M47.3856 67.9884V68.6681C47.6065 68.6681 47.8474 68.6681 48.1386 68.6681C48.6407 68.6681 49.0122 69.0595 49.0223 69.4406C49.0424 69.7187 49.0424 70.1823 49.0424 70.6458C49.0424 71.1093 49.0424 71.5728 49.0223 71.8303C49.0022 72.2938 48.6508 72.6954 48.0884 72.716C47.5964 72.7366 47.3354 72.747 47.0944 72.747C46.8132 72.747 46.5522 72.7469 45.9898 72.716C45.3773 72.6954 45.046 72.335 45.0259 71.8406C45.0259 71.5419 45.0058 71.0887 45.0058 70.6458C45.0058 70.2029 45.0058 69.76 45.0259 69.5128C45.046 69.1111 45.287 68.6784 45.9497 68.6681C46.1907 68.6681 46.3915 68.6475 46.5923 68.6475V67.9781H44.0117C43.7306 67.9781 43.6 67.7824 43.6 67.5867C43.6 67.391 43.7507 67.1644 44.0117 67.1644H50.0666C50.3276 67.1644 50.4581 67.3704 50.4581 67.5764C50.4581 67.7824 50.3276 67.9781 50.0666 67.9781H47.3755L47.3856 67.9884ZM44.4837 69.4716C44.4837 70.038 44.4636 70.7384 44.4636 71.4079C44.4636 71.892 44.4636 72.3659 44.4837 72.7264C44.5038 73.0869 44.6242 73.2825 45.0359 73.2928C45.548 73.3134 46.271 73.3237 47.004 73.3237C47.737 73.3237 48.4499 73.3237 48.942 73.2928C49.2934 73.2722 49.5042 73.0972 49.5243 72.747C49.5444 72.3041 49.5544 71.7787 49.5544 71.2328C49.5544 70.6251 49.5545 70.0072 49.5243 69.4922V69.4716C49.5243 69.2141 49.7352 69.0802 49.9461 69.0802C50.1569 69.0802 50.3778 69.2141 50.3879 69.4922C50.408 69.8836 50.408 70.4809 50.408 71.1092C50.408 71.7375 50.408 72.3967 50.3879 72.922C50.3578 73.6945 49.7954 74.0859 49.1528 74.0962C48.5503 74.1271 47.727 74.1374 46.9136 74.1374C46.1003 74.1374 45.3171 74.1374 44.7749 74.0962C44.0619 74.0653 43.6603 73.6842 43.6402 72.9323C43.6402 72.3658 43.6201 71.717 43.6201 71.0681C43.6201 70.5222 43.6201 69.9762 43.6402 69.4612C43.6402 69.1728 43.8511 69.0389 44.0519 69.0389C44.2527 69.0389 44.4736 69.1831 44.4736 69.4509L44.4837 69.4716ZM46.5923 69.3273H46.1605C45.8894 69.3479 45.789 69.5024 45.779 69.6981C45.779 69.8423 45.779 70.0689 45.779 70.3367H46.6023V69.3377L46.5923 69.3273ZM46.5923 70.965H45.7689C45.7689 71.2637 45.7689 71.5316 45.7689 71.6964C45.7689 72.0363 45.8995 72.0568 46.5923 72.0568V70.965ZM48.2491 70.3264C48.2491 70.0689 48.2491 69.8423 48.2491 69.6878C48.2491 69.3376 48.0282 69.317 47.3856 69.317V70.3264H48.2591H48.2491ZM47.8675 72.0465C48.0985 72.0465 48.229 71.9642 48.2391 71.6861C48.2391 71.5213 48.2391 71.2534 48.2391 70.965H47.3655V72.0568H47.8575L47.8675 72.0465Z" fill="var(--fill-0, #236242)"/>
<path id="Vector_28" d="M55.5881 71.6861C55.5881 71.8406 55.5881 71.9951 55.568 72.1805C55.5379 72.541 55.307 72.7264 55.0961 72.7264C54.9053 72.7264 54.7346 72.5821 54.7346 72.304V72.2217C54.7647 72.0054 54.7748 71.7993 54.7748 71.6242C54.594 71.7272 53.7807 72.1599 53.7807 72.7264C53.7807 72.8809 53.851 73.4061 54.7346 73.4061C55.1362 73.4061 55.578 73.3032 55.8291 73.2208C55.9094 73.1899 55.9897 73.1795 56.05 73.1795C56.3412 73.1795 56.5019 73.3855 56.5019 73.6018C56.5019 73.7872 56.4315 74.2404 54.9455 74.2404C53.4594 74.2404 52.9975 73.4679 52.9975 72.819C52.9975 71.7273 54.2325 71.0475 54.6844 70.8106C54.584 70.4604 54.4032 70.2853 54.1723 70.2853C54.0317 70.2853 53.8811 70.3367 53.7204 70.45C53.3589 70.8723 53.138 70.9959 52.9473 70.9959C52.7364 70.9959 52.5757 70.8518 52.5757 70.6561C52.5757 70.5531 52.6259 70.4192 52.7766 70.2853C53.2485 69.8527 53.4795 69.6363 53.8911 68.9257C53.7305 68.9566 53.5999 68.9566 53.4694 68.9566C52.5858 68.9566 52.5858 68.4518 52.5858 68.39C52.5858 68.184 52.7364 67.9986 52.9372 67.9986C53.0376 67.9986 53.138 68.0297 53.2485 68.112C53.3288 68.1635 53.4393 68.1841 53.5698 68.1841C53.6401 68.1841 53.861 68.1841 54.2627 68.0914C54.343 67.8545 54.3731 67.6897 54.4233 67.391C54.4635 67.1644 54.6141 67.0821 54.7848 67.0821C55.0157 67.0821 55.2567 67.2469 55.2567 67.4735C55.2567 67.5765 55.2266 67.7206 55.2065 67.803C55.4676 67.6691 55.4977 67.6588 55.568 67.6588C55.7789 67.6588 55.9395 67.8339 55.9395 68.0502C55.9395 68.3489 55.7086 68.524 54.8049 68.7506C54.6744 69.0287 54.5037 69.3274 54.3129 69.6467C54.7949 69.6467 55.1865 69.9248 55.4074 70.4809C56.5019 69.9969 57.265 69.76 57.4156 69.76C57.7269 69.76 57.9076 69.9969 57.9076 70.2235C57.9076 70.3676 57.8273 70.5118 57.6767 70.5736C57.4055 70.6869 57.1244 70.7282 56.6625 70.8723C56.301 70.9856 55.9195 71.1299 55.5881 71.2741C55.6082 71.408 55.6082 71.5522 55.6082 71.7067L55.5881 71.6861Z" fill="var(--fill-0, #236242)"/>
<path id="Vector_29" d="M62.4675 74.1492C62.1763 74.1492 61.9956 73.9329 61.9956 73.7166C61.9956 73.5415 62.106 73.3767 62.357 73.3046C63.1904 73.078 63.823 72.5527 64.2146 71.8935C63.5419 71.5948 62.829 71.3889 62.1462 71.2962C61.3128 72.3982 60.9011 72.594 60.389 72.594C59.7463 72.594 59.3146 72.151 59.3146 71.636C59.3146 71.2034 59.6359 70.6987 60.4994 70.5751C60.7605 70.5339 61.0316 70.5237 61.3127 70.5237C61.4834 70.5237 61.6642 70.5237 61.8449 70.5443C62.4575 69.6791 63.0398 68.5358 63.0398 68.371C63.0398 68.3401 63.0398 68.3298 63.0097 68.3298C62.9896 68.3298 62.9696 68.3298 62.9394 68.3504C62.7587 68.4225 62.5177 68.5049 62.2566 68.5049C61.8951 68.5049 61.5336 68.3607 61.5336 67.9899C61.5336 67.7942 61.6441 67.619 61.865 67.619C61.9052 67.619 61.9353 67.619 61.9755 67.6396C62.0457 67.6602 62.1964 67.6809 62.337 67.6809C62.4775 67.6809 62.6282 67.6602 62.7486 67.6396C62.9896 67.5881 63.2909 67.5057 63.5319 67.5057C63.7929 67.5057 64.1243 67.6293 64.1243 68.0001C64.1243 68.1546 64.064 68.3401 63.9435 68.5564C63.6524 69.061 63.1503 69.8954 62.6181 70.6679C63.2708 70.7709 63.9234 70.9666 64.546 71.1932C64.6263 70.9254 64.6866 70.6575 64.7067 70.3691C64.7267 70.1322 64.9075 70.0087 65.0983 70.0087C65.3192 70.0087 65.5401 70.1734 65.5401 70.4618C65.5401 70.5236 65.4698 70.9665 65.2991 71.5021C65.8915 71.7905 66.4137 72.0995 66.7952 72.4394C66.9258 72.5424 66.976 72.6866 66.976 72.8308C66.976 73.0883 66.7852 73.3355 66.5442 73.3355C66.4438 73.3355 66.3233 73.3046 66.2229 73.1913C65.8614 72.8411 65.4296 72.5321 64.9477 72.2643C64.1946 73.6033 62.8189 74.1596 62.4675 74.1596V74.1492ZM60.0777 71.5846C60.0777 71.6773 60.1781 71.8112 60.389 71.8112C60.5396 71.8112 60.7605 71.8111 61.2826 71.2446C60.1178 71.2446 60.0777 71.5331 60.0777 71.5949V71.5846Z" fill="var(--fill-0, #236242)"/>
<path id="Vector_30" d="M72.4192 71.6861C72.4192 70.7488 71.3147 70.7488 71.2343 70.7488C70.2603 70.7488 69.5073 71.4801 69.1558 71.9333C69.0655 72.0569 68.9349 72.1084 68.8044 72.1084C68.5734 72.1084 68.3425 71.923 68.3425 71.6758C68.3425 71.5625 68.3927 71.4389 68.5132 71.305C69.7683 70.0381 71.0335 68.4519 71.0335 68.3489C71.0335 68.3283 71.0335 68.318 71.0034 68.318C70.9833 68.318 70.9632 68.318 70.9432 68.3386C70.2905 68.7609 69.4671 68.9875 69.206 68.9875C68.9148 68.9875 68.7542 68.7609 68.7542 68.5549C68.7542 68.3695 68.8646 68.1841 69.1157 68.1635C69.9792 68.0811 71.0737 67.6794 71.3147 67.5558C71.4151 67.5043 71.5356 67.4837 71.6259 67.4837C71.9473 67.4837 72.1983 67.7206 72.1983 68.009C72.1983 68.1532 72.138 68.3077 71.9975 68.4416C71.405 69.0184 70.7323 69.7806 70.1901 70.4089C70.5616 70.1617 71.0034 70.0484 71.4352 70.0484C72.359 70.0484 73.2727 70.6251 73.2727 71.6242C73.2727 72.819 72.0678 73.9623 70.5616 73.9623C69.5173 73.9623 68.965 73.3443 68.965 72.8191C68.965 72.335 69.3968 71.9847 69.939 71.9847C70.6921 71.9847 71.2142 72.4174 71.2946 73.0972C71.6661 72.9942 72.3891 72.3659 72.3891 71.6655L72.4192 71.6861ZM70.0495 72.6439C69.7583 72.6439 69.7483 72.8397 69.7483 72.8706C69.7483 73.2208 70.3407 73.262 70.5616 73.262H70.6218C70.5917 72.8809 70.4009 72.6336 70.0595 72.6336L70.0495 72.6439Z" fill="var(--fill-0, #236242)"/>
<path id="Vector_31" d="M76.3343 74.1584C76.003 74.1584 75.7319 73.8699 75.7319 73.5712C75.7319 73.1798 76.0934 72.9533 76.3343 72.9533C76.6757 72.9533 76.9368 73.1695 76.9368 73.5712C76.9368 74.0038 76.5753 74.1584 76.3343 74.1584ZM75.9628 71.8924V71.707C75.9628 70.8418 75.8724 68.7612 75.8222 67.3604V67.3296C75.8222 67 76.0733 66.8351 76.3243 66.8351C76.5753 66.8351 76.8464 67.0102 76.8464 67.3501C76.8464 68.4007 76.7059 70.8623 76.7059 71.7275C76.7059 71.9438 76.7059 72.3147 76.3243 72.3147C76.1436 72.3147 75.9628 72.1705 75.9628 71.8924Z" fill="var(--fill-0, #236242)"/>
</g>
<path id="Vector_32" d="M56.9267 18.8081C59.8104 18.8081 62.1481 16.4101 62.1481 13.4521C62.1481 10.4941 59.8104 8.09623 56.9267 8.09623C54.043 8.09623 51.7053 10.4941 51.7053 13.4521C51.7053 16.4101 54.043 18.8081 56.9267 18.8081Z" stroke="var(--stroke-0, #236242)" stroke-width="0.973339" stroke-miterlimit="10"/>
<path id="Vector_33" d="M59.0449 11.2367H56.0225V14.2546H59.0449V11.2367Z" stroke="var(--stroke-0, #236242)" stroke-width="0.973339" stroke-linecap="round" stroke-linejoin="round"/>
<path id="Vector_34" d="M54.637 13.0499V15.6455H57.318" stroke="var(--stroke-0, #236242)" stroke-width="0.973339" stroke-linecap="round" stroke-linejoin="round"/>
</g>
</svg>
