<svg preserveAspectRatio="none" width="100%" height="100%" overflow="visible" style="display: block;" viewBox="0 0 96.3554 23.0718" fill="none" xmlns="http://www.w3.org/2000/svg">
<g id="Group">
<path id="Vector" d="M13.1338 3.41951C13.3447 2.44102 13.5455 1.24625 14.399 0.607658C15.1521 0.0514642 16.4474 0 17.3511 0C19.1686 0 21.0061 0.535504 21.0061 2.73968V11.3505C21.0061 13.2663 19.9418 14.0594 18.1344 14.0594C16.6282 14.0594 15.7044 13.4722 15.363 11.9066L13.6259 20.7543C13.4953 21.362 13.1037 21.949 12.692 22.3507C12.0996 22.9069 11.2662 23.0718 10.493 23.0718C9.71987 23.0718 8.91656 22.9172 8.31409 22.3507C7.87228 21.9799 7.48068 21.362 7.38027 20.7543L5.62306 11.9066V20.3526C5.62306 22.289 4.5587 23.0615 2.77137 23.0615C0.984045 23.0615 0 22.2169 0 20.3526V2.73968C0 0.504604 1.83752 0 3.65497 0C4.71934 0 6.29582 0.082379 6.9987 1.00937C7.52084 1.69946 7.70159 2.60583 7.85221 3.42982L10.493 16.7064L13.1338 3.42982V3.41951ZM21.0061 20.332C21.0061 22.2683 19.9418 23.0408 18.1344 23.0408C16.3269 23.0408 15.363 22.1962 15.363 20.332V13.4002C16.1663 14.3272 16.9896 14.6773 18.2147 14.6773C19.4397 14.6773 20.2832 14.3066 21.0061 13.4002V20.332Z" fill="var(--fill-0, white)"/>
<path id="Vector_2" d="M44.624 6.46755C45.1662 8.11553 45.3971 9.86649 45.3971 11.5969C45.3971 15.1606 44.383 18.611 41.5915 20.8976C39.7239 22.3808 37.3441 23.0503 34.9844 23.0503C32.6248 23.0503 30.2952 22.3911 28.4075 20.8976C25.5558 18.6419 24.6019 15.0782 24.6019 11.5247C24.6019 7.19875 26.0779 3.07879 30.0944 1.09091C31.6206 0.349321 33.3276 0.0301198 35.0146 0.0301198C37.314 0.0301198 39.5732 0.668627 41.4108 2.13121C42.1639 2.7698 42.8366 3.56294 42.8366 4.62383C42.8366 6.16881 41.461 7.28116 40.0151 7.28116C39.1114 7.28116 38.5892 6.85882 37.6855 6.08633C36.9625 5.44774 35.8781 5.21087 34.9141 5.21087C33.4883 5.21087 32.193 5.84954 31.3897 7.09583C30.5061 8.39361 30.3555 10.0209 30.3555 11.535C30.3555 13.0491 30.5362 14.7177 31.3897 16.0464C32.193 17.3236 33.5184 17.8798 34.9844 17.8798C36.9224 17.8798 38.3282 16.9733 39.0712 15.1194C39.513 14.0276 39.6436 12.7607 39.6436 11.5041C39.6436 10.1754 39.4929 8.87762 38.9206 7.65194C39.3122 7.81673 39.6737 7.91974 40.0853 7.91974C41.8928 7.91974 43.4291 6.48811 43.4291 4.62383C43.4291 4.40753 43.399 4.20154 43.3789 3.98524C43.901 4.77833 44.3328 5.60224 44.624 6.47773V6.46755Z" fill="var(--fill-0, white)"/>
<path id="Vector_3" d="M56.4537 14.1724C56.2931 14.6256 56.1926 15.0478 56.1926 15.5319C56.1926 17.4992 57.8796 18.9309 59.7372 18.9309C60.4601 18.9309 61.1329 18.694 61.7354 18.2408L61.2735 19.6004C60.4702 21.9076 59.5665 23.0509 57.006 23.0509C54.4455 23.0509 53.2305 22.0106 52.4473 19.5695L47.4468 3.92392C47.2962 3.52223 47.2158 3.04852 47.2158 2.59532C47.2158 1.02974 48.8425 0.0203499 50.2483 0.0203499C51.4633 0.0203499 52.3469 0.792826 52.7083 1.93611L56.5441 13.9149L56.4638 14.1827L56.4537 14.1724ZM60.9923 1.9258C61.3538 0.813416 62.2575 0.0100399 63.4223 0.0100399C64.818 0.0100399 66.5049 1.01933 66.5049 2.61582C66.5049 3.03811 66.4045 3.49132 66.274 3.91361L62.3881 16.1602C61.9764 17.4889 61.2233 18.282 59.8778 18.282C58.3716 18.282 56.8252 17.1902 56.8252 15.5216C56.8252 15.2023 56.9056 14.8831 56.9859 14.5638L61.0024 1.9258H60.9923Z" fill="var(--fill-0, white)"/>
<path id="Vector_4" d="M74.999 20.4447C74.999 22.2266 74.0953 23.0506 72.1474 23.0506C70.36 23.0506 69.376 22.309 69.376 20.4447V2.62586C69.376 0.658577 70.4906 0.0200799 72.2478 0.0200799C74.005 0.0200799 74.9689 0.792476 74.989 2.62586V20.4447H74.999Z" fill="var(--fill-0, white)"/>
<path id="Vector_5" d="M92.4493 8.83682C94.0559 8.83682 94.9596 9.66086 94.9596 11.3294C94.9596 12.998 93.9756 13.7499 92.4493 13.7499H85.3V16.8295C83.7738 17.1694 83.0508 18.3746 83.0508 19.9401C83.0508 20.9186 83.3319 21.8765 84.1352 22.4945C81.4141 22.4945 79.677 22.4945 79.677 19.147V3.92376C79.677 1.24579 80.8719 0.576292 83.3018 0.576292H93.2727C94.8793 0.576292 95.8131 1.45176 95.8131 3.13064C95.8131 4.80953 94.8793 5.68512 93.2727 5.68512H86.5953C85.4807 5.68512 85.3 5.87047 85.3 7.04465V8.84713H92.4493V8.83682ZM86.2037 22.4842C84.5971 22.4842 83.6633 21.6293 83.6633 19.9608C83.6633 18.2922 84.567 17.3858 86.2037 17.3858H93.8149C95.4416 17.3858 96.3554 18.2407 96.3554 19.9401C96.3554 20.795 96.0742 21.6912 95.3211 22.1753C94.8592 22.4431 94.3371 22.4636 93.8149 22.4945H86.2037V22.4842Z" fill="var(--fill-0, white)"/>
</g>
</svg>
