<svg preserveAspectRatio="none" width="100%" height="100%" overflow="visible" style="display: block;" viewBox="0 0 113.024 108.282" fill="none" xmlns="http://www.w3.org/2000/svg">
<g id="Group">
<path id="Vector" d="M98.3487 0.988108L14.033 1.5031C7.07442 1.5443 1.4613 7.37404 1.50147 14.5119L1.83291 71.0273C1.87307 78.1652 7.55638 83.9229 14.5149 83.8817L20.2986 83.8508L20.2182 106.984L48.3536 83.6859L98.8306 83.377C105.789 83.3358 111.402 77.5061 111.362 70.3683L111.031 13.8528C110.991 6.71496 105.307 0.957218 98.3487 0.998418V0.988108Z" fill="var(--fill-0, #F4C058)"/>
<g id="Group_2">
<path id="Vector_2" d="M103.395 83.3769C102.069 83.8095 100.693 84.036 99.2775 84.0463L50.7084 84.4481L50.106 84.8704C50.0457 84.9425 49.9855 85.0145 49.9152 85.066L22.1212 108.004C22.0007 108.097 21.8702 108.169 21.7296 108.22C21.4284 108.323 21.107 108.292 20.8259 108.158C20.4041 107.952 20.1331 107.51 20.123 107.025L19.8018 85.2205C19.8018 85.0248 19.8419 84.8395 19.9222 84.6644L20.6653 84.7055L14.3795 84.7571C6.74821 84.8189 0.492542 78.4947 0.432295 70.6668L0.00047096 14.8621C-0.0296526 11.0717 1.38624 7.48732 3.97686 4.78875C5.55332 3.14077 7.50131 1.90482 9.61999 1.21472C10.9454 0.782128 12.321 0.555506 13.7369 0.545206L58.2092 0.184735C58.5406 0.184735 58.8519 0.308308 59.0828 0.545206C59.3138 0.782103 59.4443 1.10139 59.4543 1.44129C59.4543 1.99748 59.1128 2.49181 58.6007 2.65661C58.4803 2.69781 58.3598 2.71847 58.2393 2.71847L13.767 3.07894C12.6123 3.07894 11.4775 3.27467 10.3931 3.62486C8.65594 4.19136 7.04936 5.21102 5.75404 6.5603C3.62532 8.78508 2.46054 11.7206 2.49066 14.8415L2.92249 70.6462C2.94257 73.7567 4.15757 76.6717 6.32646 78.8656C8.49535 81.0595 11.3571 82.2438 14.3896 82.2232L29.8027 82.0996C30.4855 82.0996 31.0378 82.6559 31.0478 83.3563C31.0478 83.9125 30.7064 84.4068 30.1943 84.5716C30.0739 84.6128 29.9534 84.6335 29.8329 84.6335L21.7296 84.6952L22.1715 84.6541C22.2618 84.8292 22.302 85.0145 22.302 85.2102L22.6032 104.409L46.9129 84.4996L48.7203 83.0164C48.4492 83.2326 49.2023 82.6352 49.373 82.491C50.1261 81.8731 50.5076 81.9658 51.0097 81.8628C51.1302 81.8422 51.9837 81.9349 52.1142 81.9349L99.2876 81.5435C100.442 81.5435 101.577 81.3478 102.661 80.9976C104.399 80.4311 106.005 79.4115 107.3 78.0622C109.429 75.8374 110.594 72.9019 110.564 69.781L110.423 51.6429C110.423 51.0867 110.765 50.5923 111.277 50.4275C111.397 50.3863 111.518 50.3658 111.638 50.3658C112.321 50.3658 112.873 50.9219 112.883 51.6223L113.024 69.7604C113.054 73.5508 111.638 77.1249 109.048 79.8337C107.471 81.4817 105.523 82.7074 103.404 83.4078L103.395 83.3769Z" fill="var(--fill-0, #236242)"/>
<path id="Vector_3" d="M111.992 46.2466C111.871 46.2878 111.751 46.3083 111.63 46.3083C110.947 46.3083 110.395 45.7522 110.385 45.0518L110.365 42.7137V42.6416C110.345 42.5695 110.335 42.5078 110.335 42.4357V40.767C110.325 40.6949 110.335 40.6331 110.335 40.5713V40.5095L110.315 37.3165C110.315 36.7604 110.656 36.266 111.168 36.1012C111.289 36.06 111.409 36.0394 111.53 36.0394C112.213 36.0394 112.765 36.5955 112.775 37.2959L112.855 45.0208C112.855 45.577 112.514 46.0715 112.002 46.2363L111.992 46.2466Z" fill="var(--fill-0, #236242)"/>
<path id="Vector_4" d="M111.837 30.5698C111.717 30.611 111.596 30.6315 111.466 30.6315C110.793 30.6315 110.231 30.0753 110.231 29.3749V28.5818C110.231 27.9432 110.572 27.4591 111.094 27.284C111.215 27.2428 111.335 27.2223 111.455 27.2223C111.787 27.2223 112.098 27.3459 112.329 27.5828C112.56 27.8197 112.691 28.139 112.701 28.4788V29.344C112.701 29.9002 112.359 30.3843 111.847 30.5594L111.837 30.5698Z" fill="var(--fill-0, #236242)"/>
<path id="Vector_5" d="M79.8182 2.472C79.6977 2.5132 79.5772 2.53373 79.4567 2.53373L75.4402 2.56466C74.7574 2.56466 74.2052 2.0085 74.1952 1.30811C74.1952 0.751912 74.5365 0.257462 75.0486 0.0926638C75.1691 0.0514642 75.2896 0.0309298 75.4101 0.0309298L79.4266 0C80.1094 0 80.6617 0.556164 80.6718 1.25656C80.6718 1.81275 80.3303 2.3072 79.8182 2.472Z" fill="var(--fill-0, #236242)"/>
<path id="Vector_6" d="M70.5809 2.53412C70.4303 2.58562 70.2697 2.60627 70.099 2.58567L64.275 2.77112C63.9437 2.74022 63.6525 2.58567 63.4417 2.32817C63.2308 2.07068 63.1304 1.74105 63.1605 1.40116C63.2006 0.886163 63.542 0.463923 64.014 0.299125C64.1646 0.247626 64.3252 0.226975 64.4959 0.247575L70.3198 0.0622476C70.6512 0.0931473 70.9423 0.247575 71.1532 0.505072C71.3641 0.76257 71.4645 1.09219 71.4344 1.43209C71.3942 1.94708 71.0529 2.36932 70.5809 2.53412Z" fill="var(--fill-0, #236242)"/>
<path id="Vector_7" d="M111.76 21.8254C111.639 21.8666 111.519 21.8872 111.398 21.8872C111.067 21.8872 110.756 21.7636 110.525 21.5267C110.294 21.2898 110.163 20.9705 110.153 20.6306L110.103 14.2035C110.073 11.0826 108.868 8.16779 106.709 5.98421C104.54 3.80064 101.679 2.60585 98.636 2.63675L86.3356 2.73972C85.6528 2.73972 85.1005 2.18356 85.0905 1.48317C85.0905 0.926972 85.432 0.432522 85.9441 0.267724C86.0646 0.226524 86.1851 0.20599 86.3056 0.20599L98.606 0.10289C102.301 0.0719908 105.795 1.52436 108.426 4.18173C111.057 6.8391 112.533 10.3925 112.553 14.1932L112.603 20.6203C112.603 21.1765 112.262 21.6607 111.75 21.8358L111.76 21.8254Z" fill="var(--fill-0, #236242)"/>
</g>
<g id="Group_3">
<path id="Vector_8" d="M21.2823 29.4267C21.4932 28.4482 21.694 27.2533 22.5475 26.6148C23.3006 26.0586 24.5959 26.0071 25.4996 26.0071C27.317 26.0071 29.1546 26.5427 29.1546 28.7469V37.3473C29.1546 39.2631 28.0902 40.0562 26.2828 40.0562C24.7766 40.0562 23.8528 39.4691 23.5114 37.9035L21.7743 46.7511C21.6438 47.3588 21.2521 47.9459 20.8404 48.3476C20.248 48.9038 19.4147 49.0686 18.6415 49.0686C17.8683 49.0686 17.065 48.9038 16.4625 48.3476C16.0207 47.9768 15.6292 47.3691 15.5288 46.7511L13.7715 37.9035V46.3494C13.7715 48.2858 12.7071 49.0583 10.9198 49.0583C9.13244 49.0583 8.14839 48.2034 8.14839 46.3494V28.7366C8.14839 26.5015 9.98594 25.9968 11.8034 25.9968C12.8678 25.9968 14.4443 26.0792 15.1472 27.0062C15.6693 27.6962 15.85 28.6027 16.0007 29.4267L18.6415 42.7032L21.2823 29.4267ZM29.1546 46.3494C29.1546 48.2858 28.0902 49.0583 26.2828 49.0583C24.4754 49.0583 23.5114 48.2034 23.5114 46.3494V39.4176C24.3147 40.3446 25.1381 40.6947 26.3631 40.6947C27.5881 40.6947 28.4316 40.324 29.1546 39.4176V46.3494Z" fill="var(--fill-0, white)"/>
<path id="Vector_9" d="M52.7684 32.4844C53.3106 34.1324 53.5416 35.8834 53.5416 37.6137C53.5416 41.1775 52.5274 44.628 49.736 46.9146C47.8683 48.3978 45.4886 49.0672 43.1289 49.0672C40.7692 49.0672 38.4396 48.3978 36.5519 46.9146C33.7002 44.6589 32.7462 41.0952 32.7462 37.5417C32.7462 33.2157 34.2224 29.0958 38.2389 27.1079C39.7651 26.3663 41.472 26.047 43.1589 26.047C45.4584 26.047 47.7176 26.6855 49.5552 28.1481C50.3082 28.7867 50.981 29.5798 50.981 30.6407C50.981 32.1857 49.6055 33.298 48.1595 33.298C47.2558 33.298 46.7336 32.8758 45.8299 32.1033C45.107 31.4647 44.0225 31.2279 43.0585 31.2279C41.6327 31.2279 40.3374 31.8664 39.5341 33.1127C38.6505 34.4105 38.4999 36.0378 38.4999 37.5519C38.4999 39.066 38.6806 40.7346 39.5341 42.0632C40.3374 43.3404 41.6629 43.8966 43.1289 43.8966C45.0668 43.8966 46.4726 42.9903 47.2156 41.1363C47.6574 40.0446 47.788 38.7777 47.788 37.5211C47.788 36.1924 47.6373 34.8946 47.065 33.6689C47.4566 33.8234 47.8181 33.9367 48.2298 33.9367C50.0372 33.9367 51.5734 32.505 51.5734 30.6407C51.5734 30.4244 51.5434 30.2184 51.5233 30.0021C52.0454 30.7952 52.4873 31.6192 52.7684 32.4947V32.4844Z" fill="var(--fill-0, white)"/>
<path id="Vector_10" d="M64.6022 40.1893C64.4415 40.6424 64.3411 41.0647 64.3411 41.5488C64.3411 43.5161 66.0279 44.9478 67.8855 44.9478C68.6085 44.9478 69.2814 44.7109 69.8838 44.2577L69.4219 45.6173C68.6186 47.9245 67.7149 49.0678 65.1544 49.0678C62.5939 49.0678 61.379 48.0275 60.5957 45.5864L55.5951 29.9409C55.4445 29.5392 55.3642 29.0654 55.3642 28.6122C55.3642 27.0466 56.9909 26.0372 58.3967 26.0372C59.6116 26.0372 60.4952 26.8097 60.8567 27.953L64.6925 39.9318L64.6122 40.1996L64.6022 40.1893ZM69.1407 27.9427C69.5022 26.8303 70.4059 26.0269 71.5707 26.0269C72.9664 26.0269 74.6534 27.0363 74.6534 28.6328C74.6534 29.0551 74.5529 29.5083 74.4223 29.9306L70.5364 42.1772C70.1247 43.5059 69.3716 44.2989 68.0261 44.2989C66.5199 44.2989 64.9737 43.2071 64.9737 41.5385C64.9737 41.2192 65.0539 40.9 65.1343 40.5807L69.1507 27.9427H69.1407Z" fill="var(--fill-0, white)"/>
<path id="Vector_11" d="M83.1474 46.4515C83.1474 48.2334 82.2437 49.0574 80.2958 49.0574C78.5084 49.0574 77.5244 48.3158 77.5244 46.4515V28.6328C77.5244 26.6655 78.6389 26.0269 80.3961 26.0269C82.1533 26.0269 83.1173 26.7994 83.1374 28.6328V46.4515H83.1474Z" fill="var(--fill-0, white)"/>
<path id="Vector_12" d="M100.598 34.8435C102.204 34.8435 103.108 35.6676 103.108 37.3361C103.108 39.0047 102.124 39.7566 100.598 39.7566H93.4484V42.8362C91.9221 43.1864 91.1992 44.3813 91.1992 45.9468C91.1992 46.9253 91.4803 47.8832 92.2836 48.5012C89.5624 48.5012 87.8253 48.5012 87.8253 45.1537V29.9306C87.8253 27.2526 89.0202 26.5831 91.4502 26.5831H101.421C103.028 26.5831 103.961 27.4586 103.961 29.1375C103.961 30.8164 103.028 31.6918 101.421 31.6918H94.7436C93.629 31.6918 93.4484 31.8772 93.4484 33.0514V34.8538H100.598V34.8435ZM94.3521 48.5012C92.7455 48.5012 91.8117 47.6463 91.8117 45.9778C91.8117 44.3092 92.7154 43.4028 94.3521 43.4028H101.963C103.59 43.4028 104.504 44.2577 104.504 45.9571C104.504 46.812 104.223 47.7082 103.469 48.1923C103.008 48.4601 102.485 48.4806 101.963 48.5115H94.3521V48.5012Z" fill="var(--fill-0, white)"/>
</g>
<g id="Group_4">
<path id="Vector_13" d="M21.6625 29.2303C21.8734 28.2518 22.0742 27.057 22.9277 26.4185C23.6808 25.8623 24.9761 25.8108 25.8798 25.8108C27.6972 25.8108 29.5348 26.3463 29.5348 28.5505V37.151C29.5348 39.0668 28.4704 39.8599 26.663 39.8599C25.1569 39.8599 24.2331 39.2727 23.8917 37.7071L22.1546 46.5548C22.024 47.1625 21.6324 47.7495 21.2207 48.1512C20.6282 48.7074 19.7949 48.8723 19.0217 48.8723C18.2485 48.8723 17.4452 48.7074 16.8427 48.1512C16.4009 47.7804 16.0094 47.1728 15.909 46.5548L14.1518 37.7071V46.1531C14.1518 48.0895 13.0873 48.862 11.3 48.862C9.51266 48.862 8.52861 48.0071 8.52861 46.1531V28.5402C8.52861 26.3051 10.3662 25.8005 12.1836 25.8005C13.248 25.8005 14.8245 25.8829 15.5274 26.8099C16.0495 27.4999 16.2303 28.4063 16.3809 29.2303L19.0217 42.5069L21.6625 29.2303ZM29.5348 46.1531C29.5348 48.0895 28.4704 48.862 26.663 48.862C24.8556 48.862 23.8917 48.0071 23.8917 46.1531V39.2211C24.695 40.1481 25.5183 40.4984 26.7433 40.4984C27.9683 40.4984 28.8118 40.1275 29.5348 39.2211V46.1531Z" stroke="var(--stroke-0, #236242)" stroke-width="1.29779" stroke-linecap="round" stroke-linejoin="round"/>
<path id="Vector_14" d="M53.1486 32.2881C53.6909 33.9361 53.9218 35.6871 53.9218 37.4174C53.9218 40.9812 52.9076 44.4317 50.1162 46.7183C48.2485 48.2015 45.8688 48.871 43.5091 48.871C41.1495 48.871 38.8199 48.2015 36.9321 46.7183C34.0804 44.4626 33.1265 40.8989 33.1265 37.3454C33.1265 33.0194 34.6026 28.8995 38.6191 26.9116C40.1453 26.17 41.8522 25.8507 43.5392 25.8507C45.8386 25.8507 48.0978 26.4893 49.9354 27.9519C50.6885 28.5905 51.3613 29.3836 51.3613 30.4445C51.3613 31.9895 49.9857 33.1019 48.5398 33.1019C47.6361 33.1019 47.1139 32.6795 46.2101 31.907C45.4872 31.2684 44.4027 31.0316 43.4388 31.0316C42.0129 31.0316 40.7176 31.6701 39.9143 32.9164C39.0307 34.2142 38.8802 35.8416 38.8802 37.3557C38.8802 38.8698 39.0608 40.5384 39.9143 41.8671C40.7176 43.1443 42.0431 43.7005 43.5091 43.7005C45.4471 43.7005 46.8528 42.794 47.5958 40.9401C48.0376 39.8483 48.1682 38.5814 48.1682 37.3248C48.1682 35.9961 48.0175 34.6983 47.4452 33.4726C47.8368 33.6271 48.1983 33.7404 48.61 33.7404C50.4174 33.7404 51.9537 32.3088 51.9537 30.4445C51.9537 30.2282 51.9236 30.0222 51.9035 29.8059C52.4257 30.599 52.8574 31.4229 53.1486 32.2984V32.2881Z" stroke="var(--stroke-0, #236242)" stroke-width="1.29779" stroke-linecap="round" stroke-linejoin="round"/>
<path id="Vector_15" d="M64.9784 39.993C64.8177 40.4461 64.7173 40.8685 64.7173 41.3526C64.7173 43.3199 66.4041 44.7516 68.2617 44.7516C68.9847 44.7516 69.6576 44.5147 70.26 44.0615L69.7981 45.421C68.9948 47.7282 68.0911 48.8716 65.5306 48.8716C62.9701 48.8716 61.7552 47.8313 60.972 45.3902L55.9714 29.7446C55.8207 29.3429 55.7404 28.8691 55.7404 28.4159C55.7404 26.8503 57.3671 25.8409 58.7729 25.8409C59.9879 25.8409 60.8714 26.6135 61.2329 27.7568L65.0687 39.7355L64.9884 40.0033L64.9784 39.993ZM69.5169 27.7465C69.8784 26.6341 70.7821 25.8306 71.9469 25.8306C73.3426 25.8306 75.0296 26.84 75.0296 28.4365C75.0296 28.8588 74.9291 29.312 74.7986 29.7343L70.9126 41.9809C70.5009 43.3096 69.7478 44.1027 68.4023 44.1027C66.8962 44.1027 65.3499 43.0109 65.3499 41.3423C65.3499 41.023 65.4301 40.7037 65.5105 40.3844L69.5269 27.7465H69.5169Z" stroke="var(--stroke-0, #236242)" stroke-width="1.29779" stroke-linecap="round" stroke-linejoin="round"/>
<path id="Vector_16" d="M83.5236 46.2554C83.5236 48.0372 82.6199 48.8613 80.6719 48.8613C78.8846 48.8613 77.9006 48.1196 77.9006 46.2554V28.4365C77.9006 26.4692 79.0151 25.8306 80.7723 25.8306C82.5295 25.8306 83.4935 26.6031 83.5136 28.4365V46.2554H83.5236Z" stroke="var(--stroke-0, #236242)" stroke-width="1.29779" stroke-linecap="round" stroke-linejoin="round"/>
<path id="Vector_17" d="M100.978 34.6574C102.584 34.6574 103.488 35.4814 103.488 37.15C103.488 38.8186 102.504 39.5705 100.978 39.5705H93.8286V42.6501C92.3023 43.0003 91.5794 44.1951 91.5794 45.7607C91.5794 46.7392 91.8605 47.6971 92.6638 48.3151C89.9426 48.3151 88.2056 48.3151 88.2056 44.9676V29.7443C88.2056 27.0664 89.4005 26.3969 91.8304 26.3969H101.801C103.408 26.3969 104.342 27.2723 104.342 28.9512C104.342 30.6301 103.408 31.5056 101.801 31.5056H95.1238C94.0093 31.5056 93.8286 31.691 93.8286 32.8652V34.6677H100.978V34.6574ZM94.7323 48.3047C93.1257 48.3047 92.1919 47.4499 92.1919 45.7813C92.1919 44.1127 93.0956 43.2063 94.7323 43.2063H102.343C103.97 43.2063 104.884 44.0612 104.884 45.7607C104.884 46.6156 104.603 47.5116 103.85 47.9957C103.388 48.2635 102.866 48.2842 102.343 48.3151H94.7323V48.3047Z" stroke="var(--stroke-0, #236242)" stroke-width="1.29779" stroke-linecap="round" stroke-linejoin="round"/>
</g>
<g id="Group_5">
<path id="Vector_18" d="M26.1105 62.9421C26.1105 62.7567 26.2209 62.5714 26.4619 62.5096C27.8074 62.1697 28.43 61.3147 28.6107 60.0787C28.6509 59.8212 28.8417 59.7079 29.0325 59.7079C29.2735 59.7079 29.5144 59.8728 29.5144 60.1303V60.1921C29.173 62.7156 26.964 63.3748 26.5624 63.3748C26.2612 63.3748 26.1105 63.1687 26.1105 62.9524V62.9421ZM33.2197 59.574L31.0206 59.5432C31.0206 60.1406 31.0005 61.2632 31.0005 61.7576C31.0005 62.2005 31.0005 62.3551 31.7838 62.3551C32.2758 62.3551 32.818 62.3345 32.818 61.4796C32.818 61.1912 33.0188 61.0573 33.2397 61.0573C33.4104 61.0573 33.7117 61.1602 33.7117 61.5413C33.7117 63.1378 32.5068 63.1585 31.8441 63.1585C31.0307 63.1585 30.1671 63.1276 30.1671 62.1079C30.1671 61.8195 30.1671 60.2642 30.1671 59.5432C29.5848 59.5432 28.5204 59.5431 26.6527 59.574C26.3917 59.574 26.2511 59.3783 26.2511 59.1826C26.2511 58.9869 26.3917 58.781 26.6628 58.781H29.5144V57.6583H28.1187C27.6367 58.5132 27.3958 58.6575 27.1548 58.6575C26.9138 58.6575 26.703 58.4925 26.703 58.2865C26.703 58.1835 26.7531 58.0806 26.8636 57.9776C27.4158 57.4317 27.7572 56.6901 27.9781 56C28.0183 55.8455 28.1489 55.7837 28.2894 55.7837C28.5204 55.7837 28.7915 55.9589 28.7915 56.1958C28.7915 56.3297 28.5605 56.8034 28.5304 56.8858H29.5144V55.8352C29.5144 55.5674 29.7253 55.4438 29.9362 55.4438C30.1471 55.4438 30.388 55.5777 30.388 55.8352V56.8858H32.4063C32.6774 56.8858 32.808 57.0815 32.808 57.2772C32.808 57.4729 32.6774 57.6686 32.4063 57.6686H30.378V58.8015H33.2297C33.5009 58.8015 33.6313 58.9973 33.6313 59.2032C33.6313 59.4092 33.5007 59.5946 33.2397 59.5946L33.2197 59.574Z" fill="var(--fill-0, #236242)"/>
<path id="Vector_19" d="M35.5963 57.1325C35.4056 57.1325 35.3152 57.0192 35.3152 56.8956C35.3152 56.772 35.4156 56.6484 35.5963 56.6484H37.6547V56.3806H35.4055C35.2047 56.3806 35.1043 56.2467 35.1043 56.1025C35.1043 55.948 35.2047 55.8039 35.4055 55.8039H37.6447V55.67V55.639C37.6447 55.4124 37.8254 55.3095 38.0162 55.3095C38.227 55.3095 38.4379 55.4331 38.4379 55.67C38.4379 55.773 38.4379 55.8965 38.4379 56.0098C38.4379 57.7299 38.2472 58.698 35.8574 58.9246H35.8072C35.5762 58.9246 35.4658 58.7702 35.4658 58.626C35.4658 58.4818 35.5661 58.3273 35.7569 58.317C36.6707 58.2243 37.1426 58.0801 37.3836 57.8329C36.2389 57.9668 35.3151 58.0081 35.2549 58.0081C35.0239 58.0081 34.9135 57.8638 34.9135 57.7196C34.9135 57.5651 35.0239 57.4209 35.2448 57.4209H35.4155C36.1285 57.4209 36.9218 57.3694 37.6247 57.3076C37.6247 57.2458 37.6246 57.1738 37.6447 57.1017L35.5963 57.1222V57.1325ZM38.9903 62.5296V63.0344C38.9903 63.3125 38.7995 63.4463 38.6087 63.4463C38.4179 63.4463 38.2171 63.3125 38.2171 63.0344V62.5296L35.3152 62.5502C35.0842 62.5502 34.9738 62.3855 34.9738 62.2207C34.9738 62.0559 35.0842 61.9013 35.3152 61.9013L38.2171 61.9219V61.6335C37.6949 61.6335 37.2129 61.6335 36.8213 61.6335C35.9678 61.6335 35.9478 61.2627 35.9478 60.7477C35.9478 60.1092 35.9779 59.8414 36.8012 59.8414C37.1828 59.8414 37.6849 59.8414 38.2171 59.8414V59.5735L35.8874 59.5942C35.6565 59.5942 35.536 59.4398 35.536 59.2956C35.536 59.1514 35.6565 58.9968 35.8874 58.9968H38.2171V58.6981C38.2171 58.4818 38.4079 58.3788 38.5986 58.3788C38.7894 58.3788 38.9702 58.4818 38.9702 58.6981V58.9968H41.4101C41.641 58.9968 41.7516 59.141 41.7516 59.2852C41.7516 59.4397 41.641 59.5839 41.4101 59.5839L38.9802 59.5632V59.831C39.5425 59.831 40.0947 59.831 40.5667 59.831C41.3398 59.831 41.3399 60.2122 41.3399 60.686C41.3399 61.2319 41.3398 61.5923 40.5265 61.6232C40.0847 61.6232 39.5425 61.6438 38.9903 61.6438V61.9219L41.9926 61.9013C42.2135 61.9013 42.3239 62.0662 42.3239 62.231C42.3239 62.3958 42.2135 62.5502 41.9926 62.5502L38.9903 62.5296ZM38.2171 60.2328C37.7652 60.2328 37.3435 60.2328 37.0623 60.2328C36.7711 60.2328 36.731 60.3151 36.7109 60.4696C36.7109 60.4902 36.7109 60.5109 36.7109 60.5315H38.2271V60.2328H38.2171ZM38.2171 60.892H36.7008C36.7008 60.892 36.7008 60.9537 36.7008 60.9846C36.731 61.1803 36.7812 61.201 37.0623 61.2113C37.3836 61.2113 37.7853 61.2113 38.207 61.2113V60.892H38.2171ZM39.8035 58.1831V58.4303C39.8035 58.6672 39.6027 58.7907 39.3918 58.7907C39.1809 58.7907 38.9702 58.6775 38.9702 58.4303V55.6494C38.9702 55.4125 39.1811 55.2992 39.3819 55.2992C39.5827 55.2992 39.8035 55.4124 39.8035 55.639V55.8039H42.0026C42.2235 55.8039 42.3239 55.9481 42.3239 56.082C42.3239 56.2262 42.2235 56.3703 42.0026 56.3703H39.7935V56.7411H41.7013C41.8921 56.7411 41.9926 56.8545 41.9926 56.9781C41.9926 57.112 41.9022 57.2356 41.7013 57.2356H39.7834V57.6064H42.0628C42.2737 57.6064 42.3641 57.7403 42.3641 57.8845C42.3641 58.039 42.2636 58.1831 42.0628 58.1831H39.8035ZM40.5566 60.4696C40.5566 60.3254 40.5366 60.2534 40.2253 60.2431C39.9241 60.2431 39.4722 60.2431 38.9903 60.2431V60.5418H40.5566V60.4696ZM40.5566 60.892H38.9903V61.2113C39.4421 61.2113 39.8739 61.2113 40.2354 61.2113C40.5165 61.2113 40.5466 61.1495 40.5566 60.9744V60.892Z" fill="var(--fill-0, #236242)"/>
<path id="Vector_20" d="M49.2552 59.4097C49.2552 58.4209 48.5021 57.566 47.2369 57.566H47.2168C47.3574 57.6278 47.4578 57.7617 47.4578 57.9368V57.978C47.4578 58.9153 46.5641 60.5426 45.6002 61.5005C45.3793 61.7168 45.1583 61.7993 44.9475 61.7993C44.3249 61.7993 43.7727 61.0885 43.7727 60.1101C43.7727 58.493 45.3191 56.8554 47.2771 56.8554C49.0343 56.8554 50.1287 58.0501 50.1287 59.4405C50.1287 59.7701 50.0684 60.1101 49.9379 60.45C49.1748 62.4276 46.8051 62.7056 46.6846 62.7056C46.3833 62.7056 46.1926 62.4893 46.1926 62.273C46.1926 62.0773 46.3432 61.892 46.6745 61.8302C48.261 61.5624 49.2552 60.5633 49.2552 59.3891V59.4097ZM46.7348 57.6176C45.6504 57.8442 44.5558 59.0285 44.5558 60.0894C44.5558 60.7589 44.9877 60.8414 45.0178 60.8414C45.068 60.8414 45.1282 60.8208 45.1884 60.7693C45.4495 60.5324 46.534 59.2037 46.5741 57.9987C46.5741 57.8236 46.6445 57.6897 46.7449 57.6176H46.7348Z" fill="var(--fill-0, #236242)"/>
<path id="Vector_21" d="M52.4268 62.9831C51.6737 63.4466 51.0511 62.5505 51.8443 62.1488C53.1296 61.4896 53.7221 60.47 53.9129 59.3679C53.953 59.1001 53.953 58.7807 53.9129 58.5541C53.8124 57.9979 54.7965 57.8023 54.917 58.4615C54.9371 58.5542 54.9371 58.6881 54.9371 58.822C55.4592 58.5645 56.1018 58.0906 56.4231 57.6374C56.5738 57.4314 56.5938 57.3285 56.2625 57.3388C55.168 57.38 53.7622 57.5756 53.3706 57.6374C52.8987 57.6992 52.6678 57.7714 52.1758 57.7508C51.6134 57.7302 51.5029 56.8032 52.2359 56.8238C52.6075 56.8238 53.0192 56.7826 53.3806 56.7517C53.7622 56.7208 55.2181 56.5869 56.6139 56.5045C57.5879 56.453 57.9594 57.2049 57.3469 57.9465C56.7946 58.616 56.0516 59.3164 55.1579 59.6563C55.0274 59.7078 54.8969 59.7078 54.7965 59.6563C54.4651 61.0365 53.7924 62.1179 52.4067 62.9728L52.4268 62.9831Z" fill="var(--fill-0, #236242)"/>
<path id="Vector_22" d="M60.6989 58.9863C60.3374 58.7185 59.8756 58.4713 59.4639 58.3786C58.9417 58.2653 59.1626 57.3692 59.8253 57.534C60.2872 57.6576 60.8294 57.8534 61.2612 58.1315C61.5423 58.3066 61.5423 58.6361 61.4118 58.8524C61.2813 59.0687 60.9901 59.1923 60.709 58.976L60.6989 58.9863ZM61.0704 62.3544C60.7793 62.5192 60.5783 62.6119 60.2369 62.6428C59.514 62.7046 59.4137 61.7673 59.9659 61.7055C60.1366 61.6849 60.4579 61.5613 60.6386 61.4789C62.2151 60.7476 63.6208 59.2953 64.5044 57.5546C64.7956 56.9881 65.6693 57.3692 65.2877 58.0799C64.2133 60.0884 62.8578 61.3862 61.0805 62.3544H61.0704Z" fill="var(--fill-0, #236242)"/>
<path id="Vector_23" d="M70.921 59.193C70.7 60.5114 69.4449 62.2212 67.758 62.9113C67.0049 63.21 66.6434 62.283 67.3965 62.0461C68.8023 61.5929 69.8466 60.0583 69.9872 59.121C70.0073 58.9974 69.9871 58.8326 69.9269 58.709C69.5955 58.7605 69.3044 58.812 69.0835 58.8429C68.722 58.8944 68.5512 58.915 68.3805 58.9047C68.0893 59.3476 67.7178 59.7905 67.3162 60.151C66.6936 60.7072 66.1414 59.9347 66.6836 59.5124C67.3162 59.018 67.9287 58.1115 68.1596 57.5244C68.3102 57.1536 68.3203 57.0507 68.3304 56.6799C68.3304 56.0413 69.2642 56.1236 69.2842 56.7313C69.2842 56.9579 69.204 57.2463 69.1136 57.5038C69.0534 57.6789 68.9729 57.854 68.8826 58.0394C68.9529 58.0394 69.0232 58.0394 69.0835 58.0188C69.5654 57.9467 70.5997 57.782 71.2624 57.6996C71.644 57.6481 72.0957 57.5657 72.407 57.6069C72.7083 57.6481 72.869 57.8335 72.8388 58.1116C72.8087 58.3588 72.5878 58.5441 72.2865 58.5338C71.915 58.5132 71.6138 58.4926 71.2724 58.5338C71.1619 58.5338 71.0414 58.5648 70.9109 58.5751C70.9711 58.7295 70.9812 58.9458 70.9411 59.2136L70.921 59.193Z" fill="var(--fill-0, #236242)"/>
<path id="Vector_24" d="M79.9213 59.7497H79.4694C77.8025 59.7497 76.5374 59.8321 75.8445 59.8527C75.3927 59.8733 75.1617 59.8836 74.981 59.8836C74.8806 59.8836 74.8002 59.8836 74.6998 59.8836C74.3685 59.8836 74.1978 59.6364 74.1978 59.3995C74.1978 59.1626 74.3685 58.9669 74.7199 58.9669H74.7702C75.0915 58.9875 75.473 58.9978 75.8244 58.9978C76.5374 58.9978 78.405 58.8948 79.9312 58.8433H79.9513C80.3028 58.8433 80.4835 59.0803 80.4835 59.2965C80.4835 59.5128 80.3028 59.76 79.9312 59.76L79.9213 59.7497Z" fill="var(--fill-0, #236242)"/>
<path id="Vector_25" d="M83.6448 62.5619C83.6448 62.9842 83.4239 63.2108 83.1729 63.2417C82.9319 63.2726 82.6807 63.0975 82.6908 62.6958C82.741 61.2435 82.7611 58.4316 82.7209 57.1338C82.7209 56.8454 82.6909 56.5674 82.6407 56.382C82.48 55.7434 83.4842 55.6198 83.5645 56.2377C83.6047 56.5055 83.6046 56.4129 83.6046 57.0309C83.6046 57.3914 83.6046 57.9064 83.6046 58.5038C83.6447 58.5038 83.705 58.5038 83.7552 58.5038C84.187 58.545 85.3418 58.8024 85.8036 59.3174C86.2153 59.7706 85.6129 60.4917 85.161 60.0488C84.8196 59.7192 84.0464 59.4411 83.6046 59.3793C83.6046 60.5328 83.6347 61.7585 83.6448 62.5619Z" fill="var(--fill-0, #236242)"/>
<path id="Vector_26" d="M36.261 72.4484L35.1064 72.4793C34.8755 72.4793 34.7649 72.3249 34.7649 72.1704C34.7649 72.0159 34.8855 71.8613 35.1165 71.8613H36.2711V71.5009C34.9959 71.5009 34.8754 71.47 34.8754 70.234C34.8754 69.1319 35.1164 69.1215 36.2811 69.1215V68.7508H34.9457C34.7148 68.7508 34.5943 68.586 34.5943 68.4315C34.5943 68.277 34.7148 68.1122 34.9457 68.1122H36.2711V67.7414C35.7791 67.7723 35.3574 67.7723 35.1867 67.7723C34.9457 67.7723 34.8252 67.5972 34.8252 67.4118C34.8252 67.2264 34.9457 67.0719 35.1867 67.0719H35.2168C35.3875 67.0719 35.5682 67.0925 35.7489 67.0925C36.4217 67.0925 37.1246 67.0101 37.8877 66.8453C37.9178 66.8453 37.948 66.8453 37.9782 66.8453C38.189 66.8453 38.3396 67.0204 38.3396 67.2161C38.3396 67.4839 38.1689 67.5765 37.0141 67.7001V68.1328H38.2894C38.5203 68.1328 38.6508 68.2975 38.6508 68.452C38.6508 68.4726 38.6508 68.4933 38.6508 68.5139C38.701 68.4727 38.7714 68.4623 38.8517 68.4623C39.0726 68.4623 39.3236 68.4623 39.5646 68.4623V67.0719C39.5646 66.8041 39.7655 66.6805 39.9663 66.6805C40.1671 66.6805 40.3881 66.8144 40.3881 67.0719V68.4623C40.5989 68.4623 40.8197 68.4623 41.0306 68.4623C41.6029 68.4623 41.9544 68.8538 41.9645 69.4512C41.9645 69.7087 41.9645 69.9765 41.9645 70.2443C41.9645 71.9541 41.8038 74.1788 40.1872 74.1788C39.9562 74.1788 39.6952 74.1376 39.4341 74.0449C39.2433 73.9728 39.1529 73.8183 39.1529 73.6432C39.1529 73.4269 39.2935 73.2209 39.5244 73.2209C39.5746 73.2209 39.6249 73.2209 39.6851 73.2518C39.8558 73.3033 40.0064 73.3445 40.147 73.3445C40.5185 73.3445 41.1511 73.1179 41.1511 70.1721C41.1511 69.9558 41.1511 69.7499 41.1511 69.5542C41.1511 69.307 41.0106 69.2246 40.8298 69.2143C40.6892 69.2143 40.5387 69.2143 40.368 69.2143C40.3077 71.0992 39.8156 73.1282 38.1789 74.2715C38.0785 74.3436 37.9881 74.3744 37.8877 74.3744C37.6568 74.3744 37.4761 74.1789 37.4761 73.9626C37.4761 73.839 37.5363 73.7153 37.6769 73.6123C37.8074 73.5196 37.9379 73.4167 38.0484 73.3137C37.0744 73.5918 35.1264 73.8801 34.8754 73.8801C34.6544 73.8801 34.5239 73.6947 34.5239 73.5093C34.5239 73.3342 34.6244 73.1694 34.8252 73.1591C35.2972 73.1179 35.7891 73.0767 36.2711 73.0046V72.469L36.261 72.4484ZM36.261 70.5223H35.5482C35.5482 70.5841 35.5482 70.6356 35.5482 70.6871C35.5783 70.9549 35.6485 70.9653 36.251 70.9653V70.5326L36.261 70.5223ZM36.2711 69.6365C35.6184 69.6365 35.5783 69.6572 35.5582 69.9559V70.0485H36.2711V69.6365ZM36.9841 72.4381V72.8707C37.3857 72.7986 37.7472 72.7162 38.0685 72.6338C38.0986 72.6338 38.1187 72.6338 38.1488 72.6338C38.2994 72.6338 38.3998 72.7368 38.43 72.8707C39.2734 71.8613 39.4943 70.543 39.5244 69.204C39.2834 69.204 39.0324 69.204 38.8115 69.204C38.5705 69.204 38.4501 69.0186 38.4501 68.8229C38.4501 68.792 38.4501 68.7404 38.4702 68.7095C38.42 68.7404 38.3496 68.7508 38.2693 68.7508H36.9841V69.1112C38.1288 69.1112 38.3998 69.1318 38.3998 70.2545C38.3998 71.4699 38.2292 71.5009 36.9841 71.5009V71.8407L38.0685 71.8098C38.2794 71.8098 38.3898 71.9643 38.3898 72.1085C38.3898 72.2527 38.2794 72.4073 38.0584 72.4073L36.9841 72.4279V72.4381ZM37.6869 69.925C37.6869 69.6366 37.5765 69.6365 36.974 69.6365V70.0485H37.6869V69.925ZM36.974 70.5223V70.9549C37.5263 70.9549 37.6769 70.9549 37.6869 70.6665C37.6869 70.615 37.6869 70.5738 37.6869 70.512H36.964L36.974 70.5223Z" fill="var(--fill-0, #236242)"/>
<path id="Vector_27" d="M47.3856 67.9884V68.6683C47.6065 68.6683 47.8475 68.6683 48.1387 68.6683C48.6407 68.6683 49.0123 69.0597 49.0223 69.4407C49.0424 69.7188 49.0424 70.1823 49.0424 70.6458C49.0424 71.1092 49.0424 71.5728 49.0223 71.8303C49.0022 72.2938 48.6507 72.6954 48.0884 72.716C47.5964 72.7366 47.3353 72.747 47.0943 72.747C46.8132 72.747 46.5521 72.7469 45.9898 72.716C45.3773 72.6954 45.046 72.335 45.0259 71.8406C45.0259 71.5419 45.0058 71.0886 45.0058 70.6458C45.0058 70.2029 45.0058 69.76 45.0259 69.5128C45.046 69.1111 45.2869 68.6786 45.9496 68.6683C46.1906 68.6683 46.3915 68.6476 46.5923 68.6476V67.9781H44.0118C43.7306 67.9781 43.6 67.7824 43.6 67.5867C43.6 67.391 43.7507 67.1644 44.0118 67.1644H50.0665C50.3276 67.1644 50.4581 67.3704 50.4581 67.5764C50.4581 67.7824 50.3276 67.9781 50.0665 67.9781H47.3755L47.3856 67.9884ZM44.4837 69.4819C44.4837 70.0484 44.4636 70.7488 44.4636 71.4182C44.4636 71.9023 44.4636 72.3762 44.4837 72.7367C44.5037 73.0972 44.6242 73.2929 45.0359 73.3032C45.548 73.3238 46.271 73.3341 47.004 73.3341C47.737 73.3341 48.4499 73.3341 48.9419 73.3032C49.2933 73.2826 49.5043 73.1075 49.5244 72.7573C49.5444 72.3144 49.5544 71.7891 49.5544 71.2432C49.5544 70.6355 49.5545 70.0175 49.5244 69.5025V69.4819C49.5244 69.2244 49.7351 69.0905 49.946 69.0905C50.1569 69.0905 50.3778 69.2244 50.3879 69.5025C50.408 69.8939 50.408 70.4913 50.408 71.1196C50.408 71.7479 50.408 72.4071 50.3879 72.9324C50.3578 73.7049 49.7955 74.0963 49.1528 74.1066C48.5504 74.1375 47.727 74.1477 46.9137 74.1477C46.1003 74.1477 45.3171 74.1478 44.7749 74.1066C44.062 74.0757 43.6603 73.6946 43.6402 72.9427C43.6402 72.3762 43.6201 71.7273 43.6201 71.0784C43.6201 70.5325 43.6202 69.9867 43.6402 69.4717C43.6402 69.1833 43.851 69.0493 44.0518 69.0493C44.2527 69.0493 44.4736 69.1936 44.4736 69.4614L44.4837 69.4819ZM46.5923 69.3275H46.1606C45.8895 69.3481 45.7891 69.5025 45.779 69.6982C45.779 69.8424 45.779 70.069 45.779 70.3368H46.6023V69.3378L46.5923 69.3275ZM46.5923 70.9651H45.769C45.769 71.2638 45.769 71.5316 45.769 71.6964C45.769 72.0363 45.8994 72.0568 46.5923 72.0568V70.9651ZM48.2592 70.3265C48.2592 70.069 48.2592 69.8424 48.2592 69.6879C48.2592 69.3377 48.0383 69.3172 47.3956 69.3172V70.3265H48.2692H48.2592ZM47.8675 72.0466C48.0985 72.0466 48.229 71.9642 48.2391 71.6861C48.2391 71.5213 48.2391 71.2535 48.2391 70.9651H47.3655V72.0568H47.8575L47.8675 72.0466Z" fill="var(--fill-0, #236242)"/>
<path id="Vector_28" d="M55.5881 71.6861C55.5881 71.8406 55.5882 71.9951 55.5681 72.1805C55.538 72.541 55.307 72.7264 55.0961 72.7264C54.9053 72.7264 54.7346 72.5823 54.7346 72.3042V72.2217C54.7647 72.0054 54.7748 71.7995 54.7748 71.6244C54.5941 71.7274 53.7808 72.1599 53.7808 72.7264C53.7808 72.8809 53.851 73.4062 54.7346 73.4062C55.1363 73.4062 55.578 73.3032 55.8291 73.2208C55.9094 73.1899 55.9898 73.1796 56.0501 73.1796C56.3413 73.1796 56.5019 73.3856 56.5019 73.6019C56.5019 73.7872 56.4317 74.2404 54.9456 74.2404C53.4595 74.2404 52.9975 73.4681 52.9975 72.8192C52.9975 71.7274 54.2326 71.0475 54.6845 70.8106C54.5841 70.4604 54.4033 70.2853 54.1724 70.2853C54.0318 70.2853 53.8811 70.3369 53.7205 70.4501C53.359 70.8724 53.138 70.9961 52.9473 70.9961C52.7364 70.9961 52.5757 70.8518 52.5757 70.6561C52.5757 70.5531 52.626 70.4192 52.7766 70.2853C53.2486 69.8527 53.4795 69.6365 53.8912 68.9258C53.7305 68.9567 53.6 68.9567 53.4694 68.9567C52.5858 68.9567 52.5858 68.452 52.5858 68.3902C52.5858 68.1842 52.7365 67.9988 52.9373 67.9988C53.0377 67.9988 53.1381 68.0297 53.2485 68.1121C53.3289 68.1636 53.4393 68.1842 53.5698 68.1842C53.6401 68.1842 53.8611 68.1841 54.2627 68.0914C54.343 67.8545 54.3732 67.6898 54.4234 67.3911C54.4636 67.1645 54.6142 67.0821 54.7849 67.0821C55.0158 67.0821 55.2568 67.2469 55.2568 67.4735C55.2568 67.5765 55.2266 67.7206 55.2065 67.803C55.4676 67.6691 55.4978 67.6589 55.5681 67.6589C55.779 67.6589 55.9396 67.834 55.9396 68.0503C55.9396 68.349 55.7087 68.524 54.805 68.7506C54.6744 69.0287 54.5038 69.3274 54.313 69.6467C54.7949 69.6467 55.1865 69.9249 55.4074 70.4811C56.5019 69.997 57.265 69.76 57.4157 69.76C57.7269 69.76 57.9077 69.997 57.9077 70.2236C57.9077 70.3678 57.8274 70.5119 57.6767 70.5737C57.4056 70.687 57.1245 70.7283 56.6626 70.8725C56.3011 70.9858 55.9195 71.13 55.5881 71.2742C55.6082 71.4081 55.6082 71.5522 55.6082 71.7067L55.5881 71.6861Z" fill="var(--fill-0, #236242)"/>
<path id="Vector_29" d="M62.4675 74.1491C62.1763 74.1491 61.9955 73.9329 61.9955 73.7166C61.9955 73.5415 62.1059 73.3767 62.3569 73.3046C63.1904 73.078 63.823 72.5527 64.2147 71.8935C63.5419 71.5948 62.8289 71.3887 62.1461 71.296C61.3127 72.3981 60.901 72.5938 60.3889 72.5938C59.7463 72.5938 59.3146 72.151 59.3146 71.636C59.3146 71.2034 59.6358 70.6987 60.4993 70.5751C60.7604 70.5339 61.0316 70.5235 61.3127 70.5235C61.4834 70.5235 61.6642 70.5236 61.8449 70.5442C62.4575 69.679 63.0398 68.5357 63.0398 68.3709C63.0398 68.34 63.0398 68.3297 63.0096 68.3297C62.9896 68.3297 62.9695 68.3297 62.9394 68.3503C62.7587 68.4224 62.5176 68.5048 62.2565 68.5048C61.8951 68.5048 61.5336 68.3606 61.5336 67.9898C61.5336 67.7941 61.644 67.619 61.8649 67.619C61.9051 67.619 61.9353 67.6191 61.9755 67.6397C62.0458 67.6603 62.1964 67.6808 62.337 67.6808C62.4775 67.6808 62.6281 67.6603 62.7486 67.6397C62.9895 67.5882 63.2908 67.5057 63.5318 67.5057C63.7929 67.5057 64.1242 67.6293 64.1242 68.0001C64.1242 68.1546 64.064 68.3401 63.9435 68.5564C63.6523 69.0611 63.1502 69.8953 62.618 70.6678C63.2707 70.7708 63.9234 70.9665 64.546 71.1931C64.6263 70.9253 64.6866 70.6575 64.7067 70.3691C64.7267 70.1323 64.9075 70.0086 65.0983 70.0086C65.3192 70.0086 65.54 70.1734 65.54 70.4618C65.54 70.5236 65.4698 70.9665 65.2991 71.5021C65.8915 71.7905 66.4136 72.0994 66.7952 72.4393C66.9257 72.5423 66.976 72.6865 66.976 72.8307C66.976 73.0882 66.7851 73.3355 66.5442 73.3355C66.4437 73.3355 66.3233 73.3046 66.2229 73.1913C65.8614 72.8411 65.4296 72.5321 64.9476 72.2643C64.1945 73.6033 62.8189 74.1594 62.4675 74.1594V74.1491ZM60.0877 71.5845C60.0877 71.6772 60.1881 71.811 60.399 71.811C60.5496 71.811 60.7705 71.8111 61.2926 71.2446C60.1279 71.2446 60.0877 71.533 60.0877 71.5948V71.5845Z" fill="var(--fill-0, #236242)"/>
<path id="Vector_30" d="M72.4151 71.698C72.4151 70.7607 71.3106 70.7608 71.2303 70.7608C70.2563 70.7608 69.5032 71.492 69.1517 71.9452C69.0614 72.0688 68.9308 72.1203 68.8003 72.1203C68.5694 72.1203 68.3384 71.9349 68.3384 71.6877C68.3384 71.5744 68.3886 71.4508 68.5091 71.3169C69.7642 70.05 71.0294 68.4639 71.0294 68.3609C71.0294 68.3403 71.0295 68.3299 70.9994 68.3299C70.9793 68.3299 70.9592 68.33 70.9391 68.3506C70.2864 68.7728 69.463 68.9995 69.202 68.9995C68.9108 68.9995 68.7502 68.7729 68.7502 68.5669C68.7502 68.3815 68.8606 68.1961 69.1116 68.1755C69.9752 68.0931 71.0696 67.6914 71.3106 67.5678C71.411 67.5163 71.5316 67.4957 71.6219 67.4957C71.9433 67.4957 72.1942 67.7326 72.1942 68.021C72.1942 68.1652 72.134 68.3196 71.9935 68.4535C71.401 69.0303 70.7282 69.7925 70.186 70.4208C70.5575 70.1736 70.9993 70.0604 71.4311 70.0604C72.3549 70.0604 73.2687 70.6372 73.2687 71.6363C73.2687 72.8311 72.0637 73.9744 70.5575 73.9744C69.5132 73.9744 68.961 73.3563 68.961 72.831C68.961 72.3469 69.3927 71.9968 69.935 71.9968C70.688 71.9968 71.2102 72.4293 71.2905 73.1091C71.662 73.0061 72.3851 72.3778 72.3851 71.6774L72.4151 71.698ZM70.0454 72.6457C69.7542 72.6457 69.7442 72.8413 69.7442 72.8722C69.7442 73.2224 70.3366 73.2636 70.5575 73.2636H70.6178C70.5877 72.8825 70.3969 72.6353 70.0555 72.6353L70.0454 72.6457Z" fill="var(--fill-0, #236242)"/>
<path id="Vector_31" d="M76.3343 74.1686C76.003 74.1686 75.7319 73.8803 75.7319 73.5816C75.7319 73.1902 76.0933 72.9635 76.3343 72.9635C76.6757 72.9635 76.9368 73.1799 76.9368 73.5816C76.9368 74.0142 76.5753 74.1686 76.3343 74.1686ZM75.9628 71.8924V71.7069C75.9628 70.8417 75.8724 68.7612 75.8222 67.3604V67.3295C75.8222 66.9999 76.0732 66.8351 76.3243 66.8351C76.5753 66.8351 76.8464 67.0102 76.8464 67.3501C76.8464 68.4007 76.7058 70.8623 76.7058 71.7275C76.7058 71.9438 76.7058 72.3146 76.3243 72.3146C76.1435 72.3146 75.9628 72.1705 75.9628 71.8924Z" fill="var(--fill-0, #236242)"/>
</g>
<path id="Vector_32" d="M56.9345 18.8083C59.8182 18.8083 62.1558 16.4104 62.1558 13.4524C62.1558 10.4944 59.8182 8.09638 56.9345 8.09638C54.0508 8.09638 51.713 10.4944 51.713 13.4524C51.713 16.4104 54.0508 18.8083 56.9345 18.8083Z" stroke="var(--stroke-0, #236242)" stroke-width="0.973339" stroke-miterlimit="10"/>
<path id="Vector_33" d="M59.0405 11.2369H56.0181V14.2547H59.0405V11.2369Z" stroke="var(--stroke-0, #236242)" stroke-width="0.973339" stroke-linecap="round" stroke-linejoin="round"/>
<path id="Vector_34" d="M54.6447 13.0501V15.656H57.3156" stroke="var(--stroke-0, #236242)" stroke-width="0.973339" stroke-linecap="round" stroke-linejoin="round"/>
</g>
</svg>
