<svg preserveAspectRatio="none" width="100%" height="100%" overflow="visible" style="display: block;" viewBox="0 0 350.311 36.0458" fill="none" xmlns="http://www.w3.org/2000/svg">
<g id="Group">
<path id="Vector" d="M3.90891 14.4371C2.76922 14.4371 0.219911 14.3269 0.219911 10.9306C0.219911 7.99523 1.96944 7.38413 3.90891 7.38413H17.8551V4.79935C17.8551 2.85576 18.6949 1.37305 21.4641 1.37305C23.6335 1.37305 25.1532 2.21458 25.1532 4.79935V7.38413H30.0517C31.2314 7.38413 33.7708 7.49433 33.7708 10.8906C33.7708 13.826 31.9812 14.4371 30.0517 14.4371H25.1532V29.6352C25.1532 35.5761 20.8642 35.5761 17.5551 35.5761C13.8362 35.5761 11.0969 35.5761 11.0969 31.6488C11.0969 29.7854 11.8567 28.2627 14.1761 28.2627C14.556 28.2627 16.1856 28.3428 16.4955 28.3428C17.5552 28.3428 17.8651 28.2325 17.8651 27.391V20.1176C14.556 24.2653 11.2169 26.8601 9.00755 28.453C7.29802 29.7053 5.31855 31.1579 3.49905 31.1579C1.13969 31.1579 0 28.7936 0 27.1606C0 25.5276 1.28962 24.7962 2.65925 24.0348C5.12857 22.7024 7.48795 21.0694 9.61737 19.236C11.8967 17.2523 12.7365 16.3807 14.5161 14.4371H3.90891Z" fill="var(--fill-0, #F32962)"/>
<path id="Vector_2" d="M44.7981 22.5516C43.7384 22.5516 40.7693 22.5516 40.7693 18.7846C40.7693 15.4385 42.9387 14.9375 44.7582 14.9375H70.831C71.8208 14.9375 74.82 14.9375 74.82 18.7045C74.82 22.251 72.3906 22.5516 70.791 22.5516H44.7981Z" fill="var(--fill-0, #F32962)"/>
<path id="Vector_3" d="M85.5715 12.3428C84.8117 12.3428 81.8826 12.3427 81.8826 8.686C81.8826 6.21144 83.2521 5.02929 85.5715 5.02929H105.866C106.396 5.02929 107.196 5.06935 108.295 5.2597C108.255 5.06935 108.185 4.76879 108.185 4.37807C108.185 2.09386 110.045 0 112.554 0C114.913 0 116.773 1.94357 116.773 4.30793C116.773 6.51199 115.063 8.49563 112.594 8.60583C112.934 9.51751 112.934 10.6196 112.934 10.9301C112.934 13.7854 111.264 21.8603 105.446 27.651C99.7876 33.3214 91.6898 35.6457 89.3305 35.6457C86.4413 35.6457 85.6815 32.7103 85.6815 31.4981C85.6815 29.2139 87.471 28.7129 89.3305 28.182C97.4283 25.9378 102.627 22.0106 104.566 14.2864C104.646 13.9457 104.836 13.1843 104.836 12.8737C104.836 12.3427 104.456 12.3428 103.997 12.3428H85.5615H85.5715ZM112.474 2.67491C111.564 2.67491 110.845 3.39625 110.845 4.30793C110.845 5.21961 111.564 5.981 112.474 5.981C113.384 5.981 114.144 5.25969 114.144 4.30793C114.144 3.35618 113.384 2.67491 112.474 2.67491Z" fill="var(--fill-0, #F32962)"/>
<path id="Vector_4" d="M134.074 6.86169C136.584 8.3845 137.723 9.2561 137.723 11.0494C137.723 12.8427 136.094 15.4275 133.774 15.4275C133.205 15.4275 132.675 15.3173 131.495 14.5559C128.076 12.3418 127.386 11.8509 124.507 10.3281C123.097 9.5667 121.808 8.84535 121.808 7.05205C121.808 4.80791 123.667 3.05469 125.837 3.05469C127.396 3.05469 132.565 5.95001 134.084 6.86169H134.074ZM142.242 29.4033C135.894 33.7012 127.686 34.8133 126.586 34.8133C123.737 34.8133 122.937 32.1884 122.937 30.5154C122.937 27.5799 124.947 27.1691 126.926 26.8986C136.844 25.5261 142.772 21.7191 146.801 11.6706C146.991 11.2098 147.641 9.27618 147.791 8.89547C148.17 7.98379 148.66 6.80159 150.64 6.80159C152.839 6.80159 154.929 7.86354 154.929 10.3081C154.929 11.6004 151.889 22.9113 142.232 29.4233L142.242 29.4033Z" fill="var(--fill-0, #F32962)"/>
<path id="Vector_5" d="M173.625 5.29911C173.475 3.54587 173.815 1.3418 177.504 1.3418C179.483 1.3418 181.073 1.76257 181.263 4.84826L181.373 6.79185L189.431 6.2609C192.74 6.03048 193.27 8.58519 193.27 9.76737C193.27 11.7811 192.13 13.0835 189.891 13.2338L181.833 13.7647L182.103 18.2931L191.53 17.722C194.799 17.5317 195.369 20.0062 195.369 21.2686C195.369 23.3624 194.149 24.5847 191.95 24.735L182.563 25.306L182.983 32.0084C183.063 33.3408 183.252 36.0458 179.144 36.0458C175.574 36.0458 175.415 33.8718 175.345 32.4692L174.925 25.7668L165.197 26.378C161.858 26.5684 161.318 24.0537 161.318 22.8014C161.318 20.7075 162.568 19.5253 164.777 19.375L174.505 18.7639L174.205 14.2656L166.107 14.7967C162.798 15.0271 162.268 12.4724 162.268 11.2902C162.268 9.19633 163.448 7.97406 165.647 7.82378L173.775 7.29277L173.625 5.30913V5.29911Z" fill="var(--fill-0, #00AEEB)"/>
<path id="Vector_6" d="M217.559 32.1098C217.789 34.5443 216.499 35.9569 214.03 35.9569C211.561 35.9569 210.801 34.354 210.651 32.761L209.401 20.4583L205.642 20.839C202.333 21.1797 201.763 18.7853 201.763 17.4127C201.763 14.6677 203.743 14.2469 204.953 14.1367L208.751 13.8361L208.452 10.9809C208.182 8.42619 209.551 7.17383 212.101 7.17383C214.8 7.17383 215.25 8.96715 215.37 10.2595L215.67 13.225L224.937 12.4236C226.987 12.2332 229.916 12.4235 229.916 16.0803C229.916 19.737 227.446 23.544 225.847 25.3674C224.367 27.0405 222.888 28.1125 221.478 28.1125C219.728 28.1125 217.939 26.5896 217.939 24.7663C217.939 23.514 218.509 23.0131 219.918 21.7207C220.978 20.7689 221.858 19.5467 221.858 19.2862C221.858 19.1359 221.668 19.1359 221.288 19.176L216.309 19.7069L217.559 32.1198V32.1098Z" fill="var(--fill-0, #00AEEB)"/>
<path id="Vector_7" d="M248.874 6.86169C251.383 8.3845 252.523 9.2561 252.523 11.0494C252.523 12.8427 250.894 15.4275 248.574 15.4275C248.004 15.4275 247.474 15.3173 246.295 14.5559C242.876 12.3418 242.186 11.8509 239.307 10.3281C237.897 9.5667 236.607 8.84535 236.607 7.05205C236.607 4.80791 238.467 3.05469 240.636 3.05469C242.196 3.05469 247.364 5.95001 248.884 6.86169H248.874ZM257.042 29.4033C250.694 33.7012 242.486 34.8133 241.386 34.8133C238.537 34.8133 237.737 32.1884 237.737 30.5154C237.737 27.5799 239.747 27.1691 241.726 26.8986C251.643 25.5261 257.572 21.7191 261.601 11.6706C261.791 11.2098 262.44 9.27618 262.59 8.89547C262.97 7.98379 263.46 6.80159 265.44 6.80159C267.649 6.80159 269.728 7.86354 269.728 10.3081C269.728 11.6004 266.689 22.9113 257.032 29.4233L257.042 29.4033Z" fill="var(--fill-0, #00AEEB)"/>
<path id="Vector_8" d="M284.329 31.077C282.96 33.4013 282.01 34.6937 280.07 34.6937C278.131 34.6937 275.891 32.8302 275.891 30.8466C275.891 29.7445 276.271 29.0232 276.951 27.9913C281.63 20.7981 282.61 14.3963 283.639 6.02082C283.749 5.06907 284.059 2.78482 286.908 2.78482C287.968 2.78482 289.338 3.16555 290.058 3.81675C290.927 4.57815 290.927 5.29948 290.927 6.94251C290.927 8.31504 289.558 22.0203 284.319 31.087L284.329 31.077ZM302.494 6.63194C303.524 14.7469 304.544 20.9083 309.102 27.9913C309.862 29.1334 310.162 29.8147 310.162 30.8065C310.162 32.9805 307.843 34.6937 305.983 34.6937C304.354 34.6937 303.094 33.9323 300.855 29.434C296.256 20.2571 295.076 7.91431 295.076 6.20115C295.076 5.54995 295.076 4.21746 296.556 3.41599C297.886 2.65458 299.485 2.7648 299.785 2.80487C302.024 3.1455 302.254 4.9388 302.484 6.61188L302.494 6.63194ZM307.243 8.91618C304.884 8.91618 302.954 6.97255 302.954 4.61821C302.954 2.26387 304.894 0.320312 307.243 0.320312C309.592 0.320312 311.532 2.2238 311.532 4.61821C311.532 7.01263 309.632 8.91618 307.243 8.91618ZM307.243 2.93512C306.333 2.93512 305.613 3.69651 305.613 4.60819C305.613 5.51987 306.333 6.2412 307.243 6.2412C308.153 6.2412 308.912 5.51987 308.912 4.60819C308.912 3.69651 308.193 2.93512 307.243 2.93512Z" fill="var(--fill-0, #00AEEB)"/>
<path id="Vector_9" d="M322.108 10.0978C319.409 10.0978 318.459 8.42467 318.459 6.55121C318.459 4.30707 319.709 2.97461 322.108 2.97461H340.044C341.373 2.97461 345.062 2.97464 345.062 7.01208C345.062 9.4065 343.083 14.556 339.514 19.8057C341.903 21.5589 343.922 23.0416 347.951 26.6583C349.391 27.9507 350.311 28.8624 350.311 30.5455C350.311 32.8697 348.301 34.7332 346.132 34.7332C344.462 34.7332 343.622 33.7814 342.713 32.7195C340.353 30.0545 337.774 27.6201 335.115 25.2156C329.186 31.3469 323.178 35.0738 320.829 35.0738C318.779 35.0738 317.22 32.8998 317.22 30.9963C317.22 29.2431 318.059 28.7822 320.449 27.4498C322.808 26.1574 329.756 22.2702 334.585 13.8547C335.385 12.4822 336.185 10.6588 336.185 10.3081C336.185 10.0777 335.995 10.0777 335.575 10.0777H322.118L322.108 10.0978Z" fill="var(--fill-0, #00AEEB)"/>
</g>
</svg>
