<svg preserveAspectRatio="none" width="100%" height="100%" overflow="visible" style="display: block;" viewBox="0 0 10.561 18.3799" fill="none" xmlns="http://www.w3.org/2000/svg">
<path id="Vector" d="M8.16646 18.3024C7.98651 18.3725 7.7965 18.3926 7.59655 18.3726L1.12835 17.7013C0.798437 17.6712 0.498543 17.5009 0.278603 17.2405C0.0686606 16.98 -0.0313316 16.6494 0.00865749 16.3188L1.58818 1.13074C1.61817 0.80013 1.78821 0.499601 2.04814 0.279194C2.30807 0.0688062 2.6379 -0.031398 2.96781 0.00867585L9.43602 0.679896C9.76593 0.709952 10.0659 0.880288 10.2759 1.14077C10.4858 1.40125 10.5858 1.73184 10.5558 2.06245L8.97618 17.2505C8.94619 17.5811 8.77627 17.8816 8.51634 18.092C8.40637 18.1822 8.28643 18.2523 8.16646 18.2924V18.3024ZM2.7479 0.990466C2.7479 0.990466 2.69796 1.02056 2.66797 1.03058C2.60798 1.08067 2.57789 1.14079 2.5679 1.22093L0.98837 16.4089C0.98837 16.479 0.998426 16.5592 1.04841 16.6093C1.0984 16.6694 1.15832 16.6994 1.2383 16.7095L7.70651 17.3807C7.77649 17.3807 7.84654 17.3707 7.90653 17.3206C7.96651 17.2705 7.99648 17.2104 8.00647 17.1303L9.586 1.94223C9.586 1.8721 9.57606 1.79194 9.52608 1.74185C9.47609 1.68174 9.41605 1.65171 9.34607 1.64169L2.87787 0.970471C2.87787 0.970471 2.7879 0.97043 2.75791 0.990466H2.7479ZM6.46685 7.73294C6.13694 7.85316 5.77712 7.90326 5.41721 7.86318C4.80738 7.80307 4.24749 7.50249 3.86759 7.02161C3.4777 6.54072 3.29774 5.93961 3.36773 5.32848C3.49769 4.05614 4.63742 3.13444 5.90707 3.26468C7.17672 3.39492 8.09641 4.537 7.96645 5.80935C7.90646 6.42048 7.60658 6.97154 7.12671 7.36226C6.92676 7.52256 6.7068 7.65279 6.47686 7.73294H6.46685ZM5.19718 4.30658C4.73731 4.47689 4.38742 4.89771 4.33743 5.41867C4.29744 5.76932 4.40745 6.11995 4.62739 6.40047C4.84733 6.68098 5.16726 6.85128 5.51716 6.88133C5.86707 6.92141 6.21695 6.81123 6.49688 6.59082C6.7768 6.37041 6.94673 6.04981 6.97673 5.69916C7.0567 4.96781 6.51691 4.30663 5.78711 4.2365C5.57717 4.21647 5.37712 4.23646 5.18718 4.31661L5.19718 4.30658Z" fill="var(--fill-0, #4C4B4C)"/>
</svg>
