<svg preserveAspectRatio="none" width="100%" height="100%" overflow="visible" style="display: block;" viewBox="0 0 381.647 35.9067" fill="none" xmlns="http://www.w3.org/2000/svg">
<g id="Group">
<path id="Vector" d="M3.49904 19.4559C1.67954 19.4559 0 18.6143 0 16.0296C0 14.2362 0.719803 12.5631 3.49904 12.5631H30.4818C32.7212 12.5631 33.9808 13.7454 33.9808 15.9895C33.9808 17.893 33.1011 19.4559 30.4818 19.4559H21.5942C21.4042 22.0106 20.9144 28.8632 14.6061 32.8606C11.7569 34.694 8.02785 35.8661 6.16836 35.8661C3.54907 35.8661 2.66931 33.2012 2.66931 31.9088C2.66931 30.386 3.659 29.3541 5.24856 28.9033C10.1172 27.5708 13.5664 26.579 14.1062 19.4559H3.49904ZM24.6233 3.08571C25.8729 3.08571 28.0424 3.50649 28.0424 6.47195C28.0424 9.24707 26.2928 9.93831 24.6233 9.93831H6.49822C5.73843 9.93831 3.03921 9.89823 3.03921 6.55206C3.03921 4.30792 4.21885 3.08571 6.49822 3.08571H24.6233ZM27.3925 2.17399C27.2826 1.90349 27.2826 1.68312 27.2826 1.52283C27.2826 0.340648 28.6122 0.190353 28.9121 0.190353C29.6319 0.190353 30.0519 0.530981 30.5817 1.94359C30.6617 2.21408 31.3814 4.26788 31.3814 5.32983C31.3814 6.77249 29.9019 6.7725 29.7819 6.7725C28.8721 6.7725 28.6023 6.24148 28.4523 5.67043C28.3723 5.39993 28.0324 4.14764 27.9624 3.87714C27.8825 3.60664 27.4725 2.43446 27.3925 2.16396V2.17399ZM31.7314 1.98364C31.6215 1.71314 31.6214 1.49277 31.6214 1.33247C31.6214 0.150294 32.951 0 33.2509 0C33.9707 0 34.3906 0.340606 34.9205 1.79328C35.0005 2.02371 35.7203 4.07752 35.7203 5.13948C35.7203 6.58214 34.2407 6.58214 34.0908 6.58214C33.221 6.58214 32.951 6.05117 32.8011 5.52019C32.7211 5.21963 32.3812 3.9573 32.3112 3.69682C32.2313 3.42632 31.8213 2.25414 31.7413 1.98364H31.7314Z" fill="var(--fill-0, #72BF99)"/>
<path id="Vector_2" d="M48.3046 20.3375C47.3149 19.8766 46.515 19.5761 44.0057 18.7345C42.6761 18.2737 40.8866 17.6725 40.8866 15.4985C40.8866 14.3564 41.5665 11.6515 44.2257 11.6515C45.9353 11.6515 50.0041 13.2544 51.9036 14.0459C54.2929 15.0377 55.7825 15.6489 55.7825 17.8128C55.7825 19.4158 54.7228 21.8102 52.3235 21.8102C51.5637 21.8102 51.4537 21.73 48.2946 20.3274L48.3046 20.3375ZM73.8376 11.5713C73.8376 13.555 70.5285 22.3111 64.4901 27.7912C60.5412 31.4079 56.2424 33.2713 50.7739 34.5737C49.8941 34.7641 47.8447 35.2249 46.5951 35.2249C43.8558 35.2249 43.056 32.6001 43.056 31.0773C43.056 28.222 45.4554 27.7612 46.5951 27.5708C53.3632 26.3887 60.6912 24.8658 65.2899 13.8656C67.0395 9.63777 67.1494 9.40733 67.8692 8.83628C68.0991 8.64592 68.549 8.3754 69.8786 8.3754C70.7184 8.3754 73.8276 9.09674 73.8276 11.5713H73.8376ZM51.6037 10.5495C50.614 10.1287 49.8142 9.78802 47.3149 8.94646C45.9452 8.48561 44.1957 7.8845 44.1957 5.75057C44.1957 4.56839 44.8755 1.8634 47.5348 1.8634C49.2443 1.8634 53.3132 3.49642 55.1727 4.25783C57.602 5.28973 59.0516 5.86079 59.0516 8.02478C59.0516 9.62774 58.0219 12.0221 55.6325 12.0221C54.8727 12.0221 54.7529 11.942 51.6037 10.5394V10.5495ZM66.6896 2.47451C66.6096 2.20401 66.5796 1.98361 66.5796 1.79326C66.5796 0.651155 67.9092 0.5009 68.2491 0.5009C68.9689 0.5009 69.3888 0.841528 69.8786 2.25413C69.9886 2.52463 70.7185 4.53835 70.7185 5.64038C70.7185 7.08304 69.2389 7.08304 69.0889 7.08304C68.2192 7.08304 67.9892 6.55203 67.7993 5.98097C67.7193 5.71048 67.3794 4.41812 67.3094 4.18769C67.1994 3.88714 66.7796 2.70493 66.6996 2.47451H66.6896ZM71.0284 2.28422C70.9484 2.01372 70.9184 1.79326 70.9184 1.60291C70.9184 0.460802 72.2481 0.310547 72.588 0.310547C73.3078 0.310547 73.7277 0.651175 74.2175 2.06378C74.3275 2.33428 75.0573 4.348 75.0573 5.45003C75.0573 6.89269 73.5777 6.89269 73.4277 6.89269C72.558 6.89269 72.328 6.36174 72.138 5.79068C72.0581 5.52018 71.7182 4.22776 71.6482 3.99734C71.5382 3.69678 71.1183 2.51464 71.0384 2.28422H71.0284Z" fill="var(--fill-0, #72BF99)"/>
<path id="Vector_3" d="M107.061 5.66955C110.48 5.66955 111.55 7.4629 111.55 9.78718C111.55 10.5887 110.6 22.2802 101.363 29.5536C95.9243 33.8215 87.5666 35.7651 85.6271 35.7651C83.3878 35.7651 82.0982 33.9718 82.0982 31.8378C82.0982 29.3633 83.5377 29.0627 85.8971 28.5217C88.0665 28.0608 93.1151 26.9187 96.4942 24.4141C94.5947 22.9314 94.2948 22.7411 91.3656 20.9878C90.4858 20.4568 89.4262 19.8457 89.4262 18.3229C89.4262 17.3311 89.956 16.6097 90.186 16.2691C86.307 19.9659 84.7475 20.4568 83.6078 20.4568C81.5584 20.4568 79.9987 18.403 79.9987 16.6899C79.9987 15.2071 80.4186 14.8966 83.7577 12.4621C86.267 10.6688 88.4664 7.74339 90.3658 4.31708C91.5855 2.18314 92.1154 1.27148 94.2448 1.27148C95.8743 1.27148 98.3438 2.11301 98.3438 4.31708C98.3438 4.88813 98.1538 5.34897 98.0438 5.6896H107.051L107.061 5.66955ZM93.695 12.5222C92.9352 13.4339 92.5153 13.9649 91.1857 15.3374C91.8355 14.8465 92.5153 14.6561 93.1951 14.6561C95.2046 14.6561 99.4235 17.281 101.323 18.8038C102.733 16.2491 103.492 13.3538 103.492 12.8629C103.492 12.5222 103.382 12.5222 102.693 12.5222H93.685H93.695Z" fill="var(--fill-0, #72BF99)"/>
<path id="Vector_4" d="M131.162 13.5559C131.162 20.639 131.012 25.9688 127.933 31.1884C126.683 33.2823 125.043 35.2258 123.104 35.2258C121.354 35.2258 118.845 33.7732 118.845 31.2986C118.845 30.4971 118.995 29.856 120.095 28.5135C123.514 24.3659 123.744 22.272 123.744 13.2854V6.05205C123.744 4.03834 124.773 2.70591 127.433 2.70591C129.672 2.70591 131.162 3.57749 131.162 6.05205V13.5559ZM134.091 5.63129C134.091 3.64763 135.041 2.28516 137.74 2.28516C139.909 2.28516 141.459 3.0866 141.459 5.63129V25.4378C141.459 25.6683 141.459 25.8986 141.759 25.8986C142.409 25.8986 145.518 23.9551 147.267 18.475C147.757 16.9522 148.257 15.3893 150.456 15.3893C151.256 15.3893 154.555 15.8501 154.555 18.6653C154.555 20.5288 153.146 24.1454 151.326 26.8104C147.257 32.8214 140.949 35.0355 137.91 35.0355C134.071 35.0355 134.071 31.7995 134.071 30.9179V5.63129H134.091Z" fill="var(--fill-0, #72BF99)"/>
<path id="Vector_5" d="M168.865 31.0382C167.495 33.3625 166.546 34.6549 164.606 34.6549C162.667 34.6549 160.427 32.7914 160.427 30.8078C160.427 29.7057 160.807 28.9744 161.487 27.9525C166.166 20.7593 167.145 14.3574 168.175 5.98196C168.285 5.03021 168.595 2.74602 171.444 2.74602C172.504 2.74602 173.874 3.12675 174.593 3.77795C175.463 4.53935 175.463 5.26068 175.463 6.90371C175.463 8.27624 174.093 21.9815 168.855 31.0482L168.865 31.0382ZM187.03 6.58311C188.06 14.6981 189.079 20.8594 193.638 27.9425C194.398 29.0846 194.698 29.7759 194.698 30.7577C194.698 32.9317 192.379 34.6449 190.519 34.6449C188.889 34.6449 187.63 33.8835 185.39 29.3852C180.792 20.2082 179.612 7.8755 179.612 6.15232C179.612 5.50112 179.612 4.16865 181.092 3.37719C182.421 2.61578 184.021 2.726 184.321 2.76607C186.56 3.1067 186.79 4.9 187.02 6.57308L187.03 6.58311ZM191.779 8.87732C189.419 8.87732 187.49 6.93375 187.49 4.56939C187.49 2.20503 189.429 0.271484 191.779 0.271484C194.128 0.271484 196.068 2.17497 196.068 4.56939C196.068 6.9638 194.168 8.87732 191.779 8.87732ZM191.779 2.89632C190.869 2.89632 190.149 3.65771 190.149 4.56939C190.149 5.48107 190.869 6.2024 191.779 6.2024C192.688 6.2024 193.448 5.48107 193.448 4.56939C193.448 3.65771 192.728 2.89632 191.779 2.89632Z" fill="var(--fill-0, #72BF99)"/>
<path id="Vector_6" d="M213.709 6.81287C216.219 8.33567 217.358 9.20727 217.358 11.0006C217.358 12.7939 215.729 15.3786 213.41 15.3786C212.84 15.3786 212.31 15.2684 211.13 14.507C207.711 12.303 207.021 11.8021 204.142 10.2793C202.732 9.51788 201.443 8.79653 201.443 7.00322C201.443 4.75908 203.302 3.00586 205.472 3.00586C207.031 3.00586 212.2 5.90119 213.719 6.81287H213.709ZM221.877 29.3645C215.529 33.6624 207.321 34.7745 206.221 34.7745C203.372 34.7745 202.573 32.1496 202.573 30.4765C202.573 27.5411 204.582 27.1303 206.561 26.8598C216.479 25.4873 222.407 21.6803 226.436 11.6317C226.626 11.1709 227.276 9.23738 227.426 8.85667C227.806 7.94499 228.295 6.76279 230.275 6.76279C232.474 6.76279 234.564 7.82474 234.564 10.2693C234.564 11.5616 231.525 22.8725 221.867 29.3845L221.877 29.3645Z" fill="var(--fill-0, #72BF99)"/>
<path id="Vector_7" d="M267.634 3.91797C272.343 3.91797 272.383 6.96364 272.383 8.2961C272.383 9.89905 271.473 16.4411 268.884 21.28C265.275 27.9824 259.766 31.4487 254.558 33.5426C254.218 33.6929 250.639 35.1456 248.399 35.1456C245.63 35.1456 244.83 32.2903 244.83 30.9979C244.83 28.7137 246.58 28.2228 248.439 27.6818C258.017 24.9768 262.195 20.3283 263.825 13.2151C264.095 12.1532 264.095 11.7725 264.095 11.6923C264.095 11.2715 263.825 11.2315 263.485 11.2315H244.83C244.07 11.2315 241.141 11.2315 241.141 7.61479C241.141 5.06008 242.551 3.91797 244.83 3.91797H267.634Z" fill="var(--fill-0, #72BF99)"/>
<path id="Vector_8" d="M282.528 5.60112C282.528 3.16663 283.858 1.9043 286.287 1.9043C288.716 1.9043 290.086 3.12655 290.086 5.60112V26.5798C290.086 27.0707 290.166 27.261 290.656 27.261C291.076 27.261 294.605 26.73 297.234 25.2072C302.063 22.3519 304.032 18.3145 305.742 14.8481C306.462 13.3253 307.411 12.9847 308.481 12.9847C310.19 12.9847 312.85 14.1669 312.85 16.4511C312.85 18.0841 309.811 25.588 302.932 30.3868C295.904 35.2658 287.887 35.2958 287.357 35.2958C282.718 35.2958 282.528 32.5507 282.528 31.0279V5.59109V5.60112Z" fill="var(--fill-0, #72BF99)"/>
<path id="Vector_9" d="M321.031 20.2177C320.461 18.0437 320.351 17.7031 319.201 14.6575C319.051 14.2768 318.861 13.7859 318.861 13.1347C318.861 11.0007 321.031 10.0891 322.55 10.0891C324.37 10.0891 325.06 11.2312 325.629 12.4835C326.469 14.4271 327.909 18.6148 327.909 19.9071C327.909 21.6203 326.429 23.063 323.77 23.063C321.761 23.063 321.261 21.0492 321.031 20.2077V20.2177ZM339.466 28.7535C334.487 33.8128 327.879 35.4157 326.319 35.4157C323.89 35.4157 323.05 33.0514 323.05 31.7991C323.05 29.7453 324.46 29.3245 326.619 28.6333C330.648 27.3809 337.146 25.3171 339.386 14.5773C339.956 11.8022 339.995 11.4916 340.335 10.8805C340.945 9.73839 341.965 9.43783 342.995 9.43783C343.375 9.43783 346.794 9.43783 346.794 12.6337C346.794 13.0144 345.654 22.4218 339.456 28.7434L339.466 28.7535ZM329.508 18.5446C329.168 16.7513 328.858 15.499 328.179 13.4452C327.839 12.4935 327.719 12.0326 327.719 11.5016C327.719 9.3677 329.808 8.49609 331.328 8.49609C333.377 8.49609 334.027 9.74842 334.517 11.0809C335.357 13.2549 336.376 17.2923 336.376 18.3543C336.376 20.9791 333.607 21.7004 332.088 21.5201C330.038 21.2496 329.698 19.6166 329.508 18.5547V18.5446Z" fill="var(--fill-0, #72BF99)"/>
<path id="Vector_10" d="M364.622 32.0997C364.622 33.3219 364.542 35.9067 360.743 35.9067C356.944 35.9067 356.824 33.5123 356.824 32.0997V5.22017C356.824 4.03799 356.864 1.37305 360.703 1.37305C364.542 1.37305 364.622 3.73743 364.622 5.22017V10.5901C370.89 12.5336 376.559 15.2386 378.378 16.1903C380.698 17.3725 381.647 18.3243 381.647 20.1477C381.647 21.971 380.318 24.6459 377.769 24.6459C376.629 24.6459 376.479 24.5357 372.64 22.2816C371.54 21.6304 368.041 19.6968 364.622 18.3944V32.0997Z" fill="var(--fill-0, #72BF99)"/>
</g>
</svg>
