<svg preserveAspectRatio="none" width="100%" height="100%" overflow="visible" style="display: block;" viewBox="0 0 30.6216 23.221" fill="none" xmlns="http://www.w3.org/2000/svg">
<path id="Vector" d="M30.3518 23.1809C30.2918 23.2109 30.2318 23.221 30.1618 23.221C30.0618 23.221 29.9818 23.2009 29.9119 23.1608C29.8219 23.1107 27.8025 21.9687 25.1932 21.3976C22.6239 20.8366 20.3744 20.9969 18.515 21.8785C17.8651 22.179 17.2654 22.5798 16.7055 23.0606C16.6755 23.0907 16.6356 23.1107 16.6056 23.1308C16.4256 23.221 16.1956 23.1709 16.0657 23.0106C15.9457 22.8703 15.9257 22.68 16.0056 22.5096L16.3156 21.8684L15.6357 22.0789C15.6357 22.0789 15.5458 22.0989 15.5058 22.0989L14.9959 22.0688L15.1659 22.5297C15.2259 22.67 15.2159 22.8302 15.1359 22.9605C15.0859 23.0306 15.026 23.0907 14.946 23.1308C14.806 23.2009 14.636 23.1909 14.506 23.1007C11.9168 21.4677 8.88758 20.9368 5.5085 21.5178C3.49905 21.8685 1.94947 22.5297 1.37963 22.8002C1.21967 22.8803 1.12969 22.9204 1.11969 22.9304C1.04971 22.9605 1.0098 22.9805 0.949814 22.9805H0.859872L0.789823 23.0506C0.759831 23.0807 0.719867 23.1007 0.689875 23.1107C0.629891 23.1408 0.559847 23.1508 0.499863 23.1508C0.249932 23.1508 0.0400281 22.9505 0.0400281 22.69L0 2.37248C0 2.19215 0.0999824 2.03188 0.259939 1.96175C0.319922 1.9317 0.389967 1.9217 0.44995 1.9217C0.699882 1.9217 0.909785 2.12203 0.909785 2.38251L0.949814 21.9887L1.37963 21.7983C2.2294 21.4276 3.59907 20.9267 5.30861 20.6262C8.06785 20.1353 10.6671 20.3657 13.0065 21.3074L13.2664 20.7464C12.7365 20.4558 12.1367 20.2154 11.5069 20.005C11.2669 19.9249 11.137 19.6744 11.217 19.434C11.257 19.3137 11.337 19.2135 11.457 19.1634C11.5569 19.1134 11.6768 19.1034 11.7868 19.1435C12.8365 19.4841 13.7763 19.9349 14.5661 20.4759L15.0459 20.8065L15.0259 11.0886C15.0259 10.9082 15.1259 10.748 15.2859 10.6778C15.3458 10.6478 15.4159 10.6377 15.4759 10.6377C15.5958 10.6377 15.7158 10.6878 15.7957 10.768C15.8857 10.8581 15.9257 10.9683 15.9257 11.0886L15.9457 20.7263L16.4356 20.3657C17.0154 19.9349 17.6553 19.5542 18.3351 19.2336C18.485 19.1635 18.645 19.0934 18.8049 19.0232C20.4645 18.332 23.1637 17.6807 26.5628 18.5423L26.9427 18.6425L26.9127 1.04007L26.6227 1.02001C23.6835 0.819643 21.4642 1.13021 20.3944 1.33058L20.1445 1.38066L20.1645 12.4511C20.1645 12.6114 20.0746 12.7616 19.9446 12.8418C19.7747 12.9219 19.6246 12.9119 19.4947 12.8418L18.405 12.2307L17.5052 13.0322C17.5052 13.0322 17.4353 13.0823 17.3953 13.1023C17.2753 13.1624 17.1353 13.1624 17.0154 13.1023C16.8554 13.0322 16.7454 12.8619 16.7454 12.6815L16.7255 2.48273L16.2456 2.80333C16.1756 2.85342 16.1056 2.90347 16.0457 2.94354L15.9157 3.03374V7.63218C15.9157 7.81251 15.8257 7.97284 15.6658 8.04297C15.6058 8.07303 15.5359 8.08302 15.4759 8.08302C15.3559 8.08302 15.2359 8.03293 15.1559 7.95278C15.0659 7.86261 15.0259 7.7524 15.0259 7.63218V3.06376L14.856 2.97363C11.1171 0.989969 5.82851 1.16026 3.72908 1.32055L3.44913 1.34061L3.47915 18.402L3.80902 18.372C4.43884 18.3219 5.42861 18.2718 6.59829 18.3019C6.71826 18.3019 6.82818 18.352 6.91815 18.4421C6.99813 18.5323 7.04811 18.6425 7.03811 18.7728C7.03811 18.9431 6.92814 19.1033 6.77818 19.1735C6.71819 19.2035 6.64825 19.2136 6.56827 19.2136C4.61881 19.1535 3.14923 19.3538 3.08924 19.3538C2.95928 19.3738 2.82933 19.3338 2.72936 19.2436C2.62938 19.1534 2.56937 19.0332 2.56937 18.903L2.52934 1.09015V1.00998V0.959904V0.929881C2.52934 0.749548 2.62932 0.57918 2.78928 0.499033C2.82927 0.478996 2.87927 0.468999 2.92925 0.458981C3.22917 0.418907 10.3972 -0.442689 15.2759 2.14208L15.4459 2.23227L15.5958 2.12202C15.8958 1.91163 16.3755 1.60111 17.0054 1.30056C17.8251 0.919857 18.6749 0.64931 19.5447 0.499033C19.5747 0.499033 19.6047 0.499033 19.6346 0.499033H19.6747H19.7147C21.8341 0.0181459 24.5634 -0.122066 27.2026 0.108359C27.2326 0.108359 27.2626 0.108317 27.2926 0.128354H27.3326L27.3725 0.138382C27.6225 0.138382 27.8225 0.348782 27.8225 0.589226L27.8624 18.9531C27.8624 18.9531 27.8625 19.0532 27.8325 19.1033L27.8125 19.1534V19.2036C27.8125 19.2036 27.8124 19.3037 27.7924 19.3438C27.7525 19.464 27.6725 19.5642 27.5525 19.6143C27.4426 19.6644 27.3326 19.6744 27.2227 19.6343C23.4637 18.4121 20.5245 19.1735 18.715 20.0251C18.445 20.1553 18.1751 20.2956 17.9252 20.4358L18.2051 20.9868C20.2645 20.0551 22.6839 19.8848 25.4231 20.4859C27.0327 20.8365 28.4023 21.3875 29.272 21.7883L29.712 21.9887L29.6719 2.42262C29.6719 2.24229 29.7719 2.08196 29.9319 2.01183C29.9919 1.98178 30.0618 1.97178 30.1218 1.97178C30.3717 1.97178 30.5817 2.17217 30.5817 2.43265L30.6216 22.7501C30.6216 22.9304 30.5216 23.0907 30.3617 23.1608L30.3518 23.1809ZM18.1451 11.2589C18.275 11.1988 18.435 11.1988 18.565 11.2689L19.2648 11.6596L19.2447 1.52094L18.855 1.63112C18.505 1.73131 18.1551 1.84155 17.8252 1.98181L17.6352 2.06191L17.6552 11.5494L18.115 11.2789L18.1451 11.2589Z" fill="var(--fill-0, #3C3D3D)"/>
</svg>
