<svg preserveAspectRatio="none" width="100%" height="100%" overflow="visible" style="display: block;" viewBox="0 0 271.47 18.9754" fill="none" xmlns="http://www.w3.org/2000/svg">
<g id="Group">
<path id="Vector" d="M12.6285 14.8071H14.2107V18.9747H9.9231L7.21768 12.7332H4.063V18.9747H0V0.00976562H14.201V12.7332H11.4956L12.6187 14.8171L12.6285 14.8071ZM4.05323 8.56554H10.3626V4.16743H4.05323V8.56554Z" fill="var(--fill-0, #386F6B)"/>
<path id="Vector_2" d="M22.2019 0.00976562V18.9747H18.1389V0.00976562H22.2019Z" fill="var(--fill-0, #386F6B)"/>
<path id="Vector_3" d="M30.3152 6.25153H40.4629V18.975H26.262V14.8073H36.4097V10.4092H26.262V0H40.4629V4.16768H30.3152V6.25153Z" fill="var(--fill-0, #386F6B)"/>
<path id="Vector_4" d="M48.5798 6.25153H58.7275V18.975H44.5265V14.8073H54.6743V10.4092H44.5265V0H58.7275V4.16768H48.5798V6.25153Z" fill="var(--fill-0, #386F6B)"/>
<path id="Vector_5" d="M77.5006 18.9747H73.4376V10.419H66.9036V18.9747H62.8406V0.00976562H66.9036V6.25127H73.4376V0.00976562H77.5006V18.9747Z" fill="var(--fill-0, #386F6B)"/>
<path id="Vector_6" d="M95.6946 0.00976562V18.9747H81.4936V0.00976562H95.6946ZM85.5469 14.8071H91.6316V4.16743H85.5469V14.8071Z" fill="var(--fill-0, #386F6B)"/>
<path id="Vector_7" d="M125.22 18.9747H111.019V0.00976562H115.082V14.8171H121.167V0.00976562H125.23V18.9747H125.22Z" fill="var(--fill-0, #386F6B)"/>
<path id="Vector_8" d="M143.483 18.9747H139.42V4.16743H133.335V18.9747H129.272V0.00976562H143.473V18.9747H143.483Z" fill="var(--fill-0, #386F6B)"/>
<path id="Vector_9" d="M151.589 0.00976562V18.9747H147.526V0.00976562H151.589Z" fill="var(--fill-0, #386F6B)"/>
<path id="Vector_10" d="M170.305 3.47616L165.119 17.1213V18.9747H161.056V17.1213L155.645 3.47616V0.00976562H159.708V2.78488L163.087 11.1102L166.242 2.78488V0.00976562H170.305V3.47616Z" fill="var(--fill-0, #386F6B)"/>
<path id="Vector_11" d="M178.393 6.272H186.509V10.4397H178.393V14.8378H188.54V18.9754H174.359V0.0605469H188.54V4.19817H178.393V6.28202V6.272Z" fill="var(--fill-0, #386F6B)"/>
<path id="Vector_12" d="M205.317 14.8071H206.899V18.9747H202.611L199.906 12.7332H196.751V18.9747H192.688V0.00976562H206.889V12.7332H204.184L205.307 14.8171L205.317 14.8071ZM196.741 8.56554H203.051V4.16743H196.741V8.56554Z" fill="var(--fill-0, #386F6B)"/>
<path id="Vector_13" d="M214.892 6.25153H225.039V18.975H210.838V14.8073H220.986V10.4092H210.838V0H225.039V4.16768H214.892V6.25153Z" fill="var(--fill-0, #386F6B)"/>
<path id="Vector_14" d="M233.155 0.00976562V18.9747H229.092V0.00976562H233.155Z" fill="var(--fill-0, #386F6B)"/>
<path id="Vector_15" d="M246.905 4.16768V18.975H242.842V4.16768H237.207V0H252.316V4.16768H246.905Z" fill="var(--fill-0, #386F6B)"/>
<path id="Vector_16" d="M265.61 10.8798V18.9747H261.781V10.6494L255.921 4.40788V0.00976562H259.984V2.78488L263.813 6.95257L267.641 2.78488V0.00976562H271.47V4.40788L265.61 10.8798Z" fill="var(--fill-0, #386F6B)"/>
</g>
</svg>
