<svg preserveAspectRatio="none" width="100%" height="100%" overflow="visible" style="display: block;" viewBox="0 0 653.693 37.1482" fill="none" xmlns="http://www.w3.org/2000/svg">
<g id="Group">
<path id="Vector" d="M32.2598 29.0636C34.5941 29.0636 36.0103 30.0153 36.0103 32.4899C36.0103 34.9644 35.0043 36.2168 32.2598 36.2168H3.75046C1.48455 36.2168 0 35.3051 0 32.7904C0 30.2758 0.927845 29.0535 3.75046 29.0535H19.563C20.6764 25.6272 21.6823 20.7883 22.5711 16.2199C22.8641 14.5869 23.3134 12.3327 26.4681 12.3327C29.1051 12.3327 30.5116 14.1561 30.5116 15.9093C30.5116 17.8128 27.4643 28.0216 27.0932 29.0435H32.2501L32.2598 29.0636ZM31.6738 5.1094C33.9788 5.1094 35.4243 6.02108 35.4243 8.53571C35.4243 11.0503 34.4574 12.2325 31.6738 12.2325H4.50249C2.27566 12.2325 0.752035 11.3609 0.752035 8.80621C0.752035 6.2515 1.82638 5.1094 4.50249 5.1094H14.1912V3.88714C14.1912 1.94356 14.7088 0.310547 17.9026 0.310547C20.2369 0.310547 21.7605 1.11202 21.7605 3.88714V5.1094H31.6738ZM13.9275 17.2217C15.0018 22.4414 15.1483 24.6855 15.1483 25.3667C15.1483 28.4124 12.4039 28.8732 11.3979 28.8732C8.12598 28.8732 7.87204 26.3986 7.60834 24.2246C7.42277 22.6217 6.9735 19.6161 6.78793 18.7045C6.33865 16.31 6.27029 16.0395 6.27029 15.3883C6.27029 12.9939 8.72176 12.3427 10.2063 12.3427C12.9117 12.3427 13.361 14.4366 13.9177 17.2217H13.9275Z" fill="var(--fill-0, #72BF99)"/>
<path id="Vector_2" d="M62.3811 14.4772H69.9211C70.6634 14.4772 73.0367 14.4772 73.0367 17.8234C73.0367 20.6786 71.4057 21.2096 69.9211 21.2096H62.3811V28.9739H72.6656C73.4079 28.9739 75.7812 29.014 75.7812 32.29C75.7812 35.2956 74.3357 35.9468 72.6656 35.9468H43.2284C42.154 35.9468 40.1127 35.6462 40.1127 32.6708C40.1127 29.9257 41.2262 28.9739 43.2284 28.9739H44.9766V13.5856C44.9766 12.6338 45.0841 10.4297 48.3169 10.4297C51.2469 10.4297 52.1064 11.4917 52.1064 13.5856V28.9739H55.2611V8.19563H44.2734C43.5702 8.19563 41.1578 8.19563 41.1578 4.91959C41.1578 2.02425 42.5642 1.37305 44.2734 1.37305H71.894C72.5972 1.37305 75.0096 1.37305 75.0096 4.75929C75.0096 7.53441 73.4469 8.18561 71.894 8.18561H62.3909V14.4672L62.3811 14.4772Z" fill="var(--fill-0, #72BF99)"/>
<path id="Vector_3" d="M83.8388 15.6987C81.5046 15.6987 80.0884 14.747 80.0884 12.042C80.0884 9.60751 81.3483 8.4654 83.8388 8.4654H94.1624V3.55635C94.1624 1.31221 95.3539 0.240234 97.5417 0.240234C99.7294 0.240234 101.4 0.851361 101.4 3.55635V8.4654H111.87C114.136 8.4654 115.659 9.45723 115.659 11.8917C115.659 14.3262 114.77 15.6987 111.87 15.6987H102.142C103.402 22.361 107.23 26.3183 112.573 29.1035C113.764 29.7146 114.878 30.476 114.878 32.4897C114.878 34.2429 113.657 36.7876 110.981 36.7876C108.793 36.7876 101.849 32.3294 97.8347 24.0341C94.6019 30.8867 87.7358 36.5973 84.542 36.5973C82.2761 36.5973 80.7525 34.2029 80.7525 32.2192C80.7525 30.506 81.6803 29.8248 82.7938 29.1335C88.4781 25.6671 91.7402 22.8519 93.3029 15.6887H83.8388V15.6987Z" fill="var(--fill-0, #72BF99)"/>
<path id="Vector_4" d="M134.626 5.48984C134.548 5.33957 134.362 4.76851 134.216 4.42789C134.108 4.08726 133.923 3.58633 133.923 2.98523C133.923 1.19192 136.003 0.320312 137.927 0.320312C139.558 0.320312 140.261 0.811218 141.043 2.56445C141.306 3.17558 141.863 4.35776 142.01 5.49986H144.158C144.383 5.07909 144.569 4.65831 145.164 2.94515C145.682 1.38227 146.2 0.510664 148.173 0.510664C150.478 0.510664 152.362 1.73292 152.362 3.59635C152.362 4.24755 151.952 5.00896 151.659 5.53994C153.74 5.96071 154.589 7.94437 154.589 10.449V12.8133C154.589 14.8271 153.925 16.5803 150.507 16.1996C150.36 18.1832 149.393 18.7844 148.544 19.3254C146.727 20.5476 145.389 21.1888 144.686 21.4994H152.372C153.115 21.4994 155.752 21.4994 155.752 24.6953C155.752 27.6607 153.632 27.9312 152.372 27.9312H141.424V31.9286C141.424 36.5772 139.49 37.1482 134.626 37.1482C130.28 37.1482 129.801 37.038 129.205 36.7274C128.199 36.2666 127.643 34.864 127.643 33.5315C127.643 31.3575 128.903 30.2956 130.875 30.2956C131.247 30.2956 132.809 30.3757 133.141 30.3357C133.962 30.2555 133.962 29.8447 133.962 28.923V27.9312H123.082C122.339 27.9312 119.702 27.9312 119.702 24.8455C119.702 22.411 120.894 21.4994 123.082 21.4994H133.991C134.069 21.0385 134.323 20.4675 135.368 20.0868C135.886 19.8964 136.521 19.666 136.521 19.4055C136.521 19.2552 136.413 19.1049 136.228 19.1049H127.692C126.842 19.1049 125.015 19.1049 124.869 16.2096C121.978 16.5502 120.708 15.2979 120.708 12.8935V10.459C120.708 9.01635 120.786 6.16108 124.048 5.62008C123.824 5.15923 123.345 4.28763 123.345 3.41602C123.345 2.04349 124.976 0.60083 127.32 0.60083C128.434 0.60083 129.508 0.711033 130.622 3.03532C130.915 3.68652 131.364 4.82862 131.51 5.50988H134.626V5.48984ZM127.613 12.9135H146.62C147.215 12.9135 147.284 12.9135 147.733 12.9536V11.9618C147.733 11.7314 147.508 11.6612 147.401 11.6612H127.906C127.799 11.6612 127.613 11.7414 127.613 11.9618V12.9135Z" fill="var(--fill-0, #72BF99)"/>
<path id="Vector_5" d="M163.331 12.3016C161.329 12.3016 159.727 11.4601 159.727 9.02561C159.727 6.40077 160.733 5.17851 163.331 5.17851H173.987V3.88613C173.987 2.32325 174.319 0.349609 177.366 0.349609C180.413 0.349609 181.302 1.30136 181.302 3.88613V5.17851H191.919C193.96 5.17851 195.562 6.02006 195.562 8.49463C195.562 10.9692 194.712 12.3016 191.919 12.3016H189.282C188.276 16.9502 186.352 21.9394 183.158 25.6663C185.424 26.9186 186.908 27.4195 192.329 29.1327C193.667 29.5535 195.152 30.1646 195.152 32.559C195.152 34.7631 193.745 36.6666 191.518 36.6666C189.585 36.6666 182.679 34.192 177.669 30.6455C172.727 34.1119 166.232 36.6666 163.781 36.6666C161.7 36.6666 160.255 34.8031 160.255 32.559C160.255 30.3149 161.407 29.6637 163.038 29.1728C168.273 27.5397 169.24 27.2292 171.575 26.0169C171.868 25.8667 171.985 25.7865 172.209 25.6763C169.055 21.8693 167.082 17.1806 166.046 12.3117H163.341L163.331 12.3016ZM173.469 12.3016C173.919 14.125 175.061 18.3227 177.659 21.3684C178.548 20.3365 180.257 18.2827 181.82 12.3016H173.469Z" fill="var(--fill-0, #72BF99)"/>
<path id="Vector_6" d="M214.459 5.48984C214.381 5.33957 214.195 4.76851 214.049 4.42789C213.941 4.08726 213.756 3.58633 213.756 2.98523C213.756 1.19192 215.836 0.320312 217.76 0.320312C219.391 0.320312 220.095 0.811218 220.876 2.56445C221.14 3.17558 221.696 4.35776 221.843 5.49986H223.992C224.216 5.07909 224.402 4.65831 224.997 2.94515C225.515 1.38227 226.033 0.510664 228.006 0.510664C230.311 0.510664 232.196 1.73292 232.196 3.59635C232.196 4.24755 231.785 5.00896 231.492 5.53994C233.573 5.96071 234.422 7.94437 234.422 10.449V12.8133C234.422 14.8271 233.758 16.5803 230.34 16.1996C230.193 18.1832 229.227 18.7844 228.377 19.3254C226.56 20.5476 225.222 21.1888 224.519 21.4994H232.205C232.948 21.4994 235.585 21.4994 235.585 24.6953C235.585 27.6607 233.465 27.9312 232.205 27.9312H221.257V31.9286C221.257 36.5772 219.323 37.1482 214.459 37.1482C210.113 37.1482 209.634 37.038 209.039 36.7274C208.033 36.2666 207.476 34.864 207.476 33.5315C207.476 31.3575 208.736 30.2956 210.709 30.2956C211.08 30.2956 212.642 30.3757 212.975 30.3357C213.795 30.2555 213.795 29.8447 213.795 28.923V27.9312H202.915C202.172 27.9312 199.535 27.9312 199.535 24.8455C199.535 22.411 200.727 21.4994 202.915 21.4994H213.824C213.902 21.0385 214.156 20.4675 215.201 20.0868C215.719 19.8964 216.354 19.666 216.354 19.4055C216.354 19.2552 216.246 19.1049 216.061 19.1049H207.525C206.675 19.1049 204.849 19.1049 204.702 16.2096C201.811 16.5502 200.541 15.2979 200.541 12.8935V10.459C200.541 9.01635 200.619 6.16108 203.882 5.62008C203.657 5.15923 203.178 4.28763 203.178 3.41602C203.178 2.04349 204.809 0.60083 207.154 0.60083C208.267 0.60083 209.341 0.711033 210.455 3.03532C210.748 3.68652 211.197 4.82862 211.343 5.50988H214.459V5.48984ZM207.437 12.9135H226.443C227.039 12.9135 227.107 12.9135 227.556 12.9536V11.9618C227.556 11.7314 227.332 11.6612 227.224 11.6612H207.73C207.622 11.6612 207.437 11.7414 207.437 11.9618V12.9135Z" fill="var(--fill-0, #72BF99)"/>
<path id="Vector_7" d="M259.494 18.8154C258.937 19.727 258.302 19.9575 257.081 19.9575H242.236C240.605 19.9575 239.374 19.4265 239.374 16.6413C239.374 13.6358 241.337 13.6358 242.607 13.6358C242.499 12.8343 242.157 10.7805 242.05 10.2896C240.419 9.86886 240.048 8.19577 240.048 7.20394C240.048 4.42883 242.011 4.04813 243.203 4.04813H246.172V2.98617C246.172 0.701957 247.92 0.361328 249.737 0.361328C251.221 0.361328 252.784 0.892308 252.784 2.98617V4.04813H256.017C258.019 4.04813 259.132 5.11008 259.132 7.24402C259.132 8.61655 258.468 9.90893 257.198 10.2496C256.905 11.6622 256.749 12.3033 256.378 13.6358H257.081C258.234 13.6358 258.859 13.8262 259.494 14.7378V6.43252C259.494 2.50528 260.314 1.40325 264.397 1.40325H269.739C272.23 1.40325 274.935 1.40325 274.935 5.74125C274.935 7.60468 274.456 9.16756 274.115 10.1193C273.558 11.7924 272.591 14.0065 272.112 14.9983C271.702 15.7998 271.663 15.8699 271.663 16.0603C271.663 16.2907 271.741 16.3308 272.298 16.972C273.929 18.7953 275.56 22.3018 275.56 26.5696C275.56 33.4624 271.175 33.4624 269.397 33.4624C266.946 33.4624 266.467 33.0416 266.164 32.7811V33.6227C266.164 36.2876 265.012 37.089 262.56 37.089C259.699 37.089 259.484 34.915 259.484 33.6227V18.8053L259.494 18.8154ZM253.77 21.2198C257.706 21.2198 258.302 22.5122 258.302 25.9084V31.8494C258.302 35.6564 257.452 36.538 253.77 36.538H245.117C241.63 36.538 240.624 35.6965 240.624 31.8494V25.9084C240.624 22.3619 241.405 21.2198 245.117 21.2198H253.77ZM251.954 27.5014C251.954 27.311 251.807 27.1607 251.622 27.1607H247.353C247.129 27.1607 247.021 27.311 247.021 27.5014V30.0561C247.021 30.2064 247.099 30.3967 247.353 30.3967H251.622C251.846 30.3967 251.954 30.2064 251.954 30.0561V27.5014ZM248.135 10.3998C248.281 11.4618 248.506 13.2551 248.506 13.6358H250.215C250.401 13.0647 250.664 12.1931 250.811 10.3998H248.135ZM266.174 14.3571C266.36 13.8963 268.03 9.21766 268.03 8.52638C268.03 8.22583 267.805 8.03548 267.551 8.03548H266.623C266.33 8.03548 266.174 8.22583 266.174 8.49633V14.3571ZM266.174 27.1207C266.623 26.78 266.995 26.6999 267.659 26.6598C268.176 26.6197 268.362 26.1288 268.362 24.7964C268.362 21.2899 267.063 19.6168 266.174 18.5148V27.1207Z" fill="var(--fill-0, #72BF99)"/>
<path id="Vector_8" d="M284.265 19.4659C282.487 19.4659 280.846 18.6243 280.846 16.0396C280.846 14.2463 281.549 12.5732 284.265 12.5732H310.625C312.813 12.5732 314.044 13.7554 314.044 15.9995C314.044 17.903 313.194 19.4659 310.625 19.4659H301.943C301.757 22.0206 301.278 28.8732 295.116 32.8706C292.332 34.694 288.689 35.8761 286.872 35.8761C284.313 35.8761 283.454 33.2112 283.454 31.9188C283.454 30.396 284.421 29.3641 285.974 28.9133C290.73 27.5809 294.1 26.589 294.627 19.4659H284.274H284.265ZM304.902 3.08569C306.123 3.08569 308.242 3.50646 308.242 6.47193C308.242 9.24705 306.533 9.93832 304.902 9.93832H287.195C286.452 9.93832 283.815 9.89825 283.815 6.55208C283.815 4.30794 284.968 3.08569 287.195 3.08569H304.902ZM307.607 2.17401C307.5 1.90351 307.5 1.6831 307.5 1.52281C307.5 0.340628 308.799 0.190351 309.092 0.190351C309.795 0.190351 310.205 0.530979 310.723 1.94358C310.801 2.21408 311.504 4.26787 311.504 5.32983C311.504 6.77249 310.059 6.77249 309.942 6.77249C309.053 6.77249 308.789 6.24151 308.643 5.67045C308.564 5.39996 308.232 4.14765 308.164 3.87715C308.086 3.60665 307.685 2.43449 307.607 2.16399V2.17401ZM311.846 1.98366C311.739 1.71316 311.739 1.49275 311.739 1.33246C311.739 0.150277 313.038 0 313.331 0C314.034 0 314.444 0.340628 314.962 1.79331C315.04 2.02373 315.743 4.07752 315.743 5.13948C315.743 6.58214 314.298 6.58214 314.151 6.58214C313.301 6.58214 313.038 6.05116 312.891 5.52018C312.813 5.21962 312.481 3.9573 312.413 3.69682C312.334 3.42632 311.934 2.25416 311.856 1.98366H311.846Z" fill="var(--fill-0, #72BF99)"/>
<path id="Vector_9" d="M328.038 20.3372C327.071 19.8764 326.29 19.5758 323.839 18.7343C322.54 18.2734 320.791 17.6723 320.791 15.4983C320.791 14.3562 321.456 11.6512 324.063 11.6512C325.733 11.6512 329.709 13.2542 331.564 14.0456C333.899 15.0374 335.354 15.6486 335.354 17.8126C335.354 19.4155 334.318 21.8099 331.974 21.8099C331.232 21.8099 331.125 21.7298 328.038 20.3272V20.3372ZM352.983 11.5811C352.983 13.5647 349.75 22.3209 343.851 27.801C339.993 31.4176 335.793 33.2811 330.451 34.5835C329.601 34.7738 327.589 35.2347 326.368 35.2347C323.692 35.2347 322.911 32.6098 322.911 31.087C322.911 28.2318 325.255 27.7709 326.368 27.5806C332.98 26.3984 340.14 24.8756 344.632 13.8753C346.341 9.64751 346.449 9.41708 347.152 8.84603C347.377 8.65568 347.816 8.38518 349.115 8.38518C349.936 8.38518 352.973 9.10651 352.973 11.5811H352.983ZM331.261 10.5492C330.295 10.1284 329.513 9.78777 327.071 8.94622C325.733 8.48537 324.024 7.88426 324.024 5.75032C324.024 4.56815 324.688 1.86316 327.286 1.86316C328.956 1.86316 332.932 3.49617 334.748 4.26759C337.122 5.29949 338.538 5.87055 338.538 8.03454C338.538 9.63749 337.532 12.0319 335.197 12.0319C334.455 12.0319 334.348 11.9518 331.261 10.5492ZM346 2.4843C345.921 2.2138 345.892 1.9934 345.892 1.80305C345.892 0.660941 347.191 0.510664 347.523 0.510664C348.226 0.510664 348.637 0.851292 349.115 2.2639C349.223 2.53439 349.936 4.54811 349.936 5.65014C349.936 7.0928 348.49 7.0928 348.344 7.0928C347.494 7.0928 347.269 6.56182 347.084 5.99077C347.006 5.72027 346.673 4.42789 346.605 4.19746C346.498 3.89691 346.087 2.71473 346.009 2.4843H346ZM350.238 2.29395C350.16 2.02345 350.131 1.80305 350.131 1.6127C350.131 0.47059 351.43 0.320312 351.762 0.320312C352.465 0.320312 352.875 0.660941 353.354 2.07355C353.461 2.34404 354.174 4.35776 354.174 5.45979C354.174 6.90245 352.729 6.90245 352.582 6.90245C351.733 6.90245 351.508 6.37147 351.323 5.80042C351.244 5.52992 350.912 4.23753 350.844 4.00711C350.737 3.70656 350.326 2.52438 350.248 2.29395H350.238Z" fill="var(--fill-0, #72BF99)"/>
<path id="Vector_10" d="M385.439 5.67961C388.779 5.67961 389.824 7.47292 389.824 9.78719C389.824 10.5887 388.896 22.2802 379.872 29.5536C374.559 33.8215 366.393 35.7651 364.499 35.7651C362.311 35.7651 361.051 33.9718 361.051 31.8378C361.051 29.3633 362.457 29.0627 364.762 28.5217C366.882 28.0609 371.814 26.9188 375.115 24.4142C373.26 22.9314 372.967 22.7411 370.105 20.9878C369.255 20.4569 368.21 19.8457 368.21 18.3229C368.21 17.3311 368.728 16.6098 368.952 16.2691C365.163 19.966 363.639 20.4569 362.526 20.4569C360.524 20.4569 359 18.4031 359 16.6899C359 15.2072 359.41 14.8966 362.672 12.4621C365.124 10.6688 367.272 7.74342 369.128 4.3171C370.32 2.18317 370.837 1.27148 372.918 1.27148C374.51 1.27148 376.922 2.11304 376.922 4.3171C376.922 4.88815 376.737 5.349 376.629 5.68963H385.429L385.439 5.67961ZM372.371 12.5322C371.628 13.4439 371.218 13.9749 369.919 15.3474C370.554 14.8565 371.218 14.6662 371.882 14.6662C373.846 14.6662 377.967 17.291 379.823 18.8138C381.2 16.2591 381.942 13.3638 381.942 12.8729C381.942 12.5322 381.835 12.5322 381.161 12.5322H372.361H372.371Z" fill="var(--fill-0, #72BF99)"/>
<path id="Vector_11" d="M408.979 13.5637C408.979 20.6468 408.832 25.9766 405.824 31.1963C404.603 33.2901 403.001 35.2337 401.106 35.2337C399.397 35.2337 396.946 33.791 396.946 31.3065C396.946 30.505 397.092 29.8638 398.167 28.5313C401.507 24.3837 401.732 22.2898 401.732 13.3033V6.06993C401.732 4.05622 402.738 2.72376 405.335 2.72376C407.523 2.72376 408.979 3.59537 408.979 6.06993V13.5738V13.5637ZM411.84 5.63914C411.84 3.65548 412.768 2.29297 415.405 2.29297C417.524 2.29297 419.038 3.09445 419.038 5.63914V25.4457C419.038 25.6761 419.038 25.9065 419.331 25.9065C419.966 25.9065 423.004 23.9629 424.713 18.4828C425.191 16.96 425.68 15.3971 427.829 15.3971C428.61 15.3971 431.833 15.858 431.833 18.6732C431.833 20.5366 430.456 24.1533 428.678 26.8182C424.703 32.8393 418.54 35.0434 415.571 35.0434C411.821 35.0434 411.821 31.8074 411.821 30.9358V5.63914H411.84Z" fill="var(--fill-0, #72BF99)"/>
<path id="Vector_12" d="M445.808 31.0363C444.47 33.3605 443.542 34.6529 441.648 34.6529C439.753 34.6529 437.565 32.7895 437.565 30.8058C437.565 29.7038 437.936 28.9825 438.6 27.9506C443.171 20.7573 444.128 14.3555 445.134 5.98006C445.242 5.02831 445.545 2.74409 448.328 2.74409C449.363 2.74409 450.701 3.1248 451.405 3.776C452.254 4.5374 452.254 5.25873 452.254 6.90176C452.254 8.27429 450.916 21.9796 445.798 31.0463L445.808 31.0363ZM463.555 6.59119C464.561 14.7061 465.557 20.8675 470.01 27.9506C470.753 29.0927 471.046 29.7739 471.046 30.7658C471.046 32.9398 468.78 34.6529 466.963 34.6529C465.371 34.6529 464.141 33.8915 461.953 29.3932C457.46 20.2163 456.308 7.87355 456.308 6.16039C456.308 5.50919 456.308 4.17673 457.753 3.38528C459.052 2.62387 460.615 2.73408 460.908 2.77415C463.096 3.11478 463.32 4.90808 463.545 6.58117L463.555 6.59119ZM468.194 8.8754C465.889 8.8754 464.004 6.93181 464.004 4.56746C464.004 2.2031 465.899 0.269531 468.194 0.269531C470.489 0.269531 472.394 2.17304 472.394 4.56746C472.394 6.96187 470.538 8.8754 468.194 8.8754ZM468.194 2.89437C467.305 2.89437 466.602 3.65577 466.602 4.56746C466.602 5.47914 467.305 6.20047 468.194 6.20047C469.083 6.20047 469.825 5.47914 469.825 4.56746C469.825 3.65577 469.122 2.89437 468.194 2.89437Z" fill="var(--fill-0, #72BF99)"/>
<path id="Vector_13" d="M489.62 6.82264C492.071 8.34545 493.185 9.21706 493.185 11.0104C493.185 12.8037 491.593 15.3884 489.327 15.3884C488.77 15.3884 488.252 15.2782 487.1 14.5168C483.76 12.3128 483.086 11.8118 480.273 10.289C478.896 9.52763 477.636 8.8063 477.636 7.01299C477.636 4.76886 479.452 3.01562 481.572 3.01562C483.096 3.01562 488.145 5.91096 489.63 6.82264H489.62ZM497.599 29.3642C491.397 33.6621 483.379 34.7742 482.304 34.7742C479.521 34.7742 478.74 32.1493 478.74 30.4763C478.74 27.5408 480.703 27.1301 482.636 26.8596C492.325 25.4871 498.117 21.68 502.053 11.6315C502.239 11.1707 502.873 9.2371 503.02 8.85639C503.391 7.94471 503.87 6.76253 505.803 6.76253C507.952 6.76253 509.993 7.82449 509.993 10.269C509.993 11.5614 507.024 22.8722 497.589 29.3842L497.599 29.3642Z" fill="var(--fill-0, #72BF99)"/>
<path id="Vector_14" d="M542.302 3.92773C546.902 3.92773 546.941 6.97335 546.941 8.30581C546.941 9.90876 546.052 16.4508 543.522 21.2897C539.997 27.9921 534.615 31.4585 529.527 33.5524C529.195 33.7026 525.698 35.1553 523.51 35.1553C520.805 35.1553 520.024 32.3 520.024 31.0077C520.024 28.7235 521.733 28.2325 523.549 27.6915C532.906 24.9866 536.988 20.338 538.58 13.2249C538.844 12.1629 538.844 11.7822 538.844 11.7021C538.844 11.2813 538.581 11.2412 538.248 11.2412H520.024C519.281 11.2412 516.42 11.2412 516.42 7.62455C516.42 5.06984 517.797 3.92773 520.024 3.92773H542.302Z" fill="var(--fill-0, #72BF99)"/>
<path id="Vector_15" d="M556.864 5.59916C556.864 3.16467 558.163 1.90234 560.536 1.90234C562.909 1.90234 564.247 3.1246 564.247 5.59916V26.5778C564.247 27.0687 564.325 27.2591 564.804 27.2591C565.214 27.2591 568.662 26.7281 571.231 25.2053C575.948 22.35 577.872 18.3126 579.542 14.8462C580.245 13.3234 581.173 12.9828 582.218 12.9828C583.888 12.9828 586.486 14.165 586.486 16.4492C586.486 18.0822 583.517 25.586 576.798 30.3849C569.932 35.2639 562.099 35.2939 561.581 35.2939C557.049 35.2939 556.864 32.5488 556.864 31.026V5.59916Z" fill="var(--fill-0, #72BF99)"/>
<path id="Vector_16" d="M594.478 20.2275C593.921 18.0535 593.814 17.7128 592.7 14.6672C592.554 14.2865 592.368 13.7956 592.368 13.1444C592.368 11.0105 594.488 10.0988 595.972 10.0988C597.76 10.0988 598.424 11.2409 598.98 12.4932C599.801 14.4368 601.207 18.6245 601.207 19.9169C601.207 21.6301 599.762 23.0727 597.164 23.0727C595.201 23.0727 594.712 21.059 594.488 20.2175L594.478 20.2275ZM612.478 28.7532C607.614 33.8225 601.158 35.4155 599.635 35.4155C597.261 35.4155 596.441 33.0511 596.441 31.7988C596.441 29.745 597.818 29.3242 599.928 28.643C603.864 27.3907 610.212 25.3269 612.4 14.5871C612.957 11.812 612.996 11.5014 613.328 10.8903C613.924 9.74815 614.92 9.4476 615.926 9.4476C616.297 9.4476 619.637 9.44759 619.637 12.6435C619.637 13.0242 618.524 22.4315 612.478 28.7532ZM602.75 18.5544C602.418 16.7611 602.116 15.5088 601.451 13.455C601.119 12.5032 601.002 12.0424 601.002 11.5114C601.002 9.37747 603.043 8.50586 604.528 8.50586C606.53 8.50586 607.165 9.75817 607.644 11.0906C608.464 13.2646 609.46 17.3021 609.46 18.364C609.46 20.9889 606.755 21.7102 605.27 21.5199C603.268 21.2494 602.936 19.6163 602.75 18.5544Z" fill="var(--fill-0, #72BF99)"/>
<path id="Vector_17" d="M637.06 32.1097C637.06 33.332 636.982 35.9167 633.271 35.9167C629.559 35.9167 629.442 33.5223 629.442 32.1097V5.22014C629.442 4.03796 629.481 1.37305 633.232 1.37305C636.982 1.37305 637.06 3.73741 637.06 5.22014V10.59C643.184 12.5336 648.722 15.2386 650.499 16.1904C652.765 17.3725 653.693 18.3243 653.693 20.1477C653.693 21.971 652.394 24.646 649.903 24.646C648.79 24.646 648.644 24.5358 644.893 22.2816C643.819 21.6304 640.4 19.6968 637.06 18.3944V32.0997V32.1097Z" fill="var(--fill-0, #72BF99)"/>
</g>
</svg>
