<svg preserveAspectRatio="none" width="100%" height="100%" overflow="visible" style="display: block;" viewBox="0 0 654.313 37.7696" fill="none" xmlns="http://www.w3.org/2000/svg">
<g id="Group">
<path id="Vector" d="M32.5754 29.3694C34.9097 29.3694 36.3259 30.3211 36.3259 32.7957C36.3259 35.2703 35.3199 36.5226 32.5754 36.5226H4.06604C1.80014 36.5226 0.315582 35.6109 0.315582 33.0963C0.315582 30.5816 1.24343 29.3594 4.06604 29.3594H19.8785C20.992 25.933 21.9979 21.0941 22.8867 16.5257C23.1797 14.8927 23.629 12.6385 26.7837 12.6385C29.4207 12.6385 30.8271 14.4619 30.8271 16.2151C30.8271 18.1186 27.7799 28.3275 27.4087 29.3493H32.5656L32.5754 29.3694ZM31.9796 5.41521C34.2846 5.41521 35.7301 6.32689 35.7301 8.84153C35.7301 11.3562 34.7632 12.5383 31.9796 12.5383H4.80833C2.58149 12.5383 1.05787 11.6667 1.05787 9.11203C1.05787 6.55732 2.13222 5.41521 4.80833 5.41521H14.497V4.19296C14.497 2.24937 15.0147 0.616363 18.2084 0.616363C20.5427 0.616363 22.0663 1.41784 22.0663 4.19296V5.41521H31.9796ZM14.2333 17.5275C15.3077 22.7472 15.4542 24.9913 15.4542 25.6726C15.4542 28.7182 12.7097 29.179 11.7037 29.179C8.43182 29.179 8.17788 26.7045 7.91417 24.5305C7.7286 22.9275 7.27933 19.922 7.09376 19.0103C6.64449 16.6159 6.57612 16.3454 6.57612 15.6942C6.57612 13.2997 9.02759 12.6485 10.5122 12.6485C13.2176 12.6485 13.6668 14.7424 14.2235 17.5275H14.2333Z" stroke="var(--stroke-0, #386F6B)" stroke-width="0.631164"/>
<path id="Vector_2" d="M62.6852 14.783H70.2252C70.9675 14.783 73.3408 14.783 73.3408 18.1292C73.3408 20.9845 71.7098 21.5154 70.2252 21.5154H62.6852V29.2798H72.9697C73.712 29.2798 76.0853 29.3198 76.0853 32.5959C76.0853 35.6014 74.6398 36.2526 72.9697 36.2526H43.5325C42.4582 36.2526 40.4169 35.9521 40.4169 32.9766C40.4169 30.2315 41.5303 29.2798 43.5325 29.2798H45.2808V13.8914C45.2808 12.9396 45.3882 10.7356 48.621 10.7356C51.5511 10.7356 52.4105 11.7975 52.4105 13.8914V29.2798H55.5652V8.50144H44.5776C43.8744 8.50144 41.4619 8.50144 41.4619 5.2254C41.4619 2.33006 42.8684 1.67886 44.5776 1.67886H72.1981C72.9014 1.67886 75.3138 1.67886 75.3138 5.06511C75.3138 7.84022 73.7511 8.49142 72.1981 8.49142H62.695V14.773L62.6852 14.783Z" stroke="var(--stroke-0, #386F6B)" stroke-width="0.631164"/>
<path id="Vector_3" d="M84.1544 16.0046C81.8201 16.0046 80.4039 15.0528 80.4039 12.3478C80.4039 9.91332 81.6639 8.77122 84.1544 8.77122H94.4779V3.86217C94.4779 1.61803 95.6695 0.546051 97.8573 0.546051C100.045 0.546051 101.715 1.15718 101.715 3.86217V8.77122H112.185C114.451 8.77122 115.975 9.76304 115.975 12.1975C115.975 14.632 115.086 16.0046 112.185 16.0046H102.457C103.717 22.6668 107.546 26.6241 112.888 29.4093C114.08 30.0204 115.193 30.7818 115.193 32.7955C115.193 34.5487 113.973 37.0934 111.296 37.0934C109.109 37.0934 102.164 32.6352 98.1503 24.3399C94.9174 31.1926 88.0514 36.9031 84.8576 36.9031C82.5917 36.9031 81.0681 34.5087 81.0681 32.525C81.0681 30.8119 81.9959 30.1306 83.1093 29.4393C88.7936 25.9729 92.0558 23.1577 93.6185 15.9945H84.1544V16.0046Z" stroke="var(--stroke-0, #386F6B)" stroke-width="0.631164"/>
<path id="Vector_4" d="M134.941 5.79566C134.863 5.64538 134.678 5.07433 134.531 4.7337C134.424 4.39307 134.238 3.89215 134.238 3.29104C134.238 1.49774 136.319 0.626129 138.243 0.626129C139.874 0.626129 140.577 1.11703 141.358 2.87027C141.622 3.48139 142.179 4.66357 142.325 5.80568H144.474C144.699 5.3849 144.884 4.96413 145.48 3.25097C145.998 1.68809 146.515 0.81648 148.488 0.81648C150.793 0.81648 152.678 2.03873 152.678 3.90217C152.678 4.55337 152.268 5.31477 151.975 5.84575C154.055 6.26653 154.905 8.25019 154.905 10.7548V13.1192C154.905 15.1329 154.241 16.8861 150.822 16.5054C150.676 18.4891 149.709 19.0902 148.859 19.6312C147.043 20.8534 145.705 21.4946 145.001 21.8052H152.688C153.43 21.8052 156.067 21.8052 156.067 25.0011C156.067 27.9665 153.948 28.237 152.688 28.237H141.739V32.2344C141.739 36.883 139.805 37.454 134.941 37.454C130.595 37.454 130.117 37.3438 129.521 37.0333C128.515 36.5724 127.958 35.1698 127.958 33.8374C127.958 31.6634 129.218 30.6014 131.191 30.6014C131.562 30.6014 133.125 30.6815 133.457 30.6415C134.277 30.5613 134.277 30.1506 134.277 29.2289V28.237H123.397C122.655 28.237 120.018 28.237 120.018 25.1513C120.018 22.7169 121.209 21.8052 123.397 21.8052H134.307C134.385 21.3443 134.639 20.7733 135.684 20.3926C136.201 20.2022 136.836 19.9718 136.836 19.7113C136.836 19.561 136.729 19.4108 136.543 19.4108H128.007C127.157 19.4108 125.331 19.4108 125.184 16.5154C122.293 16.8561 121.024 15.6037 121.024 13.1993V10.7648C121.024 9.32216 121.102 6.4669 124.364 5.9259C124.139 5.46505 123.661 4.59344 123.661 3.72184C123.661 2.34931 125.292 0.906646 127.636 0.906646C128.749 0.906646 129.824 1.01685 130.937 3.34113C131.23 3.99234 131.679 5.13444 131.826 5.8157H134.941V5.79566ZM127.929 13.2294H146.935C147.531 13.2294 147.599 13.2294 148.049 13.2694V12.2776C148.049 12.0472 147.824 11.9771 147.716 11.9771H128.222C128.115 11.9771 127.929 12.0572 127.929 12.2776V13.2294Z" stroke="var(--stroke-0, #386F6B)" stroke-width="0.631164"/>
<path id="Vector_5" d="M163.647 12.6172C161.645 12.6172 160.043 11.7757 160.043 9.34119C160.043 6.71635 161.049 5.49409 163.647 5.49409H174.303V4.20171C174.303 2.63883 174.635 0.665191 177.682 0.665191C180.729 0.665191 181.618 1.61695 181.618 4.20171V5.49409H192.234C194.276 5.49409 195.877 6.33565 195.877 8.81021C195.877 11.2848 195.028 12.6172 192.234 12.6172H189.597C188.591 17.2658 186.667 22.255 183.474 25.9819C185.739 27.2342 187.224 27.7351 192.645 29.4483C193.983 29.869 195.467 30.4802 195.467 32.8746C195.467 35.0786 194.061 36.9822 191.834 36.9822C189.9 36.9822 182.995 34.5076 177.985 30.961C173.043 34.4274 166.548 36.9822 164.096 36.9822C162.016 36.9822 160.57 35.1187 160.57 32.8746C160.57 30.6304 161.723 29.9792 163.354 29.4883C168.589 27.8553 169.556 27.5447 171.89 26.3325C172.183 26.1822 172.3 26.1021 172.525 25.9919C169.37 22.1849 167.397 17.4962 166.362 12.6272H163.657L163.647 12.6172ZM173.775 12.6172C174.224 14.4406 175.367 18.6383 177.965 21.6839C178.854 20.652 180.563 18.5983 182.126 12.6172H173.775Z" stroke="var(--stroke-0, #386F6B)" stroke-width="0.631164"/>
<path id="Vector_6" d="M214.767 5.79566C214.689 5.64538 214.503 5.07433 214.357 4.7337C214.249 4.39307 214.064 3.89215 214.064 3.29104C214.064 1.49774 216.144 0.626129 218.068 0.626129C219.699 0.626129 220.403 1.11703 221.184 2.87027C221.448 3.48139 222.004 4.66357 222.151 5.80568H224.3C224.524 5.3849 224.71 4.96413 225.306 3.25097C225.823 1.68809 226.341 0.81648 228.314 0.81648C230.619 0.81648 232.504 2.03873 232.504 3.90217C232.504 4.55337 232.093 5.31477 231.8 5.84575C233.881 6.26653 234.731 8.25019 234.731 10.7548V13.1192C234.731 15.1329 234.066 16.8861 230.648 16.5054C230.501 18.4891 229.535 19.0902 228.685 19.6312C226.868 20.8534 225.53 21.4946 224.827 21.8052H232.513C233.256 21.8052 235.893 21.8052 235.893 25.0011C235.893 27.9665 233.773 28.237 232.513 28.237H221.565V32.2344C221.565 36.883 219.631 37.454 214.767 37.454C210.421 37.454 209.942 37.3438 209.347 37.0333C208.341 36.5724 207.784 35.1698 207.784 33.8374C207.784 31.6634 209.044 30.6014 211.017 30.6014C211.388 30.6014 212.95 30.6815 213.283 30.6415C214.103 30.5613 214.103 30.1506 214.103 29.2289V28.237H203.223C202.48 28.237 199.843 28.237 199.843 25.1513C199.843 22.7169 201.035 21.8052 203.223 21.8052H214.132C214.21 21.3443 214.464 20.7733 215.509 20.3926C216.027 20.2022 216.662 19.9718 216.662 19.7113C216.662 19.561 216.554 19.4108 216.369 19.4108H207.833C206.983 19.4108 205.157 19.4108 205.01 16.5154C202.119 16.8561 200.849 15.6037 200.849 13.1993V10.7648C200.849 9.32216 200.928 6.4669 204.19 5.9259C203.965 5.46505 203.486 4.59344 203.486 3.72184C203.486 2.34931 205.117 0.906646 207.461 0.906646C208.575 0.906646 209.649 1.01685 210.763 3.34113C211.056 3.99234 211.505 5.13444 211.651 5.8157H214.767V5.79566ZM207.755 13.2294H226.761C227.357 13.2294 227.425 13.2294 227.874 13.2694V12.2776C227.874 12.0472 227.65 11.9771 227.542 11.9771H208.048C207.94 11.9771 207.755 12.0572 207.755 12.2776V13.2294Z" stroke="var(--stroke-0, #386F6B)" stroke-width="0.631164"/>
<path id="Vector_7" d="M259.802 19.129C259.245 20.0407 258.61 20.2711 257.389 20.2711H242.544C240.913 20.2711 239.682 19.7401 239.682 16.955C239.682 13.9494 241.645 13.9494 242.915 13.9494C242.807 13.148 242.465 11.0942 242.358 10.6033C240.727 10.1825 240.356 8.5094 240.356 7.51757C240.356 4.74246 242.319 4.36175 243.511 4.36175H246.48V3.2998C246.48 1.01558 248.228 0.674957 250.045 0.674957C251.529 0.674957 253.092 1.20594 253.092 3.2998V4.36175H256.325C258.327 4.36175 259.44 5.42371 259.44 7.55765C259.44 8.93018 258.776 10.2226 257.506 10.5632C257.213 11.9758 257.057 12.617 256.686 13.9494H257.389C258.542 13.9494 259.167 14.1398 259.802 15.0515V6.74615C259.802 2.81891 260.622 1.71688 264.705 1.71688H270.047C272.537 1.71688 275.243 1.71688 275.243 6.05488C275.243 7.91831 274.764 9.48119 274.423 10.4329C273.866 12.106 272.899 14.3201 272.42 15.3119C272.01 16.1134 271.971 16.1836 271.971 16.3739C271.971 16.6043 272.049 16.6444 272.606 17.2856C274.237 19.1089 275.868 22.6154 275.868 26.8833C275.868 33.776 271.483 33.776 269.705 33.776C267.254 33.776 266.775 33.3552 266.472 33.0947V33.9363C266.472 36.6012 265.32 37.4027 262.868 37.4027C260.007 37.4027 259.792 35.2287 259.792 33.9363V19.119L259.802 19.129ZM254.088 21.5234C258.024 21.5234 258.62 22.8158 258.62 26.212V32.153C258.62 35.96 257.77 36.8416 254.088 36.8416H245.435C241.948 36.8416 240.942 36.0001 240.942 32.153V26.212C240.942 22.6655 241.723 21.5234 245.435 21.5234H254.088ZM252.271 27.805C252.271 27.6146 252.125 27.4643 251.939 27.4643H247.671C247.447 27.4643 247.339 27.6146 247.339 27.805V30.3597C247.339 30.51 247.417 30.7003 247.671 30.7003H251.939C252.164 30.7003 252.271 30.51 252.271 30.3597V27.805ZM248.443 10.7135C248.589 11.7754 248.814 13.5687 248.814 13.9494H250.523C250.709 13.3784 250.972 12.5068 251.119 10.7135H248.443ZM266.482 14.6708C266.668 14.2099 268.338 9.53129 268.338 8.84001C268.338 8.53946 268.113 8.34911 267.859 8.34911H266.931C266.638 8.34911 266.482 8.53946 266.482 8.80996V14.6708ZM266.482 27.4243C266.931 27.0836 267.302 27.0035 267.967 26.9634C268.484 26.9234 268.67 26.4324 268.67 25.1C268.67 21.5935 267.371 19.9204 266.482 18.8184V27.4243Z" stroke="var(--stroke-0, #386F6B)" stroke-width="0.631164"/>
<path id="Vector_8" d="M284.569 19.7715C282.791 19.7715 281.15 18.9299 281.15 16.3451C281.15 14.5518 281.854 12.8787 284.569 12.8787H310.929C313.117 12.8787 314.348 14.0609 314.348 16.3051C314.348 18.2086 313.498 19.7715 310.929 19.7715H302.247C302.061 22.3262 301.583 29.1788 295.42 33.1762C292.636 34.9995 288.993 36.1817 287.177 36.1817C284.618 36.1817 283.758 33.5168 283.758 32.2244C283.758 30.7016 284.725 29.6697 286.278 29.2189C291.034 27.8864 294.404 26.8946 294.931 19.7715H284.579H284.569ZM305.206 3.40127C306.427 3.40127 308.546 3.82205 308.546 6.78751C308.546 9.56263 306.837 10.2539 305.206 10.2539H287.499C286.757 10.2539 284.12 10.2138 284.12 6.86766C284.12 4.62352 285.272 3.40127 287.499 3.40127H305.206ZM307.921 2.48959C307.814 2.21909 307.814 1.99869 307.814 1.83839C307.814 0.65621 309.113 0.505933 309.406 0.505933C310.109 0.505933 310.519 0.846561 311.037 2.25917C311.115 2.52966 311.818 4.58345 311.818 5.64541C311.818 7.08807 310.373 7.08807 310.256 7.08807C309.367 7.08807 309.103 6.55709 308.957 5.98604C308.878 5.71554 308.546 4.46323 308.478 4.19273C308.4 3.92223 307.999 2.75007 307.921 2.47957V2.48959ZM312.15 2.29924C312.043 2.02874 312.043 1.80833 312.043 1.64804C312.043 0.465859 313.342 0.315582 313.635 0.315582C314.338 0.315582 314.748 0.65621 315.266 2.10889C315.344 2.33931 316.047 4.3931 316.047 5.45506C316.047 6.89772 314.602 6.89772 314.455 6.89772C313.606 6.89772 313.342 6.36674 313.195 5.83576C313.117 5.53521 312.785 4.27288 312.717 4.0124C312.639 3.7419 312.238 2.56974 312.16 2.29924H312.15Z" stroke="var(--stroke-0, #386F6B)" stroke-width="0.631164"/>
<path id="Vector_9" d="M328.343 20.6531C327.376 20.1922 326.594 19.8917 324.143 19.0501C322.844 18.5892 321.096 17.9881 321.096 15.8141C321.096 14.672 321.76 11.967 324.367 11.967C326.038 11.967 330.013 13.57 331.868 14.3615C334.203 15.3533 335.658 15.9644 335.658 18.1284C335.658 19.7314 334.623 22.1258 332.279 22.1258C331.536 22.1258 331.429 22.0456 328.343 20.643V20.6531ZM353.287 11.8969C353.287 13.8806 350.054 22.6367 344.155 28.1168C340.297 31.7335 336.097 33.5969 330.755 34.8993C329.905 35.0897 327.893 35.5505 326.672 35.5505C323.996 35.5505 323.215 32.9257 323.215 31.4029C323.215 28.5476 325.559 28.0868 326.672 27.8964C333.285 26.7142 340.444 25.1914 344.936 14.1911C346.646 9.96334 346.753 9.73292 347.456 9.16187C347.681 8.97151 348.12 8.70102 349.419 8.70102C350.24 8.70102 353.277 9.42235 353.277 11.8969H353.287ZM331.575 10.865C330.608 10.4442 329.827 10.1036 327.385 9.26205C326.047 8.8012 324.338 8.20009 324.338 6.06616C324.338 4.88398 325.002 2.17899 327.6 2.17899C329.27 2.17899 333.245 3.812 335.062 4.58343C337.435 5.61533 338.852 6.18638 338.852 8.35037C338.852 9.95333 337.846 12.3477 335.511 12.3477C334.769 12.3477 334.662 12.2676 331.575 10.865ZM346.314 2.79012C346.235 2.51962 346.206 2.29921 346.206 2.10886C346.206 0.966757 347.505 0.81648 347.837 0.81648C348.54 0.81648 348.951 1.15711 349.429 2.56971C349.537 2.84021 350.25 4.85392 350.25 5.95596C350.25 7.39862 348.804 7.39862 348.658 7.39862C347.808 7.39862 347.583 6.86764 347.398 6.29658C347.319 6.02608 346.987 4.7337 346.919 4.50328C346.812 4.20272 346.401 3.02054 346.323 2.79012H346.314ZM350.543 2.59977C350.464 2.32927 350.435 2.10886 350.435 1.91851C350.435 0.776406 351.734 0.626129 352.066 0.626129C352.769 0.626129 353.18 0.966757 353.658 2.37936C353.766 2.64986 354.479 4.66357 354.479 5.7656C354.479 7.20826 353.033 7.20826 352.887 7.20826C352.037 7.20826 351.812 6.67729 351.627 6.10623C351.549 5.83573 351.216 4.54335 351.148 4.31293C351.041 4.01237 350.63 2.83019 350.552 2.59977H350.543Z" stroke="var(--stroke-0, #386F6B)" stroke-width="0.631164"/>
<path id="Vector_10" d="M385.743 5.98543C389.083 5.98543 390.128 7.77873 390.128 10.093C390.128 10.8945 389.2 22.586 380.176 29.8594C374.863 34.1273 366.698 36.0709 364.803 36.0709C362.615 36.0709 361.355 34.2776 361.355 32.1437C361.355 29.6691 362.762 29.3685 365.067 28.8275C367.186 28.3667 372.118 27.2246 375.419 24.72C373.564 23.2372 373.271 23.0469 370.409 21.2937C369.559 20.7627 368.514 20.1515 368.514 18.6287C368.514 17.6369 369.032 16.9156 369.257 16.575C365.467 20.2718 363.943 20.7627 362.83 20.7627C360.828 20.7627 359.304 18.7089 359.304 16.9957C359.304 15.513 359.714 15.2024 362.976 12.7679C365.428 10.9746 367.577 8.04923 369.432 4.62292C370.624 2.48898 371.142 1.5773 373.222 1.5773C374.814 1.5773 377.226 2.41885 377.226 4.62292C377.226 5.19397 377.041 5.65482 376.933 5.99545H385.733L385.743 5.98543ZM372.675 12.8481C371.933 13.7598 371.522 14.2907 370.223 15.6633C370.858 15.1724 371.522 14.982 372.187 14.982C374.15 14.982 378.271 17.6069 380.127 19.1297C381.504 16.575 382.246 13.6796 382.246 13.1887C382.246 12.8481 382.139 12.8481 381.465 12.8481H372.665H372.675Z" stroke="var(--stroke-0, #386F6B)" stroke-width="0.631164"/>
<path id="Vector_11" d="M409.279 13.8693C409.279 20.9524 409.132 26.2822 406.124 31.5018C404.903 33.5957 403.302 35.5393 401.407 35.5393C399.698 35.5393 397.246 34.0966 397.246 31.612C397.246 30.8106 397.393 30.1694 398.467 28.8369C401.807 24.6893 402.032 22.5954 402.032 13.6088V6.3755C402.032 4.36178 403.038 3.02933 405.636 3.02933C407.824 3.02933 409.279 3.90093 409.279 6.3755V13.8793V13.8693ZM412.141 5.95472C412.141 3.97106 413.068 2.60855 415.705 2.60855C417.825 2.60855 419.339 3.41003 419.339 5.95472V25.7612C419.339 25.9917 419.339 26.2221 419.632 26.2221C420.267 26.2221 423.304 24.2785 425.013 18.7984C425.492 17.2756 425.98 15.7127 428.129 15.7127C428.91 15.7127 432.133 16.1736 432.133 18.9888C432.133 20.8522 430.756 24.4689 428.979 27.1338C425.004 33.1549 418.841 35.3589 415.872 35.3589C412.121 35.3589 412.121 32.123 412.121 31.2514V5.95472H412.141Z" stroke="var(--stroke-0, #386F6B)" stroke-width="0.631164"/>
<path id="Vector_12" d="M446.12 31.3518C444.782 33.6761 443.854 34.9685 441.959 34.9685C440.065 34.9685 437.877 33.1051 437.877 31.1214C437.877 30.0194 438.248 29.2981 438.912 28.2661C443.483 21.0729 444.44 14.6711 445.446 6.29564C445.554 5.34389 445.856 3.05968 448.64 3.05968C449.675 3.05968 451.013 3.44038 451.716 4.09158C452.566 4.85298 452.566 5.57431 452.566 7.21734C452.566 8.58987 451.228 22.2951 446.11 31.3619L446.12 31.3518ZM463.857 6.90677C464.863 15.0217 465.859 21.1831 470.312 28.2661C471.055 29.4083 471.348 30.0895 471.348 31.0813C471.348 33.2553 469.082 34.9685 467.265 34.9685C465.673 34.9685 464.443 34.2071 462.255 29.7088C457.762 20.5319 456.61 8.18913 456.61 6.47597C456.61 5.82477 456.61 4.49232 458.055 3.70086C459.354 2.93945 460.917 3.04966 461.21 3.08973C463.398 3.43036 463.622 5.22367 463.847 6.89675L463.857 6.90677ZM468.496 9.19098C466.191 9.19098 464.306 7.2474 464.306 4.88304C464.306 2.51868 466.201 0.585113 468.496 0.585113C470.791 0.585113 472.696 2.48862 472.696 4.88304C472.696 7.27745 470.84 9.19098 468.496 9.19098ZM468.496 3.20995C467.607 3.20995 466.904 3.97136 466.904 4.88304C466.904 5.79472 467.607 6.51605 468.496 6.51605C469.385 6.51605 470.127 5.79472 470.127 4.88304C470.127 3.97136 469.424 3.20995 468.496 3.20995Z" stroke="var(--stroke-0, #386F6B)" stroke-width="0.631164"/>
<path id="Vector_13" d="M489.928 7.12846C492.379 8.65127 493.493 9.52287 493.493 11.3162C493.493 13.1095 491.901 15.6943 489.635 15.6943C489.078 15.6943 488.56 15.584 487.408 14.8226C484.068 12.6186 483.394 12.1177 480.581 10.5949C479.204 9.83345 477.944 9.11212 477.944 7.31881C477.944 5.07467 479.761 3.32144 481.88 3.32144C483.404 3.32144 488.453 6.21678 489.938 7.12846H489.928ZM497.907 29.68C491.705 33.978 483.687 35.09 482.612 35.09C479.829 35.09 479.048 32.4652 479.048 30.7921C479.048 27.8567 481.011 27.4459 482.945 27.1754C492.633 25.8029 498.425 21.9959 502.361 11.9473C502.546 11.4865 503.181 9.55293 503.328 9.17223C503.699 8.26055 504.178 7.07837 506.111 7.07837C508.26 7.07837 510.301 8.14033 510.301 10.5848C510.301 11.8772 507.332 23.1881 497.898 29.7001L497.907 29.68Z" stroke="var(--stroke-0, #386F6B)" stroke-width="0.631164"/>
<path id="Vector_14" d="M542.61 4.24332C547.21 4.24332 547.249 7.28893 547.249 8.62139C547.249 10.2243 546.36 16.7664 543.83 21.6053C540.305 28.3077 534.923 31.7741 529.835 33.8679C529.502 34.0182 526.006 35.4709 523.818 35.4709C521.113 35.4709 520.331 32.6156 520.331 31.3232C520.331 29.039 522.041 28.5481 523.857 28.0071C533.214 25.3021 537.296 20.6536 538.888 13.5405C539.152 12.4785 539.152 12.0978 539.152 12.0177C539.152 11.5969 538.888 11.5568 538.556 11.5568H520.331C519.589 11.5568 516.727 11.5568 516.727 7.94013C516.727 5.38542 518.105 4.24332 520.331 4.24332H542.61Z" stroke="var(--stroke-0, #386F6B)" stroke-width="0.631164"/>
<path id="Vector_15" d="M557.168 5.91474C557.168 3.48025 558.467 2.21793 560.84 2.21793C563.213 2.21793 564.551 3.44018 564.551 5.91474V26.8934C564.551 27.3843 564.63 27.5747 565.108 27.5747C565.518 27.5747 568.966 27.0437 571.535 25.5209C576.252 22.6656 578.176 18.6282 579.846 15.1618C580.549 13.639 581.477 13.2984 582.522 13.2984C584.192 13.2984 586.79 14.4805 586.79 16.7647C586.79 18.3978 583.821 25.9016 577.102 30.7004C570.236 35.5794 562.403 35.6095 561.885 35.6095C557.353 35.6095 557.168 32.8644 557.168 31.3416V5.91474Z" stroke="var(--stroke-0, #386F6B)" stroke-width="0.631164"/>
<path id="Vector_16" d="M594.782 20.5313C594.225 18.3573 594.118 18.0167 593.004 14.9711C592.858 14.5904 592.672 14.0995 592.672 13.4483C592.672 11.3143 594.792 10.4027 596.276 10.4027C598.064 10.4027 598.728 11.5448 599.285 12.7971C600.105 14.7407 601.511 18.9284 601.511 20.2208C601.511 21.9339 600.066 23.3766 597.468 23.3766C595.505 23.3766 595.016 21.3629 594.792 20.5213L594.782 20.5313ZM612.792 29.0671C607.928 34.1364 601.472 35.7294 599.949 35.7294C597.575 35.7294 596.755 33.365 596.755 32.1127C596.755 30.0589 598.132 29.6381 600.242 28.9569C604.178 27.7046 610.526 25.6408 612.714 14.901C613.271 12.1258 613.31 11.8153 613.642 11.2041C614.238 10.062 615.234 9.76148 616.24 9.76148C616.611 9.76148 619.951 9.76148 619.951 12.9574C619.951 13.3381 618.838 22.7454 612.792 29.0671ZM603.064 18.8583C602.732 17.0649 602.429 15.8126 601.765 13.7588C601.433 12.8071 601.316 12.3462 601.316 11.8153C601.316 9.68133 603.357 8.80972 604.842 8.80972C606.844 8.80972 607.479 10.062 607.958 11.3945C608.778 13.5685 609.774 17.6059 609.774 18.6679C609.774 21.2927 607.069 22.0141 605.584 21.8237C603.582 21.5532 603.25 19.9202 603.064 18.8583Z" stroke="var(--stroke-0, #386F6B)" stroke-width="0.631164"/>
<path id="Vector_17" d="M637.364 32.4153C637.364 33.6375 637.286 36.2223 633.575 36.2223C629.863 36.2223 629.746 33.8279 629.746 32.4153V5.53572C629.746 4.35354 629.785 1.68863 633.536 1.68863C637.286 1.68863 637.364 4.05299 637.364 5.53572V10.9056C643.488 12.8492 649.026 15.5542 650.803 16.5059C653.069 17.6881 653.997 18.6399 653.997 20.4632C653.997 22.2866 652.698 24.9615 650.208 24.9615C649.094 24.9615 648.948 24.8513 645.197 22.5972C644.123 21.946 640.705 20.0124 637.364 18.71V32.4153Z" stroke="var(--stroke-0, #386F6B)" stroke-width="0.631164"/>
</g>
</svg>
