<svg preserveAspectRatio="none" width="100%" height="100%" overflow="visible" style="display: block;" viewBox="0 0 9.57448 17.3909" fill="none" xmlns="http://www.w3.org/2000/svg">
<path id="Vector" d="M8.89116 0.674803L2.42296 0.0035822C2.00307 -0.0364917 1.62309 0.264055 1.5831 0.684831L0.00357399 15.8728C-0.0364151 16.2936 0.263557 16.6743 0.683442 16.7144L7.15165 17.3856C7.57153 17.4357 7.95139 17.1251 7.99138 16.7044L9.57091 1.51632C9.6109 1.09554 9.31105 0.714877 8.89116 0.674803ZM4.9822 6.87624C3.98247 6.77605 3.25267 5.87439 3.36264 4.87254C3.46261 3.8707 4.36237 3.14937 5.3621 3.24956C6.36182 3.34974 7.09162 4.2514 6.98165 5.25325C6.88168 6.2551 5.98192 6.97642 4.9822 6.87624Z" fill="var(--fill-0, #F4C058)"/>
</svg>
