<svg preserveAspectRatio="none" width="100%" height="100%" overflow="visible" style="display: block;" viewBox="0 0 2.79446 1.16573" fill="none" xmlns="http://www.w3.org/2000/svg">
<path id="Vector" d="M2.53107 1.12568C2.4411 1.16575 2.32115 1.17574 2.18119 1.1557C1.98125 1.11563 1.8213 0.955362 1.8113 0.744974L1.22149 0.664809C1.1815 0.775012 1.09155 0.865178 0.991576 0.915271C0.911598 0.955344 0.821622 0.965341 0.741644 0.955322C0.631674 0.945304 0.521626 0.925289 0.411656 0.915271C0.291689 0.905252 0.181783 0.845158 0.101805 0.744974C0.0218265 0.644789 -0.00814084 0.534559 0.00185642 0.404319C0.021851 0.244023 0.111836 0.113798 0.261795 0.0436684C0.341773 0.00359455 0.421742 -0.00640191 0.50172 0.00361656C0.621687 0.013635 0.731632 0.03365 0.8516 0.0436684C1.06154 0.0737238 1.22151 0.234044 1.24151 0.444432L1.84132 0.514507C1.88131 0.404304 1.97127 0.304171 2.08124 0.254078C2.16122 0.214004 2.25121 0.203947 2.34118 0.213965C2.41116 0.213965 2.4712 0.244028 2.52119 0.284102C2.74113 0.394305 2.83099 0.614741 2.781 0.81511C2.781 0.81511 2.72103 1.02548 2.54108 1.10562L2.53107 1.12568Z" fill="var(--fill-0, #3C3D3D)"/>
</svg>
