<svg preserveAspectRatio="none" width="100%" height="100%" overflow="visible" style="display: block;" viewBox="0 0 383.777 37.0889" fill="none" xmlns="http://www.w3.org/2000/svg">
<g id="Group">
<path id="Vector" d="M3.60396 12.3126C1.60176 12.3126 0 11.4813 0 9.04681C0 6.42197 0.996209 5.19963 3.59418 5.19963H14.2498V3.88715C14.2498 2.32427 14.5818 0.34082 17.6193 0.34082C20.5103 0.34082 21.5553 1.28234 21.5553 3.87713V5.16955L32.1719 5.15952C34.2132 5.15952 35.8149 5.9911 35.8149 8.46566C35.8149 10.9002 34.9652 12.2727 32.1816 12.2828H29.5446C28.5484 16.9313 26.6244 21.9206 23.4404 25.6575C25.7063 26.9098 27.1908 27.4004 32.6114 29.1136C33.9494 29.5344 35.434 30.1354 35.434 32.5398C35.434 34.7539 34.0276 36.6578 31.8008 36.6578C29.867 36.6578 22.9618 34.193 17.9417 30.6565C13.0094 34.1329 6.51445 36.6876 4.06297 36.6876C1.98264 36.6876 0.537154 34.8241 0.527387 32.5799C0.527387 30.3759 1.67008 29.685 3.31091 29.184C8.54593 27.541 9.51289 27.2305 11.8472 26.0083C12.1402 25.858 12.2573 25.7775 12.482 25.6673C9.31752 21.8603 7.34461 17.1816 6.29956 12.3126H3.59418H3.60396ZM13.7419 12.2925C14.1911 14.1159 15.3437 18.3037 17.9514 21.3493C18.8402 20.3174 20.5494 18.2638 22.1023 12.2828H13.7516L13.7419 12.2925Z" fill="var(--fill-0, #F4C058)"/>
<path id="Vector_2" d="M54.722 5.42068C54.6439 5.27041 54.4583 4.69929 54.3118 4.35867C54.2044 4.01804 54.0188 3.52719 54.0091 2.91606C54.0091 1.12276 56.0796 0.251229 58.0134 0.241211C59.6445 0.241211 60.3575 0.732106 61.1388 2.48534C61.4025 3.09647 61.9592 4.27858 62.1057 5.42068H64.2545C64.4791 4.99991 64.6647 4.57908 65.2507 2.86592C65.7683 1.30304 66.2859 0.431493 68.2588 0.421475C70.5638 0.421475 72.4586 1.63378 72.4586 3.49721C72.4586 4.14841 72.0484 4.90976 71.7554 5.44074C73.8357 5.86151 74.6854 7.83506 74.6952 10.3497V12.7144C74.6952 14.7281 74.0311 16.481 70.6224 16.1103C70.4759 18.094 69.509 18.7052 68.6593 19.2362C66.8427 20.4584 65.5046 21.1096 64.8014 21.4101H72.4879C73.2302 21.4001 75.8672 21.4003 75.8672 24.5962C75.8672 27.5616 73.7576 27.8319 72.4879 27.8419H61.5393V31.8596C61.5393 36.5081 59.6152 37.0789 54.7514 37.0889C50.4051 37.0889 49.9265 36.9791 49.3307 36.6785C48.3247 36.2277 47.7681 34.8151 47.7681 33.4827C47.7681 31.3087 49.028 30.2467 50.9911 30.2467C51.3622 30.2467 52.9249 30.3164 53.257 30.2864C54.0677 30.2062 54.0677 29.7858 54.0677 28.8741V27.882L43.1874 27.8923C42.4451 27.8923 39.8081 27.892 39.8081 24.8163C39.8081 22.3818 40.9899 21.4605 43.1874 21.4605H54.0969C54.1751 20.9896 54.429 20.4182 55.4643 20.0375C55.982 19.8471 56.6168 19.6168 56.6168 19.3463C56.6168 19.196 56.5094 19.0459 56.3238 19.0459H47.7876C46.9379 19.0559 45.1115 19.0558 44.965 16.1705C42.074 16.5211 40.8043 15.259 40.8043 12.8646V10.4299C40.8043 8.98726 40.8727 6.12214 44.1348 5.59116C43.9102 5.13031 43.4316 4.25851 43.4218 3.3869C43.4218 2.01437 45.0529 0.571889 47.3871 0.561871C48.5006 0.561871 49.5749 0.672005 50.6981 2.99629C50.9911 3.64749 51.4404 4.78957 51.5966 5.47082H54.7123L54.722 5.42068ZM47.7095 12.8646L66.7157 12.8445C67.3115 12.8445 67.3798 12.8446 67.8291 12.8846V11.8926C67.8291 11.6622 67.6045 11.5922 67.4971 11.5922L48.0024 11.6221C47.895 11.6221 47.7095 11.7025 47.7095 11.9229V12.8744V12.8646Z" fill="var(--fill-0, #F4C058)"/>
<path id="Vector_3" d="M99.7777 18.6944C99.221 19.6061 98.5959 19.8367 97.3653 19.8367L82.5197 19.8567C80.8886 19.8567 79.658 19.3255 79.658 16.5504C79.658 13.5448 81.6211 13.545 82.8811 13.535C82.7639 12.7336 82.4318 10.6797 82.3146 10.1888C80.6835 9.76799 80.3124 8.09508 80.3026 7.10325C80.3026 4.32813 82.2657 3.93725 83.4573 3.93725H86.4264V2.86521C86.4264 0.580998 88.1649 0.240487 89.9816 0.230469C91.4661 0.230469 93.0288 0.761321 93.0288 2.85518V3.9172H96.2616C98.2638 3.9172 99.387 4.9791 99.387 7.11303C99.387 8.48556 98.7229 9.77795 97.4629 10.1286C97.1699 11.5412 97.0234 12.1825 96.6523 13.515H97.3555C98.508 13.515 99.133 13.7054 99.7679 14.6171V6.31175C99.7484 2.38451 100.569 1.28246 104.651 1.28246H109.994C112.484 1.27244 115.19 1.27226 115.199 5.61026C115.199 7.4737 114.721 9.0367 114.389 9.98845C113.832 11.6615 112.875 13.8757 112.387 14.8676C111.976 15.669 111.947 15.7392 111.947 15.9296C111.947 16.16 112.025 16.1997 112.582 16.8409C114.213 18.6643 115.854 22.1708 115.864 26.4387C115.864 33.3314 111.488 33.3315 109.711 33.3416C107.259 33.3416 106.78 32.9306 106.478 32.6601V33.502C106.478 36.1669 105.335 36.9684 102.884 36.9684C100.022 36.9684 99.7972 34.8044 99.7972 33.502L99.7777 18.6847V18.6944ZM94.0641 21.0988C98.0001 21.0988 98.5959 22.3911 98.5959 25.7773V31.7185C98.6056 35.5255 97.7559 36.4073 94.0836 36.4073H85.4302C81.9434 36.4273 80.9375 35.5856 80.9277 31.7385V25.7974C80.9179 22.2508 81.6992 21.1091 85.4106 21.1091H94.0641V21.0988ZM92.2474 27.3907C92.2474 27.2003 92.101 27.0497 91.9154 27.0497H87.6473C87.4226 27.0497 87.3152 27.2101 87.3152 27.4004V29.9554C87.3152 30.1057 87.3934 30.2959 87.6571 30.2959H91.9252C92.1498 30.2959 92.2572 30.0954 92.2572 29.9452V27.3907H92.2474ZM88.3993 10.2888C88.5458 11.3508 88.7704 13.1441 88.7704 13.5248H90.4796C90.6652 12.9537 90.9192 12.0721 91.0657 10.2888H88.3896H88.3993ZM106.448 14.2262C106.634 13.7654 108.294 9.0867 108.294 8.39543C108.294 8.09487 108.07 7.90453 107.806 7.90453H106.878C106.585 7.90453 106.429 8.09484 106.429 8.36534V14.2262H106.448ZM106.468 26.99C106.917 26.6494 107.288 26.5688 107.952 26.5287C108.47 26.4886 108.656 25.9979 108.656 24.6654C108.656 21.1589 107.347 19.4858 106.458 18.3838V26.99H106.468Z" fill="var(--fill-0, #F4C058)"/>
<path id="Vector_4" d="M129.029 15.6898C126.47 18.8556 125.357 19.5069 124.175 19.5069C121.948 19.5069 119.79 17.1927 119.79 14.9085C119.79 13.6562 120.083 13.3856 122.905 10.4902C125.982 7.28432 126.832 5.80168 128.648 2.56571C129.762 0.582055 130.172 0.161133 131.686 0.161133C133.649 0.161133 135.993 1.2932 135.993 3.39708C135.993 5.11024 133.258 10.4501 129.029 15.7098V15.6898ZM140.505 21.9112C140.505 19.6971 142.879 18.2548 144.734 18.2448C146.111 18.2448 146.854 18.9256 147.41 19.5768C148.377 20.6388 150.682 24.2154 151.386 25.3575C154.403 30.2665 154.775 31.7493 154.775 32.9315C154.775 35.3259 152.177 36.6684 150.067 36.6684C148.026 36.6684 147.469 35.6065 146.531 33.5127C144.305 33.8533 127.525 35.4063 124.107 35.4063C123.179 35.4063 120.952 35.4062 120.942 31.529C120.942 28.2129 123.355 28.1027 125.357 28.0226C127.427 23.905 128.023 22.3819 130.758 15.2588C131.94 12.2132 132.272 11.3717 134.391 11.3717C135.876 11.3717 138.737 11.9328 138.737 14.4174C138.737 15.289 138.327 16.4013 137.263 18.9159C135.036 24.0253 133.971 26.1192 133.082 27.7222C139.353 27.3716 141.208 27.2512 143.103 27.0608C140.945 23.7547 140.495 23.1838 140.495 21.9215L140.505 21.9112ZM143.269 0.171161C144.939 0.171161 145.574 0.932663 146.463 2.5256C146.951 3.35713 149.256 7.32452 152.186 10.3601C155.351 13.7063 155.458 13.8263 155.458 15.1888C155.458 17.433 153.388 19.6473 151.454 19.6473C150.194 19.6473 148.963 18.9659 146.287 15.5797C141.599 9.71889 139.333 4.8098 139.333 3.51742C139.333 0.812431 142.078 0.161133 143.26 0.161133L143.269 0.171161Z" fill="var(--fill-0, #F4C058)"/>
<path id="Vector_5" d="M166.055 22.2209H163.349C161.415 22.2209 160.048 21.3495 160.038 18.915C160.038 16.5907 160.849 15.2579 163.339 15.2579L175.773 15.2383C176.993 15.2383 178.292 15.5788 178.82 17.0615C178.673 14.7773 178.556 13.5951 178.478 12.5732L163.222 12.5933C161.034 12.5933 159.765 11.5313 159.765 9.28714C159.765 7.04301 160.614 5.67036 163.212 5.66034L178.214 5.64028C178.136 3.39614 178.175 2.55479 178.39 1.83346C178.908 0.230503 180.617 0 181.691 0C182.658 0 184.289 0.260334 184.924 1.10189C185.442 1.78314 185.481 2.62479 185.481 3.95725V5.63025H187.122C187.043 5.28963 186.858 4.79891 186.79 4.56848C186.457 3.57665 186.301 3.34616 186.301 2.74505C186.301 0.761394 188.45 0.0802163 190.013 0.0701978C191.644 0.0701978 192.171 0.901614 192.542 1.70309C192.806 2.23407 193.363 4.09753 193.363 4.97915C193.363 5.35985 193.284 5.59033 193.216 5.78068C195.072 6.20145 195.443 7.75418 195.443 8.89629C195.443 11.1404 194.632 12.5532 192.034 12.5532H185.725C185.91 16.2199 186.106 19.606 186.702 23.1826C187.073 25.3867 187.561 27.6709 188.782 27.6709C189.339 27.6709 189.788 27.4006 190.188 27.1401C191.448 26.2284 191.741 26.0377 192.747 26.0277C194.496 26.0277 196.088 27.5106 196.097 30.2156C196.097 31.9689 195.169 33.8326 193.802 34.7543C191.985 35.9364 190.686 36.778 188.684 36.778C180.929 36.788 179.611 24.9458 179.044 19.3455C178.898 20.3774 178.644 22.2008 175.782 22.2008H173.145V27.9214C173.927 27.8412 175.079 27.6908 175.782 27.5706C176.046 27.5305 176.857 27.3803 177.491 27.3803C179.24 27.3803 180.021 29.1639 180.021 30.9572C180.021 33.6622 178.39 34.0025 175.567 34.5835C171.524 35.385 163.73 36.4674 162.499 36.4674C159.901 36.4674 159.491 33.4217 159.491 32.3597C159.491 31.1074 159.901 29.5444 162.05 29.1937C162.314 29.1536 165.722 28.773 166.055 28.7329V22.2209Z" fill="var(--fill-0, #F4C058)"/>
<path id="Vector_6" d="M204.137 9.79786C201.461 9.79786 200.612 8.05461 200.602 6.26131C200.602 4.04722 201.784 2.68463 204.128 2.67462L228.74 2.64453C229.707 2.64453 233.311 2.67463 233.311 6.44157C233.311 12.5328 226.24 21.1486 222.753 21.1586C221.005 21.1586 219.706 19.716 219.335 18.4236C219.149 19.9064 218.67 23.9841 216.268 27.721C213.494 32.029 208.337 35.3447 205.807 35.3547C204.03 35.3547 202.243 33.5317 202.243 31.3977C202.243 30.5963 202.428 29.534 203.796 28.8026C210.662 25.1759 212.107 22.6213 212.351 14.5865C212.39 13.4444 212.498 10.9702 215.838 10.9602C219.628 10.9602 219.588 13.6549 219.52 15.7488C219.852 15.1777 220.038 15.0674 220.927 14.4162C223.446 12.5829 224.638 10.2587 224.628 9.99818C224.628 9.76775 224.482 9.76777 224.218 9.76777L204.137 9.79786Z" fill="var(--fill-0, #F4C058)"/>
<path id="Vector_7" d="M265.394 7.54461C270.815 7.54461 270.854 11.1212 270.864 14.0165C270.864 17.4027 270.542 25.3975 269.838 28.8339C268.657 34.5444 265.58 35.1955 261.156 35.2055C257.444 35.2055 254.143 35.2054 254.133 31.1379C254.133 28.9639 255.169 27.6315 257.356 27.6315C257.874 27.6315 260.14 27.8521 260.589 27.8521C262.63 27.8521 262.855 27.2809 263.148 24.7663C263.548 21.5303 263.695 16.461 263.695 16.0403C263.695 14.9382 263.695 14.5174 262.953 14.5174H257.493C256.497 21.871 253.205 28.7334 247.57 33.3118C246.164 34.454 244.825 35.2155 243.595 35.2255C241.886 35.2255 239.991 33.4021 239.991 31.3483C239.991 29.7453 241.065 28.9138 242.218 28.0722C245.226 25.8581 248.967 22.8426 250.295 14.5473H243.868C242.941 14.5473 240.157 14.5576 240.157 11.0912C240.157 7.70494 242.716 7.58472 243.868 7.58472H250.773C250.842 3.91796 250.842 3.7275 251.106 2.9661C251.555 1.78392 252.59 1.10279 254.329 1.09277C258.118 1.09277 258.118 3.48699 258.118 4.8996C258.118 5.13002 258.118 6.15206 258.05 7.56467H265.404L265.394 7.54461Z" fill="var(--fill-0, #F4C058)"/>
<path id="Vector_8" d="M291.423 4.42943C291.423 2.9467 291.824 1.00318 295.056 0.993164C297.322 0.993164 298.768 1.82462 298.768 4.4194V6.02246H305.048C308.535 6.02246 310.429 7.38513 310.439 11.1921C310.439 16.0711 309.345 24.1057 303.446 29.2552C299.959 32.3109 295.623 34.0242 291.16 34.9058C290.085 35.1362 288.854 35.3265 287.927 35.3265C284.997 35.3265 284.362 32.6313 284.362 31.369C284.362 28.8143 286.257 28.4335 287.145 28.2832C292.048 27.4417 294.978 26.9412 298.348 24.2362C302.059 21.2207 302.938 16.3517 302.938 13.7168C302.938 13.5265 302.938 12.915 302.079 12.915L288.083 12.9351C287.526 12.9351 287.233 13.2759 287.233 13.8469V18.0745C287.233 19.978 286.423 21.501 283.678 21.511C281.676 21.511 280.045 20.7897 280.035 18.0847V11.653C280.025 7.04446 282.438 6.05254 285.436 6.05254H291.413V4.44949L291.423 4.42943Z" fill="var(--fill-0, #F4C058)"/>
<path id="Vector_9" d="M329.818 6.39248C332.27 7.91529 333.383 8.78683 333.383 10.5801C333.383 12.3734 331.791 14.9586 329.525 14.9686C328.969 14.9686 328.451 14.8583 327.299 14.0969C323.958 11.8928 323.284 11.4017 320.462 9.87889C319.085 9.11749 317.825 8.39615 317.825 6.61286C317.825 4.36872 319.641 2.61549 321.751 2.60547C323.275 2.60547 328.324 5.49083 329.809 6.40251L329.818 6.39248ZM337.827 28.9343C331.635 33.2422 323.616 34.3642 322.542 34.3642C319.759 34.3642 318.977 31.7393 318.977 30.0663C318.977 27.1308 320.94 26.71 322.874 26.4395C332.563 25.0569 338.345 21.2399 342.271 11.1813C342.457 10.7205 343.082 8.77688 343.228 8.39617C343.599 7.48449 344.078 6.30247 346.012 6.30247C348.16 6.30247 350.211 7.36442 350.211 9.79891C350.211 11.0913 347.262 22.4022 337.837 28.9343H337.827Z" fill="var(--fill-0, #F4C058)"/>
<path id="Vector_10" d="M367.163 31.6279C367.163 32.8502 367.095 35.435 363.383 35.445C359.75 35.445 359.555 33.0503 359.555 31.6377L359.526 4.75831C359.526 3.57613 359.555 0.911133 363.305 0.911133C366.909 0.911133 367.134 3.26555 367.134 4.74829V10.118C373.268 12.0516 378.805 14.7469 380.583 15.6987C382.849 16.8708 383.777 17.8223 383.777 19.6557C383.777 21.479 382.487 24.1542 379.997 24.1542C378.883 24.1542 378.737 24.0439 374.986 21.7997C373.912 21.1586 370.494 19.2149 367.144 17.9225L367.163 31.6279Z" fill="var(--fill-0, #F4C058)"/>
</g>
</svg>
