<svg width="50" height="53" viewBox="0 0 50 53" fill="none" xmlns="http://www.w3.org/2000/svg">
<path d="M48.9844 38.9701L17.3044 52.13C16.6144 52.42 15.3444 53.21 14.8944 52.17L11.7444 44.86L6.89439 33.14L0.244385 17.3C-0.00561534 16.71 -0.165607 16.32 0.284393 15.89C0.634393 15.56 1.29439 15.74 1.56439 16.39L14.5844 47.7201L15.9944 50.88L48.2744 37.6501C48.7444 37.4601 49.1644 37.68 49.3844 37.77C49.6544 37.88 49.6444 38.6901 48.9744 38.9601L48.9844 38.9701Z" fill="#226E77"/>
<path d="M17.5358 41.3405C18.9058 38.3605 19.9758 34.8904 20.3758 31.7304C20.5458 30.3704 18.9058 28.6005 20.7558 27.3805C22.2458 26.3905 23.9258 26.9805 25.1158 28.2705C32.8558 27.5505 27.0258 28.2705 32.2258 25.7105C33.1458 21.6605 34.6058 17.4804 34.9958 13.2304C35.0958 12.2104 33.5958 11.2004 34.7558 10.1104C35.3558 9.55045 36.3858 8.89049 37.6458 9.34049C38.3958 9.61049 39.0558 10.7105 38.9658 11.7105C38.8658 12.9305 37.9158 13.4005 36.6758 13.8705C36.0058 17.8305 34.0558 22.3304 33.9958 26.3504C33.9758 27.7504 35.6758 28.9205 33.8658 30.2805C32.4358 31.3605 31.2958 30.7105 29.7858 29.7205C28.7858 29.0605 25.9358 29.3805 25.1358 30.2805C24.3258 31.1905 23.4958 31.9805 22.3458 32.2505C20.9058 35.2405 20.2858 38.8505 19.2558 41.9305C19.8658 42.7905 20.5158 43.5605 19.9758 44.5105C19.5058 45.3505 18.9158 45.8504 17.7758 45.8504C16.5158 45.8504 15.9758 44.9205 15.6058 44.0705C14.9358 42.5205 17.0658 42.3405 17.5358 41.3305V41.3405ZM37.6158 11.4305C37.6158 10.8805 37.1758 10.4405 36.6258 10.4405C36.0758 10.4405 35.6358 10.8805 35.6358 11.4305C35.6358 11.9805 36.0758 12.4204 36.6258 12.4204C37.1758 12.4204 37.6158 11.9805 37.6158 11.4305ZM33.3558 28.3705C33.3558 27.7205 32.8258 27.1905 32.1758 27.1905C31.5258 27.1905 30.9958 27.7205 30.9958 28.3705C30.9958 29.0205 31.5258 29.5504 32.1758 29.5504C32.8258 29.5504 33.3558 29.0205 33.3558 28.3705ZM23.6658 29.4405C23.6658 28.7205 23.0758 28.1305 22.3558 28.1305C21.6358 28.1305 21.0458 28.7205 21.0458 29.4405C21.0458 30.1605 21.6358 30.7505 22.3558 30.7505C23.0758 30.7505 23.6658 30.1605 23.6658 29.4405ZM18.8058 43.6905C18.8058 43.1905 18.4058 42.7904 17.9058 42.7904C17.4058 42.7904 17.0058 43.1905 17.0058 43.6905C17.0058 44.1905 17.4058 44.5905 17.9058 44.5905C18.4058 44.5905 18.8058 44.1905 18.8058 43.6905Z" fill="#226E77"/>
<path d="M18.5256 10.34C17.2556 11.53 15.8956 12.46 14.7056 13.87C14.3856 14.25 13.5356 13.35 13.6856 12.84L17.3256 0C20.2356 0.62 22.6956 1.50998 25.3956 2.28998C26.0356 2.46998 25.7756 3.79 25.3056 4.13C22.7356 5.94 20.8056 8.22998 18.5356 10.35L18.5256 10.34ZM23.9356 3.37C22.0256 2.53 20.2156 2.05 18.1456 1.56L15.6056 11.13L23.9356 3.38V3.37Z" fill="#226E77"/>
</svg>
