<svg preserveAspectRatio="none" width="100%" height="100%" overflow="visible" style="display: block;" viewBox="0 0 20.2312 24.7841" fill="none" xmlns="http://www.w3.org/2000/svg">
<path id="Vector" d="M14.8174 24.4648C13.9676 24.7854 12.8379 24.8755 11.6682 24.6851C10.2986 24.4647 8.41917 24.2845 6.58967 24.1141C1.30111 23.6132 0.0513625 23.4229 0.00137619 22.6013C-0.0186184 22.3308 0.18141 22.1004 0.461334 22.0804C0.661279 22.0703 0.841201 22.1705 0.931176 22.3409C1.51102 22.6414 4.49021 22.9219 6.68961 23.1323C8.52911 23.3026 10.4286 23.483 11.8282 23.7134C13.5678 23.9939 14.9873 23.5431 15.2972 22.962C15.4972 22.5913 15.1973 22.1304 14.9073 21.8199C14.7774 21.6796 14.7474 21.4792 14.8174 21.3089C14.8874 21.1386 15.0474 21.0184 15.2273 20.9983C16.6569 20.8781 17.2568 20.3772 17.3367 19.9765C17.4167 19.5457 16.9568 19.0047 16.167 18.604C15.9671 18.5038 15.8571 18.2733 15.9071 18.0529C15.9571 17.8325 16.147 17.6722 16.3769 17.6722C17.8465 17.6522 18.8163 17.1312 18.8962 16.3298C18.9662 15.6485 18.3364 14.7669 17.0468 14.4863C16.8068 14.4362 16.6369 14.2059 16.6669 13.9554C16.6969 13.7049 16.9068 13.5146 17.1567 13.5146C17.3567 13.5146 19.0962 13.4545 19.2461 11.6912C19.2561 11.5209 19.1562 11.3005 18.9563 11.0801C18.1665 10.2185 15.9671 9.33688 12.828 9.32687C12.618 9.32687 12.428 9.18659 12.368 8.99624C12.298 8.79587 12.368 8.57548 12.538 8.44524C14.4675 6.97252 15.3473 4.09723 14.9574 2.32396C14.8474 1.81302 14.5674 1.17179 13.9076 1.02151C13.0478 0.831163 12.8479 1.18182 12.2981 2.4141C11.8182 3.48607 11.1683 4.94877 9.48878 6.17102C8.14914 7.14282 6.72963 7.42332 5.46998 7.66377C4.2803 7.89419 3.25059 8.09458 2.4808 8.81591C2.28086 8.99625 1.97088 8.99623 1.79093 8.79586C1.60098 8.59549 1.611 8.28491 1.81094 8.10458C2.79067 7.1929 4.00031 6.95249 5.27996 6.70203C6.48963 6.47161 7.7393 6.22114 8.90898 5.37959C10.3786 4.31763 10.9484 3.0453 11.3983 2.01339C11.9082 0.871288 12.428 -0.300875 14.1075 0.0698083C15.0173 0.270178 15.6571 0.991486 15.9071 2.11355C16.297 3.87681 15.6671 6.55175 14.0276 8.38513C16.5469 8.57548 18.6963 9.32682 19.6861 10.4088C20.076 10.8396 20.2659 11.3105 20.226 11.7613C20.116 13.0237 19.4261 13.745 18.6763 14.1157C19.4961 14.6867 19.9659 15.5283 19.876 16.4199C19.796 17.2514 19.1662 18.1431 17.6966 18.4937C18.1865 19.0047 18.4064 19.5758 18.2964 20.1568C18.1365 20.9783 17.3466 21.5795 16.127 21.85C16.4869 22.5613 16.327 23.1223 16.157 23.4229C15.9171 23.8637 15.4372 24.2243 14.8174 24.4547V24.4648Z" fill="var(--fill-0, #4C4B4C)"/>
</svg>
