<svg preserveAspectRatio="none" width="100%" height="100%" overflow="visible" style="display: block;" viewBox="0 0 530 147" fill="none" xmlns="http://www.w3.org/2000/svg">
<g id="Vector">
<path d="M77.9588 146.469L15.0125 146.388C12.1767 146.388 10.1696 143.61 11.0383 140.902L17.7284 119.907C18.2876 118.162 19.8952 116.989 21.7225 116.989L60.9941 117.039C62.8114 117.039 64.429 115.855 64.9881 114.12L84.1795 53.9257C85.0483 51.2175 83.0313 48.449 80.2055 48.439L14.0639 48.3487C11.2281 48.3487 9.22109 45.5702 10.0898 42.8619L16.7798 21.8677C17.339 20.1224 18.9466 18.9488 20.7739 18.9488L115.932 19.0692C118.768 19.0692 120.775 21.8477 119.906 24.5559L81.9729 143.55C81.4137 145.295 79.8061 146.469 77.9788 146.469H77.9588ZM134.525 24.566L129.912 39.0302C129.352 40.7755 127.745 41.9491 125.918 41.9491H124.45C121.614 41.9491 119.607 39.1706 120.476 36.4623L125.089 21.9981C125.648 20.2528 127.256 19.0792 129.083 19.0792H130.551C133.386 19.0792 135.393 21.8577 134.525 24.566ZM150.631 24.586L146.018 39.0503C145.458 40.7956 143.851 41.9692 142.024 41.9692H140.556C137.72 41.9692 135.713 39.1907 136.582 36.4824L141.195 22.0182C141.754 20.2729 143.362 19.0993 145.189 19.0993H146.657C149.492 19.0993 151.499 21.8778 150.631 24.586Z" fill="#386F6B"/>
<path d="M222.896 146.659L126.28 146.528C123.444 146.528 121.437 143.75 122.306 141.042L128.996 120.047C129.555 118.302 131.163 117.129 132.99 117.129L205.932 117.229C207.749 117.229 209.366 116.045 209.926 114.31L229.926 51.5581C230.485 49.8128 232.093 48.6392 233.92 48.6392L251.484 48.6593C254.32 48.6593 256.327 51.4377 255.458 54.146L226.9 143.74C226.341 145.485 224.734 146.659 222.906 146.659H222.896ZM217.974 24.6759L211.284 45.6701C210.724 47.4154 209.117 48.589 207.29 48.589L156.046 48.5188C153.21 48.5188 151.203 45.7403 152.072 43.0321L158.762 22.0379C159.321 20.2925 160.928 19.1189 162.756 19.1189L214 19.1892C216.835 19.1892 218.842 21.9677 217.974 24.6759Z" fill="#386F6B"/>
<path d="M354.799 146.829L338.693 146.809C335.857 146.809 333.85 144.031 334.719 141.323L358.304 67.3464C359.173 64.6382 357.156 61.8697 354.33 61.8596L323.586 61.8195C321.768 61.8195 320.151 63.0032 319.592 64.7385L294.389 143.82C293.83 145.566 292.222 146.739 290.395 146.739L255.257 146.689C252.422 146.689 250.415 143.91 251.283 141.202L257.973 120.208C258.532 118.463 260.14 117.289 261.967 117.289L273.42 117.309C275.238 117.309 276.855 116.126 277.414 114.39L292.442 67.2561C293.311 64.5479 291.294 61.7794 288.468 61.7694H282.347C279.511 61.7594 277.504 58.9909 278.373 56.2726L285.063 35.2784C285.622 33.5331 287.23 32.3595 289.057 32.3595L300.51 32.3795C302.327 32.3795 303.945 31.1959 304.504 29.4606L308.368 17.3436C308.928 15.5982 310.535 14.4247 312.362 14.4247L329.926 14.4447C332.762 14.4447 334.769 17.2232 333.9 19.9315L331.664 26.9429C330.795 29.6512 332.812 32.4197 335.638 32.4297L388.599 32.4999C391.435 32.4999 393.442 35.2784 392.573 37.9867L358.813 143.911C358.254 145.656 356.646 146.829 354.819 146.829H354.799ZM385.294 10.1917L381.21 23.0209C380.651 24.7663 379.043 25.9399 377.216 25.9399C374.38 25.9399 372.373 23.1614 373.242 20.4531L377.336 7.62386C377.895 5.87853 379.503 4.70494 381.33 4.70494C384.166 4.70494 386.173 7.48343 385.314 10.1917H385.294ZM401.4 10.2118L397.316 23.041C396.757 24.7863 395.149 25.9599 393.322 25.9599C390.486 25.9599 388.479 23.1814 389.338 20.4731L393.422 7.64391C393.981 5.89858 395.589 4.72502 397.416 4.72502C400.252 4.72502 402.259 7.50351 401.4 10.2118Z" fill="#386F6B"/>
<path d="M529.786 25.0873L491.852 144.081C491.293 145.826 489.685 147 487.858 147L401.486 146.89C398.651 146.89 396.644 144.111 397.512 141.403L404.202 120.409C404.762 118.663 406.369 117.49 408.196 117.49L470.883 117.57C472.7 117.57 474.318 116.386 474.877 114.651L494.069 54.4571C494.937 51.7489 492.92 48.9804 490.095 48.9704L459.35 48.9302C457.533 48.9302 455.915 50.1138 455.356 51.8492L442.126 93.3661C441.567 95.1114 439.959 96.285 438.132 96.285L402.994 96.2348C400.158 96.2348 398.151 93.4564 399.02 90.7481L405.71 69.7539C406.269 68.0086 407.877 66.835 409.704 66.835L422.625 66.855C424.442 66.855 426.06 65.6714 426.619 63.9361L439.849 22.4192C440.409 20.6739 442.016 19.5003 443.843 19.5003L525.821 19.6106C528.657 19.6106 530.664 22.3891 529.796 25.0974L529.786 25.0873Z" fill="#386F6B"/>
<path d="M67.3801 139.617L4.4337 139.086C1.59791 139.065 -0.389144 136.277 0.489549 133.569L7.32941 112.625C7.89857 110.889 9.51618 109.716 11.3435 109.736L50.605 110.067C52.4223 110.087 54.0499 108.913 54.6191 107.178L74.2299 47.1144C75.1086 44.4061 73.1215 41.6276 70.2858 41.5975L4.15414 41.0458C1.31836 41.0258 -0.668696 38.2373 0.209997 35.529L7.0498 14.5849C7.61895 12.8496 9.23657 11.676 11.0638 11.6961L106.212 12.4885C109.048 12.5086 111.035 15.2971 110.156 18.0054L71.3941 136.728C70.8249 138.464 69.2074 139.637 67.3801 139.617ZM124.795 18.1258L120.082 32.5499C119.513 34.2852 117.895 35.4588 116.068 35.4387H114.6C111.764 35.3986 109.777 32.6201 110.656 29.9118L115.369 15.4877C115.938 13.7524 117.555 12.5788 119.383 12.5989H120.851C123.686 12.639 125.673 15.4175 124.795 18.1258ZM140.891 18.2562L136.178 32.6803C135.609 34.4156 133.991 35.5892 132.164 35.5691H130.696C127.86 35.529 125.873 32.7505 126.752 30.0422L131.465 15.6181C132.034 13.8828 133.651 12.7092 135.479 12.7293H136.947C139.782 12.7694 141.769 15.5479 140.891 18.2562Z" fill="var(--fill-0, #E18217)"/>
<path d="M212.305 140.831L115.689 140.018C112.853 139.998 110.866 137.21 111.745 134.501L118.585 113.557C119.154 111.822 120.771 110.648 122.599 110.668L195.53 111.28C197.347 111.3 198.975 110.127 199.544 108.391L219.984 45.7901C220.553 44.0547 222.171 42.8812 223.998 42.9012L241.562 43.0517C244.397 43.0717 246.384 45.8603 245.506 48.5685L216.319 137.962C215.75 139.697 214.132 140.871 212.305 140.851V140.831ZM208.231 18.8176L201.391 39.7616C200.822 41.4969 199.205 42.6705 197.377 42.6505L146.144 42.2191C143.308 42.199 141.321 39.4105 142.199 36.7022L149.039 15.7582C149.608 14.0229 151.226 12.8493 153.053 12.8694L204.287 13.3007C207.123 13.3208 209.11 16.1093 208.231 18.8176Z" fill="var(--fill-0, #E18217)"/>
<path d="M344.199 141.934L328.093 141.804C325.257 141.784 323.27 138.995 324.149 136.287L348.243 62.4813C349.122 59.773 347.135 56.9945 344.299 56.9644L313.555 56.7036C311.737 56.6836 310.11 57.8572 309.541 59.5925L283.779 138.494C283.21 140.229 281.592 141.403 279.765 141.382L244.627 141.092C241.791 141.072 239.804 138.283 240.683 135.575L247.523 114.631C248.092 112.895 249.71 111.722 251.537 111.742L262.99 111.842C264.807 111.862 266.435 110.689 267.004 108.953L282.361 61.9296C283.24 59.2213 281.253 56.4428 278.417 56.4127L272.296 56.3625C269.46 56.3425 267.473 53.554 268.352 50.8457L275.192 29.9017C275.761 28.1664 277.379 26.9928 279.206 27.0129L290.659 27.1131C292.476 27.1332 294.104 25.9596 294.673 24.2243L298.617 12.1374C299.186 10.4021 300.804 9.22846 302.631 9.24853L320.195 9.39898C323.031 9.41904 325.018 12.2076 324.139 14.9158L321.852 21.9173C320.974 24.6255 322.961 27.404 325.797 27.4341L378.758 27.8755C381.594 27.8955 383.581 30.6841 382.702 33.3923L348.193 139.075C347.624 140.811 346.007 141.984 344.179 141.964L344.199 141.934ZM375.662 5.51712L371.489 18.3163C370.919 20.0516 369.302 21.2251 367.475 21.2051C364.639 21.185 362.652 18.3965 363.53 15.6882L367.714 2.88909C368.283 1.15378 369.901 -0.0198081 371.728 0.000253249C374.564 0.0203146 376.551 2.80884 375.672 5.51712H375.662ZM391.758 5.64752L387.585 18.4467C387.016 20.182 385.398 21.3556 383.571 21.3355C380.735 21.3154 378.748 18.5269 379.627 15.8186L383.8 3.01949C384.369 1.28419 385.987 0.110595 387.814 0.130657C390.65 0.150718 392.637 2.93924 391.758 5.64752Z" fill="var(--fill-0, #E18217)"/>
<path d="M520.257 19.8799L481.495 138.603C480.926 140.338 479.308 141.512 477.481 141.492L391.109 140.769C388.274 140.749 386.287 137.961 387.165 135.253L394.005 114.309C394.574 112.573 396.192 111.4 398.019 111.42L460.706 111.941C462.523 111.961 464.151 110.788 464.72 109.053L484.331 48.9889C485.21 46.2806 483.222 43.5021 480.387 43.472L449.642 43.2112C447.825 43.1912 446.198 44.3647 445.628 46.1001L432.108 87.5166C431.539 89.2519 429.922 90.4255 428.094 90.4055L392.957 90.1146C390.121 90.0945 388.134 87.306 389.013 84.5977L395.852 63.6537C396.421 61.9184 398.039 60.7448 399.866 60.7649L412.777 60.8752C414.595 60.8953 416.222 59.7217 416.791 57.9864L430.311 16.5698C430.88 14.8345 432.498 13.6609 434.325 13.6809L516.303 14.363C519.139 14.3831 521.126 17.1716 520.247 19.8799H520.257Z" fill="var(--fill-0, #E18217)"/>
</g>
</svg>
