<svg preserveAspectRatio="none" width="100%" height="100%" overflow="visible" style="display: block;" viewBox="0 0 53.1881 54.5689" fill="none" xmlns="http://www.w3.org/2000/svg">
<path id="Vector" d="M51.6719 36.4719L53.1881 28.7883L45.3861 26.6253C45.3158 24.5344 44.9242 22.5156 44.2314 20.6101L50.6678 15.5837L46.4404 9.05364L39.4317 13.1839C37.9858 11.7934 36.3189 10.6296 34.4714 9.7644L35.5558 1.55529L28.0651 0L25.9564 8.00303C23.9181 8.07513 21.95 8.47685 20.0924 9.18755L15.1923 2.59559L8.8262 6.93193L12.8527 14.1212C11.4971 15.6044 10.3625 17.3141 9.51903 19.2093L1.51621 18.097L0 25.7806L7.802 27.9436C7.87229 30.0345 8.27393 32.0533 8.95673 33.9588L2.52033 38.9852L6.74767 45.5153L13.7564 41.385C15.2023 42.7755 16.8692 43.9393 18.7167 44.8045L17.6323 53.0136L25.123 54.5689L27.2317 46.5659C29.27 46.4938 31.2381 46.0921 33.0957 45.3814L37.9858 51.9836L44.3519 47.6473L40.3254 40.458C41.6809 38.9748 42.8156 37.2754 43.659 35.3699L51.6618 36.4822L51.6719 36.4719ZM24.6712 37.0591C19.3996 35.9673 15.9956 30.704 17.06 25.3069C18.1243 19.8995 23.2554 16.4077 28.527 17.4995C33.7986 18.5913 37.2026 23.8546 36.1382 29.262C35.0738 34.6695 29.9428 38.1611 24.6812 37.0693L24.6712 37.0591Z" fill="var(--fill-0, #F4C058)"/>
</svg>
