<svg preserveAspectRatio="none" width="100%" height="100%" overflow="visible" style="display: block;" viewBox="0 0 55.609 57.0567" fill="none" xmlns="http://www.w3.org/2000/svg">
<path id="Vector" d="M26.3334 57.0258C26.2531 57.0258 26.1728 57.0258 26.0925 57.0052L18.6017 55.4602C17.9792 55.3263 17.5575 54.7289 17.6478 54.08L18.6118 46.7568C17.2562 46.0358 15.981 45.1603 14.8062 44.1303L8.55053 47.8176C7.99827 48.1472 7.29538 47.9721 6.94394 47.4262L2.71661 40.8961C2.36517 40.3502 2.48565 39.6189 2.98771 39.2275L8.73127 34.7471C8.25933 33.2433 7.96815 31.6984 7.84765 30.1328L0.889112 28.2067C0.2766 28.0419 -0.104965 27.4033 0.0255702 26.7647L1.5418 19.081C1.67233 18.4424 2.24468 18.0098 2.88731 18.1025L10.0266 19.1015C10.7295 17.711 11.583 16.403 12.5871 15.1979L8.99235 8.78113C8.67103 8.21464 8.84172 7.49355 9.3739 7.13305L15.74 2.79684C16.2722 2.43634 16.9851 2.55996 17.3667 3.07496L21.7346 8.95615C23.2006 8.47206 24.7068 8.17336 26.233 8.04976L28.1107 0.912005C28.2814 0.283712 28.8739 -0.107669 29.5165 0.0262298L37.0072 1.5814C37.6298 1.705 38.0515 2.31278 37.9611 2.96167L36.9972 10.2849C38.3628 11.0059 39.638 11.8813 40.8028 12.9113L47.0584 9.22396C47.6107 8.89436 48.3136 9.06947 48.665 9.61536L52.8924 16.1455C53.2438 16.6913 53.1233 17.4226 52.6213 17.814L46.8777 22.2946C47.3496 23.7984 47.6408 25.3433 47.7613 26.9089L54.7199 28.835C55.3324 28.9998 55.7139 29.6384 55.5834 30.277L54.0672 37.9607C53.9366 38.5993 53.3643 39.0318 52.7217 38.9391L45.5824 37.9504C44.8795 39.3408 44.026 40.649 43.0219 41.8541L46.6166 48.2709C46.938 48.8374 46.7672 49.5583 46.2351 49.9188L39.869 54.255C39.3368 54.6155 38.6238 54.492 38.2423 53.977L33.8744 48.0957C32.4084 48.5798 30.9022 48.8785 29.3759 49.0021L27.4982 56.14C27.3576 56.6859 26.8656 57.0567 26.3334 57.0567V57.0258ZM20.1883 53.256L25.4599 54.3478L27.2673 47.4674C27.4079 46.9422 27.8597 46.5713 28.3919 46.5507C30.2595 46.4889 32.1071 46.1182 33.8844 45.4487C34.3865 45.2633 34.9387 45.4281 35.2601 45.8607L39.4673 51.5359L43.9557 48.4871L40.4915 42.3072C40.2304 41.8334 40.2907 41.2464 40.6522 40.8447C41.9374 39.4336 42.9918 37.8267 43.775 36.086C43.9959 35.5916 44.4879 35.3033 45.0301 35.3754L51.9184 36.3333L52.9827 30.9259L46.2752 29.0719C45.7631 28.9277 45.4016 28.4642 45.3816 27.9183C45.3213 25.9922 44.9598 24.0971 44.3072 22.2946C44.1264 21.7796 44.2871 21.2131 44.7088 20.8835L50.2415 16.5575L47.2593 11.9535L41.2346 15.5069C40.7727 15.7747 40.2003 15.713 39.8087 15.3422C38.4331 14.0238 36.8767 12.9422 35.1697 12.1388C34.6877 11.9122 34.4066 11.3869 34.4768 10.8513L35.4107 3.78559L30.129 2.69387L28.3216 9.57412C28.181 10.0994 27.7292 10.4702 27.197 10.4908C25.3193 10.5526 23.4717 10.9235 21.7145 11.593C21.2125 11.7784 20.6602 11.6136 20.3389 11.181L16.1316 5.50571L11.6432 8.55444L15.1074 14.7344C15.3685 15.2082 15.3082 15.7953 14.9468 16.197C13.6615 17.6081 12.6072 19.2149 11.824 20.9555C11.603 21.4499 11.101 21.7383 10.5688 21.6662L3.68056 20.7084L2.6162 26.1261L9.32371 27.98C9.83581 28.1242 10.1973 28.5877 10.2174 29.1336C10.2776 31.0597 10.6391 32.9446 11.2918 34.7574C11.4725 35.2724 11.3119 35.8389 10.8901 36.1685L5.35743 40.4841L8.33966 45.0882L14.3644 41.5347C14.8162 41.2669 15.3986 41.3287 15.7902 41.6995C17.1659 43.0179 18.7323 44.0994 20.4292 44.9028C20.9112 45.1294 21.1924 45.6547 21.1221 46.1903L20.1883 53.256ZM27.8095 39.7322C27.0966 39.7322 26.3736 39.6602 25.6406 39.5057C22.7789 38.9083 20.3087 37.2088 18.6921 34.7162C17.0755 32.2236 16.5031 29.2264 17.0855 26.2909C18.2804 20.2346 24.0641 16.2897 29.9684 17.5154C32.8301 18.1128 35.3002 19.8123 36.9169 22.3049C38.5335 24.7975 39.1058 27.7947 38.5234 30.7301C37.4792 36.0449 32.9004 39.7322 27.8095 39.7322ZM26.1126 37.0852C30.7215 38.0431 35.2299 34.9737 36.1537 30.2461C36.6056 27.9595 36.1537 25.6214 34.8986 23.6747C33.6334 21.7281 31.7155 20.3994 29.4864 19.9359C24.8775 18.9883 20.379 22.0577 19.4452 26.775C18.5114 31.5027 21.5037 36.1273 26.1126 37.0749V37.0852Z" fill="var(--fill-0, #4C4B4C)"/>
</svg>
