<svg preserveAspectRatio="none" width="100%" height="100%" overflow="visible" style="display: block;" viewBox="0 0 25.4961 25.5587" fill="none" xmlns="http://www.w3.org/2000/svg">
<path id="Vector" d="M12.0882 25.5486C12.0882 25.5486 12.0182 25.5486 11.9782 25.5386L8.53918 24.8473C8.24925 24.7872 8.0593 24.5167 8.09929 24.2262L8.53918 20.9401C7.91934 20.6195 7.32952 20.2188 6.79966 19.768L3.93045 21.421C3.68052 21.5713 3.36062 21.4911 3.19066 21.2507L1.25119 18.3253C1.09123 18.0849 1.14122 17.7542 1.38116 17.5739L4.01045 15.5702C3.8005 14.899 3.66051 14.2077 3.60052 13.5064L0.411392 12.6448C0.131469 12.5647 -0.0484455 12.2842 0.0115381 12.0036L0.701352 8.55729C0.761336 8.26675 1.02126 8.0764 1.32118 8.11647L4.60025 8.55729C4.92016 7.93614 5.3201 7.34506 5.76997 6.81408L4.1204 3.93879C3.97044 3.68832 4.0504 3.35772 4.29034 3.19743L7.20958 1.25384C7.44952 1.09355 7.77943 1.14364 7.95938 1.38409L9.95883 4.01895C10.6286 3.80856 11.3185 3.66827 12.0183 3.60816L12.878 0.412265C12.958 0.131748 13.2279 -0.0485482 13.5179 0.0115626L16.9569 0.70284C17.2468 0.76295 17.4368 1.03344 17.3968 1.32398L16.9569 4.61001C17.5767 4.9306 18.1666 5.33132 18.6964 5.78215L21.5656 4.12914C21.8156 3.97886 22.1455 4.05899 22.3054 4.29944L24.2449 7.22481C24.4049 7.46526 24.3549 7.79587 24.1149 7.9762L21.4856 9.98992C21.6956 10.6612 21.8356 11.3524 21.8956 12.0537L25.0846 12.9153C25.3646 12.9954 25.5445 13.276 25.4846 13.5565L24.7947 17.0029C24.7348 17.2934 24.4748 17.4837 24.1749 17.4437L20.8958 17.0029C20.5759 17.624 20.176 18.2151 19.7261 18.7461L21.3757 21.6214C21.5257 21.8718 21.4457 22.2025 21.2058 22.3628L18.2865 24.3064C18.0466 24.4667 17.7167 24.4166 17.5367 24.1761L15.5373 21.5412C14.8674 21.7617 14.1776 21.8919 13.4778 21.952L12.6181 25.1479C12.5481 25.3983 12.3281 25.5587 12.0882 25.5587V25.5486ZM9.25901 23.8555L11.6783 24.3464L12.5081 21.2607C12.5681 21.0303 12.778 20.86 13.0279 20.85C13.8877 20.8199 14.7275 20.6596 15.5473 20.3591C15.7772 20.2789 16.0271 20.3591 16.1771 20.5394L18.1066 23.0841L20.166 21.7115L18.5765 18.9364C18.4565 18.726 18.4865 18.4556 18.6564 18.2852C19.2462 17.6541 19.7261 16.9327 20.086 16.1513C20.186 15.9309 20.4159 15.8007 20.6659 15.8307L23.825 16.2615L24.3149 13.837L21.2357 13.0055C21.0058 12.9454 20.8359 12.735 20.8259 12.4845C20.7959 11.6229 20.6259 10.7714 20.326 9.9599C20.246 9.72947 20.316 9.47901 20.5059 9.32873L23.0452 7.39517L21.6756 5.33137L18.9063 6.92427C18.6964 7.04449 18.4265 7.01442 18.2566 6.84411C17.6267 6.25302 16.9069 5.77214 16.1271 5.41147C15.9072 5.31129 15.7772 5.07089 15.8072 4.83045L16.2371 1.66457L13.8178 1.17368L12.988 4.25938C12.928 4.48981 12.718 4.6601 12.4681 4.67012C11.6083 4.70017 10.7586 4.87048 9.94882 5.17104C9.71889 5.25119 9.46895 5.17105 9.31899 4.99071L7.38953 2.44604L5.33009 3.81857L6.91962 6.59364C7.03959 6.80403 7.00958 7.07456 6.83963 7.24487C6.24979 7.87603 5.76993 8.59737 5.41003 9.37881C5.31005 9.59922 5.08016 9.72946 4.83023 9.69941L1.67106 9.26862L1.1812 11.6931L4.26038 12.5246C4.49031 12.5847 4.66024 12.7951 4.67024 13.0455C4.70023 13.9071 4.87018 14.7587 5.1701 15.5702C5.25008 15.8006 5.18011 16.0511 4.99016 16.2014L2.45087 18.1349L3.82049 20.1987L6.5897 18.6058C6.79964 18.4856 7.06959 18.5156 7.23954 18.6859C7.86937 19.277 8.58918 19.7579 9.36897 20.1186C9.58891 20.2188 9.71888 20.4592 9.68889 20.6997L9.25901 23.8655V23.8555ZM12.7581 17.7943C12.4281 17.7943 12.0982 17.7643 11.7683 17.6941C10.4587 17.4236 9.319 16.6622 8.5792 15.5502C7.83941 14.4381 7.57943 13.0857 7.83935 11.7732C8.3892 9.05823 11.0385 7.29499 13.7478 7.83599C15.0574 8.10649 16.1971 8.86784 16.9369 9.97989C17.6767 11.102 17.9366 12.4445 17.6767 13.7569C17.1968 16.1413 15.0974 17.7943 12.7581 17.7943ZM11.9882 16.6121C14.0977 17.0429 16.1671 15.6604 16.597 13.5465C16.8069 12.5246 16.597 11.4726 16.0172 10.601C15.4373 9.72943 14.5575 9.13835 13.5278 8.92797C11.4184 8.50719 9.34896 9.87972 8.91908 11.9936C8.48919 14.1075 9.86881 16.1813 11.9782 16.6121H11.9882Z" fill="var(--fill-0, #4C4B4C)"/>
</svg>
