<svg preserveAspectRatio="none" width="100%" height="100%" overflow="visible" style="display: block;" viewBox="0 0 196.024 36.879" fill="none" xmlns="http://www.w3.org/2000/svg">
<g id="Group">
<path id="Vector" d="M3.72896 10.1698C1.63953 10.1698 0 9.44845 0 6.74346C0 4.03848 1.21965 3.08676 3.72896 3.08676H14.1761C14.1761 0.572123 16.2656 0.191406 17.6752 0.191406C19.8446 0.191406 21.894 0.46192 21.894 3.08676H32.6511C34.8205 3.08676 36.3701 3.84815 36.3701 6.51306C36.3701 9.17797 35.1504 10.1698 32.6511 10.1698H27.7825C29.572 11.5824 30.9016 12.6443 32.991 13.8666C35.3803 15.3092 36.3401 15.8503 36.3401 17.5233C36.3401 19.1964 34.7105 21.7111 32.7711 21.7111C31.6714 21.7111 30.5717 21.2502 27.6425 19.1263C27.9824 19.6172 28.1723 20.1181 28.1723 20.7293C28.1723 22.5526 26.1629 24.917 24.5233 26.6702C26.5728 27.5418 27.1426 27.7021 31.6713 28.724C34.2206 29.3351 36.0802 29.7559 36.0802 32.2305C36.0802 33.4527 35.7002 34.6249 35.2404 35.3562C34.4806 36.6085 33.2609 36.879 32.1612 36.879C30.2217 36.879 23.8035 35.4664 18.2151 31.8498C11.9468 35.8872 5.59845 36.879 4.22883 36.879C1.41959 36.879 0.389908 34.0939 0.389908 32.4609C0.389908 29.9463 2.09943 29.3752 3.99891 28.9545C8.13778 28.0027 9.84731 27.5819 11.9367 26.6302C9.57739 24.0454 8.28778 22.1719 8.28778 20.7693C8.28778 19.9278 8.58768 19.4369 8.77763 19.1664C6.60822 20.7293 5.12861 21.7211 3.75898 21.7211C1.77952 21.7211 0.109955 19.4769 0.109955 17.4532C0.109955 15.9304 0.909764 15.4696 3.94893 13.6062C5.76844 12.5041 6.79816 11.6625 8.69764 10.1798H3.71902L3.72896 10.1698ZM13.2664 10.1698C14.3661 11.0815 14.5961 12.1534 14.5961 12.8748C14.5961 14.3174 13.4964 15.4295 11.097 17.373C11.3669 17.2929 11.7768 17.1426 12.3866 17.1426C14.1362 17.1426 14.9359 18.2046 15.3158 18.7757C16.6455 20.599 16.9154 20.9797 18.205 22.2821C18.6949 21.7912 19.6446 20.8695 20.4844 19.7274C21.7041 18.0543 22.3439 17.1727 23.9834 17.1727C24.7032 17.1727 25.1631 17.3631 25.503 17.4733C22.4639 15.0789 21.854 14.047 21.854 12.7947C21.854 12.0733 22.154 11.0414 23.1837 10.1698H13.2664Z" fill="var(--fill-0, #EFDB6C)"/>
<path id="Vector_2" d="M57.5406 21.439C57.5406 20.9481 57.5006 20.6375 57.1207 20.6375C55.941 20.6375 53.4317 20.6375 53.4317 17.4015C53.4317 14.6965 54.4614 13.6646 56.9308 13.6646H58.9402C63.499 13.6646 64.1088 14.6565 64.1088 19.0345V25.8471C64.1088 25.8471 64.1088 27.41 65.7384 28.3217C67.068 29.0831 68.3976 29.083 69.9172 29.083H86.4427C88.5322 29.083 89.8618 30.4155 89.8618 32.5494C89.8618 32.8901 89.8618 35.9757 86.4427 35.9757H69.9172C64.6387 35.9757 62.6592 33.6915 61.8994 32.7798C61.4095 33.6214 61.0597 34.1123 60.2699 34.9539C59.1702 36.1361 58.5203 36.667 57.2307 36.667C54.9513 36.667 53.1318 34.5331 53.1318 32.2489C53.1318 30.4957 53.9716 29.9647 55.8311 28.7024C56.4009 28.3217 57.5006 27.6003 57.5406 27.5603V21.429V21.439ZM57.4206 0.640625C58.7503 0.640625 60.0799 1.48214 62.8192 3.98676C65.0586 6.00047 65.6284 6.76187 65.6284 7.98412C65.6284 9.9277 63.9189 12.0917 61.8694 12.0917C60.5398 12.0917 60.2698 11.8212 58.0304 9.65725C57.5406 9.16634 55.2213 7.10254 54.7614 6.65171C54.2715 6.1608 53.5417 5.42944 53.7316 4.06693C53.9616 2.24356 55.6711 0.640625 57.4206 0.640625ZM65.0285 14.3158C65.0285 10.8494 65.4884 9.13627 69.2074 9.13627C68.9375 8.71549 68.7175 8.18453 68.7175 7.65356C68.7175 7.16265 68.8675 6.89214 68.9875 6.70179H67.5479C66.6781 6.70179 64.6987 6.70175 64.6987 4.03684C64.6987 1.37193 66.7081 1.37195 67.5479 1.37195H84.6432C87.1125 1.37195 88.1722 2.81463 88.1722 4.64801C88.1722 6.48139 87.3025 7.27283 84.3733 9.13627C88.2522 9.28655 88.5122 11.0798 88.5122 14.3158V23.4928C88.5122 27.5302 87.9823 28.6723 83.3836 28.6723C81.4441 28.6723 80.3444 28.5922 79.7345 26.9992C79.3546 28.3317 78.2949 28.8226 76.4654 28.8226C73.7262 28.8226 73.3863 27.0693 73.3863 25.7769V22.8816H71.5268V25.5465C71.5268 27.6805 70.497 28.6723 68.4076 28.6723C66.3182 28.6723 65.0285 27.5302 65.0285 25.3562V14.3158ZM73.3863 14.5463V13.324H71.9467C71.8367 13.324 71.5268 13.4041 71.5268 13.7447V14.5463H73.3863ZM73.3863 18.0427H71.5268V19.2649H73.3863V18.0427ZM75.6257 6.70179C75.8556 6.93221 76.8053 7.76372 77.0353 7.99415C77.2252 7.88395 77.7151 7.53333 78.065 7.27285C78.215 7.16265 78.4049 7.04242 78.4049 6.89214C78.4049 6.74186 78.175 6.70179 78.065 6.70179H75.6357H75.6257ZM79.8845 14.5463H81.9339V13.7447C81.9339 13.4442 81.664 13.324 81.5141 13.324H79.8845V14.5463ZM81.9339 18.0427H79.8845V19.2649H81.9339V18.0427ZM79.8845 22.8816V24.6749C80.3444 23.8735 80.7243 23.7933 81.554 23.7632C81.9339 23.7231 81.9339 23.4627 81.9339 22.8916H79.8845V22.8816Z" fill="var(--fill-0, #EFDB6C)"/>
<path id="Vector_3" d="M108.739 8.33538C108.739 4.03745 110.908 2.96549 114.097 2.96549H121.655C121.655 0.981832 122.715 0 125.304 0C127.474 0 129.253 0.490927 129.253 2.96549H139.4C140.88 2.96549 142.819 3.34619 142.819 6.16138C142.819 8.63595 142.1 9.88823 139.4 9.88823H116.487C116.257 9.88823 115.767 9.99842 115.767 10.5695V18.1134C115.767 22.1909 115.347 26.2985 114.587 30.3359C115.117 29.6847 115.917 29.4242 117.136 29.2739C118.766 25.1964 120.895 17.9631 121.055 17.3219C121.355 16.2199 122.345 12.2526 122.725 11.6114C123.215 10.7698 124.054 10.2388 125.614 10.2388C125.994 10.2388 129.563 10.2389 129.563 12.9038C129.563 15.5687 125.874 24.7857 124.204 28.6729C124.434 28.6729 124.584 28.6728 125.194 28.5927C128.763 28.212 129.143 28.1319 133.102 27.681C132.682 26.7293 130.713 22.6918 130.333 21.8503C130.223 21.5798 130.033 21.0889 130.033 20.5579C130.033 18.5442 132.202 17.5123 133.722 17.5123C135.811 17.5123 136.461 18.8046 139.16 24.1345C139.77 25.3868 141.21 28.5526 141.86 30.1857C142.429 31.5983 142.699 32.4298 142.699 33.3114C142.699 35.7058 140.65 36.7377 138.9 36.7377C136.891 36.7377 136.351 35.826 135.521 33.7322C131.572 34.4535 119.376 36.1266 117.396 36.1266C116.257 36.1266 114.277 35.9363 113.977 33.081C113.407 34.9144 112.758 36.8179 110.218 36.8179C108.169 36.8179 106.189 35.4854 106.189 33.3916C106.189 32.4398 106.229 32.3597 107.439 28.3623C108.729 24.1746 108.769 18.5342 108.769 18.2336V8.33538H108.739Z" fill="var(--fill-0, #EFDB6C)"/>
<path id="Vector_4" d="M174.45 4.64981V3.76818C174.45 2.05503 174.91 0.261719 177.829 0.261719C180.409 0.261719 181.928 0.872845 181.928 3.76818V4.64981H190.476C191.196 4.64981 193.935 4.64979 193.935 7.69541C193.935 10.17 192.685 11.0516 190.476 11.0516H181.928V13.6364H192.645C193.675 13.6364 196.024 13.7866 196.024 16.6419C196.024 18.856 195.225 20.0281 192.645 20.0281H163.123C162.254 20.0281 159.704 19.9881 159.704 16.9826C159.704 13.977 161.374 13.6664 163.203 13.6364C161.534 12.9852 160.544 11.7328 160.544 10.4405C160.544 9.40856 160.844 8.99782 162.214 7.01416C163.313 5.4112 163.433 5.19078 164.453 2.8665C165.173 1.30362 165.703 0.542204 167.452 0.542204C168.132 0.542204 171.671 0.772651 171.671 3.50769C171.671 3.9986 171.591 4.41939 171.521 4.64981H174.45ZM192.765 31.3791C192.765 35.1861 190.946 36.2881 187.827 36.2881H167.912C164.793 36.2881 162.973 35.1861 162.973 31.3791V26.0893C162.973 22.1621 164.913 21.1803 167.912 21.1803H187.827C190.946 21.1803 192.765 22.2823 192.765 26.0893V31.3791ZM168.522 11.0416C167.612 12.6045 167.152 13.2156 166.322 13.6263H174.45V11.0416H168.522ZM185.437 28.063C185.437 27.4919 185.057 27.3416 184.757 27.3416H171.041C170.661 27.3416 170.321 27.5721 170.321 28.063V29.3153C170.321 29.7761 170.591 30.0366 171.041 30.0366H184.757C185.027 30.0366 185.437 29.9264 185.437 29.3153V28.063Z" fill="var(--fill-0, #EFDB6C)"/>
</g>
</svg>
