<svg preserveAspectRatio="none" width="100%" height="100%" overflow="visible" style="display: block;" viewBox="0 0 27.6804 36.2834" fill="none" xmlns="http://www.w3.org/2000/svg">
<path id="Vector" d="M26.8586 5.98267L15.4518 0.163212C14.7088 -0.217884 13.8151 0.0911583 13.4436 0.85335L0.159113 28.251C-0.212411 29.0132 0.0888685 29.9299 0.831915 30.311L12.2387 36.1202C12.9817 36.5013 13.8754 36.1922 14.2469 35.43L27.5213 8.03234C27.8928 7.27015 27.5917 6.35346 26.8486 5.97236L26.8586 5.98267ZM15.4318 14.8715C13.6746 13.9754 12.9516 11.7815 13.8251 9.97904C14.6987 8.17656 16.8375 7.43486 18.5947 8.33095C20.3519 9.22704 21.075 11.4209 20.2014 13.2337C19.3278 15.0362 17.189 15.7779 15.4318 14.8818V14.8715Z" fill="var(--fill-0, #F4C058)"/>
</svg>
