<svg preserveAspectRatio="none" width="100%" height="100%" overflow="visible" style="display: block;" viewBox="0 0 66.9867 80.0715" fill="none" xmlns="http://www.w3.org/2000/svg">
<g id="Group">
<path id="Vector" d="M22.0198 80.0096C21.7171 80.1098 21.3849 80.0897 21.0919 79.9394C20.7989 79.7892 20.584 79.5387 20.4864 79.2282L0.0639135 16.8532C-0.14119 16.222 0.161672 15.5407 0.767216 15.3003L44.9817 0.0621939C45.597 -0.148194 46.2806 0.192444 46.5052 0.823607L47.4721 3.58872C47.6968 4.2299 47.3842 4.92125 46.7592 5.17171C46.1146 5.41216 45.4211 5.07154 45.1965 4.43036L44.6299 2.80725L2.74013 17.2438L22.391 77.2646L64.2614 62.8378L55.5004 35.3974C55.3051 34.7662 55.6177 34.0949 56.2135 33.8545C56.9069 33.6241 57.5906 33.9747 57.7957 34.6259L66.9277 63.2287C67.123 63.8599 66.8203 64.5311 66.2147 64.7716L22.0003 80.0096H22.0198Z" fill="var(--fill-0, #3C3D3D)"/>
<path id="Vector_2" d="M14.4908 25.6586C13.8559 25.879 13.1723 25.5283 12.9574 24.8771C12.7523 24.2459 13.0648 23.5646 13.6606 23.3242L39.7771 14.3276C40.412 14.1072 41.0957 14.4579 41.3106 15.1091C41.5157 15.7402 41.203 16.4215 40.5975 16.662L14.481 25.6586H14.4908Z" fill="var(--fill-0, #3C3D3D)"/>
<path id="Vector_3" d="M20.0367 41.4887C19.4018 41.7091 18.7182 41.3684 18.4936 40.7272C18.2787 40.0961 18.5912 39.4047 19.1968 39.1643L38.6424 32.2516C38.9452 32.1414 39.2773 32.1613 39.5703 32.3116C39.8633 32.4518 40.0782 32.7123 40.1857 33.0228C40.4005 33.654 40.088 34.3453 39.4825 34.5858L20.0465 41.4887H20.0367Z" fill="var(--fill-0, #3C3D3D)"/>
<path id="Vector_4" d="M17.8843 33.9147C17.5816 34.0249 17.2495 34.0048 16.9565 33.8545C16.6635 33.7143 16.4487 33.4538 16.3412 33.1433C16.1264 32.5121 16.4389 31.8208 17.0444 31.5803L17.2496 31.5104C17.8844 31.29 18.5681 31.6304 18.7927 32.2816C19.0076 32.9127 18.6951 33.6041 18.0895 33.8445L17.8941 33.9147H17.8843Z" fill="var(--fill-0, #3C3D3D)"/>
<path id="Vector_5" d="M36.0643 27.5933C35.4294 27.6735 34.6969 27.5131 34.4625 26.8018C34.2476 26.1606 34.5601 25.4395 35.1559 25.209C35.4977 25.0888 35.82 25.1087 36.113 25.2589C36.4158 25.4092 36.6405 25.6699 36.7479 25.9905C36.9628 26.6417 36.66 27.3529 36.0643 27.5933Z" fill="var(--fill-0, #3C3D3D)"/>
<path id="Vector_6" d="M29.6773 29.7275C29.3453 29.8477 29.023 29.8176 28.73 29.6773C28.437 29.5271 28.2221 29.2766 28.1147 28.9661C27.8998 28.3349 28.2123 27.6536 28.8178 27.4132C29.1695 27.2829 29.5015 27.313 29.7848 27.4533C30.0778 27.6035 30.2926 27.854 30.4001 28.1645C30.6149 28.7957 30.3024 29.477 29.6969 29.7275H29.6676H29.6773Z" fill="var(--fill-0, #3C3D3D)"/>
<path id="Vector_7" d="M23.3649 31.9414C23.0328 32.0516 22.7104 32.0315 22.4174 31.8912C22.1244 31.751 21.9095 31.4905 21.8021 31.18C21.597 30.5488 21.8999 29.8575 22.5152 29.617C23.1891 29.3766 23.8825 29.7272 24.0974 30.3784C24.3025 31.0096 23.9996 31.7009 23.3843 31.9414H23.3649Z" fill="var(--fill-0, #3C3D3D)"/>
<path id="Vector_8" d="M41.2673 25.6591C40.6324 25.8795 39.9488 25.5388 39.7241 24.8876C39.5093 24.2564 39.8218 23.5751 40.4175 23.3347L40.6324 23.2545C41.2672 23.0341 41.951 23.3747 42.1756 24.0259C42.3905 24.6571 42.0778 25.3384 41.4625 25.5889L41.2575 25.6591H41.2673Z" fill="var(--fill-0, #3C3D3D)"/>
<path id="Vector_9" d="M22.1965 49.1626C21.8938 49.2728 21.5617 49.2527 21.2687 49.1024C20.9757 48.9621 20.7609 48.7017 20.6534 48.3911C20.4386 47.76 20.7511 47.0686 21.3664 46.8282L36.2217 41.5484C36.5245 41.4382 36.8566 41.4583 37.1496 41.6086C37.4426 41.7489 37.6575 42.0093 37.7649 42.3199C37.9798 42.951 37.6672 43.6424 37.0616 43.8828L22.1965 49.1726V49.1626Z" fill="var(--fill-0, #3C3D3D)"/>
<path id="Vector_10" d="M24.6246 56.8259C23.9898 57.0463 23.3061 56.6959 23.0913 56.0447C22.8862 55.4135 23.1889 54.7322 23.7945 54.4918L35.3583 50.4643C35.9932 50.2439 36.6769 50.5946 36.8918 51.2458C37.0969 51.877 36.7942 52.5583 36.1788 52.7987L24.6246 56.8259Z" fill="var(--fill-0, #3C3D3D)"/>
<path id="Vector_11" d="M27.1754 64.3909C26.5405 64.6113 25.8569 64.2606 25.6421 63.6195C25.4369 62.9883 25.7397 62.3072 26.3452 62.0668L37.8115 58.0494C38.1143 57.9392 38.4464 57.969 38.7394 58.1093C39.0324 58.2596 39.2473 58.51 39.3547 58.8206C39.5696 59.4517 39.257 60.133 38.6514 60.3735L27.1852 64.3909H27.1754Z" fill="var(--fill-0, #3C3D3D)"/>
<path id="Vector_12" d="M43.9475 58.1387C43.7229 58.2289 43.4787 58.249 43.2443 58.1889C42.5899 58.0386 42.1797 57.3674 42.3262 56.7062L42.5411 55.7344L42.2774 55.4137C40.6659 53.4501 39.6794 49.4127 40.1971 46.9582C40.5584 45.2751 43.2052 31.7803 47.8542 7.94634L48.1082 6.63386C48.1863 6.21308 48.4696 5.87253 48.8602 5.71224C49.0751 5.63209 49.3094 5.61199 49.5341 5.65207L50.921 5.93261L51.966 1.04347C52.0441 0.662772 52.2981 0.342317 52.64 0.182022C53.0307 0.0217264 53.4018 0.0415481 53.7143 0.211862L56.6541 1.82494C57.1229 2.08542 57.3671 2.61648 57.2695 3.15748L56.5076 7.18492L57.4647 7.21501C57.787 7.21501 58.08 7.35515 58.3047 7.59559L61.4887 10.9619C61.7621 11.2524 61.8892 11.6631 61.8111 12.0638L58.4903 29.1955C58.4122 29.5862 58.1583 29.9267 57.7969 30.087C57.7969 30.087 56.1072 30.8585 56.0975 30.8585C55.7752 30.9887 55.4821 30.9887 55.2087 30.8885L54.3199 30.5679L54.1343 31.5196C52.1028 41.9588 50.9308 47.8999 50.6573 49.1823C49.9541 52.4884 46.946 55.1632 45.2172 56.0749L44.8753 56.2554L44.6604 57.2472C44.5725 57.6479 44.2893 57.9784 43.9182 58.1287L43.9475 58.1387ZM44.8265 36.1482C43.4689 43.051 42.7559 46.6577 42.5801 47.4892C42.1894 49.3226 43.0489 51.9273 43.6838 53.1395L44.1233 53.9812L44.8753 53.4301C46.2133 52.4583 47.9128 50.6249 48.3328 48.6613C48.5379 47.6895 49.2704 43.9726 50.5694 37.3203L50.7257 36.499L44.9731 35.3267L44.8168 36.1482H44.8265ZM45.4614 32.9023L51.2043 34.0743L51.3605 33.253C53.0697 24.4969 54.9938 14.5283 55.8142 10.3206L55.9705 9.49901L50.2568 8.33695L45.4516 32.9023H45.4614Z" fill="var(--fill-0, #3C3D3D)"/>
</g>
</svg>
