<svg preserveAspectRatio="none" width="100%" height="100%" overflow="visible" style="display: block;" viewBox="0 0 76.318 77.378" fill="none" xmlns="http://www.w3.org/2000/svg">
<g id="Group 11113">
<path id="Vector" d="M55.4866 37.905L56.9614 30.4313L49.3726 28.3273C49.3042 26.2935 48.9233 24.3301 48.2494 22.4767L54.51 17.5875L50.3981 11.2357L43.5809 15.2531C42.1745 13.9006 40.5532 12.7687 38.7561 11.9272L39.8109 3.94249L32.5248 2.42969L30.4738 10.2138C28.4911 10.2839 26.5768 10.6748 24.77 11.3661L20.0038 4.95412L13.8116 9.1721L17.7281 16.165C16.4096 17.6076 15.3059 19.2706 14.4855 21.114L6.70135 20.032L5.22656 27.5057L12.8154 29.6097C12.8837 31.6434 13.2744 33.6071 13.9386 35.4606L7.67803 40.3495L11.7899 46.7013L18.6071 42.6838C20.0135 44.0363 21.6348 45.1685 23.4319 46.01L22.3771 53.9947L29.6632 55.5075L31.7142 47.7232C33.6969 47.653 35.6112 47.2622 37.418 46.5709L42.1745 52.9929L48.3666 48.7751L44.4501 41.782C45.7686 40.3394 46.8723 38.6864 47.6927 36.833L55.4769 37.915L55.4866 37.905ZM29.2139 38.4761C24.0863 37.4142 20.7753 32.2946 21.8106 27.0449C22.8459 21.7852 27.8368 18.3891 32.9643 19.4511C38.0919 20.513 41.4029 25.6324 40.3676 30.8921C39.3323 36.1518 34.3415 39.5481 29.2236 38.4862L29.2139 38.4761Z" fill="var(--fill-0, #F4C058)"/>
<path id="Vector_2" d="M25.614 55.4678C25.5358 55.4678 25.4577 55.4678 25.3795 55.4478L18.0935 53.945C17.488 53.8147 17.0778 53.2336 17.1657 52.6024L18.1033 45.4794C16.7847 44.7781 15.5444 43.9265 14.4016 42.9247L8.3169 46.5114C7.77972 46.832 7.09605 46.6615 6.75421 46.1305L2.64237 39.7787C2.30053 39.2478 2.41774 38.5366 2.90608 38.1559L8.49271 33.7977C8.03367 32.335 7.75043 30.8323 7.63322 29.3095L0.864819 27.4362C0.269043 27.2759 -0.102097 26.6546 0.0248715 26.0334L1.49966 18.5597C1.62663 17.9385 2.18333 17.5178 2.80841 17.608L9.75262 18.5797C10.4363 17.2272 11.2665 15.9549 12.2432 14.7827L8.74664 8.54121C8.4341 7.99019 8.60014 7.28905 9.11778 6.9384L15.3099 2.72042C15.8276 2.36977 16.521 2.49001 16.8922 2.99094L21.1407 8.71144C22.5667 8.24058 24.0317 7.95016 25.5163 7.82994L27.3427 0.887203C27.5087 0.276077 28.085 -0.104733 28.71 0.0255073L35.9961 1.53831C36.6016 1.65853 37.0118 2.24971 36.9239 2.88087L35.9863 10.0039C37.3146 10.7052 38.555 11.5568 39.688 12.5586L45.7727 8.97193C46.3099 8.65134 46.9935 8.82178 47.3354 9.35276L51.4472 15.7046C51.789 16.2355 51.6719 16.9467 51.1835 17.3274L45.5969 21.6856C46.0559 23.1483 46.3392 24.651 46.4564 26.1738L53.2248 28.0471C53.8206 28.2074 54.1917 28.8287 54.0647 29.4499L52.5899 36.9236C52.463 37.5448 51.9063 37.9655 51.2812 37.8753L44.337 36.9136C43.6533 38.2661 42.8231 39.5385 41.8464 40.7106L45.3429 46.9521C45.6555 47.5031 45.4895 48.2043 44.9718 48.5549L38.7796 52.7729C38.262 53.1236 37.5686 53.0033 37.1974 52.5024L32.9488 46.7816C31.5229 47.2525 30.0579 47.5432 28.5733 47.6634L26.7469 54.6061C26.6102 55.1371 26.1316 55.4979 25.614 55.4979V55.4678ZM19.6367 51.8009L24.7642 52.8629L26.5223 46.1706C26.659 45.6597 27.0985 45.2989 27.6162 45.2789C29.4328 45.2188 31.2299 44.8583 32.9586 44.2071C33.447 44.0267 33.9841 44.1869 34.2967 44.6077L38.389 50.1279L42.7547 47.1625L39.3852 41.1514C39.1312 40.6905 39.1898 40.1196 39.5414 39.7288C40.7916 38.3563 41.8171 36.7933 42.5789 35.1002C42.7938 34.6193 43.2724 34.3388 43.7998 34.409L50.4998 35.3406L51.5351 30.0809L45.0109 28.2775C44.5128 28.1373 44.1612 27.6866 44.1416 27.1556C44.083 25.2822 43.7314 23.4388 43.0966 21.6856C42.9208 21.1846 43.077 20.6335 43.4873 20.3129L48.8688 16.1052L45.968 11.627L40.1079 15.0833C39.6586 15.3438 39.1019 15.2838 38.721 14.9231C37.383 13.6407 35.8691 12.5887 34.2088 11.8072C33.74 11.5868 33.4665 11.0759 33.5349 10.5549L34.4432 3.6824L29.3058 2.62038L27.5478 9.31265C27.411 9.82359 26.9715 10.1844 26.4539 10.2044C24.6275 10.2645 22.8304 10.625 21.1212 11.2762C20.6329 11.4566 20.0957 11.2964 19.7832 10.8756L15.6909 5.3554L11.3251 8.32083L14.6946 14.3319C14.9486 14.7928 14.89 15.3637 14.5384 15.7545C13.2882 17.127 12.2627 18.69 11.5009 20.3831C11.286 20.864 10.7977 21.1445 10.28 21.0743L3.58 20.1427L2.54471 25.4124L9.06895 27.2158C9.56706 27.356 9.91866 27.8067 9.93819 28.3377C9.9968 30.2112 10.3484 32.0445 10.9833 33.8078C11.1591 34.3087 11.0028 34.8598 10.5926 35.1804L5.21105 39.3781L8.1118 43.8563L13.9719 40.4C14.4114 40.1395 14.9779 40.1995 15.3588 40.5602C16.6968 41.8426 18.2205 42.8946 19.8711 43.6761C20.3399 43.8965 20.6133 44.4074 20.545 44.9284L19.6367 51.8009ZM27.0399 38.6468C26.3465 38.6468 25.6433 38.5767 24.9303 38.4264C22.1467 37.8453 19.7441 36.1921 18.1716 33.7676C16.5992 31.3432 16.0425 28.4279 16.6089 25.5726C17.7712 19.6817 23.3969 15.8447 29.1398 17.0369C31.9233 17.6179 34.326 19.2711 35.8984 21.6956C37.4709 24.1201 38.0276 27.0354 37.4611 29.8906C36.4454 35.0602 31.9917 38.6468 27.0399 38.6468ZM25.3991 36.0719C29.8821 37.0037 34.2674 34.0183 35.1659 29.4198C35.6054 27.1957 35.1659 24.9214 33.9451 23.0279C32.7144 21.1344 30.849 19.8421 28.6807 19.3913C24.1978 18.4696 19.8222 21.455 18.9139 26.0434C18.0056 30.6419 20.9161 35.1402 25.3991 36.0619V36.0719Z" fill="var(--fill-0, #4C4B4C)"/>
<path id="Vector_3" d="M56.779 77.378C56.7008 77.378 56.6227 77.378 56.5446 77.3579L51.6611 76.3262C51.0556 76.196 50.6552 75.6148 50.7333 74.9837L51.3388 70.4854C50.5966 70.0646 49.8934 69.5838 49.239 69.0227L45.3908 71.2769C44.8537 71.5875 44.17 71.427 43.8282 70.8961L41.0837 66.6282C40.7418 66.0972 40.859 65.386 41.3571 65.0053L44.8927 62.2603C44.6583 61.4287 44.4923 60.5771 44.4142 59.7055L40.1461 58.5033C39.5503 58.333 39.1792 57.7217 39.3061 57.1006L40.3121 52.0914C40.4391 51.4702 41.0055 51.0495 41.6209 51.1397L46.0062 51.7609C46.4164 50.9995 46.8852 50.2781 47.4321 49.6168L45.2346 45.6696C44.9318 45.1186 45.0881 44.4172 45.6057 44.0666L49.7664 41.2516C50.284 40.9009 50.9677 41.0209 51.3486 41.5319L54.015 45.1587C54.8256 44.9182 55.6558 44.7479 56.5055 44.6678L57.6775 40.2795C57.8436 39.6684 58.4198 39.2879 59.0449 39.4181L63.9283 40.45C64.5338 40.5803 64.9343 41.1612 64.8561 41.7923L64.2506 46.2906C64.9929 46.7114 65.6961 47.1925 66.3505 47.7435L70.1986 45.4893C70.7358 45.1788 71.4194 45.349 71.7613 45.8699L74.5058 50.1378C74.8476 50.6688 74.7304 51.3802 74.2323 51.7609L70.6967 54.506C70.9311 55.3375 71.0971 56.1989 71.1753 57.0605L75.4531 58.2629C76.0489 58.4332 76.4201 59.0442 76.2931 59.6654L75.2871 64.6746C75.1601 65.2958 74.5937 65.7165 73.9784 65.6263L69.593 65.0053C69.1926 65.7667 68.714 66.4779 68.1769 67.1592L70.3744 71.1064C70.6772 71.6574 70.5209 72.3588 70.0032 72.7095L65.8426 75.5247C65.3249 75.8754 64.6315 75.7551 64.2604 75.2442L61.5842 71.6174C60.7638 71.8678 59.9337 72.0281 59.0937 72.1083L57.9217 76.4864C57.7752 77.0174 57.3064 77.378 56.7887 77.3679L56.779 77.378ZM53.2141 74.2022L55.939 74.7733L57.0329 70.6456C57.1696 70.1347 57.6091 69.7741 58.1268 69.7641C59.2988 69.724 60.4611 69.4934 61.5842 69.0726C62.0628 68.8923 62.6098 69.0527 62.9223 69.4735L65.4324 72.8897L67.7569 71.317L65.6863 67.5999C65.4324 67.1391 65.5007 66.5681 65.8523 66.1774C66.6728 65.2858 67.3369 64.2739 67.8252 63.1819C68.0401 62.701 68.5285 62.4205 69.0461 62.5007L73.1775 63.0916L73.7342 60.2967L69.7102 59.1645C69.2121 59.0242 68.8605 58.5735 68.8508 58.0425C68.8117 56.8403 68.5871 55.6381 68.1769 54.4959C68.0011 53.995 68.1573 53.4439 68.5675 53.1233L71.898 50.5485L70.3646 48.1642L66.7411 50.2782C66.2919 50.5387 65.7351 50.4684 65.3542 50.1077C64.4948 49.2762 63.5083 48.5949 62.434 48.084C61.9651 47.8636 61.7015 47.3526 61.7698 46.8317L62.3461 42.5939L59.6211 42.0228L58.5175 46.1505C58.3807 46.6614 57.9412 47.022 57.4236 47.032C56.2418 47.0721 55.0795 47.2926 53.9661 47.7134C53.4875 47.8938 52.9406 47.7333 52.6281 47.3125L50.118 43.8963L47.7935 45.4693L49.8641 49.1861C50.118 49.647 50.0496 50.2179 49.698 50.6087C48.8776 51.5003 48.2135 52.5021 47.7251 53.6042C47.5102 54.0851 47.0219 54.3657 46.5043 54.2856L42.3729 53.6944L41.8162 56.4896L45.8401 57.6216C46.3382 57.7618 46.6898 58.2128 46.6996 58.7438C46.7387 59.956 46.9633 61.1482 47.3638 62.2903C47.5396 62.7913 47.3833 63.3422 46.9731 63.6627L43.6426 66.2376L45.176 68.6218L48.7995 66.4981C49.2488 66.2376 49.8055 66.3076 50.1864 66.6683C51.0458 67.4998 52.0323 68.1911 53.1066 68.7021C53.5754 68.9225 53.8392 69.4334 53.7708 69.9544L53.1945 74.1922L53.2141 74.2022ZM57.7654 66.1072C57.2771 66.1072 56.779 66.0572 56.2809 65.947C52.2179 65.0854 49.6004 61.0078 50.4305 56.8401C50.831 54.8264 51.9737 53.0833 53.6536 51.9512C55.3335 50.8191 57.3357 50.4183 59.2988 50.8391C63.352 51.6906 65.9793 55.7783 65.1491 59.9459C64.4166 63.5927 61.2619 66.1172 57.7654 66.1072ZM56.7594 63.6026C59.5527 64.1837 62.2875 62.3404 62.8637 59.4751C63.4399 56.6098 61.6331 53.7946 58.8398 53.2136C57.4822 52.933 56.1051 53.2036 54.9526 53.985C53.8001 54.7664 53.009 55.9585 52.7355 57.3511C52.1593 60.2163 53.9661 63.0215 56.7594 63.6126V63.6026Z" fill="var(--fill-0, #4C4B4C)"/>
</g>
</svg>
