<svg preserveAspectRatio="none" width="100%" height="100%" overflow="visible" style="display: block;" viewBox="0 0 83.1726 87.6446" fill="none" xmlns="http://www.w3.org/2000/svg">
<g id="Group">
<path id="Vector" d="M14.5234 42.0613L51.7546 34.3672L55.6222 51.559L18.3911 59.2532L14.5234 42.0613ZM16.2131 43.1033L19.485 57.63L23.9484 56.7084L23.1573 56.0272L33.9594 44.5561L38.1201 46.72L42.5835 41.4804L48.9026 44.8465L48.2092 46.0389L42.9351 43.2236L39.3995 47.3812L46.793 51.2284L46.3047 52.0898L53.9521 50.5071L50.6802 35.9803L16.2326 43.0932L16.2131 43.1033ZM24.554 56.5783L45.6992 52.2101L34.272 46.2592L24.554 56.5783Z" fill="var(--fill-0, #3C3D3D)"/>
<path id="Vector_2" d="M34.6523 31.813L50.1523 28.6172L50.4551 29.9497L34.9551 33.1456L34.6523 31.813Z" fill="var(--fill-0, #3C3D3D)"/>
<path id="Vector_3" d="M13.3008 36.2313L29.5235 32.875L29.8165 34.2075L13.6036 37.5636L13.3008 36.2313Z" fill="var(--fill-0, #3C3D3D)"/>
<path id="Vector_4" d="M19.4609 63.5815L56.4479 55.9473L56.7507 57.2798L19.7637 64.9137L19.4609 63.5815Z" fill="var(--fill-0, #3C3D3D)"/>
<path id="Vector_5" d="M20.8398 69.683L57.8268 62.0391L58.1296 63.3714L21.1329 71.0156L20.8398 69.683Z" fill="var(--fill-0, #3C3D3D)"/>
<path id="Vector_6" d="M33.2617 25.6411L48.7519 22.4453L49.0547 23.7776L33.5645 26.9737L33.2617 25.6411Z" fill="var(--fill-0, #3C3D3D)"/>
<path id="Vector_7" d="M11.9139 30.0592L28.1268 26.7031L28.4296 28.0354L12.2166 31.3817L11.9139 30.0592Z" fill="var(--fill-0, #3C3D3D)"/>
<path id="Vector_8" d="M29.6796 78.3875L31.0665 78.0972L32.8538 86.0217L81.4828 75.9832L71.2765 30.6496L62.6719 32.4329L62.3691 31.1004L70.9737 29.3271L69.6747 23.5565L60.7576 25.3899L60.4548 24.0574L70.7686 21.9336L83.1725 77.0252L31.7599 87.6446L29.6796 78.3875Z" fill="var(--fill-0, #3C3D3D)"/>
<path id="Vector_9" d="M15.703 78.3887C15.3807 78.3786 15.1072 78.1584 15.0388 77.8479L0.0174394 11.1749C-0.0704621 10.8042 0.183473 10.4435 0.564379 10.3633L50.6584 0.014176C50.717 0.00415754 50.7756 -0.00587071 50.8342 0.00414776C50.9612 0.00414776 51.0882 0.0443293 51.1956 0.114459C51.3519 0.214643 51.4691 0.364852 51.5081 0.545184L59.9662 38.0944L68.141 36.4013L68.4438 37.7339L60.269 39.4269L61.3922 44.3961L69.567 42.703L69.8698 44.0355L61.6949 45.7186L62.906 51.0984L71.0808 49.4053L71.3836 50.7378L63.2088 52.4309L66.5393 67.2182C66.5784 67.3885 66.5393 67.5788 66.4416 67.7291C66.3439 67.8794 66.1779 67.9896 65.9923 68.0297L15.8983 78.3786C15.8397 78.3887 15.7811 78.3987 15.7225 78.3887H15.703ZM3.38698 19.6906L16.2694 76.8959L64.9766 66.8376L52.0941 9.63201L3.38698 19.6906ZM1.56058 11.5555L3.09398 18.3581L51.8011 8.29947L50.2677 1.49689L1.56058 11.5555Z" fill="var(--fill-0, #3C3D3D)"/>
<path id="Vector_10" d="M40.617 76.1241L42.0136 75.8438L42.6289 78.5888L47.1021 77.6569L47.4049 78.9894L41.535 80.2016L40.617 76.1241Z" fill="var(--fill-0, #3C3D3D)"/>
<path id="Vector_11" d="M48.2578 77.4157L51.2465 76.8047L51.5492 78.137L48.5606 78.7482L48.2578 77.4157Z" fill="var(--fill-0, #3C3D3D)"/>
<path id="Vector_12" d="M63.8633 74.2014L65.7874 73.8008L66.0901 75.1331L64.1661 75.534L63.8633 74.2014Z" fill="var(--fill-0, #3C3D3D)"/>
<path id="Vector_13" d="M58.8945 75.2226L60.8186 74.832L61.1213 76.1643L59.1973 76.5552L58.8945 75.2226Z" fill="var(--fill-0, #3C3D3D)"/>
<path id="Vector_14" d="M54.1367 76.2051L56.0608 75.8145L56.3635 77.1467L54.4395 77.5376L54.1367 76.2051Z" fill="var(--fill-0, #3C3D3D)"/>
<path id="Vector_15" d="M68.221 73.2996L69.7544 72.9789L65.7695 55.2964L67.1662 55.0059L71.4441 74.0309L68.5238 74.6319L68.221 73.2996Z" fill="var(--fill-0, #3C3D3D)"/>
<path id="Vector_16" d="M9.76563 23.4675L46.9968 15.7832L47.2996 17.1057L10.0586 24.7998L9.76563 23.4675Z" fill="var(--fill-0, #3C3D3D)"/>
</g>
</svg>
