<svg preserveAspectRatio="none" width="100%" height="100%" overflow="visible" style="display: block;" viewBox="0 0 56.5445 59.0531" fill="none" xmlns="http://www.w3.org/2000/svg">
<path id="Vector" d="M48.0476 59.0531C47.6472 59.0331 38.105 58.5321 33.329 51.7396L33.1239 51.4492L32.7821 51.3891C32.3328 51.3089 31.8835 51.2288 31.444 51.1186C27.0001 50.0967 23.0055 47.9528 19.9094 44.8971L19.0987 44.0956L20.6907 42.4025L21.5111 43.2041C24.3435 45.9892 27.9475 47.9427 31.9421 48.8544L32.743 49.0246L33.0067 48.8845C33.163 48.7943 33.3388 48.7541 33.5146 48.7541C33.8271 48.7541 34.1396 48.8845 34.3643 49.1249L34.462 49.235L34.5987 49.4756C35.8879 51.7398 37.9585 53.533 40.7615 54.8253L42.4121 55.5868L41.914 53.8034C41.5624 52.5311 41.6113 51.1185 42.0605 49.5857L42.1289 49.3352L41.9922 48.8744L42.7345 48.644C42.8419 48.604 42.8907 48.5939 42.9396 48.5738L43.0763 48.5337C48.7801 46.7805 52.8529 42.6629 53.9663 37.5335C54.9723 32.8849 53.4682 27.9458 49.8252 23.9885L49.0926 23.117L50.6944 21.5641L51.4757 22.4057C55.6462 26.9341 57.3554 32.6344 56.1834 38.0444C54.9527 43.6948 50.6163 48.3436 44.5706 50.4775L44.092 50.6477L44.0139 51.1587C43.8479 52.2206 43.9846 53.1624 44.4241 53.9739C45.5473 56.0377 48.2527 56.7288 48.3699 56.7588C48.9461 56.8991 49.3173 57.4602 49.2392 58.0513C49.161 58.6223 48.702 59.0431 48.1453 59.0531H48.0671H48.0476ZM10.4649 43.5145C5.84515 43.6046 1.88958 41.9917 1.45984 41.8013C0.922666 41.5709 0.639425 40.9398 0.815228 40.3587C0.96173 39.8778 1.38172 39.5572 1.87006 39.5472C1.95796 39.5472 2.04585 39.5472 2.13376 39.5773C2.27049 39.6073 2.90534 39.7176 3.72575 39.7076C4.60477 39.6876 5.85491 39.5171 6.8609 38.7757C7.56411 38.2548 8.07199 37.4934 8.36499 36.5116L8.53101 35.9605L8.09153 35.5899C1.72355 30.2501 -1.13814 22.7763 0.414784 15.5931C2.36815 6.60653 11.1583 0.194649 21.8042 0.00429786C24.0603 -0.035776 26.3457 0.204628 28.5921 0.71557C39.6188 3.24022 47.9206 12.1468 48.3308 21.8948L48.3797 23.117L48.2625 24.3793C48.2039 25.0405 48.0964 25.7118 47.9402 26.4131C45.9966 35.3696 37.1967 41.7614 26.5508 41.9518C24.8709 41.9818 23.4938 41.9115 22.2046 41.7311L20.4856 41.4907L19.8508 41.3506H19.7531C19.7531 41.3506 19.1769 41.2104 18.9815 41.1603L18.6397 41.07L18.3369 41.2603C16.0808 42.6929 13.434 43.4443 10.4551 43.4944L10.4649 43.5145ZM10.2207 38.0344L10.1914 38.1046C9.92768 38.7057 9.5956 39.2468 9.20493 39.6976L8.00363 41.1001L9.82024 41.1302C10.0351 41.1302 10.2402 41.1302 10.4453 41.1302C12.8382 41.0901 14.9576 40.549 16.7449 39.5271L17.0477 39.3569L17.3602 38.2648L18.4444 38.5955C19.0401 38.7758 19.6457 38.9361 20.2512 39.0763C22.3315 39.5572 24.451 39.7775 26.5313 39.7375C36.1028 39.5571 43.9944 33.8967 45.7231 25.9621C47.8816 16.0137 39.9704 5.70479 28.094 2.98978C26.0136 2.5089 23.8942 2.28858 21.8139 2.32865C12.2424 2.50898 4.35082 8.16942 2.6221 16.104C1.19614 22.6862 4.15549 29.719 10.3477 34.4677C10.5625 34.628 10.7579 34.7785 10.963 34.9188L11.8908 35.5899L10.2207 38.0444V38.0344Z" fill="var(--fill-0, #236242)"/>
</svg>
