<svg preserveAspectRatio="none" width="100%" height="100%" overflow="visible" style="display: block;" viewBox="0 0 40.5068 35.5011" fill="none" xmlns="http://www.w3.org/2000/svg">
<g id="Group">
<path id="Vector" d="M9.74739 0L32.8654 13.2243L34.8872 23.7136L7.09073 34.1428L0 3.81685L9.74739 0Z" fill="var(--fill-0, #70B791)"/>
<path id="Vector_2" d="M5.22266 4.88867L40.0902 24.9858L11.6199 35.0845L5.22266 4.88867Z" stroke="var(--stroke-0, #020B18)" stroke-width="0.833136" stroke-linecap="round" stroke-linejoin="round"/>
<path id="Vector_3" d="M14.8242 0.681641L26.5444 7.43408L16.7776 11.191L14.8242 0.681641Z" stroke="var(--stroke-0, #020B18)" stroke-width="0.833136" stroke-linecap="round" stroke-linejoin="round"/>
<path id="Vector_4" d="M26.379 7.29297L38.0992 14.0457L28.3323 17.8026L26.379 7.29297Z" stroke="var(--stroke-0, #020B18)" stroke-width="0.833136" stroke-linecap="round" stroke-linejoin="round"/>
<path id="Vector_5" d="M16.7031 11.1511L28.4721 17.8333L26.4504 7.33398L16.7031 11.1511Z" stroke="var(--stroke-0, #020B18)" stroke-width="0.833136" stroke-linecap="round" stroke-linejoin="round"/>
<path id="Vector_6" d="M28.2656 17.7624L40.0346 24.4447L38.0129 13.9453L28.2656 17.7624Z" stroke="var(--stroke-0, #020B18)" stroke-width="0.833136" stroke-linecap="round" stroke-linejoin="round"/>
<path id="Vector_7" d="M5.14844 4.53755L16.9175 11.22L14.8957 0.720703L5.14844 4.53755Z" stroke="var(--stroke-0, #020B18)" stroke-width="0.833136" stroke-linecap="round" stroke-linejoin="round"/>
<path id="Vector_8" d="M16.2387 11.6914L12.2344 34.874L28.1543 18.2937" stroke="var(--stroke-0, #020B18)" stroke-width="0.833136" stroke-linecap="round" stroke-linejoin="round"/>
</g>
</svg>
