<svg preserveAspectRatio="none" width="100%" height="100%" overflow="visible" style="display: block;" viewBox="0 0 48.5527 39.0929" fill="none" xmlns="http://www.w3.org/2000/svg">
<g id="Group">
<path id="Vector" d="M38.0082 9.73295C29.1882 5.74295 22.1382 12.6129 22.1382 12.6129L21.8182 12.5429C21.8182 12.5429 18.0382 3.45295 8.35825 3.64295C-1.27175 3.83295 -6.92175 25.0329 16.3482 39.0129L16.7282 39.0929C43.6282 35.4129 46.7882 13.7029 38.0082 9.73295Z" fill="var(--fill-0, #F18904)"/>
<path id="Vector_2" d="M43.1682 7.09295C34.3482 3.10295 27.2982 9.97295 27.2982 9.97295L26.9782 9.90295C26.9782 9.90295 23.2082 0.812946 13.5282 1.00295C3.89825 1.19295 -1.75175 22.3929 21.5182 36.3729L21.8982 36.4529C48.7982 32.7729 51.9582 11.0629 43.1782 7.09295H43.1682Z" stroke="var(--stroke-0, #020B18)" stroke-width="2" stroke-linecap="round" stroke-linejoin="round"/>
</g>
</svg>
