<svg preserveAspectRatio="none" width="100%" height="100%" overflow="visible" style="display: block;" viewBox="0 0 114.657 121.862" fill="none" xmlns="http://www.w3.org/2000/svg">
<g id="Group">
<path id="Vector" d="M111.762 37.6658C112.407 40.2806 110.854 42.9354 108.295 43.5966C105.736 44.2579 103.158 42.6649 102.513 40.04C101.868 37.4252 103.421 34.7704 105.98 34.1092C108.529 33.4479 111.118 35.0409 111.762 37.6658Z" fill="var(--fill-0, #F4C058)"/>
<path id="Vector_2" d="M113.519 22.8986C114.886 24.1008 115.043 26.2149 113.871 27.6175C112.699 29.0201 110.638 29.1802 109.27 27.978C107.903 26.7758 107.747 24.6619 108.919 23.2594C110.091 21.8568 112.152 21.6964 113.519 22.8986Z" fill="var(--fill-0, #F4C058)"/>
<path id="Vector_3" d="M113.264 11.0667C114.865 12.4693 115.051 14.9438 113.674 16.5769C112.306 18.2199 109.894 18.4102 108.302 16.9976C106.7 15.595 106.515 13.1204 107.892 11.4874C109.259 9.84437 111.672 9.6541 113.264 11.0667Z" fill="var(--fill-0, #F4C058)"/>
<g id="Group_2">
<path id="Vector_4" d="M85.2972 34.4269C93.5323 32.3082 98.5339 23.7427 96.4684 15.2953C94.4029 6.84794 86.0526 1.71754 77.8174 3.83624C69.5822 5.95494 64.5807 14.5204 66.6461 22.9678C68.7116 31.4152 77.062 36.5456 85.2972 34.4269Z" fill="var(--fill-0, #70B791)"/>
<path id="Vector_5" d="M87.0954 33.7382L73.4219 42.3141L78.1002 29.1998" fill="var(--fill-0, #70B791)"/>
</g>
<path id="Vector_6" d="M60.7019 78.5818L60.3796 78.6721L18.2944 89.4921L6.84766 42.6856L56.678 29.8722L57.6059 29.6217L58.1626 38.4679L54.8907 36.5444L52.5173 38.3879L51.6774 43.0163L59.2467 55.5594L61.9326 61.9212L59.7057 62.8328L54.8125 61.9711L51.6676 65.0569L54.334 67.8722L60.2331 71.1783L60.7019 78.5818Z" fill="var(--fill-0, #70B791)"/>
<path id="Vector_7" d="M102.442 77.5297C102.012 77.6399 101.563 77.4597 101.319 77.079L99.1601 73.7229C99.0429 73.5426 98.9843 73.3221 98.994 73.1117V72.8713L98.8671 72.681C98.701 72.4405 98.6424 72.1499 98.6913 71.8594C98.9257 70.6171 99.1796 68.2928 98.8573 67.3009L96.5426 60.0476L90.4871 50.43C90.4871 50.43 90.4481 50.3598 90.4285 50.3297C89.8328 49.0874 88.6607 48.4061 87.7817 48.0555C86.8636 47.6848 85.8186 47.5645 85.1154 47.7449C84.9884 47.7749 84.8614 47.8251 84.754 47.8752L83.9629 48.2859L84.334 48.957L84.8712 49.8789C85.1642 50.3798 85.0079 51.041 84.5196 51.3416C84.4317 51.3917 84.334 51.4416 84.2364 51.4617C83.7871 51.5719 83.328 51.3815 83.0936 50.9708L81.7751 48.7166C81.4919 48.2357 80.6715 47.8151 80.1148 47.8652L79.558 47.9153C78.9623 47.9654 78.4642 48.0055 77.7609 48.1658H77.7512C77.2238 48.3061 76.9405 48.4762 76.794 48.7066C76.5889 49.0572 76.5889 49.6384 76.7745 50.52C76.921 50.9708 77.4386 52.0128 77.6242 52.3133C77.927 52.8143 77.7707 53.4754 77.2824 53.786C77.1945 53.8461 77.0968 53.8863 76.9894 53.9164C76.5499 54.0266 76.0908 53.8363 75.8467 53.4355C75.8076 53.3654 75.4071 52.644 75.0751 51.9127L75.0067 51.7522L74.87 51.6422C74.7625 51.562 74.6844 51.4618 74.616 51.3516L74.2254 50.7003C73.4636 49.4079 72.3501 49.3478 69.9963 49.7084C69.8596 49.7285 69.6838 49.7586 69.508 49.8087C68.7657 49.9991 68.2871 50.3297 68.0723 50.8005C67.6523 51.7022 68.1504 52.9845 68.375 53.4954L70.0549 56.3508L70.2307 56.6314L70.7972 57.6131C70.9437 57.8536 70.9828 58.1442 70.9144 58.4247C70.846 58.7052 70.68 58.9356 70.4456 59.0858C70.3577 59.1459 70.26 59.1861 70.1624 59.2062C69.7131 59.3164 69.254 59.1258 69.0196 58.7251L68.3164 57.5429L66.9295 55.2487C66.8416 55.0984 66.7244 54.8781 66.5877 54.6176L63.5698 49.478C63.3354 49.0873 63.3744 48.5864 63.6674 48.2357L63.9214 47.9354L64.3023 47.8752C64.7222 47.8051 65.1324 48.0055 65.3571 48.3761L66.1384 49.7084L66.7733 49.0072C67.3104 48.4061 68.0625 47.9853 69.0001 47.7449C69.215 47.6847 69.4396 47.6448 69.6838 47.6047C70.9437 47.4143 72.6822 47.1438 74.157 47.8451L74.7137 48.1056L75.0458 47.5746C75.4853 46.8733 76.1983 46.3825 77.1554 46.142L77.3019 46.1019C78.1516 45.9116 78.7865 45.8614 79.392 45.8114L79.9194 45.7712C80.7008 45.7011 81.5895 45.9417 82.3514 46.4326L82.7518 46.6929L83.1327 46.4126C83.3476 46.2623 83.5917 46.1118 83.8457 45.9816C84.0898 45.8614 84.3438 45.7611 84.6173 45.691C86.2776 45.2602 88.0454 45.8815 88.5435 46.0819C90.2625 46.7631 91.542 47.8852 92.2549 49.3078L98.3689 59.0257C98.4178 59.1058 98.4569 59.1859 98.4862 59.2661L100.85 66.6599C101.367 68.2929 100.938 71.1881 100.791 72.0296L100.742 72.3001L100.908 72.5707L100.928 72.6007L103.057 75.9169C103.37 76.4078 103.243 77.069 102.764 77.3996C102.666 77.4698 102.559 77.5197 102.442 77.5398V77.5297ZM63.0033 47.0336C62.6028 47.1037 62.1926 46.9234 61.9778 46.5728C61.9289 46.5026 61.8996 46.4627 61.8703 46.4126C61.5773 45.9116 61.7336 45.2502 62.2219 44.9497C62.3098 44.8895 62.4075 44.8496 62.5052 44.8296C62.9349 44.7194 63.3842 44.8996 63.6284 45.2703C63.6772 45.3404 63.7065 45.3807 63.7358 45.4308C63.9702 45.8215 63.9311 46.3224 63.6381 46.6731L63.394 46.9734L63.0033 47.0336Z" fill="var(--fill-0, #3C3D3D)"/>
<path id="Vector_8" d="M83.103 90.4234C82.683 90.5336 82.2435 90.3634 81.9993 90.0027L79.8506 86.8468C79.8506 86.8468 79.792 86.7567 79.7725 86.7066L79.6358 86.4361L72.6329 84.2421C70.0936 83.4807 68.9411 82.4087 67.271 80.7356C66.7533 80.2147 66.0989 79.293 65.3371 78.231C64.5265 77.0889 63.6084 75.7863 62.8661 75.0349C60.1216 72.2398 58.139 71.1077 56.2345 70.0056L55.6484 69.6652C55.3261 69.4748 54.9745 69.2844 54.5936 69.084C52.5328 67.9619 50.6381 66.94 50.599 65.2469C50.5502 63.4135 51.7905 61.9911 53.9197 61.44C54.3494 61.3298 54.828 61.2497 55.3359 61.2096C56.2735 61.1295 58.4808 61.3899 60.2291 61.6604L61.6746 61.8908L51.1752 43.3366C50.472 42.1344 50.2962 40.7318 50.6771 39.3593C51.0483 38.0068 51.9175 36.8547 53.1188 36.1033C53.5486 35.8328 53.9978 35.6424 54.4276 35.5322C55.2382 35.3218 56.0391 35.3918 56.8107 35.7225C57.7874 36.1532 58.6566 36.9948 59.3794 38.2271C59.3794 38.2271 60.19 39.5896 61.5867 41.9639C61.8797 42.4649 61.7234 43.1261 61.2351 43.4366C61.1472 43.4967 61.0495 43.5369 60.9518 43.557C60.5026 43.6672 60.0435 43.4768 59.8091 43.0761C58.0218 40.0405 57.6604 39.4394 57.5725 39.2991L57.6018 39.3493C57.26 38.7682 56.7033 38.0066 55.9903 37.6961C55.8535 37.636 55.4824 37.4758 54.9257 37.6161C54.6913 37.6762 54.4471 37.7862 54.1932 37.9465C53.4411 38.4074 52.904 39.1287 52.6793 39.9502C52.4547 40.7517 52.5621 41.5632 52.9626 42.2445L68.6188 69.9156C68.7555 70.1661 68.7946 70.4467 68.7262 70.7272C68.6578 70.9977 68.482 71.238 68.2379 71.3783C68.15 71.4284 68.0621 71.4683 67.9644 71.4884C67.5151 71.5986 67.0463 71.3982 66.8119 70.9874L65.7864 69.1642L65.6106 69.064C65.4641 68.9838 65.3371 68.8735 65.2492 68.7333C64.3214 67.3407 61.4695 65.0266 59.9361 63.8745L59.7993 63.7742L59.6235 63.7441C59.3012 63.694 56.4298 63.2733 55.5117 63.3535C55.2871 63.3735 54.8378 63.4236 54.3885 63.5438C53.4509 63.7842 52.8844 64.215 52.7184 64.8161L52.611 65.217L52.8942 65.5174C53.3435 65.9883 54.3885 66.5795 55.5117 67.1906C55.8926 67.401 56.293 67.6213 56.674 67.8317L57.1721 68.1223C59.184 69.2844 61.3816 70.5467 64.3311 73.5422C65.1809 74.4038 66.1478 75.7664 66.9975 76.9586C67.6909 77.9405 68.3258 78.8321 68.7262 79.2329C70.2596 80.7657 71.1582 81.5972 73.2287 82.2183L79.9678 84.3321C80.2413 84.4223 80.4659 84.6127 80.5929 84.8731L80.7297 85.1437L81.0129 85.2339C81.2375 85.304 81.4231 85.4442 81.5501 85.6346L83.6988 88.7903C83.855 89.0207 83.9234 89.3113 83.8746 89.5918C83.8257 89.8723 83.6695 90.1227 83.4448 90.283C83.3374 90.3632 83.2202 90.4134 83.103 90.4435V90.4234Z" fill="var(--fill-0, #3C3D3D)"/>
<path id="Vector_9" d="M87.359 103.196C86.939 103.306 86.4897 103.126 86.2456 102.765L81.3036 95.3109C81.1473 95.0805 81.0887 94.7801 81.1473 94.4996C81.1961 94.2191 81.3622 93.9684 81.5966 93.8182L107.41 76.2457C107.508 76.1756 107.615 76.1256 107.733 76.0956C108.143 75.9854 108.573 76.1455 108.826 76.4962L113.544 83.0182C113.886 83.4891 113.788 84.1603 113.329 84.511C113.222 84.5911 113.095 84.6514 112.968 84.6915C112.557 84.8017 112.128 84.6412 111.874 84.2906L107.752 78.5901L83.6378 95.0005L87.9938 101.562C88.3161 102.053 88.1892 102.715 87.7204 103.045C87.6227 103.115 87.5055 103.166 87.3883 103.196H87.359Z" fill="var(--fill-0, #3C3D3D)"/>
<path id="Vector_10" d="M63.7315 82.4875C63.1747 82.6278 62.6083 82.2871 62.4715 81.7061C62.3348 81.125 62.6766 80.5539 63.2334 80.4137L63.6338 80.3134C64.1905 80.1731 64.757 80.5138 64.8937 81.0848C65.0304 81.6559 64.6886 82.237 64.1319 82.3772L63.7315 82.4775V82.4875Z" fill="var(--fill-0, #3C3D3D)"/>
<path id="Vector_11" d="M50.3681 78.9717L15.6177 87.9081L15.9888 88.6996C16.8972 90.6632 19.0849 91.7553 21.0774 91.2443L59.0117 81.4863C59.5684 81.3461 60.1349 81.6865 60.2716 82.2575C60.4084 82.8286 60.0665 83.4097 59.5098 83.55L44.6056 87.3871L44.8401 88.1184C44.8694 88.2186 44.8694 88.5393 44.8108 88.7297L40.4938 101.173C39.9176 102.846 38.6674 104.228 37.0754 104.96L36.5383 105.21L37.0559 107.324L39.6246 106.663C40.1813 106.522 40.7673 106.893 40.904 107.474L42.4081 113.645C42.5448 114.217 42.2128 114.798 41.6463 114.938C41.0896 115.078 40.5231 114.738 40.3864 114.156L39.1265 108.987L17.2585 114.607L18.7138 120.538C18.8505 121.109 18.5087 121.69 17.952 121.831C17.3953 121.971 16.8288 121.63 16.6921 121.059L14.9926 114.126C14.9438 113.936 14.9536 113.736 15.0122 113.545L15.1489 113.114L14.8364 112.804C14.6996 112.664 14.602 112.494 14.5531 112.303L10.2753 94.8007L9.76738 94.7608C9.46461 94.7408 9.19113 94.6705 9.06416 94.5903C8.61489 94.2898 8.19491 93.9192 7.82377 93.4684C7.23776 92.7571 6.82756 91.9756 6.63222 91.144L0.166585 64.7054C-0.585461 61.6197 1.28 58.4639 4.32725 57.6824C4.64955 57.6023 5.01093 57.542 5.4016 57.5019L6.22201 57.432L1.70975 38.9477C0.840498 35.3711 2.88177 31.8747 6.36853 30.9831L57.4588 17.839C58.035 17.6887 58.5722 17.9992 58.7089 18.5703L58.7578 18.7806C58.9141 19.4419 58.3769 19.8024 57.9569 19.9126L6.86663 33.057C4.58119 33.648 3.08687 36.0525 3.60451 38.3167L3.77055 39.0279L56.4333 25.4829C56.99 25.3427 57.5565 25.6833 57.6932 26.2644C57.8299 26.8455 57.4881 27.4166 56.9314 27.5568L4.36632 41.0818L15.2954 85.7841L58.4452 74.6838C59.0019 74.5435 59.5684 74.8842 59.7052 75.4652C59.8419 76.0463 59.5001 76.6171 58.9433 76.7574L52.2726 78.4708L50.3681 78.9617V78.9717ZM81.5438 35.5515L80.489 36.1826L68.3683 43.3159C68.2804 43.366 68.1925 43.4061 68.1046 43.4262C67.753 43.5163 67.3819 43.4262 67.1279 43.1557C66.7959 42.825 66.7177 42.3041 66.9424 41.8833L70.771 34.6299L70.0873 34.3093C65.3895 32.1252 61.8441 27.7771 60.6037 22.6777C60.3205 21.5256 60.1642 20.3735 60.1154 19.1612V18.3898C60.1349 10.395 65.4187 3.46242 72.9392 1.52886C82.0224 -0.805445 91.252 4.87491 93.5277 14.1821C94.5337 18.2796 94.0453 22.6078 92.1701 26.3547C90.3144 30.0715 87.2183 32.9768 83.4581 34.5397C83.4092 34.5597 83.3702 34.5698 83.3213 34.5898L81.5633 35.5315L81.5438 35.5515ZM16.5651 112.604L35.0342 107.855L34.5458 105.851C34.4774 105.581 34.5458 105.34 34.6044 105.18L34.7021 104.939L34.6239 104.669L34.6044 104.569C34.4872 104.008 34.8193 103.457 35.3662 103.316L35.5518 103.277C36.9485 102.916 38.0716 101.884 38.5502 100.501L42.9453 87.8279L21.5852 93.318C18.1571 94.1996 14.6508 91.9856 13.7718 88.389L6.76895 59.736L6.28061 59.6861C5.7532 59.626 5.27463 59.6559 4.81559 59.7661C2.91106 60.257 1.69998 62.2809 2.16879 64.1944L8.63442 90.6331C8.76139 91.154 9.01533 91.6449 9.38647 92.0957C9.59157 92.3462 9.85528 92.5766 10.1971 92.797C10.3632 92.9072 10.4901 93.0677 10.578 93.2681L10.7734 93.7389L11.2715 93.6988C11.7598 93.6587 12.2091 93.9994 12.3263 94.5104L16.5749 111.892L16.5456 112.593L16.5651 112.604ZM82.6572 32.5861C89.4842 29.7509 93.2835 22.0666 91.4864 14.7231C89.494 6.55805 81.3875 1.57879 73.4178 3.62256C65.4578 5.66633 60.6037 13.9817 62.5961 22.1467C63.8365 27.2461 67.6554 31.3938 72.5388 32.9968L72.7439 33.067C73.2908 33.2373 73.4471 33.678 73.2713 34.2391C73.2029 34.4695 73.1932 34.6398 73.0271 34.9704L72.8904 35.0707L70.5073 39.599L80.4792 33.7181L82.6572 32.5961V32.5861Z" fill="var(--fill-0, #3C3D3D)"/>
<path id="Vector_12" d="M13.1164 50.1275C12.5597 50.2677 11.9932 49.9271 11.8565 49.346L10.3621 43.2146C10.2254 42.6435 10.5673 42.0627 11.124 41.9224L17.1013 40.3895C17.658 40.2493 18.2244 40.5899 18.3612 41.161L19.8555 47.2922C19.9922 47.8632 19.6504 48.4443 19.0937 48.5846L13.1164 50.1174V50.1275ZM13.6145 47.7931L17.5701 46.7812L16.5836 42.7237L12.628 43.7356L13.6145 47.7931Z" fill="var(--fill-0, #3C3D3D)"/>
<path id="Vector_13" d="M22.9 44.3578C22.3433 44.4981 21.7768 44.1574 21.6401 43.5764C21.5033 42.9953 21.8354 42.4242 22.4019 42.2839L33.5165 39.4286C34.0732 39.2883 34.6397 39.629 34.7764 40.21C34.9132 40.7911 34.5811 41.3622 34.0146 41.5025L22.9 44.3578Z" fill="var(--fill-0, #3C3D3D)"/>
<path id="Vector_14" d="M15.5584 60.1372C15.0016 60.2775 14.4352 59.9368 14.2984 59.3557L12.8041 53.2243C12.6674 52.6532 12.9995 52.0724 13.5659 51.9321L19.5432 50.3993C20.0999 50.259 20.6664 50.5997 20.8032 51.1807L22.2975 57.3119C22.4342 57.883 22.0924 58.4641 21.5357 58.6043L15.5584 60.1372ZM16.1151 58.0132L20.0706 57.0013L19.0256 52.7434L15.07 53.7553L16.1151 58.0132Z" fill="var(--fill-0, #3C3D3D)"/>
<path id="Vector_15" d="M25.4033 54.5666C24.8466 54.7069 24.2801 54.3662 24.1434 53.7851C24.0067 53.2041 24.3485 52.633 24.9052 52.4927L36.0199 49.6376C36.5766 49.4973 37.143 49.838 37.2798 50.409C37.4165 50.9801 37.0844 51.5609 36.518 51.7012L25.4033 54.5566V54.5666Z" fill="var(--fill-0, #3C3D3D)"/>
<path id="Vector_16" d="M18.0031 70.145C17.4464 70.2853 16.8799 69.9446 16.7432 69.3636L15.2489 63.2322C15.1121 62.6611 15.454 62.0802 16.0107 61.94L21.988 60.4071C22.5447 60.2669 23.1112 60.6075 23.2479 61.1786L24.7422 67.3097C24.879 67.8808 24.5371 68.4619 23.9804 68.6022L18.0031 70.135V70.145ZM18.511 67.8107L22.4666 66.7988L21.4801 62.7413L17.5245 63.7531L18.511 67.8107Z" fill="var(--fill-0, #3C3D3D)"/>
<path id="Vector_17" d="M27.7945 64.3752C27.2378 64.5154 26.6713 64.1748 26.5346 63.5937C26.3979 63.0126 26.7299 62.4415 27.2964 62.3013L38.4111 59.4462C38.9678 59.3059 39.5342 59.6463 39.671 60.2274C39.8077 60.8085 39.4756 61.3795 38.9092 61.5198L27.7945 64.3752Z" fill="var(--fill-0, #3C3D3D)"/>
<path id="Vector_18" d="M20.5 80.354C19.9433 80.4942 19.3768 80.1536 19.2401 79.5725L17.7457 73.4413C17.609 72.8703 17.9411 72.2892 18.5076 72.1489L24.4848 70.6161C25.0416 70.4758 25.608 70.8165 25.7448 71.3975L27.2391 77.5287C27.3758 78.0998 27.034 78.6809 26.4773 78.8211L20.5 80.354ZM21.0567 78.2302L25.0123 77.2183L23.9672 72.9605L20.0117 73.9724L21.0567 78.2302Z" fill="var(--fill-0, #3C3D3D)"/>
<path id="Vector_19" d="M30.3408 74.7834C29.7841 74.9237 29.2176 74.583 29.0809 74.0019C28.9442 73.4209 29.286 72.85 29.8427 72.7097L40.9574 69.8544C41.5141 69.7141 42.0805 70.0548 42.2173 70.6258C42.354 71.1969 42.0219 71.778 41.4555 71.9182L30.3408 74.7734V74.7834Z" fill="var(--fill-0, #3C3D3D)"/>
<path id="Vector_20" d="M105.125 42.9157C104.53 43.066 103.914 43.116 103.299 43.0559C101.873 42.9156 100.584 42.2144 99.6755 41.0723C98.7671 39.9402 98.3374 38.5075 98.4741 37.0448C98.689 34.7305 100.31 32.8069 102.508 32.2359C103.104 32.0856 103.719 32.0356 104.334 32.0957C105.76 32.236 107.049 32.9373 107.958 34.0794C108.866 35.2115 109.296 36.6441 109.159 38.1068C108.944 40.4211 107.323 42.3447 105.125 42.9157ZM103.016 34.3098C101.678 34.6504 100.681 35.8325 100.545 37.2451C100.457 38.1368 100.72 39.0184 101.277 39.7096C101.834 40.4009 102.625 40.8319 103.494 40.9221C103.875 40.9621 104.246 40.922 104.608 40.8418C105.946 40.5012 106.942 39.3191 107.079 37.9065C107.167 37.0149 106.903 36.133 106.346 35.4418C105.789 34.7505 104.998 34.3197 104.129 34.2296C103.748 34.1895 103.377 34.2296 103.016 34.3098Z" fill="var(--fill-0, #3C3D3D)"/>
<path id="Vector_21" d="M109.728 28.0781C109.328 28.1783 108.928 28.2082 108.517 28.1681C107.57 28.078 106.71 27.6073 106.115 26.8559C105.509 26.1045 105.226 25.1526 105.324 24.1808C105.47 22.648 106.544 21.3657 108 20.985C108.4 20.8848 108.801 20.8546 109.211 20.8947C110.158 20.9849 111.008 21.4558 111.623 22.2072C112.229 22.9586 112.512 23.9105 112.414 24.8823C112.268 26.4151 111.193 27.6974 109.738 28.0781H109.728ZM108.498 23.0589C107.99 23.1891 107.453 23.65 107.384 24.3814C107.345 24.7821 107.463 25.1727 107.716 25.4933C107.97 25.8139 108.332 26.0043 108.722 26.0444C108.898 26.0644 109.064 26.0443 109.23 26.0042C109.738 25.874 110.275 25.4131 110.344 24.6817C110.393 24.1407 110.158 23.7602 110.012 23.5698C109.865 23.3895 109.543 23.0789 109.015 23.0188C108.849 22.9987 108.674 23.0188 108.508 23.0589H108.498Z" fill="var(--fill-0, #3C3D3D)"/>
<path id="Vector_22" d="M110.383 16.3463C110.022 16.4365 109.651 16.4664 109.27 16.4263C107.483 16.246 106.164 14.603 106.34 12.7696C106.477 11.3671 107.463 10.185 108.791 9.84433C109.153 9.75417 109.524 9.72403 109.905 9.76411C110.774 9.85427 111.555 10.275 112.112 10.9663C112.669 11.6575 112.923 12.5291 112.845 13.4207C112.708 14.8233 111.721 16.0057 110.393 16.3463H110.383ZM109.299 11.928C108.821 12.0482 108.459 12.4791 108.411 12.99C108.352 13.6512 108.821 14.2424 109.475 14.3125C109.612 14.3225 109.749 14.3125 109.876 14.2824C110.354 14.1622 110.715 13.7314 110.764 13.2204C110.794 12.8998 110.706 12.5894 110.501 12.3389C110.305 12.0885 110.012 11.928 109.7 11.8979C109.563 11.8879 109.436 11.898 109.299 11.928Z" fill="var(--fill-0, #3C3D3D)"/>
</g>
</svg>
