<svg preserveAspectRatio="none" width="100%" height="100%" overflow="visible" style="display: block;" viewBox="0 0 43.5034 44.6283" fill="none" xmlns="http://www.w3.org/2000/svg">
<g id="Group">
<path id="Vector" d="M26.2359 23.6395C25.5229 26.1842 22.9347 27.6469 20.4539 26.9055C17.9731 26.1741 16.5472 23.5191 17.2699 20.9744C17.9829 18.4297 20.5712 16.967 23.0519 17.7084C25.5327 18.4397 26.9586 21.0948 26.2359 23.6395Z" fill="var(--fill-0, #3C3D3D)"/>
<path id="Vector_2" d="M21.7428 33.6377C20.727 33.6377 19.7015 33.4975 18.676 33.1869C15.8436 32.3454 13.4996 30.4217 12.0736 27.7768C10.6476 25.1319 10.3156 22.0664 11.136 19.1611C11.9564 16.2557 13.8316 13.8513 16.4101 12.3886C18.9885 10.9259 21.9772 10.585 24.8096 11.4266C27.642 12.2682 29.986 14.1918 31.412 16.8367C32.8379 19.4916 33.17 22.5471 32.3495 25.4525C30.9529 30.4016 26.5285 33.6377 21.733 33.6377H21.7428ZM21.7428 12.8293C20.1996 12.8293 18.676 13.23 17.2989 14.0114C15.1404 15.2337 13.5679 17.2473 12.8843 19.6818C12.2006 22.1163 12.474 24.6712 13.6656 26.8853C14.8571 29.0994 16.8203 30.7124 19.1839 31.4136C24.0771 32.8663 29.2144 29.9608 30.6208 24.9415C31.3045 22.507 31.031 19.9524 29.8395 17.7383C28.6479 15.5242 26.6848 13.9112 24.3212 13.2099C23.4715 12.9595 22.6023 12.8293 21.7428 12.8293Z" fill="var(--fill-0, #4C4B4C)"/>
<path id="Vector_3" d="M21.7455 38.1567C20.3293 38.1567 18.8936 37.9562 17.4578 37.5355C9.27324 35.111 4.5461 26.3047 6.90968 17.9192C8.05239 13.8517 10.6797 10.4856 14.2934 8.4518C17.9071 6.40804 22.0776 5.92731 26.0429 7.10949C34.2275 9.53396 38.9546 18.34 36.5911 26.7255C34.6377 33.6583 28.4455 38.1667 21.7455 38.1667V38.1567ZM21.7357 8.32168C19.46 8.32168 17.2137 8.91276 15.1724 10.0649C11.9787 11.8682 9.6639 14.8436 8.65792 18.4302C6.56781 25.8438 10.7481 33.6082 17.9755 35.7521C21.472 36.7941 25.1639 36.3633 28.3479 34.56C31.5416 32.7567 33.8563 29.7811 34.8623 26.1945C36.9524 18.7808 32.7722 11.0167 25.5448 8.87275C24.2849 8.50206 23.0054 8.31165 21.7357 8.31165V8.32168Z" fill="var(--fill-0, #4C4B4C)"/>
<path id="Vector_4" d="M15.7287 44.6283C15.6505 44.6283 15.5626 44.6183 15.4747 44.5882C14.9962 44.448 14.7227 43.9371 14.8594 43.4462L26.9116 0.667161C27.0484 0.176256 27.5465 -0.104144 28.0251 0.0361146C28.5037 0.176373 28.7771 0.687208 28.6404 1.17811L16.5882 43.9572C16.471 44.3579 16.1096 44.6283 15.7189 44.6283H15.7287Z" fill="var(--fill-0, #4C4B4C)"/>
<path id="Vector_5" d="M42.6088 29.4214C42.5306 29.4214 42.4427 29.4113 42.3548 29.3812L0.650513 17.0184C0.171938 16.8781 -0.101538 16.3673 0.0351979 15.8764C0.171933 15.3855 0.670056 15.1048 1.14863 15.2451L42.8529 27.608C43.3315 27.7482 43.605 28.2591 43.4682 28.75C43.351 29.1507 42.9897 29.4214 42.599 29.4214H42.6088Z" fill="var(--fill-0, #4C4B4C)"/>
</g>
</svg>
