<svg preserveAspectRatio="none" width="100%" height="100%" overflow="visible" style="display: block;" viewBox="0 0 100.301 66.7339" fill="none" xmlns="http://www.w3.org/2000/svg">
<g id="Group">
<path id="Vector" d="M34.3912 32.6392L22.1289 27.0469L19.1332 33.9585L31.3955 39.5508L34.3912 32.6392Z" fill="var(--fill-0, #F4C058)"/>
<path id="Vector_2" d="M37.4975 50.3198L34.3711 41.9785L26.2393 45.1855L29.3656 53.5268L37.4975 50.3198Z" fill="var(--fill-0, #F4C058)"/>
<path id="Vector_3" d="M2.4258 40.0742L34.0215 54.9016C34.0215 54.9016 25.7978 68.0057 22.3013 66.6332C18.8047 65.2607 1.0682 56.4044 1.0682 56.4044C1.0682 56.4044 -2.0767 46.0052 2.4258 40.0742Z" fill="var(--fill-0, #F4C058)"/>
<g id="Group_2">
<path id="Vector_4" d="M2.11212 45.5532C1.83865 45.4831 1.60432 45.3028 1.45782 45.0624C1.31131 44.8119 1.27224 44.5215 1.33084 44.241C1.39921 43.9605 1.575 43.7199 1.80941 43.5696C2.04381 43.4193 2.33676 43.3794 2.61023 43.4495C2.88371 43.5196 3.11815 43.7 3.26465 43.9404C3.41116 44.1809 3.45023 44.4915 3.39163 44.762C3.32326 45.0425 3.14747 45.2829 2.91306 45.4332C2.67866 45.5834 2.38559 45.6234 2.11212 45.5532Z" fill="var(--fill-0, #3C3D3D)"/>
<g id="Group_3">
<path id="Vector_5" d="M23.1239 66.5727C23.0458 66.5527 22.9775 66.5228 22.9091 66.4927L13.0935 61.5336C13.0935 61.5336 13.0056 61.5035 12.9665 61.4835L12.8688 61.4333C11.14 60.5517 5.41669 57.6262 4.21537 57.0451C3.81493 56.8447 3.42426 56.4843 2.75035 54.0198C2.49641 53.078 2.01781 51.1344 1.74434 48.74C1.71504 48.4495 1.79327 48.1689 1.96907 47.9385C2.14488 47.7081 2.39879 47.5677 2.67226 47.5376C2.79923 47.5276 2.9262 47.5376 3.0434 47.5577C3.47314 47.6679 3.79539 48.0387 3.84423 48.4895C4.19583 51.6053 4.91864 54.0698 5.25071 54.9314L5.35813 55.2019L5.61208 55.322C7.53615 56.2837 12.6246 58.8786 13.7087 59.4397L14.0311 59.5999C14.0311 59.5999 14.1092 59.63 14.1483 59.65L23.4072 64.3286L23.71 64.1884C27.5777 62.4552 32.7931 59.2493 34.7465 55.9131L35.8501 54.0396L30.9667 56.0433L29.6971 58.7984C29.4822 59.2592 28.9743 59.5097 28.4859 59.3895C28.4175 59.3695 28.3492 59.3494 28.2808 59.3193C27.7534 59.0589 27.5288 58.4177 27.7827 57.8767L29.3064 54.5906L28.398 52.2665L27.8609 52.3164C27.7437 52.3264 27.6264 52.3164 27.519 52.2863C27.4506 52.2663 27.3823 52.2464 27.3139 52.2164L6.72551 42.218C6.19811 41.9575 5.97345 41.3161 6.21762 40.7751C6.43249 40.3143 6.94036 40.064 7.4287 40.1842C7.49706 40.2042 7.56539 40.2243 7.63376 40.2544L27.4702 49.882L26.0833 46.3354L23.29 44.9831C22.7626 44.7226 22.5379 44.0812 22.7821 43.5402C22.997 43.0794 23.5049 42.8291 23.9932 42.9493C24.0616 42.9693 24.13 42.9892 24.1984 43.0193L27.0112 44.3919L29.199 43.5004L29.0622 42.8891C28.8571 41.9875 28.8962 41.1258 29.1599 40.3444L29.3747 39.7234L20.5455 35.4355L20.2037 35.9665C18.5824 38.4611 15.5547 38.1102 12.8785 37.7896C9.17692 37.3488 6.618 37.2687 4.81113 40.0639C4.6451 40.3243 4.49864 40.605 4.37168 40.9256C4.16657 41.4165 3.64893 41.6868 3.15082 41.5566C3.09222 41.5466 3.04335 41.5267 2.99452 41.5067C2.45734 41.2763 2.20345 40.6349 2.42809 40.0839C2.60389 39.6431 2.81877 39.2424 3.05318 38.8717C5.70975 34.7541 9.82153 35.2451 13.1227 35.6358C15.7988 35.9564 17.0686 35.9763 17.9476 35.285L18.641 34.7442L17.9866 34.1531C17.8498 34.0328 17.7522 33.8726 17.6936 33.7023C17.596 33.4318 17.6155 33.1311 17.7327 32.8707L20.7702 26.2784C20.9851 25.8176 21.493 25.5673 21.9813 25.6875C22.0497 25.7075 22.118 25.7274 22.1864 25.7575L31.3085 30.1858L31.6407 29.9754C34.893 27.8716 38.4774 25.978 42.599 24.1948L42.9995 24.0243L43.0287 23.5735C43.1459 21.9806 43.771 20.2274 44.8942 18.374C46.7206 15.3484 49.7385 12.2025 53.6355 9.26709C54.1336 8.8964 54.6317 8.53591 55.1396 8.19529L55.1983 8.15517L55.247 8.10503C55.3447 8.00485 55.4619 7.92472 55.5889 7.87463L55.6475 7.85457L55.7061 7.81446C66.4886 0.761453 78.5019 0.871548 87.2725 0.941678C91.9996 0.981752 96.0724 1.02193 98.9048 0.0501413C98.9537 0.0301043 98.9927 0.0200565 99.0318 0.0200565L99.1684 0H99.3052C99.3638 0 99.4029 1.95678e-05 99.4517 0.0200565L99.5689 0.0501413L99.6861 0.100283C99.7642 0.140356 99.7936 0.160472 99.8326 0.180509C99.8717 0.210564 99.901 0.230435 99.94 0.26049L100.038 0.360773C100.106 0.450939 100.155 0.521049 100.194 0.591178L100.243 0.721301C100.262 0.781411 100.272 0.821622 100.282 0.861696C100.282 0.90177 100.292 0.941727 100.301 0.991819V1.12219C100.301 1.19232 100.301 1.24233 100.282 1.29242C99.7447 4.0475 97.137 10.9601 93.5037 14.4666C93.24 14.7171 92.8787 14.8173 92.5271 14.7271C92.3317 14.677 92.1461 14.567 92.0094 14.4167C91.6089 13.9759 91.6285 13.2946 92.0583 12.8839C93.0545 11.9221 94.0506 10.5495 95.0273 8.82633L94.0019 7.85457C88.0246 12.0523 79.4591 14.7373 71.1866 17.1317L68.9304 17.7828L71.1572 18.5342C72.0753 18.8447 73.0031 19.1153 73.9114 19.3457C77.4177 20.2173 82.4672 20.8586 86.6376 18.8949C86.8525 18.7948 87.0966 18.7646 87.331 18.8247C87.6533 18.9049 87.9074 19.1254 88.0441 19.426C88.1613 19.6864 88.171 19.9868 88.0733 20.2573C87.9757 20.5278 87.7804 20.7483 87.5167 20.8686C84.2546 22.4014 80.2404 22.7521 75.5816 21.9306L75.23 23.3431C75.611 23.4733 76.0016 23.5936 76.4118 23.6938C77.9843 24.0846 79.6349 24.1946 81.3343 24.0142C81.4515 24.0042 81.5785 24.0143 81.6957 24.0343C81.7836 24.0543 81.8617 24.0845 81.9399 24.1346L81.9984 24.1647L82.0668 24.1847C82.3012 24.2549 82.4965 24.4151 82.6333 24.6255C82.7895 24.8659 82.8482 25.1565 82.7896 25.4471C82.731 25.7276 82.5746 25.978 82.3402 26.1383C82.0179 26.3587 74.3705 31.5183 68.4811 31.4682H68.3835L68.2955 31.4882C65.9808 32.0994 57.9232 33.9827 51.2818 32.3196C47.8438 31.458 45.3532 29.7649 43.8687 27.2803C43.7808 27.14 43.7026 26.9898 43.6245 26.8195L43.3218 26.1984L42.6967 26.479C39.8057 27.7614 37.2077 29.1037 34.7465 30.5664L33.5745 31.2676L35.8599 32.3798C36.1139 32.5 36.3092 32.7305 36.4069 32.991C36.5046 33.2615 36.485 33.5619 36.3678 33.8224L32.5489 42.0976L35.6451 40.8253L36.8561 38.2006C37.071 37.7397 37.5789 37.4892 38.0672 37.6094C38.1356 37.6294 38.2039 37.6495 38.2723 37.6796C38.7997 37.9401 39.0244 38.5812 38.7802 39.1222L37.403 42.0976L40.9094 51.0842L41.1731 51.2246L42.9995 52.1161C43.5269 52.3766 43.7515 53.0177 43.5073 53.5587C43.2924 54.0196 42.7846 54.2701 42.2962 54.1499C42.2279 54.1299 42.1595 54.1097 42.0912 54.0797L39.1709 52.6571L37.7059 53.2584L37.6668 53.7091C37.1296 60.7321 25.1359 65.9217 23.7686 66.4927C23.5635 66.5829 23.3388 66.5929 23.1142 66.5429L23.1239 66.5727ZM29.1403 45.8646L29.072 46.2655C29.0525 46.3657 29.0231 46.4656 28.984 46.5458C28.9547 46.6159 28.9157 46.6762 28.8766 46.7263L28.6422 47.0567L30.9961 53.0879L31.2109 53.2182L31.5235 53.4386L31.9239 53.3283L38.4286 50.6635L35.8404 44.0412L35.5279 43.9311C35.5279 43.9311 35.4497 43.901 35.4107 43.881C35.3423 43.8509 35.2836 43.811 35.2153 43.7609L34.893 43.5104L29.1208 45.8746L29.1403 45.8646ZM20.106 32.8105L31.8653 38.521L34.0042 33.8926L22.245 28.1821L20.106 32.8105ZM45.6756 26.1583C46.8476 28.132 48.9085 29.4945 51.7897 30.2159C53.9286 30.7468 56.4972 30.927 59.437 30.7466L59.6519 29.3341C56.1847 27.9616 53.5183 26.1182 51.7212 23.834C51.6822 23.7839 51.6431 23.7239 51.6138 23.6637L51.3305 23.1127L50.7543 23.313C49.0744 23.9041 47.5313 24.4852 46.0272 25.0863L45.236 25.407L45.6463 26.0881L45.6854 26.1583H45.6756ZM65.5218 18.7545C62.1229 19.7263 58.1868 20.8585 54.3876 22.0908L53.2839 22.4516L54.0946 23.303C56.8489 26.1983 61.0094 27.7012 64.0176 28.4526C66.5765 29.0938 68.5299 29.2539 68.5397 29.2539C68.5983 29.2539 68.6569 29.2639 68.7155 29.284L68.8132 29.304H68.9304C70.8447 29.2239 73.2473 28.5227 76.0406 27.2103L77.9159 26.3286L75.9137 25.8276C70.5126 24.4752 67.3873 20.628 66.3032 19.0351L66.0101 18.6144L65.5218 18.7545ZM50.6567 14.6572C48.2052 17.0816 46.4765 19.486 45.6658 21.6099L45.0799 23.1428L46.5839 22.5616C48.2735 21.9104 50.0706 21.2593 51.9458 20.6281L52.864 20.3175L53.8797 19.9868C57.7473 18.7345 61.537 17.6326 65.0921 16.6207L65.639 16.4703L65.6194 15.8894C65.6194 15.8193 65.6194 15.7392 65.6292 15.669C66.2152 11.9422 67.7876 8.21515 69.0182 5.76062L69.7313 4.32805L68.2174 4.70863C64.0372 5.77059 60.3356 7.37368 56.9075 9.6078L56.7609 9.70784L56.6731 9.86829C55.8038 11.4212 53.7234 15.3684 53.3132 18.3439C53.2839 18.5242 53.2156 18.6945 53.1082 18.8448L52.6588 19.456L51.9458 19.2354C51.4477 19.0751 51.1352 18.5743 51.2036 18.0433C51.311 17.2819 51.5259 16.3904 51.8384 15.4186L50.6665 14.6572H50.6567ZM77.7107 3.27606C75.982 3.38626 74.3705 3.55659 72.798 3.78701L72.4562 3.83715L72.2804 4.13776C71.0791 6.23162 68.9206 10.3793 67.9732 14.6672L67.7095 15.8693L68.8621 15.5387C71.1084 14.8975 73.7356 14.1362 76.2164 13.3647L77.115 13.0842L76.6071 12.2726C76.5094 12.1224 76.4118 11.8819 76.4411 11.5614C76.49 11.1406 76.949 7.36365 78.3945 4.33808L78.9316 3.20586L77.701 3.28609L77.7107 3.27606ZM94.5195 3.01557C92.3415 3.16585 89.8802 3.14592 87.2725 3.12588C85.6024 3.11586 83.8736 3.09583 82.0863 3.12588H81.8129L81.6175 3.31617C79.4297 5.34992 78.6191 11.2507 78.58 11.5012L78.4237 12.6635L79.5176 12.2927C86.8329 9.79808 91.6187 7.33356 95.0273 4.29796L96.6389 2.86539L94.5195 3.01557Z" fill="var(--fill-0, #3C3D3D)"/>
<path id="Vector_6" d="M90.007 18.0133C89.8702 17.9732 89.7335 17.9132 89.6163 17.823C89.3916 17.6527 89.2451 17.3922 89.206 17.1017C89.1669 16.8111 89.2353 16.5306 89.4111 16.3002C89.538 16.1198 89.6944 15.9897 89.88 15.9095C90.1632 15.7392 90.4464 15.699 90.7101 15.7691C90.8469 15.7992 90.9641 15.8595 91.0813 15.9497C91.3059 16.12 91.4621 16.3704 91.5012 16.6609C91.55 16.9515 91.4817 17.2318 91.3157 17.4722C91.1789 17.6626 91.0031 17.813 90.8176 17.9032C90.5343 18.0535 90.2609 18.0934 90.007 18.0333V18.0133Z" fill="var(--fill-0, #3C3D3D)"/>
</g>
</g>
</g>
</svg>
