<svg preserveAspectRatio="none" width="100%" height="100%" overflow="visible" style="display: block;" viewBox="0 0 77.5185 97.5751" fill="none" xmlns="http://www.w3.org/2000/svg">
<g id="Group">
<path id="Vector" d="M43.2717 1.79761C42.3438 2.37869 41.8261 3.55097 41.6699 5.18399C35.6633 20.5223 24.6366 31.292 16.4129 37.6437C16.3054 37.7038 16.2077 37.784 16.1198 37.8741C10.3379 42.3023 6.00136 44.5166 5.94276 44.5566C3.32525 46.1997 4.20432 53.7937 8.57009 61.1172C12.9359 68.4307 19.128 72.6985 21.7455 71.0554C21.7651 71.0454 22.1362 70.785 22.8101 70.3542C24.1774 74.8725 27.6544 78.7497 28.2014 79.1404C28.3088 79.2206 28.846 79.04 29.6664 78.6994C33.9345 85.5821 40.5662 93.3065 46.7193 96.863C48.3308 97.0534 54.3374 88.1769 53.5854 87.2552C49.6005 84.44 43.6134 78.1084 39.9216 73.4698C41.2694 72.6884 42.2558 72.0673 42.4609 71.8169C43.1446 70.9853 39.7165 64.864 38.3882 62.5598C44.1018 60.3257 51.0363 58.2517 58.752 57.1898C58.7814 57.2098 58.8008 57.2299 58.8301 57.25L58.7912 57.1798C63.1862 56.5786 67.8254 56.3082 72.6502 56.5186C73.9394 56.9494 75.0334 56.9493 75.8635 56.4284C80.0144 53.8236 76.0882 39.4771 67.093 24.3893C58.0977 9.3015 47.4323 -0.817216 43.2814 1.78759L43.2717 1.79761Z" fill="var(--fill-0, #F4C058)"/>
<path id="Vector_2" d="M44.4167 97.175C43.9576 97.4655 43.5182 97.6157 43.1275 97.5656C42.9908 97.5456 42.8638 97.5056 42.7368 97.4355C35.9196 93.4882 29.1024 85.0124 25.3324 78.9512C25.0296 78.4603 25.1663 77.8091 25.6448 77.4986C26.1137 77.198 26.7582 77.3283 27.061 77.8192C30.6357 83.5598 37.0135 91.5446 43.3814 95.3917C43.3814 95.3917 43.3912 95.3917 43.401 95.3816C44.7683 94.52 48.5285 89.2602 49.0755 87.4468C45.0027 84.4213 39.1914 78.24 35.6363 73.7717C35.2749 73.3209 35.3433 72.6597 35.7828 72.299C36.2126 71.9284 36.8669 71.9984 37.2283 72.4492C40.8225 76.9575 46.7607 83.2592 50.687 86.0444C50.7651 86.0944 50.8335 86.1645 50.8921 86.2346C51.5074 86.986 51.1265 88.1182 50.355 89.5809C50.3159 89.651 46.9853 95.562 44.4167 97.175Z" fill="var(--fill-0, #4C4B4C)"/>
<path id="Vector_3" d="M38.3018 73.2309C36.5242 74.3429 33.6626 75.8558 32.2171 76.6072C25.0678 80.3141 24.6771 80.0436 24.1497 79.6629C23.5051 79.2121 19.823 75.1645 18.358 70.3256C18.192 69.7746 18.4947 69.1835 19.0319 69.0131C19.569 68.8428 20.1453 69.1533 20.3114 69.7044C21.4248 73.3811 24.0911 76.6972 25.058 77.689C27.1774 76.9777 36.329 72.219 38.0382 70.9266C37.8624 69.9949 36.6024 67.1898 34.0337 62.7516C33.7407 62.2507 33.9067 61.6196 34.3951 61.309C34.8834 61.0084 35.5085 61.1786 35.8015 61.6795C40.9975 70.6661 40.2649 71.558 39.7766 72.149C39.5715 72.3995 39.0245 72.7801 38.3116 73.2409L38.3018 73.2309Z" fill="var(--fill-0, #4C4B4C)"/>
<path id="Vector_4" d="M69.7034 57.0715C69.5374 57.1716 69.3421 57.2317 69.1272 57.2216C42.3466 56.0395 21.2111 69.9652 18.8866 71.5581C15.478 73.6921 8.80721 68.9834 4.23634 61.3193C-0.334536 53.6552 -1.37955 45.41 1.95093 43.3161C1.97047 43.3061 2.05837 43.2559 2.07791 43.2459C4.65635 41.8734 27.6182 29.0999 37.2678 4.45443C37.4827 3.91343 38.0784 3.65287 38.5961 3.87328C39.1235 4.09368 39.3774 4.70492 39.1625 5.2359C29.2394 30.5826 5.67206 43.6969 3.01549 45.1095C1.24769 46.2215 1.70677 53.054 5.98464 60.2272C10.2625 67.3904 15.9761 70.927 17.7537 69.8149C20.127 68.1819 41.7898 53.9157 69.2248 55.1279C69.7913 55.148 70.2308 55.6387 70.2015 56.2198C70.182 56.5805 69.9964 56.8911 69.7132 57.0715H69.7034Z" fill="var(--fill-0, #4C4B4C)"/>
<path id="Vector_5" d="M29.7555 65.4856C26.1027 67.7798 19.6664 61.5183 15.4666 54.4753C11.2669 47.4223 8.7666 38.6962 12.4194 36.412C12.898 36.1114 13.5329 36.2618 13.8259 36.7627C14.1189 37.2637 13.9724 37.9048 13.4841 38.2053C11.8628 39.2172 12.5073 45.4887 17.2149 53.3832C21.9225 61.2778 27.0697 64.7142 28.691 63.7023C29.1695 63.4017 29.8044 63.5521 30.0974 64.053C30.3904 64.554 30.2438 65.1951 29.7555 65.4956V65.4856Z" fill="var(--fill-0, #4C4B4C)"/>
<path id="Vector_6" d="M72.9266 56.99C67.4767 60.4163 55.8639 47.723 47.7086 34.0478C39.5533 20.3726 33.8299 3.99221 39.2798 0.565889C44.7297 -2.86043 56.3426 9.83312 64.4979 23.5083C72.6532 37.1835 78.3765 53.5637 72.9266 56.99ZM40.3445 2.35923C37.1996 4.33287 40.1687 17.387 49.4471 32.9557C58.7354 48.5244 68.7074 57.1803 71.8523 55.2067C74.9972 53.233 72.028 40.1889 62.7496 24.6102C53.4613 9.04152 43.4894 0.385596 40.3445 2.35923Z" fill="var(--fill-0, #4C4B4C)"/>
<path id="Vector_7" d="M55.8845 57.8024C55.5329 58.0228 55.0837 58.0128 54.7321 57.7423C49.5752 53.7449 43.9691 47.0226 39.3591 39.2783C34.9445 31.8847 31.8093 24.2705 30.5299 17.8587C30.4127 17.2876 30.774 16.7366 31.3307 16.6164C31.8874 16.4962 32.4247 16.8669 32.5419 17.438C33.7823 23.6194 36.8295 30.9929 41.1171 38.1862C45.6001 45.7101 51.0208 52.2322 55.9823 56.0693C56.4316 56.4199 56.5194 57.0811 56.1776 57.542C56.0995 57.6522 56.0017 57.7423 55.8943 57.8024H55.8845Z" fill="var(--fill-0, #4C4B4C)"/>
<path id="Vector_8" d="M61.7831 39.9185C59.0679 41.6217 54.3407 35.3401 51.9673 31.3728C49.594 27.3954 46.3125 20.2224 49.0179 18.5192C51.733 16.8161 56.4601 23.0877 58.8335 27.065C61.2068 31.0423 64.4982 38.2254 61.7831 39.9185ZM50.102 20.3224C49.7308 21.1238 50.6098 25.0613 53.7156 30.2709C56.8215 35.4805 59.8395 38.0751 60.7087 38.1051C61.0799 37.3037 60.2008 33.3665 57.0949 28.1569C53.9891 22.9473 50.9712 20.3524 50.102 20.3224Z" fill="var(--fill-0, #4C4B4C)"/>
<path id="Vector_9" d="M44.8286 25.8029C44.4184 26.0633 43.8811 25.993 43.5491 25.6223C43.1682 25.2016 43.1877 24.5303 43.6077 24.1396C43.6468 24.1096 47.0651 20.8536 48.7938 18.7097C49.1552 18.2689 49.7999 18.1986 50.2394 18.5693C50.6789 18.94 50.7374 19.6014 50.3761 20.0523C48.5594 22.2964 45.1508 25.5423 45.0043 25.6825C44.9555 25.7326 44.897 25.7728 44.8383 25.8129L44.8286 25.8029Z" fill="var(--fill-0, #4C4B4C)"/>
<path id="Vector_10" d="M61.8103 39.9088C61.7127 39.9689 61.6149 40.0091 61.4977 40.0392C58.8509 40.6403 54.4656 42.2833 54.4265 42.3034C53.8991 42.5037 53.3034 42.2231 53.1178 41.6821C52.9225 41.1411 53.196 40.5402 53.7234 40.3398C53.9089 40.2697 58.2747 38.6366 61.0583 37.9954C61.615 37.8651 62.1619 38.2258 62.2791 38.7869C62.3768 39.2377 62.1815 39.6784 61.8103 39.9088Z" fill="var(--fill-0, #4C4B4C)"/>
</g>
</svg>
