<svg preserveAspectRatio="none" width="100%" height="100%" overflow="visible" style="display: block;" viewBox="0 0 289.224 59.9303" fill="none" xmlns="http://www.w3.org/2000/svg">
<g id="Group">
<path id="Vector" d="M0 0.00976562H8.84874V59.9203H0V0.00976562Z" fill="var(--fill-0, #F4C058)"/>
<path id="Vector_2" d="M18.5273 0.00976562H28.2942L39.5553 40.2338V0.00976562H48.238V59.9203H38.8912L27.21 21.5796V59.9203H18.5371V0.00976562H18.5273Z" fill="var(--fill-0, #F4C058)"/>
<path id="Vector_3" d="M55.0755 0.00976562H83.2821V8.56558H73.6031V59.9203H64.7545V8.56558H55.0755V0.00976562Z" fill="var(--fill-0, #F4C058)"/>
<path id="Vector_4" d="M90.1194 0.0100283H115.24V8.56584H98.9681V25.2565H111.899V33.8123H98.9681V51.3547H115.24V59.9105H90.1194V0V0.0100283Z" fill="var(--fill-0, #F4C058)"/>
<path id="Vector_5" d="M142.519 59.9203L136.093 35.1845H131.502V59.9203H122.654V0.00976562H136.503C140.732 0.00976562 144.092 1.31206 146.602 3.90684C149.102 6.50163 150.352 9.96815 150.352 14.3061V20.8981C150.352 23.6332 149.825 26.0677 148.77 28.1716C147.715 30.2854 146.211 31.9387 144.268 33.1409L151.691 59.9303H142.51L142.519 59.9203ZM131.502 26.6289H136.093C137.822 26.6289 139.15 26.1478 140.097 25.176C141.045 24.2042 141.513 22.8419 141.513 21.0686V14.1357C141.513 12.3624 141.045 11 140.097 10.0282C139.15 9.05645 137.812 8.57561 136.093 8.57561H131.502V26.6389V26.6289Z" fill="var(--fill-0, #F4C058)"/>
<path id="Vector_6" d="M187.162 0.00976562L177.483 59.9203H165.636L155.957 0.00976562H164.972L171.643 47.0866L178.313 0.00976562H187.162Z" fill="var(--fill-0, #F4C058)"/>
<path id="Vector_7" d="M193.998 0.00976562H202.847V59.9203H193.998V0.00976562Z" fill="var(--fill-0, #F4C058)"/>
<path id="Vector_8" d="M212.525 0.0100283H237.646V8.56584H221.374V25.2565H234.306V33.8123H221.374V51.3547H237.646V59.9105H212.525V0V0.0100283Z" fill="var(--fill-0, #F4C058)"/>
<path id="Vector_9" d="M289.204 0.00976562L280.61 59.9203H270.843L266.174 20.4574L261.506 59.9203H251.739L243.144 0.00976562H252.071L256.915 40.4943L261.76 0.00976562H270.774L275.619 40.4943L280.463 0.00976562H289.224H289.204Z" fill="var(--fill-0, #F4C058)"/>
</g>
</svg>
