<svg width="272" height="82" viewBox="0 0 272 82" fill="none" xmlns="http://www.w3.org/2000/svg">
<path d="M70.6805 50.102C72.4483 50.102 78.0642 50.1019 78.0642 57.0948C78.0642 62.9356 75.6616 64.9995 70.6805 64.9995H47.4159V72.904C47.4159 77.1819 46.1365 80.478 39.3095 80.478C34.2503 80.478 31.203 78.9952 31.203 72.904V64.9995H8.01653C6.49291 64.9995 0.632812 64.9995 0.632812 57.9164C0.632812 51.2541 4.4028 50.102 8.01653 50.102H31.203C31.203 45.9844 37.1412 45.5736 39.9443 45.5736C38.8992 44.2612 38.4207 43.3496 38.1765 42.1975C36.5747 44.5017 34.4847 46.1447 31.6816 46.1447C29.7575 46.1447 27.267 45.4033 23.2528 41.0452C18.5159 47.7977 15.1464 49.8515 12.0991 49.8515C7.92868 49.8515 3.67034 45.734 3.67034 41.4561C3.67034 38.4105 4.87166 37.2583 9.0421 33.3912C10.5657 31.9886 12.4116 29.444 14.3357 25.4065C15.6152 22.6114 15.9375 21.9501 16.9825 21.1286H8.95417C4.78373 21.1286 2.37134 18.8244 2.37134 14.3762C2.37134 8.20479 5.41858 6.97239 8.95417 6.97239H31.1835C31.1835 2.93494 32.7852 0.630859 38.5672 0.630859C43.6264 0.630859 47.3964 1.04145 47.3964 6.97239H69.782C74.0306 6.97239 76.3648 9.19648 76.3648 13.7248C76.3648 19.7359 73.4738 21.1286 69.782 21.1286H60.7965C63.4433 22.6915 64.0879 24.6651 64.0879 26.1479C64.0879 27.3 63.7656 28.2016 63.6093 28.8628C65.299 30.586 66.5003 31.7481 71.0712 34.2928C74.1965 36.1061 75.6421 37.589 75.6421 40.4643C75.6421 44.4116 72.5167 49.9317 67.3012 49.9317C62.5643 49.9317 58.0716 45.3232 55.6689 42.8486C52.3775 47.2968 50.2972 49.1903 47.2401 49.3506C47.3964 49.6812 47.3964 49.7613 47.3964 50.0919H70.661L70.6805 50.102ZM26.3879 21.1386C27.5111 21.6295 30.4803 23.1123 29.8356 27.1497C30.8026 28.2217 32.4043 29.8647 33.6838 30.606C37.6198 32.9103 38.9774 33.7318 39.622 36.1162C39.8662 35.7856 40.1006 35.5351 40.8233 34.8037C43.1478 32.4193 44.271 31.177 45.6384 29.2936C46.4392 28.2216 49.7307 22.2206 50.8539 21.1487H26.3782L26.3879 21.1386Z" stroke="#386F6B" stroke-width="1.26233"/>
<path d="M121.622 9.69841V7.96523C121.622 6.4825 121.622 1.21279 127.883 1.21279C133.098 1.21279 134.221 4.58901 134.221 7.96523V9.69841H136.946V7.96523C136.946 5.9916 137.269 1.21279 143.285 1.21279C148.5 1.21279 149.702 4.58901 149.702 7.96523V9.69841H150.747C151.714 7.55446 151.792 7.23394 152.915 4.26848C153.56 2.45513 155.24 1.14284 159.254 1.14284C160.533 1.14284 166.716 1.3029 166.716 6.41232C166.716 7.07354 166.638 8.13554 166.159 9.70844C168.083 9.70844 173.865 9.70843 173.865 15.96C173.865 22.2115 168.083 22.3017 166.647 22.3017H157.418C157.261 22.6323 156.851 24.1151 156.539 24.606H165.29C166.813 24.606 171.306 24.6862 171.306 30.1162C171.306 35.5462 166.813 35.7164 165.29 35.7164H143.06V37.6902H163.522C166.413 37.6902 168.981 38.8423 168.981 42.2186C168.981 45.5948 166.335 46.6667 163.522 46.6667H143.06V48.6403H167.214C169.704 48.6403 173.875 49.4619 173.875 54.4812C173.875 59.5004 169.782 60.3218 167.214 60.3218H155.581C161.041 62.4657 163.522 63.0368 167.057 63.8583C169.704 64.4394 173.474 65.4214 173.474 70.5208C173.474 73.4061 171.785 78.7459 166.657 78.7459C164.567 78.7459 153.413 76.2813 143.07 66.9742V72.7348C143.07 74.7886 142.992 80.2286 136.087 80.2286C130.149 80.2286 128.146 77.8442 128.146 72.7348V67.5551C120.763 74.2174 109.853 78.8259 104.638 78.8259C99.4222 78.8259 98.2209 73.3159 98.2209 70.5107C98.2209 65.5716 101.669 64.7499 105.204 64.0887C107.128 63.678 110.898 62.8564 116.758 60.3017H103.681C101.512 60.3017 97.0195 59.6407 97.0195 54.4611C97.0195 49.2816 101.268 48.6203 103.681 48.6203H128.156V46.6467H107.773C104.804 46.6467 102.313 45.6549 102.313 42.1985C102.313 37.6702 106.728 37.6701 107.773 37.6701H128.156V35.6965H105.849C104.403 35.6965 99.8324 35.6965 99.8324 30.1864C99.8324 24.6762 104.403 24.586 105.849 24.586H115C114.356 23.0231 114.278 22.8627 113.955 22.2817H104.247C102.88 22.2817 97.0293 22.2817 97.0293 16.0302C97.0293 9.77863 102.645 9.68838 104.892 9.68838C104.647 8.37596 104.569 7.54463 104.569 6.64297C104.569 4.08826 105.37 2.85581 107.46 1.95415C108.984 1.29293 110.351 1.13281 111.396 1.13281C116.133 1.13281 118.458 3.76747 119.659 9.68838H121.661L121.622 9.69841ZM141.683 24.596C142.162 23.4439 142.24 23.2835 142.406 22.2917H129.25C129.406 22.7025 130.051 24.4357 130.217 24.596H141.693H141.683Z" stroke="#386F6B" stroke-width="1.26233"/>
<path d="M224.879 13.5644V7.55327C224.879 5.73993 224.879 0.640625 232.184 0.640625C238.679 0.640625 240.447 3.27539 240.447 7.55327V13.5644H260.342C262.188 13.5644 267.081 13.6446 267.081 20.6375C267.081 26.7287 264.513 28.3717 260.342 28.3717H240.447V37.9993H258.018C259.619 37.9993 264.757 37.9994 264.757 44.9122C264.757 50.6728 262.11 52.406 258.018 52.406H240.447V63.4363H263.712C265.401 63.4363 270.451 63.4363 270.451 70.4292C270.451 75.8592 268.361 78.1634 263.712 78.1634H200.325C198.401 78.1634 193.508 78.0832 193.508 70.8399C193.508 64.3379 197.2 63.4363 200.325 63.4363H224.879V52.406H206.107C204.105 52.406 199.368 52.1555 199.368 45.5733C199.368 40.3036 201.37 37.9993 206.107 37.9993H224.879V28.3717H213.325C208.588 37.759 205.941 37.9193 203.773 37.9193C199.524 37.9193 194.787 34.2123 194.787 30.0146C194.787 27.7905 195.266 27.0492 198.88 21.2886C201.448 17.2511 202.728 13.3839 204.974 6.97212C205.853 4.33726 207.299 2.03308 211.069 2.03308C212.67 2.03308 215.561 2.36359 217.974 3.92647C219.253 4.74798 220.142 6.15067 220.142 8.2846C220.142 9.84748 219.497 11.9914 219.097 13.5543H224.869L224.879 13.5644Z" stroke="#386F6B" stroke-width="1.26233"/>
</svg>
