<svg width="119" height="85" viewBox="0 0 119 85" fill="none" xmlns="http://www.w3.org/2000/svg">
<path d="M29.99 19.8298C30.66 19.8298 32.81 19.8299 32.81 22.4299C32.81 24.5999 31.89 25.3699 29.99 25.3699H21.1V28.3099C21.1 29.8999 20.61 31.1299 18.01 31.1299C16.08 31.1299 14.92 30.5799 14.92 28.3099V25.3699H6.06999C5.48999 25.3699 3.25 25.3699 3.25 22.7399C3.25 20.2599 4.68999 19.8298 6.06999 19.8298H14.92C14.92 18.2998 17.19 18.1399 18.26 18.1399C17.86 17.6499 17.68 17.3099 17.59 16.8799C16.98 17.7399 16.18 18.3499 15.11 18.3499C14.37 18.3499 13.42 18.07 11.89 16.45C10.08 18.96 8.79999 19.7299 7.62999 19.7299C6.03999 19.7299 4.40999 18.1999 4.40999 16.6099C4.40999 15.4799 4.86999 15.0499 6.45999 13.6099C7.03999 13.0899 7.75 12.1399 8.48 10.6399C8.97 9.59989 9.08999 9.34993 9.48999 9.04993H6.42999C4.83999 9.04993 3.92 8.18992 3.92 6.53992C3.92 4.23992 5.07999 3.77991 6.42999 3.77991H14.92C14.92 2.27991 15.53 1.41992 17.74 1.41992C19.67 1.41992 21.11 1.56991 21.11 3.77991H29.66C31.28 3.77991 32.17 4.60992 32.17 6.28992C32.17 8.52992 31.07 9.04993 29.66 9.04993H26.23C27.24 9.62993 27.49 10.3699 27.49 10.9199C27.49 11.3499 27.37 11.6899 27.31 11.9299C27.95 12.5699 28.41 13 30.16 13.95C31.35 14.62 31.91 15.1799 31.91 16.2499C31.91 17.7199 30.71 19.7699 28.72 19.7699C26.91 19.7699 25.2 18.0499 24.28 17.1399C23.02 18.7899 22.23 19.4999 21.06 19.5599C21.12 19.6799 21.12 19.7098 21.12 19.8398H30.01L29.99 19.8298ZM13.07 9.04993C13.5 9.22993 14.63 9.78992 14.39 11.2899C14.76 11.6899 15.37 12.2998 15.86 12.5798C17.36 13.4398 17.88 13.7399 18.13 14.6299C18.22 14.5099 18.31 14.4199 18.59 14.1399C19.48 13.2499 19.91 12.7898 20.43 12.0898C20.74 11.6898 21.99 9.45994 22.42 9.05994H13.08L13.07 9.04993Z" fill="#DD8218"/>
<path d="M55.5685 4.78943V4.14941C55.5685 3.59941 55.5684 1.6394 57.9584 1.6394C59.9484 1.6394 60.3784 2.89941 60.3784 4.14941V4.78943H61.4184V4.14941C61.4184 3.40941 61.5384 1.6394 63.8384 1.6394C65.8284 1.6394 66.2885 2.89941 66.2885 4.14941V4.78943H66.6884C67.0584 3.98943 67.0884 3.86941 67.5184 2.76941C67.7684 2.09941 68.4084 1.60938 69.9384 1.60938C70.4284 1.60938 72.7885 1.66946 72.7885 3.56946C72.7885 3.81946 72.7584 4.20944 72.5784 4.79944C73.3184 4.79944 75.5184 4.79939 75.5184 7.12939C75.5184 9.45939 73.3084 9.48938 72.7584 9.48938H69.2384C69.1784 9.60938 69.0284 10.1594 68.8984 10.3494H72.2384C72.8184 10.3494 74.5385 10.3794 74.5385 12.3994C74.5385 14.4194 72.8184 14.4794 72.2384 14.4794H63.7484V15.2194H71.5584C72.6584 15.2194 73.6384 15.6494 73.6384 16.9094C73.6384 18.1694 72.6284 18.5594 71.5584 18.5594H63.7484V19.2994H72.9684C73.9184 19.2994 75.5084 19.6094 75.5084 21.4794C75.5084 23.3494 73.9484 23.6494 72.9684 23.6494H68.5284C70.6084 24.4494 71.5584 24.6594 72.9084 24.9694C73.9184 25.1794 75.3584 25.5495 75.3584 27.4495C75.3584 28.5195 74.7184 30.5094 72.7584 30.5094C71.9584 30.5094 67.6984 29.5894 63.7484 26.1294V28.2694C63.7484 29.0394 63.7184 31.0594 61.0784 31.0594C58.8084 31.0594 58.0484 30.1694 58.0484 28.2694V26.3394C55.2284 28.8194 51.0585 30.5394 49.0685 30.5394C47.0785 30.5394 46.6184 28.4895 46.6184 27.4495C46.6184 25.6095 47.9385 25.3094 49.2885 25.0594C50.0285 24.9094 51.4684 24.5994 53.6984 23.6494H48.7084C47.8784 23.6494 46.1684 23.4094 46.1684 21.4794C46.1684 19.5494 47.7884 19.2994 48.7084 19.2994H58.0484V18.5594H50.2684C49.1384 18.5594 48.1884 18.1894 48.1884 16.9094C48.1884 15.2194 49.8784 15.2194 50.2684 15.2194H58.0484V14.4794H49.5284C48.9784 14.4794 47.2284 14.4794 47.2284 12.4294C47.2284 10.3794 48.9784 10.3494 49.5284 10.3494H53.0184C52.7684 9.76937 52.7384 9.70938 52.6184 9.48938H48.9084C48.3884 9.48938 46.1484 9.48942 46.1484 7.15942C46.1484 4.82942 48.2884 4.79944 49.1484 4.79944C49.0584 4.30944 49.0284 3.99943 49.0284 3.66943C49.0284 2.71943 49.3384 2.25943 50.1284 1.91943C50.7084 1.66943 51.2284 1.60938 51.6284 1.60938C53.4384 1.60938 54.3285 2.58944 54.7885 4.79944H55.5584L55.5685 4.78943ZM63.2284 10.3293C63.4084 9.89935 63.4384 9.83936 63.5084 9.46936H58.4784C58.5384 9.61936 58.7884 10.2693 58.8484 10.3293H63.2284Z" fill="#DD8218"/>
<path d="M101.118 6.22986V3.98987C101.118 3.31987 101.118 1.41992 103.908 1.41992C106.388 1.41992 107.068 2.39987 107.068 3.98987V6.22986H114.668C115.378 6.22986 117.238 6.25986 117.238 8.85986C117.238 11.1299 116.258 11.7399 114.668 11.7399H107.068V15.3199H113.778C114.388 15.3199 116.348 15.3199 116.348 17.8899C116.348 20.0399 115.338 20.6799 113.778 20.6799H107.068V24.7899H115.958C116.598 24.7899 118.528 24.7899 118.528 27.3899C118.528 29.4099 117.728 30.2699 115.958 30.2699H91.7484C91.0084 30.2699 89.1484 30.2399 89.1484 27.5399C89.1484 25.1199 90.5584 24.7799 91.7484 24.7799H101.128V20.6699H93.9584C93.1884 20.6699 91.3884 20.5799 91.3884 18.1299C91.3884 16.1699 92.1584 15.3099 93.9584 15.3099H101.128V11.7299H96.7184C94.9084 15.2199 93.8985 15.2799 93.0685 15.2799C91.4485 15.2799 89.6384 13.8998 89.6384 12.3398C89.6384 11.5098 89.8184 11.2398 91.1984 9.08984C92.1784 7.58984 92.6684 6.14989 93.5284 3.75989C93.8684 2.77989 94.4184 1.91992 95.8584 1.91992C96.4684 1.91992 97.5784 2.03988 98.4884 2.62988C98.9784 2.93988 99.3185 3.45988 99.3185 4.24988C99.3185 4.82988 99.0684 5.62984 98.9184 6.20984H101.128L101.118 6.22986Z" fill="#DD8218"/>
<path d="M28.9199 5.37012C28.9199 4.61467 28.7208 4.13544 28.4219 3.8418C28.1214 3.54663 27.6399 3.36038 26.9102 3.36035H17.8604V2.86035C17.8604 2.35875 17.7779 2.01858 17.6592 1.78516C17.545 1.56065 17.3829 1.4076 17.167 1.29492C16.6926 1.04748 15.9782 1.00001 14.9902 1C13.9306 1 13.3837 1.21022 13.0938 1.48242C12.814 1.74511 12.6699 2.16425 12.6699 2.86035V3.36035H3.67969C3.0445 3.36039 2.56869 3.4716 2.24805 3.75293C1.93979 4.02343 1.66992 4.54627 1.66992 5.62012C1.66994 6.3535 1.8727 6.8358 2.17871 7.13672C2.48647 7.4391 2.97164 7.62983 3.67969 7.62988H8.24023L7.04004 8.53027C6.75877 8.74124 6.68683 8.86245 6.18262 9.93262L6.17969 9.93848C5.43381 11.4711 4.6895 12.4837 4.04395 13.0625C3.23349 13.7965 2.76837 14.2242 2.49219 14.6016C2.24855 14.9345 2.16016 15.2183 2.16016 15.6904C2.16028 16.3165 2.48556 16.9733 3.01953 17.4854C3.55343 17.9972 4.24004 18.3105 4.87988 18.3105C5.78947 18.3105 6.93864 17.7275 8.73438 15.2373L9.08789 14.7471L9.50391 15.1865C10.9798 16.7492 11.8074 16.9297 12.3604 16.9297C13.2076 16.9296 13.8749 16.4572 14.4326 15.6709L15.0947 14.7363L15.3291 15.8574C15.3972 16.1827 15.528 16.4507 15.8975 16.9033L16.5635 17.7197H15.5098C14.9868 17.7197 14.2181 17.7607 13.5957 17.9658C13.2861 18.0679 13.0492 18.1994 12.8955 18.3535C12.7542 18.4952 12.6699 18.6673 12.6699 18.9102V19.4102H3.32031C2.66473 19.4102 2.09956 19.5159 1.70117 19.8281C1.3276 20.121 1 20.678 1 21.8203C1.00003 22.4057 1.12393 22.8072 1.28906 23.0859C1.4535 23.3635 1.67647 23.5496 1.92285 23.6777C2.43591 23.9444 3.02838 23.9502 3.32031 23.9502H12.6699V27.3896C12.6699 28.4463 12.9382 28.9715 13.3018 29.2598C13.6934 29.5703 14.3178 29.7099 15.2598 29.71C16.4931 29.71 17.0938 29.4176 17.4053 29.0654C17.7271 28.7014 17.8496 28.154 17.8496 27.3896V23.9502H27.2402C28.1381 23.9502 28.6814 23.7651 29.0107 23.4385C29.3397 23.1119 29.5596 22.5388 29.5596 21.5098C29.5595 20.9295 29.4405 20.5325 29.2812 20.2578C29.1231 19.9851 28.9088 19.8027 28.6699 19.6777C28.1806 19.4218 27.6057 19.4105 27.2617 19.4102L27.2598 19.4199H17.8701V18.8799L17.8691 18.8779C17.8672 18.8739 17.865 18.8687 17.8623 18.8633L17.5205 18.1797L18.2842 18.1406C19.2026 18.0935 19.868 17.5733 21.1328 15.917L21.4775 15.4648L21.8818 15.8643C22.3462 16.3236 22.9753 16.9516 23.7051 17.4678C24.4409 17.9882 25.2172 18.3495 25.9697 18.3496C26.7765 18.3496 27.4409 17.9385 27.9189 17.332C28.4034 16.7174 28.6601 15.9446 28.6602 15.3301C28.6602 14.8962 28.5508 14.6025 28.3418 14.3438C28.1161 14.0645 27.7505 13.796 27.1719 13.4697L26.5576 13.1279C25.2539 12.3801 24.7975 11.9547 24.2061 11.3633L24.0059 11.1631L24.0752 10.8887C24.147 10.6014 24.2402 10.3498 24.2402 10C24.2402 9.62888 24.0858 9.05418 23.2314 8.56348L21.6055 7.62988H26.9102C27.5693 7.62986 28.0433 7.50513 28.3574 7.21973C28.6628 6.9422 28.9199 6.4171 28.9199 5.37012ZM21.5781 16.9678C21.0923 17.5767 20.6511 18.0636 20.1943 18.4199H23.3281C23.2605 18.3749 23.1932 18.3304 23.1279 18.2842C22.5299 17.8612 21.9985 17.3747 21.5781 16.9678ZM9.19434 16.2949C8.47614 17.2383 7.82068 17.929 7.2002 18.4102H11.7383C11.7901 18.2252 11.8682 18.0563 11.9717 17.9053C11.2188 17.812 10.3502 17.4167 9.19434 16.2949ZM20.9414 7.63965L20.0107 8.50586C19.9525 8.56004 19.8245 8.72541 19.6367 9.00488C19.46 9.26779 19.2575 9.58938 19.0557 9.91699C18.8665 10.2242 18.6437 10.5916 18.4863 10.8467C18.3241 11.1096 18.1727 11.3507 18.0752 11.4766L18.0742 11.4756C17.5346 12.201 17.0846 12.682 16.1934 13.5732C15.9028 13.8638 15.8438 13.9252 15.7803 14.0098L15.1729 14.8203L14.8984 13.8447C14.8005 13.4964 14.6633 13.2855 14.3916 13.0566C14.0856 12.7989 13.6285 12.5336 12.8613 12.0938V12.0928C12.2964 11.7696 11.6396 11.1058 11.2734 10.71L11.1074 10.5312L11.1465 10.291C11.2421 9.69359 11.0668 9.3266 10.8545 9.08398C10.6637 8.86613 10.4216 8.72713 10.2344 8.63965H10.123L9.97656 8.49316L9.96582 8.4834L10.3301 7.94043V7.63965H20.9414ZM11.7715 8.63965C12.0415 9.03212 12.2136 9.5444 12.1631 10.1934C12.4738 10.5176 12.8638 10.8929 13.1963 11.123L13.3584 11.2256V11.2266C14.0912 11.6467 14.6447 11.9613 15.0361 12.291C15.2358 12.4592 15.3945 12.6342 15.5244 12.8271C16.3831 11.9676 16.788 11.5321 17.2783 10.8721L17.2852 10.8633C17.3428 10.7888 17.4634 10.6008 17.6357 10.3213C17.8133 10.0334 17.9884 9.74281 18.2041 9.39258C18.3628 9.13497 18.5281 8.87516 18.6816 8.63965H11.7715ZM29.9199 5.37012C29.9199 6.56278 29.6272 7.41749 29.0303 7.95996C28.442 8.4945 27.6609 8.62986 26.9102 8.62988H24.7939C25.1217 9.09243 25.2402 9.57572 25.2402 10C25.2402 10.3354 25.1724 10.6345 25.1152 10.8555C25.5577 11.2874 25.9907 11.6506 27.0645 12.2656L27.6484 12.5908L27.6553 12.5947C28.2621 12.9364 28.7693 13.2815 29.1201 13.7158C29.4886 14.172 29.6602 14.6939 29.6602 15.3301C29.6601 16.1855 29.3171 17.1734 28.7041 17.9512C28.5544 18.1411 28.3855 18.3199 28.2002 18.4834C28.4968 18.537 28.8218 18.6293 29.1328 18.792C29.5151 18.992 29.8806 19.2974 30.1465 19.7559C30.4112 20.2123 30.5595 20.7904 30.5596 21.5098C30.5596 22.6501 30.3205 23.5474 29.7148 24.1484C29.1092 24.7492 28.2422 24.9502 27.2402 24.9502H18.8496V27.3896C18.8496 28.2153 18.7275 29.0791 18.1543 29.7275C17.5707 30.3876 16.626 30.71 15.2598 30.71C14.272 30.7099 13.3514 30.5748 12.6807 30.043C11.9817 29.4887 11.6699 28.603 11.6699 27.3896V24.9502H3.32031C3.03227 24.9502 2.2138 24.9562 1.46191 24.5654C1.07594 24.3648 0.702349 24.0576 0.428711 23.5957C0.155769 23.1349 3.4776e-05 22.5497 0 21.8203C0 20.4827 0.392683 19.5841 1.08398 19.042C1.54064 18.6839 2.08139 18.5218 2.60938 18.4541C2.51164 18.3756 2.41781 18.293 2.32812 18.207C1.64987 17.5567 1.16028 16.6541 1.16016 15.6904C1.16016 15.0325 1.30169 14.5353 1.68555 14.0107C2.03666 13.5311 2.59586 13.0241 3.37402 12.3193L3.37598 12.3174C3.8904 11.8562 4.56619 10.9683 5.28027 9.50098C5.45073 9.13916 5.58217 8.85889 5.7041 8.62988H3.67969C2.79813 8.62983 2.02814 8.39048 1.47852 7.85059C0.927307 7.30902 0.669945 6.53628 0.669922 5.62012C0.669922 4.39418 0.979795 3.53649 1.58887 3.00195C2.18558 2.4784 2.96511 2.36039 3.67969 2.36035H11.6953C11.7578 1.74594 11.953 1.1812 12.4092 0.75293C12.9767 0.220198 13.84 0 14.9902 0C15.9319 4.8443e-06 16.9018 0.0283085 17.6299 0.408203C18.0151 0.609212 18.3347 0.907053 18.5508 1.33203C18.7012 1.62789 18.7928 1.97048 18.834 2.36035H26.9102C27.8001 2.36038 28.5736 2.58825 29.123 3.12793C29.6741 3.66929 29.9199 4.44557 29.9199 5.37012Z" fill="#386F6B"/>
<path d="M69.5303 2.64941C69.5303 2.28772 69.4219 2.04266 69.2715 1.86328C69.1134 1.67492 68.8839 1.52967 68.6084 1.42285C68.0483 1.2058 67.4145 1.18945 67.1807 1.18945C66.4625 1.18945 66.0109 1.30521 65.7275 1.45801C65.4595 1.60257 65.3153 1.79452 65.2295 2.02441L65.2266 2.03125C64.7997 3.12315 64.7627 3.2619 64.3848 4.0791L64.25 4.36914H63.0303V3.22949C63.0303 2.65119 62.9215 2.15535 62.6562 1.81152C62.4103 1.49287 61.963 1.21981 61.0811 1.21973C60.084 1.21973 59.6545 1.5882 59.4385 1.95215C59.1944 2.36339 59.1611 2.87256 59.1611 3.22949V4.36914H57.1211V3.22949C57.1211 2.6459 57.0168 2.15033 56.7578 1.80762C56.5197 1.49258 56.0822 1.21973 55.2002 1.21973C54.672 1.21978 54.3134 1.32707 54.0674 1.46777C53.8234 1.60742 53.6619 1.7961 53.5508 2.00391C53.3174 2.44048 53.3105 2.95111 53.3105 3.22949V4.07617L53.1641 4.22266L53.1543 4.2334L53.0078 4.37988H51.624L51.541 3.98145C51.3184 2.91181 51.0071 2.22434 50.5986 1.80371C50.2099 1.40342 49.6782 1.18953 48.8711 1.18945C48.5666 1.18945 48.1836 1.2292 47.7549 1.38477L47.5684 1.45898C47.2247 1.60692 47.0489 1.75416 46.9463 1.91504C46.8416 2.07928 46.7705 2.32351 46.7705 2.74902C46.7705 3.04067 46.7966 3.31972 46.8828 3.78906L46.9912 4.37988H46.3906C45.9537 4.37988 45.3091 4.39246 44.7793 4.63867C44.5253 4.75675 44.3112 4.92305 44.1582 5.15918C44.0055 5.39488 43.8906 5.73544 43.8906 6.23926C43.8906 6.73857 44.0095 7.07593 44.165 7.30957C44.3218 7.54501 44.5389 7.70954 44.7871 7.8252C45.3014 8.06474 45.8893 8.06933 46.1504 8.06934H50.1572L50.2998 8.33008C50.4313 8.57121 50.4686 8.64894 50.7197 9.23145L51.0205 9.92969H46.7705C46.4965 9.92969 46.0332 9.94257 45.6455 10.1445C45.4618 10.2402 45.3006 10.3753 45.1826 10.5742C45.0639 10.7743 44.9707 11.0695 44.9707 11.5098C44.9708 11.9499 45.0642 12.2413 45.1816 12.4375C45.2984 12.6325 45.4579 12.7649 45.6406 12.8574C46.0276 13.0531 46.489 13.0596 46.7705 13.0596H55.791V14.7998H47.5107C47.3145 14.7998 46.8929 14.804 46.5293 14.9668C46.3561 15.0444 46.2133 15.1512 46.1123 15.2969C46.0134 15.4397 45.9307 15.654 45.9307 15.9893C45.9307 16.4853 46.1031 16.7304 46.3242 16.8779C46.5819 17.0498 46.9841 17.1396 47.5107 17.1396H55.791V18.8799H45.9502C45.5191 18.8799 44.9923 18.9415 44.5879 19.1777C44.2264 19.3889 43.9111 19.7665 43.9111 20.5596C43.9112 21.3404 44.2381 21.7192 44.6162 21.9336C45.0356 22.1713 45.5671 22.2294 45.9502 22.2295H50.9404L51.1367 23.1895C48.8668 24.1564 47.3922 24.4754 46.6299 24.6299L46.6221 24.6309C45.929 24.7592 45.3671 24.8838 44.9688 25.1523C44.6241 25.3847 44.3604 25.755 44.3604 26.5293C44.3604 26.9939 44.4663 27.6735 44.7744 28.2178C45.0673 28.7351 45.5293 29.1191 46.3105 29.1191C47.199 29.1191 48.6614 28.7237 50.2842 27.9932C51.8921 27.2693 53.5956 26.2447 54.9609 25.0439L55.791 24.3135V27.3496C55.791 28.2492 55.9735 28.7789 56.3027 29.0986C56.6367 29.4228 57.2322 29.6396 58.3203 29.6396C59.488 29.6396 59.9741 29.2084 60.21 28.7881C60.4762 28.3134 60.4902 27.7392 60.4902 27.3496V24.1064L61.3203 24.833C63.2453 26.5192 65.2464 27.587 66.8623 28.2324C67.67 28.555 68.3788 28.7715 68.9297 28.9062C69.4927 29.044 69.8624 29.0898 70.001 29.0898C70.7781 29.0897 71.2833 28.7078 71.6152 28.1904C71.9603 27.6525 72.1006 26.9847 72.1006 26.5293C72.1006 25.7309 71.8105 25.3161 71.459 25.0586C71.0702 24.7738 70.558 24.6449 70.0488 24.5391L70.0391 24.5371C68.6784 24.2247 67.7021 24.0083 65.5908 23.1963L65.7705 22.2295H70.2109C70.6661 22.2295 71.1924 22.1564 71.5898 21.917C71.9472 21.7017 72.2509 21.325 72.251 20.5596C72.251 19.7979 71.9434 19.416 71.5791 19.1963C71.1762 18.9534 70.6476 18.8799 70.2109 18.8799H60.4902V17.1396H68.8008C69.2889 17.1396 69.6965 17.0476 69.9668 16.8691C70.2044 16.7121 70.3809 16.4611 70.3809 15.9893C70.3808 15.51 70.2055 15.2472 69.9688 15.083C69.703 14.8989 69.2984 14.7998 68.8008 14.7998H60.4902V13.0596H69.4805C69.7638 13.0596 70.2288 13.0406 70.6133 12.8359C70.7959 12.7387 70.9556 12.6018 71.0723 12.4033C71.1895 12.2039 71.2803 11.9122 71.2803 11.4795C71.2803 11.0468 71.1893 10.7581 71.0732 10.5625C70.9578 10.3681 70.7997 10.2345 70.6182 10.1406C70.2344 9.94219 69.7712 9.92969 69.4805 9.92969H65.1924L65.7275 9.14746C65.7275 9.14743 65.7326 9.13937 65.7422 9.12012C65.7523 9.09978 65.7646 9.07306 65.7783 9.04004C65.806 8.97347 65.8347 8.89356 65.8643 8.80859C65.8959 8.71753 65.9188 8.64827 65.9473 8.56543C65.9683 8.50407 66.0002 8.41174 66.0332 8.3457L66.1719 8.06934H70.001C70.272 8.06933 70.8601 8.05779 71.3701 7.8125C71.6164 7.69405 71.8323 7.52698 71.9883 7.28809C72.1433 7.05071 72.2607 6.70955 72.2607 6.20898C72.2607 5.70794 72.1437 5.37099 71.9893 5.13867C71.8339 4.90508 71.6165 4.74164 71.3613 4.62598C70.8301 4.38527 70.199 4.37988 69.8203 4.37988H69.1455L69.3428 3.7334C69.5081 3.19143 69.5303 2.85061 69.5303 2.64941ZM61.3545 8.05957L61.2422 8.65234C61.1622 9.07511 61.1151 9.174 60.9316 9.6123L60.8037 9.91992H55.8838L55.7373 9.77344C55.669 9.70514 55.6269 9.62095 55.6191 9.60645C55.5996 9.56989 55.5797 9.52895 55.5615 9.48926C55.5246 9.40851 55.4829 9.30916 55.4434 9.21289C55.3652 9.02251 55.2834 8.81156 55.2568 8.74512L54.9824 8.05957H61.3545ZM70.5303 2.64941C70.5303 2.8387 70.5116 3.08356 70.4512 3.40039C70.8424 3.43173 71.3238 3.51062 71.7744 3.71484C72.1617 3.89039 72.541 4.16431 72.8213 4.58594C73.1023 5.00878 73.2607 5.54545 73.2607 6.20898C73.2607 6.8733 73.1017 7.41044 72.8252 7.83398C72.5497 8.25595 72.1786 8.53356 71.8037 8.71387C71.3572 8.92861 70.8883 9.01217 70.5273 9.0459C70.7087 9.09319 70.8965 9.15894 71.0781 9.25293C71.399 9.419 71.7075 9.67254 71.9326 10.0518C72.1571 10.4299 72.2803 10.9025 72.2803 11.4795C72.2803 12.0566 72.1569 12.5303 71.9336 12.9102C71.7097 13.2909 71.4028 13.5485 71.083 13.7188C70.7453 13.8985 70.3879 13.9812 70.085 14.0215C70.2441 14.0851 70.3969 14.163 70.5381 14.2607C71.0661 14.6266 71.3808 15.2088 71.3809 15.9893C71.3809 16.777 71.0521 17.3511 70.5176 17.7041C70.4136 17.7727 70.303 17.8297 70.1895 17.8799H70.2109C70.7241 17.8799 71.4654 17.9605 72.0947 18.3398C72.7628 18.7426 73.251 19.4514 73.251 20.5596C73.2509 21.6639 72.774 22.3722 72.1064 22.7744C71.4791 23.1523 70.7357 23.2295 70.2109 23.2295H68.873C69.3277 23.3483 69.7618 23.4473 70.251 23.5596H70.252C70.7527 23.6637 71.4662 23.8244 72.0498 24.252C72.6707 24.7069 73.1006 25.4278 73.1006 26.5293C73.1006 27.1438 72.9209 28.006 72.4561 28.7305C71.9781 29.4754 71.1834 30.0897 70.001 30.0898C69.7396 30.0898 69.2763 30.0198 68.6924 29.877C68.096 29.7311 67.3422 29.501 66.4912 29.1611C65.0209 28.5739 63.2508 27.6555 61.4902 26.2725V27.3496C61.4902 27.73 61.4904 28.5508 61.082 29.2783C60.6429 30.0605 59.7926 30.6396 58.3203 30.6396C57.1391 30.6396 56.2199 30.411 55.6064 29.8154C54.9883 29.2152 54.791 28.3497 54.791 27.3496V26.4746C53.5138 27.4558 52.0667 28.2875 50.6943 28.9053C49.0297 29.6547 47.4121 30.1191 46.3105 30.1191C45.102 30.1191 44.3389 29.4785 43.9043 28.7109C43.485 27.9703 43.3604 27.1046 43.3604 26.5293C43.3604 25.4637 43.7573 24.7634 44.4102 24.3232C45.0093 23.9195 45.7828 23.7691 46.4395 23.6475C46.812 23.5719 47.367 23.4539 48.1182 23.2295H45.9502C45.5034 23.2295 44.7657 23.1671 44.123 22.8027C43.4388 22.4147 42.9102 21.7085 42.9102 20.5596C42.9102 19.4228 43.4046 18.7098 44.083 18.3135C44.7183 17.9424 45.4614 17.8799 45.9502 17.8799H46.085C45.9756 17.8312 45.8692 17.7764 45.7695 17.71C45.2334 17.3524 44.9307 16.773 44.9307 15.9893C44.9307 15.4796 45.0599 15.06 45.29 14.7275C45.5181 14.3983 45.8222 14.1882 46.1201 14.0547C46.1401 14.0457 46.1606 14.0386 46.1807 14.0303C45.8823 13.9958 45.5261 13.9199 45.1885 13.749C44.865 13.5852 44.5517 13.3327 44.3232 12.9512C44.0957 12.571 43.9708 12.094 43.9707 11.5098C43.9707 10.9251 44.0957 10.4465 44.3223 10.0645C44.5495 9.68132 44.8611 9.42483 45.1836 9.25684C45.3569 9.16658 45.5353 9.10207 45.708 9.05469C45.3442 9.02876 44.8422 8.9542 44.3643 8.73145C43.9876 8.55587 43.6124 8.28299 43.333 7.86328C43.0523 7.44159 42.8906 6.90495 42.8906 6.23926C42.8906 5.57844 43.0431 5.04133 43.3184 4.61621C43.5934 4.19155 43.969 3.91304 44.3574 3.73242C44.8482 3.50422 45.3813 3.42398 45.8105 3.39551C45.783 3.16412 45.7705 2.96092 45.7705 2.74902C45.7705 2.22519 45.8551 1.76501 46.1025 1.37695C46.3524 0.985361 46.7266 0.732095 47.1729 0.540039L47.415 0.444336C47.9736 0.241815 48.4755 0.189453 48.8711 0.189453C49.8736 0.189537 50.6919 0.465419 51.3154 1.10742C51.7676 1.57297 52.0839 2.19914 52.3145 2.96289C52.3284 2.60761 52.3904 2.05135 52.668 1.53223C52.8555 1.18143 53.1424 0.845581 53.5703 0.600586C53.9964 0.356764 54.534 0.219785 55.2002 0.219727C56.3081 0.219727 57.0813 0.576656 57.5557 1.2041C58.0091 1.80389 58.1211 2.5632 58.1211 3.22949V3.36914H58.1611V3.22949C58.1611 2.84642 58.1872 2.10017 58.5781 1.44141C58.9971 0.735477 59.7783 0.219727 61.0811 0.219727C62.1885 0.219818 62.9658 0.576565 63.4473 1.2002C63.7451 1.586 63.9003 2.03853 63.9736 2.49121C64.0538 2.2849 64.153 2.03005 64.2949 1.66699C64.4597 1.23015 64.7591 0.84447 65.2529 0.578125C65.7345 0.318464 66.3688 0.189453 67.1807 0.189453C67.4368 0.189454 68.2275 0.203487 68.9697 0.491211C69.3455 0.636883 69.7373 0.863446 70.0371 1.2207C70.3443 1.58688 70.5303 2.06143 70.5303 2.64941Z" fill="#386F6B"/>
<path d="M94.2676 11.3105C93.609 12.5444 93.0388 13.3571 92.5205 13.8896H97.8789V11.3105H94.2676ZM103.818 3.07031C103.818 2.33541 103.66 1.86182 103.329 1.55566C102.986 1.23871 102.351 1 101.158 1C99.8891 1.00005 99.3767 1.42214 99.1416 1.79883C98.8773 2.22242 98.8682 2.72825 98.8682 3.07031V4.79004H99.1875L98.8154 5.5332L98.3789 5.42969V5.79004H95.5225L95.6846 5.16504C95.7653 4.85292 95.8582 4.536 95.9385 4.19531C96.0178 3.85843 96.0683 3.55975 96.0684 3.33008C96.0684 2.7092 95.8139 2.34994 95.4707 2.13281L95.4668 2.12988C94.6734 1.6155 93.6756 1.5 93.1084 1.5C92.4992 1.50001 92.129 1.67711 91.873 1.91699C91.6011 2.17195 91.4115 2.54121 91.251 3.00391L91.249 3.00879C90.3962 5.37895 89.8856 6.88112 88.8682 8.43945L88.8691 8.44043C88.17 9.52968 87.8013 10.1037 87.5996 10.5117C87.4203 10.8744 87.3887 11.0719 87.3887 11.4199C87.3887 12.0034 87.7325 12.6091 88.3145 13.0889C88.8936 13.5663 89.6411 13.8603 90.3184 13.8604C90.5219 13.8604 90.6872 13.8554 90.8623 13.8115C91.0313 13.7691 91.23 13.6837 91.4697 13.498C91.9651 13.1142 92.6297 12.3053 93.5244 10.5801L93.6641 10.3105H98.8789V14.8896H91.208C90.3794 14.8897 89.9033 15.0883 89.6191 15.4014C89.3247 15.7257 89.1387 16.2789 89.1387 17.21C89.1387 18.2922 89.5226 18.748 89.8926 18.9707C90.3109 19.2223 90.8289 19.25 91.208 19.25H98.8789V24.3604H88.998C88.4328 24.3604 87.9235 24.4456 87.5576 24.7285C87.2179 24.9914 86.8984 25.5086 86.8984 26.6201C86.8985 27.8412 87.3079 28.3396 87.6836 28.5723C88.1073 28.8345 88.6236 28.8496 88.998 28.8496H113.208C114.019 28.8496 114.497 28.6535 114.786 28.333C115.086 28.0004 115.278 27.4298 115.278 26.4697C115.278 25.3149 114.864 24.8479 114.483 24.6279C114.05 24.3776 113.535 24.3701 113.208 24.3701H103.818V19.2598H111.028C111.753 19.2598 112.241 19.1095 112.553 18.8105C112.861 18.5148 113.099 17.9769 113.099 16.9697C113.099 15.8364 112.682 15.3754 112.296 15.1562C111.857 14.9073 111.338 14.9004 111.028 14.9004H103.818V10.3203H111.918C112.665 10.3203 113.145 10.174 113.449 9.875C113.753 9.5759 113.988 9.01858 113.988 7.94043C113.988 6.77714 113.585 6.30286 113.212 6.0791C112.789 5.82536 112.276 5.81055 111.918 5.81055H103.818V3.07031ZM104.818 4.81055H111.918C112.269 4.81055 113.043 4.81048 113.728 5.22168C114.462 5.663 114.988 6.50403 114.988 7.94043C114.988 9.1318 114.733 10.0146 114.15 10.5879C113.567 11.1614 112.761 11.3203 111.918 11.3203H104.818V13.9004H111.028C111.328 13.9004 112.095 13.8926 112.789 14.2861C113.535 14.7095 114.099 15.5338 114.099 16.9697C114.099 18.1126 113.83 18.9705 113.244 19.5322C112.661 20.0907 111.863 20.2598 111.028 20.2598H104.818V23.3701H113.208C113.521 23.3701 114.292 23.3622 114.983 23.7617C115.728 24.1917 116.278 25.0249 116.278 26.4697C116.278 27.5296 116.071 28.3996 115.528 29.002C114.975 29.6164 114.167 29.8496 113.208 29.8496H88.998C88.6324 29.8496 87.849 29.8502 87.1582 29.4229C86.419 28.9654 85.8985 28.0985 85.8984 26.6201C85.8984 25.3122 86.2837 24.4488 86.9463 23.9365C87.5826 23.4447 88.3735 23.3604 88.998 23.3604H97.8789V20.25H91.208C90.8171 20.25 90.0507 20.2326 89.377 19.8271C88.6544 19.3923 88.1387 18.5777 88.1387 17.21C88.1387 16.181 88.3373 15.3241 88.8779 14.7285C88.9146 14.6882 88.9523 14.6494 88.9912 14.6123C88.5134 14.437 88.0625 14.1776 87.6777 13.8604C86.9499 13.2602 86.3887 12.3963 86.3887 11.4199C86.3887 10.9381 86.4474 10.5856 86.7031 10.0684C86.9364 9.59649 87.3469 8.96044 88.0273 7.90039L88.0303 7.89648C88.9707 6.45693 89.4411 5.08026 90.3066 2.6748C90.4861 2.15788 90.7418 1.60717 91.1895 1.1875C91.6534 0.752715 92.278 0.500006 93.1084 0.5C93.7612 0.5 94.9841 0.624419 96.0107 1.29004C96.6453 1.69323 97.0684 2.37299 97.0684 3.33008C97.0683 3.68032 96.9943 4.07182 96.9111 4.4248C96.8826 4.5458 96.8473 4.66867 96.8154 4.79004H97.8682V3.07031C97.8682 2.74246 97.8601 1.96336 98.293 1.26953C98.7553 0.528753 99.6376 5.65322e-05 101.158 0C102.446 0 103.391 0.250887 104.008 0.821289C104.637 1.40267 104.818 2.21521 104.818 3.07031V4.81055Z" fill="#386F6B"/>
<path d="M6.57812 45.8008H9.91814V67.8407H6.57812V45.8008Z" fill="#F4C058"/>
<path d="M13.5686 45.8008H17.2486L21.4986 60.6007V45.8008H24.7686V67.8407H21.2386L16.8286 53.7307V67.8407H13.5586V45.8008H13.5686Z" fill="#F4C058"/>
<path d="M27.3594 45.8008H37.9994V48.9508H34.3494V67.8407H31.0094V48.9508H27.3594V45.8008Z" fill="#F4C058"/>
<path d="M40.5898 45.8008H50.0699V48.9508H43.9298V55.0907H48.8098V58.2407H43.9298V64.7008H50.0699V67.8507H40.5898V45.8108V45.8008Z" fill="#F4C058"/>
<path d="M60.3572 67.8407L57.9372 58.7407H56.2072V67.8407H52.8672V45.8008H58.0972C59.6872 45.8008 60.9672 46.2807 61.9072 47.2307C62.8472 48.1907 63.3272 49.4608 63.3272 51.0608V53.4807C63.3272 54.4907 63.1272 55.3808 62.7272 56.1608C62.3272 56.9408 61.7572 57.5507 61.0272 57.9907L63.8272 67.8507H60.3672L60.3572 67.8407ZM56.1972 55.5907H57.9272C58.5772 55.5907 59.0772 55.4108 59.4372 55.0508C59.7972 54.6908 59.9772 54.1908 59.9772 53.5408V50.9907C59.9772 50.3407 59.7972 49.8407 59.4372 49.4807C59.0772 49.1207 58.5772 48.9408 57.9272 48.9408H56.1972V55.5807V55.5907Z" fill="#F4C058"/>
<path d="M77.1997 45.8008L73.5497 67.8407H69.0797L65.4297 45.8008H68.8297L71.3497 63.1207L73.8697 45.8008H77.2097H77.1997Z" fill="#F4C058"/>
<path d="M79.7891 45.8008H83.1291V67.8407H79.7891V45.8008Z" fill="#F4C058"/>
<path d="M86.7695 45.8008H96.2495V48.9508H90.1095V55.0907H94.9895V58.2407H90.1095V64.7008H96.2495V67.8507H86.7695V45.8108V45.8008Z" fill="#F4C058"/>
<path d="M115.708 45.8008L112.468 67.8407H108.788L107.028 53.3208L105.268 67.8407H101.588L98.3477 45.8008H101.718L103.548 60.6908L105.378 45.8008H108.778L110.608 60.6908L112.438 45.8008H115.748H115.708Z" fill="#F4C058"/>
<path d="M8.31766 38.79C8.62766 38.79 8.77766 38.98 8.77766 39.26C8.77766 39.64 8.68767 40.2 8.46767 40.74C8.95767 41 8.98766 41.16 8.98766 41.25C8.98766 41.4 8.87767 41.54 8.74767 41.54C8.68767 41.54 8.63766 41.52 8.58766 41.46C8.47766 41.35 8.36766 41.25 8.25766 41.17C7.81766 41.93 7.25766 42.21 7.09766 42.21C6.94766 42.21 6.84766 42.09 6.84766 41.97C6.84766 41.89 6.88766 41.81 6.97766 41.77C7.38766 41.59 7.67766 41.29 7.86766 40.96C7.75766 40.92 7.63767 40.88 7.49767 40.86C7.44767 41.01 7.32766 41.08 7.22766 41.08C7.12766 41.08 7.01765 41 7.01765 40.87C7.01765 40.83 7.01766 40.79 7.03766 40.75C7.19766 40.27 7.32766 39.75 7.41766 39.24C7.30766 39.24 7.20766 39.24 7.11766 39.24H7.10767C6.96767 39.24 6.89766 39.13 6.89766 39.02C6.89766 38.91 6.96767 38.79 7.10767 38.79C7.22767 38.79 7.35767 38.79 7.49767 38.79C7.53767 38.51 7.55765 38.23 7.57765 37.96C7.58765 37.82 7.69766 37.75 7.80766 37.75C7.93766 37.75 8.06766 37.83 8.06766 37.98C8.06766 38.13 7.98767 38.66 7.96767 38.79H8.31766ZM7.89766 39.22C7.82766 39.63 7.72766 40.05 7.62766 40.46C7.76766 40.48 7.91766 40.5101 8.06766 40.5601C8.28766 40.0101 8.30766 39.4501 8.30766 39.3101C8.30766 39.2301 8.23765 39.22 8.18765 39.22H7.89766ZM10.6077 40.24C10.6077 40.3 10.6077 40.3601 10.6077 40.4301C10.6077 40.6801 10.5777 40.95 10.5277 41.26C10.4277 41.84 10.0077 42.2001 9.44766 42.2001C9.12766 42.2001 8.86766 42.13 8.86766 41.88C8.86766 41.76 8.94766 41.64 9.08766 41.64C9.10766 41.64 9.13766 41.64 9.16766 41.64C9.26766 41.67 9.36766 41.6901 9.44766 41.6901C9.73766 41.6901 9.96765 41.53 10.0477 41.16C10.0977 40.92 10.1277 40.68 10.1277 40.46C10.1277 40.39 10.1277 40.31 10.1177 40.24H8.95766C8.80766 40.24 8.72766 40.13 8.72766 40.02C8.72766 39.91 8.80766 39.8 8.95766 39.8H10.0277C9.94766 39.55 9.80766 39.36 9.62766 39.24C9.55766 39.2 9.52766 39.14 9.52766 39.09C9.52766 38.98 9.64766 38.86 9.78766 38.86C9.80766 38.86 9.89767 38.8601 9.99767 38.9401C10.1377 38.8101 10.3877 38.54 10.3877 38.5C10.3877 38.46 10.3277 38.4501 10.0977 38.4501C9.84766 38.4501 9.47766 38.45 9.13766 38.48H9.12766C8.98766 38.48 8.90765 38.37 8.90765 38.26C8.90765 38.15 8.98766 38.03 9.13766 38.03C9.34766 38.03 9.57766 38.03 9.78766 38.03C10.0777 38.03 10.3577 38.03 10.5677 38.03C10.8477 38.03 10.9877 38.18 10.9877 38.36C10.9877 38.46 10.9377 38.5801 10.8577 38.6801C10.7577 38.8101 10.4577 39.11 10.3177 39.23C10.4177 39.37 10.4877 39.56 10.5477 39.78H11.2477C11.3977 39.78 11.4877 39.89 11.4877 40.01C11.4877 40.12 11.4077 40.23 11.2477 40.23H10.6077V40.24Z" fill="#040000"/>
<path d="M14.6292 40.2706C14.6892 40.4606 14.7592 40.6106 14.8192 40.7406C14.8592 40.8306 14.8892 40.9206 14.8892 41.0006C14.8892 41.1306 14.8192 41.2906 14.5992 41.2906C14.5292 41.2906 14.4492 41.2706 14.3692 41.2506C14.2292 41.2006 13.8092 41.1106 13.4592 41.1106C13.0792 41.1106 12.8392 41.2506 12.8392 41.3906C12.8392 41.5106 13.0692 41.7306 13.6392 41.7306C13.7292 41.7306 13.8192 41.7306 13.8892 41.7106C13.9092 41.7106 13.9292 41.7106 13.9492 41.7106C14.1292 41.7106 14.2192 41.8207 14.2192 41.9407C14.2192 42.1707 13.9992 42.2306 13.8392 42.2306C13.0192 42.2306 12.3392 41.8607 12.3392 41.4207C12.3392 41.2307 12.5292 40.7106 13.5092 40.7106C13.7192 40.7106 13.9192 40.7306 14.0692 40.7406C14.1092 40.7406 14.1392 40.7406 14.1692 40.7406C14.2292 40.7406 14.2792 40.7406 14.2792 40.6606C14.2792 40.6606 14.2792 40.6306 14.1692 40.2706C14.0592 40.2906 13.9492 40.2906 13.8392 40.2906C13.7392 40.2906 12.7592 40.2906 12.7592 39.7106C12.7592 39.5706 12.8292 39.4307 12.9592 39.3207C12.9992 39.2907 13.0092 39.2706 13.0092 39.2406C13.0092 39.1406 12.6992 38.9606 12.4492 38.9106C12.2792 38.8806 12.1992 38.7807 12.1992 38.6807C12.1992 38.5707 12.2992 38.4606 12.4692 38.4606C12.7892 38.4606 13.5792 38.9206 13.5792 39.2306C13.5792 39.3506 13.4792 39.4406 13.3592 39.5006C13.2692 39.5506 13.2292 39.5906 13.2292 39.6306C13.2292 39.7206 13.5192 39.8207 13.8192 39.8207C13.8892 39.8207 13.9592 39.8207 14.0292 39.8107C13.8392 39.2807 13.6092 38.7306 13.2992 38.2506C13.2592 38.1906 13.2492 38.1506 13.2492 38.1006C13.2492 37.9706 13.3792 37.8906 13.5092 37.8906C13.6192 37.8906 13.7292 37.9407 13.7892 38.0707C14.0392 38.5807 14.2592 39.1507 14.4492 39.7007C14.5292 39.6707 14.6092 39.6406 14.6992 39.6206C14.7392 39.6106 14.7692 39.6006 14.7992 39.6006C14.9392 39.6006 15.0192 39.7106 15.0192 39.8406C15.0192 40.0406 14.8792 40.1007 14.6192 40.1807L14.6492 40.2706H14.6292Z" fill="#040000"/>
<path d="M17.6772 38.7699C17.4472 39.3999 17.0072 40.1099 16.6372 40.7399C16.5772 40.8499 16.4772 40.8899 16.3772 40.8899C16.2472 40.8899 16.1372 40.7999 16.1372 40.6699C16.1372 40.6199 16.1572 40.5599 16.1972 40.4999C16.5672 39.9399 16.8572 39.5399 17.1072 38.9999C16.8072 39.1399 16.6172 39.2098 16.4572 39.2098C16.1172 39.2098 16.1172 38.9798 16.1172 38.9598C16.1172 38.8398 16.2072 38.7198 16.3572 38.7198C16.3872 38.7198 16.4272 38.7199 16.4572 38.7399C16.4872 38.7399 16.5172 38.7399 16.5472 38.7399C16.7372 38.7399 16.9972 38.6098 17.2772 38.4698C17.2972 38.3498 17.2772 38.2299 17.2972 38.0699C17.2972 37.9199 17.4172 37.8398 17.5372 37.8398C17.6572 37.8398 17.7772 37.9099 17.7872 38.0599V38.1699C17.7872 38.1699 17.8272 38.1699 17.8472 38.1699C17.9572 38.1699 18.0572 38.2599 18.0572 38.3799C18.0572 38.5499 17.8372 38.6899 17.6872 38.7699H17.6772ZM17.5272 42.1799C17.0572 42.1799 16.6672 41.8499 16.6672 41.5499C16.6672 41.2099 17.1172 40.9598 17.7872 40.9598C17.8672 40.9598 17.9472 40.9598 18.0272 40.9598C17.9872 40.5498 17.9872 40.5298 17.9872 40.4698C17.9872 40.1398 18.0972 39.8299 18.6972 39.4299C18.7272 39.4099 18.7472 39.3799 18.7472 39.3699C18.7472 39.3399 18.6972 39.3398 18.6772 39.3398C18.6072 39.3398 18.5072 39.3699 18.3472 39.3999C18.3172 39.3999 18.2972 39.3999 18.2772 39.3999C18.1572 39.3999 18.0772 39.3199 18.0772 39.2299C18.0772 39.0999 18.2272 38.9399 18.7572 38.9399C19.1372 38.9399 19.5872 39.1599 19.5872 39.3899C19.5872 39.5099 19.4772 39.6099 19.3272 39.6199C18.9172 39.6599 18.4072 39.9298 18.4072 40.4698C18.4072 40.5498 18.4072 40.6298 18.4372 40.7198C18.4572 40.8198 18.4772 40.9299 18.4872 41.0399C18.8072 41.1399 19.3072 41.3599 19.3072 41.6599C19.3072 41.7999 19.2072 41.9299 19.0672 41.9299C18.9972 41.9299 18.9272 41.8998 18.8572 41.8298C18.7572 41.7298 18.6172 41.6299 18.4672 41.5499C18.3672 41.8599 17.9772 42.1599 17.5272 42.1599V42.1799ZM17.6672 41.3499C17.3672 41.3499 17.1072 41.4499 17.1072 41.5499C17.1072 41.6499 17.2872 41.7499 17.4872 41.7499C17.7372 41.7499 17.9772 41.5999 18.0072 41.3899C17.8972 41.3599 17.7772 41.3499 17.6672 41.3499Z" fill="#040000"/>
<path d="M22.1886 42C21.1286 42 20.5586 41.51 20.5586 41.21C20.5586 41.06 20.6786 40.9301 20.8286 40.9301C20.9086 40.9301 20.9886 40.9701 21.0586 41.0601C21.3086 41.3601 21.6686 41.4501 22.0386 41.4501C22.3586 41.4501 22.6786 41.3801 22.9086 41.3201C22.9486 41.3101 22.9886 41.3 23.0286 41.3C23.2086 41.3 23.3086 41.4201 23.3086 41.5601C23.3086 41.7001 23.2186 41.83 23.0186 41.88C22.7586 41.95 22.4786 41.98 22.1986 41.98L22.1886 42ZM22.5586 39.33C21.8586 39.33 21.2986 39.07 21.1686 39C21.0486 38.94 20.9986 38.83 20.9986 38.74C20.9986 38.62 21.0786 38.5 21.2286 38.5C21.2786 38.5 21.3186 38.5 21.3786 38.53C21.7386 38.68 22.0686 38.77 22.6186 38.8C22.7886 38.81 22.8886 38.9301 22.8886 39.0601C22.8886 39.1901 22.7886 39.33 22.5686 39.33H22.5586Z" fill="#040000"/>
<path d="M25.3767 40.021C25.1567 39.901 25.1067 39.731 25.1067 39.441C25.1067 39.361 25.1067 39.271 25.1167 39.161C25.1167 38.921 25.1267 38.7409 25.1267 38.5809C25.1267 38.3509 25.1267 38.2009 25.0867 38.0909C25.0867 38.0609 25.0867 38.041 25.0867 38.021C25.0867 37.871 25.1967 37.791 25.3267 37.791C25.6367 37.791 25.6567 38.091 25.6567 38.431C25.6567 38.571 25.6567 38.751 25.6267 39.011C25.6167 39.171 25.5967 39.301 25.5967 39.401C25.5967 39.721 25.8067 39.751 25.9567 39.751C26.0367 39.751 26.0467 39.711 26.1067 39.691C26.1367 39.691 26.1667 39.671 26.1867 39.671C26.3167 39.671 26.4467 39.781 26.4467 39.921C26.4467 40.011 26.3867 40.111 26.2567 40.191C26.0867 40.301 25.6667 40.471 25.4367 40.601C25.0467 40.821 24.8667 41.041 24.8667 41.231C24.8667 41.441 25.0967 41.661 25.6267 41.661C25.7067 41.661 26.1167 41.661 26.3367 41.491C26.4167 41.431 26.5067 41.411 26.5767 41.411C26.7467 41.411 26.8667 41.531 26.8667 41.671C26.8667 41.991 26.2667 42.171 25.7367 42.171C24.8067 42.171 24.3867 41.731 24.3867 41.291C24.3867 40.921 24.6667 40.501 25.2867 40.151C25.2967 40.151 25.4167 40.081 25.4567 40.051C25.4267 40.051 25.3867 40.031 25.3467 40.011L25.3767 40.021Z" fill="#040000"/>
<path d="M29.9263 40.6901C29.9263 40.7801 29.9263 40.87 29.9163 40.97C29.8963 41.18 29.7663 41.28 29.6363 41.28C29.5263 41.28 29.4263 41.2 29.4263 41.04V40.99C29.4463 40.87 29.4463 40.75 29.4463 40.65C29.3363 40.71 28.8563 40.96 28.8563 41.28C28.8563 41.37 28.8963 41.67 29.4263 41.67C29.6663 41.67 29.9262 41.6101 30.0762 41.5601C30.1262 41.5401 30.1663 41.54 30.2063 41.54C30.3763 41.54 30.4763 41.66 30.4763 41.78C30.4763 41.89 30.4363 42.15 29.5563 42.15C28.6763 42.15 28.4062 41.71 28.4062 41.33C28.4062 40.7 29.1362 40.31 29.4062 40.17C29.3463 39.97 29.2463 39.87 29.1063 39.87C29.0263 39.87 28.9363 39.9 28.8363 39.96C28.6163 40.2 28.4963 40.27 28.3763 40.27C28.2563 40.27 28.1562 40.1901 28.1562 40.0701C28.1562 40.0101 28.1863 39.93 28.2763 39.86C28.5563 39.61 28.6962 39.48 28.9362 39.08C28.8462 39.09 28.7662 39.1 28.6862 39.1C28.1662 39.1 28.1663 38.81 28.1663 38.77C28.1663 38.65 28.2563 38.54 28.3763 38.54C28.4363 38.54 28.4963 38.56 28.5563 38.61C28.6063 38.64 28.6663 38.65 28.7463 38.65C28.7863 38.65 28.9163 38.65 29.1562 38.59C29.2063 38.46 29.2263 38.3601 29.2463 38.1801C29.2663 38.0501 29.3563 38 29.4663 38C29.5963 38 29.7463 38.09 29.7463 38.23C29.7463 38.29 29.7263 38.37 29.7163 38.42C29.8663 38.34 29.8863 38.34 29.9263 38.34C30.0463 38.34 30.1463 38.4401 30.1463 38.5701C30.1463 38.7401 30.0163 38.84 29.4763 38.97C29.3963 39.13 29.2962 39.3 29.1862 39.48C29.4662 39.48 29.6963 39.64 29.8363 39.96C30.4863 39.68 30.9363 39.54 31.0263 39.54C31.2163 39.54 31.3163 39.6801 31.3163 39.8101C31.3163 39.8901 31.2663 39.97 31.1763 40.01C31.0163 40.08 30.8462 40.1001 30.5762 40.1801C30.3562 40.2501 30.1362 40.33 29.9362 40.41C29.9462 40.49 29.9463 40.57 29.9463 40.66L29.9263 40.6901Z" fill="#040000"/>
<path d="M34.9786 40.9192C34.9786 40.9892 34.9886 41.0692 34.9886 41.1492C34.9886 41.6092 34.7686 42.3092 33.8786 42.3092C33.4786 42.3092 33.2586 42.1991 33.2586 41.9991C33.2586 41.8691 33.3586 41.7592 33.4986 41.7592C33.5286 41.7592 33.5486 41.7592 33.5786 41.7592C33.6886 41.7992 33.8086 41.8192 33.9186 41.8192C34.4986 41.8192 34.4986 41.1291 34.4986 41.0891C34.4986 41.0291 34.4986 40.9692 34.4786 40.9192H32.2986C32.1386 40.9192 32.0586 40.8192 32.0586 40.6992C32.0586 40.5792 32.1386 40.4591 32.2886 40.4591H34.1886C34.1286 40.4291 34.0586 40.3891 33.9786 40.3591C33.8686 40.3191 33.8286 40.2592 33.8286 40.1892C33.8286 40.0792 33.9486 39.9691 34.0986 39.9691C34.2086 39.9691 34.3186 40.0292 34.3986 40.0692C34.5286 39.9792 34.8086 39.7891 34.8086 39.7291C34.8086 39.7091 34.7886 39.6992 34.7486 39.6992C34.6886 39.6992 34.5986 39.6992 34.4786 39.6992C34.1486 39.6992 33.6486 39.7091 33.2886 39.7291C33.1386 39.7291 33.0586 39.6192 33.0586 39.5092C33.0586 39.4092 33.1386 39.2992 33.2986 39.2892C33.5186 39.2892 33.7986 39.2892 34.0686 39.2892C34.4486 39.2892 34.8186 39.2892 35.0586 39.2892C35.3486 39.2892 35.4786 39.4391 35.4786 39.5991C35.4786 39.8491 35.2086 40.0591 34.7386 40.3491C34.7686 40.3891 34.7886 40.4191 34.8086 40.4591L36.3386 40.4392C36.4886 40.4392 36.5686 40.5592 36.5686 40.6792C36.5686 40.7992 36.4986 40.9092 36.3486 40.9092H34.9686L34.9786 40.9192ZM35.8286 39.2692C35.8286 39.0492 35.7186 39.0192 35.5086 39.0092C35.0986 39.0092 34.6286 39.0092 34.1886 39.0092C33.8286 39.0092 33.4686 39.0092 33.1486 39.0092C32.8686 39.0092 32.8186 39.0892 32.8086 39.2692V39.5692C32.8086 39.7192 32.6786 39.7992 32.5486 39.7992C32.4286 39.7992 32.3086 39.7292 32.2986 39.5692C32.2986 39.4992 32.2986 39.4291 32.2986 39.3391C32.2986 39.2491 32.2986 39.1691 32.2986 39.0891C32.3086 38.8491 32.4986 38.5991 32.8986 38.5991H33.3286C33.3286 38.5991 33.2786 38.5492 33.2586 38.5192C33.1486 38.3392 33.0386 38.2692 32.8986 38.1492C32.8486 38.1092 32.8286 38.0592 32.8286 38.0192C32.8286 37.9092 32.9586 37.7992 33.0886 37.7992C33.2886 37.7992 33.6886 38.1891 33.6886 38.3691C33.6886 38.4591 33.6186 38.5491 33.5386 38.5991C33.9886 38.5991 34.4386 38.5991 34.8886 38.5991C35.0386 38.4291 35.1686 38.1292 35.2586 37.9192C35.3086 37.7992 35.3986 37.7592 35.4886 37.7592C35.6286 37.7592 35.7786 37.8692 35.7786 38.0092C35.7786 38.1092 35.6086 38.3591 35.3986 38.6091C35.5186 38.6091 35.6386 38.6091 35.7586 38.6091C36.0586 38.6091 36.3486 38.7791 36.3586 39.0991C36.3586 39.1691 36.3586 39.2792 36.3586 39.3792C36.3586 39.4492 36.3586 39.5192 36.3586 39.5692C36.3486 39.7192 36.2186 39.7992 36.0886 39.7992C35.9586 39.7992 35.8286 39.7291 35.8286 39.5791V39.2892V39.2692ZM34.3686 38.5692C34.2986 38.5692 34.2286 38.5292 34.1986 38.4492C34.1286 38.2592 34.0186 38.1492 33.8986 38.0092C33.8686 37.9692 33.8486 37.9292 33.8486 37.8992C33.8486 37.7892 33.9786 37.6992 34.1086 37.6992C34.3686 37.6992 34.6486 38.1992 34.6486 38.3192C34.6486 38.4592 34.4986 38.5791 34.3686 38.5791V38.5692Z" fill="#040000"/>
<path d="M40.2683 39.8906C40.2683 39.8906 40.2683 39.9107 40.2683 39.9207C40.2783 39.9707 40.2783 40.0207 40.2783 40.0707C40.2783 40.8307 39.5683 42.0806 38.3983 42.0806C37.9183 42.0806 37.4883 41.8207 37.4883 41.0507C37.4883 40.2407 37.8683 39.5607 38.3283 38.8107C38.3283 38.8007 38.3283 38.7906 38.3283 38.7806C38.3283 38.7706 38.3283 38.7706 38.3283 38.7706C38.3283 38.7706 38.3183 38.7706 38.3083 38.7706C38.2283 38.7906 38.0483 38.8207 37.9083 38.8207C37.6483 38.8207 37.5683 38.7007 37.5683 38.5607C37.5683 38.4407 37.6683 38.3107 37.8383 38.3107C37.8583 38.3107 37.8783 38.3107 37.8983 38.3107C37.9583 38.3207 38.0183 38.3207 38.0983 38.3207C38.2483 38.3207 38.4083 38.3006 38.5883 38.2506C38.9283 38.1506 38.8583 38.1307 39.0583 38.0707C39.0983 38.0607 39.1283 38.0507 39.1683 38.0507C39.3183 38.0507 39.4083 38.1606 39.4083 38.2906C39.4083 38.3906 39.3383 38.5107 39.2083 38.5607C38.9183 38.6707 37.9883 39.9307 37.9883 40.9207C37.9883 41.3707 38.1983 41.5406 38.4683 41.5406C38.9683 41.5406 39.8083 40.9506 39.8083 39.8306C39.8083 39.6606 39.7883 39.5307 39.7583 39.4407C39.7383 39.3707 39.6683 39.2506 39.6183 39.1606C39.5883 39.1006 39.5683 39.0406 39.5683 38.9906C39.5683 38.8406 39.6883 38.7406 39.8183 38.7406C39.9283 38.7406 40.0583 38.8106 40.1283 38.9906C40.2983 39.3806 40.6183 39.6506 41.1683 39.8706C41.2983 39.9306 41.3683 40.0306 41.3683 40.1406C41.3683 40.2706 41.2683 40.4106 41.0983 40.4106C40.7883 40.4106 40.3083 39.9106 40.3083 39.9106C40.2883 39.8806 40.2783 39.8706 40.2683 39.8706V39.8906ZM40.7983 38.9706C40.7283 38.8906 40.4883 38.7107 40.3783 38.6707C40.2883 38.6307 40.2583 38.5806 40.2583 38.5206C40.2583 38.4306 40.3483 38.3306 40.4783 38.3306C40.5483 38.3306 41.1283 38.5607 41.1283 38.8107C41.1283 38.9307 41.0283 39.0406 40.9183 39.0406C40.8683 39.0406 40.8283 39.0206 40.7883 38.9706H40.7983ZM41.2683 38.5206C41.1983 38.4406 40.9483 38.2706 40.8483 38.2306C40.7583 38.1906 40.7183 38.1306 40.7183 38.0806C40.7183 37.9806 40.8083 37.8906 40.9383 37.8906C41.0483 37.8906 41.5983 38.1206 41.5983 38.3506C41.5983 38.4706 41.4983 38.5806 41.3883 38.5806C41.3483 38.5806 41.2983 38.5606 41.2683 38.5206Z" fill="#040000"/>
<path d="M43.8881 38.7699C43.6581 39.3999 43.2181 40.1099 42.8481 40.7399C42.7881 40.8499 42.6881 40.8899 42.5881 40.8899C42.4581 40.8899 42.3481 40.7999 42.3481 40.6699C42.3481 40.6199 42.3681 40.5599 42.4081 40.4999C42.7781 39.9399 43.0681 39.5399 43.3181 38.9999C43.0181 39.1399 42.8281 39.2098 42.6681 39.2098C42.3281 39.2098 42.3281 38.9798 42.3281 38.9598C42.3281 38.8398 42.4181 38.7198 42.5681 38.7198C42.5981 38.7198 42.6381 38.7199 42.6681 38.7399C42.6981 38.7399 42.7281 38.7399 42.7581 38.7399C42.9481 38.7399 43.2081 38.6098 43.4881 38.4698C43.5081 38.3498 43.4881 38.2299 43.5081 38.0699C43.5081 37.9199 43.6281 37.8398 43.7481 37.8398C43.8681 37.8398 43.9881 37.9099 43.9981 38.0599V38.1699C43.9981 38.1699 44.0381 38.1699 44.0581 38.1699C44.1681 38.1699 44.2681 38.2599 44.2681 38.3799C44.2681 38.5499 44.0481 38.6899 43.8981 38.7699H43.8881ZM43.7381 42.1799C43.2681 42.1799 42.8781 41.8499 42.8781 41.5499C42.8781 41.2099 43.3281 40.9598 43.9981 40.9598C44.0781 40.9598 44.1581 40.9598 44.2381 40.9598C44.1981 40.5498 44.1981 40.5298 44.1981 40.4698C44.1981 40.1398 44.3081 39.8299 44.9081 39.4299C44.9381 39.4099 44.9581 39.3799 44.9581 39.3699C44.9581 39.3399 44.9081 39.3398 44.8881 39.3398C44.8181 39.3398 44.7181 39.3699 44.5581 39.3999C44.5281 39.3999 44.5081 39.3999 44.4881 39.3999C44.3681 39.3999 44.2881 39.3199 44.2881 39.2299C44.2881 39.0999 44.4381 38.9399 44.9681 38.9399C45.3481 38.9399 45.7981 39.1599 45.7981 39.3899C45.7981 39.5099 45.6881 39.6099 45.5381 39.6199C45.1281 39.6599 44.6181 39.9298 44.6181 40.4698C44.6181 40.5498 44.6181 40.6298 44.6481 40.7198C44.6681 40.8198 44.6881 40.9299 44.6981 41.0399C45.0181 41.1399 45.5181 41.3599 45.5181 41.6599C45.5181 41.7999 45.4181 41.9299 45.2781 41.9299C45.2081 41.9299 45.1381 41.8998 45.0681 41.8298C44.9681 41.7298 44.8281 41.6299 44.6781 41.5499C44.5781 41.8599 44.1881 42.1599 43.7381 42.1599V42.1799ZM43.8881 41.3499C43.5881 41.3499 43.3281 41.4499 43.3281 41.5499C43.3281 41.6499 43.5081 41.7499 43.7081 41.7499C43.9581 41.7499 44.1981 41.5999 44.2281 41.3899C44.1181 41.3599 43.9981 41.3499 43.8881 41.3499Z" fill="#040000"/>
<path d="M47.6886 39.8396C47.4686 39.8996 47.2386 39.9397 47.1086 39.9397C46.9486 39.9397 46.8686 39.8296 46.8686 39.7096C46.8686 39.5796 46.9586 39.4497 47.1286 39.4497C47.2086 39.4497 47.4286 39.4496 47.9786 39.3296C48.1086 39.0496 48.1786 38.9097 48.2286 38.5397C48.2486 38.4097 48.3486 38.3596 48.4586 38.3596C48.5886 38.3596 48.7386 38.4496 48.7386 38.5996C48.7386 38.6596 48.7086 38.8696 48.5486 39.2196H48.5886C49.1786 39.2196 49.1886 39.8496 49.1886 40.0896C49.1886 40.5496 49.1686 41.8296 48.2186 41.8296C47.9286 41.8296 47.5486 41.6997 47.5486 41.4497C47.5486 41.3097 47.6686 41.1797 47.8186 41.1797C47.8586 41.1797 47.8886 41.1896 47.9286 41.2096C48.0386 41.2596 48.1386 41.2897 48.2186 41.2897C48.5486 41.2897 48.7086 40.9297 48.7086 40.0297C48.7086 39.8197 48.6786 39.6597 48.5086 39.6597C48.4786 39.6597 48.4486 39.6597 48.4186 39.6597C48.3986 39.6597 48.3686 39.6797 48.3386 39.6797C47.9486 40.4097 47.4086 41.2497 47.0886 41.8097C47.0286 41.9097 46.9286 41.9596 46.8186 41.9596C46.6886 41.9596 46.5586 41.8796 46.5586 41.7396C46.5586 41.6896 46.5786 41.6297 46.6186 41.5597C46.8486 41.2197 47.3786 40.4697 47.7486 39.8197H47.7086L47.6886 39.8396ZM50.5386 40.5497C50.4286 40.2597 50.0486 39.8696 49.6586 39.7296C49.5686 39.6996 49.5186 39.6297 49.5186 39.5597C49.5186 39.4497 49.6186 39.3296 49.7686 39.3296C50.0286 39.3296 51.0386 39.9697 51.0386 40.4397C51.0386 40.6097 50.8986 40.7096 50.7686 40.7096C50.6786 40.7096 50.5986 40.6597 50.5486 40.5497H50.5386ZM50.3886 39.1897C50.3186 39.1097 50.0586 38.9397 49.9586 38.9097C49.8686 38.8697 49.8286 38.8196 49.8286 38.7596C49.8286 38.6596 49.9186 38.5697 50.0386 38.5697C50.0686 38.5697 50.7086 38.7597 50.7086 39.0297C50.7086 39.1497 50.6086 39.2596 50.5086 39.2596C50.4686 39.2596 50.4186 39.2397 50.3886 39.1997V39.1897ZM50.8386 38.7196C50.7686 38.6496 50.5086 38.4896 50.3986 38.4596C50.2986 38.4296 50.2686 38.3697 50.2686 38.2997C50.2686 38.2097 50.3586 38.0996 50.4786 38.0996C50.6586 38.0996 51.0186 38.3196 51.0786 38.3696C51.1386 38.4196 51.1586 38.4797 51.1586 38.5397C51.1586 38.6597 51.0686 38.7697 50.9586 38.7697C50.9186 38.7697 50.8786 38.7496 50.8386 38.7096V38.7196Z" fill="#040000"/>
<path d="M52.6766 42.2494C52.4766 42.2494 52.3966 42.1394 52.3966 42.0194C52.3966 41.8994 52.4866 41.7894 52.6366 41.7794C53.5466 41.7094 54.2866 41.1694 54.2866 40.7594C54.2866 40.5394 54.0766 40.4294 53.8866 40.4294C53.4866 40.4294 52.7566 41.0794 52.6866 41.1694C52.5766 41.2994 52.4866 41.3494 52.4066 41.3494C52.2966 41.3494 51.9766 41.2394 51.9766 40.5094C51.9766 40.2794 51.9766 40.2694 52.0666 39.8394C52.0966 39.7094 52.1166 39.5594 52.1166 39.4094V39.3195C52.1166 38.9895 52.2666 38.8194 52.6266 38.6194C52.7466 38.5494 52.8966 38.4894 52.8966 38.4294C52.8966 38.3894 52.8366 38.3494 52.6966 38.2994C52.5666 38.2594 52.5066 38.1694 52.5066 38.0894C52.5066 37.9694 52.6166 37.8594 52.7866 37.8594C52.9666 37.8594 53.6166 38.1594 53.6166 38.5194C53.6166 38.7594 53.4266 38.7994 53.1666 38.8394C53.0866 38.8594 52.9966 38.9095 52.9166 38.9395C52.5966 39.0895 52.5366 39.2194 52.5366 39.3794C52.5366 39.4094 52.5366 39.4394 52.5366 39.4694V39.5294C52.5366 39.5894 52.5366 39.6594 52.5166 39.7394C52.4266 40.3194 52.4266 40.3494 52.4266 40.4194C52.4266 40.4394 52.4266 40.6394 52.4866 40.6394C52.4966 40.6394 52.5166 40.6394 52.5366 40.6194C52.6366 40.5594 52.8366 40.4194 53.0566 40.2994C53.3666 40.1294 53.6266 40.0194 53.8866 40.0194C54.3366 40.0194 54.7766 40.3094 54.7766 40.7694C54.7766 41.0994 54.5466 41.4894 54.0066 41.8494C53.4866 42.1894 52.6766 42.2594 52.6566 42.2594L52.6766 42.2494Z" fill="#040000"/>
<path d="M56.2896 42.2008C56.1596 42.0108 55.8795 41.7708 55.6595 41.6608C55.5595 41.6108 55.5195 41.5308 55.5195 41.4508C55.5195 41.3308 55.6095 41.2207 55.7595 41.2207C55.9395 41.2207 56.7595 41.6708 56.7595 42.0208C56.7595 42.1908 56.6195 42.3008 56.4795 42.3008C56.4095 42.3008 56.3395 42.2608 56.2795 42.1908L56.2896 42.2008Z" fill="#040000"/>
<path d="M61.0383 38.4092C61.3983 38.4292 61.6583 38.6591 61.6683 38.9991C61.6683 39.3291 61.6883 39.8491 61.6883 40.3491C61.6883 40.7791 61.6883 41.1892 61.6783 41.4492C61.6583 41.9292 61.3883 42.1292 60.8883 42.1492C60.6883 42.1592 60.4383 42.1692 60.1783 42.1692C58.9483 42.1692 58.5283 42.1591 58.5083 41.4691C58.5083 41.1591 58.4883 40.7192 58.4883 40.2792C58.4883 39.8392 58.4883 39.3792 58.5083 39.0392C58.5383 38.4192 58.9983 38.4092 59.5483 38.4092C59.6083 38.2192 59.6583 37.9991 59.6783 37.8691C59.6883 37.7591 59.8083 37.6992 59.9383 37.6992C60.0783 37.6992 60.2383 37.7792 60.2383 37.9292C60.2383 38.0192 60.1683 38.1892 60.0783 38.4092C60.4483 38.4092 60.8283 38.4092 61.0283 38.4192L61.0383 38.4092ZM61.2083 39.9292H58.9683V40.5492H61.2083V39.9292ZM61.1983 39.4891C61.1983 39.3691 61.1983 39.2592 61.1883 39.1792C61.1683 38.8292 61.0583 38.8291 60.1183 38.8291C59.8183 38.8291 59.5183 38.8291 59.3583 38.8491C58.9883 38.8691 58.9783 39.0191 58.9783 39.4991H61.2083L61.1983 39.4891ZM58.9783 40.9891C58.9783 41.1291 58.9783 41.2591 58.9783 41.3591C58.9883 41.6991 59.1083 41.7091 60.1183 41.7091C60.3683 41.7091 60.6283 41.7092 60.7983 41.6992C61.1983 41.6792 61.1983 41.4791 61.1983 40.9991H58.9683L58.9783 40.9891Z" fill="#040000"/>
<path d="M64.9758 39.9803C64.7058 41.8203 63.2558 42.2303 63.0858 42.2303C62.9358 42.2303 62.8258 42.1103 62.8258 41.9803C62.8258 41.8903 62.8858 41.7904 63.0258 41.7504C63.9858 41.4504 64.3458 40.7704 64.4558 39.9904C64.2958 39.9904 64.1358 39.9904 63.9958 39.9904C63.8558 39.9904 63.7758 39.8904 63.7758 39.7804V39.7504C63.5458 40.0204 63.1758 40.3804 62.9558 40.3804C62.7958 40.3804 62.6758 40.2504 62.6758 40.1204C62.6758 40.0404 62.7158 39.9604 62.8158 39.9004C63.3158 39.5904 63.5858 39.2204 63.8358 38.7504C63.8958 38.6404 63.9858 38.5903 64.0758 38.5903C64.2158 38.5903 64.3558 38.7103 64.3558 38.8503C64.3558 39.0203 63.9658 39.5404 63.9358 39.5704C63.9558 39.5704 63.9758 39.5604 64.0058 39.5604C64.2258 39.5604 64.4658 39.5604 64.7058 39.5604C65.0458 39.5604 65.3958 39.5604 65.6858 39.5604C66.0258 39.5604 66.2258 39.7804 66.2258 40.1304C66.2258 41.1304 66.1958 42.2203 65.0558 42.2203C64.8958 42.2203 64.7258 42.1904 64.5458 42.1504C64.4258 42.1204 64.3758 42.0204 64.3758 41.9104C64.3758 41.7804 64.4658 41.6404 64.6258 41.6404C64.6558 41.6404 64.6758 41.6404 64.7058 41.6404C64.8558 41.6804 64.9958 41.7004 65.1058 41.7004C65.4658 41.7004 65.7258 41.5304 65.7258 40.2604V40.1804C65.7258 40.0404 65.6558 39.9803 65.5458 39.9803H64.9758ZM64.3058 38.4004C64.1458 38.4004 64.0658 38.2804 64.0658 38.1604C64.0658 38.0404 64.1458 37.9204 64.3058 37.9204L65.1458 37.9004H65.1658C65.4258 37.9004 65.6558 37.9803 65.7658 38.2203C66.0658 38.8403 66.4558 39.3403 67.0758 39.7303C67.1858 39.8003 67.2258 39.8803 67.2258 39.9803C67.2258 40.1303 67.0958 40.2804 66.9258 40.2804C66.6358 40.2804 65.8658 39.5404 65.3758 38.5404C65.3258 38.4204 65.2258 38.3804 65.0858 38.3804H65.0558L64.3158 38.4104L64.3058 38.4004Z" fill="#040000"/>
<path d="M71.1888 40.0303C71.1888 39.4603 70.7387 38.9702 69.9987 38.9702C70.0787 39.0102 70.1387 39.0803 70.1387 39.1903V39.2202C70.1387 39.7602 69.6088 40.7002 69.0388 41.2502C68.9088 41.3702 68.7788 41.4203 68.6588 41.4203C68.2888 41.4203 67.9688 41.0103 67.9688 40.4503C67.9688 39.5203 68.8888 38.5703 70.0388 38.5703C71.0788 38.5703 71.7287 39.2603 71.7287 40.0603C71.7287 40.2503 71.6887 40.4403 71.6187 40.6403C71.1687 41.7803 69.7687 41.9403 69.6987 41.9403C69.5187 41.9403 69.4088 41.8203 69.4088 41.6903C69.4088 41.5803 69.4988 41.4703 69.6888 41.4303C70.6288 41.2803 71.2087 40.7003 71.2087 40.0303H71.1888ZM69.7087 39.0002C69.0687 39.1302 68.4187 39.8103 68.4187 40.4203C68.4187 40.8103 68.6788 40.8502 68.6888 40.8502C68.7188 40.8502 68.7588 40.8503 68.7888 40.8103C68.9388 40.6703 69.5887 39.9102 69.6087 39.2202C69.6087 39.1202 69.6487 39.0402 69.7087 39.0002Z" fill="#040000"/>
<path d="M76.5675 40.0905L75.0875 40.0706C75.5475 40.6406 76.1775 41.1005 76.7775 41.4105C76.8775 41.4605 76.9275 41.5405 76.9275 41.6305C76.9275 41.7705 76.7975 41.9205 76.6275 41.9205C76.3875 41.9205 75.5175 41.2405 74.9075 40.4805C74.9075 41.0205 74.9275 41.5904 74.9275 42.0804C74.9275 42.2104 74.7975 42.2805 74.6675 42.2805C74.5475 42.2805 74.4175 42.2204 74.4175 42.0804L74.4375 40.5205C73.8975 41.2105 72.9675 41.9705 72.7075 41.9705C72.5575 41.9705 72.4375 41.8505 72.4375 41.7205C72.4375 41.6405 72.4875 41.5505 72.5975 41.4905C73.2075 41.1705 73.7875 40.6904 74.2375 40.0804L72.8275 40.1005C72.6775 40.1005 72.6075 39.9905 72.6075 39.8805C72.6075 39.7605 72.6875 39.6305 72.8275 39.6305H74.4375V39.0605H73.2275C73.0775 39.0605 73.0075 38.9505 73.0075 38.8405C73.0075 38.7305 73.0875 38.6005 73.2275 38.6005H74.4275V37.9406H74.4175C74.4175 37.8006 74.5375 37.7305 74.6675 37.7305C74.7975 37.7305 74.9275 37.8006 74.9275 37.9506C74.9275 38.1906 74.9275 38.4005 74.9275 38.6105H76.1475C76.2875 38.6105 76.3575 38.7305 76.3575 38.8405C76.3575 38.9505 76.2875 39.0706 76.1475 39.0706H74.9175C74.9175 39.2506 74.9175 39.4405 74.9175 39.6505H76.5775C76.7175 39.6505 76.7875 39.7605 76.7875 39.8805C76.7875 40.0005 76.7175 40.1105 76.5775 40.1105L76.5675 40.0905Z" fill="#040000"/>
<path d="M81.7766 40.3202L80.2766 40.3002C80.7866 40.8802 81.4066 41.2801 82.0166 41.5801C82.1266 41.6301 82.1666 41.7102 82.1666 41.8002C82.1666 41.9402 82.0366 42.0801 81.8666 42.0801C81.6066 42.0801 80.6366 41.3402 80.0466 40.6602C80.0466 41.1502 80.0666 41.6401 80.0666 42.1301C80.0666 42.2701 79.9366 42.3401 79.8066 42.3401C79.6766 42.3401 79.5566 42.2701 79.5566 42.1401L79.5666 40.7002C79.1266 41.2402 78.5766 41.7001 77.9066 42.0901C77.8466 42.1301 77.7866 42.1401 77.7366 42.1401C77.5866 42.1401 77.4766 42.0201 77.4766 41.8901C77.4766 41.8101 77.5266 41.7302 77.6366 41.6702C78.2966 41.3402 78.8466 40.9002 79.3266 40.3102L77.8766 40.3301C77.7366 40.3301 77.6566 40.2301 77.6566 40.1201C77.6566 40.0101 77.7366 39.8901 77.8766 39.8901H79.5666V38.9102H78.1066C77.9566 38.9102 77.8866 38.8002 77.8866 38.6902C77.8866 38.5802 77.9666 38.4601 78.1066 38.4601H79.5566V37.8801C79.5566 37.7301 79.6766 37.6602 79.7966 37.6602C79.9266 37.6602 80.0466 37.7401 80.0466 37.8801C80.0466 38.0801 80.0466 38.2701 80.0466 38.4601H81.4066C81.5466 38.4601 81.6166 38.5702 81.6166 38.6802C81.6166 38.7902 81.5466 38.9001 81.4066 38.9001H80.0366C80.0366 39.2301 80.0366 39.5501 80.0366 39.8801H80.2266C80.3866 39.6901 80.5566 39.3701 80.6666 39.0801C80.6966 38.9901 80.7666 38.9502 80.8466 38.9502C80.9766 38.9502 81.1366 39.0702 81.1366 39.2002C81.1366 39.2702 80.9466 39.6201 80.7266 39.8701H81.7666C81.9066 39.8701 81.9766 39.9801 81.9766 40.0901C81.9766 40.2001 81.9066 40.3102 81.7666 40.3102L81.7766 40.3202ZM78.8066 39.7301C78.6966 39.5501 78.5466 39.4001 78.4766 39.3301C78.4166 39.2801 78.3966 39.2402 78.3966 39.1902C78.3966 39.0902 78.5066 39.0001 78.6266 39.0001C78.8466 39.0001 79.2266 39.3901 79.2266 39.5801C79.2266 39.7201 79.0966 39.8401 78.9766 39.8401C78.9166 39.8401 78.8466 39.8101 78.7966 39.7301H78.8066Z" fill="#040000"/>
<path d="M84.8872 40.6901C84.8872 40.7801 84.8872 40.87 84.8772 40.97C84.8572 41.18 84.7272 41.28 84.5972 41.28C84.4872 41.28 84.3872 41.2 84.3872 41.04V40.99C84.4072 40.87 84.4072 40.75 84.4072 40.65C84.2972 40.71 83.8172 40.96 83.8172 41.28C83.8172 41.37 83.8572 41.67 84.3872 41.67C84.6272 41.67 84.8872 41.6101 85.0372 41.5601C85.0872 41.5401 85.1272 41.54 85.1672 41.54C85.3372 41.54 85.4372 41.66 85.4372 41.78C85.4372 41.89 85.3972 42.15 84.5172 42.15C83.6372 42.15 83.3672 41.71 83.3672 41.33C83.3672 40.7 84.0972 40.31 84.3672 40.17C84.3072 39.97 84.2072 39.87 84.0672 39.87C83.9872 39.87 83.8972 39.9 83.7972 39.96C83.5772 40.2 83.4572 40.27 83.3372 40.27C83.2172 40.27 83.1172 40.1901 83.1172 40.0701C83.1172 40.0101 83.1472 39.93 83.2372 39.86C83.5172 39.61 83.6572 39.48 83.8972 39.08C83.8072 39.09 83.7272 39.1 83.6472 39.1C83.1272 39.1 83.1272 38.81 83.1272 38.77C83.1272 38.65 83.2172 38.54 83.3372 38.54C83.3972 38.54 83.4572 38.56 83.5172 38.61C83.5672 38.64 83.6272 38.65 83.7072 38.65C83.7472 38.65 83.8772 38.65 84.1172 38.59C84.1672 38.46 84.1872 38.3601 84.2072 38.1801C84.2272 38.0501 84.3172 38 84.4272 38C84.5572 38 84.7072 38.09 84.7072 38.23C84.7072 38.29 84.6872 38.37 84.6772 38.42C84.8272 38.34 84.8472 38.34 84.8872 38.34C85.0072 38.34 85.1072 38.4401 85.1072 38.5701C85.1072 38.7401 84.9772 38.84 84.4372 38.97C84.3572 39.13 84.2572 39.3 84.1472 39.48C84.4272 39.48 84.6572 39.64 84.7972 39.96C85.4472 39.68 85.8972 39.54 85.9872 39.54C86.1772 39.54 86.2772 39.6801 86.2772 39.8101C86.2772 39.8901 86.2272 39.97 86.1372 40.01C85.9772 40.08 85.8072 40.1001 85.5372 40.1801C85.3172 40.2501 85.0972 40.33 84.8972 40.41C84.9072 40.49 84.9072 40.57 84.9072 40.66L84.8872 40.6901Z" fill="#040000"/>
<path d="M87.2287 42.3007C87.0687 42.3007 86.9688 42.1807 86.9688 42.0607C86.9688 41.9507 87.0387 41.8506 87.1987 41.8306C87.8687 41.7406 88.2987 41.4806 88.4987 41.0406C88.5487 40.9306 88.6387 40.8906 88.7287 40.8906C88.8587 40.8906 88.9987 41.0006 88.9987 41.1306C88.9987 41.1706 88.9887 41.2006 88.9688 41.2306C88.5087 42.2006 87.2188 42.3007 87.2188 42.3007H87.2287ZM88.4187 40.7806C88.0487 40.7706 87.8288 40.5606 87.8188 40.2706C87.8188 40.0406 87.7987 39.6707 87.7987 39.3107C87.7987 38.9507 87.7988 38.5906 87.8188 38.3906C87.8288 38.1506 87.9887 37.9006 88.3887 37.8906C88.6287 37.8906 88.9287 37.8906 89.2487 37.8906C89.5687 37.8906 89.8887 37.8906 90.1487 37.8906C90.4587 37.9006 90.6788 38.1306 90.6888 38.3606C90.6988 38.5906 90.7087 38.9206 90.7087 39.2606C90.7087 39.6406 90.7088 40.0206 90.6888 40.2706C90.6888 40.5506 90.4588 40.7806 90.1288 40.7906C90.0388 40.7906 89.9587 40.7906 89.8687 40.7906C89.8687 41.0006 89.8587 41.2406 89.8587 41.4006C89.8587 41.6806 89.9187 41.7506 90.3587 41.7506C90.7587 41.7506 90.9987 41.6906 90.9987 41.2306C90.9987 41.0606 91.1187 40.9906 91.2387 40.9906C91.3287 40.9906 91.5087 41.0306 91.5087 41.2706C91.5087 42.1506 90.9087 42.2206 90.3287 42.2206C89.8087 42.2206 89.3587 42.1706 89.3587 41.6006C89.3587 41.4606 89.3587 41.0807 89.3587 40.8007C89.0387 40.8007 88.7088 40.8007 88.4088 40.8007L88.4187 40.7806ZM90.2188 39.1306H88.2687V39.5306H90.2188V39.1306ZM90.2087 38.7406C90.2087 38.6606 90.1987 38.5906 90.1987 38.5306C90.1987 38.4006 90.1287 38.3207 89.9587 38.3107C89.7887 38.3107 89.5588 38.3007 89.3188 38.3007C89.0288 38.3007 88.7287 38.3007 88.5187 38.3107C88.3587 38.3107 88.2787 38.4306 88.2787 38.5406C88.2787 38.6006 88.2787 38.6606 88.2787 38.7406H90.2188H90.2087ZM88.2687 39.9307C88.2687 40.0107 88.2687 40.0706 88.2687 40.1406C88.2687 40.3106 88.3687 40.3606 88.5187 40.3706C88.7587 40.3806 89.0087 40.3906 89.2787 40.3906C89.5087 40.3906 89.7387 40.3906 89.9587 40.3706C90.2087 40.3606 90.2087 40.1707 90.2087 39.9407H88.2687V39.9307Z" fill="#040000"/>
<path d="M93.6392 41.8394C93.4392 41.8394 93.3292 41.6994 93.3292 41.5594C93.3292 41.4494 93.4092 41.3294 93.5892 41.3094C94.5592 41.1694 95.6892 40.6594 95.6892 39.9694C95.6892 39.5894 95.3392 39.3195 94.9392 39.3195C94.7492 39.3195 94.5392 39.3694 94.2892 39.4594C93.7992 39.6294 93.1792 39.9994 92.6592 40.2394C92.5992 40.2694 92.5392 40.2794 92.4892 40.2794C92.3192 40.2794 92.1992 40.1494 92.1992 40.0094C92.1992 39.9094 92.2592 39.7994 92.3992 39.7494C92.8892 39.5494 93.7092 39.1394 94.2192 38.9894C94.4892 38.9094 94.7492 38.8594 94.9992 38.8594C95.8392 38.8594 96.2492 39.4894 96.2492 39.9894C96.2492 40.3694 96.0192 40.7394 95.5692 41.0894C94.9292 41.5894 93.7792 41.8394 93.6392 41.8394Z" fill="#040000"/>
<path d="M97.9794 38.4598C97.9794 38.6098 97.9194 38.8499 97.8894 39.0999C97.8494 39.3799 97.8394 39.6299 97.8394 39.8599C97.8394 40.4899 97.9594 40.9299 98.0794 41.2499C98.0994 41.2899 98.0994 41.3299 98.0994 41.3699C98.0994 41.5299 97.9694 41.6299 97.8294 41.6299C97.7294 41.6299 97.6194 41.5699 97.5594 41.4299C97.4094 41.0499 97.3594 40.5498 97.3594 40.0798C97.3594 39.7198 97.3894 39.3699 97.4094 39.0999C97.4294 38.8199 97.4594 38.6499 97.4694 38.4399C97.4694 38.2899 97.5994 38.2198 97.7194 38.2198C97.8494 38.2198 97.9794 38.2998 97.9794 38.4598ZM99.5794 39.4698C99.0994 39.5598 98.8594 39.5999 98.7294 39.5999C98.5594 39.5999 98.4594 39.4699 98.4594 39.3499C98.4594 39.2399 98.5494 39.1199 98.7294 39.1199C99.0494 39.1199 99.1694 39.1199 99.6494 38.9999C99.6494 38.7099 99.6194 38.4899 99.6094 38.3599C99.6094 38.3399 99.6094 38.3299 99.6094 38.3199C99.6094 38.1599 99.7294 38.0898 99.8594 38.0898C99.9994 38.0898 100.139 38.1798 100.149 38.3298C100.149 38.3898 100.149 38.4499 100.149 38.5299C100.149 38.6299 100.149 38.7599 100.149 38.9099C100.359 38.8599 100.449 38.8499 100.509 38.8499C100.679 38.8499 100.769 38.9499 100.769 39.0599C100.769 39.1799 100.679 39.2999 100.499 39.3199C100.389 39.3299 100.269 39.3499 100.149 39.3699C100.149 39.5399 100.149 39.7398 100.169 39.9598C100.169 40.0198 100.169 40.0699 100.169 40.1199C100.169 41.1299 99.7194 41.8799 98.7994 42.3099C98.7494 42.3299 98.7094 42.3398 98.6694 42.3398C98.5194 42.3398 98.4094 42.2198 98.4094 42.0898C98.4094 42.0098 98.4594 41.9199 98.5694 41.8699C99.3294 41.5499 99.6794 40.8999 99.6794 40.0299C99.6794 39.9599 99.6694 39.6399 99.6594 39.4399L99.5894 39.4598L99.5794 39.4698Z" fill="#040000"/>
<path d="M102.607 42.0809C102.167 42.0809 101.688 41.671 101.688 41.281C101.688 40.971 101.997 40.741 102.507 40.741C102.697 40.741 102.907 40.7709 103.107 40.8309C103.107 40.7209 103.107 40.601 103.107 40.511C103.077 39.491 103.057 39.041 102.987 38.311V38.281C102.987 38.121 103.107 38.041 103.247 38.041C103.387 38.041 103.527 38.121 103.527 38.291C103.527 38.551 103.547 38.801 103.557 39.061C103.607 39.061 103.657 39.051 103.697 39.041C103.847 39.011 103.988 38.951 104.068 38.901C104.128 38.861 104.187 38.8409 104.237 38.8409C104.397 38.8409 104.527 38.971 104.527 39.111C104.527 39.371 104.058 39.501 103.568 39.541C103.568 39.811 103.568 40.1109 103.568 40.4609C103.568 40.6009 103.568 40.801 103.568 41.001C103.798 41.101 104.007 41.241 104.167 41.391C104.257 41.471 104.288 41.561 104.288 41.651C104.288 41.821 104.167 41.9709 104.017 41.9709C103.947 41.9709 103.867 41.931 103.797 41.851C103.697 41.741 103.577 41.631 103.457 41.541C103.317 41.831 102.997 42.0909 102.617 42.0909L102.607 42.0809ZM102.507 41.151C102.207 41.151 102.167 41.261 102.167 41.321C102.167 41.431 102.347 41.621 102.587 41.621C102.787 41.621 102.968 41.491 103.038 41.271C102.858 41.191 102.677 41.141 102.517 41.141L102.507 41.151Z" fill="#040000"/>
<path d="M106.009 42.0499C106.009 41.9599 106.059 41.8798 106.159 41.8298C107.109 41.4098 107.409 40.8199 107.409 40.2599C107.409 40.1199 107.359 39.3699 106.969 39.3699C106.849 39.3699 106.719 39.4299 106.559 39.5299C106.289 39.6899 106.149 39.7599 106.019 39.7599C105.819 39.7599 105.719 39.6199 105.719 39.4899C105.719 39.3699 105.809 39.2398 105.999 39.2198C106.129 39.1998 106.219 39.1498 106.349 39.0898C106.559 38.9898 106.789 38.9299 106.999 38.9299C107.909 38.9299 107.929 40.1499 107.929 40.2599C107.929 41.6399 106.499 42.3298 106.279 42.3298C106.119 42.3298 106.009 42.1899 106.009 42.0599V42.0499ZM107.299 38.4999C107.019 38.4999 106.619 38.4399 106.299 38.2799C106.209 38.2299 106.159 38.1499 106.159 38.0699C106.159 37.9599 106.249 37.8398 106.399 37.8398C106.439 37.8398 106.489 37.8399 106.539 37.8699C106.739 37.9599 106.929 37.9799 107.139 37.9799C107.199 37.9799 107.259 37.9799 107.319 37.9799H107.339C107.509 37.9799 107.599 38.0898 107.599 38.2098C107.599 38.4198 107.429 38.4999 107.299 38.4999Z" fill="#040000"/>
<path d="M109.36 42.3109C109.04 42.3109 108.77 42.0508 108.77 41.7208C108.77 41.3908 109.03 41.1309 109.36 41.1309C109.69 41.1309 109.95 41.3908 109.95 41.7208C109.95 42.0508 109.69 42.3109 109.36 42.3109ZM109.36 41.3408C109.14 41.3408 108.97 41.5108 108.97 41.7308C108.97 41.9508 109.14 42.1208 109.36 42.1208C109.58 42.1208 109.75 41.9508 109.75 41.7308C109.75 41.5108 109.58 41.3408 109.36 41.3408Z" fill="#040000"/>
<path d="M107.448 74.3211C107.098 75.5411 105.818 76.241 104.598 75.891C103.378 75.541 102.678 74.261 103.028 73.041C103.378 71.821 104.658 71.121 105.878 71.471C107.098 71.821 107.798 73.1011 107.448 74.3211Z" fill="#3C3D3D"/>
<path d="M105.237 79.1199C104.737 79.1199 104.226 79.0499 103.726 78.9099C102.326 78.5099 101.176 77.5799 100.476 76.3099C99.7765 75.0399 99.6065 73.5699 100.017 72.1699C100.417 70.7699 101.347 69.6199 102.617 68.9199C103.887 68.2199 105.356 68.0498 106.756 68.4598C108.156 68.8598 109.306 69.7899 110.006 71.0599C110.706 72.3299 110.877 73.8 110.467 75.2C109.777 77.58 107.597 79.1299 105.237 79.1299V79.1199ZM105.237 69.1299C104.477 69.1299 103.727 69.32 103.047 69.7C101.987 70.29 101.207 71.2499 100.877 72.4199C100.537 73.5899 100.677 74.8199 101.267 75.8799C101.857 76.9399 102.817 77.7199 103.987 78.0499C106.397 78.7499 108.927 77.3499 109.617 74.9399C109.957 73.7699 109.816 72.5399 109.226 71.4799C108.636 70.4199 107.676 69.6399 106.506 69.3099C106.086 69.1899 105.657 69.1299 105.237 69.1299Z" fill="#4C4B4C"/>
<path d="M105.237 81.2899C104.537 81.2899 103.827 81.1898 103.127 80.9898C99.0969 79.8198 96.7669 75.5999 97.9269 71.5699C98.4869 69.6199 99.7869 67.9999 101.557 67.0199C103.337 66.0399 105.387 65.8098 107.347 66.3698C111.377 67.5398 113.707 71.7599 112.547 75.7899C111.587 79.1199 108.537 81.2899 105.237 81.2899ZM105.227 66.9598C104.107 66.9598 102.997 67.2399 101.997 67.7999C100.427 68.6699 99.2869 70.0899 98.7869 71.8199C97.7569 75.3799 99.8169 79.1099 103.377 80.1399C105.097 80.6399 106.917 80.4399 108.487 79.5699C110.057 78.6999 111.197 77.2799 111.697 75.5499C112.727 71.9899 110.667 68.2598 107.107 67.2298C106.487 67.0498 105.857 66.9598 105.227 66.9598Z" fill="#4C4B4C"/>
<path d="M102.267 84.3899C102.267 84.3899 102.187 84.3898 102.147 84.3698C101.907 84.2998 101.777 84.0599 101.847 83.8199L107.787 63.2799C107.857 63.0399 108.097 62.9098 108.337 62.9798C108.577 63.0498 108.707 63.2899 108.637 63.5299L102.697 84.0699C102.637 84.2599 102.467 84.3899 102.267 84.3899Z" fill="#4C4B4C"/>
<path d="M115.51 77.0905C115.51 77.0905 115.43 77.0907 115.39 77.0707L94.8502 71.1306C94.6102 71.0606 94.4801 70.8205 94.5501 70.5805C94.6201 70.3405 94.8602 70.2106 95.1002 70.2806L115.64 76.2206C115.88 76.2906 116.01 76.5306 115.94 76.7706C115.88 76.9606 115.71 77.0905 115.51 77.0905Z" fill="#4C4B4C"/>
</svg>
