<svg preserveAspectRatio="none" width="100%" height="100%" overflow="visible" style="display: block;" viewBox="0 0 205.577 450.019" fill="none" xmlns="http://www.w3.org/2000/svg">
<g id="Group">
<path id="Vector" d="M162.578 261.934C161.655 260.987 161.131 259.74 161.081 258.419C162.628 259.191 162.403 260.637 162.578 261.934Z" fill="var(--fill-0, #E4D66D)"/>
<path id="Vector_2" d="M118.092 64.6483C115.996 63.5264 113.925 64.3242 111.73 63.9751C111.855 63.651 111.805 63.1773 111.805 62.8283C111.73 58.2907 117.443 59.1384 115.522 56.346C114.873 55.3986 113.875 55.2989 113.177 55.4235C111.38 55.7227 111.855 56.9693 111.58 58.914C111.356 60.4099 106.316 59.1134 106.64 57.2685C106.939 55.6479 107.438 54.501 106.665 53.4539C105.692 52.1325 104.419 54.1769 103.147 54.1769C97.9325 54.2517 96.2608 47.8193 96.2858 43.531C95.7618 42.4839 92.668 41.9853 92.3936 40.5143C92.1441 39.2428 93.8407 37.8466 94.664 36.3756C92.8177 34.1317 91.5952 31.7383 91.7948 28.5719C91.9445 26.3031 88.701 24.7324 89.0004 22.3141C89.1501 21.2171 90.5722 20.0453 90.198 19.2724C89.699 18.2252 88.5014 17.1282 87.3287 17.8762C86.3307 18.4995 85.8567 19.6214 85.1581 19.9705C84.2599 20.4192 82.1641 20.2696 81.7649 19.1477C81.2659 17.6518 81.3657 16.1559 81.1411 14.7098C86.2559 13.2139 93.167 14.5603 95.7618 19.1976C96.1361 19.8957 94.0403 21.3666 94.1401 21.965C94.2399 22.5634 94.5642 23.785 95.8367 23.9596C97.8576 24.2089 100.278 21.242 99.4544 19.3721C98.2069 16.6047 96.186 15.009 95.3876 11.6432C91.5453 13.3386 88.9006 10.3218 85.3826 9.87307C83.711 9.64868 81.6152 12.9397 79.4445 11.6931C79.6192 10.0227 78.9954 8.3273 79.5443 6.68179C82.9874 5.9837 85.9066 3.73984 89.2249 4.18861C89.8986 4.98643 89.9984 6.80645 90.5972 7.25523C93.4664 9.29964 92.9425 3.06668 96.5103 4.18861C100.527 5.4352 95.8117 8.52675 100.228 9.72348C101.201 9.99773 101.65 8.95059 102.448 7.72893C103.247 6.50727 104.594 7.60427 105.368 8.22757C105.916 8.65141 106.241 9.67361 106.54 10.7457C107.064 12.6156 109.958 11.0199 110.807 11.7928C115.148 15.7071 118.042 20.9428 121.46 25.7546C120.213 26.9763 118.192 29.0456 119.689 30.0429C121.186 31.0402 123.356 29.8435 123.93 31.489C124.504 33.1345 123.406 34.3811 121.934 35.4781C120.038 36.8493 122.708 38.3702 123.207 39.6167C125.452 45.2763 125.352 51.3846 124.33 57.3433C122.583 58.0414 121.286 57.3931 119.539 58.3405C120.712 61.1578 120.038 63.2023 118.117 64.5984L118.092 64.6483ZM112.528 18.8984C112.952 17.8513 112.453 16.6545 111.405 16.2307C110.358 15.8068 109.16 16.3055 108.736 17.3526C108.312 18.3998 108.811 19.5965 109.859 20.0203C110.906 20.4442 112.104 19.9455 112.528 18.8984ZM104.37 16.8041C104.819 15.732 104.295 14.4855 103.197 14.0616C102.099 13.6378 100.877 14.1364 100.452 15.2085C100.028 16.2806 100.527 17.5271 101.625 17.951C102.723 18.3748 103.945 17.8762 104.37 16.8041ZM114.898 27.3004C115.323 26.2533 114.824 25.0566 113.776 24.6327C112.728 24.2089 111.53 24.7075 111.106 25.7546C110.682 26.8018 111.181 27.9985 112.229 28.4224C113.277 28.8462 114.474 28.3476 114.898 27.3004ZM106.44 24.9818C106.865 23.9596 106.366 22.8127 105.343 22.4138C104.32 22.0149 103.172 22.4886 102.773 23.5108C102.374 24.533 102.848 25.6799 103.871 26.0788C104.893 26.4777 106.041 26.004 106.44 24.9818ZM105.842 41.4617C107.513 41.2622 108.686 43.1321 109.509 42.8828C110.832 42.459 111.356 41.4368 111.006 40.3398C110.657 39.2428 109.559 38.3452 108.337 38.8937C107.688 39.1929 107.763 40.4395 105.442 41.9603C104.245 39.3674 102.473 35.4531 103.646 32.7106C105.268 32.7854 106.341 34.8548 107.388 34.5805C108.262 34.3561 108.686 33.4835 108.861 32.4114C108.96 31.7881 108.312 30.8906 107.388 30.392C105.941 29.5941 103.92 34.1317 102.723 32.1372C101.949 30.8657 102.873 27.1508 101.026 26.5774C100.203 26.3031 96.5103 29.27 96.3856 29.9931C96.0862 31.9128 99.5293 32.0624 100.353 34.4559C101.026 36.4005 98.2319 37.6721 98.7808 39.1929C99.3296 40.7137 101.899 40.9132 102.848 43.1072C103.571 44.7776 99.7538 46.4481 101.326 47.9689C103.771 50.3374 105.268 45.4259 108.636 50.0881C109.609 51.4095 111.056 51.235 112.029 51.0106C119.14 49.4648 103.646 45.5755 105.817 41.4866L105.842 41.4617ZM117.169 35.5279C117.618 34.4309 117.094 33.1843 115.996 32.7356C114.898 32.2868 113.651 32.8104 113.202 33.9074C112.753 35.0044 113.277 36.2509 114.374 36.6997C115.472 37.1485 116.72 36.6249 117.169 35.5279ZM119.24 43.7804C119.664 42.7582 119.165 41.5864 118.142 41.1625C117.119 40.7387 115.921 41.2373 115.522 42.2595C115.123 43.2817 115.597 44.4535 116.62 44.8774C117.643 45.3012 118.841 44.8026 119.24 43.7804ZM121.46 52.0577C121.884 51.0106 121.385 49.8139 120.338 49.39C119.29 48.9662 118.092 49.4648 117.668 50.512C117.244 51.5591 117.743 52.7558 118.791 53.1797C119.839 53.6035 121.036 53.1049 121.46 52.0577Z" fill="var(--fill-0, #70BC96)"/>
<path id="Vector_3" d="M117.768 67.69C117.368 67.9144 117.044 67.9393 116.994 67.4157C117.294 66.4683 117.668 65.5459 118.117 64.6483C119.589 65.4461 118.317 66.5681 117.768 67.69Z" fill="var(--fill-0, #70BC96)"/>
<path id="Vector_4" d="M75.9515 22.1894C74.8537 21.4913 74.9535 19.1726 74.2799 20.3943L73.3817 21.965C69.3398 21.5412 71.8348 25.4804 66.0464 28.4971C65.4476 33.3589 65.3977 39.3425 62.0793 43.6806C62.6033 42.9825 52.8229 49.6144 56.6902 53.2046C56.4906 53.9276 55.4676 54.0523 55.1183 54.5509C52.5734 51.8084 51.8748 46.5478 53.1223 43.2817C55.0934 43.7305 57.0145 44.4286 57.4137 42.5338C57.5884 41.6612 57.1642 40.3148 55.8419 39.891C55.0185 39.6167 53.8459 40.8384 52.9477 41.0628C50.5774 38.6943 53.9457 35.7024 55.0934 34.0819C52.4487 27.4749 54.5445 24.3335 58.6612 19.9206C59.6842 18.8236 57.8129 14.5104 61.0814 14.5353C62.2291 14.5353 64.0753 15.6822 64.6991 14.3857C65.9216 11.8676 62.8029 10.646 65.248 8.97552C66.9945 7.75386 69.739 10.5712 70.737 8.30236C71.6352 6.23302 72.5084 6.35768 74.0803 6.50727C76.1511 6.70673 74.9785 8.67634 75.7769 9.77334C77.4984 12.1668 77.7978 13.7624 77.4485 16.9038C77.3238 17.951 79.0952 19.4968 78.3467 20.519C77.7729 21.2918 76.6751 21.616 75.9515 22.1894ZM71.8098 16.9288C73.1072 16.854 74.0304 16.131 73.8807 15.2085C73.1571 10.7706 60.5075 18.8236 62.4786 22.0647C63.0524 23.0121 64.0504 23.3363 65.0234 23.4858C69.2649 24.2338 64.5993 17.4274 71.8348 16.9288H71.8098ZM61.1063 28.2977C61.5305 27.2755 61.0315 26.1286 60.0085 25.7048C58.9856 25.2809 57.8379 25.7796 57.4137 26.8018C56.9896 27.824 57.4886 28.9709 58.5115 29.3947C59.5345 29.8185 60.6822 29.3199 61.1063 28.2977ZM63.4267 36.6C63.8508 35.5778 63.3518 34.3811 62.3289 33.9822C61.3059 33.5832 60.1083 34.0569 59.7091 35.0792C59.3099 36.1014 59.784 37.2981 60.8069 37.697C61.8299 38.0959 63.0275 37.6222 63.4267 36.6Z" fill="var(--fill-0, #70BC96)"/>
<path id="Vector_5" d="M105.842 41.4617C103.671 45.5505 119.165 49.4399 112.054 50.9857C111.056 51.21 109.609 51.4095 108.661 50.0632C105.293 45.4009 103.796 50.3374 101.351 47.944C99.7788 46.4231 103.621 44.7527 102.873 43.0823C101.924 40.9132 99.3546 40.7137 98.8057 39.168C98.2568 37.6222 101.051 36.3507 100.378 34.4309C99.5542 32.0624 96.1111 31.8879 96.4105 29.9681C96.5353 29.2451 100.228 26.2782 101.051 26.5525C102.897 27.1508 101.974 30.8407 102.748 32.1123C103.945 34.1068 105.966 29.5941 107.413 30.367C108.337 30.8657 108.985 31.7632 108.885 32.3865C108.686 33.4586 108.287 34.3312 107.413 34.5556C106.39 34.8298 105.293 32.7605 103.671 32.6857C102.498 35.4282 104.27 39.3425 105.467 41.9354C107.788 40.4146 107.713 39.168 108.362 38.8688C109.584 38.2954 110.682 39.2428 111.031 40.3148C111.38 41.3869 110.857 42.434 109.534 42.8579C108.711 43.1072 107.538 41.2373 105.867 41.4368L105.842 41.4617Z" fill="var(--fill-0, #226E77)"/>
<path id="Vector_6" d="M117.171 35.5455C117.618 34.4488 117.091 33.1976 115.994 32.751C114.896 32.3043 113.644 32.8313 113.197 33.928C112.75 35.0247 113.277 36.2758 114.375 36.7225C115.472 37.1691 116.724 36.6422 117.171 35.5455Z" fill="var(--fill-0, #226E77)"/>
<path id="Vector_7" d="M104.39 16.8212C104.832 15.7373 104.311 14.5006 103.226 14.0592C102.141 13.6177 100.904 14.1385 100.462 15.2225C100.02 16.3065 100.541 17.543 101.626 17.9845C102.711 18.426 103.948 17.9052 104.39 16.8212Z" fill="var(--fill-0, #226E77)"/>
<path id="Vector_8" d="M121.452 52.0585C121.878 51.0128 121.375 49.8198 120.329 49.3939C119.282 48.968 118.089 49.4705 117.662 50.5162C117.236 51.5619 117.739 52.7548 118.785 53.1807C119.832 53.6066 121.026 53.1042 121.452 52.0585Z" fill="var(--fill-0, #226E77)"/>
<path id="Vector_9" d="M114.894 27.3016C115.32 26.2559 114.817 25.063 113.771 24.6371C112.724 24.2112 111.53 24.7137 111.104 25.7594C110.678 26.805 111.181 27.998 112.227 28.4239C113.274 28.8498 114.468 28.3473 114.894 27.3016Z" fill="var(--fill-0, #226E77)"/>
<path id="Vector_10" d="M119.265 43.7879C119.686 42.7549 119.189 41.5765 118.155 41.1558C117.121 40.7351 115.942 41.2314 115.521 42.2644C115.1 43.2973 115.597 44.4757 116.631 44.8964C117.664 45.3171 118.844 44.8208 119.265 43.7879Z" fill="var(--fill-0, #226E77)"/>
<path id="Vector_11" d="M112.525 18.8963C112.951 17.8506 112.448 16.6577 111.402 16.2318C110.355 15.8059 109.162 16.3083 108.735 17.354C108.309 18.3997 108.812 19.5927 109.858 20.0186C110.905 20.4445 112.099 19.942 112.525 18.8963Z" fill="var(--fill-0, #226E77)"/>
<path id="Vector_12" d="M106.443 24.9916C106.853 23.9842 106.369 22.8349 105.361 22.4246C104.352 22.0143 103.202 22.4984 102.792 23.5058C102.381 24.5132 102.866 25.6625 103.874 26.0728C104.882 26.4832 106.032 25.9991 106.443 24.9916Z" fill="var(--fill-0, #226E77)"/>
<path id="Vector_13" d="M159.185 256.424C158.261 256.548 157.363 256.947 156.29 256.822C155.467 256.723 155.417 255.401 154.818 254.853C156.415 253.033 155.916 250.166 156.989 247.747C158.511 244.332 160.956 241.365 160.008 236.927C155.567 240.093 151.725 242.861 146.41 243.16C143.316 243.334 137.628 242.611 136.206 239.719L129.769 226.48C129.045 225.009 125.377 226.48 124.804 224.112C124.379 222.342 123.032 220.148 124.704 218.153L128.945 213.117C132.513 208.879 129.344 213.441 130.642 206.211C135.782 210.399 133.212 204.416 142.568 206.261C147.433 207.233 154.519 206.909 157.538 202.571C158.985 199.006 157.139 194.518 157.388 190.903L158.436 175.27C159.434 160.112 153.895 158.791 147.333 143.108C146.934 142.186 147.483 141.363 147.982 141.139C148.406 140.939 149.654 140.515 150.003 141.513C154.195 154.053 160.482 157.694 162.079 170.858C162.428 173.675 168.441 170.608 170.687 175.021C171.41 176.417 169.514 177.315 169.065 178.96C168.017 182.8 168.017 187.088 167.917 191.052C167.842 194.244 164.674 195.49 164.025 197.485C162.578 201.972 161.28 205.089 156.665 207.258C143.666 213.341 138.002 205.687 134.759 210.973C132.663 214.389 129.993 216.632 127.423 219.35C126.6 220.223 127.398 222.666 128.321 222.616C133.311 222.317 131.665 211.821 144.788 214.713L135.532 222.018C139.948 223.364 143.616 221.369 147.708 222.018C148.681 222.167 148.98 223.912 148.331 224.461C146.685 225.832 134.409 224.461 132.788 226.854C136.156 230.295 147.633 227.303 149.554 229.123C153.721 233.062 136.73 230.594 135.258 232.315C139.05 235.68 151.226 231.292 150.851 235.281C150.602 237.924 141.196 235.356 137.453 237.301C149.005 246.6 157.089 232.564 171.086 226.655C176.774 224.262 181.939 223.638 185.981 218.153C201.35 197.26 208.461 201.1 194.564 161.259C192.792 156.198 188.426 152.757 186.031 148.194L179.17 135.155C176.874 130.792 175.028 126.703 171.535 123.013C162.154 113.066 161.206 106.01 148.78 96.1368C138.002 87.5603 135.332 89.3803 126.101 83.4465C124.654 82.524 123.057 81.801 121.186 82.4742C130.742 99.0289 109.384 117.478 111.78 135.18C111.68 135.928 110.931 136.925 110.906 137.748C110.857 141.862 114.499 138.72 115.273 141.513C115.572 142.56 115.048 143.757 113.875 144.081C112.977 144.33 111.929 143.507 110.707 142.709C109.085 146.699 108.411 150.663 107.588 154.477C109.035 154.278 110.133 154.602 110.931 155.3C111.83 156.098 110.931 157.369 110.283 158.167C109.784 158.741 107.588 157.295 106.939 157.893C104.195 160.461 104.045 165.647 104.02 168.813C105.991 168.738 107.364 169.137 107.613 170.484C107.838 171.655 107.089 171.979 106.465 172.453C105.218 173.376 104.37 171.381 103.421 171.232C100.203 170.783 101.301 175.919 101.276 177.739C97.6829 178.537 95.637 180.905 93.2418 183.722L87.7778 190.13C86.5802 191.526 81.2409 189.108 81.1411 192.399C81.5902 193.346 84.2599 194.568 83.1122 195.989C82.6132 196.637 81.4405 197.634 80.2928 197.086C79.2948 196.612 79.1202 195.216 79.2449 193.845C79.6691 189.207 71.4855 196.363 71.8847 194.792C70.9865 193.595 69.739 193.521 67.8927 193.321L60.9316 192.573C62.9027 201.274 58.761 214.488 56.0165 223.065C54.8688 226.63 55.3428 230.42 52.9476 233.935C52.1742 235.057 51.9247 237.849 53.3468 238.647C61.1063 242.985 69.5893 244.606 78.1721 246.551L85.7568 248.271C94.9384 250.365 103.945 251.462 113.302 252.634C122.658 253.806 144.464 260.064 152.199 255.925C152.623 256.573 153.696 257.221 153.546 258.144C153.421 258.967 152.323 259.615 151.226 259.764C137.229 261.884 122.982 256.449 110.632 255.476C110.208 259.69 107.388 277.092 104.968 277.217C104.095 277.267 103.696 276.045 103.92 274.998L108.362 255.451C105.667 254.604 103.322 253.93 99.9534 254.105C100.602 255.825 100.602 257.122 100.053 258.917C94.8137 276.344 105.966 278.937 101.7 281.38C101.126 281.704 100.402 281.181 99.8286 280.383C94.2149 272.554 94.5642 262.482 99.0552 253.881C85.0832 251.063 72.0094 249.692 59.734 244.581L49.6293 240.367C44.29 244.481 42.3938 250.091 40.2232 255.875C37.9028 262.108 35.5326 268.042 33.6863 274.374C30.4677 285.494 16.1464 317.532 18.0925 323.814C21.336 334.186 32.5635 350.641 36.9797 361.062C39.7242 367.545 44.9137 372.756 47.1343 379.562C47.5834 380.933 45.5624 382.878 46.1113 383.925C47.0095 385.62 48.5564 385.994 49.9037 386.842C60.9566 393.798 77.1741 387.49 83.4116 376.894C84.7838 374.551 82.0144 371.359 81.3158 369.415C79.3946 364.029 79.8188 358.694 78.8457 353.184C77.4735 345.355 74.3547 338.125 71.5104 330.621L86.3556 307.908L100.003 286.317C100.827 284.995 102.972 284.497 103.871 284.971C104.719 285.419 106.191 286.417 106.69 287.563L115.248 307.334C117.393 312.321 121.311 315.886 123.356 321.221C112.778 329.673 113.277 320.099 105.492 325.335C102.773 327.155 102.648 330.396 101.825 333.388C99.2548 342.588 101.151 350.591 107.563 356.949C111.705 361.062 114.075 360.265 118.716 359.118C127.673 356.924 137.328 359.791 146.46 359.218C155.218 358.694 163.326 356.525 171.959 355.453C181.789 354.231 187.802 345.38 186.355 335.557C185.207 327.828 182.363 320.847 179.394 313.567L160.906 268.142L158.212 260.238C157.762 258.942 159.459 257.62 159.684 256.698C160.357 256.997 160.657 257.795 160.881 258.368C160.931 259.69 161.455 260.936 162.378 261.884C162.877 265.948 165.871 269.563 166.894 273.701C168.765 281.256 173.705 287.239 174.629 291.951C175.627 297.087 178.221 300.952 179.968 305.464L185.307 319.277L189.349 332.89C191.295 339.472 190.023 345.655 185.607 351.738C179.469 360.19 167.792 359.118 161.729 360.389C154.419 361.91 147.234 362.882 139.699 362.484L127.398 361.835L124.105 367.744C127.822 369.764 124.878 373.877 126.001 375.972C127.498 378.789 126.849 380.759 127.299 383.127C128.646 390.482 129.968 397.189 127.149 404.244C124.329 411.3 120.213 415.115 113.077 416.486C108.91 417.284 105.243 417.508 101.4 412.771C100.477 420.425 100.527 426.01 98.7059 432.766C96.2857 441.767 89.8237 450.767 79.8188 449.969C72.5833 449.396 65.0484 444.709 62.728 438.351C56.8149 422.121 62.4536 417.309 61.7799 407.386C61.4306 402.375 62.3787 398.036 61.7051 392.851C56.1163 394.77 41.321 389.535 42.4936 382.479C42.9677 379.587 43.4916 378.315 41.795 375.548C39.7491 372.207 37.1044 368.841 35.3829 365.176C32.0895 358.121 28.5216 351.588 24.4548 344.907C22.4837 341.69 14.375 325.634 14.2752 322.318C14.0756 315.662 18.0426 309.528 19.4648 303.295C20.6624 297.91 22.8829 293.522 25.1035 288.636C27.7731 282.777 29.4448 273.951 32.7132 265.798C29.844 268.142 26.8001 266.346 24.6294 266.945C20.2881 268.117 18.3919 266.795 14.5496 264.751C12.1544 263.479 9.0856 263.031 7.5886 259.914C7.0896 258.867 4.27026 258.917 3.64651 257.82C0.527762 252.285 7.56365 245.653 8.01275 244.755C11.8051 237.151 17.1943 231.093 23.9308 226.331C26.1514 224.76 28.322 219.275 27.6983 216.882C26.7003 213.167 24.6045 209.926 27.1993 205.712C28.4717 203.668 30.0935 198.607 28.9208 196.463L15.6724 184.071C13.377 181.927 9.2353 184.869 6.96485 183.922C1.85011 181.703 0.0786629 175.42 0.00381304 171.356C-0.120937 164.849 2.82316 160.436 7.6884 157.22L12.4788 144.654C13.9758 140.69 17.8929 141.263 20.5376 140.615C23.5815 136.028 24.6294 129.147 29.7941 126.055C38.9757 120.545 31.2911 122.714 34.6843 108.653C37.2292 98.1314 43.8908 82.7235 55.6422 80.4547C57.1392 80.1555 60.732 79.4574 60.6322 77.6873C60.5075 75.4933 58.7859 72.7009 57.9626 70.7562C51.5255 67.7395 50.3778 61.706 50.253 55.6974C50.0784 46.6721 47.9327 37.5221 51.3758 28.5466C55.3678 18.15 49.5544 16.2303 67.4186 3.3156C69.6142 1.71996 73.3567 3.24081 75.6521 3.41533C81.7149 3.91397 89.0253 -1.57104 95.6869 0.448441C99.4544 1.59531 108.162 5.53453 110.857 7.52908C117.219 12.2163 120.662 19.4714 125.003 25.854C127.822 29.9927 126.65 34.7796 127.323 39.4668C131.066 65.9444 122.134 64.3737 119.963 70.482C119.215 72.5762 117.593 74.0721 115.747 75.1941C120.113 77.7621 124.953 78.2108 128.97 80.9284C135.432 85.2915 141.77 85.2416 151.001 93.1949C165.123 105.387 162.578 107.63 172.483 118.625C176.774 123.387 179.993 128.598 182.812 134.307L187.902 144.579L193.092 152.134C196.41 156.97 199.154 161.832 200.502 167.766C202.223 175.345 205.791 182.501 205.567 190.479C205.467 194.468 204.419 200.078 202.248 203.294C198.73 208.53 187.253 222.815 182.613 225.782C175.901 230.046 175.178 227.777 169.19 231.417C159.384 237.376 167.443 239.27 159.185 250.864C157.937 252.609 160.158 254.828 159.234 256.324L159.185 256.424ZM111.83 62.8279L105.043 61.1076C99.9284 59.8111 87.8027 43.8548 89.1999 31.9373C89.5243 29.2447 88.0522 26.3526 86.5552 24.9066C80.2429 18.7983 75.3527 28.7461 75.9515 22.189C76.6751 21.6405 77.7729 21.2915 78.3467 20.5186C79.0952 19.4964 77.3487 17.9506 77.4485 16.9035C77.7978 13.762 77.4984 12.1913 75.7769 9.77295C74.9785 8.67595 76.1511 6.70633 74.0803 6.50688C72.4835 6.35729 71.6352 6.23263 70.737 8.30197C69.739 10.5708 66.9945 7.7784 65.248 8.97513C62.8278 10.6456 65.9216 11.8672 64.6991 14.3853C64.0753 15.6818 62.254 14.5349 61.0813 14.5349C57.8129 14.51 59.7091 18.8232 58.6612 19.9202C54.5195 24.3581 52.4237 27.4745 55.0933 34.0815C53.9456 35.7021 50.5774 38.6939 52.9476 41.0624C53.8458 40.838 55.0185 39.6164 55.8418 39.8906C57.1642 40.3144 57.5883 41.6358 57.4137 42.5334C57.0145 44.4282 55.1183 43.7301 53.1223 43.2813C51.8498 46.5474 52.5484 51.808 55.1183 54.5505C52.5734 58.1656 53.6961 64.0745 57.4636 65.9693C58.0125 66.2436 59.0354 64.2241 59.4845 64.3487C60.1831 64.5482 61.1063 65.4707 61.1063 66.5178C61.0564 70.6565 63.0274 73.9226 64.3747 77.6623C69.2649 91.2751 81.0912 88.8817 80.5922 91.8984C80.0683 95.0149 75.2779 91.5494 73.207 91.4746C72.6332 93.1949 73.2819 96.0122 71.4605 96.7352C68.2669 96.1368 72.1092 88.7071 66.246 87.4855C63.1771 90.0036 65.3977 93.9927 67.2939 97.159C65.8717 98.3059 64.0005 97.7574 63.7011 98.63C62.1542 102.893 64.1751 118.027 47.758 122.764C44.3149 123.761 40.4727 123.986 37.4787 126.105C37.329 133.485 37.7781 140.416 36.2062 147.895L54.769 163.627C54.5195 151.76 53.1722 140.79 53.9955 129.147C54.0454 128.399 55.3428 128.573 55.6921 128.698C56.2161 128.872 56.8897 129.745 56.8398 130.742C56.3907 141.263 57.4636 151.461 57.738 162.007C57.8129 165.323 57.7131 167.567 60.3328 170.135C61.755 171.531 59.0354 174.348 59.4346 176.018C60.2829 179.609 59.2849 183.997 60.5075 187.163C62.0544 191.177 68.0673 190.254 71.211 189.806C73.4815 189.482 76.0014 189.98 78.2968 189.108C77.1741 187.687 76.6252 186.714 77.1491 185.767C77.6731 184.819 78.9206 184.271 79.6691 184.595C80.8417 185.094 81.1411 186.34 81.3657 188.16C88.177 187.013 96.9344 176.766 99.3546 170.159C98.2568 170.209 97.5083 170.434 96.9095 170.334C95.8117 170.135 95.2129 169.287 95.2378 168.29C95.2378 167.467 96.0362 166.245 97.2837 166.32C98.9554 166.445 99.2049 168.414 101.176 168.314C101.55 156.995 108.062 150.164 107.139 141.189C105.767 141.687 104.869 141.737 103.97 141.513C103.322 141.338 102.723 140.341 102.698 139.618C102.673 138.346 103.846 137.324 105.318 137.673C106.216 137.873 107.014 138.321 107.813 137.873C108.511 137.474 107.813 136.202 107.937 135.579C109.185 127.875 111.031 120.371 114.225 112.741L118.791 101.846C121.859 94.5412 121.585 86.2139 116.47 79.9561C115.248 78.4601 110.407 77.3631 108.985 78.5848C106.366 81.8758 103.696 85.9397 100.727 88.8817C99.0053 90.577 100.777 95.8875 99.13 97.2837C98.7807 97.5579 97.3336 97.7574 97.2338 96.9596L96.4354 91.2751C93.8656 92.5716 85.8566 94.965 86.9544 91.3748C87.1291 90.7765 87.8277 90.3277 88.7758 90.2778C99.3047 89.5548 102.099 82.524 107.463 75.3437C112.403 74.9198 115.921 71.7286 117.843 67.7145C118.391 66.5926 119.664 65.4457 118.192 64.6728C120.088 63.2767 120.787 61.2323 119.614 58.415C121.36 57.4925 122.658 58.1158 124.404 57.4177C125.402 51.4839 125.527 45.3507 123.282 39.6911C122.783 38.4196 120.113 36.9237 122.009 35.5525C123.506 34.4555 124.629 33.2837 124.005 31.5634C123.381 29.8431 121.286 31.1146 119.764 30.1173C118.242 29.1201 120.288 27.0507 121.535 25.829C118.117 21.0172 115.223 15.7815 110.881 11.8672C110.033 11.0943 107.139 12.69 106.615 10.8201C106.316 9.74802 105.991 8.72581 105.442 8.30197C104.669 7.67867 103.297 6.65647 102.523 7.80333C101.75 8.9502 101.276 10.0472 100.303 9.79788C95.9115 8.60115 100.602 5.5096 96.5851 4.26301C92.9923 3.14108 93.5412 9.37404 90.672 7.32963C90.0732 6.90579 89.9734 5.06083 89.2997 4.26301C85.9814 3.81424 83.0622 6.0581 79.6192 6.75619C79.0703 8.4017 79.694 10.0971 79.5194 11.7675C81.715 13.0141 83.7858 9.72308 85.4574 9.94747C88.9754 10.3962 91.6201 13.413 95.4624 11.7176C96.2857 15.0834 98.2817 16.6791 99.5292 19.4465C100.353 21.3164 97.9324 24.2833 95.9115 24.034C94.6141 23.8844 94.2897 22.6378 94.2149 22.0394C94.14 21.441 96.2358 19.9701 95.8366 19.272C93.2418 14.6097 86.3307 13.2883 81.216 14.7842C81.4405 16.2552 81.3407 17.7511 81.8397 19.2221C82.214 20.344 84.3347 20.4936 85.2329 20.0449C85.9564 19.6958 86.4305 18.5739 87.4035 17.9506C88.5762 17.2026 89.7987 18.2996 90.2728 19.3468C90.6221 20.1197 89.1999 21.2665 89.0752 22.3885C88.7758 24.8068 92.0193 26.3775 91.8696 28.6463C91.67 31.7878 92.8925 34.2061 94.7388 36.45C93.9155 37.8961 92.2189 39.2922 92.4684 40.5887C92.7428 42.0597 95.8366 42.5583 96.3606 43.6054C96.3356 47.8937 98.0073 54.3511 103.222 54.2513C104.494 54.2513 105.767 52.2069 106.74 53.5283C107.513 54.5755 106.989 55.6974 106.715 57.3429C106.39 59.1878 111.43 60.4843 111.655 58.9884C111.954 57.0686 111.48 55.7971 113.252 55.4979C113.95 55.3733 114.948 55.4979 115.597 56.4204C117.518 59.2128 111.805 58.3651 111.879 62.9027L111.83 62.8279ZM58.6113 109.45L62.4536 87.7348C62.9027 85.2416 64.8488 83.5213 62.7031 80.7289L50.5524 86.6129C39.0006 92.2225 36.2811 108.952 37.6284 122.066C45.9118 121.168 57.239 117.179 58.6113 109.45ZM161.006 194.992C165.572 196.014 165.222 181.603 165.148 179.185C165.422 178.163 167.019 177.514 167.169 176.268C165.771 175.545 162.653 174.323 161.829 175.769C161.156 176.941 160.507 192.399 161.006 194.967V194.992ZM33.6613 144.405L34.3849 127.277C28.8709 130.418 26.2512 135.38 25.0785 140.939L33.6364 144.38L33.6613 144.405ZM46.4357 197.485C48.7061 195.415 49.8039 191.277 51.1013 188.709C49.6792 187.537 48.4067 187.612 47.9327 186.116L52.8977 184.096C54.3199 180.232 57.239 175.794 57.4636 171.63C55.3678 166.943 49.9536 163.852 46.0614 160.336C39.8988 154.752 34.1853 149.117 27.0995 144.654C24.0556 143.582 20.1135 144.978 16.8201 144.554L10.383 158.043C17.1694 159.788 26.5755 156.148 30.0436 159.937C35.1583 165.522 35.2082 174.872 29.9438 180.357C27.349 183.024 23.4568 181.229 19.6394 182.725C25.5276 188.385 30.6673 194.343 37.2791 198.831C39.3749 200.177 44.7391 199.006 46.4357 197.46V197.485ZM30.7172 170.508C27.349 171.655 17.8181 171.955 17.2941 171.182C14.6494 167.392 27.6983 168.29 30.4178 169.112C31.8649 167.417 30.1683 164.375 29.0955 162.879C27.4737 160.586 24.9039 161.084 22.4338 161.109L7.31415 161.358C2.04971 166.794 1.75031 175.495 7.4888 180.681C14.4249 179.658 21.1614 180.357 27.5735 178.586C30.5675 177.764 30.9418 172.353 30.6923 170.533L30.7172 170.508ZM55.3179 187.687C57.7879 186.764 58.0624 184.321 56.6652 182.75C55.767 184.445 54.6193 185.542 55.3179 187.687ZM32.1144 241.365C32.813 240.791 33.7112 240.567 34.2601 240.766C35.1833 241.115 35.4078 241.913 34.9088 242.561C34.6094 242.935 34.1853 243.359 33.7112 243.908C32.7631 245.005 33.8859 245.703 34.335 246.301C34.9587 247.149 36.0815 246.775 36.9048 246.974C40.2731 247.772 41.3459 246.301 42.9677 243.658C50.278 231.841 41.1214 233.312 52.6233 221.644C57.4885 216.682 60.4077 191.077 56.9646 189.831C51.3508 187.786 52.3987 196.487 49.28 199.18C44.8638 202.995 37.7781 202.97 32.6384 200.277C25.7023 217.58 34.9338 213.217 30.7921 221.993C24.1304 236.104 23.6564 224.785 11.1814 246.825C9.50975 249.767 4.94391 251.412 7.0397 255.95C10.0586 253.831 11.3311 250.864 13.7762 248.72C19.4149 243.733 23.856 248.146 32.1394 241.34L32.1144 241.365ZM49.4796 234.409C51.4007 231.242 52.9476 229.397 52.3488 226.082C49.8039 228.475 48.282 231.891 49.4796 234.409ZM32.1394 247.847C31.815 247.448 30.0436 246.85 29.7941 247.797L26.2512 261.983C25.8769 263.454 28.0725 264.302 29.2202 263.754C29.844 263.454 35.333 251.936 32.1394 247.847ZM39.0006 252.484C37.6284 242.163 33.6364 260.662 33.7861 261.958C37.304 259.366 37.1793 255.701 39.0006 252.484ZM21.1614 264.003C23.9558 263.305 25.9019 252.335 26.351 248.62C25.5027 247.747 23.2322 248.894 22.7582 250.041C21.1863 253.856 15.373 265.474 21.1863 264.003H21.1614ZM19.6893 248.894C15.348 249.792 12.379 253.606 11.0317 257.246C10.4578 258.817 12.2792 260.487 13.352 260.388C17.7432 259.989 17.868 255.027 19.6893 248.894ZM90.2229 339.073C92.3686 335.532 96.3356 333.912 98.7059 330.945C100.727 328.402 100.677 323.216 104.918 322.169C106.865 321.695 110.083 319.825 112.004 320C114.474 320.199 116.595 322.443 119.439 319.701C117.418 316.26 114.474 312.695 112.678 308.506L105.692 292.076C105.168 290.879 104.02 288.386 102.299 289.782C99.8037 291.827 98.9304 295.567 96.8097 298.035C93.0173 302.448 91.3456 307.658 88.177 312.42L75.8767 330.97C79.6192 345.704 83.4365 348.896 83.4116 365.101L94.2648 367.196L90.2977 356.026C88.2518 350.217 86.4804 345.256 90.2229 339.048V339.073ZM109.185 409.655C108.761 404.843 118.092 411.699 120.961 408.358C126.949 401.452 126.55 391.18 123.207 382.953L112.004 384.498C111.48 385.645 111.954 387.989 109.834 387.939L106.715 371.384C106.341 369.365 105.991 368.343 107.114 366.348C108.062 364.653 109.784 366.622 111.655 366.124L119.739 364.029C120.687 363.78 121.211 363.256 121.011 362.633C120.886 362.184 120.038 361.187 119.315 361.761C111.231 368.018 106.44 356.5 99.155 356.849C104.07 370.537 102.748 381.731 102.748 396.316C102.748 404.269 108.861 404.095 107.089 407.959C97.7578 404.319 99.5043 388.438 100.153 379.387C100.702 371.833 98.2568 364.852 97.0093 357.846C99.3546 355.129 96.2358 352.86 94.4394 350.092C93.2418 341.092 99.2797 338.873 98.4065 336.205C98.0821 335.233 87.3287 340.868 92.5432 353.807C95.8117 361.935 98.9803 370.886 98.0073 379.711L96.4105 394.222C95.5123 402.449 100.153 410.777 108.711 413.345C110.657 413.918 112.828 412.696 114.599 412.372C112.703 410.926 110.931 410.378 109.16 409.63L109.185 409.655ZM99.8037 351.863C99.5542 348.073 98.5562 347.001 97.7827 344.882C96.2358 347.649 97.0841 351.563 99.8037 351.863ZM101.001 353.259C101.101 353.034 101.001 352.76 100.752 352.66C100.502 352.561 100.253 352.66 100.153 352.91C100.053 353.159 100.153 353.408 100.402 353.508C100.652 353.608 100.901 353.508 101.001 353.259ZM120.687 368.991C121.36 369.016 121.909 367.196 121.236 367.021C118.841 366.348 116.221 367.595 114.449 368.667L120.687 368.991ZM115.797 371.933C115.896 371.708 115.797 371.434 115.547 371.334C115.298 371.235 115.048 371.334 114.948 371.584C114.849 371.833 114.948 372.082 115.198 372.182C115.447 372.282 115.697 372.182 115.797 371.933ZM122.109 375.847C123.331 374.725 121.51 373.479 120.637 373.703C119.539 373.977 118.491 374.227 116.845 374.9C117.493 376.096 120.737 377.119 122.134 375.847H122.109ZM113.551 371.235L110.233 371.16L110.183 373.254L113.501 373.329L113.551 371.235ZM122.558 379.512C118.791 378.465 114.948 377.817 111.206 378.091C108.137 383.501 121.036 381.182 122.558 379.512ZM63.751 422.145C62.753 423.816 63.8009 425.337 64.0504 427.506C64.5244 431.246 64.8238 435.459 67.2939 439.174C70.5623 444.11 77.723 447.9 83.686 446.23C91.0462 444.16 95.2628 436.88 96.161 429.75L98.3566 412.422C98.656 409.979 97.2338 409.405 96.5352 407.486C95.7368 405.267 94.5891 402.649 94.165 400.006C92.0941 386.917 97.1091 382.055 95.0632 372.406C92.4684 371.484 87.4784 367.595 85.7069 369.44C84.3097 370.886 90.4724 372.98 91.3955 378.29C92.0442 381.955 90.7967 385.645 88.2019 387.715C85.1331 390.133 81.4405 386.443 78.6711 387.465L65.6971 392.277C65.0484 403.846 66.0713 411.175 63.7011 422.121L63.751 422.145ZM87.8776 384.399C89.3746 381.207 88.8506 378.041 87.2538 375.673C87.4285 379.712 83.162 381.158 81.8397 384.174C81.715 385.969 86.8546 386.593 87.9025 384.374L87.8776 384.399Z" fill="var(--fill-0, #226E77)"/>
<path id="Vector_14" d="M118.092 64.6483C117.643 65.5459 117.269 66.4683 116.969 67.4157C114.674 67.1166 112.653 68.1637 111.605 70.4325C111.405 70.7815 109.659 70.1333 109.709 69.6845C109.933 67.4905 111.056 65.7702 111.73 63.9751C113.925 64.2993 115.996 63.5264 118.092 64.6483Z" fill="var(--fill-0, #226E77)"/>
<path id="Vector_15" d="M130.667 206.236C130.891 204.99 130.043 203.718 129.918 202.546C129.968 201.823 130.866 201.075 130.891 200.103C130.891 199.23 130.367 198.333 129.419 197.809C130.592 195.491 129.07 192.997 128.671 190.953C128.995 186.316 130.018 181.454 128.796 177.066L134.135 171.506C134.908 170.708 134.334 169.487 133.835 169.412C131.914 169.063 131.091 172.08 129.569 170.858C130.717 168.539 129.569 167.268 128.421 166.345C128.346 164.974 128.421 163.279 127.523 162.107C128.047 161.259 127.348 159.863 127.423 159.065C127.997 152.583 127.473 146.026 126.999 139.095C120.288 135.405 116.869 137.35 111.805 135.18C109.409 117.479 130.767 99.0293 121.211 82.4746C123.082 81.8014 124.679 82.5244 126.126 83.4469C135.382 89.3558 138.027 87.5357 148.805 96.1372C161.231 106.01 162.179 113.066 171.56 123.014C175.053 126.704 176.899 130.792 179.194 135.156L186.056 148.195C188.451 152.757 192.817 156.198 194.589 161.259C208.486 201.1 201.35 197.261 186.006 218.154C181.964 223.639 176.799 224.262 171.111 226.655C157.114 232.564 149.03 246.601 137.478 237.301C141.221 235.357 150.627 237.925 150.876 235.282C151.251 231.318 139.075 235.681 135.283 232.315C136.755 230.595 153.721 233.038 149.579 229.124C147.658 227.304 136.181 230.295 132.813 226.855C134.434 224.436 146.71 225.833 148.356 224.461C149.005 223.913 148.706 222.168 147.733 222.018C143.641 221.37 139.998 223.364 135.557 222.018L144.813 214.713C131.69 211.821 133.312 222.317 128.346 222.616C127.423 222.666 126.65 220.223 127.448 219.35C130.018 216.658 132.688 214.389 134.784 210.973C138.002 205.688 143.666 213.342 156.69 207.258C161.305 205.114 162.603 201.973 164.05 197.485C164.699 195.491 167.842 194.244 167.942 191.053C168.042 187.089 168.042 182.8 169.09 178.961C169.539 177.315 171.435 176.418 170.712 175.022C168.466 170.634 162.428 173.675 162.104 170.858C160.482 157.694 154.22 154.054 150.028 141.513C149.704 140.516 148.456 140.94 148.007 141.139C147.508 141.364 146.959 142.186 147.358 143.109C153.945 158.766 159.484 160.087 158.461 175.271L157.413 190.903C157.164 194.518 159.01 199.006 157.563 202.571C154.519 206.909 147.458 207.233 142.593 206.261C133.237 204.416 135.807 210.4 130.667 206.211V206.236ZM151.6 119.723C153.496 117.628 155.068 115.385 158.311 115.26C159.309 115.21 160.208 113.066 159.185 112.742C150.352 110.174 139.25 131.166 141.969 134.582C145.263 138.696 141.844 130.593 151.625 119.723H151.6ZM168.94 221.594C176.4 226.705 164.1 197.709 162.129 205.538C165.198 210.524 166.994 215.735 168.94 221.594ZM154.744 212.893C154.294 212.145 153.271 211.871 152.648 211.796C152.174 211.746 151.6 212.245 151.45 213.068C151.849 210.799 158.137 230.495 157.688 229.622C160.307 234.459 162.054 224.86 154.744 212.893Z" fill="var(--fill-0, #F9FBFC)"/>
<path id="Vector_16" d="M151.6 119.723C141.819 130.593 145.238 138.696 141.944 134.582C139.225 131.191 150.352 110.174 159.16 112.742C160.183 113.041 159.284 115.21 158.286 115.26C155.043 115.385 153.471 117.628 151.575 119.723H151.6Z" fill="var(--fill-0, #226E77)"/>
<path id="Vector_17" d="M154.744 212.893C162.054 224.885 160.307 234.459 157.688 229.622C158.162 230.495 151.849 210.799 151.45 213.068C151.6 212.27 152.174 211.771 152.648 211.796C153.271 211.846 154.294 212.145 154.744 212.893Z" fill="var(--fill-0, #226E77)"/>
<path id="Vector_18" d="M168.94 221.594C167.019 215.735 165.198 210.549 162.129 205.538C164.1 197.709 176.375 226.705 168.94 221.594Z" fill="var(--fill-0, #226E77)"/>
<path id="Vector_19" d="M154.818 254.853C153.795 253.906 152.997 255.576 152.323 255.95C144.589 260.089 122.683 253.831 113.426 252.659C104.17 251.487 95.0632 250.366 85.8816 248.296L78.2968 246.576C69.714 244.631 61.2311 243.011 53.4716 238.672C52.0495 237.875 52.299 235.082 53.0724 233.96C55.4676 230.42 54.9936 226.655 56.1413 223.09C58.8858 214.514 63.0274 201.3 61.0564 192.598L68.0174 193.346C69.8388 193.546 71.1112 193.621 72.0094 194.817C71.6851 196.862 71.1611 199.156 72.4835 200.926C71.6352 203.244 71.3857 206.037 71.9096 208.804C72.1841 210.275 74.0803 210.076 74.8038 210.375C76.2509 210.973 77.9475 211.821 79.2449 210.574C80.5922 210.973 82.1641 211.397 83.5862 211.247C83.6611 212.544 84.4844 213.666 85.9565 213.666C87.1291 213.666 87.8277 212.245 88.5263 211.347C90.697 211.921 92.9924 211.946 95.0133 213.043C91.0213 217.655 70.5124 223.688 70.1881 228.45C70.1631 228.799 71.1362 229.473 71.4855 229.248C75.7519 226.406 80.7918 224.337 85.3826 221.868L101.899 213.092C105.916 213.815 110.557 214.688 114.374 213.242C115.447 214.214 117.069 213.417 118.192 213.516C121.835 213.915 125.402 213.043 129.02 213.167L124.779 218.203C123.107 220.198 124.454 222.392 124.878 224.162C125.427 226.531 129.12 225.06 129.843 226.531L136.281 239.77C137.703 242.687 143.391 243.385 146.485 243.21C151.799 242.911 155.642 240.119 160.083 236.977C161.031 241.415 158.611 244.382 157.064 247.798C155.991 250.191 156.49 253.083 154.893 254.903L154.818 254.853Z" fill="var(--fill-0, #F9FBFC)"/>
<path id="Vector_20" d="M32.1144 241.365C23.8311 248.172 19.39 243.734 13.7513 248.745C11.3311 250.889 10.0587 253.831 7.01479 255.975C4.94394 251.438 9.50978 249.792 11.1565 246.85C23.6315 224.81 24.1055 236.129 30.7671 222.018C34.9088 213.242 25.6774 217.605 32.6134 200.302C37.7781 203.02 44.8389 203.02 49.2551 199.205C52.3988 196.488 51.3259 187.812 56.9397 189.856C60.3828 191.103 57.4636 216.708 52.5984 221.669C41.0964 233.362 50.2531 231.866 42.9427 243.684C41.321 246.327 40.2481 247.798 36.8799 247C36.0565 246.8 34.9338 247.174 34.31 246.327C33.8609 245.728 32.7382 245.03 33.6863 243.933C34.1603 243.385 34.6094 242.961 34.8839 242.587C35.3829 241.939 35.1583 241.141 34.2352 240.792C33.6863 240.592 32.7881 240.792 32.0895 241.39L32.1144 241.365ZM44.0655 231.392C41.0465 228.949 33.6863 224.187 32.3889 225.209C29.8939 227.254 42.8679 234.309 44.0655 231.392Z" fill="var(--fill-0, #F9FBFC)"/>
<path id="Vector_21" d="M58.6113 109.451C57.2391 117.18 45.9118 121.169 37.6284 122.066C36.2811 108.952 38.9757 92.2229 50.5525 86.6133L62.7031 80.7293C64.8488 83.5466 62.8778 85.242 62.4536 87.7352L58.6113 109.451Z" fill="var(--fill-0, #F9FBFC)"/>
<path id="Vector_22" d="M32.1394 247.847C35.333 251.936 29.844 263.455 29.2203 263.754C28.0726 264.302 25.9019 263.455 26.2512 261.984L29.7941 247.798C30.0187 246.875 31.8151 247.449 32.1394 247.847Z" fill="var(--fill-0, #F9FBFC)"/>
<path id="Vector_23" d="M21.1614 264.003C15.3481 265.474 21.1614 253.856 22.7333 250.041C23.2073 248.895 25.4778 247.748 26.3261 248.62C25.877 252.335 23.9309 263.305 21.1365 264.003H21.1614Z" fill="var(--fill-0, #F9FBFC)"/>
<path id="Vector_24" d="M19.6894 248.895C17.8431 255.003 17.7183 259.964 13.3521 260.388C12.2792 260.488 10.4579 258.817 11.0317 257.247C12.379 253.607 15.3481 249.792 19.6894 248.895Z" fill="var(--fill-0, #F9FBFC)"/>
<path id="Vector_25" d="M39.0006 252.485C37.1793 255.701 37.304 259.391 33.7861 261.959C33.6364 260.662 37.6034 242.163 39.0006 252.485Z" fill="var(--fill-0, #F9FBFC)"/>
<path id="Vector_26" d="M49.4796 234.409C48.307 231.891 49.8289 228.475 52.3489 226.082C52.9477 229.398 51.4008 231.218 49.4796 234.409Z" fill="var(--fill-0, #70BC96)"/>
<path id="Vector_27" d="M55.3179 187.687C54.6193 185.543 55.7421 184.446 56.6652 182.75C58.0624 184.321 57.788 186.739 55.3179 187.687Z" fill="var(--fill-0, #70BC96)"/>
<path id="Vector_28" d="M75.9515 22.1894C75.3527 28.7465 80.2429 18.7737 86.5553 24.907C88.0523 26.353 89.5243 29.2451 89.2 31.9377C87.8028 43.8552 99.9284 59.8115 105.043 61.108L111.83 62.8283C111.83 63.1524 111.855 63.651 111.755 63.9751C111.081 65.7702 109.933 67.4905 109.734 69.6845C109.684 70.1333 111.43 70.7815 111.63 70.4325C112.678 68.1637 114.699 67.1166 116.994 67.4157C117.044 67.9393 117.368 67.9144 117.768 67.69C115.847 71.704 112.329 74.8953 107.388 75.3191C102.024 82.4995 99.2049 89.5552 88.701 90.2533C87.7778 90.3281 87.0792 90.7519 86.8796 91.3503C85.8068 94.9405 93.8157 92.547 96.3606 91.2506L97.159 96.935C97.2837 97.7578 98.7309 97.5583 99.0552 97.2591C100.702 95.863 98.9305 90.5774 100.652 88.8571C103.621 85.9152 106.291 81.8263 108.91 78.5603C110.333 77.3137 115.173 78.4356 116.395 79.9315C121.51 86.1894 121.785 94.5166 118.716 101.822L114.15 112.717C110.956 120.346 109.085 127.85 107.863 135.554C97.5582 137.025 95.2129 131.416 87.5034 133.311C85.8567 131.84 83.8357 132.438 82.1391 131.989C80.692 131.615 79.22 130.543 78.0224 132.189L74.1801 131.54C73.8557 130.394 73.1072 129.222 72.0843 128.898C70.2629 128.274 69.5643 129.895 68.9905 131.241C68.217 133.036 69.4146 148.045 69.4146 151.087C69.1901 151.81 68.0673 152.658 68.0424 153.455C67.9925 154.777 69.4396 155.425 70.1132 156.123C69.5144 157.569 69.4396 159.065 70.4625 160.187C70.712 161.035 69.8887 162.755 71.0863 163.428C68.7909 168.739 72.733 175.395 70.6122 181.853C70.3378 182.701 68.5663 183.174 68.6661 184.221C68.7909 185.842 70.1132 186.515 71.3607 186.889C71.211 187.787 71.4855 188.909 71.1861 189.831C68.0424 190.28 62.0295 191.177 60.4826 187.188C59.26 184.022 60.258 179.609 59.4097 176.044C59.0355 174.398 61.755 171.581 60.3079 170.16C57.6882 167.592 57.788 165.348 57.7131 162.032C57.4636 151.486 56.3908 141.289 56.8149 130.768C56.8648 129.77 56.1912 128.898 55.6672 128.723C55.3429 128.598 54.0455 128.449 53.9706 129.172C53.1722 140.815 54.4946 151.785 54.7441 163.653L36.1813 147.921C37.7531 140.441 37.304 133.51 37.4537 126.13C40.4477 123.986 44.29 123.762 47.7331 122.789C64.1502 118.052 62.1293 102.919 63.6762 98.6553C64.0005 97.7827 65.8468 98.3312 67.2689 97.1843C65.3977 94.018 63.1522 90.0289 66.2211 87.5108C72.0593 88.7325 68.242 96.1621 71.4356 96.7605C73.2569 96.0375 72.6332 93.2202 73.1821 91.4999C75.228 91.5747 80.0433 95.0402 80.5673 91.9237C81.0663 88.907 69.24 91.3004 64.3498 77.6877C63.0025 73.9479 61.0315 70.6818 61.0814 66.5431C61.0814 65.496 60.1582 64.5735 59.4596 64.3741C59.0105 64.2494 57.9876 66.2689 57.4387 65.9946C53.6712 64.0998 52.5485 58.2159 55.0934 54.5758C55.4427 54.0772 56.4656 53.9525 56.6652 53.2295C59.4596 55.8224 56.266 61.7811 59.2351 62.0554C59.9337 62.1302 60.8069 61.3822 60.8069 60.2354L60.9067 51.5342C60.9067 50.9857 60.9816 50.4372 61.1812 49.9635C61.3309 49.5895 62.2041 49.9635 62.6283 50.0382C62.1043 51.0605 63.4017 51.2848 63.6762 50.2876C67.2689 41.6861 67.6681 31.9128 74.0304 24.0094C74.3797 23.5856 74.1801 22.8376 74.1801 22.5634C74.1801 22.2143 73.8058 21.9401 73.3817 21.965L74.2799 20.3943C74.9535 19.1976 74.8537 21.4913 75.9515 22.1894ZM92.194 64.399C95.163 63.9003 95.6371 58.0414 92.9924 57.069C90.8716 56.2961 90.2978 59.263 89.9734 60.4099C89.6491 61.5568 89.9734 64.773 92.194 64.399ZM78.6461 70.8065C77.9725 68.3133 75.7519 67.9642 75.4525 66.0196C76.8996 62.3795 78.5463 58.5151 76.2759 54.7504C73.4815 57.1688 74.8288 60.2603 73.3068 62.9529C72.1342 65.0472 71.4855 67.2163 72.9825 68.7122C74.3547 70.0834 76.0763 71.9783 78.6461 70.8065ZM69.0154 61.6814C71.3108 61.831 72.0094 55.3986 69.4895 54.9498C66.72 54.4263 65.4476 61.457 69.0154 61.6814ZM106.091 100.425C106.64 101.473 108.96 99.7523 108.811 99.9518C116.046 91.2256 112.728 77.7126 110.033 80.4302C109.459 81.0036 109.434 82.0009 109.559 82.9483C111.705 98.0071 104.544 97.4835 106.091 100.45V100.425ZM81.8647 85.616C82.1142 85.6908 82.8876 85.616 83.2369 85.1173C85.4824 81.8762 83.6611 76.8649 79.8437 75.4189C78.721 74.995 77.8228 75.2942 77.6731 75.9424C77.5982 76.2915 77.199 77.0644 77.8727 77.3885C83.0373 79.7071 80.1431 85.1672 81.8647 85.616ZM69.4645 104.24C80.218 110.224 95.7868 111.994 104.918 103.941C101.376 98.9296 102.299 107.83 84.21 105.935C78.197 105.312 72.234 103.592 68.3667 98.6803C67.0444 99.3285 66.6452 101.074 67.2939 101.597C67.8677 102.071 68.242 103.517 69.4645 104.215V104.24Z" fill="var(--fill-0, #F9FBFC)"/>
<path id="Vector_29" d="M73.3817 21.965C73.8058 21.9401 74.1801 22.2143 74.1801 22.5634C74.1801 22.8376 74.3797 23.5856 74.0304 24.0094C67.6681 31.9128 67.2939 41.6861 63.6762 50.2876L62.6283 50.0383C62.2291 49.9385 61.3558 49.5895 61.1812 49.9635C60.9816 50.4372 60.9067 50.9857 60.9067 51.5342L60.8069 60.2354C60.8069 61.3822 59.9337 62.1302 59.2351 62.0554C56.266 61.7812 59.4596 55.8224 56.6652 53.2295C52.8229 49.6393 62.6033 43.0075 62.0544 43.7056C65.3728 39.3425 65.4227 33.3838 66.0214 28.5221C71.8098 25.5303 69.2899 21.591 73.3567 21.9899L73.3817 21.965Z" fill="var(--fill-0, #226E77)"/>
<path id="Vector_30" d="M69.4645 104.24C68.217 103.542 67.8677 102.096 67.2939 101.622C66.6701 101.099 67.0693 99.3534 68.3667 98.7052C72.209 103.592 78.197 105.337 84.21 105.96C102.299 107.83 101.376 98.9545 104.918 103.966C95.7868 112.019 80.2429 110.224 69.4645 104.265V104.24Z" fill="var(--fill-0, #226E77)"/>
<path id="Vector_31" d="M106.091 100.425C104.544 97.4586 111.705 97.9822 109.559 82.9233C109.434 81.9759 109.459 81.0036 110.033 80.4052C112.728 77.6877 116.071 91.2007 108.811 99.9269C108.985 99.7274 106.64 101.448 106.091 100.401V100.425Z" fill="var(--fill-0, #226E77)"/>
<path id="Vector_32" d="M78.6461 70.8065C76.0763 71.9783 74.3547 70.1084 72.9825 68.7122C71.4855 67.2163 72.1342 65.0223 73.3068 62.9529C74.8288 60.2603 73.4565 57.1688 76.2759 54.7504C78.5713 58.54 76.8996 62.4044 75.4525 66.0196C75.7519 67.9642 77.9725 68.2884 78.6461 70.8065Z" fill="var(--fill-0, #226E77)"/>
<path id="Vector_33" d="M81.8647 85.616C80.1431 85.1672 83.0373 79.7071 77.8727 77.3885C77.199 77.0893 77.5982 76.2915 77.6731 75.9424C77.8228 75.2942 78.721 74.995 79.8437 75.4189C83.6611 76.8649 85.4824 81.8762 83.2369 85.1173C82.9126 85.591 82.1142 85.6658 81.8647 85.616Z" fill="var(--fill-0, #226E77)"/>
<path id="Vector_34" d="M92.194 64.399C89.9734 64.773 89.674 61.5318 89.9734 60.4099C90.2728 59.288 90.8716 56.2961 92.9924 57.069C95.6121 58.0414 95.1381 63.9004 92.194 64.399Z" fill="var(--fill-0, #226E77)"/>
<path id="Vector_35" d="M69.0154 61.6814C65.4226 61.457 66.72 54.4263 69.4895 54.9498C72.0344 55.4235 71.3108 61.831 69.0154 61.6814Z" fill="var(--fill-0, #226E77)"/>
<path id="Vector_36" d="M62.6532 50.0382L63.7011 50.2876C63.4516 51.2848 62.1293 51.0605 62.6532 50.0382Z" fill="var(--fill-0, #70BC96)"/>
<path id="Vector_37" d="M44.0655 231.392C42.8679 234.334 29.8939 227.254 32.3889 225.209C33.6613 224.162 41.0465 228.949 44.0655 231.392Z" fill="var(--fill-0, #226E77)"/>
<path id="Vector_38" d="M127.423 159.065C126.45 158.641 125.228 158.591 124.429 159.464C123.756 160.187 123.731 161.533 124.679 162.456C125.328 163.079 126.8 162.655 127.548 162.107C128.421 163.279 128.371 164.999 128.446 166.345C127.698 166.969 125.602 167.966 126.301 169.312C126.999 170.658 128.546 171.78 127.748 173.152C127.249 173.999 125.627 175.994 124.554 174.922C123.406 173.775 123.007 172.478 121.835 172.977C120.662 173.476 120.338 174.049 120.063 174.897C119.739 175.944 121.136 176.542 121.41 177.59C121.934 179.584 118.99 180.482 117.294 179.609C116.021 178.961 115.023 179.085 114.649 179.684C113.277 181.778 115.472 183.548 113.801 184.67C111.38 186.316 109.534 184.496 108.312 185.942C107.838 186.54 108.162 188.285 107.538 188.909C105.667 190.754 90.9215 199.879 97.1341 201.3C99.1799 201.773 100.203 199.205 102.374 200.228C104.544 201.25 104.17 203.893 106.415 203.568C107.089 203.469 107.638 202.646 109.509 203.269C108.312 205.214 105.193 208.156 102.498 207.233C101.351 206.835 100.777 205.339 99.7538 205.713C98.8057 206.062 98.132 206.585 98.0572 207.682C98.0073 208.355 98.9055 209.004 99.155 209.801C99.9285 212.369 96.0862 212.145 94.9884 213.018C92.9924 211.921 90.672 211.896 88.5014 211.322C87.6531 211.098 87.0543 209.602 86.0812 209.502C84.7339 209.378 84.21 210.549 83.5862 211.223C82.1641 211.372 80.5922 210.948 79.2449 210.549C79.5194 209.777 79.6441 208.879 79.22 208.231C78.5962 207.283 77.224 206.785 76.2509 207.732C75.4276 208.555 75.203 209.602 74.8038 210.375C74.0553 210.076 72.1841 210.275 71.9096 208.804C71.3857 206.037 71.6352 203.244 72.4835 200.926C72.5833 201.05 75.5773 204.69 76.5753 202.671C77.0992 201.599 77.8477 199.804 76.5004 199.53C75.2529 199.255 74.205 198.906 72.4835 200.951C71.1611 199.18 71.6851 196.887 72.0094 194.842C71.6102 196.413 79.7938 189.258 79.3697 193.895C79.2449 195.266 79.4196 196.637 80.4176 197.136C81.5653 197.685 82.713 196.687 83.2369 196.039C84.3597 194.593 81.715 193.396 81.2659 192.449C81.3657 189.158 86.7299 191.576 87.9026 190.18L93.3666 183.773C95.7618 180.955 97.8077 178.587 101.4 177.789C101.4 175.969 100.328 170.808 103.546 171.282C104.469 171.406 105.343 173.401 106.59 172.503C107.214 172.03 107.962 171.706 107.738 170.534C107.463 169.187 106.116 168.789 104.145 168.863C104.145 165.697 104.295 160.511 107.064 157.943C107.713 157.345 109.908 158.791 110.407 158.217C111.081 157.42 111.954 156.148 111.056 155.35C110.258 154.652 109.16 154.328 107.713 154.528C108.536 150.713 109.235 146.749 110.832 142.76C112.054 143.582 113.102 144.38 114 144.131C115.173 143.807 115.672 142.61 115.397 141.563C114.624 138.796 110.981 141.912 111.031 137.798C111.031 136.976 111.805 135.978 111.904 135.23C116.969 137.424 120.387 135.48 127.099 139.145C127.573 146.101 128.097 152.633 127.523 159.115L127.423 159.065ZM123.406 145.004C123.855 143.907 123.332 142.685 122.234 142.236C121.136 141.787 119.913 142.311 119.464 143.408C119.015 144.505 119.539 145.727 120.637 146.175C121.735 146.624 122.957 146.101 123.406 145.004ZM125.702 153.206C126.126 152.159 125.627 150.937 124.554 150.514C123.481 150.09 122.284 150.588 121.859 151.66C121.435 152.732 121.934 153.929 123.007 154.353C124.08 154.777 125.278 154.278 125.702 153.206ZM117.393 151.012C117.843 149.94 117.319 148.694 116.246 148.27C115.173 147.846 113.925 148.344 113.501 149.417C113.077 150.489 113.576 151.735 114.649 152.159C115.722 152.583 116.969 152.084 117.393 151.012ZM119.539 159.314C119.963 158.242 119.464 157.021 118.391 156.597C117.319 156.173 116.096 156.672 115.672 157.744C115.248 158.816 115.747 160.037 116.82 160.461C117.892 160.885 119.115 160.387 119.539 159.314ZM121.785 167.642C122.209 166.595 121.71 165.398 120.662 164.949C119.614 164.5 118.391 165.024 117.967 166.071C117.543 167.118 118.042 168.315 119.09 168.764C120.138 169.212 121.36 168.689 121.785 167.642ZM113.576 165.298C114.025 164.226 113.501 163.004 112.428 162.556C111.356 162.107 110.133 162.63 109.684 163.702C109.235 164.775 109.759 165.996 110.832 166.445C111.904 166.894 113.127 166.37 113.576 165.298ZM115.772 173.625C116.196 172.553 115.697 171.357 114.624 170.933C113.551 170.509 112.354 171.008 111.904 172.08C111.455 173.152 111.979 174.348 113.052 174.772C114.125 175.196 115.323 174.697 115.772 173.625ZM109.634 179.808C110.058 178.736 109.559 177.54 108.486 177.091C107.413 176.642 106.216 177.166 105.767 178.238C105.318 179.31 105.842 180.507 106.914 180.955C107.987 181.404 109.185 180.881 109.634 179.808ZM103.721 185.842C104.17 184.745 103.646 183.498 102.548 183.05C101.45 182.601 100.203 183.124 99.7538 184.221C99.3047 185.318 99.8286 186.565 100.926 187.014C102.024 187.463 103.272 186.939 103.721 185.842ZM97.5582 191.95C98.0073 190.853 97.4834 189.632 96.3856 189.183C95.2878 188.734 94.0652 189.258 93.6161 190.355C93.167 191.452 93.691 192.673 94.7888 193.122C95.8866 193.571 97.1091 193.047 97.5582 191.95ZM91.4704 198.009C91.8946 196.937 91.3956 195.715 90.3227 195.291C89.2499 194.867 88.0273 195.366 87.6032 196.438C87.179 197.51 87.678 198.732 88.7509 199.156C89.8237 199.579 91.0463 199.081 91.4704 198.009ZM93.6411 206.211C94.0652 205.139 93.5662 203.942 92.4934 203.494C91.4205 203.045 90.2229 203.568 89.7738 204.641C89.3247 205.713 89.8487 206.909 90.9215 207.358C91.9944 207.807 93.192 207.283 93.6411 206.211ZM85.4325 204.067C85.8567 202.995 85.3577 201.773 84.2848 201.35C83.212 200.926 81.9894 201.424 81.5653 202.496C81.1411 203.568 81.6401 204.79 82.713 205.214C83.7858 205.638 85.0084 205.139 85.4325 204.067Z" fill="var(--fill-0, #E4D66D)"/>
<path id="Vector_39" d="M71.1611 189.806C71.4605 188.884 71.1861 187.762 71.3358 186.864C71.7849 186.116 72.8827 185.468 72.7579 184.446C72.6332 183.199 71.5354 182.426 70.5873 181.828C72.6831 175.371 68.741 168.689 71.0613 163.403C71.9595 163.777 73.5813 163.777 74.0553 163.054C74.9785 161.608 74.2799 160.387 73.0324 160.087C72.234 159.913 71.3358 159.838 70.4376 160.162C69.3897 159.04 69.4895 157.519 70.0883 156.098C71.1362 155.45 72.4086 154.278 72.0344 153.082C71.6601 151.885 70.3128 151.486 69.3897 151.087C69.3897 148.02 68.217 133.036 68.9655 131.241C69.8138 131.865 70.6621 132.787 71.8597 132.812C72.733 132.812 73.5314 132.139 74.1801 131.565L78.0224 132.214C77.8228 133.036 77.723 134.433 78.5463 134.856C79.4944 135.38 80.692 135.131 81.4655 134.532C82.1391 134.009 82.3387 132.962 82.1641 132.014C83.8607 132.463 85.8816 131.889 87.5283 133.336C86.4555 133.759 85.9066 134.981 86.3307 136.053C86.7549 137.125 87.9774 137.674 89.0503 137.25C90.1231 136.826 90.672 135.604 90.2479 134.532C89.8237 133.46 88.6012 132.912 87.5283 133.336C95.2379 131.441 97.5832 137.05 107.887 135.579C107.788 136.228 108.461 137.499 107.763 137.873C106.964 138.322 106.166 137.873 105.268 137.674C103.821 137.35 102.623 138.347 102.648 139.618C102.648 140.341 103.272 141.339 103.92 141.513C104.819 141.738 105.717 141.688 107.089 141.189C108.037 150.164 101.5 156.996 101.126 168.315C99.155 168.415 98.9055 166.445 97.2339 166.32C95.9864 166.221 95.188 167.442 95.188 168.29C95.188 169.287 95.7618 170.135 96.8596 170.334C97.4584 170.434 98.2069 170.21 99.3047 170.16C96.8845 176.767 88.1271 187.014 81.3158 188.161C81.0912 186.341 80.7918 185.094 79.6192 184.595C78.8707 184.271 77.5982 184.845 77.0992 185.767C76.6002 186.69 77.0992 187.687 78.2469 189.108C75.9515 189.956 73.4316 189.482 71.1611 189.806ZM98.6061 138.197C99.0552 137.125 98.5313 135.903 97.4584 135.455C96.3856 135.006 95.163 135.53 94.7139 136.602C94.2648 137.674 94.7887 138.895 95.8616 139.344C96.9344 139.793 98.157 139.269 98.6061 138.197ZM100.727 146.475C101.151 145.427 100.652 144.206 99.6041 143.782C98.5562 143.358 97.3336 143.857 96.9095 144.904C96.4854 145.951 96.9844 147.173 98.0323 147.597C99.0801 148.02 100.303 147.522 100.727 146.475ZM92.4684 144.38C92.8926 143.308 92.3936 142.087 91.3207 141.663C90.2479 141.239 89.0253 141.738 88.6012 142.81C88.177 143.882 88.676 145.103 89.7489 145.527C90.8217 145.951 92.0443 145.452 92.4684 144.38ZM84.1351 142.136C84.5593 141.064 84.0603 139.843 82.9874 139.419C81.9146 138.995 80.692 139.494 80.2679 140.566C79.8437 141.638 80.3427 142.859 81.4156 143.283C82.4884 143.707 83.711 143.209 84.1351 142.136ZM75.9515 139.918C76.4006 138.845 75.8767 137.624 74.8038 137.175C73.731 136.726 72.5084 137.25 72.0593 138.322C71.6102 139.394 72.1342 140.616 73.207 141.064C74.2799 141.513 75.5024 140.99 75.9515 139.918ZM102.972 154.976C103.396 153.904 102.897 152.708 101.825 152.259C100.752 151.81 99.5542 152.334 99.1051 153.406C98.656 154.478 99.1799 155.674 100.253 156.123C101.326 156.572 102.523 156.048 102.972 154.976ZM94.7389 152.807C95.188 151.735 94.664 150.489 93.5912 150.065C92.5183 149.641 91.2708 150.14 90.8467 151.212C90.4225 152.284 90.9215 153.53 91.9944 153.954C93.0672 154.378 94.3147 153.879 94.7389 152.807ZM86.3806 150.414C86.8048 149.342 86.3058 148.12 85.2329 147.696C84.1601 147.272 82.9375 147.771 82.5134 148.843C82.0892 149.915 82.5882 151.137 83.6611 151.561C84.7339 151.985 85.9565 151.486 86.3806 150.414ZM78.1471 148.295C78.5962 147.198 78.0723 145.976 76.9745 145.527C75.8767 145.078 74.6541 145.602 74.205 146.699C73.7559 147.796 74.2799 149.018 75.3777 149.466C76.4755 149.915 77.698 149.392 78.1471 148.295ZM96.8846 160.985C97.3087 159.938 96.8097 158.741 95.7618 158.317C94.7139 157.893 93.5163 158.392 93.0922 159.439C92.668 160.486 93.167 161.683 94.2149 162.107C95.2628 162.531 96.4604 162.032 96.8846 160.985ZM88.6511 158.766C89.0752 157.719 88.5762 156.522 87.5283 156.098C86.4804 155.674 85.2828 156.173 84.8587 157.22C84.4345 158.267 84.9335 159.464 85.9814 159.888C87.0293 160.312 88.2269 159.813 88.6511 158.766ZM80.2679 156.447C80.692 155.375 80.193 154.179 79.1202 153.73C78.0473 153.281 76.8497 153.805 76.4006 154.877C75.9515 155.949 76.4755 157.145 77.5483 157.594C78.6212 158.043 79.8188 157.519 80.2679 156.447ZM90.9215 166.993C91.3706 165.896 90.8467 164.675 89.7489 164.226C88.6511 163.777 87.4285 164.301 86.9794 165.398C86.5303 166.495 87.0543 167.717 88.1521 168.165C89.2499 168.614 90.4724 168.09 90.9215 166.993ZM82.5134 164.799C82.9625 163.727 82.4385 162.481 81.3407 162.032C80.2429 161.583 79.0204 162.107 78.5713 163.204C78.1222 164.301 78.6461 165.523 79.7439 165.971C80.8417 166.42 82.0643 165.896 82.5134 164.799ZM93.0672 175.321C93.4914 174.274 92.9924 173.052 91.9195 172.628C90.8467 172.204 89.6491 172.703 89.2249 173.775C88.8008 174.847 89.2998 176.044 90.3726 176.468C91.4455 176.891 92.6431 176.393 93.0672 175.321ZM84.8337 173.127C85.2828 172.055 84.7589 170.833 83.686 170.384C82.6132 169.935 81.3906 170.459 80.9415 171.531C80.4924 172.603 81.0164 173.825 82.0892 174.274C83.1621 174.722 84.3846 174.199 84.8337 173.127ZM76.5753 170.883C77.0244 169.811 76.5004 168.564 75.4026 168.115C74.3048 167.667 73.0823 168.19 72.6332 169.287C72.1841 170.384 72.708 171.606 73.8058 172.055C74.9036 172.503 76.1262 171.98 76.5753 170.883ZM78.696 179.16C79.1451 178.088 78.6212 176.866 77.5483 176.418C76.4755 175.969 75.2529 176.492 74.8038 177.565C74.3547 178.637 74.8787 179.858 75.9515 180.307C77.0244 180.756 78.2469 180.232 78.696 179.16ZM87.0543 181.329C87.4784 180.257 86.9794 179.06 85.9066 178.637C84.8337 178.213 83.6361 178.711 83.212 179.784C82.7878 180.856 83.2868 182.052 84.3597 182.476C85.4325 182.9 86.6301 182.401 87.0543 181.329Z" fill="var(--fill-0, #E4D66D)"/>
<path id="Vector_40" d="M128.646 190.953C128.272 189.856 127.074 189.258 125.976 189.632C124.878 190.006 124.28 191.202 124.654 192.299C125.028 193.396 126.226 193.995 127.324 193.621C128.421 193.247 129.02 192.05 128.646 190.953C129.045 192.997 130.592 195.491 129.394 197.809C128.322 197.784 127.224 198.233 126.825 199.18C126.375 200.203 126.899 201.05 127.498 201.474C128.247 202.023 129.095 202.247 129.918 202.546C130.043 203.718 130.891 204.99 130.667 206.236C129.369 213.466 132.538 208.904 128.97 213.142C125.328 213.018 121.785 213.865 118.142 213.491C118.541 212.694 118.915 211.547 118.242 210.898C117.618 210.275 116.096 209.577 115.422 210.549C114.674 211.597 114.624 212.544 114.3 213.217C110.482 214.663 105.842 213.791 101.825 213.068C103.671 212.07 105.043 208.904 108.187 211.721C108.586 212.095 109.559 211.896 109.809 211.621C111.53 209.826 108.511 207.857 110.432 206.635C112.728 205.164 115.323 206.336 116.096 205.438C116.869 204.541 116.545 203.519 116.346 202.845C116.271 202.621 104.869 198.133 101.6 197.111L119.265 183.498C119.913 183 119.913 181.628 120.762 181.653C122.608 181.728 121.835 186.041 124.579 185.443C125.876 185.144 126.001 184.246 126.276 183.548C126.75 182.327 124.953 181.828 124.454 180.955C123.681 178.587 127.548 177.963 128.821 177.116C130.043 181.504 129.02 186.366 128.696 191.003L128.646 190.953ZM120.213 190.28C120.637 189.233 120.138 188.061 119.09 187.637C118.042 187.213 116.869 187.712 116.445 188.759C116.021 189.806 116.52 190.978 117.568 191.402C118.616 191.826 119.789 191.327 120.213 190.28ZM122.383 198.557C122.808 197.485 122.309 196.288 121.236 195.84C120.163 195.391 118.965 195.914 118.516 196.986C118.067 198.059 118.591 199.255 119.664 199.704C120.737 200.153 121.934 199.629 122.383 198.557ZM114.15 196.338C114.574 195.291 114.075 194.094 113.027 193.646C111.979 193.197 110.782 193.72 110.333 194.768C109.883 195.815 110.407 197.011 111.455 197.46C112.503 197.909 113.701 197.385 114.15 196.338ZM124.604 206.81C125.028 205.762 124.529 204.591 123.481 204.167C122.433 203.743 121.261 204.242 120.837 205.289C120.412 206.336 120.911 207.508 121.959 207.932C123.007 208.355 124.18 207.857 124.604 206.81Z" fill="var(--fill-0, #E4D66D)"/>
<path id="Vector_41" d="M128.796 177.066C127.523 177.914 123.656 178.537 124.429 180.905C124.953 181.778 126.75 182.277 126.251 183.498C125.976 184.221 125.827 185.119 124.554 185.393C121.81 186.016 122.583 181.678 120.737 181.604C119.913 181.579 119.888 182.975 119.24 183.448L101.575 197.061C104.844 198.083 116.271 202.596 116.321 202.796C116.52 203.469 116.845 204.466 116.071 205.389C115.298 206.311 112.703 205.114 110.407 206.585C108.511 207.807 111.505 209.777 109.784 211.572C109.534 211.846 108.561 212.02 108.162 211.671C105.043 208.854 103.671 212.02 101.8 213.018L85.2828 221.794C80.692 224.237 75.6521 226.306 71.3857 229.173C71.0364 229.398 70.0633 228.725 70.0883 228.376C70.4376 223.639 90.9215 217.605 94.9135 212.968C96.0113 212.12 99.8536 212.32 99.0802 209.752C98.8307 208.954 97.9574 208.281 97.9824 207.632C98.0572 206.535 98.7059 206.037 99.679 205.663C100.702 205.264 101.276 206.785 102.423 207.184C105.118 208.106 108.237 205.164 109.434 203.219C107.563 202.596 107.014 203.419 106.341 203.519C104.07 203.868 104.494 201.225 102.299 200.178C100.103 199.131 99.1051 201.724 97.0592 201.25C90.8467 199.829 105.592 190.704 107.463 188.859C108.087 188.235 107.763 186.49 108.237 185.892C109.459 184.421 111.306 186.241 113.726 184.62C115.397 183.498 113.177 181.728 114.574 179.634C114.973 179.06 115.971 178.936 117.219 179.559C118.915 180.407 121.859 179.509 121.336 177.54C121.061 176.493 119.664 175.919 119.988 174.847C120.238 173.999 120.587 173.426 121.76 172.927C122.932 172.429 123.332 173.725 124.479 174.872C125.552 175.944 127.149 173.949 127.673 173.102C128.496 171.731 126.924 170.609 126.226 169.262C125.527 167.916 127.623 166.919 128.371 166.295C129.519 167.218 130.667 168.489 129.519 170.808C131.041 172.055 131.864 169.038 133.786 169.362C134.285 169.462 134.858 170.658 134.085 171.456L128.746 177.016L128.796 177.066Z" fill="var(--fill-0, #226E77)"/>
<path id="Vector_42" d="M79.22 210.549C77.9226 211.796 76.226 210.948 74.7789 210.35C75.1781 209.602 75.3777 208.53 76.226 207.707C77.199 206.76 78.5962 207.258 79.195 208.206C79.6192 208.854 79.4944 209.752 79.22 210.524V210.549Z" fill="var(--fill-0, #226E77)"/>
<path id="Vector_43" d="M88.5014 211.297C87.8028 212.195 87.1042 213.591 85.9315 213.616C84.4595 213.616 83.6361 212.494 83.5613 211.198C84.185 210.524 84.7339 209.353 86.0563 209.477C87.0543 209.577 87.6281 211.073 88.4764 211.297H88.5014Z" fill="var(--fill-0, #226E77)"/>
<path id="Vector_44" d="M118.117 213.491C116.994 213.367 115.372 214.165 114.3 213.217C114.624 212.544 114.674 211.597 115.422 210.549C116.096 209.577 117.593 210.3 118.242 210.898C118.915 211.547 118.541 212.694 118.142 213.491H118.117Z" fill="var(--fill-0, #226E77)"/>
<path id="Vector_45" d="M129.918 202.546C129.095 202.247 128.272 202.023 127.498 201.474C126.899 201.05 126.375 200.203 126.825 199.18C127.249 198.233 128.346 197.784 129.394 197.809C130.342 198.333 130.866 199.23 130.866 200.103C130.866 201.075 129.968 201.823 129.893 202.546H129.918Z" fill="var(--fill-0, #226E77)"/>
<path id="Vector_46" d="M127.423 159.065C127.348 159.863 128.047 161.259 127.523 162.107C126.775 162.655 125.303 163.079 124.654 162.456C123.706 161.533 123.731 160.187 124.404 159.464C125.228 158.591 126.425 158.641 127.398 159.065H127.423Z" fill="var(--fill-0, #226E77)"/>
<path id="Vector_47" d="M74.1801 131.515C73.5314 132.089 72.733 132.787 71.8597 132.762C70.6871 132.762 69.8138 131.815 68.9655 131.191C69.5394 129.87 70.238 128.249 72.0593 128.848C73.0823 129.197 73.8308 130.344 74.1551 131.491L74.1801 131.515Z" fill="var(--fill-0, #226E77)"/>
<path id="Vector_48" d="M70.0883 156.073C69.4396 155.4 67.9925 154.727 68.0174 153.406C68.0174 152.608 69.1651 151.76 69.3897 151.037C70.3128 151.436 71.6352 151.835 72.0344 153.032C72.4336 154.228 71.1362 155.425 70.0883 156.048V156.073Z" fill="var(--fill-0, #226E77)"/>
<path id="Vector_49" d="M71.3358 186.864C70.0883 186.49 68.7659 185.817 68.6412 184.196C68.5663 183.149 70.3128 182.651 70.5873 181.828C71.5354 182.426 72.6332 183.199 72.7579 184.446C72.8577 185.468 71.7849 186.116 71.3358 186.864Z" fill="var(--fill-0, #226E77)"/>
<path id="Vector_50" d="M82.1391 131.989C82.3138 132.937 82.1391 133.984 81.4405 134.507C80.6671 135.106 79.4695 135.355 78.5214 134.831C77.698 134.383 77.7978 132.986 77.9974 132.189C79.195 130.568 80.692 131.615 82.1142 131.989H82.1391Z" fill="var(--fill-0, #226E77)"/>
<path id="Vector_51" d="M71.0613 163.403C69.8637 162.73 70.6871 161.01 70.4376 160.162C71.3358 159.838 72.234 159.913 73.0324 160.087C74.2799 160.387 74.9785 161.608 74.0553 163.054C73.5813 163.777 71.9845 163.777 71.0613 163.403Z" fill="var(--fill-0, #226E77)"/>
<path id="Vector_52" d="M117.388 151.018C117.825 149.947 117.31 148.725 116.238 148.288C115.166 147.852 113.943 148.367 113.507 149.438C113.07 150.509 113.585 151.731 114.657 152.168C115.729 152.604 116.952 152.089 117.388 151.018Z" fill="var(--fill-0, #226E77)"/>
<path id="Vector_53" d="M97.5475 191.981C97.9893 190.897 97.4681 189.661 96.3833 189.219C95.2986 188.778 94.0611 189.298 93.6193 190.382C93.1775 191.466 93.6987 192.703 94.7835 193.144C95.8682 193.586 97.1057 193.065 97.5475 191.981Z" fill="var(--fill-0, #226E77)"/>
<path id="Vector_54" d="M91.5039 198.034C91.9404 196.963 91.4254 195.741 90.3534 195.305C89.2814 194.868 88.0585 195.383 87.6219 196.454C87.1853 197.525 87.7004 198.747 88.7723 199.184C89.8443 199.62 91.0673 199.105 91.5039 198.034Z" fill="var(--fill-0, #226E77)"/>
<path id="Vector_55" d="M113.555 165.301C113.991 164.23 113.476 163.008 112.404 162.572C111.332 162.136 110.109 162.65 109.673 163.722C109.236 164.793 109.751 166.015 110.823 166.451C111.895 166.887 113.118 166.373 113.555 165.301Z" fill="var(--fill-0, #226E77)"/>
<path id="Vector_56" d="M93.6393 206.24C94.0707 205.182 93.5617 203.974 92.5025 203.543C91.4433 203.112 90.2349 203.621 89.8035 204.679C89.3721 205.738 89.8811 206.945 90.9403 207.376C91.9995 207.807 93.2079 207.299 93.6393 206.24Z" fill="var(--fill-0, #226E77)"/>
<path id="Vector_57" d="M85.4277 204.101C85.8643 203.03 85.3492 201.808 84.2772 201.371C83.2053 200.935 81.9823 201.45 81.5457 202.521C81.1091 203.592 81.6242 204.814 82.6962 205.25C83.7682 205.687 84.9911 205.172 85.4277 204.101Z" fill="var(--fill-0, #226E77)"/>
<path id="Vector_58" d="M119.563 159.355C119.999 158.284 119.484 157.062 118.412 156.626C117.34 156.19 116.117 156.704 115.681 157.775C115.244 158.847 115.759 160.069 116.831 160.505C117.903 160.941 119.126 160.427 119.563 159.355Z" fill="var(--fill-0, #226E77)"/>
<path id="Vector_59" d="M103.74 185.878C104.187 184.781 103.659 183.53 102.562 183.083C101.464 182.637 100.212 183.164 99.7654 184.26C99.3184 185.357 99.8458 186.608 100.943 187.055C102.041 187.502 103.293 186.975 103.74 185.878Z" fill="var(--fill-0, #226E77)"/>
<path id="Vector_60" d="M72.4336 200.901C74.1551 198.881 75.203 199.23 76.4505 199.48C77.7978 199.779 77.0743 201.549 76.5254 202.621C75.5274 204.641 72.5334 201.001 72.4336 200.876V200.901Z" fill="var(--fill-0, #226E77)"/>
<path id="Vector_61" d="M115.75 173.633C116.181 172.575 115.672 171.367 114.613 170.936C113.554 170.505 112.345 171.014 111.914 172.072C111.482 173.131 111.991 174.338 113.051 174.769C114.11 175.2 115.318 174.692 115.75 173.633Z" fill="var(--fill-0, #226E77)"/>
<path id="Vector_62" d="M123.417 145.016C123.859 143.932 123.338 142.696 122.253 142.254C121.168 141.813 119.931 142.334 119.489 143.417C119.047 144.501 119.568 145.738 120.653 146.18C121.738 146.621 122.975 146.1 123.417 145.016Z" fill="var(--fill-0, #226E77)"/>
<path id="Vector_63" d="M125.718 153.235C126.15 152.177 125.641 150.969 124.582 150.538C123.522 150.107 122.314 150.616 121.883 151.674C121.451 152.733 121.96 153.94 123.019 154.371C124.079 154.802 125.287 154.294 125.718 153.235Z" fill="var(--fill-0, #226E77)"/>
<path id="Vector_64" d="M121.811 167.668C122.242 166.609 121.733 165.402 120.674 164.971C119.615 164.54 118.406 165.048 117.975 166.107C117.544 167.165 118.053 168.373 119.112 168.804C120.171 169.235 121.379 168.726 121.811 167.668Z" fill="var(--fill-0, #226E77)"/>
<path id="Vector_65" d="M109.632 179.835C110.064 178.777 109.555 177.569 108.496 177.138C107.436 176.707 106.228 177.215 105.797 178.274C105.365 179.332 105.874 180.54 106.933 180.971C107.993 181.402 109.201 180.893 109.632 179.835Z" fill="var(--fill-0, #226E77)"/>
<path id="Vector_66" d="M78.69 179.175C79.1266 178.104 78.6115 176.882 77.5395 176.445C76.4675 176.009 75.2446 176.524 74.808 177.595C74.3714 178.666 74.8865 179.888 75.9584 180.325C77.0304 180.761 78.2534 180.246 78.69 179.175Z" fill="var(--fill-0, #226E77)"/>
<path id="Vector_67" d="M92.4687 144.385C92.9053 143.314 92.3902 142.091 91.3182 141.655C90.2462 141.219 89.0233 141.734 88.5867 142.805C88.1501 143.876 88.6652 145.098 89.7372 145.534C90.8091 145.971 92.0321 145.456 92.4687 144.385Z" fill="var(--fill-0, #226E77)"/>
<path id="Vector_68" d="M78.1353 148.293C78.5771 147.209 78.0559 145.972 76.9712 145.531C75.8864 145.089 74.6489 145.61 74.2071 146.694C73.7653 147.778 74.2866 149.015 75.3713 149.456C76.456 149.897 77.6935 149.377 78.1353 148.293Z" fill="var(--fill-0, #226E77)"/>
<path id="Vector_69" d="M98.6072 138.227C99.0438 137.155 98.5287 135.933 97.4568 135.497C96.3848 135.061 95.1618 135.576 94.7252 136.647C94.2887 137.718 94.8037 138.94 95.8757 139.376C96.9477 139.813 98.1706 139.298 98.6072 138.227Z" fill="var(--fill-0, #226E77)"/>
<path id="Vector_70" d="M90.9259 167.019C91.3677 165.935 90.8465 164.698 89.7618 164.257C88.677 163.815 87.4395 164.336 86.9977 165.42C86.556 166.504 87.0772 167.741 88.1619 168.182C89.2466 168.624 90.4841 168.103 90.9259 167.019Z" fill="var(--fill-0, #226E77)"/>
<path id="Vector_71" d="M76.5695 170.917C77.0113 169.833 76.49 168.597 75.4053 168.155C74.3206 167.714 73.0831 168.235 72.6413 169.319C72.1995 170.403 72.7207 171.639 73.8054 172.081C74.8902 172.522 76.1277 172.001 76.5695 170.917Z" fill="var(--fill-0, #226E77)"/>
<path id="Vector_72" d="M84.8443 173.139C85.2808 172.067 84.7658 170.845 83.6938 170.409C82.6218 169.973 81.3989 170.488 80.9623 171.559C80.5257 172.63 81.0408 173.852 82.1127 174.288C83.1847 174.725 84.4077 174.21 84.8443 173.139Z" fill="var(--fill-0, #226E77)"/>
<path id="Vector_73" d="M102.967 154.993C103.399 153.934 102.89 152.727 101.83 152.296C100.771 151.865 99.5628 152.373 99.1314 153.432C98.7 154.49 99.209 155.698 100.268 156.129C101.327 156.56 102.536 156.051 102.967 154.993Z" fill="var(--fill-0, #226E77)"/>
<path id="Vector_74" d="M93.071 175.326C93.5024 174.267 92.9934 173.06 91.9342 172.629C90.875 172.197 89.6666 172.706 89.2352 173.765C88.8038 174.823 89.3127 176.03 90.372 176.462C91.4312 176.893 92.6396 176.384 93.071 175.326Z" fill="var(--fill-0, #226E77)"/>
<path id="Vector_75" d="M82.5025 164.823C82.9443 163.739 82.423 162.502 81.3383 162.061C80.2536 161.619 79.0161 162.14 78.5743 163.224C78.1325 164.308 78.6537 165.545 79.7384 165.986C80.8232 166.427 82.0607 165.907 82.5025 164.823Z" fill="var(--fill-0, #226E77)"/>
<path id="Vector_76" d="M80.2726 156.465C80.704 155.406 80.195 154.199 79.1358 153.768C78.0766 153.336 76.8682 153.845 76.4368 154.904C76.0054 155.962 76.5144 157.169 77.5736 157.601C78.6328 158.032 79.8412 157.523 80.2726 156.465Z" fill="var(--fill-0, #226E77)"/>
<path id="Vector_77" d="M90.205 136.074C90.6416 135.003 90.1265 133.781 89.0546 133.345C87.9826 132.908 86.7596 133.423 86.3231 134.494C85.8865 135.566 86.4015 136.788 87.4735 137.224C88.5455 137.66 89.7684 137.145 90.205 136.074Z" fill="var(--fill-0, #226E77)"/>
<path id="Vector_78" d="M96.8698 161.016C97.296 159.97 96.7932 158.777 95.7467 158.351C94.7002 157.925 93.5064 158.428 93.0802 159.473C92.654 160.519 93.1568 161.712 94.2033 162.138C95.2498 162.564 96.4436 162.061 96.8698 161.016Z" fill="var(--fill-0, #226E77)"/>
<path id="Vector_79" d="M94.7481 152.817C95.1847 151.746 94.6696 150.524 93.5976 150.087C92.5256 149.651 91.3027 150.166 90.8661 151.237C90.4295 152.308 90.9446 153.53 92.0166 153.967C93.0885 154.403 94.3115 153.888 94.7481 152.817Z" fill="var(--fill-0, #226E77)"/>
<path id="Vector_80" d="M84.1595 142.162C84.5961 141.09 84.0811 139.868 83.0091 139.432C81.9371 138.996 80.7142 139.511 80.2776 140.582C79.841 141.653 80.3561 142.875 81.428 143.311C82.5 143.748 83.723 143.233 84.1595 142.162Z" fill="var(--fill-0, #226E77)"/>
<path id="Vector_81" d="M75.9629 139.946C76.3995 138.875 75.8844 137.653 74.8124 137.216C73.7405 136.78 72.5175 137.295 72.0809 138.366C71.6443 139.437 72.1594 140.659 73.2314 141.096C74.3034 141.532 75.5263 141.017 75.9629 139.946Z" fill="var(--fill-0, #226E77)"/>
<path id="Vector_82" d="M100.728 146.484C101.159 145.426 100.65 144.218 99.5909 143.787C98.5317 143.356 97.3233 143.865 96.8919 144.923C96.4605 145.982 96.9695 147.189 98.0287 147.62C99.0879 148.051 100.296 147.543 100.728 146.484Z" fill="var(--fill-0, #226E77)"/>
<path id="Vector_83" d="M86.3813 150.434C86.8179 149.363 86.3028 148.141 85.2308 147.705C84.1588 147.268 82.9359 147.783 82.4993 148.854C82.0627 149.925 82.5778 151.147 83.6498 151.584C84.7217 152.02 85.9447 151.505 86.3813 150.434Z" fill="var(--fill-0, #226E77)"/>
<path id="Vector_84" d="M88.6388 158.773C89.065 157.727 88.5622 156.535 87.5157 156.109C86.4692 155.683 85.2754 156.185 84.8492 157.231C84.423 158.277 84.9258 159.47 85.9723 159.895C87.0188 160.321 88.2126 159.819 88.6388 158.773Z" fill="var(--fill-0, #226E77)"/>
<path id="Vector_85" d="M87.056 181.36C87.4874 180.301 86.9784 179.094 85.9192 178.663C84.86 178.232 83.6516 178.74 83.2202 179.799C82.7888 180.857 83.2977 182.065 84.357 182.496C85.4162 182.927 86.6246 182.418 87.056 181.36Z" fill="var(--fill-0, #226E77)"/>
<path id="Vector_86" d="M128.602 192.426C129.038 191.354 128.523 190.132 127.451 189.696C126.379 189.26 125.156 189.774 124.72 190.846C124.283 191.917 124.798 193.139 125.87 193.575C126.942 194.011 128.165 193.497 128.602 192.426Z" fill="var(--fill-0, #226E77)"/>
<path id="Vector_87" d="M124.631 206.826C125.057 205.78 124.554 204.587 123.508 204.161C122.461 203.736 121.268 204.238 120.841 205.284C120.415 206.329 120.918 207.522 121.964 207.948C123.011 208.374 124.205 207.872 124.631 206.826Z" fill="var(--fill-0, #226E77)"/>
<path id="Vector_88" d="M122.377 198.592C122.809 197.533 122.3 196.326 121.241 195.895C120.181 195.464 118.973 195.972 118.542 197.031C118.11 198.089 118.619 199.297 119.678 199.728C120.738 200.159 121.946 199.65 122.377 198.592Z" fill="var(--fill-0, #226E77)"/>
<path id="Vector_89" d="M120.197 190.308C120.618 189.275 120.121 188.096 119.088 187.676C118.054 187.255 116.875 187.751 116.454 188.784C116.033 189.817 116.529 190.996 117.563 191.416C118.597 191.837 119.776 191.341 120.197 190.308Z" fill="var(--fill-0, #226E77)"/>
<path id="Vector_90" d="M114.165 196.353C114.597 195.294 114.088 194.087 113.028 193.656C111.969 193.225 110.761 193.733 110.329 194.792C109.898 195.85 110.407 197.058 111.466 197.489C112.525 197.92 113.734 197.411 114.165 196.353Z" fill="var(--fill-0, #226E77)"/>
<path id="Vector_91" d="M71.8098 16.9288C64.5744 17.4025 69.24 24.2338 64.9985 23.4858C64.0504 23.3113 63.0275 23.0121 62.4536 22.0647C60.4826 18.8236 73.1322 10.7706 73.8557 15.2085C74.0054 16.131 73.0823 16.854 71.7849 16.9288H71.8098Z" fill="var(--fill-0, #226E77)"/>
<path id="Vector_92" d="M63.4156 36.6013C63.8366 35.5684 63.3399 34.39 62.3062 33.9693C61.2725 33.5486 60.0933 34.0449 59.6723 35.0779C59.2513 36.1108 59.748 37.2892 60.7817 37.7099C61.8154 38.1306 62.9946 37.6343 63.4156 36.6013Z" fill="var(--fill-0, #226E77)"/>
<path id="Vector_93" d="M61.1176 28.314C61.5334 27.2938 61.0429 26.1299 60.0219 25.7144C59.001 25.2989 57.8363 25.7891 57.4205 26.8093C57.0047 27.8295 57.4952 28.9933 58.5162 29.4088C59.5371 29.8243 60.7018 29.3341 61.1176 28.314Z" fill="var(--fill-0, #226E77)"/>
<path id="Vector_94" d="M46.4357 197.485C44.7391 199.031 39.3499 200.178 37.2791 198.856C30.6673 194.344 25.5277 188.385 19.6395 182.75C23.4568 181.279 27.349 183.05 29.9438 180.382C35.2332 174.922 35.1833 165.547 30.0436 159.963C26.5506 156.173 17.1694 159.788 10.383 158.068L16.8201 144.58C20.1135 145.004 24.0307 143.607 27.0995 144.679C34.1853 149.142 39.8988 154.777 46.0615 160.362C49.9537 163.877 55.3678 166.994 57.4636 171.656C57.2391 175.794 54.3199 180.232 52.8978 184.122L47.9327 186.141C48.4068 187.662 49.6792 187.562 51.1014 188.734C49.779 191.302 48.7062 195.441 46.4357 197.51V197.485ZM47.6333 173.326C50.8269 172.653 53.1972 173.476 55.6672 172.154C56.6403 171.631 55.8668 169.935 55.293 170.01C48.8808 170.808 46.8599 170.758 43.6663 167.343C41.5206 165.049 18.4668 141.787 18.392 147.148C18.392 147.497 18.367 148.344 18.9159 148.768C28.3221 155.824 36.5805 163.603 44.7391 172.229L37.1044 194.269C36.7302 195.366 36.6553 196.039 37.4537 196.463C40.4477 198.034 44.8888 176.592 47.6333 173.326Z" fill="var(--fill-0, #D1801F)"/>
<path id="Vector_95" d="M30.7173 170.509C30.9668 172.329 30.5925 177.739 27.5985 178.562C21.1864 180.332 14.4499 179.634 7.51378 180.656C1.77529 175.47 2.07469 166.794 7.33913 161.334L22.4588 161.085C24.9039 161.035 27.4987 160.561 29.1205 162.855C30.1933 164.376 31.8649 167.417 30.4428 169.088C27.7233 168.265 14.6744 167.367 17.3191 171.157C17.868 171.93 27.374 171.656 30.7422 170.484L30.7173 170.509ZM12.878 162.83C12.3541 162.057 11.2563 162.506 10.9818 162.83C9.50978 164.625 14.7992 169.013 10.0836 175.919C9.50978 176.742 9.65948 177.714 10.1335 177.988C12.7533 179.559 17.9429 170.409 12.878 162.855V162.83Z" fill="var(--fill-0, #D1801F)"/>
<path id="Vector_96" d="M47.6333 173.326C44.8888 176.592 40.4477 198.034 37.4537 196.463C36.6553 196.039 36.7052 195.366 37.1044 194.269L44.7391 172.229C36.5805 163.603 28.3221 155.799 18.9159 148.768C18.3421 148.344 18.367 147.497 18.392 147.148C18.4918 141.787 41.5455 165.049 43.6663 167.343C46.8349 170.758 48.8808 170.808 55.293 170.01C55.8668 169.935 56.6652 171.656 55.6672 172.154C53.1972 173.476 50.8269 172.653 47.6333 173.326Z" fill="var(--fill-0, #226E77)"/>
<path id="Vector_97" d="M12.878 162.83C17.9429 170.384 12.7533 179.534 10.1335 177.963C9.65948 177.689 9.50978 176.742 10.0836 175.894C14.7992 168.988 9.50978 164.6 10.9818 162.805C11.2313 162.506 12.3541 162.057 12.878 162.805V162.83Z" fill="var(--fill-0, #226E77)"/>
<path id="Vector_98" d="M96.5602 407.511C95.6371 411.151 95.0133 415.29 94.689 419.229C94.2898 424.265 91.3207 426.883 89.3996 430.049C87.7529 429.002 86.4555 430.149 84.9086 431.47C77.2988 437.903 68.9406 428.279 68.8657 432.243C67.9176 430.548 65.273 429.301 65.1482 426.883C65.0484 425.212 65.1232 423.343 63.751 422.171C66.0963 411.201 65.0983 403.871 65.747 392.327L78.721 387.516C81.4904 386.493 85.183 390.183 88.2519 387.765C90.8467 385.696 92.0942 382.006 91.4455 378.341C90.5223 373.03 84.3597 370.961 85.7569 369.49C87.5283 367.62 92.5183 371.534 95.1131 372.457C97.1839 382.105 92.169 386.967 94.2149 400.056C94.6391 402.699 95.7868 405.317 96.5852 407.536L96.5602 407.511ZM71.8348 411.301C76.226 412.821 79.4944 413.22 83.187 413.869C84.0603 414.916 84.3347 416.362 85.5822 416.661C88.4764 414.218 86.0064 410.578 86.9295 408.109C88.1022 404.993 86.6052 403.198 86.4804 400.48C86.3557 397.912 88.9006 395.219 84.4345 392.751C83.9854 393.075 83.0373 394.621 82.0892 394.771L68.6162 393.375C67.8428 401.128 68.3667 408.284 68.4416 415.763C68.4416 416.711 69.739 417.209 70.213 417.035C72.4336 416.287 70.0883 413.42 71.8348 411.251V411.301Z" fill="var(--fill-0, #D1801F)"/>
<path id="Vector_99" d="M109.185 409.655C108.337 409.281 107.588 408.633 107.089 407.985C108.885 404.12 102.748 404.295 102.748 396.341C102.748 381.756 104.07 370.562 99.155 356.874C106.44 356.525 111.231 368.044 119.315 361.786C120.038 361.212 120.886 362.21 121.011 362.659C121.186 363.282 120.662 363.83 119.739 364.055L111.655 366.149C109.784 366.623 108.062 364.678 107.114 366.373C105.991 368.368 106.341 369.39 106.715 371.41L109.834 387.964C111.954 388.014 111.48 385.671 112.004 384.524L123.207 382.978C126.55 391.205 126.949 401.477 120.961 408.383C118.092 411.699 108.761 404.843 109.185 409.68V409.655Z" fill="var(--fill-0, #D1801F)"/>
<path id="Vector_100" d="M64.0504 427.531L65.1482 426.883C65.2729 429.301 67.9176 430.548 68.8657 432.243C70.238 434.687 72.2839 435.883 75.3527 436.332C81.9395 437.304 86.4804 434.886 89.3996 430.049C91.3207 426.883 94.2898 424.265 94.689 419.229C95.0133 415.315 95.6371 411.151 96.5602 407.511C97.2339 409.406 98.681 409.979 98.3816 412.447L96.186 429.775C95.2878 436.906 91.0712 444.186 83.711 446.255C77.723 447.925 70.5623 444.136 67.3188 439.199C64.8737 435.484 64.5494 431.271 64.0754 427.531H64.0504Z" fill="var(--fill-0, #F9FBFC)"/>
<path id="Vector_101" d="M94.4395 350.118C92.8926 353.01 94.8137 355.802 97.0093 357.872C98.2818 364.877 100.702 371.858 100.153 379.413C99.5043 388.463 97.7578 404.345 107.089 407.985C107.588 408.633 108.337 409.281 109.185 409.655C110.956 410.428 112.728 410.951 114.624 412.398C112.853 412.722 110.682 413.943 108.736 413.37C100.178 410.802 95.5373 402.475 96.4355 394.247L98.0323 379.737C99.0053 370.911 95.8367 361.96 92.5682 353.833C87.3287 340.893 98.1071 335.258 98.4315 336.231C99.3047 338.898 93.2668 341.117 94.4644 350.118H94.4395Z" fill="var(--fill-0, #F9FBFC)"/>
<path id="Vector_102" d="M87.8776 384.399C86.8297 386.618 81.69 385.995 81.8148 384.2C83.1371 381.158 87.4285 379.712 87.2289 375.698C88.8257 378.066 89.3497 381.208 87.8527 384.424L87.8776 384.399Z" fill="var(--fill-0, #F9FBFC)"/>
<path id="Vector_103" d="M122.558 379.512C121.036 381.183 108.162 383.502 111.206 378.091C114.948 377.842 118.766 378.49 122.558 379.512Z" fill="var(--fill-0, #F9FBFC)"/>
<path id="Vector_104" d="M97.0093 357.897C94.8387 355.827 92.8926 353.035 94.4395 350.143C96.2359 352.91 99.3546 355.204 97.0093 357.897Z" fill="var(--fill-0, #D1801F)"/>
<path id="Vector_105" d="M122.109 375.847C120.712 377.144 117.468 376.097 116.82 374.9C118.491 374.227 119.514 373.978 120.612 373.703C121.485 373.479 123.307 374.725 122.084 375.847H122.109Z" fill="var(--fill-0, #70BC96)"/>
<path id="Vector_106" d="M120.687 368.991L114.449 368.667C116.221 367.595 118.841 366.348 121.236 367.022C121.909 367.221 121.36 369.041 120.687 368.991Z" fill="var(--fill-0, #70BC96)"/>
<path id="Vector_107" d="M65.1482 426.883L64.0504 427.531C63.776 425.362 62.7281 423.816 63.751 422.171C65.1232 423.368 65.0734 425.212 65.1482 426.883Z" fill="var(--fill-0, #E4D66D)"/>
<path id="Vector_108" d="M113.595 371.244L110.277 371.18L110.237 373.274L113.554 373.338L113.595 371.244Z" fill="var(--fill-0, #70BC96)"/>
<path id="Vector_109" d="M159.185 256.424L159.883 256.723C159.659 257.671 157.962 258.992 158.411 260.263L161.106 268.167L179.594 313.593C182.563 320.898 185.407 327.879 186.555 335.583C188.002 345.406 181.989 354.256 172.159 355.478C163.526 356.55 155.417 358.694 146.66 359.243C137.503 359.791 127.872 356.924 118.915 359.143C114.3 360.29 111.929 361.088 107.763 356.974C101.376 350.616 99.4544 342.613 102.024 333.413C102.848 330.422 102.997 327.181 105.692 325.36C113.476 320.125 112.977 329.699 123.556 321.247C121.485 315.911 117.593 312.346 115.447 307.36L106.889 287.589C106.39 286.442 104.918 285.42 104.07 284.996C103.172 284.522 101.026 285.046 100.203 286.342L86.5553 307.933L71.71 330.646C74.5543 338.175 77.6731 345.406 79.0453 353.209C80.0184 358.744 79.5942 364.055 81.5154 369.44C82.214 371.385 84.9834 374.576 83.6112 376.92C77.3737 387.516 61.1562 393.823 50.1034 386.867C48.7561 386.02 47.2092 385.646 46.311 383.95C45.7621 382.903 47.783 380.958 47.3339 379.587C45.1134 372.781 39.9487 367.57 37.1793 361.088C32.7631 350.641 21.5357 334.211 18.2922 323.84C16.3211 317.557 30.6424 285.494 33.8859 274.4C35.7322 268.067 38.1024 262.133 40.4228 255.9C42.5685 250.116 44.4896 244.482 49.8289 240.393L59.9337 244.606C72.209 249.717 85.2828 251.089 99.2548 253.906C94.7638 262.507 94.4145 272.58 100.028 280.408C100.602 281.206 101.326 281.73 101.899 281.406C106.166 278.962 94.9884 276.394 100.253 258.942C100.802 257.147 100.777 255.851 100.153 254.13C103.521 253.931 105.867 254.629 108.561 255.477L104.12 275.023C103.895 276.07 104.295 277.292 105.168 277.242C107.588 277.117 110.407 259.715 110.832 255.501C123.182 256.474 137.403 261.909 151.425 259.79C152.498 259.615 153.596 258.992 153.746 258.169C153.895 257.247 152.822 256.598 152.398 255.95C153.072 255.601 153.87 253.931 154.893 254.853C155.467 255.402 155.542 256.723 156.365 256.823C157.463 256.948 158.336 256.549 159.259 256.424H159.185ZM129.469 322.069C134.983 319.776 143.491 322.094 143.641 319.177C143.666 318.504 143.391 317.681 142.119 317.681C138.676 317.681 127.224 317.781 126.051 320.599C125.677 321.471 125.976 321.945 126.8 322.394C127.498 322.768 128.197 322.593 129.469 322.069ZM59.8339 317.133L68.6661 326.906C68.9406 327.804 69.8388 327.829 70.3378 327.879C70.7869 327.928 72.1841 327.081 71.6601 326.433C69.1651 323.316 60.6323 310.476 56.7401 312.57C52.1992 314.989 59.1353 327.056 61.7051 327.305C66.5953 327.779 56.0165 318.305 59.8089 317.158L59.8339 317.133Z" fill="var(--fill-0, #70BC96)"/>
<path id="Vector_110" d="M59.8339 317.133C56.0165 318.28 66.6202 327.754 61.7301 327.28C59.1602 327.031 52.2241 314.964 56.765 312.546C60.6572 310.476 69.1651 323.291 71.6851 326.408C72.209 327.056 70.8118 327.904 70.3627 327.854C69.8637 327.804 68.9655 327.804 68.6911 326.881L59.8588 317.108L59.8339 317.133Z" fill="var(--fill-0, #226E77)"/>
<path id="Vector_111" d="M129.469 322.069C128.197 322.593 127.498 322.768 126.8 322.394C125.976 321.97 125.702 321.496 126.051 320.599C127.224 317.781 138.676 317.657 142.119 317.681C143.391 317.681 143.666 318.504 143.641 319.177C143.491 322.094 135.008 319.776 129.469 322.069Z" fill="var(--fill-0, #226E77)"/>
<path id="Vector_112" d="M99.8037 351.863C97.0842 351.564 96.2109 347.65 97.7827 344.882C98.5811 347.001 99.5791 348.073 99.8037 351.863Z" fill="var(--fill-0, #F9FBFC)"/>
<path id="Vector_113" d="M100.981 353.299C101.075 353.07 100.965 352.808 100.735 352.715C100.505 352.621 100.243 352.731 100.149 352.961C100.056 353.19 100.166 353.452 100.396 353.546C100.626 353.639 100.888 353.529 100.981 353.299Z" fill="var(--fill-0, #F9FBFC)"/>
<path id="Vector_114" d="M115.818 371.968C115.911 371.738 115.801 371.476 115.571 371.383C115.342 371.289 115.08 371.4 114.986 371.629C114.893 371.859 115.003 372.121 115.233 372.214C115.462 372.308 115.724 372.197 115.818 371.968Z" fill="var(--fill-0, #70BC96)"/>
<path id="Vector_115" d="M71.8348 411.301C70.0883 413.445 72.4086 416.337 70.213 417.085C69.714 417.259 68.4416 416.761 68.4416 415.813C68.3667 408.309 67.8677 401.178 68.6162 393.424L82.0892 394.821C83.0373 394.671 83.9605 393.125 84.4345 392.801C88.9006 395.269 86.3557 397.962 86.4804 400.53C86.6301 403.248 88.1022 405.043 86.9295 408.159C86.0064 410.627 88.4764 414.267 85.5822 416.711C84.3347 416.412 84.0603 414.965 83.187 413.918C79.4944 413.27 76.226 412.871 71.8348 411.35V411.301ZM82.8876 402.051C83.8607 401.752 83.4116 399.558 82.7878 399.383C80.8667 398.81 78.5463 399.632 76.8248 400.879C78.7958 401.727 80.7918 402.724 82.8876 402.051ZM75.5274 397.513C73.3318 396.192 72.3338 396.316 71.6601 396.391C71.1112 396.441 70.4625 397.837 71.2609 398.51C72.4835 399.508 74.5793 398.012 75.5024 397.538L75.5274 397.513ZM79.1451 404.694C76.2509 403.522 73.4815 403.098 71.1861 403.572C70.7619 405.018 70.5873 406.937 72.0094 407.336C74.4296 406.439 76.5503 406.539 79.1701 404.718L79.1451 404.694ZM83.5114 410.677C84.709 410.378 84.1102 407.137 83.0623 407.112C80.3178 407.037 77.8976 408.209 75.727 409.281C78.4465 410.652 81.0413 411.325 83.5114 410.677Z" fill="var(--fill-0, #226E77)"/>
<path id="Vector_116" d="M89.3996 430.024C86.4804 434.861 81.9395 437.279 75.3527 436.307C72.3088 435.858 70.238 434.687 68.8657 432.218C68.9156 428.229 77.2988 437.878 84.9086 431.445C86.4804 430.124 87.7529 428.977 89.3996 430.024Z" fill="var(--fill-0, #226E77)"/>
<path id="Vector_117" d="M83.5114 410.677C81.0413 411.325 78.4465 410.677 75.727 409.281C77.9226 408.209 80.3178 407.037 83.0623 407.112C84.1102 407.137 84.709 410.353 83.5114 410.677Z" fill="var(--fill-0, #F9FBFC)"/>
<path id="Vector_118" d="M79.1451 404.694C76.5254 406.514 74.4046 406.439 71.9845 407.311C70.5873 406.913 70.737 404.993 71.1611 403.547C73.4565 403.098 76.226 403.522 79.1202 404.669L79.1451 404.694Z" fill="var(--fill-0, #F9FBFC)"/>
<path id="Vector_119" d="M82.8876 402.051C80.7918 402.724 78.7958 401.727 76.8248 400.879C78.5463 399.657 80.8667 398.835 82.7878 399.383C83.4116 399.558 83.8357 401.727 82.8876 402.051Z" fill="var(--fill-0, #70BC96)"/>
<path id="Vector_120" d="M75.5274 397.513C74.5793 398.012 72.5084 399.508 71.2859 398.486C70.4625 397.812 71.1362 396.416 71.6851 396.366C72.3338 396.316 73.3567 396.192 75.5523 397.488L75.5274 397.513Z" fill="var(--fill-0, #70BC96)"/>
</g>
</svg>
