<svg preserveAspectRatio="none" width="100%" height="100%" overflow="visible" style="display: block;" viewBox="0 0 102.973 91.5884" fill="none" xmlns="http://www.w3.org/2000/svg">
<g id="Group">
<path id="Vector" d="M82.4217 58.3892C77.4772 58.1756 72.5325 58.23 67.5877 58.3088C66.9732 57.9928 66.2044 58.1398 65.8204 57.848C61.3664 54.5889 74.918 55.8888 78.6334 55.4217C84.1939 54.7332 89.2668 54.63 94.3909 54.551C93.3937 52.9444 92.9595 51.8244 91.7556 51.5822C90.3725 51.2914 65.1807 57.2397 64.5969 52.6851C58.1595 58.2709 58.3365 60.1951 53.0513 66.3885C57.9655 70.4265 46.8312 82.9114 49.7735 86.294C54.5231 78.1281 55.8149 69.1866 58.2332 60.9016C60.5645 61.0207 62.6145 60.7017 64.8701 59.8222C65.2178 68.9323 64.362 77.5322 60.3808 85.8677C58.1786 84.9202 57.8481 82.777 55.6198 82.1949C53.6947 85.169 53.6394 88.5307 51.0738 91.5298C48.2583 89.2433 45.6201 88.7104 42.7743 90.297C42.2899 88.3488 42.0862 87.3503 41.4471 86.1818C40.9614 85.2567 38.9358 86.55 37.5521 86.7221L1.83214 48.7377C-0.470714 46.2801 -0.391621 44.4286 1.25131 41.7472L19.8109 11.7636C20.9403 9.9597 24.8633 7.4218 27.0163 6.63983L63.9942 0.0446918C67.8617 1.039 70.5209 5.42068 73.0284 8.12172L102.146 39.4635C102.965 40.3395 103.246 41.5815 102.45 42.435C101.963 42.9715 100.784 43.1921 99.1952 43.5106C98.9884 45.0211 100.499 46.1643 100.625 47.7963C100.776 49.7448 98.2393 50.1375 96.3943 50.3832C96.9044 52.2827 99.4904 53.6439 99.668 55.1296C100.1 58.4664 84.0869 58.4604 82.4217 58.3648L82.4217 58.3892ZM48.1569 67.1492C48.7969 67.587 48.5677 66.418 49.0804 66.1494C51.3363 65.0506 59.3219 50.4014 66.4721 48.5662L98.5073 40.2959L64.0673 3.187C52.1516 5.12507 41.2356 6.59916 29.7291 9.09704C27.1152 9.6603 23.0894 12.4419 21.7545 14.6602L3.11753 45.1067C5.59876 48.368 8.13207 50.9229 10.7679 53.4289C12.2556 52.0143 11.6425 50.5535 12.1041 50.1632C13.0017 49.4314 14.3851 49.5272 15.0245 50.4278C15.6128 51.2553 15.4834 52.2786 14.4319 53.2055C13.8163 53.7664 12.4857 52.4038 10.7942 52.893C11.3811 54.8898 13.5817 57.1527 15.323 57.8328C15.9379 57.8321 16.7848 56.6618 17.2973 56.5882C18.271 56.4409 19.2694 57.1462 19.499 57.9254C19.8051 59.0213 18.1902 59.7539 18.0097 60.6798C17.5972 62.7995 20.8501 63.5509 22.8483 63.7192C24.256 64.8625 23.1516 67.1535 24.3287 68.2971C29.2419 73.1634 33.1043 78.3475 38.1465 82.5316C39.5579 80.6056 37.1239 80.6571 36.7147 80.0486C36.1265 79.1723 36.6659 78.0755 37.3071 77.4658C38.2561 76.5634 39.2026 77.8046 40.4832 78.0955C41.7639 78.3863 44.0735 75.2657 42.7168 74.2928C41.5649 73.4659 40.5662 73.0529 40.6699 72.0541C40.7476 71.3476 41.261 70.5188 42.0811 70.2986C43.5163 69.8828 44.1813 70.8564 44.6398 73.0483C45.8971 71.4635 47.8461 69.9266 48.1313 67.1493L48.1569 67.1492ZM95.4758 47.2662C94.864 44.6848 93.1475 44.6624 91.8148 44.9806L67.4429 50.8792C77.3054 51.9398 86.2246 49.1525 95.4758 47.2662ZM58.9542 79.0974C60.8061 73.1272 61.4781 68.2058 61.8436 62.5296C61.1005 62.6766 54.8776 81.5624 58.9542 79.0974ZM45.4971 84.4476C47.3729 79.9146 50.3503 75.4046 50.8175 70.386C47.7646 73.7998 45.7875 77.383 42.9137 80.9671C41.9643 82.1618 43.9851 84.7904 45.5228 84.4476L45.4971 84.4476Z" fill="var(--fill-0, #226E77)"/>
<path id="Vector_2" d="M49.0739 66.1747C48.689 66.6623 48.1763 66.9309 48.1504 67.1745C46.5876 67.1032 45.5631 66.8851 45.1284 66.1792C44.6426 65.3759 45.0023 64.4985 45.4385 63.9865C46.0542 63.2794 47.5146 63.302 48.2311 63.9589C48.6918 64.3969 48.7676 65.2737 49.0739 66.1747Z" fill="var(--fill-0, #226E77)"/>
<path id="Vector_3" d="M82.4293 58.3881C82.2997 59.5575 70.1557 59.5958 67.5953 58.3077C72.5401 58.2289 77.4848 58.1745 82.4293 58.3881Z" fill="var(--fill-0, #70BC96)"/>
<path id="Vector_4" d="M48.1597 67.1525C48.16 66.9333 48.6983 66.6647 49.0832 66.1527C48.5449 66.4213 48.7997 67.5659 48.1597 67.1525Z" fill="var(--fill-0, #E4D66D)"/>
<path id="Vector_5" d="M49.0754 66.1702C48.7434 65.2693 48.6933 64.3924 48.2326 63.9545C47.5161 63.2976 46.0557 63.2749 45.44 63.982C45.0038 64.4941 44.6441 65.3714 45.1299 66.1747C45.5646 66.8807 46.5891 67.0987 48.1519 67.17C47.8668 69.923 45.9177 71.4842 44.6604 73.069C44.2019 70.8772 43.537 69.9036 42.1017 70.3193C41.3072 70.5639 40.7938 71.3683 40.6905 72.0749C40.5612 73.0981 41.5599 73.4867 42.7374 74.3136C44.0941 75.2864 41.8357 78.4314 40.5039 78.1162C39.172 77.8011 38.2768 76.5841 37.3277 77.4865C36.6865 78.0963 36.1471 79.1931 36.7353 80.0693C37.1445 80.6779 39.5785 80.6264 38.1671 82.5524C33.1249 78.3683 29.2369 73.1842 24.3493 68.3178C23.1722 67.1499 24.3023 64.8588 22.8689 63.7399C20.8707 63.5717 17.6178 62.8203 18.0303 60.7005C18.2108 59.7747 19.8257 59.042 19.5196 57.9462C19.3156 57.1669 18.2916 56.4617 17.3179 56.6089C16.8054 56.6826 15.9585 57.8528 15.3436 57.8535C13.6023 57.1735 11.4017 54.9105 10.8148 52.9137C12.5064 52.4002 13.837 53.7872 14.4525 53.2262C15.4784 52.2994 15.6334 51.2761 15.0451 50.4486C14.3801 49.548 13.0223 49.4521 12.1247 50.184C11.6631 50.5499 12.2506 52.0351 10.7886 53.4497C8.15269 50.9437 5.61935 48.4132 3.13815 45.1275L21.7751 14.6809C23.1357 12.4627 27.1358 9.70543 29.7497 9.1178C41.2818 6.6199 52.1722 5.14584 64.0879 3.20776L98.5024 40.3167L66.4671 48.587C59.3168 50.4465 51.3569 65.0714 49.0754 66.1702ZM32.2086 9.69961L30.0287 11.4804L62.1647 47.106L64.3446 45.3252L32.2086 9.69961ZM41.5516 37.8242C44.6233 40.0862 54.3943 53.3266 55.086 53.3258C56.1108 53.3246 57.1618 52.8606 57.112 51.6914C57.0131 48.7196 53.0921 49.6498 52.6382 43.6091L48.8999 41.7377L28.5605 18.0104C27.4092 16.672 26.7462 14.0662 24.0035 15.1656C23.0038 15.5565 23.9486 18.1862 24.9215 18.721C27.8148 20.2524 27.7088 23.1269 29.1152 25.4151C29.6522 26.2671 31.9324 26.2401 32.5209 26.9215C34.235 28.917 30.7443 34.1827 35.0249 32.497C36.8705 31.7641 37.5355 32.689 38.4307 33.9303C39.3259 35.1716 37.8137 35.6362 36.9668 36.8551C35.9145 38.391 37.2456 39.3395 38.3982 39.6305C39.5507 39.9215 40.6297 37.5086 41.5516 37.8486L41.5516 37.8242ZM23.8391 24.057C23.8403 23.0339 22.9702 22.1823 21.8686 22.1836C20.7669 22.1849 19.8948 23.0141 19.8935 24.0615C19.8923 25.109 20.7624 25.9362 21.864 25.935C22.9657 25.9337 23.8378 25.1045 23.8391 24.057ZM19.5778 30.9313C19.579 29.9326 18.7089 29.1053 17.6585 29.1065C16.6081 29.1077 15.736 29.937 15.7348 30.9357C15.7336 31.9345 16.6037 32.7617 17.6541 32.7605C18.7045 32.7593 19.5766 31.9301 19.5778 30.9313ZM27.9044 30.9461C27.9056 29.9474 27.0611 29.1201 25.9851 29.1214C24.909 29.1226 24.0626 29.9274 24.0613 30.9505C24.0601 31.9736 24.9046 32.7765 25.9806 32.7753C27.0567 32.7741 27.9031 31.9692 27.9044 30.9461ZM15.4191 37.7568C15.4203 36.7337 14.5502 35.9308 13.4998 35.932C12.4494 35.9332 11.5773 36.7624 11.5761 37.7612C11.5749 38.7599 12.445 39.5872 13.4954 39.5859C14.5458 39.5847 15.4179 38.7555 15.4191 37.7568ZM23.7457 37.7472C23.7469 36.7485 22.8768 35.9213 21.8264 35.9225C20.7759 35.9237 19.9039 36.7529 19.9027 37.7516C19.9015 38.7504 20.7715 39.5776 21.822 39.5764C22.8724 39.5752 23.7445 38.746 23.7457 37.7472ZM32.0979 37.7377C32.0991 36.7389 31.229 35.9117 30.1786 35.9129C29.1281 35.9141 28.2561 36.7433 28.2549 37.7421C28.2537 38.7408 29.1237 39.568 30.1742 39.5668C31.2246 39.5656 32.0967 38.7364 32.0979 37.7377ZM11.2091 44.6797C11.2103 43.6566 10.3402 42.8538 9.28974 42.855C8.23931 42.8562 7.36722 43.6854 7.36602 44.6841C7.36481 45.6829 8.2349 46.5101 9.28533 46.5089C10.3358 46.5077 11.2078 45.6785 11.2091 44.6797ZM19.5613 44.6458C19.5625 43.6471 18.6924 42.8198 17.642 42.821C16.5915 42.8222 15.7194 43.6515 15.7182 44.6502C15.717 45.649 16.5871 46.4762 17.6376 46.475C18.688 46.4738 19.5601 45.6445 19.5613 44.6458ZM27.9134 44.6606C27.9147 43.6375 27.0446 42.8346 25.9941 42.8358C24.9437 42.837 24.0716 43.6662 24.0704 44.665C24.0692 45.6637 24.9393 46.491 25.9897 46.4898C27.0402 46.4886 27.9122 45.6593 27.9134 44.6606ZM36.24 44.651C36.2413 43.6279 35.3711 42.8251 34.3207 42.8263C33.2703 42.8275 32.3982 43.6567 32.397 44.6554C32.3958 45.6542 33.2659 46.4814 34.3163 46.4802C35.3667 46.479 36.2388 45.6498 36.24 44.651ZM44.5666 44.6415C44.5678 43.6184 43.6978 42.7912 42.6217 42.7924C41.5457 42.7936 40.6736 43.6228 40.6723 44.6459C40.6711 45.6691 41.5412 46.4963 42.6172 46.495C43.6933 46.4938 44.5654 45.6646 44.5666 44.6415ZM23.7547 51.5104C23.756 50.4873 22.8858 49.6844 21.8354 49.6856C20.785 49.6868 19.9129 50.5161 19.9117 51.5148C19.9105 52.5136 20.7806 53.3408 21.831 53.3396C22.8814 53.3384 23.7535 52.5091 23.7547 51.5104ZM32.1069 51.5008C32.1081 50.4777 31.238 49.6748 30.1876 49.6761C29.1372 49.6773 28.2651 50.5065 28.2639 51.5052C28.2627 52.504 29.1328 53.3312 30.1832 53.33C31.2336 53.3288 32.1057 52.4996 32.1069 51.5008ZM40.4335 51.4913C40.4347 50.4682 39.5646 49.6653 38.5142 49.6665C37.4637 49.6677 36.5917 50.4969 36.5905 51.4957C36.5893 52.4944 37.4593 53.3217 38.5098 53.3205C39.5602 53.3192 40.4323 52.49 40.4335 51.4913ZM48.7857 51.4817C48.7869 50.4586 47.9168 49.6314 46.8408 49.6326C45.7647 49.6338 44.8926 50.4631 44.8914 51.4862C44.8902 52.5093 45.7603 53.3365 46.8363 53.3353C47.9124 53.334 48.7845 52.5048 48.7857 51.4817ZM27.9225 58.375C27.9238 57.3519 27.0537 56.5247 25.9776 56.5259C24.9016 56.5272 24.0295 57.3564 24.0283 58.3795C24.027 59.4026 24.8971 60.2298 25.9732 60.2286C27.0492 60.2274 27.9213 59.3981 27.9225 58.375ZM36.2491 58.3655C36.2503 57.3424 35.3803 56.5151 34.3042 56.5164C33.2282 56.5176 32.3561 57.3468 32.3548 58.3699C32.3536 59.3931 33.2237 60.2203 34.2997 60.2191C35.3758 60.2178 36.2479 59.3886 36.2491 58.3655ZM44.6013 58.3803C44.6025 57.3572 43.7325 56.5056 42.6308 56.5068C41.5291 56.5081 40.657 57.3373 40.6558 58.3848C40.6545 59.4323 41.5246 60.2595 42.6263 60.2582C43.7279 60.257 44.6 59.4277 44.6013 58.3803ZM52.9279 58.3464C52.9291 57.3233 52.059 56.496 50.983 56.4973C49.9069 56.4985 49.0348 57.3277 49.0336 58.3508C49.0324 59.3739 49.9025 60.2012 50.9785 60.1999C52.0546 60.1987 52.9266 59.3695 52.9279 58.3464ZM32.0647 65.2641C32.0659 64.2409 31.1958 63.4381 30.1454 63.4393C29.095 63.4405 28.2229 64.2697 28.2217 65.2685C28.2205 66.2672 29.0905 67.0944 30.141 67.0932C31.1914 67.092 32.0635 66.2628 32.0647 65.2641ZM40.4425 65.2544C40.4437 64.2313 39.5737 63.4041 38.4976 63.4053C37.4216 63.4066 36.5495 64.2358 36.5482 65.2589C36.547 66.282 37.4171 67.1092 38.4931 67.108C39.5692 67.1068 40.4413 66.2775 40.4425 65.2544ZM36.2325 72.1287C36.2337 71.1056 35.3637 70.2783 34.2876 70.2796C33.2116 70.2808 32.3395 71.11 32.3382 72.1331C32.337 73.1562 33.2071 73.9835 34.2831 73.9822C35.3592 73.981 36.2313 73.1518 36.2325 72.1287Z" fill="var(--fill-0, #E4D66D)"/>
<path id="Vector_6" d="M41.5627 37.8309C40.6407 37.4909 39.613 39.9037 38.4092 39.6128C37.2054 39.3218 35.8999 38.3733 36.9778 36.8374C37.8248 35.6185 39.3114 35.1052 38.4417 33.9126C37.5721 32.72 36.8815 31.7464 35.036 32.4793C30.7553 34.165 34.246 28.8993 32.5319 26.9038C31.9435 26.2224 29.6376 26.2494 29.1262 25.3974C27.7198 23.1336 27.8258 20.2346 24.9326 18.7033C23.9597 18.1685 23.0149 15.5631 24.0145 15.1479C26.7572 14.0485 27.4202 16.6543 28.5715 17.9927L48.911 41.72L52.6493 43.5914C53.1031 49.6321 57.0241 48.7019 57.123 51.6737C57.1473 52.8185 56.1219 53.2826 55.0971 53.3081C54.431 53.3089 44.6344 40.0685 41.5627 37.8065L41.5627 37.8309Z" fill="var(--fill-0, #226E77)"/>
<path id="Vector_7" d="M32.2006 9.73183L30.0204 11.5105L62.1527 47.1409L64.3329 45.3622L32.2006 9.73183Z" fill="var(--fill-0, #226E77)"/>
<path id="Vector_8" d="M46.8392 53.3378C47.9146 53.3366 48.7874 52.5067 48.7886 51.4843C48.7898 50.4618 47.9191 49.6339 46.8437 49.6352C45.7683 49.6364 44.8956 50.4663 44.8943 51.4887C44.8931 52.5112 45.7638 53.3391 46.8392 53.3378Z" fill="var(--fill-0, #226E77)"/>
<path id="Vector_9" d="M30.1696 53.3368C31.2309 53.3356 32.0921 52.5167 32.0934 51.5077C32.0946 50.4987 31.2353 49.6817 30.174 49.6829C29.1128 49.6841 28.2515 50.5031 28.2503 51.5121C28.2491 52.5211 29.1084 53.3381 30.1696 53.3368Z" fill="var(--fill-0, #226E77)"/>
<path id="Vector_10" d="M38.5154 53.3261C39.5766 53.3249 40.4379 52.5059 40.4391 51.4969C40.4403 50.4879 39.581 49.671 38.5198 49.6722C37.4586 49.6734 36.5973 50.4923 36.5961 51.5013C36.5949 52.5104 37.4542 53.3273 38.5154 53.3261Z" fill="var(--fill-0, #226E77)"/>
<path id="Vector_11" d="M30.1772 39.5693C31.2384 39.568 32.0997 38.7491 32.1009 37.7401C32.1021 36.7311 31.2428 35.9141 30.1816 35.9153C29.1204 35.9165 28.2591 36.7355 28.2579 37.7445C28.2567 38.7535 29.116 39.5705 30.1772 39.5693Z" fill="var(--fill-0, #226E77)"/>
<path id="Vector_12" d="M30.1424 67.0971C31.2036 67.0959 32.0649 66.2769 32.0661 65.2679C32.0673 64.2589 31.208 63.4419 30.1468 63.4431C29.0855 63.4443 28.2243 64.2633 28.2231 65.2723C28.2218 66.2813 29.0811 67.0983 30.1424 67.0971Z" fill="var(--fill-0, #226E77)"/>
<path id="Vector_13" d="M38.5014 67.1119C39.5768 67.1106 40.4496 66.2808 40.4508 65.2583C40.452 64.2358 39.5813 63.408 38.5059 63.4092C37.4305 63.4104 36.5578 64.2403 36.5565 65.2628C36.5553 66.2852 37.4261 67.1131 38.5014 67.1119Z" fill="var(--fill-0, #226E77)"/>
<path id="Vector_14" d="M34.2893 73.9872C35.3647 73.986 36.2374 73.1561 36.2386 72.1336C36.2399 71.1112 35.3691 70.2833 34.2937 70.2845C33.2184 70.2858 32.3456 71.1156 32.3444 72.1381C32.3431 73.1606 33.2139 73.9884 34.2893 73.9872Z" fill="var(--fill-0, #226E77)"/>
<path id="Vector_15" d="M50.9845 60.2002C52.0599 60.199 52.9326 59.3691 52.9339 58.3466C52.9351 57.3242 52.0643 56.4963 50.989 56.4975C49.9136 56.4988 49.0408 57.3286 49.0396 58.3511C49.0384 59.3736 49.9091 60.2014 50.9845 60.2002Z" fill="var(--fill-0, #226E77)"/>
<path id="Vector_16" d="M42.6409 60.2621C43.7304 60.2609 44.6147 59.4201 44.6159 58.3842C44.6172 57.3483 43.735 56.5095 42.6454 56.5107C41.5559 56.512 40.6717 57.3528 40.6704 58.3887C40.6692 59.4246 41.5514 60.2634 42.6409 60.2621Z" fill="var(--fill-0, #226E77)"/>
<path id="Vector_17" d="M34.3242 60.2209C35.3996 60.2197 36.2724 59.3898 36.2736 58.3674C36.2748 57.3449 35.4041 56.517 34.3287 56.5183C33.2533 56.5195 32.3806 57.3494 32.3793 58.3718C32.3781 59.3943 33.2489 60.2222 34.3242 60.2209Z" fill="var(--fill-0, #226E77)"/>
<path id="Vector_18" d="M34.3238 46.4863C35.385 46.4851 36.2463 45.6661 36.2475 44.6571C36.2487 43.6481 35.3894 42.8311 34.3282 42.8324C33.2669 42.8336 32.4057 43.6525 32.4044 44.6615C32.4032 45.6706 33.2625 46.4875 34.3238 46.4863Z" fill="var(--fill-0, #226E77)"/>
<path id="Vector_19" d="M42.6516 46.5018C43.727 46.5006 44.5997 45.6707 44.6009 44.6483C44.6022 43.6258 43.7314 42.7979 42.656 42.7992C41.5807 42.8004 40.7079 43.6303 40.7067 44.6527C40.7054 45.6752 41.5762 46.5031 42.6516 46.5018Z" fill="var(--fill-0, #226E77)"/>
</g>
</svg>
