<svg preserveAspectRatio="none" width="100%" height="100%" overflow="visible" style="display: block;" viewBox="0 0 21.0523 34.0322" fill="none" xmlns="http://www.w3.org/2000/svg">
<g id="Group">
<path id="Vector" d="M20.2141 32.5413C16.8742 34.101 13.2724 32.4968 10.0634 33.3211C6.74532 34.1678 3.58004 34.5466 0 32.7864L11.1767 1.46006C11.4387 0.724808 12.3555 0.256918 12.7484 0.0563936C13.316 -0.233252 14.5166 0.635686 14.6694 1.68287C15.5426 7.54263 17.3108 12.8008 18.7079 18.4823C19.4064 21.312 19.21 24.3644 20.3888 27.2831C20.869 28.4417 21.6767 31.8506 20.236 32.519L20.2141 32.5413ZM18.1622 30.3356L12.5083 6.91878L3.97297 30.5584C9.21206 30.692 13.1195 30.8926 18.1403 30.3133L18.1622 30.3356Z" fill="var(--fill-0, #226E77)"/>
<path id="Vector_2" d="M18.1622 30.3356C13.1414 30.9148 9.23389 30.7143 3.9948 30.5806L12.5083 6.91878L18.1403 30.3356H18.1622Z" fill="var(--fill-0, #D1801F)"/>
</g>
</svg>
