<svg preserveAspectRatio="none" width="100%" height="100%" overflow="visible" style="display: block;" viewBox="0 0 25.0092 31.0011" fill="none" xmlns="http://www.w3.org/2000/svg">
<g id="Group">
<path id="Vector" d="M17.9345 31.0011C13.2304 26.5371 3.97686 14.3626 0.686225 11.6571C-0.152997 10.9582 -0.064658 9.5153 0.134105 8.74876C0.619971 6.94512 13.6721 5.77276 17.0732 5.56985C18.1553 13.6862 19.1491 21.284 19.7896 29.1073C19.8558 29.8738 18.2878 30.6629 17.9345 31.0011ZM15.9468 24.3728C16.3002 18.4208 15.0413 14.092 14.6217 8.7713C10.6465 8.90658 7.59877 9.38003 3.82227 10.3946L15.9468 24.3502V24.3728Z" fill="var(--fill-0, #226E77)"/>
<path id="Vector_2" d="M18.4866 3.20258C16.6756 3.49567 4.44064 4.8033 4.55107 4.82585C3.71184 4.6004 2.56343 2.75167 3.55725 1.98512C4.92651 0.948032 19.2816 -0.720332 21.3797 0.339305C22.8815 7.84694 23.8753 15.1291 25.0016 22.7044C25.112 23.4709 23.9857 24.26 23.5882 24.4629C23.014 24.756 21.9981 23.7415 21.8435 22.772L18.5087 3.22512L18.4866 3.20258Z" fill="var(--fill-0, #226E77)"/>
<path id="Vector_3" d="M15.9468 24.3728L3.82227 10.4171C7.57669 9.38003 10.6244 8.90658 14.6217 8.79385C15.0634 14.1146 16.3002 18.4433 15.9468 24.3953V24.3728Z" fill="var(--fill-0, #E4D66D)"/>
</g>
</svg>
