<svg preserveAspectRatio="none" width="100%" height="100%" overflow="visible" style="display: block;" viewBox="0 0 117.036 136.979" fill="none" xmlns="http://www.w3.org/2000/svg">
<g id="Group">
<path id="Vector" d="M49.2546 91.5506C49.2806 89.986 48.4477 88.1608 48.0312 85.8661C46.5996 87.3785 47.4846 89.282 46.4174 91.6549C45.168 95.1229 40.639 95.149 37.4374 95.7487C35.277 101.042 32.518 105.788 26.3491 107.509C22.2886 108.63 16.1978 109.23 13.699 104.953C9.92485 98.4605 15.7293 93.4019 19.0089 88.7084C22.2886 84.0148 23.3037 79.3734 30.722 80.2339C32.1015 80.3903 34.6523 78.7736 34.5222 77.0527C24.7874 74.6016 14.1936 76.6615 11.1742 62.8677C5.55199 59.1389 0.710615 58.7478 0.033863 51.4988C-0.564802 44.8757 6.9055 42.0334 12.0592 40.1821C9.79471 35.7493 7.94666 30.7689 9.32619 25.8146C11.3564 18.4613 19.5556 12.5161 26.6614 13.5852C28.978 13.9503 29.5767 17.0793 31.7891 18.3309C35.5894 20.4952 40.3787 20.1562 43.2679 23.885C45.8448 17.7834 36.0839 18.8524 41.6281 9.41316C43.4761 6.25804 45.6626 3.05077 48.1353 1.98168C55.0069 -0.990916 66.0953 3.78088 66.5898 11.6556C71.5613 9.02203 69.1146 2.73786 78.1987 0.651833C82.4675 -0.339032 86.4499 -0.495484 89.8336 2.32066C92.9311 4.90212 95.0655 8.34407 94.649 13.4027C93.738 24.4847 87.9856 24.4065 90.172 30.8471C94.649 44.0673 78.7714 44.9539 78.4069 53.1155C83.0401 51.6553 87.2047 50.195 90.8227 47.2746C92.6187 45.8404 93.4256 42.8939 96.0806 42.1638C105.659 39.4781 119.637 44.8496 116.617 52.0464C113.286 59.9733 105.373 60.0515 98.7616 62.3201C94.649 63.7282 92.4626 68.5521 86.4239 65.4491C84.3936 64.4061 79.6303 65.2927 77.1315 65.4491C75.4396 65.5534 75.8821 67.7177 75.8041 68.4739C75.6479 70.0123 78.6152 69.0997 79.5002 69.908C87.6993 77.6263 91.4995 88.3955 95.7162 98.6952L100.974 111.55L109.303 134.366C109.772 135.67 107.143 136.817 106.076 136.948C104.462 137.156 102.666 136.296 101.286 134.862L91.6817 124.771L73.7738 103.832C70.2339 99.7122 66.5898 96.0355 63.9349 91.2898C62.6074 94.2363 62.3731 96.7135 61.0717 98.1998C59.1455 100.416 52.7424 101.537 49.4107 97.6783C47.9531 95.9834 49.2285 94.1842 49.3066 91.5506H49.2546ZM62.6074 81.4073C62.4252 83.9887 65.002 84.6927 66.72 86.3094C67.2145 87.2742 66.1473 89.8557 67.0063 90.325L71.5613 92.9065C72.6025 93.5062 70.0256 97.2872 74.9451 98.5909C77.2617 99.2167 76.5329 101.746 77.6261 103.024L94.5709 122.815C97.6944 126.465 100.375 130.09 104.904 132.228L97.5122 112.098L91.8118 98.0955C88.9226 90.9769 82.5455 73.5846 74.7369 71.8115C75.5958 69.3604 73.2272 67.5612 72.9148 65.736C71.1969 56.2706 75.3095 46.6749 83.1702 41.7988C92.0721 36.2969 82.3113 31.16 88.5843 21.3296C91.2392 17.1836 92.2543 11.2124 89.6514 7.01422C87.1527 2.99862 82.8579 2.84216 78.6672 3.9634C75.4136 4.82389 74.3985 8.52659 71.8737 11.4731L65.7048 18.6699L65.6528 27.8745C65.6267 32.881 64.1691 36.8705 65.9651 41.7466C67.6049 46.1273 71.6394 65.4231 67.8652 66.0749C65.9911 66.3878 66.9022 50.6644 62.3731 40.2603C60.3168 35.5407 61.7224 31.1339 62.7115 26.4664C63.4143 23.1288 61.4881 19.5304 62.7375 16.271C64.5596 11.4731 61.9567 7.56181 57.5578 5.6583C55.2412 4.66744 52.8465 3.62443 50.1135 4.71959C47.823 5.63223 43.4501 12.0207 43.6844 14.3936C43.8405 16.0102 45.5584 17.1575 46.3653 18.8264C49.0723 24.3543 47.4065 32.0466 50.4519 37.2356C53.4973 42.4246 56.2303 46.2316 56.2824 52.8547C56.2824 57.3658 67.1364 65.8142 62.1909 67.2223C48.734 53.637 55.6577 48.6566 50.2437 42.555C44.8296 36.4533 44.2049 23.7807 34.0797 22.9984C30.0192 22.6855 28.8479 19.0871 25.7765 17.7312C20.5186 15.3844 13.699 22.2683 12.736 27.2226C9.8728 41.7988 24.9696 38.9305 28.6917 46.9356C31.9974 54.0281 54.4343 58.0959 57.8181 65.9446L59.588 70.0905C60.5511 72.3591 63.9869 73.6889 63.7787 76.5572C58.1304 76.9223 58.9113 68.2392 55.4494 68.8911C54.0178 71.0814 52.5082 72.4373 51.5451 74.6798C54.0959 75.0709 56.5947 72.4895 57.5057 74.8363C59.4579 79.921 51.6492 84.2755 51.2848 87.3524C51.1026 88.917 52.6123 90.1164 52.8986 91.7852C53.263 93.8713 52.0917 96.4006 54.5905 96.9742C61.0717 98.5127 60.1086 86.2573 59.9785 83.0239C59.9004 81.4073 61.8265 81.6159 62.6334 81.3551L62.6074 81.4073ZM43.7885 65.5534C47.6408 64.6147 50.3217 67.6395 54.6165 67.8481C49.0463 60.7816 40.9513 57.7047 32.8043 55.0711C25.2299 52.62 26.3231 39.7127 11.7469 44.302C8.259 45.3972 3.5738 46.6227 3.41762 51.0294C3.31351 54.4192 7.13976 57.0789 10.055 58.148C17.3952 60.7816 12.9963 67.9784 21.1954 70.7424C40.5869 77.2613 37.1251 67.144 43.7885 65.5534ZM89.5734 62.4244C92.0721 63.2066 94.0764 61.59 95.0134 59.9212C97.6683 55.1233 108.835 61.59 113.572 49.3867C110.188 46.1273 105.477 45.1625 101.338 44.6931C96.9395 44.1977 95.6641 47.2224 93.2695 49.7518C88.7404 54.5757 76.5329 56.5314 75.8561 58.2002C73.3313 64.6408 80.3851 59.53 89.5473 62.4244H89.5734ZM50.1656 70.3774C48.3956 69.3083 46.079 68.0306 43.8405 69.4126C42.6172 70.1688 40.8472 71.5768 39.5718 74.0801C43.6063 75.1752 47.0161 73.5586 50.1656 70.3774ZM51.2848 75.5403C51.2848 74.9666 50.8163 74.4973 50.2437 74.4973C49.671 74.4973 49.2025 74.9666 49.2025 75.5403C49.2025 76.114 49.671 76.5833 50.2437 76.5833C50.8163 76.5833 51.2848 76.114 51.2848 75.5403ZM33.6632 95.514C35.0688 88.7866 43.7885 94.7578 44.283 88.2129C44.6474 83.6237 46.7037 80.7032 49.0203 76.5312C44.8817 76.9484 41.8884 77.1309 38.5306 77.861C36.8908 81.5637 33.481 84.3538 29.6027 83.9366C24.1627 83.3368 24.1106 87.7696 22.2105 91.0812C20.5707 93.9756 13.1264 98.1737 16.8746 102.711C21.5598 108.343 32.2316 102.241 33.6112 95.488L33.6632 95.514ZM53.6014 78.3825C51.1026 79.3212 48.0052 81.2508 48.6299 84.6928C50.556 82.9718 52.7424 81.8766 53.6014 78.3825Z" fill="var(--fill-0, #226E77)"/>
<path id="Vector_2" d="M49.2546 91.5506C48.8121 91.5506 48.1353 90.0121 47.875 90.2468L46.4174 91.6288C47.4846 89.282 46.5996 87.3524 48.0312 85.8401C48.4477 88.1347 49.2806 89.96 49.2546 91.5245V91.5506Z" fill="var(--fill-0, #70BC96)"/>
<path id="Vector_3" d="M74.7108 71.8115C74.5547 72.2809 74.4766 73.2978 74.5547 73.7672C66.5377 80.9118 66.8501 75.2795 65.2623 80.2339C64.3253 80.4685 63.4924 81.0683 62.5814 81.3812C61.7745 81.6419 59.8483 81.4333 59.9264 83.05C60.0566 86.2573 61.0196 98.5127 54.5384 97.0003C52.0396 96.4006 53.2109 93.8974 52.8465 91.8113C52.5602 90.1686 51.0505 88.943 51.2327 87.3785C51.5972 84.3016 59.4058 79.947 57.4537 74.8623C56.5687 72.5156 54.0439 75.0709 51.493 74.7059C52.4561 72.4634 53.9658 71.1075 55.3974 68.9172C58.8592 68.2392 58.1044 76.9484 63.7266 76.5833C63.9349 73.715 60.5251 72.3591 59.536 70.1166L57.766 65.9706C54.3822 58.1219 31.9713 54.0542 28.6396 46.9617C24.8915 38.9566 9.82074 41.8248 12.6839 27.2487C13.647 22.2944 20.4666 15.4105 25.7244 17.7573C28.7958 19.1393 29.9671 22.7116 34.0276 23.0245C44.1529 23.8068 45.0118 36.7401 50.1916 42.581C55.3713 48.4219 48.6819 53.6631 62.1389 67.2483C67.1104 65.8403 56.2563 57.3918 56.2303 52.8808C56.2043 46.2837 53.5493 42.6332 50.3998 37.2617C47.2503 31.8901 49.0203 24.3804 46.3133 18.8524C45.5064 17.1836 43.7885 16.0363 43.6323 14.4196C43.398 12.0468 47.7709 5.6583 50.0614 4.74567C52.7685 3.6505 55.1891 4.69352 57.5057 5.68438C61.9306 7.58788 64.5075 11.4992 62.6855 16.2971C61.4361 19.5565 63.3622 23.1549 62.6594 26.4925C61.6703 31.16 60.2648 35.5668 62.3211 40.2864C66.8761 50.7165 65.9391 66.44 67.8132 66.101C71.5874 65.4491 67.5529 46.1273 65.9131 41.7727C64.091 36.9227 65.5747 32.9071 65.6007 27.9006L65.6528 18.696L71.8216 11.4992C74.3464 8.55267 75.3616 4.84997 78.6152 3.98948C82.8319 2.86824 87.1006 3.02469 89.5994 7.0403C92.2023 11.2384 91.1871 17.2097 88.5322 21.3557C82.2592 31.1861 92.0201 36.3229 83.1182 41.8248C75.2574 46.6749 71.1709 56.2967 72.8628 65.762C73.2012 67.5612 75.5438 69.3865 74.6848 71.8376L74.7108 71.8115ZM68.6201 71.8897C68.8283 70.4295 65.9651 67.6134 64.5856 68.161C62.9718 68.8128 64.4554 70.9771 65.1062 71.7594C65.6788 72.4373 68.3858 73.6629 68.6201 71.8637V71.8897Z" fill="var(--fill-0, #70BC96)"/>
<path id="Vector_4" d="M43.7885 65.5534C37.1251 67.1701 40.5869 77.2613 21.1954 70.7424C12.9963 67.9784 17.3952 60.8077 10.055 58.148C7.13976 57.105 3.31351 54.4192 3.41762 51.0295C3.5738 46.5966 8.23297 45.3972 11.7469 44.302C26.3231 39.6867 25.2299 52.62 32.8043 55.0711C40.9513 57.7047 49.0463 60.7816 54.6165 67.8481C50.3217 67.6395 47.6408 64.6147 43.7885 65.5534Z" fill="var(--fill-0, #70BC96)"/>
<path id="Vector_5" d="M33.6632 95.514C32.2577 102.268 21.5858 108.343 16.9266 102.737C13.1785 98.2259 20.5967 94.0017 22.2626 91.1073C24.1627 87.7957 24.2147 83.3629 29.6548 83.9626C33.5331 84.3799 36.9429 81.5898 38.5827 77.8871C41.9404 77.157 44.9338 76.9744 49.0724 76.5572C46.7558 80.7293 44.6735 83.6497 44.3351 88.239C43.8145 94.7839 35.0948 88.8127 33.7153 95.5401L33.6632 95.514Z" fill="var(--fill-0, #70BC96)"/>
<path id="Vector_6" d="M89.5734 62.4244C80.4112 59.53 73.3573 64.6408 75.8821 58.2002C76.5329 56.5314 88.7665 54.5757 93.2955 49.7518C95.6902 47.2224 96.9656 44.1716 101.364 44.6931C105.503 45.1625 110.214 46.1273 113.598 49.3867C108.861 61.5639 97.6944 55.1233 95.0394 59.9212C94.1024 61.6161 92.0721 63.2067 89.5994 62.4244H89.5734Z" fill="var(--fill-0, #70BC96)"/>
<path id="Vector_7" d="M53.6014 78.3825C52.7424 81.8766 50.556 82.9718 48.6299 84.6928C48.0312 81.2769 51.1026 79.3212 53.6014 78.3825Z" fill="var(--fill-0, #70BC96)"/>
<path id="Vector_8" d="M50.2436 76.5833C50.8187 76.5833 51.2848 76.1163 51.2848 75.5403C51.2848 74.9643 50.8187 74.4973 50.2436 74.4973C49.6686 74.4973 49.2025 74.9643 49.2025 75.5403C49.2025 76.1163 49.6686 76.5833 50.2436 76.5833Z" fill="var(--fill-0, #70BC96)"/>
<path id="Vector_9" d="M62.6074 81.4072C63.5184 81.1204 64.3513 80.5207 65.2884 80.2599C66.9542 82.4503 69.9736 81.0943 72.186 79.921C74.4245 78.7215 75.3616 76.3225 74.5807 73.7932C74.5026 73.2978 74.5807 72.2809 74.7369 71.8376C82.5455 73.6107 88.9226 91.003 91.8118 98.1216L97.5122 112.124L104.904 132.254C100.375 130.09 97.6944 126.465 94.5709 122.841L77.6261 103.05C76.5329 101.772 77.2617 99.2428 74.9451 98.617C70.0517 97.3132 72.6025 93.5323 71.5613 92.9326L67.0063 90.3511C66.1473 89.8557 67.2145 87.2742 66.72 86.3355C65.002 84.7188 62.4252 84.0409 62.6074 81.4333V81.4072ZM75.3876 86.0747C75.3876 84.9535 74.4766 84.0669 73.3834 84.0669C72.2901 84.0669 71.3791 84.9796 71.3791 86.0747C71.3791 87.1699 72.2901 88.0825 73.3834 88.0825C74.4766 88.0825 75.3876 87.1699 75.3876 86.0747ZM80.4112 92.9065C80.4112 91.8374 79.5262 90.9508 78.459 90.9508C77.3918 90.9508 76.5068 91.8374 76.5068 92.9065C76.5068 93.9756 77.3918 94.8621 78.459 94.8621C79.5262 94.8621 80.4112 93.9756 80.4112 92.9065ZM85.5128 99.7382C85.5128 98.617 84.6018 97.7304 83.5086 97.7304C82.4154 97.7304 81.5044 98.6431 81.5044 99.7382C81.5044 100.833 82.4154 101.746 83.5086 101.746C84.6018 101.746 85.5128 100.833 85.5128 99.7382ZM90.6145 106.492C90.6145 105.397 89.7295 104.484 88.6103 104.484C87.491 104.484 86.6061 105.371 86.6061 106.492C86.6061 107.613 87.491 108.5 88.6103 108.5C89.7295 108.5 90.6145 107.613 90.6145 106.492ZM94.5969 113.271C94.5969 112.698 94.1284 112.228 93.5558 112.228C92.9831 112.228 92.5146 112.698 92.5146 113.271C92.5146 113.845 92.9831 114.314 93.5558 114.314C94.1284 114.314 94.5969 113.845 94.5969 113.271Z" fill="var(--fill-0, #E4D66D)"/>
<path id="Vector_10" d="M74.5547 73.7932C75.3355 76.3226 74.3985 78.7215 72.16 79.921C69.9475 81.0943 66.9542 82.4503 65.2623 80.2599C66.8501 75.3056 66.5378 80.9379 74.5547 73.7932Z" fill="var(--fill-0, #226E77)"/>
<path id="Vector_11" d="M68.6201 71.8898C68.3858 73.689 65.6788 72.4634 65.1062 71.7855C64.4294 71.0032 62.9718 68.8129 64.5856 68.187C65.9651 67.6134 68.8283 70.4295 68.6201 71.9158V71.8898Z" fill="var(--fill-0, #226E77)"/>
<path id="Vector_12" d="M83.5086 101.746C84.6155 101.746 85.5128 100.847 85.5128 99.7382C85.5128 98.6293 84.6155 97.7304 83.5086 97.7304C82.4017 97.7304 81.5044 98.6293 81.5044 99.7382C81.5044 100.847 82.4017 101.746 83.5086 101.746Z" fill="var(--fill-0, #226E77)"/>
<path id="Vector_13" d="M88.6103 108.5C89.7172 108.5 90.6145 107.601 90.6145 106.492C90.6145 105.383 89.7172 104.484 88.6103 104.484C87.5034 104.484 86.6061 105.383 86.6061 106.492C86.6061 107.601 87.5034 108.5 88.6103 108.5Z" fill="var(--fill-0, #226E77)"/>
<path id="Vector_14" d="M73.3834 88.0826C74.4903 88.0826 75.3876 87.1836 75.3876 86.0748C75.3876 84.9659 74.4903 84.0669 73.3834 84.0669C72.2765 84.0669 71.3791 84.9659 71.3791 86.0748C71.3791 87.1836 72.2765 88.0826 73.3834 88.0826Z" fill="var(--fill-0, #226E77)"/>
<path id="Vector_15" d="M78.459 94.8621C79.5372 94.8621 80.4112 93.9866 80.4112 92.9065C80.4112 91.8264 79.5372 90.9508 78.459 90.9508C77.3808 90.9508 76.5068 91.8264 76.5068 92.9065C76.5068 93.9866 77.3808 94.8621 78.459 94.8621Z" fill="var(--fill-0, #226E77)"/>
<path id="Vector_16" d="M93.5558 114.314C94.1308 114.314 94.5969 113.847 94.5969 113.271C94.5969 112.695 94.1308 112.228 93.5558 112.228C92.9808 112.228 92.5146 112.695 92.5146 113.271C92.5146 113.847 92.9808 114.314 93.5558 114.314Z" fill="var(--fill-0, #70BC96)"/>
</g>
</svg>
