<svg preserveAspectRatio="none" width="100%" height="100%" overflow="visible" style="display: block;" viewBox="0 0 245.766 205.643" fill="none" xmlns="http://www.w3.org/2000/svg">
<g id="Group">
<path id="Vector" d="M56.9842 112.635C55.7914 113.631 54.1016 114.129 53.4804 116.419C45.1805 123.737 36.4333 130.159 26.0211 136.282C28.4316 137.352 30.2953 137.85 31.3887 139.767C35.8866 147.806 26.5181 150.271 18.3425 155.622L1.94152 144.222C0.823267 143.45 0.177168 142.977 0.0280682 141.882C-0.170732 140.289 0.699017 139.543 2.23972 138.87C26.2945 128.69 43.2919 115.871 56.1145 93.1456L36.5824 85.6533C31.7863 88.466 27.2885 90.6565 22.0451 92.125C18.4419 87.3211 15.6587 82.8407 13.1737 77.1904L39.8129 61.6086C39.3656 57.8002 36.2842 55.0871 35.2156 50.8805L58.5001 37.6883C61.6809 40.4512 62.2276 44.0604 64.8368 47.2713L88.1958 33.2079C90.2086 31.9882 92.3457 32.3865 93.3894 34.4773C95.8744 39.4057 99.2043 43.9608 101.143 49.1382L88.0715 57.7007C86.5805 61.4094 86.6551 66.6864 86.4563 71.565C123.781 63.1518 167.393 54.5644 204.941 60.364C208.271 52.1749 202.531 48.8146 208.221 42.9403C212.272 38.7586 220.373 42.8905 225.268 45.753C227.554 47.0971 227.281 51.1792 225.716 53.0212C220.82 58.8457 221.069 69.4244 209.662 67.6571C205.016 66.9353 200.642 67.8562 196.194 68.2545L185.384 69.2252C129.869 74.2035 125.173 88.5656 75.4477 93.1456C69.6825 100.538 63.6688 106.985 56.9345 112.561L56.9842 112.635ZM76.6405 89.4866C83.2506 89.1381 89.6619 88.466 95.4023 86.4748C94.1846 85.2053 93.464 83.8612 93.8864 82.6415C94.1349 81.9197 95.3029 81.5961 96.3714 81.7703C97.1666 81.8948 98.0861 82.8407 98.0115 84.0852C97.9867 84.7075 97.2412 85.1555 96.8187 86.4499C112.027 85.4044 108.647 79.8288 111.182 80.1275C112.027 80.2271 113.592 82.1437 114.437 81.9695C120.053 80.6751 125.346 78.7336 130.59 76.6428C131.733 76.1947 131.981 74.079 133.1 74.0043C135.361 73.8052 136.802 75.6471 139.238 73.9794C140.008 73.4318 139.337 72.1624 139.163 71.0423C138.84 69.0261 140.356 68.4287 141.847 68.6279C142.891 68.7772 142.717 71.4157 143.661 71.7641C149.153 73.7554 156.409 67.4082 156.21 67.3086L159.292 69.1506C168.834 74.8257 188.391 65.7156 203.599 63.6745C196.343 62.8282 188.938 61.6584 181.557 62.6291C180.538 62.7536 180.19 65.5663 178.65 65.0435C176.662 64.3715 177.979 60.0404 165.852 63.1767C165.156 64.4213 165.355 66.5868 163.491 66.4623C162.174 66.3877 162.323 64.5955 161.13 63.8488C158.844 62.4051 152.706 62.7038 150.818 64.8195C149.625 66.1636 149.476 68.3043 147.463 67.7069C146.593 67.458 146.444 65.0435 145.5 64.8693C142.717 64.3217 138.244 64.8693 135.734 66.2881C134.417 67.0348 134.268 70.42 132.926 69.3248L130.242 67.1095C129.198 66.2632 101.714 71.6397 97.6636 73.3572C96.5702 73.8052 97.3903 77.1655 95.1289 77.1904C93.9361 77.1904 93.0912 74.4275 92.0972 74.5022C88.7922 74.7511 85.1641 76.2445 82.0827 74.8755C81.7099 76.9913 81.1881 78.6092 79.7716 78.4847C79.051 78.4349 78.2309 78.1114 77.6594 76.8917C77.3115 76.145 77.6594 74.7511 79.0261 74.4275C79.6722 74.2781 80.7656 74.9004 82.2318 74.6764C82.6791 68.4536 84.2446 61.7081 84.3192 55.5352C84.3192 54.3653 82.2318 53.2701 83.524 52.3242C86.9533 49.8102 87.2018 54.6142 89.811 52.4984C90.4074 52.0255 92.0724 51.6024 91.4014 50.308C90.7802 49.1133 90.0595 47.9683 90.979 47.0722C91.6748 46.4001 92.7185 45.8027 93.7373 46.5495C94.3337 46.9975 94.1598 48.3914 96.1478 48.8395C94.6071 37.1904 89.3637 45.6534 89.7365 36.7175L63.3955 52.5482C56.4127 56.7548 64.2155 45.0062 57.0836 43.0896C55.7914 42.7411 53.7786 44.4089 54.6483 45.2303C55.866 46.3752 56.3381 47.6198 55.5181 48.6901C54.8471 49.5862 53.5549 49.8849 52.5112 48.9639C52.0142 48.5408 51.7657 47.5949 51.2439 46.0766C47.3921 48.0678 43.6398 49.8849 39.7135 52.5482C41.1796 55.8587 42.8943 58.6465 44.6835 61.4094C45.926 59.916 46.8951 59.3186 48.3364 59.4182C49.0074 59.4679 49.6535 60.5134 49.5789 61.6584C49.5541 62.3304 49.0819 63.0771 47.9885 63.4505C47.2927 63.6745 46.4727 63.2265 45.3544 62.7287C42.3724 61.4343 42.6209 68.0305 41.0057 68.4287C39.3904 68.827 37.1788 66.761 35.2156 68.1549C33.5258 69.3497 35.8866 73.5812 33.0537 73.8052C32.3579 73.855 31.6621 73.3572 31.1154 72.5358C30.0965 70.9925 28.9534 71.9384 28.034 72.5358C27.1145 73.1331 25.8472 73.6807 26.7915 75C27.5867 76.0952 27.9594 77.2153 27.2139 78.0367C26.6424 78.6839 25.8969 78.9825 25.1017 78.8083C24.2568 78.6341 23.8343 77.7878 23.1137 76.6179C22.2439 75.1991 17.8703 77.6135 18.417 79.0074C19.8583 82.6166 21.5233 85.8276 24.0083 87.9184C24.7289 86.0765 24.2568 84.583 25.1762 83.911C26.8909 82.6415 28.6304 86.0018 31.6869 84.4337C34.2465 83.1394 30.6432 81.2227 32.0845 79.1568C34.9671 75.0498 35.1908 82.9402 39.0177 82.766C41.4778 82.6664 43.0434 83.8612 44.9817 84.9315C49.6038 87.4953 55.2447 87.9682 59.4444 91.1792C60.8111 92.9464 57.2327 95.9583 58.0776 97.6757C58.6243 98.7709 60.9105 99.0447 60.8111 100.439C60.7365 101.484 59.7177 102.754 58.4752 102.554C57.8043 102.455 57.0091 101.633 55.692 100.862C50.7966 108.951 43.9877 115.597 37.1539 122.119C39.1419 123.886 40.6081 122.193 42.0494 121.073C50.7717 114.203 59.0468 107.209 66.0544 98.6963C65.2095 97.1032 63.4949 96.2321 63.8677 94.7884C64.2404 93.3447 66.2035 93.4194 66.8496 93.7927C67.2969 94.0665 68.0176 95.2115 68.6388 95.2613C71.4469 94.3901 70.9002 90.8805 71.6208 88.7398C72.7391 87.1966 75.2241 89.5115 76.6654 89.4368L76.6405 89.4866ZM223.578 49.6858C220.298 46.5246 215.254 43.5626 211.004 45.5289C207.153 47.3211 211.004 59.4679 209.066 63.6994C217.962 66.8108 218.335 56.6055 223.578 49.6858ZM34.5944 124.185L30.8669 127.172L32.0597 128.665L35.7872 125.678L34.5944 124.185ZM13.7701 137.974C11.3845 139.368 8.07946 139.294 5.29626 141.708C18.1934 154.602 17.2739 140.862 18.5164 151.291C21.6227 150.096 23.8343 148.105 26.4436 146.089C24.6544 145.367 23.8095 145.915 22.5918 145.691C21.5481 145.491 21.5978 143.6 22.3682 142.554C22.7658 142.007 23.561 141.808 24.5798 141.982C25.8472 142.181 25.8472 143.5 26.1205 145.168C26.369 146.736 28.0091 145.641 28.4316 144.994C28.8789 144.297 29.5498 142.679 28.5558 141.683C25.9963 139.045 20.9269 138.846 18.0194 141.136C16.8018 142.081 15.7333 142.878 14.615 141.957C13.6956 141.185 13.8198 139.791 13.9192 138.671C18.7649 136.854 24.0828 134.639 28.357 130.009C22.6664 131.279 18.3922 135.261 13.7701 137.974Z" fill="var(--fill-0, #226E77)"/>
<path id="Vector_2" d="M61.3578 115.199C64.7125 115.548 67.7939 116.991 71.4966 117.713C79.2249 119.206 86.9284 123.164 89.7613 130.905C92.3954 138.124 89.0655 145.964 81.7348 148.329C86.0338 158.509 74.9507 164.782 86.3072 172.747C84.344 177.327 80.1444 177.078 76.4666 176.033C59.4692 171.179 76.7648 153.133 61.9542 147.906L58.6492 159.455C61.7306 161.87 61.1342 170.059 57.1085 170.183C51.1196 170.333 45.9757 167.072 40.6329 166.076C41.4281 157.265 41.5524 158.261 46.6963 155.597L56.1642 123.538C55.369 121.148 54.1265 119.406 54.0271 117.29C55.4684 116.842 57.4315 116.643 58.0031 118.783C58.4255 120.426 60.3887 122.193 59.7177 124.434L49.3056 158.684C47.6903 159.605 43.267 160.526 44.9568 162.766C47.243 164.857 52.5361 165.977 55.7914 166.549C58.9971 165.429 55.3193 161.795 55.3193 160.078C55.3193 154.751 58.0528 149.225 59.6432 143.849C66.9739 143.699 71.3723 149.997 72.093 156.817C72.5154 160.824 70.9996 164.732 72.0184 168.615C72.8633 171.801 77.0381 172.747 80.1692 172.722C72.1427 161.198 83.8222 155.299 76.8642 149.25C72.913 145.815 82.3809 146.412 85.6114 140.961C87.4254 137.875 87.4751 134.34 86.0338 130.93C84.518 127.321 81.3123 124.683 77.5848 123.513L58.0776 117.365C57.7546 115.622 60.2147 114.975 61.333 115.199H61.3578Z" fill="var(--fill-0, #226E77)"/>
<path id="Vector_3" d="M61.3578 115.199C60.2147 114.975 57.7794 115.622 58.1025 117.365L77.6097 123.513C81.3372 124.683 84.5428 127.346 86.0587 130.93C87.5 134.34 87.4503 137.875 85.6362 140.961C82.4057 146.412 72.9627 145.815 76.889 149.25C83.847 155.299 72.1924 161.198 80.1941 172.722C77.0878 172.722 72.913 171.801 72.0433 168.615C70.9996 164.732 72.5154 160.824 72.1178 156.817C71.422 150.022 67.0236 143.699 59.668 143.849C58.0776 149.225 55.3441 154.751 55.3441 160.078C55.3441 161.82 59.0468 165.429 55.8163 166.549C52.5609 165.977 47.2679 164.857 44.9817 162.766C43.267 160.526 47.7152 159.605 49.3304 158.684L59.7426 124.434C60.4135 122.193 58.4504 120.426 58.0279 118.783C57.4564 116.643 55.4932 116.842 54.0519 117.29C54.0519 116.991 53.5798 116.717 53.5052 116.394C54.1265 114.104 55.8163 113.581 57.0091 112.61C57.3818 113.805 59.8917 115.025 61.3827 115.174L61.3578 115.199ZM76.566 141.857C79.9953 140.812 81.5111 137.277 81.6602 134.714C82.1075 127.321 71.4966 124.558 65.4332 124.533C63.7434 130.009 61.8299 134.589 61.4323 140.115C66.2035 142.056 71.5214 143.426 76.566 141.882V141.857Z" fill="var(--fill-0, #D1801F)"/>
<path id="Vector_4" d="M133.969 188.429C123.383 196.145 109.89 195.846 101.292 186.288C83.6979 166.748 92.9421 126.997 119.134 118.111C133.174 116.02 143.288 122.592 148.333 135.361C155.241 152.934 149.053 177.452 133.969 188.453V188.429ZM127.906 187.806C145.326 178.771 153.079 151.067 143.164 132.697C140.157 127.122 135.187 123.015 130.316 121.92C123.657 120.426 117.469 121.721 112.077 125.852C96.5951 137.725 91.4014 160.65 99.8753 178.074C105.268 189.15 117.047 193.457 127.906 187.831V187.806Z" fill="var(--fill-0, #226E77)"/>
<path id="Vector_5" d="M180.091 144.073C167.591 158.808 165.231 186.089 177.208 201.496C175.643 203.089 172.114 206.972 169.505 205.18C159.54 198.36 152.234 187.035 151.315 174.913C150.445 163.264 152.259 151.913 158.372 142.231C167.268 128.142 189.807 117.713 195.821 124.135C197.014 125.404 198.853 128.292 197.734 130.208C190.528 132.374 183.794 137.427 180.066 144.048L180.091 144.073ZM168.685 193.631C161.155 170.208 168.958 145.317 188.118 130.582C189.981 129.138 192.417 129.287 193.883 126.524C186.9 124.931 180.588 128.142 174.699 131.528C165.877 136.58 159.565 144.297 156.856 154.328C151.861 172.847 154.669 189.847 171.244 202.368C172.959 198.858 169.753 196.916 168.71 193.656L168.685 193.631Z" fill="var(--fill-0, #226E77)"/>
<path id="Vector_6" d="M245.099 128.167C245.67 129.213 245.919 130.432 245.67 130.955C245.372 131.577 243.98 132.498 243.011 132.225L225.219 127.421L227.679 104.67C227.778 103.674 228.747 103.002 229.344 102.754C230.139 102.43 231.257 102.853 231.853 103.923L245.123 128.192L245.099 128.167ZM230.512 114.427V118.062C229.344 119.431 229.12 120.999 229.791 123.513C230.362 125.678 233.568 125.379 235.805 126.027C236.5 126.3 238.19 127.744 238.985 126.798C240.874 124.558 237.32 123.363 236.724 121.521C235.829 118.833 234.264 116.244 232.201 113.531C232.027 112.884 232.823 110.744 231.257 110.793C229.816 110.843 230.487 112.984 230.512 114.427Z" fill="var(--fill-0, #226E77)"/>
<path id="Vector_7" d="M212.048 133.942C191.472 139.866 189.36 153.382 187.074 150.918C186.552 150.345 184.887 149.225 185.657 148.08C191.746 139.119 200.319 132.847 210.756 129.785C212.147 129.387 213.688 129.984 214.185 131.08C214.533 131.851 213.241 133.594 212.048 133.917V133.942Z" fill="var(--fill-0, #226E77)"/>
<path id="Vector_8" d="M84.9156 15.0125C81.1135 17.8003 82.853 8.3168 78.3055 6.42508C80.4177 3.8613 83.1512 4.68271 85.338 2.89055C86.506 1.9198 88.5437 -1.1418 90.1092 0.451225C91.8239 2.1936 90.7305 5.55389 92.2712 7.42072C93.1658 8.51593 94.2343 9.46179 94.2095 10.5321C94.1598 14.216 90.4074 11.005 84.9156 15.0374V15.0125ZM88.0218 8.19235C88.0218 7.37094 87.3509 6.69888 86.5308 6.69888C85.7108 6.69888 85.0398 7.37094 85.0398 8.19235C85.0398 9.01375 85.7108 9.68581 86.5308 9.68581C87.3509 9.68581 88.0218 9.01375 88.0218 8.19235Z" fill="var(--fill-0, #226E77)"/>
<path id="Vector_9" d="M76.6405 89.4866C75.1992 89.5612 72.7142 87.2464 71.596 88.7896C70.8753 90.9303 71.4221 94.415 68.614 95.3111C68.0176 95.2364 67.297 94.1163 66.8248 93.8425C66.2036 93.4691 64.2404 93.3198 63.8428 94.8382C63.4452 96.3565 65.1847 97.153 66.0296 98.7461C59.0219 107.284 50.7469 114.253 42.0245 121.123C40.5832 122.268 39.1171 123.936 37.1291 122.169C43.938 115.647 50.7469 109.001 55.6672 100.912C56.9842 101.683 57.7794 102.505 58.4504 102.604C59.6929 102.803 60.7117 101.534 60.7863 100.488C60.9105 99.0945 58.5995 98.8207 58.0528 97.7255C57.2079 96.008 60.7863 92.9713 59.4195 91.2289C55.195 87.9931 49.5789 87.5451 44.9568 84.9813C43.0185 83.911 41.453 82.7162 38.9928 82.8158C35.1659 82.99 34.9423 75.0995 32.0597 79.2066C30.6184 81.2725 34.2216 83.1891 31.6621 84.4835C28.6055 86.0267 26.8412 82.6913 25.1514 83.9608C24.2319 84.6328 24.7041 86.1263 23.9834 87.9682C21.4984 85.8774 19.8335 82.6664 18.3922 79.0572C17.8455 77.6633 22.2191 75.224 23.0888 76.6677C23.8095 77.8624 24.2319 78.6838 25.0768 78.8581C25.872 79.0323 26.5927 78.7336 27.1891 78.0865C27.9346 77.2402 27.5618 76.145 26.7666 75.0498C25.8223 73.7305 27.1145 73.158 28.0091 72.5855C28.9037 72.013 30.0965 71.0672 31.0905 72.5855C31.6372 73.4069 32.333 73.9297 33.0288 73.855C35.8617 73.631 33.501 69.4244 35.1908 68.2047C37.1291 66.8108 39.3656 68.8768 40.9808 68.4785C42.5961 68.0803 42.3227 61.4841 45.3296 62.7785C46.4478 63.2763 47.2679 63.7243 47.9637 63.5003C49.0571 63.1269 49.5292 62.4051 49.5541 61.7081C49.6038 60.5632 48.9825 59.5177 48.3116 59.4679C46.8703 59.3684 45.9011 59.9658 44.6586 61.4592C42.8694 58.6714 41.1796 55.9085 39.6886 52.598C43.6149 49.9098 47.3673 48.0927 51.219 46.1263C51.716 47.6447 51.9894 48.5906 52.4864 49.0137C53.5301 49.9347 54.8223 49.6111 55.4932 48.7399C56.3133 47.6447 55.8411 46.425 54.6235 45.28C53.7537 44.4586 55.7666 42.7909 57.0588 43.1394C64.2156 45.0311 56.4127 56.7797 63.3707 52.598L89.7116 36.7673C89.314 45.7032 94.5822 37.2402 96.1229 48.8892C94.1349 48.4412 94.3089 47.0473 93.7125 46.5993C92.6936 45.8276 91.6251 46.4499 90.9541 47.122C90.0347 48.0181 90.7553 49.1879 91.3766 50.3578C92.0475 51.6521 90.3826 52.0753 89.7862 52.5482C87.1521 54.664 86.9036 49.86 83.4991 52.374C82.2069 53.3199 84.3192 54.4151 84.2943 55.5849C84.2198 61.7579 82.6542 68.5034 82.2069 74.7262C80.7408 74.9502 79.6474 74.303 79.0013 74.4773C77.6345 74.8008 77.2618 76.1947 77.6345 76.9415C78.2309 78.186 79.051 78.4847 79.7468 78.5345C81.1384 78.659 81.6602 77.0659 82.0578 74.9253C85.1392 76.2694 88.7673 74.8008 92.0724 74.5519C93.0912 74.4773 93.9113 77.2651 95.1041 77.2402C97.3654 77.2153 96.5454 73.8799 97.6388 73.4069C101.689 71.7144 129.198 66.313 130.217 67.1593L132.901 69.3746C134.243 70.4698 134.392 67.0846 135.709 66.3379C138.219 64.944 142.692 64.3715 145.475 64.9191C146.419 65.0933 146.568 67.5078 147.438 67.7567C149.451 68.3541 149.6 66.2134 150.793 64.8693C152.657 62.7536 158.795 62.43 161.106 63.8986C162.298 64.6702 162.174 66.4374 163.466 66.5121C165.33 66.6117 165.156 64.471 165.827 63.2265C177.954 60.0902 176.637 64.4213 178.625 65.0933C180.166 65.616 180.513 62.8033 181.532 62.6789C188.913 61.7081 196.318 62.8531 203.574 63.7243C188.366 65.7654 168.809 74.8755 159.267 69.2004L156.185 67.3584C156.384 67.4829 149.103 73.8052 143.636 71.8139C142.692 71.4654 142.841 68.827 141.822 68.6776C140.331 68.4785 138.815 69.051 139.138 71.0921C139.312 72.2122 139.983 73.4816 139.213 74.0292C136.777 75.7218 135.336 73.8799 133.075 74.0541C131.957 74.1537 131.708 76.2445 130.565 76.6926C125.297 78.7834 120.004 80.7249 114.413 82.0193C113.568 82.2184 111.977 80.2769 111.157 80.1773C108.622 79.8786 112.002 85.4293 96.7939 86.4996C97.2163 85.2053 97.9618 84.7324 97.9867 84.135C98.0612 82.8904 97.1418 81.9446 96.3466 81.8201C95.3029 81.6459 94.1101 81.9695 93.8616 82.6913C93.4391 83.911 94.1846 85.2551 95.3774 86.5245C89.6619 88.5407 83.2506 89.1879 76.6157 89.5364L76.6405 89.4866ZM86.5805 44.608C86.5805 43.4381 85.6362 42.4673 84.4434 42.4673C83.2506 42.4673 82.3063 43.4132 82.3063 44.608C82.3063 45.8028 83.2506 46.7486 84.4434 46.7486C85.6362 46.7486 86.5805 45.8028 86.5805 44.608ZM79.4237 49.6609C79.4237 48.491 78.4794 47.5202 77.2866 47.5202C76.0938 47.5202 75.1495 48.4661 75.1495 49.6609C75.1495 50.8556 76.0938 51.8015 77.2866 51.8015C78.4794 51.8015 79.4237 50.8556 79.4237 49.6609ZM48.6843 52.5731C48.6843 51.4032 47.74 50.4325 46.5472 50.4325C45.3544 50.4325 44.4101 51.3783 44.4101 52.5731C44.4101 53.7679 45.3544 54.7138 46.5472 54.7138C47.74 54.7138 48.6843 53.7679 48.6843 52.5731ZM72.0433 54.7635C72.0433 53.5937 71.099 52.6229 69.9062 52.6229C68.7134 52.6229 67.7691 53.5688 67.7691 54.7635C67.7691 55.9583 68.7134 56.9042 69.9062 56.9042C71.099 56.9042 72.0433 55.9583 72.0433 54.7635ZM56.7606 56.2321C56.7606 55.0373 55.7914 54.0915 54.6235 54.0915C53.4555 54.0915 52.4864 55.0622 52.4864 56.2321C52.4864 57.402 53.4555 58.3727 54.6235 58.3727C55.7914 58.3727 56.7606 57.402 56.7606 56.2321ZM80.1444 58.4972C80.1444 57.3024 79.1752 56.3317 77.9824 56.3317C76.7896 56.3317 75.8205 57.3024 75.8205 58.4972C75.8205 59.692 76.7896 60.6627 77.9824 60.6627C79.1752 60.6627 80.1444 59.692 80.1444 58.4972ZM64.8865 59.9409C64.8865 58.7461 63.9174 57.7754 62.7246 57.7754C61.5318 57.7754 60.5626 58.7461 60.5626 59.9409C60.5626 61.1356 61.5318 62.1064 62.7246 62.1064C63.9174 62.1064 64.8865 61.1356 64.8865 59.9409ZM69.931 75C71.4717 74.2781 72.8882 74.7013 73.3355 73.8799C73.6585 73.2825 74.1307 72.3117 73.5094 71.5899C72.6148 70.5196 71.3475 69.9969 71.2481 68.827C71.0742 66.7112 74.3046 63.6248 72.093 62.0068C71.3227 61.4592 70.3535 61.6833 69.4837 61.8824C68.6637 62.0815 68.937 63.8986 68.2413 64.5208C63.0228 69.0012 56.2387 70.4947 50.722 75.7218C56.2387 78.6341 61.9294 79.5053 67.4212 80.2271C68.8128 78.5096 68.0425 75.8712 69.931 74.9751V75ZM57.68 65.168C57.68 63.9732 56.7109 63.0025 55.5181 63.0025C54.3253 63.0025 53.3561 63.9732 53.3561 65.168C53.3561 66.3628 54.3253 67.3335 55.5181 67.3335C56.7109 67.3335 57.68 66.3628 57.68 65.168ZM80.9644 67.3833C80.9644 66.2134 80.0201 65.2427 78.8273 65.2427C77.6345 65.2427 76.6902 66.1885 76.6902 67.3833C76.6902 68.5781 77.6345 69.5239 78.8273 69.5239C80.0201 69.5239 80.9644 68.5781 80.9644 67.3833ZM50.3493 70.196C50.3493 69.0261 49.405 68.0554 48.2122 68.0554C47.0194 68.0554 46.0751 69.0012 46.0751 70.196C46.0751 71.3908 47.0194 72.3366 48.2122 72.3366C49.405 72.3366 50.3493 71.3908 50.3493 70.196ZM127.807 72.1873C127.807 70.9925 126.837 69.9969 125.62 69.9969C124.402 69.9969 123.433 70.9676 123.433 72.1873C123.433 73.4069 124.402 74.3777 125.62 74.3777C126.837 74.3777 127.807 73.4069 127.807 72.1873ZM112.499 73.5065C112.499 72.3117 111.53 71.341 110.337 71.341C109.144 71.341 108.175 72.3117 108.175 73.5065C108.175 74.7013 109.144 75.672 110.337 75.672C111.53 75.672 112.499 74.7013 112.499 73.5065ZM43.0931 75.3236C43.0931 74.1537 42.1488 73.1829 40.956 73.1829C39.7632 73.1829 38.8189 74.1288 38.8189 75.3236C38.8189 76.5183 39.7632 77.4642 40.956 77.4642C42.1488 77.4642 43.0931 76.5183 43.0931 75.3236ZM120.55 77.2651C120.55 76.0952 119.606 75.1244 118.413 75.1244C117.221 75.1244 116.276 76.0703 116.276 77.2651C116.276 78.4598 117.221 79.4057 118.413 79.4057C119.606 79.4057 120.55 78.4598 120.55 77.2651ZM51.0948 79.1817C51.0948 78.0118 50.1505 77.041 48.9577 77.041C47.7649 77.041 46.8206 77.9869 46.8206 79.1817C46.8206 80.3764 47.7649 81.3223 48.9577 81.3223C50.1505 81.3223 51.0948 80.3764 51.0948 79.1817ZM105.293 78.6838C105.293 77.4642 104.299 76.4685 103.081 76.4685C101.863 76.4685 100.869 77.4642 100.869 78.6838C100.869 79.9035 101.863 80.8992 103.081 80.8992C104.299 80.8992 105.293 79.9035 105.293 78.6838ZM89.9104 80.0031C89.9104 78.8083 88.9413 77.8376 87.7485 77.8376C86.5557 77.8376 85.5865 78.8083 85.5865 80.0031C85.5865 81.1979 86.5557 82.1686 87.7485 82.1686C88.9413 82.1686 89.9104 81.1979 89.9104 80.0031ZM74.5531 81.4717C74.5531 80.2769 73.584 79.3061 72.3912 79.3061C71.1984 79.3061 70.2293 80.2769 70.2293 81.4717C70.2293 82.6664 71.1984 83.6372 72.3912 83.6372C73.584 83.6372 74.5531 82.6664 74.5531 81.4717ZM59.1462 82.8655C59.1462 81.6957 58.2019 80.7249 57.0091 80.7249C55.8163 80.7249 54.872 81.6708 54.872 82.8655C54.872 84.0603 55.8163 85.0062 57.0091 85.0062C58.2019 85.0062 59.1462 84.0603 59.1462 82.8655ZM82.6542 85.1555C82.6542 83.9608 81.6851 82.99 80.4923 82.99C79.2995 82.99 78.3303 83.9608 78.3303 85.1555C78.3303 86.3503 79.2995 87.3211 80.4923 87.3211C81.6851 87.3211 82.6542 86.3503 82.6542 85.1555ZM67.2224 86.5743C67.2224 85.4044 66.2781 84.4586 65.1102 84.4586C63.9422 84.4586 62.9979 85.4044 62.9979 86.5743C62.9979 87.7442 63.9422 88.6901 65.1102 88.6901C66.2781 88.6901 67.2224 87.7442 67.2224 86.5743Z" fill="var(--fill-0, #E4D66D)"/>
<path id="Vector_10" d="M223.578 49.6858C218.335 56.6055 217.962 66.8357 209.066 63.6994C211.029 59.4679 207.153 47.3211 211.004 45.5289C215.254 43.5377 220.298 46.5246 223.578 49.6858Z" fill="var(--fill-0, #E4D66D)"/>
<path id="Vector_11" d="M13.7701 137.974C13.7701 138.198 13.9192 138.447 13.8944 138.671C13.795 139.791 13.6707 141.185 14.5902 141.957C15.7084 142.878 16.7769 142.081 17.9946 141.136C20.902 138.846 25.9714 139.045 28.531 141.683C29.5001 142.704 28.854 144.297 28.4067 144.994C27.9843 145.641 26.369 146.736 26.0957 145.168C25.8223 143.5 25.8472 142.181 24.555 141.982C23.5361 141.808 22.7409 142.007 22.3433 142.554C21.573 143.6 21.5233 145.516 22.567 145.691C23.8095 145.915 24.6295 145.367 26.4187 146.089C23.8343 148.105 21.5978 150.096 18.4916 151.291C17.2491 140.862 18.1685 154.602 5.27141 141.708C8.07946 139.294 11.3845 139.368 13.7453 137.974H13.7701Z" fill="var(--fill-0, #E4D66D)"/>
<path id="Vector_12" d="M13.8944 138.646C13.8944 138.422 13.7701 138.173 13.7701 137.949C18.3922 135.236 22.6664 131.254 28.357 129.984C24.058 134.614 18.7649 136.829 13.9192 138.646H13.8944Z" fill="var(--fill-0, #70BC96)"/>
<path id="Vector_13" d="M34.5965 124.176L30.8687 127.159L32.0475 128.637L35.7752 125.654L34.5965 124.176Z" fill="var(--fill-0, #E4D66D)"/>
<path id="Vector_14" d="M76.566 141.857C71.5214 143.401 66.2035 142.032 61.4324 140.09C61.83 134.564 63.7434 129.984 65.4332 124.508C71.4966 124.508 82.1075 127.296 81.6602 134.689C81.5111 137.253 79.9953 140.787 76.566 141.832V141.857ZM76.069 138.348C78.5291 137.676 78.8273 133.594 77.1375 131.901C75.1744 129.91 70.3286 127.371 68.0673 128.889C65.955 131.378 65.806 135.236 65.0853 138.323C68.8873 138.622 72.2918 139.368 76.069 138.323V138.348Z" fill="var(--fill-0, #226E77)"/>
<path id="Vector_15" d="M127.906 187.806C117.047 193.457 105.268 189.15 99.8753 178.049C91.4014 160.625 96.5951 137.725 112.077 125.828C117.469 121.696 123.657 120.401 130.316 121.895C135.187 122.99 140.182 127.122 143.164 132.673C153.079 151.042 145.326 178.746 127.906 187.781V187.806ZM135.46 138.572C134.442 134.191 131.236 131.154 127.807 130.333C124.377 129.511 120.476 131.08 117.568 134.066C102.087 149.922 101.714 179.567 113.369 182.554C126.415 185.89 140.281 159.43 135.485 138.597L135.46 138.572Z" fill="var(--fill-0, #E4D66D)"/>
<path id="Vector_16" d="M168.685 193.631C169.729 196.916 172.934 198.833 171.22 202.343C154.645 189.822 151.837 172.847 156.831 154.303C159.54 144.272 165.852 136.556 174.674 131.503C180.563 128.118 186.875 124.907 193.858 126.5C192.392 129.287 189.956 129.113 188.093 130.557C168.933 145.292 161.155 170.183 168.66 193.606L168.685 193.631Z" fill="var(--fill-0, #D1801F)"/>
<path id="Vector_17" d="M229.493 123.612C228.822 121.098 229.045 119.53 230.189 118.161C231.928 118.012 233.096 119.455 232.922 121.198C232.748 122.816 231.033 123.488 229.493 123.612Z" fill="var(--fill-0, #E4D66D)"/>
<path id="Vector_18" d="M235.506 126.126C235.854 124.633 236.252 123.164 236.426 121.646C237.022 123.488 240.576 124.683 238.687 126.923C237.892 127.869 236.202 126.425 235.506 126.151V126.126Z" fill="var(--fill-0, #E4D66D)"/>
<path id="Vector_19" d="M231.903 113.656L230.238 114.552C230.213 113.108 229.518 110.968 230.984 110.918C232.549 110.868 231.754 113.009 231.928 113.656H231.903Z" fill="var(--fill-0, #70BC96)"/>
<path id="Vector_20" d="M86.506 9.68581C87.3294 9.68581 87.997 9.01716 87.997 8.19235C87.997 7.36753 87.3294 6.69888 86.506 6.69888C85.6825 6.69888 85.015 7.36753 85.015 8.19235C85.015 9.01716 85.6825 9.68581 86.506 9.68581Z" fill="var(--fill-0, #70BC96)"/>
<path id="Vector_21" d="M69.931 75C68.0424 75.8712 68.8128 78.5345 67.4212 80.252C61.9293 79.5301 56.2387 78.659 50.722 75.7467C56.2387 70.5196 62.9979 69.0261 68.2412 64.5457C68.937 63.9483 68.6637 62.1064 69.4837 61.9073C70.3535 61.7081 71.3475 61.4592 72.093 62.0317C74.3046 63.6496 71.0741 66.7361 71.2481 68.8519C71.3475 70.0218 72.6148 70.5445 73.5094 71.6148C74.1307 72.3615 73.6585 73.3323 73.3355 73.9048C72.8882 74.7262 71.4717 74.303 69.931 75.0249V75ZM65.2841 76.4188C66.3775 74.4026 67.2721 71.9633 67.62 68.9265L57.9285 74.8506C60.3141 75.9209 62.8985 76.7672 65.2841 76.4188Z" fill="var(--fill-0, #226E77)"/>
<path id="Vector_22" d="M72.3912 83.6372C73.5852 83.6372 74.5531 82.6676 74.5531 81.4717C74.5531 80.2757 73.5852 79.3061 72.3912 79.3061C71.1972 79.3061 70.2293 80.2757 70.2293 81.4717C70.2293 82.6676 71.1972 83.6372 72.3912 83.6372Z" fill="var(--fill-0, #226E77)"/>
<path id="Vector_23" d="M78.0073 60.6627C79.2013 60.6627 80.1692 59.6932 80.1692 58.4972C80.1692 57.3012 79.2013 56.3317 78.0073 56.3317C76.8133 56.3317 75.8453 57.3012 75.8453 58.4972C75.8453 59.6932 76.8133 60.6627 78.0073 60.6627Z" fill="var(--fill-0, #226E77)"/>
<path id="Vector_24" d="M125.645 74.3777C126.852 74.3777 127.831 73.397 127.831 72.1873C127.831 70.9776 126.852 69.9969 125.645 69.9969C124.437 69.9969 123.458 70.9776 123.458 72.1873C123.458 73.397 124.437 74.3777 125.645 74.3777Z" fill="var(--fill-0, #226E77)"/>
<path id="Vector_25" d="M103.081 80.8992C104.302 80.8992 105.293 79.9073 105.293 78.6839C105.293 77.4604 104.302 76.4685 103.081 76.4685C101.859 76.4685 100.869 77.4604 100.869 78.6839C100.869 79.9073 101.859 80.8992 103.081 80.8992Z" fill="var(--fill-0, #226E77)"/>
<path id="Vector_26" d="M87.7485 82.1686C88.9425 82.1686 89.9104 81.1991 89.9104 80.0031C89.9104 78.8071 88.9425 77.8376 87.7485 77.8376C86.5545 77.8376 85.5865 78.8071 85.5865 80.0031C85.5865 81.1991 86.5545 82.1686 87.7485 82.1686Z" fill="var(--fill-0, #226E77)"/>
<path id="Vector_27" d="M80.4923 87.3211C81.6863 87.3211 82.6542 86.3515 82.6542 85.1555C82.6542 83.9595 81.6863 82.99 80.4923 82.99C79.2983 82.99 78.3303 83.9595 78.3303 85.1555C78.3303 86.3515 79.2983 87.3211 80.4923 87.3211Z" fill="var(--fill-0, #226E77)"/>
<path id="Vector_28" d="M84.4434 46.7486C85.6237 46.7486 86.5805 45.7902 86.5805 44.608C86.5805 43.4257 85.6237 42.4673 84.4434 42.4673C83.2631 42.4673 82.3063 43.4257 82.3063 44.608C82.3063 45.7902 83.2631 46.7486 84.4434 46.7486Z" fill="var(--fill-0, #226E77)"/>
<path id="Vector_29" d="M46.5721 54.7137C47.7524 54.7137 48.7092 53.7554 48.7092 52.5731C48.7092 51.3909 47.7524 50.4325 46.5721 50.4325C45.3918 50.4325 44.435 51.3909 44.435 52.5731C44.435 53.7554 45.3918 54.7137 46.5721 54.7137Z" fill="var(--fill-0, #226E77)"/>
<path id="Vector_30" d="M54.6235 58.3727C55.8037 58.3727 56.7606 57.4143 56.7606 56.2321C56.7606 55.0499 55.8037 54.0915 54.6235 54.0915C53.4432 54.0915 52.4864 55.0499 52.4864 56.2321C52.4864 57.4143 53.4432 58.3727 54.6235 58.3727Z" fill="var(--fill-0, #226E77)"/>
<path id="Vector_31" d="M62.7246 62.1064C63.9186 62.1064 64.8865 61.1369 64.8865 59.9409C64.8865 58.7449 63.9186 57.7753 62.7246 57.7753C61.5305 57.7753 60.5626 58.7449 60.5626 59.9409C60.5626 61.1369 61.5305 62.1064 62.7246 62.1064Z" fill="var(--fill-0, #226E77)"/>
<path id="Vector_32" d="M55.5181 67.3335C56.7121 67.3335 57.68 66.364 57.68 65.168C57.68 63.972 56.7121 63.0025 55.5181 63.0025C54.324 63.0025 53.3561 63.972 53.3561 65.168C53.3561 66.364 54.324 67.3335 55.5181 67.3335Z" fill="var(--fill-0, #226E77)"/>
<path id="Vector_33" d="M78.8273 69.5239C80.0076 69.5239 80.9644 68.5655 80.9644 67.3833C80.9644 66.2011 80.0076 65.2427 78.8273 65.2427C77.647 65.2427 76.6902 66.2011 76.6902 67.3833C76.6902 68.5655 77.647 69.5239 78.8273 69.5239Z" fill="var(--fill-0, #226E77)"/>
<path id="Vector_34" d="M48.2122 72.3366C49.3924 72.3366 50.3493 71.3782 50.3493 70.196C50.3493 69.0138 49.3924 68.0554 48.2122 68.0554C47.0319 68.0554 46.0751 69.0138 46.0751 70.196C46.0751 71.3782 47.0319 72.3366 48.2122 72.3366Z" fill="var(--fill-0, #226E77)"/>
<path id="Vector_35" d="M40.956 77.4642C42.1363 77.4642 43.0931 76.5058 43.0931 75.3236C43.0931 74.1413 42.1363 73.1829 40.956 73.1829C39.7757 73.1829 38.8189 74.1413 38.8189 75.3236C38.8189 76.5058 39.7757 77.4642 40.956 77.4642Z" fill="var(--fill-0, #226E77)"/>
<path id="Vector_36" d="M110.337 75.672C111.531 75.672 112.499 74.7025 112.499 73.5065C112.499 72.3105 111.531 71.341 110.337 71.341C109.143 71.341 108.175 72.3105 108.175 73.5065C108.175 74.7025 109.143 75.672 110.337 75.672Z" fill="var(--fill-0, #226E77)"/>
<path id="Vector_37" d="M118.413 79.4057C119.594 79.4057 120.55 78.4473 120.55 77.2651C120.55 76.0828 119.594 75.1244 118.413 75.1244C117.233 75.1244 116.276 76.0828 116.276 77.2651C116.276 78.4473 117.233 79.4057 118.413 79.4057Z" fill="var(--fill-0, #226E77)"/>
<path id="Vector_38" d="M48.9825 81.3223C50.1628 81.3223 51.1196 80.3639 51.1196 79.1817C51.1196 77.9994 50.1628 77.041 48.9825 77.041C47.8022 77.041 46.8454 77.9994 46.8454 79.1817C46.8454 80.3639 47.8022 81.3223 48.9825 81.3223Z" fill="var(--fill-0, #226E77)"/>
<path id="Vector_39" d="M57.0091 85.0062C58.1893 85.0062 59.1462 84.0478 59.1462 82.8655C59.1462 81.6833 58.1893 80.7249 57.0091 80.7249C55.8288 80.7249 54.872 81.6833 54.872 82.8655C54.872 84.0478 55.8288 85.0062 57.0091 85.0062Z" fill="var(--fill-0, #226E77)"/>
<path id="Vector_40" d="M65.1102 88.6901C66.2767 88.6901 67.2224 87.7428 67.2224 86.5743C67.2224 85.4058 66.2767 84.4586 65.1102 84.4586C63.9436 84.4586 62.9979 85.4058 62.9979 86.5743C62.9979 87.7428 63.9436 88.6901 65.1102 88.6901Z" fill="var(--fill-0, #226E77)"/>
<path id="Vector_41" d="M69.9311 56.9042C71.1113 56.9042 72.0681 55.9458 72.0681 54.7635C72.0681 53.5813 71.1113 52.6229 69.9311 52.6229C68.7508 52.6229 67.794 53.5813 67.794 54.7635C67.794 55.9458 68.7508 56.9042 69.9311 56.9042Z" fill="var(--fill-0, #226E77)"/>
<path id="Vector_42" d="M77.2866 51.8015C78.4669 51.8015 79.4237 50.8431 79.4237 49.6609C79.4237 48.4786 78.4669 47.5202 77.2866 47.5202C76.1064 47.5202 75.1495 48.4786 75.1495 49.6609C75.1495 50.8431 76.1064 51.8015 77.2866 51.8015Z" fill="var(--fill-0, #226E77)"/>
<path id="Vector_43" d="M135.46 138.572C140.281 159.406 126.415 185.865 113.344 182.529C101.689 179.542 102.062 149.922 117.544 134.042C120.451 131.08 124.179 129.462 127.782 130.308C131.385 131.154 134.417 134.166 135.436 138.547L135.46 138.572ZM129.819 163.363C132.031 156.717 134.168 149.847 132.826 142.828C132.131 139.144 130.689 134.39 126.514 133.818C117.941 132.673 104.224 156.195 110.586 175.659C111.331 177.949 114.189 179.219 115.73 179.343C120.203 179.742 127.583 170.084 129.819 163.363Z" fill="var(--fill-0, #226E77)"/>
</g>
</svg>
