<svg preserveAspectRatio="none" width="100%" height="100%" overflow="visible" style="display: block;" viewBox="0 0 29.9816 50.0199" fill="none" xmlns="http://www.w3.org/2000/svg">
<g id="Group">
<path id="Vector" d="M28.9138 6.69116L2.99496 49.6296C2.44603 50.5537 0.393527 49.6295 0.17873 48.9897C-0.179265 47.9471 0.107131 46.5253 0.130998 45.222L0.775389 16.4779C0.870854 12.0703 1.77778 8.04187 1.15725 3.46841C0.96632 1.90443 2.01644 -0.465237 3.87801 0.0797869C8.36489 1.4305 28.6752 1.33571 29.5343 2.59164C30.3935 3.84756 29.9162 5.03239 28.9377 6.66746L28.9138 6.69116ZM13.0904 26.2172C15.4293 23.7054 16.9806 20.9092 17.7205 18.2314C15.5248 17.8049 14.7133 16.4068 14.9997 15.1509C15.1429 14.5111 16.0499 13.8713 17.1954 13.9897C17.8398 14.0608 18.2456 15.0087 19.0331 16.1935C20.8947 15.2931 20.8947 12.8997 22.0403 11.1461C23.3052 9.20301 25.2145 8.32623 25.7873 4.93761C21.0857 4.48737 15.4771 3.5869 11.0141 4.13192C10.4413 5.31675 9.96393 7.18879 8.72288 6.83334C6.64651 6.28832 7.3625 3.70538 6.24078 3.46841C1.94484 2.59164 4.952 14.3689 4.25988 17.7338C3.66322 20.6959 4.52241 22.3073 5.45319 24.8902C5.78732 26.2409 1.34818 28.5158 4.18828 30.2694C4.92813 30.7196 6.14532 30.8855 6.33625 31.4779C6.59878 32.2836 6.67038 33.2551 5.85892 33.6343C4.7372 34.1793 3.73482 34.4163 3.52002 35.0798C3.25749 35.8381 3.01883 37.9234 3.63935 38.3262C6.24078 39.748 12.637 30.767 8.98541 27.4495C9.60594 25.3641 12.2551 27.1177 13.1143 26.1935L13.0904 26.2172Z" fill="var(--fill-0, #226E77)"/>
<path id="Vector_2" d="M13.0904 26.2172C12.2312 27.1414 9.58207 25.3878 8.96155 27.4732C12.637 30.7907 6.24078 39.748 3.61548 38.3499C2.99496 37.9471 3.23362 35.8618 3.49615 35.1035C3.73482 34.44 4.71334 34.203 5.83506 33.658C6.64651 33.2788 6.57491 32.3073 6.31238 31.5016C6.12145 30.9329 4.8804 30.767 4.16441 30.2931C1.32431 28.5158 5.76346 26.2646 5.42933 24.9139C4.49854 22.331 3.63935 20.7433 4.23601 17.7575C4.90427 14.3926 1.92097 2.61533 6.21692 3.49211C7.33863 3.72908 6.62264 6.28832 8.69902 6.85704C9.94007 7.18879 10.4174 5.34045 10.9902 4.15562C15.4532 3.5869 21.0379 4.48737 25.7635 4.9613C25.2145 8.34993 23.2814 9.22671 22.0164 11.1698C20.8709 12.9234 20.8709 15.2931 19.0093 16.2172C18.2217 15.0561 17.8398 14.0845 17.1716 14.0134C16.026 13.895 15.1191 14.5348 14.9759 15.1746C14.7133 16.4305 15.5009 17.8286 17.6966 18.2551C16.9568 20.9329 15.4055 23.7291 13.0666 26.2409L13.0904 26.2172ZM17.7682 8.13666C17.7682 7.1414 16.9568 6.33571 15.9544 6.33571C14.952 6.33571 14.1405 7.1414 14.1405 8.13666C14.1405 9.13192 14.952 9.93761 15.9544 9.93761C16.9568 9.93761 17.7682 9.13192 17.7682 8.13666ZM11.4914 12.5679C11.4914 11.549 10.6561 10.7196 9.6298 10.7196C8.60355 10.7196 7.76823 11.549 7.76823 12.5679C7.76823 13.5869 8.60355 14.4163 9.6298 14.4163C10.6561 14.4163 11.4914 13.5869 11.4914 12.5679ZM12.2074 20.3168C12.2074 19.2978 11.372 18.4684 10.3458 18.4684C9.31954 18.4684 8.48422 19.2978 8.48422 20.3168C8.48422 21.3357 9.31954 22.1651 10.3458 22.1651C11.372 22.1651 12.2074 21.3357 12.2074 20.3168Z" fill="var(--fill-0, #70BC96)"/>
<path id="Vector_3" d="M9.6298 14.4163C10.6579 14.4163 11.4914 13.5888 11.4914 12.5679C11.4914 11.5471 10.6579 10.7196 9.6298 10.7196C8.60169 10.7196 7.76823 11.5471 7.76823 12.5679C7.76823 13.5888 8.60169 14.4163 9.6298 14.4163Z" fill="var(--fill-0, #226E77)"/>
<path id="Vector_4" d="M10.3458 22.1651C11.3739 22.1651 12.2074 21.3376 12.2074 20.3168C12.2074 19.2959 11.3739 18.4684 10.3458 18.4684C9.31768 18.4684 8.48422 19.2959 8.48422 20.3168C8.48422 21.3376 9.31768 22.1651 10.3458 22.1651Z" fill="var(--fill-0, #226E77)"/>
<path id="Vector_5" d="M15.9544 9.93761C16.9561 9.93761 17.7682 9.13129 17.7682 8.13666C17.7682 7.14202 16.9561 6.33571 15.9544 6.33571C14.9526 6.33571 14.1405 7.14202 14.1405 8.13666C14.1405 9.13129 14.9526 9.93761 15.9544 9.93761Z" fill="var(--fill-0, #226E77)"/>
</g>
</svg>
