<svg preserveAspectRatio="none" width="100%" height="100%" overflow="visible" style="display: block;" viewBox="0 0 22.9894 23.9959" fill="none" xmlns="http://www.w3.org/2000/svg">
<g id="Group">
<path id="Vector" d="M21.7179 10.3078C15.6538 15.6921 20.2442 20.9316 19.8576 22.0181C19.6643 22.5976 18.5047 24.6982 17.5866 23.7565C8.74417 14.678 1.39963 20.4245 0.167488 17.7444C-0.267386 16.8269 0.167488 15.2817 1.20635 14.1951C9.87967 5.28568 3.76728 3.76456 5.74837 1.03619C6.27988 0.287694 7.07715 -0.219348 8.33345 0.0945352C10.5561 0.649867 7.29459 4.99594 22.1769 6.34806C23.7473 6.49293 22.7326 9.41446 21.7179 10.332V10.3078ZM15.2914 17.2615C15.6055 13.833 16.2095 12.0221 17.7799 9.41446C14.5666 8.64182 12.1265 7.70017 9.17904 6.27562C8.88913 9.80077 7.17379 11.998 5.53093 14.7505C9.29984 15.4265 12.3198 16.1026 15.2914 17.2615Z" fill="var(--fill-0, #226E77)"/>
<path id="Vector_2" d="M15.2915 17.2616C12.3199 16.1027 9.29991 15.4266 5.531 14.7506C7.17386 11.998 8.8892 9.80086 9.17911 6.27571C12.1024 7.70025 14.5667 8.61776 17.78 9.41454C16.2096 12.0222 15.5814 13.8089 15.2915 17.2616Z" fill="var(--fill-0, #D1801F)"/>
</g>
</svg>
