<svg preserveAspectRatio="none" width="100%" height="100%" overflow="visible" style="display: block;" viewBox="0 0 42.9797 80.9906" fill="none" xmlns="http://www.w3.org/2000/svg">
<g id="Group">
<path id="Vector" d="M8.46915 50.9754C10.1715 52.4282 12.9571 51.8247 13.6645 54.1268C10.3262 56.3843 7.18689 54.7303 4.84344 52.5846C-3.00489 45.41 0.974548 32.4687 1.26195 27.5068C1.63779 20.958 1.70411 14.8785 4.75501 8.88843C5.81619 6.78744 11.4537 -3.65047 13.5098 1.3338C13.7751 1.95963 4.97609 13.5151 5.74987 18.5664C8.31439 13.6939 14.7257 13.5151 16.428 16.376C18.3072 19.5722 19.081 22.8578 17.7324 26.2999C16.7154 28.8702 14.4162 31.597 10.8347 32.2229C8.44704 32.6252 6.50154 31.083 4.37918 30.8148C2.36735 38.0788 2.58843 45.924 8.51336 50.9754H8.46915ZM8.80077 28.7585C11.6527 29.2949 14.1288 26.9033 14.7699 25.0482C15.61 22.6566 15.2563 18.5664 12.6918 18.0523C8.64601 17.2254 5.13085 25.6293 5.94884 26.7022C6.41311 27.3057 7.38586 28.4903 8.80077 28.7585Z" fill="var(--fill-0, #226E77)"/>
<path id="Vector_2" d="M30.7098 80.1658C30.2013 81.4621 27.4157 81.1045 27.3715 79.9646L26.7303 62.9331C26.5756 58.5523 26.3766 54.2163 26.465 49.7461C32.0584 48.1591 37.32 48.1144 42.9797 49.0308L30.7098 80.1658ZM30.0907 72.7676L38.9339 51.4894C35.463 51.2436 32.4342 51.3106 29.1622 52.2717L30.0907 72.7676Z" fill="var(--fill-0, #226E77)"/>
<path id="Vector_3" d="M30.0907 72.7676L29.1622 52.2717C32.4342 51.3106 35.463 51.2436 38.9339 51.4894L30.0907 72.7676Z" fill="var(--fill-0, #E4D66D)"/>
</g>
</svg>
