<svg preserveAspectRatio="none" width="100%" height="100%" overflow="visible" style="display: block;" viewBox="0 0 75.9873 70.0432" fill="none" xmlns="http://www.w3.org/2000/svg">
<g id="Group">
<path id="Vector" d="M20.7691 24.7045C20.1908 28.8871 18.3769 31.4388 14.6439 32.7015C8.65015 34.727 2.34091 31.7545 0.921332 25.7567C-0.498246 19.759 3.57647 13.7086 9.49138 13.1562C16.2738 12.4986 21.6892 17.8387 20.7691 24.7045ZM10.6481 29.2291C14.6439 31.1494 19.1655 24.8623 17.0099 21.8898C16.4052 21.2584 13.829 22.3896 13.4609 21.1795C13.1718 20.2325 14.013 19.3381 14.2496 17.9965C14.5388 16.4707 10.1486 15.4974 9.57024 16.9706C8.46613 19.8116 6.83624 19.6538 4.81203 20.6797C3.18214 21.4952 4.04966 24.9412 4.8646 26.2565C5.75841 27.6771 7.75634 30.3077 10.2275 29.4922C8.91303 27.6771 7.51974 27.5981 7.73005 26.5196C8.01922 25.1254 8.54499 24.4414 9.85942 24.3362C10.7532 24.2836 11.3579 25.2569 11.6733 26.0461C11.9625 26.7037 9.54396 28.7293 10.5955 29.2554L10.6481 29.2291Z" fill="var(--fill-0, #226E77)"/>
<path id="Vector_2" d="M16.4834 43.9557C17.2792 43.1909 17.3048 41.9253 16.5406 41.1289C15.7763 40.3325 14.5115 40.3069 13.7156 41.0717C12.9198 41.8365 12.8942 43.1021 13.6584 43.8985C14.4227 44.6949 15.6875 44.7205 16.4834 43.9557Z" fill="var(--fill-0, #226E77)"/>
<path id="Vector_3" d="M19.2233 52.2093C20.0087 51.4545 20.034 50.2056 19.2797 49.4197C18.5255 48.6338 17.2774 48.6085 16.492 49.3632C15.7066 50.1179 15.6813 51.3669 16.4355 52.1528C17.1898 52.9387 18.4379 52.964 19.2233 52.2093Z" fill="var(--fill-0, #226E77)"/>
<path id="Vector_4" d="M21.8534 60.3078C22.6493 59.543 22.6749 58.2774 21.9106 57.481C21.1463 56.6846 19.8816 56.659 19.0857 57.4238C18.2898 58.1886 18.2642 59.4542 19.0285 60.2506C19.7928 61.047 21.0575 61.0726 21.8534 60.3078Z" fill="var(--fill-0, #226E77)"/>
<g id="Group_2">
<path id="Vector_5" d="M62.3575 44.8022C61.7003 44.0656 60.7276 43.5395 59.6235 42.1453C59.8601 41.435 60.0704 40.5406 59.7549 39.4884L56.4952 29.2291C58.3354 25.4674 61.9106 22.4685 65.1178 19.3644C68.0884 16.4707 73.2409 35.3058 74.1873 38.4625C74.7394 40.3302 77.1579 43.2502 75.2914 45.2231C71.4007 45.7492 66.774 45.5651 62.3575 44.8022ZM68.693 32.5963C68.1936 31.7545 67.1157 32.0701 65.8802 32.2543C64.3291 32.491 63.4616 31.281 63.7245 29.9131C63.9348 28.8345 65.3018 28.7556 66.5111 28.0716C67.5101 27.4929 66.5637 25.52 65.5647 24.0732C63.856 25.6252 60.3596 27.6508 60.3333 30.6759C60.3333 31.4125 62.1472 41.3824 65.3544 41.9612C65.9853 42.0664 67.6678 41.8296 67.4575 41.0668C64.2503 35.8056 71.5848 37.3839 68.7193 32.6226L68.693 32.5963ZM70.4544 39.9356C68.9559 40.0934 69.2451 41.5666 70.0337 41.9875C70.3755 42.1716 70.5858 42.9871 71.4007 42.6714C72.1105 42.4084 72.3471 41.5666 72.0317 41.3035C71.6111 40.9615 71.059 39.8567 70.4544 39.9093V39.9356Z" fill="var(--fill-0, #226E77)"/>
<path id="Vector_6" d="M55.2333 29.2028C56.0483 33.5959 56.8106 38.5677 59.6498 42.1453C58.9926 44.0919 60.5962 45.0916 60.8328 46.3016C61.2797 48.7481 63.7508 52.2994 61.9632 54.0882L35.0175 63.0059C27.9459 65.3471 21.0846 67.5042 14.0919 69.8191C11.2527 70.7661 9.30736 68.5564 8.57128 66.11L0.132678 38.252C-0.235361 37.0157 0.211543 35.7793 0.868755 35.1216C1.49968 34.5166 2.8141 34.2272 4.07595 34.8849C10.3063 38.1205 18.6661 36.1476 22.2939 29.992C23.3191 28.2558 23.95 26.809 25.8428 26.3092C27.2624 25.9409 38.9082 34.464 51.2375 20.9954C53.7349 23.3103 54.6813 26.3618 55.207 29.2028H55.2333ZM18.298 64.3212C28.6031 63.2953 26.5 59.06 28.5768 58.6917C31.5474 58.1656 27.8933 62.4272 40.3541 57.7973C41.1164 56.1663 40.9061 54.8774 42.5097 53.6147C45.2437 56.6399 47.9251 55.3246 50.7643 54.5091C53.6034 53.6936 54.8916 53.1938 55.9431 50.0897C56.3374 48.9322 58.8611 48.7218 57.7833 47.0119C57.205 46.0649 57.3364 44.3813 55.4699 44.7759C54.3395 45.0127 53.1303 45.3546 52.6308 44.3287C50.9746 40.9089 56.2849 42.6188 55.023 38.4362C54.3395 36.1739 53.104 36.7 50.8694 36.7263C49.6339 36.7263 49.2396 34.7797 49.9493 34.2009C50.4751 33.7537 51.8684 33.2802 52.3416 32.5963C53.1565 31.3599 51.737 27.5192 50.37 27.3351C48.4246 27.9927 45.2963 29.1239 44.5602 30.8864C44.1659 31.8334 45.6117 33.517 45.0334 34.3588C44.4551 35.2005 42.9303 35.7267 42.0365 34.9112C41.4319 34.3588 41.4056 32.8856 41.3004 31.5703C38.9871 30.9127 36.2005 33.4381 33.8345 32.3595C29.8387 30.5707 26.1583 30.8338 23.3454 34.5429C20.0856 38.8308 13.645 37.4629 10.1223 40.1987L5.94243 43.4343C5.04862 44.013 6.41562 47.4591 7.54603 47.3802C8.83416 47.3013 9.93828 46.9067 10.8584 47.6169C11.4104 48.0378 11.5156 49.1164 11.279 50.1423C11.0687 51.0104 9.17592 50.5895 8.5187 51.2735C7.57232 52.2731 8.7553 56.219 10.4903 55.7981C12.0414 55.4035 13.2506 54.9826 13.9078 56.2979C14.2233 56.9292 14.3022 58.2445 13.2769 58.7706C12.8037 59.0337 11.6996 59.0074 10.8321 59.1652C10.1486 61.0329 11.5945 62.8744 12.0676 65.0314C14.0393 62.2693 16.1161 64.5579 18.3506 64.3475L18.298 64.3212Z" fill="var(--fill-0, #226E77)"/>
<path id="Vector_7" d="M43.2721 2.52862C49.6076 7.00062 50.1597 15.5237 46.4793 20.7849C42.1417 26.9668 34.2026 28.4136 28.5768 24.4414C22.3464 20.0483 20.6377 12.1566 24.1341 6.68495C28.2351 0.240008 36.3582 -2.33797 43.2721 2.52862ZM44.6654 13.1036C44.0344 11.9461 40.7484 11.3411 41.6159 9.9995C41.9577 9.44707 43.5612 8.57898 43.5087 7.86872C41.537 3.87022 35.3855 2.21295 31.2057 4.39634C27.315 6.4482 24.0289 11.8146 26.6578 15.7868C28.3928 14.4978 28.9186 13.2614 30.049 13.3667C30.9954 13.4456 31.416 14.4452 31.416 15.4974C31.416 16.3392 30.7062 17.181 29.4969 17.3388C28.8134 17.4441 28.5768 15.9183 26.0268 15.892C27.499 20.5482 32.0469 23.7575 36.884 23.0209C41.169 22.3633 47.1102 17.5756 44.6654 13.0773V13.1036Z" fill="var(--fill-0, #226E77)"/>
<path id="Vector_8" d="M59.6235 42.119C56.7844 38.5414 56.022 33.5696 55.207 29.1765C55.6277 29.3343 56.0483 29.3343 56.4689 29.1765L59.7287 39.4358C60.0704 40.488 59.8338 41.3824 59.5972 42.0927L59.6235 42.119Z" fill="var(--fill-0, #70BC96)"/>
<path id="Vector_9" d="M62.3575 44.8022L60.8065 46.3016C60.5962 45.0916 58.9663 44.1183 59.6235 42.1453C60.7276 43.5395 61.7003 44.0656 62.3575 44.8022Z" fill="var(--fill-0, #70BC96)"/>
<path id="Vector_10" d="M44.6654 13.1036C47.1102 17.6019 41.169 22.3633 36.884 23.0472C32.0469 23.8101 27.499 20.5745 26.0268 15.9183C28.5768 15.9183 28.7871 17.4704 29.4969 17.3651C30.7325 17.181 31.416 16.3392 31.416 15.5237C31.416 14.4715 30.9954 13.4719 30.049 13.393C28.9186 13.2877 28.3928 14.5504 26.6578 15.8131C24.0289 11.8409 27.315 6.50081 31.2057 4.42265C35.3592 2.21295 41.537 3.87022 43.5087 7.89502C43.5613 8.60528 41.9577 9.47338 41.6159 10.0258C40.7747 11.3411 44.0344 11.9461 44.6654 13.1299V13.1036ZM36.5159 10.2889C37.3046 9.52599 37.3309 8.28961 36.5685 7.50044C35.8061 6.71126 34.5706 6.68495 33.7819 7.44782C32.9933 8.2107 32.967 9.44707 33.7294 10.2362C34.4917 11.0254 35.7273 11.0517 36.5159 10.2889ZM39.1711 18.4437C39.9597 17.6808 39.986 16.4181 39.2237 15.629C38.4613 14.8398 37.1994 14.8135 36.4108 15.5763C35.6221 16.3392 35.5958 17.6019 36.3582 18.3911C37.1206 19.1803 38.3824 19.2066 39.1711 18.4437Z" fill="var(--fill-0, #D1801F)"/>
<path id="Vector_11" d="M68.693 32.5963C71.5585 37.3576 64.224 35.7793 67.4312 41.0405C67.6415 41.8033 65.959 42.0401 65.3281 41.9349C62.1209 41.3561 60.307 31.3862 60.307 30.6496C60.3333 27.6244 63.8297 25.5726 65.5384 24.0468C66.5637 25.52 67.4838 27.4929 66.4848 28.0453C65.2755 28.7293 63.9085 28.8082 63.6982 29.8868C63.4353 31.2547 64.3029 32.4647 65.8539 32.228C67.0894 32.0438 68.1673 31.7019 68.6667 32.57L68.693 32.5963Z" fill="var(--fill-0, #D1801F)"/>
<path id="Vector_12" d="M10.6481 29.2291C9.57024 28.703 11.9888 26.6774 11.7259 26.0198C11.3841 25.2569 10.8058 24.2573 9.91199 24.3099C8.59757 24.4151 8.0718 25.0991 7.78263 26.4933C7.54603 27.5718 8.96561 27.6508 10.28 29.4659C7.8352 30.2813 5.81099 27.6508 4.91718 26.2302C4.10224 24.9149 3.26101 21.4689 4.8646 20.6534C6.88882 19.6275 8.49242 19.7853 9.62282 16.9443C10.2012 15.4711 14.5913 16.4444 14.3022 17.9702C14.0393 19.3118 13.1981 20.2325 13.5135 21.1532C13.9078 22.3896 16.4841 21.2321 17.0625 21.8635C19.2181 24.836 14.6965 31.1494 10.7006 29.2028L10.6481 29.2291Z" fill="var(--fill-0, #D1801F)"/>
<path id="Vector_13" d="M26.7366 50.5106C28.7871 50.116 27.2624 44.8811 25.6851 45.0916C24.5021 45.2757 23.0825 46.8804 22.1887 45.9071C21.6629 45.3546 21.032 43.6447 22.1098 42.9871C24.0552 41.8033 27.1047 42.0927 28.3139 40.1987C28.3928 39.4621 27.1047 37.9627 27.3413 37.2787C27.6304 36.4369 28.5242 35.9897 29.1552 35.9634C30.2856 35.9108 31.0742 36.8578 31.1005 37.8574C31.1005 38.9886 30.0227 39.4358 28.5768 40.4617C31.1268 41.9875 33.7031 41.6192 36.1742 41.8822C35.6484 40.4091 35.4644 39.3043 35.9113 38.5151C36.5159 37.4892 37.7515 37.6207 38.6453 37.9101C40.4592 38.5414 38.5664 40.6985 39.0659 41.8559C39.8283 43.6447 44.0607 47.0645 41.169 49.2216C39.986 50.116 37.5412 48.4061 36.1479 49.8792C34.6495 51.4576 37.0154 53.4042 36.2005 54.9563C34.8072 57.5606 29.5495 54.6932 28.682 52.4835C27.6304 53.2201 27.315 54.2723 26.684 54.4302C25.5274 54.7195 24.8176 54.0619 24.4495 52.9833C24.0289 51.8785 24.3969 50.9315 26.8418 50.4843L26.7366 50.5106ZM31.784 50.2212C34.15 48.1694 35.1489 47.6169 36.6211 45.4862C34.1237 45.039 32.1783 43.8026 29.4706 44.2235C29.7335 47.0119 30.8902 48.4061 31.784 50.2212Z" fill="var(--fill-0, #226E77)"/>
<path id="Vector_14" d="M49.9905 50.9542C50.7654 50.2095 50.7903 48.9772 50.0462 48.2018C49.302 47.4263 48.0705 47.4014 47.2956 48.1461C46.5207 48.8907 46.4957 50.123 47.2399 50.8985C47.9841 51.6739 49.2156 51.6989 49.9905 50.9542Z" fill="var(--fill-0, #226E77)"/>
<path id="Vector_15" d="M47.2473 42.8489C48.0223 42.1042 48.0472 40.8719 47.303 40.0965C46.5589 39.321 45.3274 39.2961 44.5525 40.0407C43.7775 40.7854 43.7526 42.0177 44.4968 42.7931C45.2409 43.5686 46.4724 43.5935 47.2473 42.8489Z" fill="var(--fill-0, #226E77)"/>
<path id="Vector_16" d="M36.5085 10.2914C37.2939 9.53669 37.3192 8.28775 36.565 7.50183C35.8107 6.71591 34.5626 6.69062 33.7772 7.44534C32.9918 8.20007 32.9665 9.44901 33.7208 10.2349C34.475 11.0209 35.7231 11.0461 36.5085 10.2914Z" fill="var(--fill-0, #226E77)"/>
<path id="Vector_17" d="M39.1786 18.4367C39.9745 17.6719 40.0001 16.4064 39.2358 15.61C38.4715 14.8135 37.2068 14.7879 36.4109 15.5527C35.615 16.3175 35.5894 17.5831 36.3537 18.3795C37.118 19.1759 38.3827 19.2015 39.1786 18.4367Z" fill="var(--fill-0, #226E77)"/>
<path id="Vector_18" d="M18.298 64.3212C16.0635 64.5316 13.9867 62.243 12.0151 65.0051C11.5419 62.8744 10.096 61.0066 10.7795 59.1389C11.6733 58.9548 12.7511 58.9811 13.2243 58.7443C14.2233 58.2182 14.1707 56.9029 13.8553 56.2716C13.1981 54.9563 11.9888 55.3772 10.4378 55.7718C8.70272 56.219 7.51974 52.2731 8.46613 51.2471C9.12334 50.5632 11.0161 50.9841 11.2264 50.116C11.463 49.0901 11.3579 48.0115 10.8058 47.5906C9.85942 46.9067 8.7553 47.275 7.49345 47.3539C6.36305 47.4328 4.99605 43.9604 5.88986 43.408L10.0697 40.1724C13.5924 37.4366 20.0331 38.8045 23.2928 34.5166C26.1057 30.8075 29.7861 30.5444 33.7819 32.3332C36.1479 33.3854 38.9345 30.8864 41.2479 31.544C41.3267 32.8593 41.3793 34.3325 41.9839 34.8849C42.8515 35.7004 44.3499 35.2005 44.9808 34.3325C45.6118 33.4644 44.1133 31.8071 44.5076 30.8601C45.2437 29.0976 48.372 27.9664 50.3174 27.3088C51.6844 27.5192 53.104 31.3336 52.289 32.57C51.8421 33.2539 50.4225 33.7274 49.8968 34.1746C49.2133 34.7533 49.6076 36.7263 50.8169 36.7C53.0514 36.6737 54.287 36.1476 54.9705 38.4099C56.2323 42.5925 50.922 40.8826 52.5782 44.3024C53.0777 45.3283 54.287 44.9863 55.4174 44.7496C57.3101 44.355 57.1524 46.0649 57.7307 46.9856C58.8086 48.7218 56.2849 48.9322 55.8906 50.0634C54.839 53.1675 53.6823 53.641 50.7117 54.4828C47.7411 55.3246 45.1911 56.6136 42.4571 53.5884C40.8272 54.8774 41.0638 56.1663 40.3015 57.771C27.8407 62.4008 31.4948 58.113 28.5242 58.6654C26.4475 59.0337 28.5242 63.2689 18.2454 64.2949L18.298 64.3212ZM47.2416 42.8556C48.0303 42.119 48.0566 40.8563 47.2942 40.0934C46.5318 39.3306 45.2963 39.278 44.5339 40.0408C43.7716 40.8037 43.719 42.0401 44.4813 42.803C45.2437 43.5658 46.4793 43.6184 47.2416 42.8556ZM49.9756 50.9578C50.7643 50.2212 50.7906 48.9848 50.0282 48.1957C49.2659 47.4065 48.0566 47.3802 47.2679 48.143C46.4793 48.9059 46.453 50.116 47.2153 50.9052C47.9777 51.6943 49.187 51.7207 49.9756 50.9578ZM26.7366 50.5106C24.3181 50.9841 23.95 51.9048 24.3444 53.0096C24.7387 54.1145 25.4485 54.7458 26.5789 54.4565C27.2361 54.2986 27.5253 53.2464 28.5768 52.5098C29.4443 54.7195 34.702 57.5606 36.0953 54.9826C36.9366 53.4305 34.5443 51.4839 36.0427 49.9055C37.436 48.4061 39.8809 50.1423 41.0638 49.2479C43.9556 47.0908 39.7231 43.671 38.9608 41.8822C38.4613 40.7248 40.3541 38.5677 38.5402 37.9364C37.6463 37.6207 36.4108 37.5155 35.8061 38.5414C35.333 39.3306 35.517 40.4354 36.069 41.9086C33.5979 41.6455 31.0479 42.0138 28.4717 40.488C29.9438 39.4358 31.0216 39.0149 30.9954 37.8837C30.9954 36.8841 30.2067 35.9371 29.05 35.9897C28.3928 35.9897 27.499 36.4632 27.2361 37.305C27.0258 37.989 28.2876 39.4621 28.2088 40.225C26.9995 42.119 23.95 41.8296 22.0047 43.0134C20.9269 43.671 21.5578 45.3809 22.0836 45.9334C22.9774 46.9067 24.3969 45.2757 25.5799 45.1179C27.1572 44.9074 28.7083 50.1423 26.6315 50.5369L26.7366 50.5106ZM16.4841 43.9604C17.2728 43.1975 17.2991 41.9349 16.5367 41.1457C15.7743 40.3565 14.5125 40.3302 13.7238 41.0931C12.9352 41.8559 12.9089 43.1186 13.6712 43.9078C14.4336 44.697 15.6955 44.7233 16.4841 43.9604ZM19.1918 52.2205C19.9805 51.4576 20.0068 50.2212 19.2444 49.432C18.482 48.6429 17.2465 48.6166 16.4578 49.3794C15.6692 50.1423 15.6429 51.3787 16.4052 52.1679C17.1676 52.957 18.4032 52.9833 19.1918 52.2205ZM21.847 60.2701C22.6356 59.5072 22.6619 58.2445 21.8995 57.4553C21.1372 56.6662 19.8753 56.6399 19.0867 57.4027C18.298 58.1656 18.2717 59.4283 19.0341 60.2175C19.7965 61.0066 21.0583 61.0329 21.847 60.2701Z" fill="var(--fill-0, #D1801F)"/>
</g>
</g>
</svg>
