<svg preserveAspectRatio="none" width="100%" height="100%" overflow="visible" style="display: block;" viewBox="0 0 119.01 104.017" fill="none" xmlns="http://www.w3.org/2000/svg">
<g id="Group">
<path id="Vector" d="M51.717 103.904C50.2452 104.024 49.3042 104.216 48.6044 103.448C47.1809 101.959 51.717 96.1016 53.6714 91.4922C55.2397 87.795 57.8938 86.3786 62.454 86.2345C61.1511 83.7378 60.4272 81.8412 60.1136 79.0083L35.0203 81.0009C30.0982 81.385 25.6103 82.6574 20.5917 81.385L6.71799 40.6205L0.32403 21.6066C-0.834121 18.1496 1.38567 14.5005 2.68859 10.8994L97.5604 0C99.8526 3.79317 100.456 7.39428 101.662 11.3075L119.01 67.7008C117.587 70.9658 115.319 74.1348 112.086 74.735C106.729 75.7193 84.7725 76.9437 77.9443 77.3998C78.3062 79.7285 78.644 84.1699 81.2498 84.2179C85.9789 84.2899 90.2737 82.2973 95.3407 84.0259L87.3784 100.783L51.717 103.904ZM111.313 71.8781C113.292 70.4377 114.788 69.1653 115.512 66.8366L95.9197 3.36103L5.05315 13.5642C3.5572 15.5808 3.17115 17.6214 2.92987 20.0942L23.1734 78.9363L111.313 71.8781ZM85.424 97.9261C87.1612 93.4368 89.2604 90.964 90.322 86.9067C78.8853 85.1542 79.1989 92.3804 77.8478 89.7156C75.9416 85.9705 75.9416 81.6251 74.3009 77.5439C70.3198 77.6879 66.5317 77.88 62.9124 78.6482C63.9258 83.3296 66.0008 86.8347 65.4941 91.2281C63.395 89.8356 59.6069 88.4672 58.0144 90.6999C55.7464 93.8689 54.2022 97.1579 52.4649 100.831L85.424 97.9501V97.9261Z" fill="var(--fill-0, #226E77)"/>
<path id="Vector_2" d="M111.313 71.8781L23.1733 78.9363L2.92979 20.0942C3.17107 17.6214 3.55712 15.5808 5.05307 13.5642L95.9197 3.36103L115.512 66.8366C114.788 69.1653 113.292 70.4377 111.313 71.8781ZM93.3621 8.54663L6.23535 17.7655L6.54901 20.6223L93.6757 11.4035L93.3621 8.54663ZM94.7374 12.844L92.0109 13.7082L109.649 69.2133L112.375 68.349L94.7374 12.844ZM104.196 69.5014C106.319 68.8772 106.874 67.8689 106.657 66.1644L89.5257 14.3804L7.9967 22.639L25.369 75.2632L104.196 69.4774V69.5014Z" fill="var(--fill-0, #70BC96)"/>
<path id="Vector_3" d="M85.4239 97.9261L52.4649 100.807C54.2021 97.1339 55.7463 93.8449 58.0143 90.6759C59.6068 88.4672 63.3949 89.8116 65.4941 91.2041C66.0008 86.8107 63.9257 83.2816 62.9124 78.6242C66.5316 77.856 70.3197 77.6639 74.3008 77.5199C75.9416 81.6011 75.9415 85.9465 77.8477 89.6916C79.1988 92.3564 78.8852 85.1302 90.3219 86.8827C89.2603 90.94 87.1853 93.4368 85.4239 97.9021V97.9261Z" fill="var(--fill-0, #70BC96)"/>
<path id="Vector_4" d="M104.196 69.5014L25.369 75.2872L7.9967 22.639L89.5257 14.3804L106.657 66.1644C106.874 67.8689 106.319 68.8772 104.196 69.5014ZM59.4138 70.0776C59.2208 68.6851 58.9312 67.6288 59.3173 67.0526C59.7998 66.3324 60.9097 66.5725 61.4888 66.6685C62.0679 66.7645 62.2126 68.7572 62.9606 69.1173C65.4217 70.3416 70.2714 70.0776 72.5395 68.6611C73.2633 68.205 72.4912 66.0683 73.4564 65.6122C78.5474 63.2355 70.1267 71.47 86.7027 68.0369C86.0754 66.4765 85.9789 65.4922 86.6062 64.7719C87.4748 63.7636 89.4051 64.1958 89.4774 65.132L89.6946 67.6768C92.6865 68.181 97.1984 67.7488 100.142 66.8366L99.8284 64.1477C99.7319 63.2595 101.469 63.0674 102 62.2031C103.134 60.3066 100.721 58.8421 99.177 58.0499C100.818 52.7202 96.7159 44.4137 94.665 39.084C91.6731 40.6205 89.019 40.1884 86.2684 38.5559C79.2954 34.3546 72.4188 30.1773 65.0598 26.6482C63.9499 26.12 62.4057 27.3204 62.0679 25.88C61.8507 24.9437 62.1403 23.7673 63.0089 23.4072C63.4673 23.2151 64.4083 22.9511 65.2045 23.4072L81.9253 32.8181C83.2041 33.5383 85.2309 32.6741 86.2925 33.6584C87.3542 34.6427 87.2576 36.3232 88.1504 36.5873C89.5498 36.9954 91.5042 36.9714 92.976 36.2031C96.2092 34.5226 89.574 31.6898 89.5981 30.1293C89.6222 27.7765 93.3379 31.8338 87.692 17.2133C85.5928 14.1163 85.1102 24.0074 82.8905 20.9344L81.1532 18.5337C79.7779 16.6371 74.1561 17.8615 71.9363 19.3019C71.2848 19.7341 72.0811 21.9428 70.9953 22.2068C70.2956 22.3749 69.2822 22.3269 68.8961 21.7267C68.6549 21.3426 68.5342 19.6861 67.931 19.59C56.2289 17.5734 59.2208 23.8873 56.3495 23.6953C55.2637 23.6233 55.3361 21.7507 54.0573 21.2225C51.6928 20.2622 47.0119 20.4543 45.154 22.0388C44.0683 22.9751 44.6474 25.3038 42.5482 24.8717C41.7037 24.7036 41.7761 22.759 40.6662 22.3749C38.3258 21.5346 33.6449 21.9908 31.6905 23.4552C30.5324 24.3195 31.2562 26.4321 29.4466 26.1681C28.4574 26.024 28.1196 24.3435 27.0338 23.9594C24.3797 23.0231 20.2297 23.1911 18.0581 24.6796C17.1654 25.3038 17.648 27.3924 16.345 27.2724C13.3773 26.9843 13.2325 22.759 11.8331 24.9917C12.0261 24.6796 12.2674 31.6177 14.7285 32.0018C15.7177 32.1699 16.9482 30.8495 17.8651 31.7618C18.5407 32.434 18.589 33.2262 18.2512 34.2825C17.9858 35.0748 15.8625 34.6667 15.3799 35.3629C14.0046 37.3555 17.1413 39.6122 19.2645 39.9963L17.7927 44.2216C20.2055 51.3998 22.4495 58.554 25.2242 65.5882C25.562 66.4284 28.7952 65.6842 28.4332 67.3887C28.2643 68.181 27.2992 68.9972 26.9373 69.9335C26.1169 72.0702 28.1437 72.5023 29.4949 72.5983C31.4975 72.7424 31.6423 70.9178 32.6074 69.6694C34.3929 67.3647 35.3098 71.2779 36.3714 71.614C38.9049 72.3823 42.7895 71.7581 45.1299 70.8938C45.9261 70.6057 45.6849 68.4691 46.2398 68.133C47.036 67.6288 48.1942 67.9409 48.6526 68.6371C50.4864 71.446 46.7465 71.638 59.4379 70.0776H59.4138Z" fill="var(--fill-0, #226E77)"/>
<path id="Vector_5" d="M93.3654 8.56327L6.22167 17.7684L6.52733 20.6332L93.671 11.4281L93.3654 8.56327Z" fill="var(--fill-0, #226E77)"/>
<path id="Vector_6" d="M94.7565 12.8331L92.0187 13.6941L109.652 69.2053L112.39 68.3443L94.7565 12.8331Z" fill="var(--fill-0, #226E77)"/>
<path id="Vector_7" d="M59.4138 70.0776C46.7224 71.638 50.4381 71.446 48.6285 68.6371C48.1701 67.9409 47.0119 67.6288 46.2157 68.133C45.6607 68.4931 45.8779 70.6057 45.1058 70.8938C42.7654 71.7581 38.8807 72.3823 36.3473 71.614C35.2856 71.3019 34.3688 67.3887 32.5833 69.6694C31.6182 70.9178 31.4734 72.7424 29.4708 72.5983C28.1196 72.5023 26.0928 72.0702 26.9132 69.9335C27.2751 69.0212 28.2402 68.205 28.4091 67.3887C28.771 65.6842 25.5137 66.4284 25.2001 65.5882C22.4253 58.53 20.1814 51.3998 17.7686 44.2216L19.2404 39.9963C17.1171 39.6122 13.9805 37.3555 15.3558 35.3629C15.8383 34.6667 17.9616 35.0748 18.227 34.2825C18.5648 33.2262 18.5166 32.434 17.841 31.7618C16.9482 30.8495 15.6936 32.1699 14.7043 32.0018C12.2433 31.5937 12.002 24.6796 11.8089 24.9917C13.2084 22.759 13.3773 26.9843 16.3209 27.2724C17.6238 27.3924 17.1413 25.3038 18.034 24.6796C20.2055 23.1911 24.3556 23.0231 27.0097 23.9594C28.0954 24.3435 28.4332 26.024 29.4225 26.1681C31.2321 26.4321 30.5083 24.3195 31.6664 23.4552C33.6208 21.9908 38.3017 21.5586 40.6421 22.3749C41.7278 22.759 41.6796 24.7036 42.5241 24.8717C44.6232 25.3038 44.0442 22.9511 45.1299 22.0388C46.9878 20.4543 51.6686 20.2622 54.0332 21.2225C55.312 21.7507 55.2396 23.6233 56.3254 23.6953C59.1966 23.8874 56.2047 17.5734 67.9069 19.59C68.5101 19.6861 68.6307 21.3426 68.872 21.7267C69.2339 22.3269 70.2714 22.3749 70.9712 22.2068C72.0569 21.9428 71.2607 19.7341 71.9122 19.3019C74.1319 17.8615 79.7538 16.6371 81.1291 18.5337L82.8663 20.9344C85.0861 24.0074 85.5687 14.1163 87.6678 17.2133C93.3138 31.8338 89.5981 27.7765 89.574 30.1293C89.574 31.6898 96.2092 34.4986 92.9519 36.2031C91.456 36.9714 89.5257 36.9954 88.1263 36.5873C87.2094 36.3232 87.33 34.6667 86.2684 33.6584C85.2068 32.65 83.18 33.5383 81.9012 32.8181L65.1804 23.4072C64.36 22.9511 63.4191 23.2151 62.9847 23.4072C62.1161 23.7673 61.8266 24.9437 62.0437 25.88C62.3815 27.3204 63.9257 26.12 65.0356 26.6482C72.3947 30.1773 79.2471 34.3546 86.2443 38.5559C88.9708 40.2124 91.649 40.6445 94.6409 39.084C96.6918 44.4137 100.794 52.7442 99.1528 58.0499C100.697 58.8421 103.11 60.3066 101.976 62.2031C101.469 63.0434 99.7078 63.2355 99.8043 64.1477L100.118 66.8366C97.1743 67.7248 92.6624 68.157 89.6705 67.6768L89.4533 65.132C89.3809 64.1958 87.4266 63.7636 86.5821 64.7719C85.9547 65.4922 86.0271 66.5005 86.6786 68.0369C70.1025 71.494 78.5233 63.2595 73.4322 65.6122C72.4671 66.0683 73.2392 68.205 72.5154 68.6611C70.2473 70.0776 65.3976 70.3416 62.9365 69.1173C62.1885 68.7572 62.0679 66.7645 61.4647 66.6685C60.8615 66.5725 59.7757 66.3324 59.2931 67.0526C58.9071 67.6288 59.1966 68.6611 59.3897 70.0776H59.4138ZM87.9574 31.2096C88.3676 26.024 84.2416 25.3758 81.0326 24.6316C77.8236 23.8874 75.8209 19.446 71.888 21.8467C76.9067 25.832 81.9253 28.4968 87.9574 31.2096ZM51.9341 26.2401C51.9341 25.2318 51.1137 24.4395 50.1244 24.4395C49.1352 24.4395 48.3148 25.2558 48.3148 26.2401C48.3148 27.2244 49.1352 28.0406 50.1244 28.0406C51.1137 28.0406 51.9341 27.2244 51.9341 26.2401ZM38.4223 27.4404C38.4223 26.4081 37.5778 25.5679 36.5403 25.5679C35.5028 25.5679 34.6583 26.4081 34.6583 27.4404C34.6583 28.4728 35.5028 29.313 36.5403 29.313C37.5778 29.313 38.4223 28.4728 38.4223 27.4404ZM24.8623 28.7128C24.8623 27.7045 24.0419 26.8883 23.0285 26.8883C22.0152 26.8883 21.1948 27.7045 21.1948 28.7128C21.1948 29.7211 22.0152 30.5374 23.0285 30.5374C24.0419 30.5374 24.8623 29.7211 24.8623 28.7128ZM59.1001 29.6011C59.1001 28.6168 58.2798 27.8006 57.2905 27.8006C56.3012 27.8006 55.4809 28.6168 55.4809 29.6011C55.4809 30.5854 56.3012 31.4017 57.2905 31.4017C58.2798 31.4017 59.1001 30.5854 59.1001 29.6011ZM45.5642 30.7535C45.5642 29.7211 44.7197 28.9049 43.7064 28.9049C42.693 28.9049 41.8485 29.7452 41.8485 30.7535C41.8485 31.7618 42.693 32.602 43.7064 32.602C44.7197 32.602 45.5642 31.7618 45.5642 30.7535ZM32.0042 32.0018C32.0042 30.9695 31.1597 30.1293 30.1222 30.1293C29.0847 30.1293 28.2402 30.9695 28.2402 32.0018C28.2402 33.0342 29.0847 33.8744 30.1222 33.8744C31.1597 33.8744 32.0042 33.0342 32.0042 32.0018ZM66.2179 32.7941C66.2179 31.7858 65.3976 30.9695 64.3842 30.9695C63.3708 30.9695 62.5504 31.7858 62.5504 32.7941C62.5504 33.8024 63.3708 34.6187 64.3842 34.6187C65.3976 34.6187 66.2179 33.8024 66.2179 32.7941ZM52.7062 34.0905C52.7062 33.0822 51.8858 32.2659 50.8724 32.2659C49.859 32.2659 49.0387 33.0822 49.0387 34.0905C49.0387 35.0988 49.859 35.9151 50.8724 35.9151C51.8858 35.9151 52.7062 35.0988 52.7062 34.0905ZM39.1944 35.2669C39.1944 34.2345 38.3499 33.3943 37.2883 33.3943C36.2266 33.3943 35.3821 34.2345 35.3821 35.2669C35.3821 36.2992 36.2266 37.1394 37.2883 37.1394C38.3499 37.1394 39.1944 36.2992 39.1944 35.2669ZM73.3357 36.0351C73.3357 35.0028 72.4912 34.1625 71.4537 34.1625C70.4162 34.1625 69.5717 35.0028 69.5717 36.0351C69.5717 37.0674 70.4162 37.9077 71.4537 37.9077C72.4912 37.9077 73.3357 37.0674 73.3357 36.0351ZM25.562 36.4432C25.562 35.4349 24.7416 34.6187 23.7283 34.6187C22.7149 34.6187 21.8945 35.4349 21.8945 36.4432C21.8945 37.4515 22.7149 38.2678 23.7283 38.2678C24.7416 38.2678 25.562 37.4515 25.562 36.4432ZM59.7757 37.3795C59.7757 36.3952 58.9795 35.5789 57.9661 35.5789C56.9527 35.5789 56.1565 36.3712 56.1565 37.3795C56.1565 38.3878 56.9527 39.1801 57.9661 39.1801C58.9795 39.1801 59.7757 38.3878 59.7757 37.3795ZM46.2881 38.6039C46.2881 37.5716 45.4436 36.7313 44.4061 36.7313C43.3686 36.7313 42.5241 37.5716 42.5241 38.6039C42.5241 39.6362 43.3686 40.4765 44.4061 40.4765C45.4436 40.4765 46.2881 39.6362 46.2881 38.6039ZM32.7039 39.7802C32.7039 38.7479 31.8594 37.9317 30.8461 37.9317C29.8327 37.9317 28.9882 38.7479 28.9882 39.7802C28.9882 40.8126 29.8327 41.6288 30.8461 41.6288C31.8594 41.6288 32.7039 40.8126 32.7039 39.7802ZM80.5259 39.3721C80.5259 38.3638 79.7055 37.5476 78.6922 37.5476C77.6788 37.5476 76.8584 38.3638 76.8584 39.3721C76.8584 40.3804 77.6788 41.1967 78.6922 41.1967C79.7055 41.1967 80.5259 40.3804 80.5259 39.3721ZM66.9659 40.5725C66.9659 39.5402 66.1214 38.6999 65.0839 38.6999C64.0464 38.6999 63.2019 39.5402 63.2019 40.5725C63.2019 41.6048 64.0464 42.4451 65.0839 42.4451C66.1214 42.4451 66.9659 41.6048 66.9659 40.5725ZM53.3094 41.8209C53.3094 40.8366 52.5131 40.0443 51.5239 40.0443C50.5346 40.0443 49.7384 40.8366 49.7384 41.8209C49.7384 42.8052 50.5346 43.5974 51.5239 43.5974C52.5131 43.5974 53.3094 42.8052 53.3094 41.8209ZM39.9906 43.1173C39.9906 42.0849 39.1461 41.2207 38.0845 41.2207C37.0229 41.2207 36.1784 42.0609 36.1784 43.1173C36.1784 44.1736 37.0229 45.0139 38.0845 45.0139C39.1461 45.0139 39.9906 44.1736 39.9906 43.1173ZM87.5954 42.6851C87.5954 41.6768 86.7751 40.8846 85.7858 40.8846C84.7966 40.8846 83.9762 41.7008 83.9762 42.6851C83.9762 43.6694 84.7966 44.4857 85.7858 44.4857C86.7751 44.4857 87.5954 43.6694 87.5954 42.6851ZM74.1319 43.9095C74.1319 42.8772 73.2875 42.0609 72.2741 42.0609C71.2607 42.0609 70.4162 42.9012 70.4162 43.9095C70.4162 44.9178 71.2607 45.7581 72.2741 45.7581C73.2875 45.7581 74.1319 44.9178 74.1319 43.9095ZM26.2858 44.2696C26.2858 43.2613 25.4655 42.4451 24.4521 42.4451C23.4387 42.4451 22.6184 43.2613 22.6184 44.2696C22.6184 45.2779 23.4387 46.0942 24.4521 46.0942C25.4655 46.0942 26.2858 45.2779 26.2858 44.2696ZM60.4754 45.0619C60.4754 44.0536 59.6551 43.2613 58.6658 43.2613C57.6766 43.2613 56.8562 44.0776 56.8562 45.0619C56.8562 46.0462 57.6766 46.8624 58.6658 46.8624C59.6551 46.8624 60.4754 46.0462 60.4754 45.0619ZM94.7615 45.9021C94.7615 44.8698 93.917 44.0536 92.9036 44.0536C91.8903 44.0536 91.0458 44.8938 91.0458 45.9021C91.0458 46.9104 91.8903 47.7507 92.9036 47.7507C93.917 47.7507 94.7615 46.9104 94.7615 45.9021ZM46.8913 46.2862C46.8913 45.3259 46.095 44.5337 45.1299 44.5337C44.1648 44.5337 43.3686 45.3259 43.3686 46.2862C43.3686 47.2465 44.1648 48.0388 45.1299 48.0388C46.095 48.0388 46.8913 47.2465 46.8913 46.2862ZM33.4278 47.5826C33.4278 46.5743 32.6074 45.7581 31.594 45.7581C30.5806 45.7581 29.7603 46.5743 29.7603 47.5826C29.7603 48.591 30.5806 49.4072 31.594 49.4072C32.6074 49.4072 33.4278 48.591 33.4278 47.5826ZM81.2015 47.1025C81.2015 46.0942 80.3811 45.2539 79.3436 45.2539C78.3061 45.2539 77.4858 46.0702 77.4858 47.1025C77.4858 48.1348 78.3061 48.9511 79.3436 48.9511C80.3811 48.9511 81.2015 48.1348 81.2015 47.1025ZM67.6415 48.3509C67.6415 47.3426 66.8211 46.5263 65.8077 46.5263C64.7944 46.5263 63.974 47.3426 63.974 48.3509C63.974 49.3592 64.7944 50.1754 65.8077 50.1754C66.8211 50.1754 67.6415 49.3592 67.6415 48.3509ZM54.0332 49.5753C54.0332 48.5669 53.2128 47.7747 52.2236 47.7747C51.2343 47.7747 50.414 48.591 50.414 49.5753C50.414 50.5596 51.2343 51.3758 52.2236 51.3758C53.2128 51.3758 54.0332 50.5596 54.0332 49.5753ZM40.4732 50.8236C40.4732 49.8393 39.677 49.0471 38.6877 49.0471C37.6984 49.0471 36.9022 49.8393 36.9022 50.8236C36.9022 51.8079 37.6984 52.6002 38.6877 52.6002C39.677 52.6002 40.4732 51.8079 40.4732 50.8236ZM88.3193 50.4395C88.3193 49.4312 87.4989 48.615 86.4856 48.615C85.4722 48.615 84.6518 49.4312 84.6518 50.4395C84.6518 51.4478 85.4722 52.2641 86.4856 52.2641C87.4989 52.2641 88.3193 51.4478 88.3193 50.4395ZM74.7834 51.6879C74.7834 50.6556 73.9389 49.8393 72.9255 49.8393C71.9122 49.8393 71.0677 50.6556 71.0677 51.6879C71.0677 52.7202 71.9122 53.5365 72.9255 53.5365C73.9389 53.5365 74.7834 52.7202 74.7834 51.6879ZM27.0097 52.12C27.0097 51.1357 26.1893 50.3195 25.2001 50.3195C24.2108 50.3195 23.3905 51.1357 23.3905 52.12C23.3905 53.1043 24.2108 53.9206 25.2001 53.9206C26.1893 53.9206 27.0097 53.1043 27.0097 52.12ZM61.2716 52.8883C61.2716 51.88 60.4513 51.0637 59.4379 51.0637C58.4245 51.0637 57.6042 51.88 57.6042 52.8883C57.6042 53.8966 58.4245 54.7128 59.4379 54.7128C60.4513 54.7128 61.2716 53.8966 61.2716 52.8883ZM95.4854 53.7285C95.4854 52.7202 94.665 51.904 93.6516 51.904C92.6382 51.904 91.8179 52.7202 91.8179 53.7285C91.8179 54.7368 92.6382 55.5531 93.6516 55.5531C94.665 55.5531 95.4854 54.7368 95.4854 53.7285ZM47.591 54.0406C47.591 53.0563 46.7948 52.2401 45.7814 52.2401C44.768 52.2401 43.9718 53.0323 43.9718 54.0406C43.9718 55.0489 44.768 55.8412 45.7814 55.8412C46.7948 55.8412 47.591 55.0489 47.591 54.0406ZM34.1034 55.337C34.1034 54.3527 33.3071 53.5365 32.2937 53.5365C31.2804 53.5365 30.4841 54.3287 30.4841 55.337C30.4841 56.3453 31.2804 57.1376 32.2937 57.1376C33.3071 57.1376 34.1034 56.3453 34.1034 55.337ZM81.9012 54.8809C81.9012 53.8726 81.0809 53.0563 80.0675 53.0563C79.0541 53.0563 78.2337 53.8726 78.2337 54.8809C78.2337 55.8892 79.0541 56.7055 80.0675 56.7055C81.0809 56.7055 81.9012 55.8892 81.9012 54.8809ZM68.3171 56.2253C68.3171 55.217 67.4967 54.4007 66.4833 54.4007C65.4699 54.4007 64.6496 55.217 64.6496 56.2253C64.6496 57.2336 65.4699 58.0499 66.4833 58.0499C67.4967 58.0499 68.3171 57.2336 68.3171 56.2253ZM54.8053 57.3777C54.8053 56.3934 53.9849 55.5771 52.9957 55.5771C52.0064 55.5771 51.1861 56.3934 51.1861 57.3777C51.1861 58.362 52.0064 59.1782 52.9957 59.1782C53.9849 59.1782 54.8053 58.362 54.8053 57.3777ZM41.2453 58.554C41.2453 57.5457 40.4249 56.7535 39.4357 56.7535C38.4464 56.7535 37.6261 57.5697 37.6261 58.554C37.6261 59.5383 38.4464 60.3546 39.4357 60.3546C40.4249 60.3546 41.2453 59.5383 41.2453 58.554ZM89.1155 58.2899C89.1155 57.2816 88.2952 56.4414 87.2577 56.4414C86.2201 56.4414 85.3998 57.2576 85.3998 58.2899C85.3998 59.3223 86.2201 60.1385 87.2577 60.1385C88.2952 60.1385 89.1155 59.3223 89.1155 58.2899ZM75.4831 59.4183C75.4831 58.41 74.6628 57.5937 73.6494 57.5937C72.636 57.5937 71.8156 58.41 71.8156 59.4183C71.8156 60.4266 72.636 61.2428 73.6494 61.2428C74.6628 61.2428 75.4831 60.4266 75.4831 59.4183ZM37.9156 65.7322C35.2615 66.5965 35.4063 62.4672 34.224 61.9631C31.8112 60.9307 29.3019 60.6427 27.1786 58.554C26.5995 57.9778 25.0312 58.338 24.7899 58.8181C23.7041 61.0028 28.5056 62.3472 33.5967 66.6685C35.6234 68.373 37.5054 69.3333 40.3043 68.277C41.3418 67.8929 41.9691 67.4368 42.0174 66.5245C42.0898 65.5162 41.3659 64.916 40.7386 64.6999C39.8217 64.3638 38.9531 65.3961 37.9156 65.7322ZM61.9955 60.6667C61.9955 59.6344 61.151 58.7941 60.1135 58.7941C59.076 58.7941 58.2315 59.6344 58.2315 60.6667C58.2315 61.699 59.076 62.5392 60.1135 62.5392C61.151 62.5392 61.9955 61.699 61.9955 60.6667ZM96.1368 61.4829C96.1368 60.4746 95.3165 59.6824 94.3272 59.6824C93.3379 59.6824 92.5176 60.4986 92.5176 61.4829C92.5176 62.4672 93.3379 63.2835 94.3272 63.2835C95.3165 63.2835 96.1368 62.4672 96.1368 61.4829ZM48.339 61.891C48.339 60.9067 47.5427 60.1145 46.5535 60.1145C45.5642 60.1145 44.768 60.9067 44.768 61.891C44.768 62.8754 45.5642 63.6676 46.5535 63.6676C47.5427 63.6676 48.339 62.8754 48.339 61.891ZM82.6251 62.7313C82.6251 61.723 81.8047 60.9067 80.7913 60.9067C79.7779 60.9067 78.9576 61.723 78.9576 62.7313C78.9576 63.7396 79.7779 64.5559 80.7913 64.5559C81.8047 64.5559 82.6251 63.7396 82.6251 62.7313ZM69.0892 63.9317C69.0892 62.9234 68.2688 62.1071 67.2554 62.1071C66.242 62.1071 65.4217 62.9234 65.4217 63.9317C65.4217 64.94 66.242 65.7562 67.2554 65.7562C68.2688 65.7562 69.0892 64.94 69.0892 63.9317ZM55.4809 65.2041C55.4809 64.2198 54.6605 63.4035 53.6713 63.4035C52.682 63.4035 51.8617 64.2198 51.8617 65.2041C51.8617 66.1884 52.682 67.0046 53.6713 67.0046C54.6605 67.0046 55.4809 66.1884 55.4809 65.2041Z" fill="var(--fill-0, #E4D66D)"/>
<path id="Vector_8" d="M37.9156 65.7322C38.9531 65.3961 39.8217 64.3638 40.7386 64.6999C41.3659 64.94 42.0898 65.5162 42.0174 66.5245C41.945 67.4367 41.3418 67.8929 40.3043 68.277C37.5054 69.3093 35.6234 68.373 33.5967 66.6685C28.5056 62.3712 23.7283 61.0268 24.7899 58.8181C25.0312 58.338 26.5995 57.9778 27.1786 58.554C29.2777 60.6187 31.8112 60.9067 34.224 61.9631C35.4063 62.4672 35.2856 66.5965 37.9156 65.7322Z" fill="var(--fill-0, #226E77)"/>
<path id="Vector_9" d="M87.9574 31.2096C81.9012 28.4968 76.8825 25.8319 71.888 21.8467C75.8209 19.446 77.8718 23.8874 81.0326 24.6316C84.1934 25.3758 88.3675 26.024 87.9574 31.2096Z" fill="var(--fill-0, #226E77)"/>
<path id="Vector_10" d="M36.5162 29.313C37.5556 29.313 38.3982 28.4746 38.3982 27.4404C38.3982 26.4062 37.5556 25.5679 36.5162 25.5679C35.4768 25.5679 34.6342 26.4062 34.6342 27.4404C34.6342 28.4746 35.4768 29.313 36.5162 29.313Z" fill="var(--fill-0, #226E77)"/>
<path id="Vector_11" d="M64.3842 34.6187C65.3969 34.6187 66.2179 33.8018 66.2179 32.7941C66.2179 31.7864 65.3969 30.9695 64.3842 30.9695C63.3714 30.9695 62.5504 31.7864 62.5504 32.7941C62.5504 33.8018 63.3714 34.6187 64.3842 34.6187Z" fill="var(--fill-0, #226E77)"/>
<path id="Vector_12" d="M37.3124 37.1634C38.3651 37.1634 39.2185 36.3143 39.2185 35.2669C39.2185 34.2194 38.3651 33.3703 37.3124 33.3703C36.2597 33.3703 35.4063 34.2194 35.4063 35.2669C35.4063 36.3143 36.2597 37.1634 37.3124 37.1634Z" fill="var(--fill-0, #226E77)"/>
<path id="Vector_13" d="M71.4537 37.9077C72.4931 37.9077 73.3357 37.0693 73.3357 36.0351C73.3357 35.0009 72.4931 34.1625 71.4537 34.1625C70.4143 34.1625 69.5717 35.0009 69.5717 36.0351C69.5717 37.0693 70.4143 37.9077 71.4537 37.9077Z" fill="var(--fill-0, #226E77)"/>
<path id="Vector_14" d="M65.108 42.4451C66.1474 42.4451 66.99 41.6067 66.99 40.5725C66.99 39.5383 66.1474 38.6999 65.108 38.6999C64.0686 38.6999 63.226 39.5383 63.226 40.5725C63.226 41.6067 64.0686 42.4451 65.108 42.4451Z" fill="var(--fill-0, #226E77)"/>
<path id="Vector_15" d="M38.0845 45.0139C39.1372 45.0139 39.9906 44.1647 39.9906 43.1173C39.9906 42.0698 39.1372 41.2207 38.0845 41.2207C37.0318 41.2207 36.1784 42.0698 36.1784 43.1173C36.1784 44.1647 37.0318 45.0139 38.0845 45.0139Z" fill="var(--fill-0, #226E77)"/>
<path id="Vector_16" d="M72.2741 45.7581C73.3002 45.7581 74.1319 44.9304 74.1319 43.9095C74.1319 42.8886 73.3002 42.0609 72.2741 42.0609C71.248 42.0609 70.4162 42.8886 70.4162 43.9095C70.4162 44.9304 71.248 45.7581 72.2741 45.7581Z" fill="var(--fill-0, #226E77)"/>
<path id="Vector_17" d="M30.1222 33.8744C31.1616 33.8744 32.0042 33.036 32.0042 32.0018C32.0042 30.9677 31.1616 30.1293 30.1222 30.1293C29.0828 30.1293 28.2402 30.9677 28.2402 32.0018C28.2402 33.036 29.0828 33.8744 30.1222 33.8744Z" fill="var(--fill-0, #226E77)"/>
<path id="Vector_18" d="M60.1135 62.5392C61.1529 62.5392 61.9955 61.7009 61.9955 60.6667C61.9955 59.6325 61.1529 58.7941 60.1135 58.7941C59.0741 58.7941 58.2315 59.6325 58.2315 60.6667C58.2315 61.7009 59.0741 62.5392 60.1135 62.5392Z" fill="var(--fill-0, #226E77)"/>
<path id="Vector_19" d="M72.9255 53.5365C73.9516 53.5365 74.7834 52.7088 74.7834 51.6879C74.7834 50.667 73.9516 49.8393 72.9255 49.8393C71.8995 49.8393 71.0677 50.667 71.0677 51.6879C71.0677 52.7088 71.8995 53.5365 72.9255 53.5365Z" fill="var(--fill-0, #226E77)"/>
<path id="Vector_20" d="M44.4061 40.4765C45.4455 40.4765 46.2881 39.6381 46.2881 38.6039C46.2881 37.5697 45.4455 36.7313 44.4061 36.7313C43.3667 36.7313 42.5241 37.5697 42.5241 38.6039C42.5241 39.6381 43.3667 40.4765 44.4061 40.4765Z" fill="var(--fill-0, #226E77)"/>
<path id="Vector_21" d="M87.2577 60.1385C88.2837 60.1385 89.1155 59.3109 89.1155 58.2899C89.1155 57.269 88.2837 56.4414 87.2577 56.4414C86.2316 56.4414 85.3998 57.269 85.3998 58.2899C85.3998 59.3109 86.2316 60.1385 87.2577 60.1385Z" fill="var(--fill-0, #226E77)"/>
<path id="Vector_22" d="M65.8077 50.1754C66.8205 50.1754 67.6415 49.3586 67.6415 48.3509C67.6415 47.3432 66.8205 46.5263 65.8077 46.5263C64.795 46.5263 63.974 47.3432 63.974 48.3509C63.974 49.3586 64.795 50.1754 65.8077 50.1754Z" fill="var(--fill-0, #226E77)"/>
<path id="Vector_23" d="M79.3436 48.9511C80.3697 48.9511 81.2015 48.1234 81.2015 47.1025C81.2015 46.0816 80.3697 45.2539 79.3436 45.2539C78.3176 45.2539 77.4858 46.0816 77.4858 47.1025C77.4858 48.1234 78.3176 48.9511 79.3436 48.9511Z" fill="var(--fill-0, #226E77)"/>
<path id="Vector_24" d="M92.9036 47.7507C93.9297 47.7507 94.7615 46.9231 94.7615 45.9021C94.7615 44.8812 93.9297 44.0536 92.9036 44.0536C91.8776 44.0536 91.0458 44.8812 91.0458 45.9021C91.0458 46.9231 91.8776 47.7507 92.9036 47.7507Z" fill="var(--fill-0, #226E77)"/>
<path id="Vector_25" d="M38.6877 52.6002C39.6738 52.6002 40.4732 51.8048 40.4732 50.8236C40.4732 49.8425 39.6738 49.0471 38.6877 49.0471C37.7016 49.0471 36.9022 49.8425 36.9022 50.8236C36.9022 51.8048 37.7016 52.6002 38.6877 52.6002Z" fill="var(--fill-0, #226E77)"/>
<path id="Vector_26" d="M25.2001 53.9206C26.1995 53.9206 27.0097 53.1145 27.0097 52.12C27.0097 51.1256 26.1995 50.3195 25.2001 50.3195C24.2006 50.3195 23.3905 51.1256 23.3905 52.12C23.3905 53.1145 24.2006 53.9206 25.2001 53.9206Z" fill="var(--fill-0, #226E77)"/>
<path id="Vector_27" d="M59.4138 54.7128C60.4265 54.7128 61.2475 53.896 61.2475 52.8883C61.2475 51.8806 60.4265 51.0637 59.4138 51.0637C58.401 51.0637 57.58 51.8806 57.58 52.8883C57.58 53.896 58.401 54.7128 59.4138 54.7128Z" fill="var(--fill-0, #226E77)"/>
<path id="Vector_28" d="M30.8219 41.6288C31.848 41.6288 32.6798 40.8012 32.6798 39.7802C32.6798 38.7593 31.848 37.9317 30.8219 37.9317C29.7959 37.9317 28.9641 38.7593 28.9641 39.7802C28.9641 40.8012 29.7959 41.6288 30.8219 41.6288Z" fill="var(--fill-0, #226E77)"/>
<path id="Vector_29" d="M93.6275 55.5531C94.6402 55.5531 95.4612 54.7362 95.4612 53.7285C95.4612 52.7209 94.6402 51.904 93.6275 51.904C92.6147 51.904 91.7937 52.7209 91.7937 53.7285C91.7937 54.7362 92.6147 55.5531 93.6275 55.5531Z" fill="var(--fill-0, #226E77)"/>
<path id="Vector_30" d="M39.4115 60.3546C40.411 60.3546 41.2212 59.5484 41.2212 58.554C41.2212 57.5596 40.411 56.7535 39.4115 56.7535C38.4121 56.7535 37.6019 57.5596 37.6019 58.554C37.6019 59.5484 38.4121 60.3546 39.4115 60.3546Z" fill="var(--fill-0, #226E77)"/>
<path id="Vector_31" d="M73.6253 61.2428C74.638 61.2428 75.459 60.426 75.459 59.4183C75.459 58.4106 74.638 57.5937 73.6253 57.5937C72.6125 57.5937 71.7915 58.4106 71.7915 59.4183C71.7915 60.426 72.6125 61.2428 73.6253 61.2428Z" fill="var(--fill-0, #226E77)"/>
<path id="Vector_32" d="M94.3272 63.2835C95.3266 63.2835 96.1368 62.4773 96.1368 61.4829C96.1368 60.4885 95.3266 59.6824 94.3272 59.6824C93.3278 59.6824 92.5176 60.4885 92.5176 61.4829C92.5176 62.4773 93.3278 63.2835 94.3272 63.2835Z" fill="var(--fill-0, #226E77)"/>
<path id="Vector_33" d="M67.2313 65.7562C68.244 65.7562 69.065 64.9393 69.065 63.9317C69.065 62.924 68.244 62.1071 67.2313 62.1071C66.2186 62.1071 65.3976 62.924 65.3976 63.9317C65.3976 64.9393 66.2186 65.7562 67.2313 65.7562Z" fill="var(--fill-0, #226E77)"/>
<path id="Vector_34" d="M43.7064 32.602C44.7324 32.602 45.5642 31.7744 45.5642 30.7535C45.5642 29.7325 44.7324 28.9049 43.7064 28.9049C42.6803 28.9049 41.8485 29.7325 41.8485 30.7535C41.8485 31.7744 42.6803 32.602 43.7064 32.602Z" fill="var(--fill-0, #226E77)"/>
<path id="Vector_35" d="M23.7283 38.2678C24.741 38.2678 25.562 37.4509 25.562 36.4432C25.562 35.4355 24.741 34.6187 23.7283 34.6187C22.7155 34.6187 21.8945 35.4355 21.8945 36.4432C21.8945 37.4509 22.7155 38.2678 23.7283 38.2678Z" fill="var(--fill-0, #226E77)"/>
<path id="Vector_36" d="M50.8724 35.9151C51.8852 35.9151 52.7062 35.0982 52.7062 34.0905C52.7062 33.0828 51.8852 32.2659 50.8724 32.2659C49.8597 32.2659 49.0387 33.0828 49.0387 34.0905C49.0387 35.0982 49.8597 35.9151 50.8724 35.9151Z" fill="var(--fill-0, #226E77)"/>
<path id="Vector_37" d="M45.1299 48.0388C46.1027 48.0388 46.8913 47.2541 46.8913 46.2862C46.8913 45.3183 46.1027 44.5337 45.1299 44.5337C44.1571 44.5337 43.3686 45.3183 43.3686 46.2862C43.3686 47.2541 44.1571 48.0388 45.1299 48.0388Z" fill="var(--fill-0, #226E77)"/>
<path id="Vector_38" d="M31.594 49.4072C32.6068 49.4072 33.4278 48.5903 33.4278 47.5826C33.4278 46.575 32.6068 45.7581 31.594 45.7581C30.5813 45.7581 29.7603 46.575 29.7603 47.5826C29.7603 48.5903 30.5813 49.4072 31.594 49.4072Z" fill="var(--fill-0, #226E77)"/>
<path id="Vector_39" d="M57.2905 31.4017C58.2899 31.4017 59.1001 30.5955 59.1001 29.6011C59.1001 28.6067 58.2899 27.8006 57.2905 27.8006C56.2911 27.8006 55.4809 28.6067 55.4809 29.6011C55.4809 30.5955 56.2911 31.4017 57.2905 31.4017Z" fill="var(--fill-0, #226E77)"/>
<path id="Vector_40" d="M80.7913 64.5559C81.8041 64.5559 82.6251 63.739 82.6251 62.7313C82.6251 61.7236 81.8041 60.9067 80.7913 60.9067C79.7786 60.9067 78.9576 61.7236 78.9576 62.7313C78.9576 63.739 79.7786 64.5559 80.7913 64.5559Z" fill="var(--fill-0, #226E77)"/>
<path id="Vector_41" d="M52.9957 59.1782C53.9951 59.1782 54.8053 58.3721 54.8053 57.3777C54.8053 56.3832 53.9951 55.5771 52.9957 55.5771C51.9963 55.5771 51.1861 56.3832 51.1861 57.3777C51.1861 58.3721 51.9963 59.1782 52.9957 59.1782Z" fill="var(--fill-0, #226E77)"/>
<path id="Vector_42" d="M66.5074 58.0499C67.5202 58.0499 68.3412 57.233 68.3412 56.2253C68.3412 55.2176 67.5202 54.4007 66.5074 54.4007C65.4947 54.4007 64.6737 55.2176 64.6737 56.2253C64.6737 57.233 65.4947 58.0499 66.5074 58.0499Z" fill="var(--fill-0, #226E77)"/>
<path id="Vector_43" d="M80.0675 56.7055C81.0802 56.7055 81.9012 55.8886 81.9012 54.8809C81.9012 53.8732 81.0802 53.0563 80.0675 53.0563C79.0547 53.0563 78.2337 53.8732 78.2337 54.8809C78.2337 55.8886 79.0547 56.7055 80.0675 56.7055Z" fill="var(--fill-0, #226E77)"/>
<path id="Vector_44" d="M32.2937 57.1376C33.2932 57.1376 34.1034 56.3314 34.1034 55.337C34.1034 54.3426 33.2932 53.5365 32.2937 53.5365C31.2943 53.5365 30.4841 54.3426 30.4841 55.337C30.4841 56.3314 31.2943 57.1376 32.2937 57.1376Z" fill="var(--fill-0, #226E77)"/>
<path id="Vector_45" d="M85.7858 44.4857C86.7853 44.4857 87.5954 43.6796 87.5954 42.6851C87.5954 41.6907 86.7853 40.8846 85.7858 40.8846C84.7864 40.8846 83.9762 41.6907 83.9762 42.6851C83.9762 43.6796 84.7864 44.4857 85.7858 44.4857Z" fill="var(--fill-0, #226E77)"/>
<path id="Vector_46" d="M86.4614 52.2641C87.4742 52.2641 88.2952 51.4472 88.2952 50.4395C88.2952 49.4318 87.4742 48.615 86.4614 48.615C85.4487 48.615 84.6277 49.4318 84.6277 50.4395C84.6277 51.4472 85.4487 52.2641 86.4614 52.2641Z" fill="var(--fill-0, #226E77)"/>
<path id="Vector_47" d="M52.2236 51.3758C53.223 51.3758 54.0332 50.5697 54.0332 49.5753C54.0332 48.5808 53.223 47.7747 52.2236 47.7747C51.2242 47.7747 50.414 48.5808 50.414 49.5753C50.414 50.5697 51.2242 51.3758 52.2236 51.3758Z" fill="var(--fill-0, #226E77)"/>
<path id="Vector_48" d="M24.4762 46.0942C25.489 46.0942 26.31 45.2773 26.31 44.2696C26.31 43.2619 25.489 42.4451 24.4762 42.4451C23.4635 42.4451 22.6425 43.2619 22.6425 44.2696C22.6425 45.2773 23.4635 46.0942 24.4762 46.0942Z" fill="var(--fill-0, #226E77)"/>
<path id="Vector_49" d="M46.5535 63.6676C47.5396 63.6676 48.339 62.8722 48.339 61.891C48.339 60.9099 47.5396 60.1145 46.5535 60.1145C45.5674 60.1145 44.768 60.9099 44.768 61.891C44.768 62.8722 45.5674 63.6676 46.5535 63.6676Z" fill="var(--fill-0, #226E77)"/>
<path id="Vector_50" d="M23.0527 30.5374C24.0654 30.5374 24.8864 29.7205 24.8864 28.7128C24.8864 27.7052 24.0654 26.8883 23.0527 26.8883C22.0399 26.8883 21.2189 27.7052 21.2189 28.7128C21.2189 29.7205 22.0399 30.5374 23.0527 30.5374Z" fill="var(--fill-0, #226E77)"/>
<path id="Vector_51" d="M51.4997 43.5974C52.4858 43.5974 53.2852 42.802 53.2852 41.8209C53.2852 40.8397 52.4858 40.0443 51.4997 40.0443C50.5137 40.0443 49.7143 40.8397 49.7143 41.8209C49.7143 42.802 50.5137 43.5974 51.4997 43.5974Z" fill="var(--fill-0, #226E77)"/>
<path id="Vector_52" d="M57.9661 39.1801C58.9655 39.1801 59.7757 38.3739 59.7757 37.3795C59.7757 36.3851 58.9655 35.5789 57.9661 35.5789C56.9667 35.5789 56.1565 36.3851 56.1565 37.3795C56.1565 38.3739 56.9667 39.1801 57.9661 39.1801Z" fill="var(--fill-0, #226E77)"/>
<path id="Vector_53" d="M78.6922 41.1967C79.7049 41.1967 80.5259 40.3798 80.5259 39.3721C80.5259 38.3644 79.7049 37.5476 78.6922 37.5476C77.6794 37.5476 76.8584 38.3644 76.8584 39.3721C76.8584 40.3798 77.6794 41.1967 78.6922 41.1967Z" fill="var(--fill-0, #226E77)"/>
<path id="Vector_54" d="M53.6713 67.0046C54.6707 67.0046 55.4809 66.1985 55.4809 65.2041C55.4809 64.2096 54.6707 63.4035 53.6713 63.4035C52.6719 63.4035 51.8617 64.2096 51.8617 65.2041C51.8617 66.1985 52.6719 67.0046 53.6713 67.0046Z" fill="var(--fill-0, #226E77)"/>
<path id="Vector_55" d="M58.6417 46.8624C59.6411 46.8624 60.4513 46.0563 60.4513 45.0619C60.4513 44.0674 59.6411 43.2613 58.6417 43.2613C57.6423 43.2613 56.8321 44.0674 56.8321 45.0619C56.8321 46.0563 57.6423 46.8624 58.6417 46.8624Z" fill="var(--fill-0, #226E77)"/>
<path id="Vector_56" d="M50.1244 28.0406C51.1239 28.0406 51.9341 27.2345 51.9341 26.2401C51.9341 25.2457 51.1239 24.4395 50.1244 24.4395C49.125 24.4395 48.3148 25.2457 48.3148 26.2401C48.3148 27.2345 49.125 28.0406 50.1244 28.0406Z" fill="var(--fill-0, #226E77)"/>
<path id="Vector_57" d="M45.8055 55.8412C46.8049 55.8412 47.6151 55.035 47.6151 54.0406C47.6151 53.0462 46.8049 52.2401 45.8055 52.2401C44.8061 52.2401 43.9959 53.0462 43.9959 54.0406C43.9959 55.035 44.8061 55.8412 45.8055 55.8412Z" fill="var(--fill-0, #226E77)"/>
</g>
</svg>
