<svg preserveAspectRatio="none" width="100%" height="100%" overflow="visible" style="display: block;" viewBox="0 0 107 83.0324" fill="none" xmlns="http://www.w3.org/2000/svg">
<g id="Group">
<path id="Vector" d="M99.8578 10.6366L107 20.4967L62.0228 53.1067L54.8806 43.2466L99.8578 10.6366ZM68.2092 41.3065C71.2891 41.8114 72.5104 42.3164 74.3424 40.2168C76.1744 38.1172 80.2102 37.6654 81.0598 34.6622C81.3253 33.732 79.5995 30.7288 82.0422 31.2338C83.2635 31.4995 84.1132 33.4662 85.361 32.5095C85.8921 32.1108 86.1045 30.0644 86.7682 29.8252C90.2464 28.5495 93.4856 27.4598 95.5566 24.5098C94.468 23.8719 93.6449 23.4201 93.3529 22.7026C93.1139 22.0913 94.3618 20.7624 95.2645 21.5332C96.061 22.2242 95.2114 24.8021 96.7779 23.9783C99.5392 22.5165 98.4506 20.7624 100.017 19.6196C100.495 19.2741 101.318 19.6196 102.274 19.5133C101.716 17.9453 100.654 16.0052 99.4065 15.5533C96.1672 16.8025 91.4677 18.6097 90.6978 21.1877L89.3437 25.7855L85.6 25.0413C88.2285 25.5729 75.0328 30.8085 75.7762 32.3766C76.44 33.1473 77.5285 33.7054 77.5551 34.237C77.6347 35.3001 76.8117 35.9645 75.7762 35.7784C75.2186 35.6721 74.8469 34.5027 74.1566 33.9712C72.0591 32.35 72.2449 36.6023 71.1563 36.9213C67.2268 38.0641 59.0757 42.0506 59.9784 44.602C60.3501 45.6651 61.2529 47.366 62.6335 48.0304C63.6424 48.5088 68.5278 45.107 68.3154 43.9907C68.2357 43.5124 67.6516 41.5191 68.1561 41.2533L68.2092 41.3065Z" fill="var(--fill-0, #226E77)"/>
<path id="Vector_2" d="M50.4201 34.6356C47.1809 33.5726 45.0303 30.5428 44.2337 26.822L78.1127 2.90269C81.2722 4.84281 83.4759 7.12843 84.1928 10.6366L50.4201 34.6622V34.6356ZM56.0489 26.6094C56.1285 25.7323 55.0399 24.2706 55.5179 23.5796C56.7127 21.7989 58.2526 24.7224 59.6864 24.8553C60.6156 22.1444 62.8459 21.3737 65.1558 20.3904C70.7581 18.025 75.2983 11.5136 75.139 11.5136C76.5993 11.6731 80.1836 11.1416 80.396 9.25459C80.5022 8.29782 79.7323 7.65997 79.3074 7.23474C77.8471 5.74643 70.9705 11.3276 70.0943 12.5236L70.8377 15.2078C71.1032 16.1912 69.0057 15.8988 68.5809 15.447C68.3419 15.1547 67.6516 14.8889 66.6161 14.3042C62.899 19.5399 62.129 16.2975 52.8628 24.4832C52.0928 25.1476 52.5176 26.7157 51.7476 27.008C50.8449 27.3801 49.9422 26.9815 48.4553 27.3004C47.1278 27.5927 48.535 30.1441 49.4377 30.6757C51.2166 31.7387 55.9958 27.5662 56.102 26.636L56.0489 26.6094Z" fill="var(--fill-0, #226E77)"/>
<path id="Vector_3" d="M36.9057 83.0058L0 68.9731C1.27444 64.2159 4.14194 61.9568 6.1067 58.5815C7.7794 55.7378 8.78834 52.6814 12.4789 50.9273L32.4983 74.9264C34.4099 77.212 37.304 78.2485 36.9057 83.0324V83.0058ZM31.4628 77.9296L11.7886 54.4887L3.31886 67.3254L31.4628 77.9562V77.9296Z" fill="var(--fill-0, #226E77)"/>
<path id="Vector_4" d="M39.7466 20.1246C37.835 21.3737 33.2948 15.766 35.4985 13.9587C41.6849 8.90909 48.3757 4.15181 55.4648 0.0855227C56.9251 -0.738365 60.2174 4.63019 59.0757 5.90589C53.1283 11.0087 46.4375 15.766 39.7466 20.1246ZM55.1462 3.19503L48.3491 7.95232L49.597 9.73298L56.394 4.97569L55.1462 3.19503ZM45.1896 12.6033C47.3136 12.4704 48.1633 9.41405 47.1809 9.33432C45.402 9.20144 43.6496 11.0884 45.1896 12.6033ZM41.7114 12.7096L37.7288 15.4205L39.0298 17.3606L43.0124 14.6497L41.7114 12.7096Z" fill="var(--fill-0, #226E77)"/>
<path id="Vector_5" d="M68.2092 41.3065C67.6782 41.5722 68.2623 43.5655 68.3685 44.0439C68.5809 45.1601 63.669 48.562 62.6866 48.0836C61.306 47.4192 60.4032 45.6917 60.0315 44.6552C59.1022 42.1038 67.2534 38.1172 71.2094 36.9744C72.3246 36.6555 72.1122 32.4032 74.2097 34.0244C74.9 34.5559 75.2717 35.7253 75.8293 35.8316C76.8648 36.0442 77.6878 35.3532 77.6082 34.2901C77.5551 33.7586 76.4665 33.1739 75.8293 32.4297C75.0859 30.8351 88.2816 25.5995 85.6531 25.0945L89.3968 25.8386L90.7509 21.2408C91.4943 18.6894 96.2203 16.8556 99.4596 15.6065C100.707 16.0583 101.743 18.025 102.327 19.5665C101.345 19.6728 100.548 19.3273 100.07 19.6728C98.4772 20.8156 99.5923 22.5697 96.831 24.0314C95.2911 24.8553 96.1407 22.2773 95.3176 21.5863C94.4149 20.8422 93.167 22.1444 93.406 22.7557C93.698 23.4999 94.5211 23.9517 95.6097 24.5629C93.5122 27.4864 90.2995 28.6027 86.8213 29.8784C86.1576 30.1175 85.9452 32.164 85.4141 32.5626C84.1928 33.4928 83.3166 31.5261 82.0953 31.2869C79.6526 30.782 81.3519 33.7852 81.1129 34.7154C80.2898 37.692 76.2275 38.1704 74.3955 40.27C72.5635 42.3695 71.3687 41.8646 68.2623 41.3596L68.2092 41.3065ZM62.2087 43.5921C61.2794 44.8146 62.5538 45.6119 63.4035 45.3462C63.7752 45.2399 64.5186 45.6385 64.8638 44.8412C65.1824 44.1502 64.731 43.3795 64.3328 43.406C63.7486 43.4858 62.5804 43.0871 62.2087 43.5921Z" fill="var(--fill-0, #70BC96)"/>
<path id="Vector_6" d="M56.0489 26.6094C55.9427 27.5396 51.1635 31.7122 49.3846 30.6491C48.4819 30.1175 47.0747 27.5662 48.4022 27.2738C49.8891 26.9549 50.7918 27.3535 51.6945 26.9815C52.4645 26.6891 52.0397 25.1211 52.8097 24.4566C62.0759 16.2709 62.8459 19.5133 66.563 14.2776C67.5985 14.8623 68.2888 15.1547 68.5278 15.4205C68.9526 15.8723 71.0501 16.1912 70.7846 15.1813L70.0412 12.497C70.9174 11.301 77.794 5.71985 79.2543 7.20816C79.6792 7.63339 80.4491 8.27124 80.3429 9.22801C80.1305 11.115 76.5462 11.6199 75.0859 11.4871C75.2452 11.4871 70.705 18.025 65.1027 20.3638C62.7928 21.3206 60.5891 22.0913 59.6332 24.8287C58.2261 24.6958 56.6861 21.7724 55.4648 23.553C54.9868 24.2706 56.0754 25.7323 55.9958 26.5828L56.0489 26.6094Z" fill="var(--fill-0, #70BC96)"/>
<path id="Vector_7" d="M31.4628 77.9296L3.31886 67.2988L11.7886 54.4887L31.4628 77.9296Z" fill="var(--fill-0, #E4D66D)"/>
<path id="Vector_8" d="M55.1467 3.18571L48.3601 7.94063L49.6086 9.72604L56.3952 4.97111L55.1467 3.18571Z" fill="var(--fill-0, #70BC96)"/>
<path id="Vector_9" d="M41.7229 12.7087L37.7243 15.4247L39.0362 17.36L43.0348 14.644L41.7229 12.7087Z" fill="var(--fill-0, #70BC96)"/>
<path id="Vector_10" d="M45.1896 12.6033C43.6231 11.0884 45.402 9.20144 47.1809 9.33432C48.1898 9.41405 47.3136 12.4704 45.1896 12.6033Z" fill="var(--fill-0, #70BC96)"/>
<path id="Vector_11" d="M62.2087 43.5921C62.5804 43.0871 63.7486 43.4592 64.3328 43.4061C64.731 43.3529 65.1824 44.1236 64.8638 44.8412C64.5186 45.6385 63.7752 45.2399 63.4035 45.3462C62.5273 45.6119 61.2794 44.8146 62.2087 43.5921Z" fill="var(--fill-0, #226E77)"/>
</g>
</svg>
