<?xml version="1.0" encoding="UTF-8"?>
<svg id="_レイヤー_2" data-name="レイヤー 2" xmlns="http://www.w3.org/2000/svg" viewBox="0 0 333.49 763.53">
  <defs>
    <style>
      .cls-1 {
        font-family: SourceSerifRoman-Bold, 'Source Serif Variable';
        font-variation-settings: 'wght' 700;
        font-weight: 700;
      }

      .cls-2 {
        stroke: #fffcf2;
      }

      .cls-2, .cls-3, .cls-4, .cls-5, .cls-6, .cls-7, .cls-8, .cls-9 {
        fill: none;
      }

      .cls-10, .cls-11, .cls-12, .cls-13, .cls-14, .cls-15, .cls-16, .cls-17, .cls-18, .cls-19, .cls-20, .cls-21, .cls-22, .cls-23, .cls-24, .cls-25 {
        font-family: TsukuBRdGothic-Regular-83pv-RKSJ-H, 'Tsukushi B Round Gothic';
      }

      .cls-3, .cls-6, .cls-8 {
        stroke-linejoin: round;
      }

      .cls-3, .cls-6, .cls-8, .cls-9 {
        stroke-linecap: round;
      }

      .cls-3, .cls-9 {
        stroke: #231f20;
        stroke-width: 2px;
      }

      .cls-4, .cls-5 {
        stroke: #386f6b;
      }

      .cls-4, .cls-5, .cls-26, .cls-27 {
        font-family: ShinMGoPro-Ultra, 'ShinMGoPro Ultra-83pv-RKSJ-H';
      }

      .cls-4, .cls-26 {
        font-size: 10.55px;
      }

      .cls-5, .cls-27 {
        font-size: 27.17px;
        letter-spacing: .07em;
      }

      .cls-28 {
        fill: #fffcf2;
      }

      .cls-26, .cls-27 {
        fill: #fff;
      }

      .cls-6 {
        stroke-width: 2.25px;
      }

      .cls-6, .cls-7, .cls-8 {
        stroke: #000;
      }

      .cls-7 {
        stroke-width: 1.5px;
      }

      .cls-7, .cls-9 {
        stroke-miterlimit: 10;
      }

      .cls-29 {
        fill: #dfd6ea;
      }

      .cls-30 {
        letter-spacing: 0em;
      }

      .cls-31, .cls-32 {
        fill: #231815;
      }

      .cls-33 {
        letter-spacing: 0em;
      }

      .cls-8 {
        stroke-width: 1.37px;
      }

      .cls-34 {
        letter-spacing: -.3em;
      }

      .cls-35 {
        letter-spacing: -.3em;
      }

      .cls-36 {
        letter-spacing: -.3em;
      }

      .cls-37 {
        letter-spacing: -.32em;
      }

      .cls-38 {
        letter-spacing: -.32em;
      }

      .cls-39 {
        letter-spacing: -.34em;
      }

      .cls-40 {
        letter-spacing: -.32em;
      }

      .cls-41 {
        letter-spacing: -.36em;
      }

      .cls-42 {
        letter-spacing: -.36em;
      }

      .cls-43 {
        letter-spacing: -.25em;
      }

      .cls-44 {
        letter-spacing: -.26em;
      }

      .cls-45, .cls-21 {
        letter-spacing: -.26em;
      }

      .cls-46, .cls-22 {
        letter-spacing: -.26em;
      }

      .cls-47 {
        letter-spacing: -.26em;
      }

      .cls-48 {
        letter-spacing: -.28em;
      }

      .cls-49 {
        letter-spacing: -.28em;
      }

      .cls-50 {
        letter-spacing: -.28em;
      }

      .cls-51 {
        letter-spacing: -.27em;
      }

      .cls-52 {
        letter-spacing: -.29em;
      }

      .cls-53 {
        letter-spacing: -.29em;
      }

      .cls-54 {
        letter-spacing: -.29em;
      }

      .cls-55 {
        letter-spacing: -.31em;
      }

      .cls-56 {
        letter-spacing: -.31em;
      }

      .cls-57 {
        letter-spacing: -.31em;
      }

      .cls-58 {
        letter-spacing: -.24em;
      }

      .cls-59 {
        letter-spacing: -.24em;
      }

      .cls-60 {
        letter-spacing: -.24em;
      }

      .cls-61 {
        letter-spacing: -.23em;
      }

      .cls-62 {
        letter-spacing: -.23em;
      }

      .cls-63, .cls-23 {
        letter-spacing: -.23em;
      }

      .cls-64 {
        letter-spacing: -.25em;
      }

      .cls-65 {
        letter-spacing: -.5em;
      }

      .cls-66 {
        letter-spacing: -.44em;
      }

      .cls-67 {
        letter-spacing: -.5em;
      }

      .cls-68 {
        letter-spacing: -.09em;
      }

      .cls-69 {
        letter-spacing: -.09em;
      }

      .cls-70 {
        letter-spacing: -.1em;
      }

      .cls-71, .cls-24 {
        letter-spacing: -.1em;
      }

      .cls-72 {
        letter-spacing: -.1em;
      }

      .cls-73, .cls-25 {
        letter-spacing: -.11em;
      }

      .cls-74 {
        letter-spacing: -.11em;
      }

      .cls-75 {
        letter-spacing: -.08em;
      }

      .cls-76 {
        letter-spacing: -.08em;
      }

      .cls-77 {
        letter-spacing: -.08em;
      }

      .cls-78 {
        letter-spacing: -.07em;
      }

      .cls-79 {
        letter-spacing: -.07em;
      }

      .cls-80 {
        letter-spacing: -.07em;
      }

      .cls-81 {
        letter-spacing: -.07em;
      }

      .cls-82 {
        letter-spacing: -.06em;
      }

      .cls-83 {
        letter-spacing: -.06em;
      }

      .cls-84, .cls-15 {
        letter-spacing: -.06em;
      }

      .cls-85 {
        letter-spacing: -.19em;
      }

      .cls-86 {
        letter-spacing: -.19em;
      }

      .cls-87, .cls-16 {
        letter-spacing: -.19em;
      }

      .cls-88 {
        letter-spacing: -.19em;
      }

      .cls-89 {
        letter-spacing: -.2em;
      }

      .cls-90 {
        letter-spacing: -.2em;
      }

      .cls-91 {
        letter-spacing: -.2em;
      }

      .cls-92 {
        letter-spacing: -.21em;
      }

      .cls-93, .cls-17 {
        letter-spacing: -.21em;
      }

      .cls-94, .cls-18 {
        letter-spacing: -.21em;
      }

      .cls-95 {
        letter-spacing: -.22em;
      }

      .cls-96 {
        letter-spacing: -.22em;
      }

      .cls-97 {
        letter-spacing: -.22em;
      }

      .cls-98 {
        letter-spacing: -.16em;
      }

      .cls-99 {
        letter-spacing: -.16em;
      }

      .cls-100 {
        letter-spacing: -.16em;
      }

      .cls-101 {
        letter-spacing: -.17em;
      }

      .cls-102 {
        letter-spacing: -.17em;
      }

      .cls-103 {
        letter-spacing: -.17em;
      }

      .cls-104 {
        letter-spacing: -.18em;
      }

      .cls-105 {
        letter-spacing: -.18em;
      }

      .cls-106 {
        letter-spacing: -.18em;
      }

      .cls-107 {
        letter-spacing: -.12em;
      }

      .cls-108 {
        letter-spacing: -.12em;
      }

      .cls-109 {
        letter-spacing: -.13em;
      }

      .cls-110, .cls-20 {
        letter-spacing: -.13em;
      }

      .cls-111 {
        letter-spacing: -.13em;
      }

      .cls-112 {
        letter-spacing: -.14em;
      }

      .cls-113 {
        letter-spacing: -.14em;
      }

      .cls-114 {
        letter-spacing: -.15em;
      }

      .cls-115, .cls-19 {
        letter-spacing: -.15em;
      }

      .cls-116 {
        letter-spacing: -.15em;
      }

      .cls-117 {
        letter-spacing: -.02em;
      }

      .cls-118 {
        letter-spacing: -.02em;
      }

      .cls-119 {
        letter-spacing: -.05em;
      }

      .cls-120 {
        letter-spacing: -.05em;
      }

      .cls-121, .cls-12 {
        letter-spacing: -.05em;
      }

      .cls-122 {
        letter-spacing: -.05em;
      }

      .cls-123 {
        letter-spacing: -.04em;
      }

      .cls-124 {
        letter-spacing: -.04em;
      }

      .cls-125, .cls-13 {
        letter-spacing: -.04em;
      }

      .cls-126 {
        letter-spacing: -.04em;
      }

      .cls-127 {
        letter-spacing: -.03em;
      }

      .cls-128, .cls-14 {
        letter-spacing: -.03em;
      }

      .cls-129 {
        letter-spacing: -.03em;
      }

      .cls-130 {
        letter-spacing: 0em;
      }

      .cls-131 {
        letter-spacing: -.01em;
      }

      .cls-132, .cls-11 {
        letter-spacing: -.01em;
      }

      .cls-133 {
        letter-spacing: 0em;
      }

      .cls-134 {
        letter-spacing: 0em;
      }

      .cls-135 {
        letter-spacing: .08em;
      }

      .cls-32 {
        font-size: 9px;
      }

      .cls-136 {
        letter-spacing: .04em;
      }

      .cls-137 {
        letter-spacing: .05em;
      }

      .cls-138 {
        letter-spacing: .04em;
      }

      .cls-139 {
        letter-spacing: .03em;
      }
    </style>
  </defs>
  <g id="_レイヤー_1-2" data-name="レイヤー 1">
    <g id="voice-text04-sp">
      <path class="cls-29" d="M308.61,732.55H25.13c-3.48,0-6.33-2.85-6.33-6.33V47.86c0-3.48,2.85-6.33,6.33-6.33h22.13c2.81,0,5.4-1.5,6.81-3.93l13.98-24.22c1.91-3.3,6.67-3.3,8.58,0l13.98,24.22c1.4,2.43,4,3.93,6.81,3.93h211.19c3.48,0,6.33,2.85,6.33,6.33v678.37c0,3.48-2.85,6.33-6.33,6.33Z"/>
      <path class="cls-9" d="M33.11,50.34v-12.39c0-3.48,2.85-6.33,6.33-6.33h22.13c2.81,0,5.4-1.5,6.81-3.93l13.98-24.22c1.91-3.3,6.67-3.3,8.58,0l13.98,24.22c1.4,2.43,4,3.93,6.81,3.93h211.19c3.48,0,6.33,2.85,6.33,6.33v705.64c0,3.48-2.85,6.33-6.33,6.33H39.44c-3.48,0-6.33-2.85-6.33-6.33V79.35"/>
      <polygon class="cls-2" points="214.34 738.66 205.92 724.07 222.77 724.07 214.34 738.66"/>
      <polygon class="cls-2" points="134.34 63.12 125.92 48.53 142.77 48.53 134.34 63.12"/>
      <circle class="cls-3" cx="88.82" cy="65.01" r="8.31"/>
      <circle class="cls-2" cx="213.77" cy="726.17" r="8.31"/>
      <rect class="cls-2" x="63.2" y="719.23" width="15.43" height="15.43"/>
      <polyline class="cls-3" points="66.45 58.06 55.55 68.96 44.64 58.06 33.73 68.96 22.82 58.06 11.91 68.96 1 58.06"/>
      <polyline class="cls-2" points="313.53 99.7 302.62 110.6 291.71 99.7 280.8 110.6 269.89 99.7 258.98 110.6 248.07 99.7"/>
      <rect class="cls-2" x="92.48" y="51.1" width="15.43" height="15.43"/>
      <rect class="cls-28" x="279.21" y="52.32" width="21.04" height="21.04"/>
      <polygon points="297.91 57.01 296.2 55.31 293.05 58.46 289.9 55.31 288.2 57.01 291.35 60.16 288.2 63.32 289.9 65.02 293.05 61.87 296.2 65.02 297.91 63.32 294.75 60.16 297.91 57.01"/>
      <rect class="cls-7" x="283.05" y="49.52" width="20.01" height="20.01"/>
      <rect class="cls-28" x="52.15" y="186.92" width="70.26" height="12.73"/>
      <polygon class="cls-2" points="279 721.96 270.58 707.37 287.42 707.37 279 721.96"/>
      <line class="cls-8" x1="256.05" y1="701.48" x2="271.44" y2="686.09"/>
      <line class="cls-8" x1="251.45" y1="713.58" x2="283.54" y2="681.49"/>
      <line class="cls-8" x1="250.9" y1="721.62" x2="291.57" y2="680.95"/>
      <line class="cls-8" x1="251.23" y1="728.78" x2="298.74" y2="681.28"/>
      <line class="cls-8" x1="304.76" y1="682.75" x2="252.7" y2="734.81"/>
      <line class="cls-8" x1="254.89" y1="740.11" x2="310.07" y2="684.94"/>
      <line class="cls-8" x1="257.61" y1="744.89" x2="314.84" y2="687.66"/>
      <line class="cls-8" x1="260.9" y1="749.09" x2="319.05" y2="690.95"/>
      <line class="cls-8" x1="264.65" y1="752.84" x2="322.8" y2="694.7"/>
      <line class="cls-8" x1="326.09" y1="698.9" x2="268.86" y2="756.13"/>
      <line class="cls-8" x1="328.8" y1="703.68" x2="273.63" y2="758.85"/>
      <line class="cls-8" x1="278.94" y1="761.04" x2="331" y2="708.98"/>
      <line class="cls-8" x1="332.47" y1="715.01" x2="284.96" y2="762.51"/>
      <line class="cls-8" x1="332.8" y1="722.17" x2="292.13" y2="762.84"/>
      <line class="cls-8" x1="332.6" y1="730.01" x2="300.51" y2="762.1"/>
      <line class="cls-8" x1="328" y1="742.11" x2="312.61" y2="757.5"/>
      <polygon class="cls-6" points="177.48 708.22 187.75 726.52 177.48 726.52 167.22 726.52 177.48 708.22"/>
      <g>
        <path d="M70.21,140.55l-4.53-.06c.99,3.09,2.87,5.12,5.23,6.17.33.15.46.41.46.69,0,.47-.4.99-.94.99-.82,0-4.09-2.36-5.6-6.15-.87,2.59-2.61,4.84-5.57,6.2-.13.06-.27.09-.39.09-.48,0-.81-.41-.81-.82,0-.27.15-.55.51-.7,3.24-1.37,4.6-3.84,5.12-6.46l-4.57.06h-.02c-.51,0-.75-.37-.75-.73s.25-.76.76-.76h4.77c.09-1.36.09-2.3.09-2.42v-.62c0-.49.39-.72.79-.72s.81.24.82.7v.33c0,.72-.03,1.43-.07,2.13l-.04.59h4.74c.49,0,.75.38.75.75s-.25.75-.73.75h-.01Z"/>
        <path d="M81.52,144.57c.03.21.04.44.04.67,0,1.37-.63,3.44-3.23,3.44-1.17,0-1.79-.32-1.79-.91,0-.38.28-.72.7-.72.07,0,.15,0,.24.03.33.11.67.17.99.17,1.67,0,1.67-2.04,1.67-2.16,0-.18-.02-.35-.04-.52l-6.33.03c-.46,0-.69-.33-.69-.67s.24-.7.67-.7l5.53.03c-.18-.12-.37-.24-.6-.32-.31-.11-.45-.3-.45-.5,0-.32.34-.64.79-.64.33,0,.64.17.88.3.39-.26,1.18-.82,1.18-1,0-.06-.06-.09-.16-.09-.16-.01-.45-.01-.79-.01-.96,0-2.41.03-3.45.08h-.03c-.45,0-.67-.32-.67-.64s.22-.62.69-.64c.64-.03,1.45-.03,2.24-.03,1.09,0,2.18.02,2.87.03.85.01,1.21.46,1.21.93,0,.75-.79,1.37-2.14,2.22.07.11.15.21.21.32l4.45-.05c.43,0,.66.35.66.7s-.21.67-.64.67l-4-.02ZM83.99,139.7c0-.64-.33-.75-.94-.76-1.2-.01-2.54-.03-3.84-.03-1.06,0-2.11.02-3.03.03-.82.02-.96.23-1,.76v.9c0,.43-.37.67-.76.67-.34,0-.7-.21-.72-.69,0-.2-.01-.43-.01-.67,0-.26.01-.52.01-.75.03-.72.58-1.45,1.75-1.46h1.25c-.07-.06-.13-.14-.19-.23-.31-.53-.64-.73-1.05-1.1-.13-.12-.19-.26-.19-.4,0-.33.37-.65.76-.65.57,0,1.73,1.16,1.73,1.69,0,.27-.19.53-.43.67,1.31-.02,2.61-.02,3.93-.02.43-.5.82-1.39,1.06-2.01.13-.35.4-.49.67-.49.42,0,.85.32.85.75,0,.29-.48,1.04-1.09,1.77.34,0,.7.01,1.05.01.88.02,1.7.5,1.73,1.45.02.21.02.53.02.82,0,.21,0,.41-.02.56-.03.44-.42.67-.79.67s-.75-.21-.75-.64v-.87ZM79.76,137.61c-.21,0-.4-.11-.51-.37-.21-.56-.54-.9-.88-1.31-.09-.11-.13-.23-.13-.33,0-.32.37-.59.76-.59.76,0,1.58,1.49,1.58,1.84,0,.41-.43.76-.82.76Z"/>
        <path d="M97.87,141.95c0-1.69-1.3-3.14-3.47-3.14h-.03c.24.11.42.33.42.64v.08c0,1.6-1.54,4.37-3.18,6.02-.37.37-.76.52-1.12.52-1.06,0-2.02-1.22-2.02-2.88,0-2.76,2.66-5.56,6.02-5.56,3.02,0,4.9,2.04,4.9,4.42,0,.56-.1,1.14-.33,1.72-1.31,3.38-5.38,3.85-5.59,3.85-.52,0-.85-.37-.85-.75,0-.33.25-.66.82-.76,2.72-.46,4.42-2.16,4.42-4.16ZM93.55,138.89c-1.87.38-3.73,2.41-3.73,4.22,0,1.14.75,1.28.79,1.28.09,0,.19-.03.28-.12.45-.41,2.32-2.67,2.38-4.72,0-.3.12-.53.28-.65Z"/>
        <path d="M113.08,142.16c0-1.4-.01-1.46-.79-1.48-.61-.02-1.78-.03-2.81-.03-2.39,0-2.41.02-2.45.78v.78c0,.4-.31.59-.64.59s-.64-.2-.64-.61v-.33c-.13.2-.64.52-.94.69,0,1.02-.01,1.8-.01,2.03,0,.24.04,1.63.06,2.16v.06c0,.96-.61,1.71-1.9,1.71-.94,0-1.34-.23-1.34-.82,0-.35.21-.7.58-.7.04,0,.09,0,.13.01.13.03.31.06.48.06.31,0,.61-.11.61-.5v-3.33c-1.12.47-1.3.5-1.4.5-.43,0-.69-.38-.69-.75,0-.26.13-.5.43-.61.61-.21,1.15-.41,1.66-.61v-2.22h-1.25c-.43,0-.66-.33-.66-.67s.22-.67.66-.67h1.25l-.02-2.38c0-.47.36-.72.72-.72s.69.23.69.72v2.38h.81c.45,0,.66.33.66.67s-.21.67-.66.67h-.81v1.57c.1-.06.37-.21.48-.21.19,0,.37.14.46.32v-.43c.01-.76.51-1.26,1.51-1.29h.33c-.07-.06-.13-.14-.18-.24-.19-.5-.36-.62-.52-.82-.09-.11-.12-.21-.12-.32,0-.3.34-.56.69-.56.48,0,1.12.91,1.12,1.34,0,.26-.16.47-.36.59.82-.01,1.85-.01,2.81-.01.36-.52.76-1.34.99-2.03.07-.24.3-.33.52-.33.36,0,.78.24.78.59,0,.26-.54,1.2-.93,1.78.21,0,.4.02.57.02.72.03,1.48.49,1.51,1.4.01.2.01.43.01.64,0,.23,0,.44-.01.62-.03.41-.37.61-.72.61s-.66-.2-.66-.58v-.02ZM107.68,142.86c-.36,0-.54-.3-.54-.59s.18-.61.52-.61c.58-.02,1.15-.02,1.76-.02s1.23,0,1.88.02c1,.01,1.45.58,1.45,1.19s-.78,1.84-1.75,2.86c.81.56,1.79.99,3.02,1.28.4.09.6.4.6.7,0,.37-.28.75-.81.75s-2.11-.53-3.75-1.84c-2.02,1.66-3.99,2-4.23,2-.45,0-.75-.37-.75-.72,0-.29.19-.56.63-.64,1.3-.24,2.46-.81,3.38-1.54-.67-.72-1.34-1.61-1.34-1.95s.34-.59.69-.59c.21,0,.42.09.54.3.3.52.64.99,1.03,1.4.73-.81,1.14-1.61,1.14-1.84,0-.17-.22-.18-.31-.18h-.84c-.76,0-1.48.02-2.3.03h-.01ZM112.88,136.82c-1.78.38-4.45.44-5.57.44-.51,0-1.09,0-1.09-.66,0-.32.21-.62.66-.62h.04c.36.02.73.03,1.12.03,1.52,0,3.15-.15,4.57-.44.06-.01.1-.01.15-.01.42,0,.72.35.72.67,0,.26-.16.5-.6.59ZM109.89,139.39c-.22,0-.43-.12-.49-.41-.1-.53-.25-.73-.37-.96-.04-.08-.06-.15-.06-.21,0-.29.33-.49.66-.49.75,0,.99,1.42.99,1.42,0,.4-.37.65-.72.65Z"/>
        <path d="M128.52,144.68l-3.76-.08h-.45c1.55,1.13,3.12,1.68,4.83,2.25.33.11.46.35.46.59,0,.4-.33.84-.79.84-.3,0-2.9-.99-5.17-2.79l.03,2.62v.02c0,.38-.36.58-.7.58s-.7-.18-.7-.58v-.02l.03-2.6c-1.85,1.52-4.69,2.83-5.17,2.83-.45,0-.76-.33-.76-.68,0-.24.16-.47.52-.61,1.82-.64,3.21-1.31,4.65-2.45h-.49l-3.63.08h-.02c-.37,0-.55-.27-.55-.56s.19-.58.57-.58l4.88.03-.02-.67h-3.38c-.33.01-.51-.24-.51-.5,0-.24.18-.5.51-.5h3.36s0-.64,0-.64h-4.12c-.37.01-.57-.26-.57-.55,0-.27.19-.55.57-.55h2.61c-.09-.21-.19-.44-.3-.61-.06-.08-.07-.15-.07-.23,0-.18.16-.33.37-.4h-3.42c-.42.01-.63-.3-.63-.62s.21-.62.61-.62h.02l1.96.03c-.21-.35-.49-.67-.78-.97-.09-.11-.13-.21-.13-.32,0-.32.39-.61.75-.61.12,0,.24.02.34.09.27.18,1.06,1.22,1.21,1.83h.52s-.01-2.01-.01-2.01h0c0-.44.33-.64.66-.64s.67.21.67.64v2.03h.87v-2.03c0-.43.33-.64.67-.64s.66.21.66.62h0s-.03,2.04-.03,2.04h.51c.3-.47.57-1.08.75-1.54.12-.32.37-.46.63-.46.39,0,.78.3.78.68,0,.05,0,.35-.72,1.28l2.03-.03h.01c.4,0,.6.3.6.62s-.19.64-.61.64h-3.6c.21.09.37.26.37.49,0,.17-.22.66-.27.75h2.6c.37-.01.55.26.55.55s-.18.55-.55.55h-4.09s0,.64,0,.64h3.33c.34-.01.51.24.51.5,0,.24-.16.5-.51.5h-3.35s-.02.66-.02.66l4.88-.03c.37,0,.57.29.55.58.02.29-.18.56-.54.56h-.02ZM121.38,138.92c.15.08.61.44.76,1.2v.04h1.66c.12-.27.27-.68.31-.99.02-.12.07-.2.15-.26h-2.88Z"/>
        <path d="M140.03,147.75h-.15c-3.24-.3-5.29-2.59-5.29-4.93,0-.59.13-1.63,1.08-2.79.04-.06.07-.11.07-.14,0-.02-.02-.03-.03-.03-.03,0-.09.03-.15.06-2.35,1.23-2.63,1.33-2.96,1.33-.55,0-.91-.4-.91-.82,0-.3.21-.64.69-.79.31-.11,1.17-.37,1.61-.53.7-.26,1.94-.66,3.42-1.25,1.11-.44,2.57-.94,3.96-.94.75,0,1.02.35,1.02.75,0,.78-.63.94-1.19.94-.1,0-.22,0-.34-.01-.12-.02-.24-.02-.36-.02-2.32,0-4.59,2.01-4.59,4.05,0,1.83,1.7,3.38,4.05,3.38.75,0,1.11.44,1.11.9,0,.43-.34.85-1.03.85ZM141.31,142.41c-.21-.24-.96-.81-1.27-.94-.27-.11-.37-.29-.37-.47,0-.3.28-.59.66-.59.19,0,2.02.7,2.02,1.49,0,.38-.33.71-.64.71-.13,0-.27-.06-.39-.2ZM143.03,141.14c-.21-.24-.99-.78-1.3-.9-.27-.11-.39-.29-.39-.47,0-.3.28-.61.66-.61.24,0,2.03.66,2.03,1.45,0,.38-.3.72-.63.72-.12,0-.25-.06-.37-.18Z"/>
        <path d="M153.83,144.57c.03.21.04.44.04.67,0,1.37-.63,3.44-3.23,3.44-1.17,0-1.79-.32-1.79-.91,0-.38.28-.72.7-.72.07,0,.15,0,.24.03.33.11.67.17.99.17,1.67,0,1.67-2.04,1.67-2.16,0-.18-.02-.35-.04-.52l-6.33.03c-.46,0-.69-.33-.69-.67s.24-.7.67-.7l5.53.03c-.18-.12-.37-.24-.6-.32-.31-.11-.45-.3-.45-.5,0-.32.34-.64.79-.64.33,0,.64.17.88.3.39-.26,1.18-.82,1.18-1,0-.06-.06-.09-.16-.09-.16-.01-.45-.01-.79-.01-.96,0-2.41.03-3.45.08h-.03c-.45,0-.67-.32-.67-.64s.22-.62.69-.64c.64-.03,1.45-.03,2.24-.03,1.09,0,2.18.02,2.87.03.85.01,1.21.46,1.21.93,0,.75-.79,1.37-2.14,2.22.07.11.15.21.21.32l4.45-.05c.43,0,.66.35.66.7s-.21.67-.64.67l-4-.02ZM156.3,139.7c0-.64-.33-.75-.94-.76-1.2-.01-2.54-.03-3.84-.03-1.06,0-2.11.02-3.03.03-.82.02-.96.23-1,.76v.9c0,.43-.37.67-.76.67-.34,0-.7-.21-.72-.69,0-.2-.01-.43-.01-.67,0-.26.01-.52.01-.75.03-.72.58-1.45,1.75-1.46h1.25c-.07-.06-.13-.14-.19-.23-.31-.53-.64-.73-1.05-1.1-.13-.12-.19-.26-.19-.4,0-.33.37-.65.76-.65.57,0,1.73,1.16,1.73,1.69,0,.27-.19.53-.43.67,1.31-.02,2.61-.02,3.93-.02.43-.5.82-1.39,1.06-2.01.13-.35.4-.49.67-.49.42,0,.85.32.85.75,0,.29-.48,1.04-1.09,1.77.34,0,.7.01,1.05.01.88.02,1.7.5,1.73,1.45.02.21.02.53.02.82,0,.21,0,.41-.02.56-.03.44-.42.67-.79.67s-.75-.21-.75-.64v-.87ZM152.07,137.61c-.21,0-.4-.11-.51-.37-.21-.56-.54-.9-.88-1.31-.09-.11-.13-.23-.13-.33,0-.32.37-.59.76-.59.76,0,1.58,1.49,1.58,1.84,0,.41-.43.76-.82.76Z"/>
        <path d="M166.82,147.54c-.75,0-2.03-.23-2.03-1.61,0-.23.04-.49.12-.76.24-.85.25-1.04.25-1.19,0-.35-.12-.47-.33-.47-.18,0-1.88.5-2.61,2.76-.37,1.17-.76,1.28-1.17,1.28-.36,0-.73-.23-.73-.69,0-.14.04-.32.13-.52.82-1.69,1.66-3.15,2.49-4.51.84-1.36,1.51-2.65,2.18-3.82.24-.43.61-.97.76-1.26s.39-.41.64-.41c.42,0,.85.35.85.82,0,.3-.15.61-.81,1.43-.67.82-1.21,1.61-1.66,2.33-.45.71-.81,1.35-1.14,1.84-.03.05-.04.06-.04.08h.01s.03-.03.07-.06c.19-.18.78-.41,1.34-.41.7,0,1.37.33,1.37,1.54v.15c-.02.47-.19.76-.28,1.19-.01.08-.03.15-.03.21,0,.43.33.62.81.62,1.45,0,3.21-1.61,3.69-3.67.1-.49.45-.69.79-.69.42,0,.84.3.84.79,0,.09-.01.18-.04.29-1.4,4.16-4.32,4.74-5.5,4.74Z"/>
        <path d="M179.53,139.27c-1.39,3.9-2.48,5.88-3.47,8-.13.29-.42.43-.72.43-.39,0-.78-.24-.78-.66,0-.12.03-.27.12-.43.79-1.45,2.03-3.62,3.24-6.88l-.16.05c-.46.14-.9.2-1.27.2-.15,0-1.31,0-1.31-.82,0-.38.24-.78.66-.78.13,0,.28.03.45.12.12.06.24.09.39.09.49,0,1.39-.29,1.75-.43.07-.38.1-.72.1-1.22,0-.47.42-.72.82-.72.34,0,.66.17.7.55.02.08.02.17.02.26s0,.18-.02.29c.06-.01.12-.03.19-.03.4,0,.7.35.7.7,0,.4-.27.67-1.37,1.17l-.04.11ZM184.09,147.84c-2.45,0-4.06-1.33-4.06-2.1,0-.43.34-.81.73-.81.19,0,.4.09.58.33.57.78,1.05.88,3,1.02.52.03.76.4.76.76,0,.79-.78.79-1.02.79ZM184.96,142.12c-.7-.27-1.79-.7-2.64-.7-.18,0-.36.02-.51.06-.06.02-.12.03-.16.03-.34,0-.57-.3-.57-.62,0-.24.07-.81,1.4-.81.84,0,1.93.23,3.03.69.34.14.48.41.48.67,0,.38-.3.75-.72.75-.1,0-.21-.02-.31-.06ZM184.61,138.66c-.19-.23-.91-.78-1.21-.9-.25-.11-.34-.27-.34-.46,0-.27.27-.56.63-.56.21,0,1.9.69,1.9,1.43,0,.35-.3.68-.6.68-.13,0-.27-.06-.37-.2ZM185.96,137.29c-.21-.23-.93-.73-1.23-.85-.27-.11-.37-.29-.37-.46,0-.29.27-.56.63-.56.33,0,1.93.67,1.93,1.37,0,.37-.3.67-.6.67-.12,0-.25-.05-.36-.17Z"/>
        <path d="M59.46,159.47c0,.3-.19.46-.39.46s-.39-.15-.4-.44c-.01-.69-.03-1.31-.03-1.89,0-1,.03-1.89.04-2.83.03-1.05.58-1.77,1.69-1.81.25-.02.49-.02.73-.02.52,0,.99.02,1.52.03.28,0,.4.2.4.4s-.13.4-.39.4h-.06c-.09-.02-.51-.05-2.06-.05-.6.01-1.03.35-1.06,1.13-.02.59-.03,1.2-.03,1.87,0,.81.02,1.71.03,2.74h0Z"/>
        <path d="M80.15,155.4l-2.94-.06c-.32,2.29-1.29,4.5-2.73,6.35,1.55,1.45,3.58,2.46,5.97,2.88.56.09.81.5.81.9,0,.57-.43,1.16-1.12,1.16-.13,0-3.67-.4-6.83-3.6-3.41,3.45-7.13,3.85-7.21,3.85-.67,0-1.09-.53-1.09-1.07,0-.4.26-.8.84-.9,2.45-.42,4.59-1.62,6.22-3.3-.77-1.01-1.4-2.1-1.89-3.24-1.42,1.33-1.91,1.37-2.1,1.37-.54,0-.97-.44-.97-.93,0-.36.21-.72.73-1.01.94-.51,1.83-1.37,2.19-2,.13-.23.37-.34.62-.34.49,0,1.01.38,1.01.86,0,.09,0,.17-.19.55.39,1.24.95,2.38,1.72,3.4,1.07-1.49,1.78-3.19,2.04-4.96-.54,0-1.05-.02-1.57-.02-1.83,0-3.8.06-7.51.11h-.02c-.58,0-.86-.42-.86-.86s.32-.93.88-.93l6.07.02-.02-2.65c0-.59.51-.88.99-.88s.99.29.99.88l-.02,2.65,5.99-.02c.56,0,.84.46.84.92s-.26.88-.82.88h-.02Z"/>
        <path d="M94.25,161.94c.04.27.06.55.06.84,0,1.72-.79,4.31-4.04,4.31-1.46,0-2.25-.4-2.25-1.14,0-.48.36-.9.88-.9.09,0,.19,0,.3.04.41.13.84.21,1.24.21,2.1,0,2.1-2.56,2.1-2.71,0-.23-.02-.44-.06-.65l-7.94.04c-.58,0-.86-.42-.86-.84s.3-.88.84-.88l6.93.04c-.22-.15-.47-.31-.75-.4-.39-.13-.56-.38-.56-.63,0-.4.43-.8.99-.8.41,0,.81.21,1.1.38.49-.32,1.48-1.03,1.48-1.26,0-.08-.08-.11-.21-.11-.21-.02-.56-.02-.99-.02-1.2,0-3.01.04-4.33.09h-.04c-.56,0-.84-.4-.84-.8s.28-.78.86-.8c.81-.04,1.82-.04,2.81-.04,1.37,0,2.73.02,3.59.04,1.07.02,1.52.57,1.52,1.16,0,.93-.99,1.72-2.68,2.79.09.13.19.27.26.4l5.58-.06c.54,0,.82.44.82.88s-.26.84-.8.84l-5.02-.02ZM97.34,155.84c0-.8-.41-.93-1.18-.95-1.5-.02-3.18-.04-4.81-.04-1.33,0-2.64.02-3.8.04-1.03.02-1.2.29-1.25.95v1.13c0,.53-.47.84-.95.84-.43,0-.88-.27-.9-.86,0-.25-.02-.53-.02-.84,0-.32.02-.65.02-.93.04-.9.73-1.81,2.19-1.83l1.57-.02c-.09-.06-.17-.15-.24-.27-.39-.67-.81-.92-1.31-1.37-.17-.15-.24-.32-.24-.5,0-.42.47-.82.95-.82.71,0,2.17,1.45,2.17,2.12,0,.34-.24.67-.54.84,1.65-.02,3.28-.02,4.92-.02.54-.63,1.03-1.74,1.33-2.52.17-.44.51-.61.84-.61.52,0,1.07.4,1.07.93,0,.36-.6,1.3-1.37,2.21.43,0,.88.02,1.31.02,1.1.02,2.13.63,2.17,1.81.02.27.02.67.02,1.03,0,.27,0,.51-.02.71-.04.55-.52.84-.99.84s-.94-.27-.94-.8v-1.09ZM92.04,153.23c-.26,0-.51-.13-.64-.46-.26-.71-.67-1.13-1.1-1.64-.11-.13-.17-.29-.17-.42,0-.4.47-.74.95-.74.96,0,1.98,1.87,1.98,2.31,0,.51-.54.95-1.03.95Z"/>
        <path d="M114.73,158.66c0-2.12-1.63-3.93-4.34-3.93h-.04c.3.13.52.42.52.8v.09c0,2-1.93,5.47-3.99,7.53-.47.46-.96.65-1.4.65-1.33,0-2.53-1.53-2.53-3.6,0-3.45,3.33-6.96,7.54-6.96,3.78,0,6.14,2.56,6.14,5.53,0,.71-.13,1.43-.41,2.16-1.65,4.23-6.74,4.83-7,4.83-.66,0-1.07-.46-1.07-.93,0-.42.32-.82,1.03-.95,3.41-.57,5.54-2.71,5.54-5.21ZM109.32,154.83c-2.34.48-4.68,3.01-4.68,5.28,0,1.43.94,1.6.99,1.6.11,0,.24-.04.36-.15.56-.52,2.9-3.34,2.98-5.91,0-.38.15-.67.36-.82Z"/>
        <path d="M119.58,166.81c-.47,0-.92-.36-.92-.82,0-.21.09-.42.3-.63,1.52-1.51,2.02-3.36,2.1-5.05.02-.44.37-.65.75-.65.41,0,.82.25.82.71,0,.04,0,3.61-2.3,6.1-.22.25-.49.34-.75.34ZM131.84,163.41c0,.5-.43.74-.84.74s-.86-.27-.86-.76v-.02l.04-4.39c-.71,1.33-1.63,2.5-2.08,2.69.36.44.79,1.26.79,1.54,0,.36-.36.63-.67.63-.22,0-.41-.11-.51-.38l-.04-.08c-1.2.38-2.47.5-2.53.5-.15,0-.28-.02-.37-.08v.23c.02.46.28.76.73.8.94.08,2.32.11,3.69.11s2.77-.04,3.73-.13c.88-.1,1.12-.57,1.12-1.22,0-.53.41-.76.84-.76.24,0,1.05.08,1.05.93,0,2.82-2.62,2.84-6.57,2.84-1.65,0-3.3-.06-4.1-.11-1.4-.09-2.1-.82-2.12-2.16,0-.4-.02-.76-.02-1.11,0-1.47.06-2.56.09-3.78-3.41,0-3.44-.27-3.44-3.17,0-.9.02-1.85.04-2.46.04-1.62,1.67-1.62,2.25-1.62.11-.44.22-1.03.26-1.41.04-.4.39-.59.75-.59.43,0,.9.29.9.8,0,.17-.09.61-.3,1.18,1.39,0,2.9.04,2.96,1.58.02.76.06,1.72.06,2.61,0,.51-.02.99-.04,1.39-.06.88-.56,1.51-1.78,1.62,0,1.22-.07,2.19-.09,3.39l.17-.06c.22-.57.52-1.62.71-2.48.06-.31.32-.44.58-.44.32,0,.66.21.66.57,0,.21-.47,1.58-.73,2.21.37-.06.75-.13,1.1-.19-.09-.17-.21-.31-.26-.4-.06-.09-.09-.17-.09-.25,0-.15.11-.29.26-.38-.08-.11-.11-.23-.11-.38,0-.17.07-.36.26-.55,1.09-1.09,1.91-2.12,2.49-3.36l-2.1.06h-.02c-.49,0-.73-.36-.73-.72,0-.38.26-.76.73-.76h.02l2.51.02-.02-1.58-1.89.02h-.02c-.49,0-.73-.36-.73-.74s.24-.76.73-.76h.02l1.85.02-.02-1.53v-.02c0-.53.43-.82.86-.82s.84.29.84.82v.02s-.02.59-.04,1.53l2.13-.02h.02c.47,0,.71.38.71.76s-.23.74-.71.74h-.02l-2.15-.02c0,.5-.02,1.03-.02,1.58l3-.02c.49,0,.73.38.73.76s-.22.72-.71.72h-.02l-2.62-.06c.88,1.49,2.06,2.75,3.28,3.74.26.21.37.46.37.69,0,.48-.47.88-.95.88-.21,0-.43-.08-.62-.27-.77-.78-1.72-2.04-2.43-3.26.02,2.29.06,4.52.06,4.52v.02ZM122.48,153.47c-.19,0-.37.02-.51.02-.58.02-.69.25-.69,1.62h1.2v-1.64ZM122.48,156.33h-1.2c0,1.66.04,1.72.6,1.75.13,0,.34.02.6.02v-1.77ZM125.08,155.11c0-.36-.02-.71-.02-.97-.02-.48-.19-.65-.69-.65h-.49v1.62h1.2ZM123.88,156.33v1.77c.26,0,.47-.02.58-.02.62-.04.64-.17.64-1.75h-1.22Z"/>
        <path d="M150.49,154.1c1.39.02,2.4.69,2.49,2.37.02.5.06,1.16.06,1.91,0,4.6-.84,8.33-5.09,8.33-.67,0-1.4-.1-2.17-.3-.49-.13-.73-.55-.73-.97,0-.5.32-.95.88-.95.09,0,.21,0,.32.04.6.17,1.16.27,1.69.27,1.39,0,3.2-.57,3.2-6.33,0-2.04-.04-2.61-.94-2.61-.34-.02-.84-.02-1.44-.02s-1.29,0-2.02.02c-.51,4.71-2.19,8.98-7.15,11.06-.15.06-.3.1-.45.1-.58,0-.97-.53-.97-1.05,0-.34.19-.71.62-.88,4.23-1.74,5.62-5.25,6.03-9.21-2.53.02-4.91.06-4.91.06h-.02c-.54,0-.82-.44-.82-.88s.28-.88.84-.88c0,0,2.43-.02,5.02-.04.04-.94.04-1.91.04-2.86v-.02c0-.61.51-.93,1.01-.93s.96.31.96.9c0,.97,0,1.93-.06,2.9h3.63Z"/>
        <path d="M159.88,160.38c0-.3.19-.46.39-.46s.4.15.4.44c.01.69.03,1.31.03,1.89,0,1-.03,1.89-.04,2.83-.03,1.05-.58,1.77-1.69,1.81-.25.01-.49.01-.73.01-.52,0-.99-.01-1.52-.03-.28,0-.4-.2-.4-.4s.13-.4.39-.4h.06c.09.02.51.05,2.06.05.6-.01,1.03-.35,1.06-1.13.02-.59.03-1.2.03-1.87,0-.81-.02-1.71-.03-2.74h0Z"/>
        <path d="M170.24,162.01c0,.26,0,.53-.03.84-.04.61-.45.93-.81.93-.33,0-.61-.24-.61-.72v-.14c.04-.37.06-.72.06-1.02-.31.17-1.7.91-1.7,1.87,0,.26.12,1.16,1.64,1.16.69,0,1.45-.18,1.88-.32.13-.05.27-.06.37-.06.49,0,.78.35.78.72,0,.32-.12,1.1-2.67,1.1s-3.35-1.31-3.35-2.42c0-1.86,2.12-3.02,2.9-3.43-.18-.59-.48-.9-.88-.9-.24,0-.49.09-.78.27-.63.72-1,.93-1.33.93-.36,0-.64-.24-.64-.58,0-.18.09-.41.34-.62.81-.73,1.21-1.11,1.91-2.31-.27.05-.51.06-.73.06-1.51,0-1.52-.85-1.52-.97,0-.35.25-.67.61-.67.16,0,.34.06.54.2.13.09.33.12.55.12.12,0,.51-.02,1.18-.17.13-.4.19-.69.27-1.2.06-.38.33-.53.63-.53.39,0,.81.27.81.67,0,.18-.06.43-.09.56.45-.23.51-.24.61-.24.36,0,.64.3.64.67,0,.5-.39.81-1.94,1.19-.22.47-.52.99-.85,1.52.82,0,1.49.47,1.88,1.43,1.88-.82,3.2-1.23,3.45-1.23.54,0,.84.41.84.79,0,.24-.13.49-.4.59-.46.2-.96.26-1.73.5-.63.2-1.27.44-1.85.69.03.23.03.47.03.73Z"/>
        <path d="M182.23,162.01c-1.17-.01-2.32-.03-3.36-.08-1.06-.04-1.61-.73-1.64-1.54-.01-.47-.03-.94-.03-1.42s.02-.9.03-1.31c.03-.65.45-1.54,1.61-1.57,1.03-.03,2.2-.05,3.39-.05v-2.16c0-.44.37-.67.75-.67s.76.23.76.67v2.16c1.21,0,2.41.02,3.48.05.88.03,1.49.82,1.54,1.45.03.37.04.82.04,1.29,0,.53-.01,1.08-.04,1.54-.03.76-.64,1.51-1.61,1.55-1.09.05-2.24.08-3.41.08v4.07c0,.41-.37.62-.76.62s-.75-.21-.75-.62v-4.07ZM182.23,157.43c-1.05,0-2.03.03-2.84.04-.48.02-.72.33-.73.64-.02.29-.03.66-.03,1,0,.96,0,1.43.78,1.46.84.04,1.81.08,2.82.08v-3.23ZM183.74,160.64c1-.02,1.99-.03,2.87-.06.72-.03.75-.37.75-1.55s-.03-1.54-.76-1.55c-.82-.03-1.82-.04-2.85-.04v3.21Z"/>
        <path d="M199.85,162.7c.03.21.04.44.04.67,0,1.37-.63,3.44-3.23,3.44-1.17,0-1.79-.32-1.79-.91,0-.38.28-.72.7-.72.07,0,.15,0,.24.03.33.11.67.17.99.17,1.67,0,1.67-2.04,1.67-2.16,0-.18-.02-.35-.04-.52l-6.33.03c-.46,0-.69-.33-.69-.67s.24-.7.67-.7l5.53.03c-.18-.12-.37-.24-.6-.32-.31-.11-.45-.3-.45-.5,0-.32.34-.64.79-.64.33,0,.64.17.88.3.39-.26,1.18-.82,1.18-1,0-.06-.06-.09-.16-.09-.16-.02-.45-.02-.79-.02-.96,0-2.41.03-3.45.08h-.03c-.45,0-.67-.32-.67-.64s.22-.62.69-.64c.64-.03,1.45-.03,2.24-.03,1.09,0,2.18.02,2.87.03.85.01,1.21.46,1.21.93,0,.75-.79,1.37-2.14,2.22.07.11.15.21.21.32l4.45-.05c.43,0,.66.35.66.7s-.21.67-.64.67l-4-.02ZM202.31,157.83c0-.64-.33-.75-.94-.76-1.2-.01-2.54-.03-3.84-.03-1.06,0-2.11.02-3.03.03-.82.02-.96.23-1,.76v.9c0,.43-.37.67-.76.67-.34,0-.7-.21-.72-.69,0-.2-.01-.43-.01-.67,0-.26.01-.52.01-.75.03-.72.58-1.45,1.75-1.46h1.25c-.07-.06-.13-.14-.19-.23-.31-.53-.64-.73-1.05-1.1-.13-.12-.19-.26-.19-.4,0-.33.37-.65.76-.65.57,0,1.73,1.16,1.73,1.69,0,.27-.19.53-.43.67,1.31-.02,2.61-.02,3.93-.02.43-.5.82-1.39,1.06-2.01.13-.35.4-.49.67-.49.42,0,.85.32.85.75,0,.29-.48,1.04-1.09,1.77.34,0,.7.01,1.05.01.88.02,1.7.5,1.73,1.45.02.21.02.53.02.82,0,.21,0,.41-.02.56-.03.44-.42.67-.79.67s-.75-.21-.75-.64v-.87ZM198.08,155.74c-.21,0-.4-.11-.51-.37-.21-.56-.54-.9-.88-1.31-.09-.11-.13-.23-.13-.33,0-.32.37-.59.76-.59.76,0,1.58,1.49,1.58,1.84,0,.41-.43.76-.82.76Z"/>
        <path d="M207.08,166.16c-.48,0-.7-.32-.7-.66,0-.37.25-.73.7-.73h5.09s0-2.73,0-2.73l-2.81.02c-.48,0-.7-.32-.7-.65s.25-.7.7-.7l2.81.02v-2.33l-2.66.02c-.48.87-1.03,1.69-1.66,2.48-.21.26-.45.35-.66.35-.39,0-.72-.3-.72-.69,0-.15.06-.32.19-.49.96-1.11,2.06-2.89,2.66-4.98.1-.37.39-.52.69-.52.42,0,.84.27.84.7,0,.06-.01.15-.04.23-.19.53-.4,1.05-.63,1.55h1.99s0-2.7,0-2.7c0-.56.39-.84.78-.84s.76.27.76.84v2.71h4.03c.48-.01.72.32.72.67s-.24.67-.72.67l-4.03-.02v2.33l3.02-.02c.48,0,.72.33.72.69s-.24.67-.72.67l-3.02-.02v2.74h4.99c.45-.01.67.33.67.69s-.21.69-.67.69h-11.62Z"/>
        <path d="M222.45,165.39c-.28-.93-.39-1.92-.39-2.91,0-2.68.76-5.3.84-6.35.04-.52.37-.73.72-.73.37,0,.75.26.75.67,0,.03,0,.08-.02.12-.21,1.11-.97,3.93-.97,5.44,0,.56.1.62.15.62.03,0,.07-.03.1-.11.46-.9.57-1.08.88-1.08s.61.3.61.64c0,.09-.02.18-.07.27-.72,1.26-1.12,2.41-1.12,2.86,0,.14.01.27.01.41,0,.75-.58.79-.75.79-.3,0-.61-.2-.75-.66ZM230.76,165.3c-2.58,0-4.56-1.57-4.56-2.32,0-.4.36-.72.78-.72.22,0,.46.09.67.33.63.72,1.69,1.02,2.9,1.02.42,0,.84-.03,1.27-.09.06-.02.12-.02.18-.02.51,0,.75.35.75.73,0,.79-.66,1.05-1.99,1.05ZM229.07,158.62c-.66,0-1.36-.06-2.02-.23-.45-.11-.63-.4-.63-.69,0-.37.28-.72.69-.72.04,0,.09,0,.15.02.49.11.99.15,1.45.15.64,0,1.25-.08,1.84-.15.04,0,.09-.02.13-.02.46,0,.72.35.72.72,0,.61-.42.91-2.33.91Z"/>
        <path d="M239.54,163.14c0,1.08.51,1.72,1.23,1.72.09,0,1.63-.17,1.63-1.54,0-.78-.52-1.81-1.97-3-.28-.24-.4-.49-.4-.68,0-.37.33-.62.72-.62.19,0,.42.08.63.24,1.78,1.51,2.51,2.94,2.51,4.13,0,1.8-1.75,2.92-3.17,2.92s-2.5-1.02-2.5-3.11v-.03c0-.38,0-.78.02-1.16-1.18-.33-2.21-.65-2.21-1.77,0-.44.18-.93.54-1.45.1-.15.15-.29.15-.43,0-.37-.54-.82-1.42-1.16-.36-.14-.52-.38-.52-.61,0-.32.28-.62.72-.62.48,0,2.61.94,2.61,2.24,0,.43-.22.79-.55,1.2-.21.26-.28.44-.28.59,0,.23.19.33.42.4.19.05.4.09.61.15.15-3.23.15-3.79.15-4.19,0-.62-.01-1.05-.01-1.61,0-.5.34-.73.7-.73.78,0,.79.72.79,1.1,0,.55-.07,1.07-.1,1.77-.06,1.39-.16,2.73-.22,4.07.87.33,1.25.61,1.25,1.07,0,.41-.31.79-.7.79-.18,0-.37-.08-.6-.26v.58Z"/>
        <path d="M247.85,159.03c-.88,1.13-1.24,1.33-1.55,1.33-.39,0-.7-.32-.7-.69,0-.18.07-.37.25-.53,1.42-1.36,2.49-3.05,3.29-5.12.13-.33.39-.49.66-.49.4,0,.82.32.82.76,0,.37-.85,1.86-1.31,2.63l-.16,9.18c-.02.46-.39.69-.76.69s-.73-.21-.73-.66v-.03l.21-7.08ZM254.5,159.93c-.33,1.36-.85,3.03-1.46,4.4,1.24-.15,2.48-.35,3.6-.56-.31-.49-.64-.94-1.02-1.39-.13-.15-.18-.32-.18-.46,0-.35.31-.62.67-.62.19,0,.42.09.6.29,1.82,2.09,2.32,3.3,2.32,3.7,0,.5-.43.85-.84.85-.28,0-.55-.17-.67-.55-.07-.23-.16-.46-.25-.67-3.17.76-6.39,1.13-6.83,1.13s-.66-.4-.66-.79c0-.35.18-.69.58-.7.39-.01.79-.04,1.21-.08.6-1.42,1.12-3.12,1.4-4.55h-2.45c-.48,0-.7-.32-.7-.64,0-.35.24-.7.7-.7h7.81c.48,0,.72.33.72.67s-.24.67-.72.67h-3.84ZM251.65,156.26c-.48,0-.7-.32-.7-.66s.24-.72.7-.72h5.6c.48,0,.72.35.72.69s-.24.69-.72.69h-5.6Z"/>
        <path d="M266.69,163.64c.13.56.42,1,1.12,1,.61,0,1.84-.23,2.49-.56.18-.09.33-.12.48-.12.45,0,.73.35.73.73,0,1.11-2.24,1.37-3.3,1.37-1.94,0-2.69-.93-2.81-1.92-.07-.59-.22-.84-.45-.84-.48,0-1.25,1.19-2.11,2.12-.36.4-.61.5-.93.5-.72,0-.91-.41-.91-.66,0-.18.1-.4.36-.62,3.97-3.41,5.69-5.48,5.9-5.73.06-.08.09-.12.09-.14,0,0,0-.01-.02-.01-.03,0-.12.06-.19.09-.72.33-2.79,1.26-3.72,1.26-.51,0-.76-.33-.76-.69,0-.32.22-.66.67-.72.72-.11,2.3-.53,3.84-1.04.39-.12.39-.17.78-.32.13-.05.27-.08.39-.08.54,0,.97.44.97.94,0,.23-.09.47-.3.7-.7.75-2.55,2.63-3.35,3.32.69.03.9.84,1.02,1.39ZM267.69,156.52c-.9,0-2.84-1.2-2.84-1.87,0-.33.31-.59.69-.59.21,0,.43.08.64.26.51.46.97.69,1.72.76.45.04.64.32.64.62,0,.35-.27.82-.85.82Z"/>
        <path d="M278.81,157.4c-1.39,3.9-2.48,5.88-3.47,8-.13.29-.42.43-.72.43-.39,0-.78-.24-.78-.66,0-.12.03-.27.12-.43.79-1.45,2.03-3.62,3.24-6.88l-.16.05c-.46.14-.9.2-1.27.2-.15,0-1.31,0-1.31-.82,0-.38.24-.78.66-.78.13,0,.28.03.45.12.12.06.24.09.39.09.49,0,1.39-.29,1.75-.43.07-.38.1-.72.1-1.22,0-.47.42-.72.82-.72.34,0,.66.17.7.55.02.08.02.17.02.26s0,.18-.02.29c.06-.01.12-.03.19-.03.4,0,.7.35.7.7,0,.4-.27.67-1.37,1.17l-.04.11ZM283.36,165.97c-2.45,0-4.06-1.33-4.06-2.1,0-.43.34-.81.73-.81.19,0,.4.09.58.33.57.78,1.05.88,3,1.02.52.03.76.4.76.76,0,.79-.78.79-1.02.79ZM284.23,160.25c-.7-.27-1.79-.7-2.64-.7-.18,0-.36.02-.51.06-.06.01-.12.03-.16.03-.34,0-.57-.3-.57-.62,0-.24.07-.81,1.4-.81.84,0,1.93.23,3.03.69.34.14.48.41.48.67,0,.38-.3.75-.72.75-.1,0-.21-.02-.31-.06Z"/>
        <path d="M292.05,164.71c-.52,0-1.17-.24-1.78-.79-1.51-1.33-1.94-3.4-2.18-4.58-.12-.58-.28-1.51-.28-1.63,0-.44.37-.73.75-.73.31,0,.64.21.75.72.09.49.12,1,.21,1.49.61,3.55,2.02,3.69,2.11,3.69.15,0,.28-.12.42-.49.13-.37.24-.81.42-1.29.12-.3.33-.43.55-.43.39,0,.79.35.79.76,0,.05-.02.08-.02.12-.09.5-.39,1.49-.43,1.96-.07.76-.6,1.2-1.3,1.2ZM297.78,161.25c-.13-1.02-.96-2.27-1.96-3.08-.18-.14-.25-.32-.25-.49,0-.32.28-.62.67-.62.19,0,.42.08.63.26.63.55,2.48,2.22,2.48,3.76,0,.56-.42.87-.82.87-.34,0-.69-.23-.75-.7Z"/>
        <path d="M303.22,166.83c-.94,0-1.7-.78-1.7-1.74s.76-1.74,1.7-1.74,1.7.78,1.7,1.74-.76,1.74-1.7,1.74ZM303.22,163.95c-.63,0-1.14.5-1.14,1.14s.51,1.16,1.14,1.16,1.14-.52,1.14-1.16-.51-1.14-1.14-1.14Z"/>
      </g>
      <text class="cls-26" transform="translate(152.12 112.4)"><tspan class="cls-139" x="0" y="0">日</tspan><tspan class="cls-135" x="10.92" y="0">本</tspan><tspan class="cls-138" x="22.26" y="0">語日</tspan><tspan class="cls-135" x="44.1" y="0">本文学専</tspan><tspan class="cls-138" x="89.47" y="0">攻</tspan><tspan class="cls-136" x="100.39" y="0">コ</tspan><tspan class="cls-130" x="111.42" y="0">ー</tspan><tspan class="cls-137" x="121.91" y="0">ス</tspan></text>
      <text class="cls-4" transform="translate(151.62 111.51)"><tspan class="cls-139" x="0" y="0">日</tspan><tspan class="cls-135" x="10.92" y="0">本</tspan><tspan class="cls-138" x="22.26" y="0">語日</tspan><tspan class="cls-135" x="44.1" y="0">本文学専</tspan><tspan class="cls-138" x="89.47" y="0">攻</tspan><tspan class="cls-136" x="100.39" y="0">コ</tspan><tspan class="cls-130" x="111.42" y="0">ー</tspan><tspan class="cls-137" x="121.91" y="0">ス</tspan></text>
      <g>
        <path class="cls-31" d="M58.24,195.79c.43-.43.86-.85,1.24-1.25.88-.92,1.33-1.54,1.33-2.4,0-.74-.37-1.17-.95-1.17-.27,0-.55.04-.9.21l.7-.43-.15.91c-.1.65-.41.81-.7.81-.27,0-.49-.15-.61-.39.03-1.05,1.01-1.6,2.18-1.6,1.35,0,1.94.72,1.94,1.65s-.68,1.68-2.23,2.75c-.33.23-.69.49-1.05.76l-.14-.18h3.55v1.18h-4.2v-.85Z"/>
        <path class="cls-31" d="M67.58,193.63c0,2.2-1.05,3.15-2.22,3.15s-2.2-.95-2.2-3.15,1.03-3.16,2.2-3.16,2.22.95,2.22,3.16ZM65.36,196.29c.44,0,.8-.52.8-2.65s-.36-2.67-.8-2.67-.79.51-.79,2.67.34,2.65.79,2.65Z"/>
        <path class="cls-31" d="M68.39,195.79c.43-.43.86-.85,1.24-1.25.88-.92,1.33-1.54,1.33-2.4,0-.74-.37-1.17-.95-1.17-.27,0-.55.04-.9.21l.7-.43-.15.91c-.1.65-.41.81-.7.81-.27,0-.49-.15-.61-.39.03-1.05,1.01-1.6,2.18-1.6,1.35,0,1.94.72,1.94,1.65s-.68,1.68-2.23,2.75c-.33.23-.69.49-1.05.76l-.14-.18h3.55v1.18h-4.2v-.85Z"/>
        <path class="cls-31" d="M77.41,196.2v.44h-3.75v-.44l1.2-.28h1.43l1.12.28ZM76.23,190.52l.13.1-.04,1.36v2.68c0,.65,0,1.33.03,1.99h-1.57c.02-.66.03-1.34.03-1.99v-3.14l-.91.08v-.55l2.33-.53Z"/>
        <path class="cls-31" d="M83.39,194.84v2.16c0,.14-.12.22-.24.22-.13,0-.25-.08-.25-.22v-2.16h-3.84c-.18,0-.25-.09-.25-.2,0-.12.1-.26.25-.26h1.54c0-.37,0-.85.02-1.45,0-.38.26-.84.96-.84h1.34v-1.51h-1.85c-.24.39-1.11,1.74-1.49,1.74-.14,0-.25-.12-.25-.25,0-.07.02-.13.08-.19.76-.72,1.44-1.77,1.88-2.88.05-.11.14-.16.23-.16.15,0,.3.11.3.27s-.43.9-.5,1.02h4.58c.16,0,.23.12.23.23s-.08.23-.23.23h-2.51s0,1.5,0,1.5h1.99c.15,0,.23.12.23.23s-.07.22-.22.22c-.6,0-1.32,0-2,0v1.85h3.06c.15,0,.23.11.23.24,0,.12-.08.23-.23.23h-3.06ZM82.9,192.52c-.5,0-.93,0-1.23,0-.4,0-.57.29-.57.56,0,.32,0,.86,0,1.28h1.8v-1.85Z"/>
        <path class="cls-31" d="M89.39,193.24c.72,0,1.15-.35,1.15-1.18,0-.73-.35-1.09-.96-1.09-.17,0-.41.04-.7.13l.56-.35-.14.85c-.08.49-.36.67-.7.67-.23,0-.42-.11-.53-.31,0-1.03.88-1.49,1.87-1.49,1.38,0,2.06.66,2.06,1.53,0,.69-.5,1.37-1.78,1.56v-.16c1.44.12,1.96.71,1.96,1.65,0,1-.87,1.74-2.34,1.74-1.3,0-1.99-.57-2.04-1.58.11-.3.35-.42.58-.42.38,0,.61.2.69.85l.12.9-.45-.39c.24.11.41.15.63.15.83,0,1.26-.41,1.26-1.29,0-.79-.42-1.22-1.2-1.22h-.33v-.53h.27Z"/>
        <path class="cls-31" d="M99.55,195.91v.04c0,.57-.32,1.09-1.43,1.09-1.03,0-1.04-.19-1.04-.33,0-.14.1-.28.26-.28h.05c.28.05.54.09.78.09.5,0,.85-.16.85-.67,0-.54,0-1.19,0-1.87h-3.48c-.19,1.17-.66,2.25-1.82,3.1-.06.04-.11.06-.16.06-.16,0-.29-.14-.29-.28,0-.07.03-.14.1-.19,1.55-1.08,1.79-2.74,1.79-4.41,0-.71-.04-1.41-.05-2.08v-.02c0-.53.4-.83,1.05-.85.37,0,.81-.02,1.26-.02.38,0,.74,0,1.07.02.64.02,1.01.32,1.02.85,0,.32,0,.68,0,1.05,0,.82,0,1.72,0,2.51,0,.49,0,.93,0,1.3l.02.89ZM99.03,191.86h-3.36v.49c0,.4,0,.79-.05,1.18h3.41v-1.66ZM99.02,191.41c0-.42,0-.81-.02-1.16,0-.36-.23-.5-.56-.51-.31,0-.65-.02-.99-.02-.41,0-.83,0-1.19.02-.37,0-.61.15-.61.51,0,.38,0,.76,0,1.16h3.36Z"/>
        <path class="cls-31" d="M106.03,194.9v2.09c0,.14-.12.22-.24.22s-.24-.08-.24-.22v-2.09h-3.42c-.16,0-.23-.11-.23-.22s.08-.24.23-.24h3.42s0-.56,0-.56c0-.15.12-.23.24-.23s.24.08.24.23v.57h3.44c.16,0,.23.11.23.23,0,.11-.07.23-.23.23h-3.44ZM102.5,190.61c-.15,0-.23-.11-.23-.24,0-.12.08-.23.23-.23h3.04s0-1.02,0-1.02c0-.17.13-.26.26-.26s.26.09.26.26v1.03s3.05,0,3.05,0c.16,0,.23.11.23.23,0,.12-.08.24-.23.24h-6.6ZM102.84,193.59c-.14,0-.25-.12-.25-.24,0-.07.03-.14.11-.2.66-.49,1.19-1.18,1.5-1.97.05-.11.13-.16.22-.16.12,0,.23.09.23.24,0,.03,0,.06-.02.1-.07.17-.15.34-.25.52.25.11,1.04.59,1.04.87,0,.14-.11.25-.22.25-.05,0-.1-.02-.14-.07-.29-.33-.66-.59-.87-.72-.45.68-1.09,1.38-1.34,1.38ZM105.65,193.53c-.14,0-.24-.11-.24-.23,0-.07.03-.13.1-.18.67-.45,1.2-1.16,1.52-1.97.05-.11.12-.15.2-.15.13,0,.25.11.25.25,0,.06-.02.15-.26.59.4.43.95.84,1.64,1.17.09.05.14.13.14.23,0,.13-.09.27-.25.27-.12,0-.83-.33-1.74-1.32-.4.61-1.05,1.34-1.35,1.34Z"/>
        <path class="cls-31" d="M115.63,194.65c1.12.92,2.1,1.4,3.33,1.8.14.05.21.15.21.25,0,.13-.1.27-.28.27-.23,0-2-.73-3.49-2.02l.03,2.05c0,.16-.12.24-.25.24-.12,0-.24-.08-.24-.23l.02-2.06c-1.49,1.36-3.33,2.05-3.48,2.05-.16,0-.26-.11-.26-.24,0-.09.06-.19.21-.25,1.33-.47,2.2-.94,3.27-1.86l-3.05.04c-.13,0-.21-.11-.21-.22,0-.11.07-.21.21-.21l3.32.02v-.7h-2.36c-.13,0-.2-.09-.2-.19,0-.1.07-.2.2-.2h2.35s0-.69,0-.69h-2.81c-.14,0-.21-.1-.21-.19,0-.1.07-.21.21-.21h1.91c-.09-.21-.25-.48-.37-.63-.03-.03-.04-.07-.04-.1,0-.11.11-.19.24-.19.29,0,.57.62.64.81,0,.03,0,.06,0,.08v.04h1.3c.11-.21.25-.57.3-.79.03-.11.12-.15.22-.15.13,0,.28.09.28.24,0,.05-.11.35-.31.71h1.88c.13,0,.2.1.2.19,0,.1-.07.21-.2.21h-2.78s0,.69,0,.69h2.31c.13,0,.2.1.2.19,0,.1-.07.2-.2.2h-2.32s0,.69,0,.69l3.34-.02c.14,0,.21.11.21.22s-.07.21-.2.21l-3.1-.04ZM111.55,191.03c-.14,0-.22-.11-.22-.22,0-.11.08-.22.22-.22h1.62c-.17-.31-.43-.62-.67-.89-.03-.03-.04-.06-.04-.09,0-.12.14-.23.28-.23.24,0,.9.97.9,1.21h.66v-1.5c0-.15.11-.22.22-.22.12,0,.23.07.23.22v1.5h.8v-1.5c0-.15.11-.22.23-.22.11,0,.22.07.22.22v1.5s.6,0,.6,0c.25-.32.5-.78.64-1.09.06-.12.15-.17.24-.17.13,0,.26.11.26.25,0,.12-.38.71-.64,1.01h1.68c.15,0,.22.1.22.21,0,.11-.07.22-.22.22h-7.25Z"/>
      </g>
      <g>
        <path class="cls-31" d="M61.35,218.04l.02-2.15c-1.51,1.26-3.7,2.24-4.06,2.24s-.61-.26-.61-.53c0-.19.12-.38.41-.47,1.5-.53,2.63-1.1,3.82-2.09-.36.01-.7.02-1,.02-1.27,0-1.47-.66-1.49-1.08-.02-.3-.04-.64-.04-.99,0-.4.01-.81.04-1.14.02-.5.34-1.03,1.26-1.06.43-.01,1.02-.02,1.66-.02v-.7h-3.53c-.34,0-.5-.23-.5-.45,0-.25.17-.5.5-.5h3.52v-.76c0-.34.27-.5.55-.5s.57.17.57.5v.76h3.55c.33,0,.48.24.48.48s-.15.47-.48.47h-3.56v.7c.65,0,1.28.01,1.82.02.7.01,1.18.5,1.21.97.02.29.04.63.04,1,0,.42-.01.84-.04,1.19-.02.58-.5,1.08-1.27,1.1h-.24c-.35,0-.73-.01-1.12-.02,1.26.96,2.52,1.46,3.9,1.95.27.09.38.27.38.47,0,.27-.23.65-.69.65-.29,0-2.15-.74-4-2.26.01.64.02,1.12.02,2.18,0,.32-.28.47-.57.47-.27,0-.55-.15-.55-.46h0ZM61.38,211.62c-.51,0-1,.01-1.36.02-.58.02-.58.4-.58.86h1.94v-.88ZM61.38,213.32h-1.94c0,.57.04.86.59.88.41.01.87.01,1.36.01v-.89ZM62.44,213.32v.89c.5,0,.99,0,1.44-.01.58,0,.58-.39.58-.88h-2.03ZM64.46,212.5c0-.13-.01-.26-.01-.38-.02-.5-.28-.5-2-.5v.88h2.01Z"/>
        <path class="cls-31" d="M69.13,217.92c-.37,0-.62-.32-.62-.63,0-.21.13-.43.42-.51.81-.24,1.57-.71,2.15-1.38.1-.12.23-.18.35-.18.3,0,.58.3.58.62,0,.12-.05.25-.15.37-.79.85-2.32,1.71-2.74,1.71ZM73.57,210.5l-4.26.02c-.37,0-.55-.27-.55-.53,0-.29.19-.57.55-.57l3.68.02v-.93c0-.37.3-.56.61-.56s.6.19.6.56v.93l3.64-.02c.36,0,.54.27.54.55s-.17.56-.54.56l-4.27-.02ZM74.23,216.97v.02c0,.85-.64,1.46-1.84,1.46-.5,0-1.29-.01-1.29-.64,0-.3.21-.59.54-.59.05,0,.1.01.15.02.26.06.48.09.66.09.42,0,.64-.18.64-.6v-1.88c-.49,0-.97-.02-1.44-.04-.85-.04-1.29-.5-1.33-1.15-.01-.21-.01-.43-.01-.64s0-.43.01-.62c.04-.53.37-1.09,1.3-1.12.49-.01,1.08-.02,1.71-.02.77,0,1.6.01,2.34.02.71.01,1.21.51,1.25,1.02.01.19.02.42.02.65s-.01.47-.02.69c-.04.62-.52,1.14-1.3,1.16-.47.01-.93.04-1.4.04v2.11ZM75.78,213.1c0-.69-.09-.82-.55-.83-.43-.01-.93-.02-1.46-.02-.63,0-1.27.01-1.82.02-.45.01-.54.33-.54.78,0,.12,0,.24.01.34.05.47.16.47,2.14.47.57,0,1.14-.01,1.68-.02.51-.02.52-.39.52-.75ZM77.3,217.7c-.48-.56-1.29-1.03-2-1.35-.22-.11-.31-.28-.31-.46,0-.27.21-.55.51-.55.33,0,1.84.69,2.57,1.39.16.15.23.33.23.51,0,.36-.28.68-.59.68-.14,0-.28-.06-.41-.21Z"/>
        <path class="cls-31" d="M85.37,212.54l-1.6-.02c-.27.31-.55.61-.84.89.24-.01.5-.01.73-.01.24,0,.47,0,.64.01.55.02.98.51.99.99.01.47.03,1.27.03,1.92,0,.26,0,.5-.01.69-.02.59-.43,1.03-1.06,1.1-.21.02-.52.04-.84.04-1.68,0-2.06-.21-2.06-1.54,0-.63.04-1.42.06-1.96-.65.47-.88.59-1.09.59-.28,0-.48-.24-.48-.5,0-.17.09-.34.3-.46.9-.49,1.7-1.06,2.4-1.75h-2.07c-.34.01-.5-.23-.5-.47s.16-.47.5-.47h1.7v-1.12h-1.19c-.34,0-.5-.24-.5-.47s.16-.48.5-.48h1.18v-1c0-.34.27-.51.55-.51s.55.17.55.51v1s.63,0,.63,0c.33,0,.49.24.49.49.16-.32.31-.64.44-.99.09-.23.27-.32.44-.32.29,0,.59.24.59.52,0,.21-.52,1.26-1.33,2.36h.84c.36,0,.55.25.55.49s-.17.47-.54.47h-.01ZM82.31,216.08c0,.27,0,.52.01.69.01.37.07.45,1.11.45.72,0,.94-.08.95-.46v-.68h-2.07ZM84.37,215.24c0-.2-.01-.38-.01-.51-.02-.45-.15-.47-1.01-.47-.97,0-1.02,0-1.02.99h2.05ZM83.39,211.58c.29-.37.55-.77.78-1.19-.07.05-.16.07-.28.07h-.64v1.12s.14,0,.14,0ZM87.59,216.08c0-.3.2-.59.51-.59.03,0,.08,0,.12.01.12.02.22.04.33.04.56,0,.69-.43.69-.9,0-.52-.23-.97-.56-1.41-.28-.38-.41-.72-.41-1.1,0-.31.08-.63.26-.99.54-1.13.54-1.32.54-1.35,0-.25-.16-.25-.8-.25-.19,0-.37,0-.54.01-.26.01-.41.21-.41.46-.01.71-.01,1.44-.01,2.17,0,1.58.01,3.22.01,4.88v.97c0,.34-.28.52-.55.52-.29,0-.57-.18-.57-.52,0-5.05.01-6.64.03-8.19.01-.76.38-1.25,1.15-1.26.31-.01.65-.01,1.01-.01.26,0,.51,0,.77.01.78.02,1.16.44,1.16,1,0,.45-.13.71-.81,1.94-.12.23-.17.4-.17.57,0,.21.09.4.27.63.43.58.8,1.16.8,2.07,0,1.31-.8,1.99-1.83,1.99-.26,0-.99,0-.99-.69Z"/>
        <path class="cls-31" d="M96.24,214.81c-.91-.01-1.8-.02-2.62-.06-.83-.04-1.26-.57-1.28-1.2-.01-.37-.02-.74-.02-1.1s.01-.7.02-1.02c.02-.51.35-1.2,1.26-1.22.8-.02,1.71-.04,2.64-.04v-1.69c0-.34.29-.52.58-.52s.59.18.59.52v1.69c.94,0,1.87.01,2.71.04.69.02,1.16.64,1.2,1.13.02.29.03.64.03,1.01,0,.42-.01.84-.03,1.2-.02.59-.5,1.18-1.26,1.21-.85.04-1.75.06-2.65.06v3.17c0,.32-.29.49-.59.49s-.58-.17-.58-.49v-3.17ZM96.24,211.24c-.81,0-1.58.02-2.21.04-.37.01-.56.26-.57.5-.01.23-.02.51-.02.78,0,.75,0,1.12.61,1.14.65.04,1.41.06,2.2.06v-2.52ZM97.42,213.74c.78-.01,1.55-.02,2.24-.05.56-.02.58-.29.58-1.21s-.02-1.2-.59-1.21c-.64-.02-1.42-.04-2.22-.04v2.5Z"/>
        <path class="cls-31" d="M109.97,215.35c.02.17.04.34.04.52,0,1.07-.49,2.68-2.52,2.68-.91,0-1.4-.25-1.4-.71,0-.3.22-.56.55-.56.06,0,.12,0,.19.02.26.08.52.13.77.13,1.3,0,1.3-1.59,1.3-1.69,0-.14-.01-.27-.03-.4l-4.94.02c-.36,0-.54-.26-.54-.52s.19-.55.52-.55l4.31.02c-.14-.09-.29-.19-.47-.25-.24-.08-.35-.24-.35-.39,0-.25.27-.5.62-.5.26,0,.5.13.69.24.3-.2.92-.64.92-.78,0-.05-.05-.07-.13-.07-.13-.01-.35-.01-.62-.01-.75,0-1.87.02-2.69.06h-.02c-.35,0-.52-.25-.52-.5s.17-.49.54-.5c.5-.02,1.13-.02,1.75-.02.85,0,1.7.01,2.24.02.66.01.94.36.94.72,0,.58-.62,1.07-1.67,1.73.06.08.12.17.16.25l3.47-.04c.34,0,.51.27.51.55s-.16.52-.5.52h-3.12ZM111.89,211.55c0-.5-.26-.58-.73-.59-.93-.01-1.98-.02-2.99-.02-.83,0-1.64.01-2.36.02-.64.01-.75.18-.78.59v.69h0c0,.34-.29.53-.59.53-.27,0-.55-.17-.56-.53,0-.15-.01-.33-.01-.52,0-.2.01-.4.01-.58.02-.56.45-1.13,1.36-1.14h.98c-.06-.05-.1-.11-.15-.18-.24-.42-.5-.57-.82-.85-.1-.09-.15-.2-.15-.31,0-.26.29-.51.59-.51.44,0,1.35.9,1.35,1.32,0,.21-.15.42-.34.52,1.02-.01,2.04-.01,3.06-.01.34-.39.64-1.08.83-1.57.1-.27.31-.38.52-.38.33,0,.66.25.66.58,0,.23-.37.81-.85,1.38.27,0,.55.01.81.01.69.01,1.33.39,1.35,1.13.01.17.01.42.01.64,0,.17,0,.32-.01.44-.02.34-.33.52-.62.52s-.58-.17-.58-.5v-.68ZM108.6,209.92c-.16,0-.31-.08-.4-.29-.16-.44-.42-.7-.69-1.02-.07-.08-.1-.18-.1-.26,0-.25.29-.46.59-.46.59,0,1.23,1.16,1.23,1.44,0,.32-.34.59-.64.59Z"/>
        <path class="cls-31" d="M117.72,218.02c0,.33-.29.5-.57.5s-.57-.17-.57-.5h0s.05-4.3.05-4.3c-.3.55-.64,1.06-.99,1.5-.14.18-.31.25-.48.25-.29,0-.56-.25-.56-.53,0-.14.06-.29.19-.42.59-.62,1.36-1.73,1.84-2.84v-.27l-1.06.02h-.01c-.33,0-.49-.26-.49-.52s.16-.52.5-.52h1.05l-.03-1.96h0c0-.36.29-.52.58-.52s.56.17.56.51h0s-.02.91-.03,1.97h.68c.34,0,.51.26.51.52s-.16.52-.49.52h-.71c0,.42-.01.83-.01,1.17.05,0,.09.01.14.04.27.13,1.16.69,1.16,1.13,0,.27-.24.52-.5.52-.12,0-.23-.06-.34-.19-.13-.18-.3-.38-.47-.56.01,1.85.06,4.46.06,4.46h0ZM118.5,218.42c-.36,0-.58-.3-.58-.58,0-.21.13-.43.43-.47,1.15-.2,2.06-.68,2.74-1.39-.29-.44-.51-.93-.68-1.44-.37.59-.58.77-.81.77-.28,0-.54-.25-.54-.52,0-.14.07-.3.26-.43.43-.3.76-.71.91-1.03.07-.15.23-.23.4-.23.22,0,.43.13.43.37,0,.04,0,.07-.01.11,0,.01.01.04.01.06.13.58.34,1.12.63,1.58.33-.52.58-1.13.75-1.79.07-.26.28-.38.49-.38.28,0,.56.19.56.49,0,.04-.21,1.24-1.13,2.49.68.64,1.56,1.08,2.63,1.2.31.04.45.26.45.5,0,.31-.22.64-.59.64-.28,0-1.89-.3-3.12-1.6-1.46,1.46-3.13,1.66-3.21,1.66ZM119.19,210.72c-.35,0-.54-.25-.54-.51s.19-.5.54-.5h1.96s-.01-1.08-.01-1.08c0-.34.29-.51.58-.51s.58.17.58.51v1.09s2.28-.01,2.28-.01c.37,0,.56.26.56.51s-.19.5-.56.5h-5.39ZM119.24,213.45c-.3,0-.52-.26-.52-.52,0-.17.08-.34.29-.45.61-.32,1.02-.72,1.37-1.34.09-.15.22-.23.36-.23.27,0,.56.26.56.56,0,.49-1.52,1.98-2.06,1.98ZM123.77,213.05c-.4-.5-.9-.93-1.43-1.26-.16-.09-.23-.24-.23-.37,0-.25.23-.49.51-.49.34,0,2.15,1.1,2.15,1.76,0,.32-.28.58-.57.58-.15,0-.3-.06-.43-.23Z"/>
        <path class="cls-31" d="M135.05,218.17c-1.02.02-2.1.04-3.17.04s-2.14-.01-3.19-.04c-1.01-.02-1.51-.56-1.55-1.44-.03-.89-.05-1.96-.05-3.06,0-1.34.02-2.72.05-3.88.01-.76.58-1.27,1.46-1.29,1.01-.02,2.08-.04,3.18-.04s2.2.01,3.29.04c.71.01,1.41.53,1.42,1.39.02,1.21.05,2.54.05,3.83,0,1.06-.01,2.08-.05,2.98-.02.83-.61,1.45-1.44,1.47ZM135.41,213.42c0-1.07-.01-2.14-.05-3.1-.02-.68-.26-.79-.83-.81-.87-.01-1.84-.02-2.77-.02s-1.86.01-2.68.02c-.66.01-.85.2-.86.81-.02.96-.04,2.02-.04,3.05s.01,2.04.04,2.93c.02.68.26.79.98.81.8.01,1.65.02,2.54.02s1.8-.01,2.75-.02c.65-.01.86-.33.87-.84.03-.89.05-1.88.05-2.85ZM129.19,216.13c-.34,0-.5-.21-.5-.44,0-.24.17-.47.5-.47h2.01v-1.73h-1.37s-.01.01-.01.01c-.34,0-.49-.21-.49-.43,0-.23.17-.46.5-.46h1.37s0-1.2,0-1.2h-1.71c-.34,0-.5-.21-.5-.44,0-.24.17-.48.5-.48h4.49c.31,0,.48.23.48.45,0,.24-.16.46-.48.46h-1.75v1.21h1.41c.31-.01.48.21.48.43,0,.23-.16.45-.48.45h-1.41s0,1.72,0,1.72h2.08c.31,0,.48.22.48.45,0,.24-.16.46-.48.46h-5.13ZM133.68,214.95c-.29-.24-.66-.46-.79-.53-.15-.08-.21-.2-.21-.31,0-.21.21-.43.48-.43.07,0,1.26.38,1.26.9,0,.25-.2.49-.44.49-.09,0-.2-.04-.29-.12Z"/>
        <path class="cls-31" d="M138.85,210.91c-.37,0-.54-.24-.54-.47,0-.26.19-.52.54-.52h3.31c.35,0,.51.25.51.5s-.16.5-.51.5h-3.31ZM141.36,218.17c-.24.01-.59.02-.93.02s-.66-.01-.9-.02c-.55-.04-.88-.42-.9-.94-.01-.26-.01-.51-.01-.77,0-.34,0-.69.01-.99.01-.45.29-.87.87-.9.27-.01.57-.02.87-.02.37,0,.73.01,1.01.02.45.02.95.33.97.84.01.27.01.59.01.91s0,.63-.01.89c-.01.53-.4.91-1,.95ZM139.24,209.28c-.35,0-.51-.23-.51-.46,0-.25.19-.51.51-.51h2.42c.33,0,.49.24.49.49s-.16.49-.49.49h-2.42ZM139.26,212.45c-.35,0-.51-.23-.51-.46,0-.25.19-.51.51-.51h2.42c.33,0,.49.24.49.49s-.16.49-.49.49h-2.42ZM139.26,213.98c-.35,0-.51-.23-.51-.46,0-.25.19-.51.51-.51h2.42c.33,0,.49.24.49.49s-.16.49-.49.49h-2.42ZM141.34,216.37c0-.21,0-.43-.01-.59-.02-.31-.28-.32-.87-.32-.16,0-.33,0-.5.01-.34.02-.34.23-.34.89,0,.21.01.43.01.61.01.25.23.29.83.29.66,0,.86-.07.87-.3.01-.17.01-.38.01-.58ZM142.96,213.7c-.34,0-.5-.24-.5-.48s.17-.49.5-.49h1.21c.1-.42.21-.94.31-1.45-.29,0-.57,0-.82.01h-.02c-.33,0-.48-.23-.48-.46s.17-.49.5-.5h1.01c.07-.34.13-.65.16-.88h-1.46c-.36,0-.52-.23-.52-.45,0-.25.19-.5.52-.5h4.35c.34,0,.5.24.5.47s-.16.48-.5.48h-1.84c-.05.24-.1.53-.17.88.27,0,.55.01.8.01.75.01,1.09.36,1.09,1.12,0,.38-.01.84-.02,1.27h.64c.33,0,.49.24.49.47,0,.25-.16.49-.49.49h-5.29ZM146.86,218.22c-.31.02-.72.04-1.13.04-1.51,0-2.41,0-2.46-1.13-.01-.24-.01-.49-.01-.75,0-.31,0-.63.02-.9.03-.61.45-1.02,1.12-1.06.34-.01.75-.02,1.14-.02.48,0,.95.01,1.32.02.59.02,1.14.45,1.16,1.04.01.31.02.67.02,1.01,0,.21,0,.43-.01.63-.02.62-.43,1.06-1.18,1.12ZM146.93,216.19c0-.7-.05-.87-.44-.88-.23-.01-.55-.01-.86-.01s-.62,0-.84.01c-.44.01-.45.21-.45,1.1,0,.18.01.36.01.49.02.39.49.39,1.29.39,1.01,0,1.26-.07,1.28-.39.01-.2.01-.46.01-.71ZM146.57,212.73c.01-.32.02-.65.02-.93,0-.38-.07-.51-.36-.51h-.7c-.12.5-.22,1.02-.33,1.44h1.36Z"/>
        <path class="cls-31" d="M153.16,217.98c0,.33-.28.5-.57.5s-.57-.17-.57-.5h0s.05-3.79.05-3.79c-.4.64-.86,1.23-1.28,1.7-.14.14-.29.21-.44.21-.31,0-.59-.27-.59-.56,0-.14.06-.27.2-.4.63-.57,1.57-1.73,2.13-2.83v-.25s-1.37.04-1.37.04h-.01c-.35,0-.51-.25-.51-.51s.17-.52.52-.52h1.35l-.02-1.17c-.22.04-1,.18-1.13.18-.35,0-.54-.27-.54-.53,0-.24.15-.47.47-.51,1.09-.11,1.89-.3,2.89-.7.07-.02.13-.04.19-.04.3,0,.52.26.52.55,0,.42-.44.57-1.28.81-.01.25-.01.78-.02,1.42h1.19c.35,0,.52.26.52.52s-.17.51-.51.51h-.01l-1.21-.02v.58s.08-.01.12-.01c.43,0,1.39.85,1.44.93.12.13.16.26.16.4,0,.3-.24.57-.51.57-.13,0-.26-.06-.37-.2-.2-.26-.55-.56-.84-.77.01,1.79.06,4.39.06,4.39h0ZM157.67,215.29l-2.78.8c-.07.02-.13.02-.19.02-.31,0-.49-.25-.49-.51,0-.21.13-.43.4-.51l3.06-.88-.02-5.63c0-.34.27-.51.55-.51s.57.18.57.51l-.02,5.33,1.14-.33c.06-.01.12-.02.16-.02.3,0,.5.27.5.53,0,.2-.12.4-.37.47l-1.43.4.02,3.05c0,.31-.28.46-.56.46s-.56-.15-.56-.46l.02-2.73ZM156.13,213.48c-.34-.36-.82-.68-1.07-.84-.16-.1-.23-.24-.23-.37,0-.24.23-.48.57-.48.41,0,1.25.62,1.46.83.14.14.2.3.2.45,0,.32-.24.59-.54.59-.13,0-.26-.06-.38-.19ZM156.22,210.97c-.29-.39-.73-.77-1-.96-.13-.09-.19-.2-.19-.31,0-.25.28-.5.58-.5s1.55.81,1.55,1.4c0,.33-.26.61-.54.61-.14,0-.28-.07-.41-.24Z"/>
        <path class="cls-31" d="M164.55,214.47s.51-.46.51-.49c0-.04-.05-.09-.09-.09-.54,0-1.01,0-1.51.02-.07.06-1.13.86-1.49.86-.28,0-.48-.24-.48-.49,0-.17.09-.34.31-.46.85-.44,1.61-.97,2.27-1.6h-2.07c-.31.01-.48-.21-.48-.44s.16-.45.48-.45h1.68v-.89h-1.18c-.31,0-.48-.23-.48-.45s.16-.45.48-.45h1.16v-.96c0-.32.26-.47.51-.47s.52.15.52.47v.96s.66,0,.66,0c.28,0,.41.23.41.45.17-.33.35-.67.49-1.02.08-.21.26-.31.43-.31.28,0,.58.24.58.52,0,.18-.44,1.09-1.25,2.15h.34c.34,0,.51.23.51.46,0,.21-.16.44-.5.44h-1.07c-.28.3-.57.59-.87.87.4,0,.81,0,1.2.01.52.01.73.28.73.57,0,.4-.27.65-1.26,1.34.02.05.06.09.08.14.59-.11,1.12-.21,1.51-.3.03-.01.07-.01.1-.01.26,0,.41.2.41.42,0,.18-.12.37-.38.43-.37.08-.85.19-1.39.3.01.12.02.24.02.36,0,1.2-.78,2.07-1.87,2.07-.55,0-.94-.2-.94-.56,0-.24.2-.47.48-.47.03,0,.09.01.14.02.12.04.23.05.34.05.54,0,.86-.38.86-1.18v-.09c-.55.09-2,.37-2.25.37-.31,0-.49-.23-.49-.45,0-.21.15-.44.48-.47.61-.07,1.3-.18,1.98-.29-.08-.11-.19-.19-.3-.25-.16-.08-.23-.2-.23-.32,0-.21.23-.42.52-.42.1,0,.21.04.33.09l.05.02ZM164.88,211.32c.23-.3.45-.61.65-.93-.05.02-.1.04-.17.04h-.69v.89h.21ZM170.86,211.51c-.12,1.5-.48,2.91-1.21,4.11.5.61,1.16,1.13,2.05,1.55.23.11.33.3.33.49,0,.32-.28.66-.62.66-.27,0-1.41-.58-2.36-1.85-1.13,1.35-2.53,1.97-2.82,1.97-.34,0-.58-.29-.58-.57,0-.2.12-.4.4-.52,1.05-.44,1.84-1.04,2.42-1.79-.47-.88-.76-1.83-.93-2.77-.29.44-.36.52-.63.52-.24,0-.48-.2-.48-.46,0-.09.03-.19.1-.3.63-.94,1.28-2.4,1.55-4.02.05-.3.27-.42.5-.42.29,0,.59.19.59.5,0,.15-.27,1.13-.56,1.91h2.82c.33-.01.48.24.48.49s-.15.5-.48.5h-.57ZM168.28,211.5c.06,1.17.27,2.24.73,3.17.47-.91.71-1.98.79-3.16h-1.52Z"/>
        <path class="cls-31" d="M173.63,210.95c-.34,0-.5-.24-.5-.49s.16-.49.5-.49h2.97c.34,0,.5.24.5.49s-.16.49-.5.49h-2.97ZM175.86,218.23c-.24.01-.51.02-.79.02s-.52-.01-.76-.02c-.52-.04-.85-.42-.86-.94,0-.31-.01-.62-.01-.91s.01-.58.01-.84c.01-.45.29-.87.85-.9.22-.01.47-.02.72-.02.3,0,.61.01.87.02.44.02.92.33.93.84.01.27.01.59.01.91s0,.63-.01.89c-.01.53-.38.91-.97.95ZM174.01,209.33c-.31,0-.47-.24-.47-.47s.15-.47.47-.47h2.32c.31,0,.48.24.48.47s-.16.47-.48.47h-2.32ZM174.03,212.5c-.31,0-.47-.24-.47-.48s.15-.47.47-.47h2.32c.31,0,.48.24.48.47s-.16.48-.48.48h-2.32ZM174.03,214.03c-.31,0-.47-.24-.47-.47s.15-.48.47-.48h2.32c.31,0,.48.24.48.48s-.16.47-.48.47h-2.32ZM175.87,216.43c0-.23,0-.45-.01-.62-.02-.28-.24-.32-.73-.32-.75,0-.75.01-.75.93,0,.23.01.45.01.63.01.24.2.28.7.28.42,0,.75-.02.77-.3.01-.17.01-.39.01-.61ZM178.82,211.9c-.33,0-.49-.23-.49-.45,0-.05.01-.09.02-.14-.57.62-.77.71-.95.71-.3,0-.58-.27-.58-.56,0-.13.06-.26.2-.37.77-.61,1.52-1.52,2.1-2.39.26-.38.6-.56.95-.56s.73.18,1.04.51c.68.75,1.44,1.46,2.27,2.08.16.12.23.27.23.43,0,.32-.29.63-.64.63-.14,0-.29-.05-.43-.18-.75-.67-1.61-1.59-2.21-2.27-.06-.06-.14-.11-.21-.11s-.14.04-.19.11c-.4.59-.85,1.18-1.32,1.69.06-.02.13-.04.21-.04h2.72c.31,0,.47.23.47.45s-.15.45-.47.45h-2.72ZM178.24,218.15c0,.29-.21.42-.43.42s-.45-.14-.45-.43v-4.7c0-.84.3-1,1.32-1,.77,0,1.34.04,1.36,1.01.01.21.01.7.01,1.16v1.13c.01.4.01,1.03.01,1.37v.06c0,.58-.15,1.25-1,1.25-.34,0-.7-.05-.7-.49,0-.24.12-.49.33-.49.02,0,.05,0,.07.01.09.02.17.05.23.05.14,0,.2-.12.21-.59v-.68h-.97c0,.75,0,1.45.01,1.91h0ZM179.18,213.67c0-.24-.06-.37-.47-.37s-.48.12-.48.37v.33s.94,0,.94,0v-.33ZM179.19,214.78h-.97v.68h.97v-.68ZM180.47,213.13c0-.31.23-.46.45-.46.23,0,.47.15.47.46v3.24c0,.27-.23.42-.45.42-.23,0-.47-.14-.47-.42v-3.24ZM181.94,214.78c0-.72,0-1.48-.02-1.98v-.02c0-.32.24-.49.49-.49.26,0,.5.17.5.5,0,1.01,0,2.02.01,2.83,0,.17.02,1.16.04,1.53v.05c0,.68-.37,1.28-1.42,1.28-.65,0-1.04-.12-1.04-.59,0-.25.14-.49.4-.49.03,0,.06,0,.09.01.19.04.37.08.52.08.24,0,.42-.12.42-.59,0,0,.01-1.02.01-2.11Z"/>
      </g>
      <text class="cls-27" transform="translate(58.91 110.29)"><tspan x="0" y="0">文学科</tspan></text>
      <text class="cls-5" transform="translate(56.28 109.54)"><tspan x="0" y="0">文学科</tspan></text>
      <text class="cls-32" transform="translate(53.97 237.42) scale(.98 1)"><tspan class="cls-10"><tspan x="0" y="0">仲</tspan><tspan class="cls-84" x="9" y="0">間</tspan><tspan class="cls-121" x="17.46" y="0">に</tspan><tspan class="cls-107" x="26.01" y="0">励</tspan><tspan class="cls-46" x="33.93" y="0">ま</tspan><tspan class="cls-103" x="40.59" y="0">さ</tspan><tspan class="cls-109" x="48.06" y="0">れ</tspan><tspan class="cls-119" x="55.89" y="0">て</tspan><tspan x="64.44" y="0">最</tspan><tspan class="cls-107" x="73.44" y="0">後</tspan><tspan class="cls-59" x="81.36" y="0">ま</tspan><tspan class="cls-129" x="88.2" y="0">で</tspan><tspan class="cls-83" x="96.93" y="0">がん</tspan><tspan class="cls-125" x="113.85" y="0">ば</tspan><tspan class="cls-82" x="122.49" y="0">れ</tspan><tspan class="cls-127" x="130.95" y="0">た</tspan></tspan><tspan class="cls-10"><tspan x="0" y="16">中</tspan><tspan class="cls-84" x="9" y="16">学</tspan><tspan class="cls-121" x="17.46" y="16">の</tspan><tspan x="26.01" y="16">担</tspan><tspan class="cls-84" x="35.01" y="16">任</tspan><tspan class="cls-121" x="43.47" y="16">の</tspan><tspan x="52.02" y="16">先</tspan><tspan class="cls-128" x="61.02" y="16">生</tspan><tspan class="cls-84" x="69.75" y="16">へ</tspan><tspan class="cls-73" x="78.21" y="16">の</tspan><tspan class="cls-87" x="86.22" y="16">あ</tspan><tspan class="cls-115" x="93.51" y="16">こ</tspan><tspan class="cls-126" x="101.16" y="16">が</tspan><tspan class="cls-128" x="109.8" y="16">れ</tspan><tspan class="cls-113" x="118.53" y="16">か</tspan><tspan class="cls-71" x="126.27" y="16">ら</tspan><tspan x="134.37" y="16">教</tspan><tspan class="cls-110" x="143.37" y="16">員</tspan><tspan class="cls-120" x="151.2" y="16">を</tspan><tspan class="cls-98" x="159.75" y="16">志</tspan><tspan class="cls-71" x="167.31" y="16">し</tspan><tspan x="175.41" y="16">、高校、大</tspan><tspan class="cls-110" x="220.41" y="16">学</tspan><tspan class="cls-121" x="228.24" y="16">を</tspan><tspan x="236.79" y="16">経</tspan></tspan><tspan class="cls-10"><tspan class="cls-68" x="-.63" y="32">て</tspan><tspan class="cls-110" x="7.56" y="32">、</tspan><tspan class="cls-87" x="15.39" y="32">そ</tspan><tspan class="cls-121" x="22.68" y="32">の</tspan><tspan class="cls-128" x="31.23" y="32">思い</tspan><tspan class="cls-103" x="48.69" y="32">が</tspan><tspan class="cls-38" x="56.16" y="32">よ</tspan><tspan class="cls-103" x="62.28" y="32">り</tspan><tspan class="cls-87" x="69.75" y="32">強</tspan><tspan class="cls-53" x="77.04" y="32">く</tspan><tspan class="cls-95" x="83.43" y="32">な</tspan><tspan class="cls-100" x="90.45" y="32">っ</tspan><tspan class="cls-76" x="98.01" y="32">て</tspan><tspan class="cls-100" x="106.29" y="32">い</tspan><tspan class="cls-60" x="113.85" y="32">き</tspan><tspan class="cls-38" x="120.69" y="32">ま</tspan><tspan class="cls-100" x="126.81" y="32">し</tspan><tspan class="cls-128" x="134.37" y="32">た</tspan><tspan x="143.1" y="32">。大</tspan><tspan class="cls-84" x="161.1" y="32">学で</tspan><tspan class="cls-127" x="178.02" y="32">は</tspan><tspan class="cls-98" x="186.75" y="32">同</tspan><tspan class="cls-82" x="194.31" y="32">じ</tspan><tspan class="cls-110" x="202.77" y="32">道</tspan><tspan class="cls-73" x="210.6" y="32">を</tspan><tspan class="cls-82" x="218.61" y="32">目</tspan><tspan class="cls-117" x="227.07" y="32">指す</tspan></tspan><tspan class="cls-10"><tspan x="0" y="48">仲</tspan><tspan class="cls-84" x="9" y="48">間</tspan><tspan class="cls-121" x="17.46" y="48">の</tspan><tspan class="cls-107" x="26.01" y="48">励</tspan><tspan class="cls-37" x="33.93" y="48">まし</tspan><tspan class="cls-89" x="46.17" y="48">も</tspan><tspan class="cls-98" x="53.37" y="48">あっ</tspan><tspan class="cls-68" x="68.49" y="48">て</tspan><tspan x="76.68" y="48">、最</tspan><tspan class="cls-107" x="94.68" y="48">後</tspan><tspan class="cls-59" x="102.6" y="48">ま</tspan><tspan class="cls-127" x="109.44" y="48">で</tspan><tspan class="cls-84" x="118.17" y="48">がん</tspan><tspan class="cls-108" x="135.09" y="48">ば</tspan><tspan class="cls-58" x="143.01" y="48">る</tspan><tspan class="cls-36" x="149.85" y="48">こ</tspan><tspan class="cls-103" x="156.15" y="48">と</tspan><tspan class="cls-84" x="163.62" y="48">が</tspan><tspan class="cls-100" x="172.08" y="48">で</tspan><tspan class="cls-60" x="179.64" y="48">き</tspan><tspan class="cls-38" x="186.48" y="48">ま</tspan><tspan class="cls-100" x="192.6" y="48">し</tspan><tspan class="cls-128" x="200.16" y="48">た</tspan><tspan class="cls-65" x="208.89" y="48">。</tspan></tspan><tspan class="cls-10" x="0" y="64">現</tspan><tspan class="cls-12" x="9" y="64">在</tspan><tspan class="cls-14" x="17.55" y="64">は</tspan><tspan class="cls-10" x="26.28" y="64">大規</tspan><tspan class="cls-24" x="44.28" y="64">模</tspan><tspan class="cls-13" x="52.38" y="64">な</tspan><tspan class="cls-10" x="61.02" y="64">中学</tspan><tspan class="cls-15" x="79.02" y="64">校</tspan><tspan class="cls-11" x="87.48" y="64">で</tspan><tspan class="cls-1" x="96.39" y="64">1</tspan><tspan class="cls-10" x="101.27" y="64">年</tspan><tspan class="cls-15" x="110.27" y="64">生</tspan><tspan class="cls-12" x="118.73" y="64">の</tspan><tspan class="cls-10" x="127.28" y="64">担</tspan><tspan class="cls-20" x="136.28" y="64">任</tspan><tspan class="cls-18" x="144.11" y="64">を</tspan><tspan class="cls-21" x="151.22" y="64">し</tspan><tspan class="cls-25" x="157.88" y="64">て</tspan><tspan class="cls-16" x="165.89" y="64">お</tspan><tspan class="cls-23" x="173.18" y="64">り</tspan><tspan class="cls-10" x="180.11" y="64">、生</tspan><tspan class="cls-15" x="198.11" y="64">徒</tspan><tspan class="cls-19" x="206.57" y="64">た</tspan><tspan class="cls-22" x="214.22" y="64">ち</tspan><tspan class="cls-17" x="220.88" y="64">と</tspan><tspan class="cls-19" x="227.99" y="64">日</tspan><tspan class="cls-20" x="235.64" y="64">々</tspan><tspan class="cls-10"><tspan class="cls-98" x="0" y="80">楽</tspan><tspan class="cls-42" x="7.56" y="80">し</tspan><tspan class="cls-85" x="13.32" y="80">く</tspan><tspan class="cls-113" x="20.61" y="80">過</tspan><tspan class="cls-90" x="28.35" y="80">ご</tspan><tspan class="cls-45" x="35.55" y="80">し</tspan><tspan class="cls-77" x="42.21" y="80">て</tspan><tspan class="cls-100" x="50.49" y="80">い</tspan><tspan class="cls-103" x="58.05" y="80">ま</tspan><tspan class="cls-105" x="65.52" y="80">す</tspan><tspan class="cls-67" x="72.9" y="80">。</tspan></tspan><tspan class="cls-10"><tspan x="0" y="112">文</tspan><tspan class="cls-110" x="9" y="112">学</tspan><tspan class="cls-121" x="16.83" y="112">を</tspan><tspan x="25.38" y="112">消</tspan><tspan class="cls-118" x="34.38" y="112">費</tspan><tspan class="cls-103" x="43.2" y="112">す</tspan><tspan class="cls-71" x="50.67" y="112">る</tspan><tspan class="cls-129" x="58.77" y="112">人</tspan><tspan class="cls-112" x="67.5" y="112">か</tspan><tspan class="cls-71" x="75.24" y="112">ら</tspan><tspan x="83.34" y="112">生</tspan><tspan class="cls-118" x="92.34" y="112">産</tspan><tspan class="cls-103" x="101.16" y="112">す</tspan><tspan class="cls-70" x="108.63" y="112">る</tspan><tspan class="cls-128" x="116.73" y="112">人</tspan><tspan class="cls-33" x="125.46" y="112">へ</tspan></tspan><tspan class="cls-10"><tspan x="0" y="128">大</tspan><tspan class="cls-84" x="9" y="128">学</tspan><tspan class="cls-121" x="17.46" y="128">の</tspan><tspan class="cls-84" x="26.01" y="128">学び</tspan><tspan class="cls-132" x="42.93" y="128">で</tspan><tspan class="cls-84" x="51.84" y="128">特</tspan><tspan class="cls-121" x="60.3" y="128">に</tspan><tspan x="68.85" y="128">印</tspan><tspan class="cls-84" x="77.85" y="128">象</tspan><tspan class="cls-121" x="86.31" y="128">に</tspan><tspan class="cls-73" x="94.86" y="128">残</tspan><tspan class="cls-100" x="102.87" y="128">っ</tspan><tspan class="cls-76" x="110.43" y="128">て</tspan><tspan class="cls-110" x="118.71" y="128">い</tspan><tspan class="cls-98" x="126.54" y="128">る</tspan><tspan class="cls-71" x="134.1" y="128">の</tspan><tspan class="cls-128" x="142.2" y="128">は、</tspan><tspan class="cls-104" x="159.66" y="128">ゼ</tspan><tspan class="cls-63" x="167.04" y="128">ミ</tspan><tspan class="cls-107" x="173.97" y="128">で</tspan><tspan class="cls-89" x="181.89" y="128">も</tspan><tspan class="cls-132" x="189.09" y="128">お</tspan><tspan x="198" y="128">世</tspan><tspan class="cls-84" x="207" y="128">話</tspan><tspan class="cls-116" x="215.46" y="128">に</tspan><tspan class="cls-96" x="223.11" y="128">な</tspan><tspan class="cls-116" x="230.13" y="128">っ</tspan><tspan class="cls-128" x="237.78" y="128">た</tspan></tspan><tspan class="cls-10"><tspan x="0" y="144">葉名尻竜一先</tspan><tspan class="cls-84" x="54" y="144">生</tspan><tspan class="cls-40" x="62.46" y="144">の</tspan><tspan x="68.57" y="144">「消</tspan><tspan class="cls-118" x="86.57" y="144">費</tspan><tspan class="cls-102" x="95.39" y="144">す</tspan><tspan class="cls-70" x="102.86" y="144">る</tspan><tspan class="cls-128" x="110.96" y="144">人</tspan><tspan class="cls-113" x="119.69" y="144">か</tspan><tspan class="cls-71" x="127.43" y="144">ら</tspan><tspan x="135.53" y="144">生</tspan><tspan class="cls-118" x="144.53" y="144">産</tspan><tspan class="cls-102" x="153.35" y="144">す</tspan><tspan class="cls-72" x="160.82" y="144">る</tspan><tspan class="cls-128" x="168.92" y="144">人</tspan><tspan class="cls-33" x="177.65" y="144">へ</tspan><tspan class="cls-66" x="186.65" y="144">」</tspan><tspan class="cls-105" x="191.68" y="144">とい</tspan><tspan class="cls-115" x="206.44" y="144">う</tspan><tspan x="214.09" y="144">言</tspan><tspan class="cls-84" x="223.09" y="144">葉</tspan><tspan class="cls-127" x="231.55" y="144">で</tspan><tspan class="cls-105" x="240.28" y="144">す</tspan><tspan class="cls-67" x="247.66" y="144">。</tspan></tspan><tspan class="cls-10"><tspan x="0" y="160">作</tspan><tspan class="cls-84" x="9" y="160">品</tspan><tspan class="cls-121" x="17.46" y="160">に</tspan><tspan class="cls-98" x="26.01" y="160">対</tspan><tspan class="cls-46" x="33.57" y="160">し</tspan><tspan class="cls-68" x="40.23" y="160">て</tspan><tspan class="cls-84" x="48.42" y="160">、</tspan><tspan class="cls-76" x="56.88" y="160">た</tspan><tspan class="cls-132" x="65.16" y="160">だ</tspan><tspan x="74.07" y="160">面</tspan><tspan class="cls-128" x="83.07" y="160">白</tspan><tspan class="cls-134" x="91.8" y="160">い</tspan><tspan class="cls-125" x="100.71" y="160">、</tspan><tspan class="cls-113" x="109.35" y="160">つ</tspan><tspan class="cls-52" x="117.09" y="160">ま</tspan><tspan class="cls-89" x="123.48" y="160">ら</tspan><tspan class="cls-80" x="130.68" y="160">な</tspan><tspan class="cls-62" x="139.05" y="160">い</tspan><tspan class="cls-114" x="145.98" y="160">と</tspan><tspan x="153.63" y="160">感</tspan><tspan class="cls-110" x="162.63" y="160">想</tspan><tspan class="cls-119" x="170.46" y="160">を</tspan><tspan class="cls-98" x="179.01" y="160">言</tspan><tspan class="cls-92" x="186.57" y="160">う</tspan><tspan class="cls-71" x="193.68" y="160">の</tspan><tspan class="cls-128" x="201.78" y="160">は</tspan><tspan x="210.51" y="160">「消費</tspan><tspan class="cls-67" x="237.51" y="160">」</tspan></tspan><tspan class="cls-10"><tspan class="cls-78" x="-.54" y="176">で</tspan><tspan class="cls-98" x="7.83" y="176">あっ</tspan><tspan class="cls-69" x="22.95" y="176">て</tspan><tspan x="31.14" y="176">、</tspan><tspan class="cls-84" x="40.14" y="176">学び</tspan><tspan class="cls-71" x="57.06" y="176">に</tspan><tspan class="cls-110" x="65.16" y="176">は</tspan><tspan class="cls-105" x="72.99" y="176">な</tspan><tspan class="cls-91" x="80.37" y="176">ら</tspan><tspan class="cls-79" x="87.57" y="176">な</tspan><tspan class="cls-134" x="95.94" y="176">い</tspan><tspan x="104.85" y="176">。作</tspan><tspan class="cls-110" x="122.85" y="176">品</tspan><tspan class="cls-95" x="130.68" y="176">をど</tspan><tspan class="cls-115" x="144.72" y="176">う</tspan><tspan x="152.37" y="176">解</tspan><tspan class="cls-98" x="161.37" y="176">釈</tspan><tspan class="cls-70" x="168.93" y="176">し</tspan><tspan class="cls-103" x="177.03" y="176">、</tspan><tspan class="cls-109" x="184.5" y="176">ど</tspan><tspan class="cls-94" x="192.33" y="176">の</tspan><tspan class="cls-36" x="199.44" y="176">よ</tspan><tspan class="cls-50" x="205.74" y="176">う</tspan><tspan class="cls-123" x="212.22" y="176">な</tspan><tspan x="220.86" y="176">意</tspan><tspan class="cls-110" x="229.86" y="176">味</tspan><tspan class="cls-121" x="237.69" y="176">を</tspan></tspan><tspan class="cls-10"><tspan class="cls-128" x="0" y="192">見</tspan><tspan class="cls-69" x="8.73" y="192">い</tspan><tspan class="cls-128" x="16.92" y="192">だ</tspan><tspan class="cls-121" x="25.65" y="192">す</tspan><tspan class="cls-84" x="34.2" y="192">か</tspan><tspan class="cls-132" x="42.66" y="192">で</tspan><tspan x="51.57" y="192">「生産者</tspan><tspan class="cls-84" x="87.57" y="192">」</tspan><tspan class="cls-116" x="96.03" y="192">に</tspan><tspan class="cls-100" x="103.68" y="192">な</tspan><tspan class="cls-59" x="111.24" y="192">る</tspan><tspan class="cls-36" x="118.08" y="192">こ</tspan><tspan class="cls-101" x="124.38" y="192">と</tspan><tspan class="cls-83" x="131.85" y="192">が</tspan><tspan class="cls-100" x="140.31" y="192">で</tspan><tspan class="cls-59" x="147.87" y="192">き</tspan><tspan class="cls-50" x="154.71" y="192">る</tspan><tspan class="cls-105" x="161.19" y="192">とい</tspan><tspan class="cls-93" x="175.95" y="192">う</tspan><tspan class="cls-134" x="183.06" y="192">お</tspan><tspan class="cls-84" x="191.97" y="192">話</tspan><tspan class="cls-103" x="200.43" y="192">で</tspan><tspan class="cls-99" x="207.9" y="192">し</tspan><tspan class="cls-127" x="215.46" y="192">た</tspan><tspan class="cls-67" x="224.19" y="192">。</tspan></tspan><tspan class="cls-10"><tspan x="0" y="208">大</tspan><tspan class="cls-84" x="9" y="208">学</tspan><tspan class="cls-132" x="17.46" y="208">で</tspan><tspan class="cls-110" x="26.37" y="208">何</tspan><tspan class="cls-121" x="34.2" y="208">を</tspan><tspan class="cls-84" x="42.75" y="208">学</tspan><tspan x="51.21" y="208">び、</tspan><tspan class="cls-110" x="69.21" y="208">何</tspan><tspan class="cls-121" x="77.04" y="208">を</tspan><tspan class="cls-107" x="85.59" y="208">得</tspan><tspan class="cls-100" x="93.51" y="208">る</tspan><tspan class="cls-110" x="101.07" y="208">か</tspan><tspan class="cls-119" x="108.9" y="208">を</tspan><tspan class="cls-75" x="117.45" y="208">改</tspan><tspan class="cls-107" x="125.73" y="208">め</tspan><tspan class="cls-121" x="133.65" y="208">て</tspan><tspan x="142.2" y="208">意</tspan><tspan class="cls-98" x="151.2" y="208">識</tspan><tspan class="cls-70" x="158.76" y="208">し</tspan><tspan class="cls-84" x="166.86" y="208">、自</tspan><tspan class="cls-118" x="183.78" y="208">分</tspan><tspan x="192.6" y="208">が文学</tspan><tspan class="cls-84" x="219.6" y="208">部</tspan><tspan class="cls-132" x="228.06" y="208">で</tspan><tspan x="236.97" y="208">学</tspan></tspan><tspan class="cls-10"><tspan class="cls-113" x="-.36" y="224">ぶ</tspan><tspan class="cls-36" x="7.38" y="224">こ</tspan><tspan class="cls-92" x="13.68" y="224">と</tspan><tspan class="cls-121" x="20.79" y="224">に</tspan><tspan class="cls-98" x="29.34" y="224">対</tspan><tspan class="cls-46" x="36.9" y="224">し</tspan><tspan class="cls-73" x="43.56" y="224">て</tspan><tspan class="cls-84" x="51.57" y="224">自</tspan><tspan class="cls-110" x="60.03" y="224">信</tspan><tspan class="cls-121" x="67.86" y="224">を</tspan><tspan class="cls-125" x="76.41" y="224">持</tspan><tspan class="cls-101" x="85.05" y="224">つ</tspan><tspan class="cls-51" x="92.52" y="224">き</tspan><tspan class="cls-108" x="99.09" y="224">っ</tspan><tspan class="cls-69" x="107.01" y="224">か</tspan><tspan class="cls-73" x="115.2" y="224">け</tspan><tspan class="cls-116" x="123.21" y="224">に</tspan><tspan class="cls-95" x="130.86" y="224">な</tspan><tspan class="cls-54" x="137.88" y="224">り</tspan><tspan class="cls-37" x="144.27" y="224">ま</tspan><tspan class="cls-100" x="150.39" y="224">し</tspan><tspan class="cls-127" x="157.95" y="224">た</tspan><tspan class="cls-65" x="166.68" y="224">。</tspan></tspan><tspan class="cls-10"><tspan x="0" y="256">学生同</tspan><tspan class="cls-118" x="27" y="256">士</tspan><tspan class="cls-126" x="35.82" y="256">が</tspan><tspan class="cls-108" x="44.46" y="256">つ</tspan><tspan class="cls-83" x="52.38" y="256">な</tspan><tspan class="cls-105" x="60.84" y="256">が</tspan><tspan class="cls-55" x="68.22" y="256">り</tspan><tspan class="cls-121" x="74.43" y="256">を</tspan><tspan class="cls-78" x="82.98" y="256">持</tspan><tspan class="cls-90" x="91.35" y="256">て</tspan><tspan class="cls-43" x="98.55" y="256">る</tspan><tspan class="cls-35" x="105.3" y="256">よ</tspan><tspan class="cls-100" x="111.6" y="256">う</tspan><tspan class="cls-128" x="119.16" y="256">サ</tspan><tspan class="cls-111" x="127.89" y="256">ポ</tspan><tspan class="cls-49" x="135.72" y="256">ー</tspan><tspan class="cls-116" x="142.2" y="256">ト</tspan></tspan><tspan class="cls-10"><tspan class="cls-84" x="-.54" y="272">日</tspan><tspan x="7.92" y="272">本</tspan><tspan class="cls-84" x="16.92" y="272">語日</tspan><tspan x="33.84" y="272">本文学専</tspan><tspan class="cls-68" x="69.84" y="272">攻</tspan><tspan class="cls-103" x="78.03" y="272">コ</tspan><tspan class="cls-87" x="85.5" y="272">ー</tspan><tspan class="cls-113" x="92.79" y="272">ス</tspan><tspan class="cls-84" x="100.53" y="272">で</tspan><tspan class="cls-127" x="108.99" y="272">は</tspan><tspan class="cls-30" x="117.72" y="272">、学生同</tspan><tspan class="cls-118" x="153.72" y="272">士</tspan><tspan class="cls-33" x="162.54" y="272">が</tspan><tspan class="cls-129" x="171.54" y="272">関</tspan><tspan class="cls-86" x="180.27" y="272">わ</tspan><tspan class="cls-55" x="187.56" y="272">り</tspan><tspan class="cls-119" x="193.77" y="272">を</tspan><tspan class="cls-108" x="202.32" y="272">持</tspan><tspan class="cls-112" x="210.24" y="272">ち</tspan><tspan class="cls-129" x="217.98" y="272">や</tspan><tspan class="cls-119" x="226.71" y="272">す</tspan><tspan class="cls-104" x="235.26" y="272">い</tspan><tspan class="cls-112" x="242.64" y="272">よ</tspan></tspan><tspan class="cls-10"><tspan class="cls-87" x="-1.44" y="288">う</tspan><tspan class="cls-125" x="5.85" y="288">、</tspan><tspan class="cls-45" x="14.49" y="288">オ</tspan><tspan class="cls-94" x="21.15" y="288">リ</tspan><tspan class="cls-103" x="28.26" y="288">エ</tspan><tspan class="cls-70" x="35.73" y="288">ン</tspan><tspan class="cls-110" x="43.83" y="288">テ</tspan><tspan class="cls-113" x="51.66" y="288">ー</tspan><tspan class="cls-47" x="59.4" y="288">シ</tspan><tspan class="cls-61" x="66.06" y="288">ョ</tspan><tspan class="cls-110" x="72.99" y="288">ン</tspan><tspan class="cls-63" x="80.82" y="288">キ</tspan><tspan class="cls-89" x="87.75" y="288">ャ</tspan><tspan class="cls-113" x="94.95" y="288">ン</tspan><tspan class="cls-103" x="102.69" y="288">プ</tspan><tspan class="cls-104" x="110.16" y="288">とい</tspan><tspan class="cls-115" x="124.92" y="288">う</tspan><tspan x="132.57" y="288">行</tspan><tspan class="cls-117" x="141.57" y="288">事</tspan><tspan class="cls-82" x="150.39" y="288">が</tspan><tspan class="cls-63" x="158.85" y="288">あ</tspan><tspan class="cls-52" x="165.78" y="288">り</tspan><tspan class="cls-38" x="172.17" y="288">ま</tspan><tspan class="cls-100" x="178.29" y="288">し</tspan><tspan class="cls-128" x="185.85" y="288">た</tspan><tspan x="194.58" y="288">。入学直</tspan><tspan class="cls-84" x="230.58" y="288">後</tspan><tspan class="cls-121" x="239.04" y="288">の</tspan></tspan><tspan class="cls-10"><tspan x="0" y="304">不</tspan><tspan class="cls-71" x="9" y="304">安</tspan><tspan class="cls-124" x="17.1" y="304">な</tspan><tspan x="25.74" y="304">気</tspan><tspan class="cls-107" x="34.74" y="304">持</tspan><tspan class="cls-74" x="42.66" y="304">ち</tspan><tspan class="cls-30" x="50.67" y="304">が解</tspan><tspan class="cls-73" x="68.67" y="304">消</tspan><tspan class="cls-103" x="76.68" y="304">さ</tspan><tspan x="84.15" y="304">れ</tspan><tspan class="cls-103" x="93.15" y="304">、</tspan><tspan class="cls-97" x="100.62" y="304">と</tspan><tspan class="cls-98" x="107.64" y="304">て</tspan><tspan class="cls-113" x="115.2" y="304">も</tspan><tspan class="cls-128" x="122.94" y="304">思</tspan><tspan class="cls-134" x="131.67" y="304">い</tspan><tspan class="cls-84" x="140.58" y="304">出</tspan><tspan class="cls-121" x="149.04" y="304">に</tspan><tspan class="cls-73" x="157.59" y="304">残</tspan><tspan class="cls-100" x="165.6" y="304">っ</tspan><tspan class="cls-76" x="173.16" y="304">て</tspan><tspan class="cls-98" x="181.44" y="304">い</tspan><tspan class="cls-103" x="189" y="304">ま</tspan><tspan class="cls-104" x="196.47" y="304">す</tspan><tspan class="cls-65" x="203.85" y="304">。</tspan></tspan><tspan class="cls-10"><tspan class="cls-103" x="-.54" y="320">の</tspan><tspan class="cls-115" x="6.93" y="320">ち</tspan><tspan class="cls-73" x="14.58" y="320">に</tspan><tspan class="cls-84" x="22.59" y="320">自</tspan><tspan class="cls-117" x="31.05" y="320">分</tspan><tspan class="cls-30" x="39.87" y="320">が先</tspan><tspan class="cls-103" x="57.87" y="320">輩</tspan><tspan class="cls-57" x="65.34" y="320">と</tspan><tspan class="cls-44" x="71.55" y="320">し</tspan><tspan class="cls-111" x="78.21" y="320">て</tspan><tspan class="cls-61" x="86.04" y="320">キ</tspan><tspan class="cls-89" x="92.97" y="320">ャ</tspan><tspan class="cls-112" x="100.17" y="320">ン</tspan><tspan class="cls-110" x="107.91" y="320">プ</tspan><tspan class="cls-120" x="115.74" y="320">を</tspan><tspan class="cls-33" x="124.29" y="320">企</tspan><tspan class="cls-100" x="133.29" y="320">画し</tspan><tspan class="cls-93" x="148.41" y="320">た</tspan><tspan class="cls-63" x="155.52" y="320">り</tspan><tspan class="cls-68" x="162.45" y="320">、</tspan><tspan class="cls-87" x="170.64" y="320">コ</tspan><tspan class="cls-110" x="177.93" y="320">ロ</tspan><tspan class="cls-121" x="185.76" y="320">ナ</tspan><tspan class="cls-84" x="194.31" y="320">禍</tspan><tspan class="cls-132" x="202.77" y="320">で</tspan><tspan x="211.68" y="320">開</tspan><tspan class="cls-118" x="220.68" y="320">催</tspan><tspan class="cls-33" x="229.5" y="320">が難</tspan></tspan><tspan class="cls-10"><tspan class="cls-42" x="-1.44" y="336">し</tspan><tspan class="cls-53" x="4.32" y="336">く</tspan><tspan class="cls-96" x="10.71" y="336">な</tspan><tspan class="cls-115" x="17.73" y="336">っ</tspan><tspan class="cls-90" x="25.38" y="336">た</tspan><tspan class="cls-34" x="32.58" y="336">と</tspan><tspan class="cls-103" x="38.88" y="336">き</tspan><tspan class="cls-122" x="46.35" y="336">は</tspan><tspan class="cls-84" x="54.89" y="336">「日</tspan><tspan class="cls-68" x="71.81" y="336">文</tspan><tspan class="cls-94" x="80" y="336">ラ</tspan><tspan class="cls-105" x="87.11" y="336">ウ</tspan><tspan class="cls-107" x="94.49" y="336">ン</tspan><tspan class="cls-128" x="102.41" y="336">ジ</tspan><tspan class="cls-88" x="111.14" y="336">」</tspan><tspan class="cls-106" x="118.42" y="336">とい</tspan><tspan class="cls-85" x="133.18" y="336">う</tspan><tspan class="cls-101" x="140.47" y="336">オ</tspan><tspan class="cls-112" x="147.94" y="336">ン</tspan><tspan class="cls-64" x="155.68" y="336">ラ</tspan><tspan class="cls-51" x="162.43" y="336">イ</tspan><tspan class="cls-73" x="169" y="336">ン</tspan><tspan class="cls-121" x="177.01" y="336">の</tspan><tspan class="cls-30" x="185.56" y="336">企</tspan><tspan class="cls-111" x="194.56" y="336">画</tspan><tspan class="cls-120" x="202.39" y="336">を</tspan><tspan class="cls-68" x="210.94" y="336">考</tspan><tspan class="cls-111" x="219.13" y="336">え</tspan><tspan class="cls-94" x="226.96" y="336">た</tspan><tspan class="cls-39" x="234.07" y="336">り</tspan><tspan class="cls-115" x="240.01" y="336">と</tspan><tspan class="cls-67" x="247.66" y="336">、</tspan></tspan><tspan class="cls-10"><tspan class="cls-93" x="-1.53" y="352">と</tspan><tspan class="cls-76" x="5.58" y="352">に</tspan><tspan class="cls-87" x="13.86" y="352">かく</tspan><tspan x="28.44" y="352">学生同</tspan><tspan class="cls-117" x="55.44" y="352">士</tspan><tspan class="cls-125" x="64.26" y="352">が</tspan><tspan class="cls-108" x="72.9" y="352">つ</tspan><tspan class="cls-84" x="80.82" y="352">な</tspan><tspan class="cls-104" x="89.28" y="352">が</tspan><tspan class="cls-56" x="96.66" y="352">り</tspan><tspan class="cls-120" x="102.87" y="352">を</tspan><tspan class="cls-78" x="111.42" y="352">持</tspan><tspan class="cls-90" x="119.79" y="352">て</tspan><tspan class="cls-64" x="126.99" y="352">る</tspan><tspan class="cls-36" x="133.74" y="352">よ</tspan><tspan class="cls-85" x="140.04" y="352">う</tspan><tspan x="147.33" y="352">、学</tspan><tspan class="cls-121" x="165.33" y="352">生</tspan><tspan class="cls-132" x="173.88" y="352">や</tspan><tspan x="182.79" y="352">教職員</tspan><tspan class="cls-84" x="209.79" y="352">み</tspan><tspan class="cls-107" x="218.25" y="352">ん</tspan><tspan class="cls-70" x="226.17" y="352">な</tspan><tspan class="cls-118" x="234.27" y="352">で</tspan><tspan class="cls-33" x="243.09" y="352">サ</tspan></tspan><tspan class="cls-10"><tspan class="cls-110" x="-.27" y="368">ポ</tspan><tspan class="cls-50" x="7.56" y="368">ー</tspan><tspan class="cls-56" x="14.04" y="368">ト</tspan><tspan class="cls-46" x="20.25" y="368">し</tspan><tspan class="cls-76" x="26.91" y="368">て</tspan><tspan class="cls-100" x="35.19" y="368">い</tspan><tspan class="cls-37" x="42.75" y="368">ま</tspan><tspan class="cls-100" x="48.87" y="368">し</tspan><tspan class="cls-127" x="56.43" y="368">た</tspan><tspan class="cls-65" x="65.16" y="368">。</tspan></tspan><tspan class="cls-10"><tspan x="0" y="400">大</tspan><tspan class="cls-84" x="9" y="400">学</tspan><tspan class="cls-132" x="17.46" y="400">で</tspan><tspan class="cls-84" x="26.37" y="400">学</tspan><tspan class="cls-81" x="34.83" y="400">ん</tspan><tspan class="cls-132" x="43.2" y="400">だ</tspan><tspan x="52.11" y="400">「文</tspan><tspan class="cls-84" x="70.11" y="400">学</tspan><tspan class="cls-121" x="78.57" y="400">の</tspan><tspan x="87.12" y="400">魅力</tspan><tspan class="cls-110" x="105.12" y="400">」</tspan><tspan class="cls-121" x="112.95" y="400">を</tspan><tspan x="121.5" y="400">中学</tspan><tspan class="cls-84" x="139.5" y="400">生</tspan><tspan class="cls-121" x="147.96" y="400">に</tspan><tspan class="cls-68" x="156.51" y="400">伝</tspan><tspan class="cls-110" x="164.7" y="400">え</tspan><tspan class="cls-82" x="172.53" y="400">た</tspan><tspan class="cls-133" x="180.99" y="400">い</tspan></tspan><tspan class="cls-10"><tspan x="0" y="416">教</tspan><tspan class="cls-103" x="9" y="416">員</tspan><tspan class="cls-56" x="16.47" y="416">と</tspan><tspan class="cls-45" x="22.68" y="416">し</tspan><tspan class="cls-73" x="29.34" y="416">て</tspan><tspan class="cls-115" x="37.35" y="416">日</tspan><tspan class="cls-86" x="45" y="416">々</tspan><tspan class="cls-121" x="52.29" y="416">の</tspan><tspan x="60.84" y="416">仕</tspan><tspan class="cls-84" x="69.84" y="416">事</tspan><tspan class="cls-121" x="78.3" y="416">に</tspan><tspan class="cls-128" x="86.85" y="416">追</tspan><tspan class="cls-121" x="95.58" y="416">わ</tspan><tspan class="cls-107" x="104.13" y="416">れ</tspan><tspan class="cls-71" x="112.05" y="416">る</tspan><tspan class="cls-84" x="120.15" y="416">毎</tspan><tspan class="cls-107" x="128.61" y="416">日</tspan><tspan class="cls-128" x="136.53" y="416">で</tspan><tspan class="cls-125" x="145.26" y="416">す</tspan><tspan class="cls-128" x="153.9" y="416">が</tspan><tspan class="cls-33" x="162.63" y="416">、</tspan><tspan class="cls-100" x="171.63" y="416">少</tspan><tspan class="cls-107" x="179.19" y="416">し</tspan><tspan class="cls-121" x="187.11" y="416">ず</tspan><tspan class="cls-76" x="195.66" y="416">つ</tspan><tspan class="cls-84" x="203.94" y="416">自</tspan><tspan class="cls-70" x="212.4" y="416">分</tspan><tspan class="cls-95" x="220.5" y="416">な</tspan><tspan class="cls-61" x="227.52" y="416">り</tspan><tspan class="cls-78" x="234.45" y="416">の</tspan><tspan x="242.82" y="416">ル</tspan></tspan><tspan class="cls-10"><tspan class="cls-107" x="-.63" y="432">ー</tspan><tspan class="cls-41" x="7.29" y="432">テ</tspan><tspan class="cls-46" x="13.05" y="432">ィ</tspan><tspan class="cls-81" x="19.71" y="432">ン</tspan><tspan x="28.08" y="432">が確</tspan><tspan class="cls-84" x="46.08" y="432">立</tspan><tspan class="cls-100" x="54.54" y="432">で</tspan><tspan class="cls-104" x="62.1" y="432">き</tspan><tspan class="cls-103" x="69.48" y="432">た</tspan><tspan class="cls-70" x="76.95" y="432">ら</tspan><tspan class="cls-33" x="85.05" y="432">、大</tspan><tspan class="cls-83" x="103.05" y="432">学</tspan><tspan class="cls-131" x="111.51" y="432">で</tspan><tspan class="cls-84" x="120.42" y="432">学</tspan><tspan class="cls-81" x="128.88" y="432">ん</tspan><tspan class="cls-132" x="137.25" y="432">だ</tspan><tspan x="146.16" y="432">「文</tspan><tspan class="cls-84" x="164.16" y="432">学</tspan><tspan class="cls-121" x="172.62" y="432">の</tspan><tspan x="181.17" y="432">魅力</tspan><tspan class="cls-110" x="199.17" y="432">」</tspan><tspan class="cls-121" x="207" y="432">を</tspan><tspan x="215.55" y="432">中学</tspan><tspan class="cls-84" x="233.55" y="432">生</tspan><tspan class="cls-121" x="242.01" y="432">に</tspan></tspan><tspan class="cls-10"><tspan class="cls-113" x="-.99" y="448">も</tspan><tspan class="cls-68" x="6.75" y="448">伝</tspan><tspan class="cls-63" x="14.94" y="448">え</tspan><tspan class="cls-64" x="21.87" y="448">る</tspan><tspan class="cls-36" x="28.62" y="448">よ</tspan><tspan class="cls-48" x="34.92" y="448">う</tspan><tspan class="cls-124" x="41.4" y="448">な</tspan><tspan x="50.04" y="448">授</tspan><tspan class="cls-110" x="59.04" y="448">業</tspan><tspan class="cls-94" x="66.87" y="448">を</tspan><tspan class="cls-100" x="73.98" y="448">し</tspan><tspan class="cls-82" x="81.54" y="448">た</tspan><tspan class="cls-62" x="90" y="448">い</tspan><tspan class="cls-115" x="96.93" y="448">と</tspan><tspan class="cls-68" x="104.58" y="448">考</tspan><tspan class="cls-87" x="112.77" y="448">え</tspan><tspan class="cls-77" x="120.06" y="448">て</tspan><tspan class="cls-98" x="128.34" y="448">い</tspan><tspan class="cls-101" x="135.9" y="448">ま</tspan><tspan class="cls-104" x="143.37" y="448">す</tspan><tspan class="cls-67" x="150.75" y="448">。</tspan></tspan></text>
    </g>
  </g>
</svg>