<svg preserveAspectRatio="none" width="100%" height="100%" overflow="visible" style="display: block;" viewBox="0 0 350.957 36.677" fill="none" xmlns="http://www.w3.org/2000/svg">
<g id="Group">
<path id="Vector" d="M4.22455 14.7528C3.08486 14.7528 0.535554 14.6426 0.535554 11.2463C0.535554 8.31088 2.28508 7.69971 4.22455 7.69971H18.1707V5.11499C18.1707 3.17141 19.0105 1.68863 21.7797 1.68863C23.9491 1.68863 25.4688 2.53022 25.4688 5.11499V7.69971H30.3674C31.5471 7.69971 34.0864 7.80991 34.0864 11.2062C34.0864 14.1416 32.2969 14.7528 30.3674 14.7528H25.4688V29.9508C25.4688 35.8917 21.1799 35.8917 17.8708 35.8917C14.1519 35.8917 11.4125 35.8917 11.4125 31.9645C11.4125 30.101 12.1724 28.5782 14.4918 28.5782C14.8717 28.5782 16.5012 28.6584 16.8111 28.6584C17.8708 28.6584 18.1807 28.5482 18.1807 27.7066V20.4332C14.8716 24.5809 11.5325 27.1756 9.32313 28.7686C7.6136 30.0209 5.63413 31.4736 3.81463 31.4736C1.45527 31.4736 0.315582 29.1092 0.315582 27.4762C0.315582 25.8432 1.60526 25.1119 2.97489 24.3505C5.44422 23.018 7.80353 21.385 9.93295 19.5516C12.2123 17.5679 13.0521 16.6963 14.8316 14.7528H4.22455Z" stroke="var(--stroke-0, #386F6B)" stroke-width="0.631164"/>
<path id="Vector_2" d="M45.1255 22.8671C44.0658 22.8671 41.0966 22.8671 41.0966 19.1001C41.0966 15.754 43.266 15.2531 45.0855 15.2531H71.1584C72.1481 15.2531 75.1473 15.2531 75.1473 19.02C75.1473 22.5666 72.718 22.8671 71.1185 22.8671H45.1255Z" stroke="var(--stroke-0, #386F6B)" stroke-width="0.631164"/>
<path id="Vector_3" d="M85.9105 12.6583C85.1507 12.6583 82.2216 12.6584 82.2216 9.00164C82.2216 6.52708 83.5912 5.34487 85.9105 5.34487H106.205C106.735 5.34487 107.535 5.38493 108.634 5.57528C108.594 5.38493 108.524 5.08437 108.524 4.69365C108.524 2.40944 110.384 0.315582 112.893 0.315582C115.252 0.315582 117.112 2.25921 117.112 4.62357C117.112 6.82764 115.402 8.81127 112.933 8.92148C113.273 9.83316 113.273 10.9352 113.273 11.2458C113.273 14.101 111.604 22.1759 105.785 27.9666C100.127 33.6371 92.0289 35.9613 89.6695 35.9613C86.7803 35.9613 86.0205 33.0259 86.0205 31.8137C86.0205 29.5294 87.81 29.0285 89.6695 28.4975C97.7673 26.2534 102.966 22.3262 104.905 14.6019C104.985 14.2613 105.175 13.4999 105.175 13.1894C105.175 12.6584 104.795 12.6583 104.336 12.6583H85.9005H85.9105ZM112.813 2.99056C111.903 2.99056 111.184 3.71189 111.184 4.62357C111.184 5.53525 111.903 6.29664 112.813 6.29664C113.723 6.29664 114.483 5.57533 114.483 4.62357C114.483 3.67182 113.723 2.99056 112.813 2.99056Z" stroke="var(--stroke-0, #386F6B)" stroke-width="0.631164"/>
<path id="Vector_4" d="M134.406 7.17728C136.915 8.70008 138.055 9.57168 138.055 11.365C138.055 13.1583 136.425 15.7431 134.106 15.7431C133.536 15.7431 133.006 15.6329 131.826 14.8715C128.407 12.6574 127.717 12.1664 124.838 10.6436C123.429 9.88222 122.139 9.16094 122.139 7.36763C122.139 5.12349 123.998 3.37027 126.168 3.37027C127.727 3.37027 132.896 6.2656 134.416 7.17728H134.406ZM142.573 29.7188C136.225 34.0168 128.017 35.1288 126.918 35.1288C124.068 35.1288 123.269 32.504 123.269 30.8309C123.269 27.8955 125.278 27.4847 127.257 27.2142C137.175 25.8417 143.103 22.0347 147.132 11.9861C147.322 11.5253 147.972 9.5917 148.122 9.21099C148.502 8.29931 148.992 7.11717 150.971 7.11717C153.17 7.11717 155.26 8.17913 155.26 10.6236C155.26 11.916 152.221 23.2268 142.563 29.7388L142.573 29.7188Z" stroke="var(--stroke-0, #386F6B)" stroke-width="0.631164"/>
<path id="Vector_5" d="M173.968 5.61469C173.818 3.86145 174.158 1.65738 177.847 1.65738C179.826 1.65738 181.416 2.07815 181.606 5.16384L181.716 7.10743L189.774 6.57642C193.083 6.346 193.613 8.90071 193.613 10.0829C193.613 12.0966 192.473 13.399 190.234 13.5493L182.176 14.0803L182.446 18.6086L191.873 18.0376C195.142 17.8472 195.712 20.3218 195.712 21.5841C195.712 23.678 194.492 24.9002 192.293 25.0505L182.906 25.6215L183.325 32.3239C183.405 33.6564 183.595 36.3614 179.486 36.3614C175.917 36.3614 175.758 34.1874 175.688 32.7848L175.268 26.0824L165.54 26.6935C162.201 26.8839 161.661 24.3692 161.661 23.1169C161.661 21.0231 162.911 19.8409 165.12 19.6906L174.848 19.0795L174.548 14.5812L166.45 15.1122C163.141 15.3426 162.611 12.7879 162.611 11.6057C162.611 9.51185 163.791 8.28958 165.99 8.1393L174.118 7.60835L173.968 5.62472V5.61469Z" stroke="var(--stroke-0, #386F6B)" stroke-width="0.631164"/>
<path id="Vector_6" d="M217.894 32.4254C218.124 34.8599 216.834 36.2725 214.365 36.2725C211.896 36.2725 211.136 34.6695 210.986 33.0766L209.736 20.7739L205.977 21.1546C202.668 21.4952 202.098 19.1008 202.098 17.7283C202.098 14.9832 204.078 14.5625 205.288 14.4523L209.087 14.1517L208.787 11.2964C208.517 8.74171 209.886 7.48941 212.436 7.48941C215.135 7.48941 215.585 9.28273 215.705 10.5751L216.005 13.5405L225.272 12.7391C227.322 12.5487 230.251 12.7391 230.251 16.3958C230.251 20.0526 227.781 23.8596 226.182 25.6829C224.702 27.356 223.223 28.428 221.813 28.428C220.064 28.428 218.274 26.9052 218.274 25.0818C218.274 23.8295 218.844 23.3286 220.253 22.0363C221.313 21.0845 222.193 19.8622 222.193 19.6017C222.193 19.4514 222.003 19.4514 221.623 19.4915L216.644 20.0225L217.894 32.4354V32.4254Z" stroke="var(--stroke-0, #386F6B)" stroke-width="0.631164"/>
<path id="Vector_7" d="M249.221 7.17728C251.73 8.70008 252.87 9.57168 252.87 11.365C252.87 13.1583 251.24 15.7431 248.921 15.7431C248.351 15.7431 247.821 15.6329 246.642 14.8715C243.222 12.6574 242.533 12.1664 239.653 10.6436C238.244 9.88222 236.954 9.16094 236.954 7.36763C236.954 5.12349 238.814 3.37027 240.983 3.37027C242.543 3.37027 247.711 6.2656 249.231 7.17728H249.221ZM257.389 29.7188C251.04 34.0168 242.833 35.1288 241.733 35.1288C238.884 35.1288 238.084 32.504 238.084 30.8309C238.084 27.8955 240.093 27.4847 242.073 27.2142C251.99 25.8417 257.919 22.0347 261.947 11.9861C262.137 11.5253 262.787 9.5917 262.937 9.21099C263.317 8.29931 263.807 7.11717 265.786 7.11717C267.996 7.11717 270.075 8.17913 270.075 10.6236C270.075 11.916 267.036 23.2268 257.379 29.7388L257.389 29.7188Z" stroke="var(--stroke-0, #386F6B)" stroke-width="0.631164"/>
<path id="Vector_8" d="M284.672 31.3926C283.303 33.7169 282.353 35.0093 280.413 35.0093C278.474 35.0093 276.234 33.1459 276.234 31.1622C276.234 30.0602 276.614 29.3388 277.294 28.3069C281.973 21.1136 282.953 14.7118 283.982 6.33641C284.092 5.38465 284.402 3.10046 287.251 3.10046C288.311 3.10046 289.681 3.48113 290.401 4.13233C291.27 4.89373 291.27 5.61512 291.27 7.25815C291.27 8.63068 289.901 22.3359 284.662 31.4026L284.672 31.3926ZM302.837 6.94752C303.867 15.0625 304.887 21.2238 309.445 28.3069C310.205 29.449 310.505 30.1303 310.505 31.1221C310.505 33.2961 308.186 35.0093 306.326 35.0093C304.697 35.0093 303.437 34.2479 301.198 29.7496C296.599 20.5726 295.419 8.22989 295.419 6.51673C295.419 5.86553 295.419 4.53311 296.899 3.73163C298.228 2.97022 299.828 3.08044 300.128 3.12052C302.367 3.46114 302.597 5.25444 302.827 6.92752L302.837 6.94752ZM307.586 9.23176C305.227 9.23176 303.297 7.2882 303.297 4.93386C303.297 2.57952 305.237 0.635894 307.586 0.635894C309.935 0.635894 311.875 2.53944 311.875 4.93386C311.875 7.32827 309.975 9.23176 307.586 9.23176ZM307.586 3.25076C306.676 3.25076 305.956 4.01215 305.956 4.92383C305.956 5.83551 306.676 6.55684 307.586 6.55684C308.496 6.55684 309.255 5.83551 309.255 4.92383C309.255 4.01215 308.536 3.25076 307.586 3.25076Z" stroke="var(--stroke-0, #386F6B)" stroke-width="0.631164"/>
<path id="Vector_9" d="M322.439 10.4133C319.74 10.4133 318.791 8.74025 318.791 6.86679C318.791 4.62266 320.04 3.29019 322.439 3.29019H340.375C341.704 3.29019 345.393 3.29016 345.393 7.3276C345.393 9.72202 343.414 14.8715 339.845 20.1212C342.234 21.8744 344.254 23.3572 348.283 26.9739C349.722 28.2663 350.642 29.1779 350.642 30.861C350.642 33.1853 348.632 35.0488 346.463 35.0488C344.793 35.0488 343.954 34.097 343.044 33.035C340.685 30.3701 338.105 27.9356 335.446 25.5312C329.518 31.6625 323.509 35.3894 321.16 35.3894C319.11 35.3894 317.551 33.2153 317.551 31.3118C317.551 29.5586 318.391 29.0978 320.78 27.7653C323.139 26.4729 330.087 22.5858 334.916 14.1702C335.716 12.7977 336.516 10.9744 336.516 10.6237C336.516 10.3933 336.326 10.3933 335.906 10.3933H322.449L322.439 10.4133Z" stroke="var(--stroke-0, #386F6B)" stroke-width="0.631164"/>
</g>
</svg>
