<svg preserveAspectRatio="none" width="100%" height="100%" overflow="visible" style="display: block;" viewBox="0 0 68.8682 82.3207" fill="none" xmlns="http://www.w3.org/2000/svg">
<g id="Group">
<path id="Vector" d="M22.6383 82.257C22.327 82.36 21.9855 82.3394 21.6843 82.1849C21.383 82.0304 21.1621 81.7729 21.0617 81.4536L0.0657228 17.3264C-0.145142 16.6776 0.166105 15.9772 0.788658 15.73L46.2451 0.063954C46.8777 -0.152344 47.5805 0.197737 47.8114 0.84663L48.8055 3.68941C49.0364 4.3486 48.7151 5.05937 48.0725 5.31687C47.4098 5.56407 46.6969 5.21388 46.4659 4.55469L45.8836 2.88611L2.81699 17.7282L23.0198 79.4348L66.0663 64.603L57.0594 36.3916C56.8586 35.7427 57.1799 35.0527 57.7924 34.8055C58.5053 34.5686 59.2082 34.9291 59.4191 35.5986L68.8076 65.0047C69.0084 65.6536 68.6971 66.3437 68.0746 66.5909L22.6182 82.257H22.6383Z" fill="var(--fill-0, #3C3D3D)"/>
<path id="Vector_2" d="M14.8859 26.3792C14.2332 26.6058 13.5303 26.2453 13.3094 25.5758C13.0985 24.9269 13.4198 24.2266 14.0323 23.9794L40.8824 14.7301C41.5351 14.5035 42.238 14.8639 42.4589 15.5334C42.6698 16.1823 42.3485 16.8827 41.7259 17.1299L14.8758 26.3792H14.8859Z" fill="var(--fill-0, #3C3D3D)"/>
<path id="Vector_3" d="M20.5875 42.654C19.9348 42.8806 19.2319 42.5304 19.001 41.8712C18.7801 41.2223 19.1014 40.5116 19.7239 40.2644L39.7159 33.1575C40.0272 33.0442 40.3686 33.0648 40.6698 33.2193C40.971 33.3635 41.192 33.6312 41.3024 33.9505C41.5233 34.5994 41.202 35.3102 40.5795 35.5574L20.5975 42.654H20.5875Z" fill="var(--fill-0, #3C3D3D)"/>
<path id="Vector_4" d="M18.3868 34.8674C18.0756 34.9807 17.7341 34.9602 17.4328 34.8057C17.1316 34.6615 16.9107 34.3936 16.8002 34.0743C16.5793 33.4254 16.9006 32.7148 17.5232 32.4676L17.7341 32.3955C18.3868 32.1689 19.0896 32.5191 19.3206 33.1886C19.5415 33.8375 19.2202 34.5482 18.5977 34.7954L18.3969 34.8674H18.3868Z" fill="var(--fill-0, #3C3D3D)"/>
<path id="Vector_5" d="M37.0732 28.3785C36.4205 28.4609 35.6674 28.2961 35.4264 27.5648C35.2055 26.9056 35.5268 26.164 36.1393 25.9271C36.4908 25.8035 36.8221 25.8241 37.1233 25.9786C37.4346 26.1331 37.6656 26.4008 37.776 26.7304C37.9969 27.3999 37.6857 28.1313 37.0732 28.3785Z" fill="var(--fill-0, #3C3D3D)"/>
<path id="Vector_6" d="M30.5069 30.5605C30.1655 30.6841 29.8342 30.6532 29.533 30.509C29.2317 30.3545 29.0108 30.097 28.9004 29.7777C28.6795 29.1288 29.0008 28.4284 29.6233 28.1812C29.9848 28.0473 30.3262 28.0782 30.6174 28.2224C30.9186 28.3769 31.1395 28.6344 31.25 28.9537C31.4709 29.6026 31.1496 30.303 30.527 30.5605H30.4969H30.5069Z" fill="var(--fill-0, #3C3D3D)"/>
<path id="Vector_7" d="M24.0211 32.8385C23.6797 32.9518 23.3482 32.9311 23.047 32.7869C22.7458 32.6427 22.525 32.375 22.4145 32.0557C22.2037 31.4068 22.5149 30.6962 23.1475 30.449C23.8404 30.2018 24.5533 30.5622 24.7742 31.2316C24.985 31.8805 24.6738 32.5913 24.0412 32.8385H24.0211Z" fill="var(--fill-0, #3C3D3D)"/>
<path id="Vector_8" d="M42.4264 26.3797C41.7738 26.6063 41.0709 26.2561 40.84 25.5866C40.6191 24.9377 40.9404 24.2374 41.5529 23.9902L41.7737 23.9077C42.4264 23.6811 43.1294 24.0313 43.3603 24.7008C43.5812 25.3497 43.2598 26.0501 42.6272 26.3076L42.4164 26.3797H42.4264Z" fill="var(--fill-0, #3C3D3D)"/>
<path id="Vector_9" d="M22.8162 50.5534C22.505 50.6667 22.1636 50.6462 21.8624 50.4917C21.5611 50.3475 21.3402 50.0798 21.2298 49.7605C21.0089 49.1116 21.3302 48.4008 21.9628 48.1536L37.2353 42.7256C37.5466 42.6123 37.8881 42.6329 38.1893 42.7874C38.4906 42.9316 38.7115 43.1994 38.8219 43.5187C39.0428 44.1676 38.7215 44.8783 38.099 45.1255L22.8162 50.5638V50.5534Z" fill="var(--fill-0, #3C3D3D)"/>
<path id="Vector_10" d="M25.3163 58.4323C24.6636 58.6589 23.9608 58.2984 23.7399 57.6289C23.529 56.98 23.8403 56.2797 24.4628 56.0325L36.3515 51.8919C37.0042 51.6653 37.7072 52.0258 37.9281 52.6953C38.1389 53.3442 37.8277 54.0445 37.1951 54.2917L25.3163 58.4323Z" fill="var(--fill-0, #3C3D3D)"/>
<path id="Vector_11" d="M27.9389 66.1997C27.2862 66.4263 26.5832 66.0658 26.3623 65.4066C26.1515 64.7577 26.4627 64.0573 27.0853 63.8101L38.8736 59.6799C39.1849 59.5666 39.5263 59.5975 39.8276 59.7417C40.1288 59.8962 40.3497 60.1536 40.4602 60.4729C40.6811 61.1218 40.3598 61.8222 39.7372 62.0694L27.9488 66.1997H27.9389Z" fill="var(--fill-0, #3C3D3D)"/>
<path id="Vector_12" d="M45.1779 59.7819C44.947 59.8746 44.696 59.8952 44.455 59.8334C43.7823 59.6789 43.3605 58.9888 43.5111 58.309L43.7321 57.3099L43.4609 56.9803C41.8042 54.9615 40.79 50.8107 41.3222 48.2872C41.6937 46.5569 44.4148 32.683 49.1944 8.17953L49.4555 6.83019C49.5358 6.39759 49.827 6.04735 50.2287 5.88255C50.4496 5.80015 50.6905 5.77962 50.9215 5.82082L52.3474 6.10924L53.4217 1.08289C53.502 0.691499 53.7632 0.361917 54.1146 0.197119C54.5163 0.0323208 54.8978 0.052825 55.2191 0.227923L58.2415 1.88619C58.7235 2.15399 58.9745 2.69996 58.8741 3.25616L58.0909 7.39673L59.0749 7.42753C59.4063 7.42753 59.7076 7.57174 59.9385 7.81894L63.2119 11.2797C63.493 11.5784 63.6236 12.0008 63.5433 12.4128L60.1293 30.0256C60.0489 30.4272 59.7879 30.7775 59.4164 30.9423C59.4164 30.9423 57.6793 31.7354 57.6692 31.7354C57.3379 31.8693 57.0366 31.8692 56.7555 31.7662L55.8417 31.4366L55.6509 32.4151C53.5624 43.1476 52.3574 49.2554 52.0762 50.5738C51.3533 53.9727 48.2606 56.7228 46.4834 57.6601L46.1319 57.8456L45.9109 58.8652C45.8206 59.2772 45.5294 59.6171 45.1478 59.7716L45.1779 59.7819ZM46.0716 37.1736C44.6759 44.2702 43.9429 47.9783 43.7621 48.8332C43.3605 50.718 44.2441 53.396 44.8968 54.6423L45.3487 55.5075L46.1219 54.9409C47.4975 53.9418 49.2446 52.0569 49.6764 50.0382C49.8872 49.0391 50.6404 45.2179 51.9758 38.3787L52.1365 37.5342L46.2223 36.3291L46.0616 37.1736H46.0716ZM46.7344 33.8262L52.6386 35.0313L52.7992 34.1867C54.5564 25.1846 56.5345 14.9362 57.378 10.6103L57.5387 9.76563L51.6645 8.57081L46.7243 33.8262H46.7344Z" fill="var(--fill-0, #3C3D3D)"/>
</g>
</svg>
