<svg preserveAspectRatio="none" width="100%" height="100%" overflow="visible" style="display: block;" viewBox="0 0 116.862 177.57" fill="none" xmlns="http://www.w3.org/2000/svg">
<g id="Frame">
<path id="Vector" d="M63.6174 15.6588C63.6174 17.2317 62.2696 19.0953 60.1111 19.0953C59.6521 19.0953 59.0367 18.9649 58.607 18.6844L53.2841 25.7472C52.5418 26.729 51.78 27.3605 50.481 27.3605C48.7328 27.3605 47.004 25.8173 47.004 23.9538C47.004 23.2626 47.2482 22.6315 47.6486 22.0905L53.919 13.7651C54.505 14.1158 55.2082 14.2661 55.8821 14.2661C58.0699 14.2661 60.1209 12.4027 60.1209 10.0684C60.1209 9.24685 59.8475 8.42554 59.3201 7.76432L58.8609 7.16311L63.0412 1.61284C63.8128 0.631027 64.5452 0 65.8345 0C67.5827 0 69.3115 1.51269 69.3115 3.40618C69.3115 4.0674 69.0673 4.72848 68.6669 5.26948L62.6115 13.3146C63.1682 14.0059 63.5979 14.7373 63.5979 15.649L63.6174 15.6588ZM48.1565 5.28954C47.7561 4.74854 47.5412 4.11751 47.5412 3.42624C47.5412 1.5628 49.2309 0.0200565 51.0183 0.0200565C52.3075 0.0200565 53.0498 0.651083 53.8213 1.63289L58.7731 8.25497C59.1735 8.79596 59.4177 9.42748 59.4177 10.1188C59.4177 11.9822 57.6987 13.5249 55.9407 13.5249C54.6221 13.5249 53.9092 12.8936 53.1376 11.8818L48.1565 5.28954ZM60.0818 19.8564C62.2989 19.8564 64.3206 18.0229 64.389 15.6886L69.2139 22.0905C69.6143 22.6315 69.8584 23.2525 69.8584 23.9538C69.8584 25.8173 68.1395 27.3605 66.3521 27.3605C65.0629 27.3605 64.3207 26.729 63.5882 25.7472L59.0075 19.696C59.3786 19.7862 59.7107 19.8564 60.0818 19.8564Z" fill="var(--fill-0, #236242)"/>
<g id="Group">
<path id="Vector_2" d="M58.4312 176.939C90.3533 176.939 116.231 150.395 116.231 117.65C116.231 84.9054 90.3533 58.3605 58.4312 58.3605C26.5091 58.3605 0.631164 84.9054 0.631164 117.65C0.631164 150.395 26.5091 176.939 58.4312 176.939Z" fill="var(--fill-0, white)" stroke="var(--stroke-0, #236242)" stroke-width="1.26233" stroke-linecap="round" stroke-linejoin="round"/>
<path id="Vector_3" d="M58.429 147.935C74.7353 147.935 87.9541 134.375 87.9541 117.649C87.9541 100.922 74.7353 87.3625 58.429 87.3625C42.1227 87.3625 28.9039 100.922 28.9039 117.649C28.9039 134.375 42.1227 147.935 58.429 147.935Z" fill="var(--fill-0, black)"/>
<g id="Group_2">
<path id="Vector_4" d="M58.4331 96.38C52.8074 96.38 52.0944 96.4004 49.8871 96.5106C47.6798 96.6108 46.1757 96.9712 44.8572 97.5022C43.4898 98.0432 42.3373 98.7748 41.1848 99.9569C40.0324 101.139 39.3194 102.321 38.792 103.724C38.2841 105.076 37.9326 106.619 37.8251 108.884C37.7274 111.148 37.6981 111.879 37.6981 117.65C37.6981 123.42 37.7177 124.152 37.8251 126.416C37.9228 128.68 38.2744 130.223 38.792 131.575C39.3194 132.978 40.0324 134.16 41.1848 135.342C42.3373 136.524 43.4898 137.256 44.8572 137.797C46.1757 138.318 47.6798 138.678 49.8871 138.788C52.0944 138.888 52.8074 138.919 58.4331 138.919C64.0588 138.919 64.7718 138.899 66.9791 138.788C69.1864 138.688 70.6905 138.328 72.009 137.797C73.3764 137.256 74.5289 136.524 75.6813 135.342C76.8338 134.16 77.5468 132.978 78.0742 131.575C78.582 130.223 78.9336 128.68 79.0411 126.416C79.1387 124.152 79.168 123.42 79.168 117.65C79.168 111.879 79.1485 111.148 79.0411 108.884C78.9434 106.619 78.5918 105.076 78.0742 103.724C77.5468 102.321 76.8338 101.139 75.6813 99.9569C74.5289 98.7748 73.3764 98.0432 72.009 97.5022C70.6905 96.9813 69.1864 96.6209 66.9791 96.5106C64.7718 96.4105 64.0588 96.38 58.4331 96.38Z" fill="var(--fill-0, black)"/>
<path id="Vector_5" d="M60.7991 115.657L70.0581 104.616H67.8605L59.8225 114.204L53.3958 104.616H45.9926L55.7008 119.113L45.9926 130.694H48.1901L56.6774 120.566L63.4557 130.694H70.8589L60.7894 115.657H60.7991ZM57.7909 119.243L56.8044 117.801L48.9714 106.309H52.341L58.6601 115.577L59.6466 117.019L67.8605 129.072H64.4909L57.7909 119.233V119.243Z" fill="var(--fill-0, white)"/>
</g>
</g>
</g>
</svg>
