<svg preserveAspectRatio="none" width="100%" height="100%" overflow="visible" style="display: block;" viewBox="0 0 45.2204 46.3858" fill="none" xmlns="http://www.w3.org/2000/svg">
<path id="Vector" d="M22.6102 0C16.4669 0 15.6953 0.0301924 13.2926 0.140396C10.89 0.250599 9.23941 0.641397 7.80368 1.22247C6.31913 1.81356 5.05923 2.60494 3.79931 3.89732C2.53939 5.18971 1.76783 6.48219 1.19158 8.00499C0.634875 9.47771 0.253952 11.1709 0.13675 13.6355C0.0293148 16.1101 0 16.9016 0 23.1932C0 29.4848 0.0293148 30.2858 0.13675 32.7503C0.244185 35.2149 0.625108 36.9081 1.19158 38.3808C1.76783 39.9036 2.53939 41.1961 3.79931 42.4885C5.05923 43.7809 6.31913 44.5723 7.80368 45.1633C9.23941 45.7344 10.89 46.1252 13.2926 46.2454C15.705 46.3556 16.4767 46.3858 22.6102 46.3858C28.7438 46.3858 29.5251 46.3556 31.9278 46.2454C34.3304 46.1352 35.981 45.7444 37.4167 45.1633C38.9013 44.5723 40.1612 43.7809 41.4211 42.4885C42.6811 41.1961 43.4526 39.9036 44.0289 38.3808C44.5856 36.9081 44.9665 35.2149 45.0837 32.7503C45.1911 30.2758 45.2204 29.4848 45.2204 23.1932C45.2204 16.9016 45.1911 16.1 45.0837 13.6355C44.9763 11.1709 44.5953 9.47771 44.0289 8.00499C43.4526 6.48219 42.6811 5.18971 41.4211 3.89732C40.1612 2.60494 38.9013 1.81356 37.4167 1.22247C35.981 0.651416 34.3304 0.260617 31.9278 0.140396C29.5154 0.0301924 28.7438 0 22.6102 0Z" fill="var(--fill-0, white)"/>
</svg>
