<svg preserveAspectRatio="none" width="100%" height="100%" overflow="visible" style="display: block;" viewBox="0 0 145.527 23.4529" fill="none" xmlns="http://www.w3.org/2000/svg">
<g id="Group">
<path id="Vector" d="M5.71357 20.6581C5.71357 22.6318 4.63923 23.4132 2.7933 23.4132C0.947368 23.4132 0 22.5516 0 20.6581V4.10759C0 2.02375 1.36734 0.571289 3.39884 0.571289H13.4001C15.0311 0.571289 16.0078 1.43294 16.0078 3.13608C16.0078 4.83922 15.0897 5.75076 13.4001 5.75076H7.0028C5.92845 5.75076 5.71357 6.02136 5.71357 7.10335V8.91675C4.16064 9.2674 3.42817 10.3993 3.42817 11.9922C3.42817 13.5852 4.16064 14.7173 5.71357 15.0379V20.6581ZM6.58283 14.4768C4.92247 14.4768 4.0532 13.6655 4.0532 11.9424C4.0532 10.2192 5.02991 9.48763 6.58283 9.48763H12.1402C13.7712 9.48763 14.6893 10.349 14.6893 12.0221C14.6893 13.6952 13.7126 14.4267 12.1402 14.4768H6.58283Z" fill="var(--fill-0, #236242)"/>
<path id="Vector_2" d="M27.3749 15.6889C26.8475 16.0095 26.1931 16.1699 25.6071 16.3102C24.3179 16.6308 23.4779 16.8513 23.4779 17.9534C23.4779 18.6847 23.9761 19.1152 24.6598 19.1152C25.4216 19.1152 25.9978 18.7645 26.6326 18.3638C26.9452 18.1734 27.3163 18.0434 27.707 18.0434C28.84 18.0434 29.5724 19.0952 29.5724 20.1772C29.5724 22.5215 25.4118 23.4131 23.6537 23.4131C20.2061 23.4131 17.8914 21.4695 17.8914 17.8228C17.8914 15.9293 18.7606 14.1763 20.4991 13.3448C22.052 12.6134 23.8198 12.4229 25.4997 12.1825C26.2908 12.1023 27.3163 11.9722 27.3163 11.2609C27.3163 10.3993 26.3689 10.2091 25.7341 10.2091C24.4449 10.2091 23.81 10.6696 23.3608 11.8518C22.179 12.0722 20.9679 12.3129 19.9131 12.904C18.7801 12.6335 18.3113 11.9322 18.3113 10.8803C18.3113 9.74818 18.9169 8.61578 19.6494 7.80428C21.2316 6.1312 23.5756 5.64062 25.7829 5.64062C29.338 5.64062 32.8346 7.04309 32.8346 11.2809V19.596C32.8346 19.9767 32.8834 20.3478 32.9616 20.7285C32.9909 20.9689 33.0396 21.2394 33.0396 21.4799C33.0396 23.0227 31.3793 23.3931 30.1683 23.3931C29.4846 23.3931 28.7227 23.3129 28.1953 22.852C29.2502 22.281 30.1975 21.4194 30.1975 20.097C30.1975 18.7745 29.2502 17.3722 27.8242 17.3722C27.6679 17.3722 27.5117 17.4021 27.3456 17.4221V15.6689L27.3749 15.6889Z" fill="var(--fill-0, #236242)"/>
<path id="Vector_3" d="M44.0382 18.5242C45.2004 18.5242 45.7474 18.0932 46.1674 17.0112C46.4311 16.3099 46.5874 15.7392 47.3003 15.3886C47.7691 15.1481 48.2965 15.0677 48.8044 15.0677C50.2499 15.0677 51.461 15.769 51.461 17.3619C51.461 18.9549 50.6699 20.4177 49.5662 21.4696C48.0622 22.8722 46.0697 23.4131 44.0675 23.4131C37.6702 23.4131 35.9122 18.3136 35.9122 14.5266C35.9122 9.42724 38.7836 5.64062 43.9698 5.64062C45.7571 5.64062 47.5738 6.1512 48.9998 7.26325C50.3183 8.26509 51.4708 9.90824 51.4708 11.6414C51.4708 13.3746 50.1034 13.9059 48.6774 13.9059C48.1012 13.9059 47.5445 13.8253 47.0464 13.5047C46.5483 13.1541 46.392 12.6432 46.1771 12.1022C45.806 11.0804 45.1809 10.5393 44.0968 10.5393C41.9383 10.5393 41.5672 12.7837 41.5672 14.5369C41.5672 16.2901 41.909 18.534 44.0382 18.534V18.5242Z" fill="var(--fill-0, #236242)"/>
<path id="Vector_4" d="M66.5883 15.278C65.5921 15.278 64.586 15.5987 63.9317 16.3802H59.1948C59.4292 18.1334 60.2984 18.7048 61.9295 18.7048C63.2968 18.7048 63.6973 18.304 64.3028 17.1418C64.7521 16.3003 65.6409 15.9296 66.5687 15.9296C67.8579 15.9296 69.362 16.7412 69.362 18.2239C69.362 19.1456 68.8932 20.0069 68.3658 20.6781C66.8422 22.5916 64.42 23.4034 62.076 23.4034C56.7042 23.4034 53.5788 19.9168 53.5788 14.4968C53.5788 9.44749 56.4698 5.64062 61.6072 5.64062C64.2149 5.64062 66.5589 6.64243 68.0826 8.85652C68.9811 10.179 69.6062 11.8218 69.6062 13.4749C69.6062 14.4467 69.2644 15.228 68.5026 15.799C67.897 15.4784 67.2915 15.2883 66.6078 15.2883L66.5883 15.278ZM63.4824 12.0925C63.6387 12.0925 63.9024 12.1226 63.9024 11.9022C63.9024 10.7901 62.662 10.0888 61.6365 10.0888C60.3961 10.0888 59.5268 10.87 59.2436 12.0822H63.4824V12.0925Z" fill="var(--fill-0, #236242)"/>
<path id="Vector_5" d="M77.8034 16.4703C76.3286 16.4703 75.1175 17.7424 75.1175 19.2552C75.1175 20.768 76.2797 22.0103 77.4322 22.8218C76.7974 23.2226 76.0942 23.4128 75.3519 23.4128C73.6134 23.4128 72.666 22.5811 72.666 20.7678V2.65478C72.666 0.711196 73.6915 0.00976562 75.4789 0.00976562C77.2662 0.00976562 78.1647 0.871491 78.1647 2.65478V6.76196C79.2684 6.03061 80.5576 5.66032 81.8761 5.66032C86.6619 5.66032 88.8008 10.1983 88.8008 14.5463C88.8008 18.8943 86.4568 23.4529 81.5343 23.4529C79.7665 23.4529 78.1159 22.7817 76.8267 21.5094C76.2211 20.9183 75.7524 20.1566 75.7524 19.2449C75.7524 18.1129 76.6704 17.1414 77.8034 17.1414C78.3308 17.1414 78.7507 17.3617 79.1414 17.7324C79.5907 18.1632 80.1181 18.5738 80.7725 18.5738C82.7161 18.5738 83.1165 16.1195 83.1165 14.5767C83.1165 12.8535 82.7259 10.5492 80.5674 10.5492C78.7215 10.5492 78.1745 12.1722 78.1745 13.7852V16.5099C78.0475 16.4799 77.9401 16.4801 77.8034 16.4801V16.4703Z" fill="var(--fill-0, #236242)"/>
<path id="Vector_6" d="M103.779 13.5551C105.459 13.5551 106.836 12.5531 107.198 10.8299C107.647 11.992 107.852 13.2046 107.852 14.4469C107.852 16.7912 107.168 19.0853 105.615 20.8185C103.936 22.6819 101.797 23.4131 99.3549 23.4131C96.9131 23.4131 94.8035 22.6819 93.1138 20.8185C91.5609 19.0953 90.8773 16.8209 90.8773 14.5266C90.8773 12.2324 91.5609 9.96845 93.1138 8.23525C94.7937 6.37182 96.9327 5.64062 99.3549 5.64062C101.933 5.64062 104.434 6.53209 105.987 8.71612C106.358 9.22706 106.621 9.79833 106.621 10.4395C106.621 12.0024 105.039 12.8937 103.701 12.8937C102.832 12.8937 102.177 12.513 101.621 11.8718C100.986 11.0904 100.41 10.5192 99.3549 10.5192C97.3234 10.5192 96.5616 12.7636 96.5616 14.5169C96.5616 16.2701 97.3234 18.514 99.3549 18.514C101.386 18.514 102.168 16.4103 102.168 14.7071C102.168 14.1161 102.09 13.5448 101.982 13.0038C102.51 13.3845 103.115 13.5448 103.769 13.5448L103.779 13.5551Z" fill="var(--fill-0, #236242)"/>
<path id="Vector_7" d="M122.866 13.5551C124.546 13.5551 125.923 12.5531 126.285 10.8299C126.734 11.992 126.939 13.2046 126.939 14.4469C126.939 16.7912 126.255 19.0853 124.703 20.8185C123.023 22.6819 120.884 23.4131 118.442 23.4131C116 23.4131 113.891 22.6819 112.201 20.8185C110.648 19.0953 109.964 16.8209 109.964 14.5266C109.964 12.2324 110.648 9.96845 112.201 8.23525C113.881 6.37182 116.02 5.64062 118.442 5.64062C121.02 5.64062 123.521 6.53209 125.074 8.71612C125.445 9.22706 125.709 9.79833 125.709 10.4395C125.709 12.0024 124.126 12.8937 122.788 12.8937C121.919 12.8937 121.265 12.513 120.708 11.8718C120.073 11.0904 119.497 10.5192 118.442 10.5192C116.411 10.5192 115.649 12.7636 115.649 14.5169C115.649 16.2701 116.411 18.514 118.442 18.514C120.474 18.514 121.255 16.4103 121.255 14.7071C121.255 14.1161 121.177 13.5448 121.069 13.0038C121.597 13.3845 122.202 13.5448 122.857 13.5448L122.866 13.5551Z" fill="var(--fill-0, #236242)"/>
<path id="Vector_8" d="M140.057 12.7736C138.212 12.7736 136.317 14.3665 136.317 16.3402C136.317 16.8812 136.502 17.3621 136.766 17.8229L135.506 19.0351V20.7585C135.506 22.8624 134.266 23.4035 132.742 23.4035C131.004 23.4035 130.007 22.672 130.007 20.7585V2.64501C130.007 0.70143 131.033 0 132.82 0C134.608 0 135.506 0.861726 135.506 2.64501V11.2811L140.458 6.61229C140.985 6.12138 141.532 5.64077 142.304 5.64077C143.828 5.64077 145.302 7.12354 145.302 8.68643C145.302 9.38772 144.931 10.0585 144.433 10.5194L141.562 13.2446C141.142 12.894 140.614 12.7638 140.057 12.7638V12.7736ZM137.665 18.0636C137.323 17.5526 136.952 16.9814 136.952 16.3402C136.952 14.7172 138.583 13.4251 140.087 13.4251C140.849 13.4251 141.532 13.9357 141.952 14.5268L145.029 19.1153C145.322 19.5161 145.527 20.0871 145.527 20.598C145.527 22.1609 143.867 23.4035 142.45 23.4035C141.396 23.4035 140.868 22.812 140.321 22.0005L137.665 18.0636Z" fill="var(--fill-0, #236242)"/>
</g>
</svg>
