<svg preserveAspectRatio="none" width="100%" height="100%" overflow="visible" style="display: block;" viewBox="0 0 45.2204 46.3858" fill="none" xmlns="http://www.w3.org/2000/svg">
<g id="clippath-1">
<path id="Vector" d="M22.6102 4.17762C28.6461 4.17762 29.3591 4.19803 31.7422 4.30824C33.9495 4.40842 35.141 4.78893 35.9419 5.10952C36.9967 5.53029 37.7488 6.0312 38.5399 6.84269C39.331 7.65419 39.8194 8.42577 40.2296 9.50776C40.5421 10.3293 40.9035 11.5513 41.0109 13.8155C41.1183 16.26 41.1379 16.9915 41.1379 23.1829C41.1379 29.3743 41.1183 30.1057 41.0109 32.5502C40.9132 34.8144 40.5421 36.0365 40.2296 36.858C39.8194 37.94 39.331 38.7116 38.5399 39.5231C37.7488 40.3346 36.9967 40.8355 35.9419 41.2562C35.141 41.5768 33.9495 41.9473 31.7422 42.0575C29.3591 42.1677 28.6461 42.1881 22.6102 42.1881C16.5743 42.1881 15.8613 42.1677 13.4782 42.0575C11.2709 41.9573 10.0794 41.5768 9.27849 41.2562C8.22367 40.8355 7.47165 40.3346 6.68054 39.5231C5.88942 38.7116 5.40104 37.94 4.99083 36.858C4.6783 36.0365 4.31693 34.8144 4.2095 32.5502C4.10206 30.1057 4.08253 29.3743 4.08253 23.1829C4.08253 16.9915 4.10206 16.26 4.2095 13.8155C4.30717 11.5513 4.6783 10.3293 4.99083 9.50776C5.40104 8.42577 5.88942 7.65419 6.68054 6.84269C7.47165 6.0312 8.22367 5.53029 9.27849 5.10952C10.0794 4.78893 11.2709 4.41844 13.4782 4.30824C15.8613 4.19803 16.5743 4.17762 22.6102 4.17762ZM22.6102 0C16.4669 0 15.6953 0.0301924 13.2926 0.140396C10.89 0.250599 9.23941 0.641397 7.80368 1.22247C6.31913 1.81356 5.05923 2.60494 3.79931 3.89732C2.53939 5.18971 1.76783 6.48219 1.19158 8.00499C0.634875 9.47771 0.253952 11.1709 0.13675 13.6355C0.0293148 16.1101 0 16.9016 0 23.1932C0 29.4848 0.0293148 30.2858 0.13675 32.7503C0.244185 35.2149 0.625108 36.9081 1.19158 38.3808C1.76783 39.9036 2.53939 41.1961 3.79931 42.4885C5.05923 43.7809 6.31913 44.5723 7.80368 45.1633C9.23941 45.7344 10.89 46.1252 13.2926 46.2454C15.705 46.3556 16.4767 46.3858 22.6102 46.3858C28.7438 46.3858 29.5251 46.3556 31.9278 46.2454C34.3304 46.1352 35.981 45.7444 37.4167 45.1633C38.9013 44.5723 40.1612 43.7809 41.4211 42.4885C42.6811 41.1961 43.4526 39.9036 44.0289 38.3808C44.5856 36.9081 44.9665 35.2149 45.0837 32.7503C45.1911 30.2758 45.2204 29.4848 45.2204 23.1932C45.2204 16.9016 45.1911 16.1 45.0837 13.6355C44.9763 11.1709 44.5953 9.47771 44.0289 8.00499C43.4526 6.48219 42.6811 5.18971 41.4211 3.89732C40.1612 2.60494 38.9013 1.81356 37.4167 1.22247C35.981 0.651416 34.3304 0.260617 31.9278 0.140396C29.5154 0.0301924 28.7438 0 22.6102 0ZM22.6102 11.2811C16.1934 11.2811 10.9975 16.611 10.9975 23.1932C10.9975 29.7753 16.1934 35.1048 22.6102 35.1048C29.027 35.1048 34.223 29.7753 34.223 23.1932C34.223 16.611 29.027 11.2811 22.6102 11.2811ZM22.6102 30.9271C18.4496 30.9271 15.0702 27.471 15.0702 23.1932C15.0702 18.9153 18.4496 15.4587 22.6102 15.4587C26.7709 15.4587 30.1502 18.9153 30.1502 23.1932C30.1502 27.471 26.7709 30.9271 22.6102 30.9271ZM34.6722 8.03483C33.1779 8.03483 31.9571 9.2774 31.9571 10.8202C31.9571 12.3631 33.1681 13.6052 34.6722 13.6052C36.1763 13.6052 37.3874 12.3631 37.3874 10.8202C37.3874 9.2774 36.1763 8.03483 34.6722 8.03483Z" fill="var(--fill-0, black)"/>
</g>
</svg>
