<svg preserveAspectRatio="none" width="100%" height="100%" overflow="visible" style="display: block;" viewBox="0 0 116.862 119.841" fill="none" xmlns="http://www.w3.org/2000/svg">
<g id="Group">
<path id="Vector" d="M58.4312 119.21C90.3533 119.21 116.231 92.6652 116.231 59.9207C116.231 27.1761 90.3533 0.631164 58.4312 0.631164C26.5091 0.631164 0.631164 27.1761 0.631164 59.9207C0.631164 92.6652 26.5091 119.21 58.4312 119.21Z" fill="var(--fill-0, white)" stroke="var(--stroke-0, #236242)" stroke-width="1.26233" stroke-linecap="round" stroke-linejoin="round"/>
<path id="Vector_2" d="M58.429 90.2062C74.7353 90.2062 87.9542 76.6468 87.9542 59.9204C87.9542 43.194 74.7353 29.6341 58.429 29.6341C42.1227 29.6341 28.9039 43.194 28.9039 59.9204C28.9039 76.6468 42.1227 90.2062 58.429 90.2062Z" fill="var(--fill-0, black)"/>
<g id="Group_2">
<path id="Vector_3" d="M58.4342 38.2425C52.6913 38.2425 51.9784 38.2724 49.7223 38.3726C47.4759 38.4728 45.9327 38.8437 44.5947 39.3847C43.2078 39.9358 42.0259 40.6771 40.8539 41.8894C39.6819 43.0916 38.9591 44.3034 38.4122 45.726C37.8848 47.1086 37.5332 48.6815 37.4257 50.9857C37.3281 53.3 37.2989 54.0418 37.2989 59.9226C37.2989 65.8034 37.3281 66.5548 37.4257 68.859C37.5234 71.1632 37.8848 72.7462 38.4122 74.1187C38.9494 75.5413 39.6721 76.7536 40.8539 77.9558C42.0259 79.1581 43.2078 79.8994 44.5947 80.4605C45.9425 81.0015 47.4759 81.3619 49.7223 81.4721C51.9784 81.5723 52.7011 81.6022 58.4342 81.6022C64.1673 81.6022 64.8999 81.5723 67.1462 81.4721C69.3926 81.3719 70.9358 81.0015 72.2738 80.4605C73.6607 79.9095 74.8425 79.1681 76.0145 77.9558C77.1865 76.7536 77.9092 75.5413 78.4562 74.1187C78.9836 72.7361 79.3352 71.1632 79.4426 68.859C79.5403 66.5447 79.5696 65.8034 79.5696 59.9226C79.5696 54.0418 79.5403 53.3 79.4426 50.9857C79.345 48.6815 78.9836 47.0985 78.4562 45.726C77.919 44.3034 77.1963 43.0916 76.0145 41.8894C74.8425 40.6871 73.6607 39.9458 72.2738 39.3847C70.926 38.8437 69.3926 38.4828 67.1462 38.3726C64.8901 38.2724 64.1673 38.2425 58.4342 38.2425Z" fill="var(--fill-0, black)"/>
<g id="Group_3">
<path id="Vector_4" d="M70.9958 53.1994C67.47 53.1994 64.6082 50.2644 64.6082 46.6478H59.8225V65.6628C59.8225 67.8769 58.0742 69.6702 55.9157 69.6702C53.7573 69.6702 52.009 67.8769 52.009 65.6628C52.009 63.4487 53.7573 61.6554 55.9157 61.6554C56.3162 61.6554 56.7752 61.7152 57.1464 61.8354V56.8262C56.7459 56.7661 56.3357 56.7362 55.9157 56.7362C51.1105 56.7362 47.2232 60.7335 47.2232 65.6525C47.2232 70.5716 51.1202 74.5689 55.9157 74.5689C60.7113 74.5689 64.6082 70.5716 64.6082 65.6525V55.5842C66.3467 57.0368 68.5736 57.9185 70.9958 57.9185V53.1896V53.1994Z" fill="var(--fill-0, #E73656)"/>
<path id="Vector_5" d="M69.6363 51.8073C66.1105 51.8073 63.2487 48.8719 63.2487 45.2552H58.463V64.2702C58.463 66.4843 56.7147 68.2776 54.5562 68.2776C52.3978 68.2776 50.6495 66.4843 50.6495 64.2702C50.6495 62.0561 52.3978 60.2628 54.5562 60.2628C54.9567 60.2628 55.4157 60.3226 55.7869 60.4429V55.4336C55.3864 55.3735 54.9762 55.3436 54.5562 55.3436C49.751 55.3436 45.8637 59.3409 45.8637 64.26C45.8637 69.179 49.7607 73.1768 54.5562 73.1768C59.3518 73.1768 63.2487 69.179 63.2487 64.26V54.1916C64.9872 55.6443 67.2141 56.526 69.6363 56.526V51.797V51.8073Z" fill="var(--fill-0, #00AEBB)"/>
<path id="Vector_6" d="M69.636 53.0492C68.0929 52.7086 66.7548 51.7871 65.8465 50.5348C64.6159 49.6031 63.7271 48.2307 63.395 46.6478H59.8203V65.6628C59.8203 67.8769 58.0721 69.6702 55.9136 69.6702C54.4876 69.6702 53.2374 68.8886 52.5635 67.7164C51.4208 67.0151 50.659 65.7426 50.659 64.2799C50.659 62.0658 52.4073 60.2725 54.5658 60.2725C54.9662 60.2725 55.4253 60.3328 55.7964 60.453V56.7562C51.0497 56.8264 47.2309 60.7936 47.2309 65.6726C47.2309 67.7765 47.9439 69.7201 49.1355 71.2429C50.62 72.4652 52.5147 73.1967 54.5658 73.1967C59.371 73.1967 63.2583 69.199 63.2583 64.2799V54.2115C64.9968 55.6642 67.2236 56.5459 69.6458 56.5459V53.0595L69.636 53.0492Z" fill="var(--fill-0, white)"/>
</g>
</g>
</g>
</svg>
