<svg preserveAspectRatio="none" width="100%" height="100%" overflow="visible" style="display: block;" viewBox="0 0 101.351 23.4434" fill="none" xmlns="http://www.w3.org/2000/svg">
<g id="Group">
<path id="Vector" d="M9.02454 3.43687C7.47161 3.43687 6.02617 4.08791 5.65503 5.78103H2.57846C0.918096 5.78103 0 4.88953 0 3.16635C0 1.44317 0.947397 0.601562 2.57846 0.601562H15.4999C17.131 0.601562 18.0784 1.46321 18.0784 3.16635C18.0784 4.86949 17.1603 5.78103 15.4999 5.78103H12.4234C12.0327 4.07789 10.6361 3.43687 9.02454 3.43687ZM6.18236 6.83278C6.18236 4.91925 7.28607 4.0777 9.05387 4.0777C10.8217 4.0777 11.896 4.96934 11.896 6.83278V20.6786C11.896 22.5921 10.8412 23.4337 9.05387 23.4337C8.29205 23.4337 7.50098 23.2735 6.89544 22.7625C6.31919 22.2516 6.21166 21.44 6.18236 20.6786V6.83278Z" fill="var(--fill-0, #236242)"/>
<path id="Vector_2" d="M26.5767 3.0256C26.5767 4.64859 25.2582 6.02087 23.6564 6.02087C22.0547 6.02087 20.7361 4.63857 20.7361 3.0256C20.7361 1.41262 22.0547 0 23.6564 0C25.2582 0 26.5767 1.37255 26.5767 3.0256ZM26.4205 8.31514V20.7883C26.4205 22.7319 25.4731 23.4333 23.6857 23.4333C21.8984 23.4333 20.9218 22.762 20.9218 20.7883V8.31514C20.9218 7.50364 21.1367 6.64236 21.791 6.13142C22.3673 6.48207 23.002 6.67246 23.6564 6.67246C24.3108 6.67246 24.975 6.48207 25.5512 6.13142C26.2056 6.64236 26.4205 7.50364 26.4205 8.31514Z" fill="var(--fill-0, #236242)"/>
<path id="Vector_3" d="M40.5812 12.8038C38.7352 12.8038 36.8404 14.3968 36.8404 16.3705C36.8404 16.9115 37.0261 17.3923 37.2898 17.8532L36.0298 19.0654V20.7888C36.0298 22.8926 34.7895 23.4338 33.2658 23.4338C31.5273 23.4338 30.5311 22.7023 30.5311 20.7888V2.67529C30.5311 0.731703 31.5566 0.0302734 33.3439 0.0302734C35.1313 0.0302734 36.0298 0.891999 36.0298 2.67529V11.3113L40.9815 6.64256C41.5089 6.15166 42.0559 5.67104 42.8275 5.67104C44.3511 5.67104 45.826 7.15382 45.826 8.7167C45.826 9.41799 45.4548 10.0888 44.9567 10.5497L42.0852 13.2749C41.6652 12.9243 41.1379 12.794 40.5812 12.794V12.8038ZM38.1882 18.0939C37.8464 17.5829 37.4753 17.0116 37.4753 16.3705C37.4753 14.7475 39.1063 13.4554 40.6104 13.4554C41.3722 13.4554 42.0559 13.966 42.4759 14.5571L45.5525 19.1456C45.8455 19.5463 46.0506 20.1174 46.0506 20.6283C46.0506 22.1912 44.3902 23.4338 42.974 23.4338C41.9192 23.4338 41.3918 22.8423 40.8449 22.0308L38.1882 18.0939Z" fill="var(--fill-0, #236242)"/>
<path id="Vector_4" d="M56.5596 3.43687C55.0067 3.43687 53.5611 4.08791 53.19 5.78103H50.1135C48.4532 5.78103 47.5351 4.88953 47.5351 3.16635C47.5351 1.44317 48.4825 0.601562 50.1135 0.601562H63.035C64.6661 0.601562 65.6135 1.46321 65.6135 3.16635C65.6135 4.86949 64.6954 5.78103 63.035 5.78103H59.9585C59.5678 4.07789 58.1712 3.43687 56.5596 3.43687ZM53.7175 6.83278C53.7175 4.91925 54.8212 4.0777 56.589 4.0777C58.3568 4.0777 59.431 4.96934 59.431 6.83278V20.6786C59.431 22.5921 58.3763 23.4337 56.589 23.4337C55.8271 23.4337 55.036 23.2735 54.4304 22.7625C53.8542 22.2516 53.7468 21.44 53.7175 20.6786V6.83278Z" fill="var(--fill-0, #236242)"/>
<path id="Vector_5" d="M78.6941 13.5854C80.374 13.5854 81.7511 12.5833 82.1125 10.8602C82.5618 12.0223 82.7668 13.2349 82.7668 14.4772C82.7668 16.8215 82.0831 19.1156 80.5301 20.8488C78.8503 22.7122 76.7114 23.4434 74.2697 23.4434C71.828 23.4434 69.7183 22.7122 68.0287 20.8488C66.4758 19.1256 65.792 16.8511 65.792 14.5569C65.792 12.2627 66.4758 9.99872 68.0287 8.26553C69.7086 6.40209 71.8475 5.6709 74.2697 5.6709C76.8481 5.6709 79.3484 6.56237 80.9013 8.74639C81.2724 9.25734 81.5362 9.8286 81.5362 10.4698C81.5362 12.0327 79.9539 12.924 78.6159 12.924C77.7466 12.924 77.0923 12.5433 76.5356 11.9021C75.9007 11.1207 75.3245 10.5495 74.2697 10.5495C72.2382 10.5495 71.4764 12.7939 71.4764 14.5471C71.4764 16.3004 72.2382 18.5442 74.2697 18.5442C76.3012 18.5442 77.0826 16.4406 77.0826 14.7374C77.0826 14.1463 77.0044 13.5751 76.8969 13.0341C77.4243 13.4148 78.0299 13.5751 78.6843 13.5751L78.6941 13.5854Z" fill="var(--fill-0, #236242)"/>
<path id="Vector_6" d="M95.8814 12.8038C94.0354 12.8038 92.1406 14.3968 92.1406 16.3705C92.1406 16.9115 92.3262 17.3923 92.59 17.8532L91.33 19.0654V20.7888C91.33 22.8926 90.0896 23.4338 88.566 23.4338C86.8275 23.4338 85.8313 22.7023 85.8313 20.7888V2.67529C85.8313 0.731703 86.8568 0.0302734 88.6441 0.0302734C90.4314 0.0302734 91.33 0.891999 91.33 2.67529V11.3113L96.2817 6.64256C96.8091 6.15166 97.3561 5.67104 98.1277 5.67104C99.6513 5.67104 101.126 7.15382 101.126 8.7167C101.126 9.41799 100.755 10.0888 100.257 10.5497L97.3854 13.2749C96.9654 12.9243 96.4381 12.794 95.8814 12.794V12.8038ZM93.4884 18.0939C93.1466 17.5829 92.7755 17.0116 92.7755 16.3705C92.7755 14.7475 94.4065 13.4554 95.9106 13.4554C96.6724 13.4554 97.3561 13.966 97.7761 14.5571L100.853 19.1456C101.146 19.5463 101.351 20.1174 101.351 20.6283C101.351 22.1912 99.6904 23.4338 98.2742 23.4338C97.2194 23.4338 96.692 22.8423 96.1451 22.0308L93.4884 18.0939Z" fill="var(--fill-0, #236242)"/>
</g>
</svg>
