<svg preserveAspectRatio="none" width="100%" height="100%" overflow="visible" style="display: block;" viewBox="0 0 384.411 37.7191" fill="none" xmlns="http://www.w3.org/2000/svg">
<g id="Group">
<path id="Vector" d="M3.91954 12.6179C1.91734 12.6179 0.315582 11.7864 0.315582 9.3519C0.315582 6.72706 1.31179 5.50472 3.90977 5.50472H14.5654V4.19224C14.5654 2.62936 14.8975 0.64566 17.935 0.64566C20.826 0.64566 21.871 1.58743 21.871 4.18221V5.47463L32.4875 5.4646C34.5288 5.4646 36.1306 6.29618 36.1306 8.77075C36.1306 11.2052 35.2808 12.5776 32.4973 12.5876H29.8602C28.864 17.2362 26.9399 22.2255 23.756 25.9624C26.0219 27.2147 27.5064 27.7058 32.927 29.4189C34.2651 29.8397 35.7497 30.4407 35.7497 32.8452C35.7497 35.0592 34.3432 36.9626 32.1164 36.9626C30.1825 36.9626 23.2774 34.4983 18.2572 30.9618C13.325 34.4382 6.83009 36.9929 4.37861 36.9929C2.29828 36.9929 0.852795 35.1294 0.843029 32.8853C0.843029 30.6812 1.98572 29.9898 3.62655 29.4889C8.86157 27.8458 9.82848 27.5354 12.1627 26.3131C12.4558 26.1628 12.573 26.0828 12.7976 25.9726C9.63316 22.1656 7.66025 17.4869 6.6152 12.6179H3.90977H3.91954ZM14.0575 12.6077C14.5068 14.431 15.6593 18.6188 18.267 21.6644C19.1558 20.6325 20.865 18.5789 22.4179 12.5979H14.0673L14.0575 12.6077Z" stroke="var(--stroke-0, #386F6B)" stroke-width="0.631164"/>
<path id="Vector_2" d="M55.0414 5.73529C54.9633 5.58501 54.7777 5.0139 54.6312 4.67327C54.5238 4.33264 54.3382 3.8418 54.3285 3.23067C54.3285 1.43736 56.399 0.565835 58.3328 0.555816C59.9639 0.555816 60.6769 1.04671 61.4582 2.79994C61.7219 3.41107 62.2786 4.59318 62.4251 5.73529H64.5739C64.7985 5.31451 64.984 4.89369 65.57 3.18053C66.0877 1.61765 66.6053 0.746099 68.5782 0.73608C70.8832 0.73608 72.778 1.94838 72.778 3.81182C72.778 4.46302 72.3678 5.22437 72.0748 5.75534C74.1551 6.17612 75.0048 8.14966 75.0146 10.6643V13.0285C75.0146 15.0422 74.3504 16.7956 70.9418 16.4249C70.7953 18.4086 69.8284 19.0198 68.9787 19.5508C67.1621 20.7731 65.824 21.4242 65.1208 21.7247H72.8073C73.5496 21.7147 76.1866 21.7149 76.1866 24.9108C76.1866 27.8762 74.077 28.1465 72.8073 28.1565H61.8586V32.1742C61.8586 36.8227 59.9346 37.3935 55.0707 37.4035C50.7245 37.4035 50.2459 37.2937 49.6501 36.9931C48.6441 36.5423 48.0874 35.1297 48.0874 33.7973C48.0874 31.6233 49.3474 30.5608 51.3105 30.5608C51.6816 30.5608 53.2443 30.631 53.5764 30.601C54.387 30.5208 54.3871 30.1004 54.3871 29.1887V28.1966L43.5068 28.2069C42.7645 28.2069 40.1275 28.2066 40.1275 25.1309C40.1275 22.6964 41.3093 21.7751 43.5068 21.7751H54.4163C54.4945 21.3042 54.7484 20.7328 55.7837 20.3521C56.3014 20.1617 56.9362 19.9314 56.9362 19.6609C56.9362 19.5106 56.8288 19.3605 56.6432 19.3605H48.1069C47.2572 19.3705 45.4309 19.3704 45.2844 16.4851C42.3934 16.8357 41.1237 15.5736 41.1237 13.1792V10.7445C41.1237 9.30186 41.192 6.4365 44.4542 5.90552C44.2295 5.44467 43.751 4.57312 43.7412 3.70151C43.7412 2.32898 45.3723 0.88625 47.7065 0.876231C48.8199 0.876231 49.8943 0.986611 51.0175 3.3109C51.3105 3.9621 51.7598 5.10417 51.916 5.78543H55.0316L55.0414 5.73529ZM48.0288 13.1689L67.0351 13.1489C67.6308 13.1489 67.6992 13.1489 68.1485 13.189V12.1974C68.1485 11.967 67.9239 11.8965 67.8164 11.8965L48.3218 11.9269C48.2144 11.9269 48.0288 12.0068 48.0288 12.2272V13.1792V13.1689Z" stroke="var(--stroke-0, #386F6B)" stroke-width="0.631164"/>
<path id="Vector_3" d="M100.082 19.01C99.5251 19.9217 98.9 20.1523 97.6694 20.1523L82.8239 20.1723C81.1928 20.1723 79.9622 19.6411 79.9622 16.8659C79.9622 13.8604 81.9253 13.8606 83.1852 13.8506C83.068 13.0491 82.7359 10.9953 82.6187 10.5044C80.9877 10.0836 80.6165 8.41041 80.6068 7.41859C80.6068 4.64347 82.5699 4.25284 83.7614 4.25284H86.7306V3.18079C86.7306 0.89658 88.469 0.556069 90.2857 0.546051C91.7702 0.546051 93.333 1.0769 93.333 3.17076V4.23278H96.5658C98.568 4.23278 99.6911 5.29468 99.6911 7.42861C99.6911 8.80114 99.027 10.0935 97.7671 10.4442C97.4741 11.8568 97.3276 12.4981 96.9564 13.8306H97.6597C98.8122 13.8306 99.4372 14.021 100.072 14.9327V6.62733C100.053 2.70009 100.873 1.59804 104.955 1.59804H110.298C112.788 1.58802 115.494 1.58784 115.504 5.92584C115.504 7.78928 115.025 9.35228 114.693 10.304C114.136 11.9771 113.179 14.1913 112.691 15.1831C112.281 15.9846 112.251 16.0548 112.251 16.2452C112.251 16.4756 112.329 16.5153 112.886 17.1565C114.517 18.9799 116.158 22.4864 116.168 26.7543C116.168 33.647 111.792 33.6471 110.015 33.6571C107.563 33.6571 107.085 33.2462 106.782 32.9757V33.8171C106.782 36.482 105.639 37.284 103.188 37.284C100.326 37.284 100.101 35.1195 100.101 33.8171L100.082 19.0002V19.01ZM94.378 21.4144C98.314 21.4144 98.9098 22.7067 98.9098 26.0929V32.034C98.9196 35.8411 98.0698 36.7229 94.3975 36.7229H85.7441C82.2574 36.7429 81.2514 35.9012 81.2416 32.0541V26.113C81.2319 22.5664 82.0132 21.4246 85.7246 21.4246H94.378V21.4144ZM92.5614 27.696C92.5614 27.5056 92.4149 27.3555 92.2293 27.3555H87.9612C87.7366 27.3555 87.6291 27.5159 87.6291 27.7062V30.2607C87.6291 30.411 87.7072 30.6012 87.9709 30.6012H92.239C92.4637 30.6012 92.5711 30.4012 92.5711 30.251V27.696H92.5614ZM88.7132 10.6046C88.8597 11.6666 89.0844 13.4596 89.0844 13.8403H90.7936C90.9791 13.2693 91.2331 12.3879 91.3796 10.6046H88.7034H88.7132ZM106.762 14.5418C106.948 14.081 108.608 9.40228 108.608 8.71101C108.608 8.41045 108.384 8.22011 108.12 8.22011H107.192C106.899 8.22011 106.743 8.41042 106.743 8.68092V14.5418H106.762ZM106.782 27.2953C107.231 26.9547 107.602 26.8746 108.266 26.8345C108.784 26.7944 108.97 26.3037 108.97 24.9712C108.97 21.4647 107.661 19.7916 106.772 18.6896V27.2953H106.782Z" stroke="var(--stroke-0, #386F6B)" stroke-width="0.631164"/>
<path id="Vector_4" d="M129.349 15.9948C126.79 19.1607 125.676 19.8115 124.494 19.8115C122.268 19.8115 120.109 17.4973 120.109 15.2131C120.109 13.9608 120.402 13.6904 123.225 10.7951C126.301 7.58916 127.151 6.10652 128.968 2.87055C130.081 0.886895 130.491 0.465972 132.005 0.465972C133.968 0.465972 136.312 1.59804 136.312 3.70192C136.312 5.41508 133.578 10.7552 129.349 16.0149V15.9948ZM140.825 22.2261C140.825 20.012 143.198 18.5692 145.054 18.5591C146.431 18.5591 147.173 19.2405 147.73 19.8917C148.697 20.9536 151.002 24.5303 151.705 25.6724C154.723 30.5814 155.094 32.0642 155.094 33.2464C155.094 35.6408 152.496 36.9832 150.386 36.9832C148.345 36.9832 147.788 35.9214 146.851 33.8275C144.624 34.1682 127.845 35.7212 124.426 35.7212C123.498 35.7212 121.271 35.721 121.262 31.8439C121.262 28.5278 123.674 28.4176 125.676 28.3374C127.747 24.2198 128.343 22.6968 131.077 15.5737C132.259 12.528 132.591 11.6866 134.711 11.6866C136.195 11.6866 139.057 12.2477 139.057 14.7323C139.057 15.6039 138.647 16.7162 137.582 19.2308C135.355 24.3402 134.291 26.4341 133.402 28.0371C139.672 27.6864 141.528 27.566 143.423 27.3757C141.264 24.0696 140.815 23.4987 140.815 22.2363L140.825 22.2261ZM143.579 0.476001C145.249 0.476001 145.884 1.2375 146.773 2.83044C147.261 3.66197 149.566 7.62911 152.496 10.6647C155.66 14.0109 155.768 14.1314 155.768 15.4939C155.768 17.7381 153.697 19.9518 151.763 19.9518C150.504 19.9518 149.273 19.2705 146.597 15.8843C141.909 10.0235 139.643 5.11464 139.643 3.82226C139.643 1.11727 142.387 0.465972 143.569 0.465972L143.579 0.476001Z" stroke="var(--stroke-0, #386F6B)" stroke-width="0.631164"/>
<path id="Vector_5" d="M166.37 22.5365H163.665C161.731 22.5365 160.364 21.6651 160.354 19.2306C160.354 16.9063 161.164 15.5734 163.655 15.5734L176.088 15.5534C177.309 15.5534 178.608 15.8943 179.135 17.3771C178.989 15.0929 178.872 13.9107 178.794 12.8888L163.538 12.9089C161.35 12.9089 160.08 11.8469 160.08 9.60272C160.08 7.35859 160.93 5.98594 163.528 5.97592L178.53 5.95586C178.452 3.71173 178.491 2.87013 178.706 2.1488C179.223 0.54584 180.932 0.315582 182.007 0.315582C182.974 0.315582 184.605 0.575915 185.24 1.41747C185.757 2.09872 185.796 2.94037 185.796 4.27283V5.94584H187.437C187.359 5.60521 187.173 5.11424 187.105 4.88382C186.773 3.89199 186.617 3.66174 186.617 3.06063C186.617 1.07698 188.765 0.395554 190.328 0.385535C191.959 0.385535 192.487 1.2172 192.858 2.01867C193.121 2.54965 193.678 4.41311 193.678 5.29473C193.678 5.67543 193.6 5.90591 193.532 6.09626C195.387 6.51704 195.758 8.06976 195.758 9.21187C195.758 11.456 194.948 12.8688 192.35 12.8688H186.04C186.226 16.5355 186.421 19.9216 187.017 23.4982C187.388 25.7023 187.877 27.9865 189.098 27.9865C189.654 27.9865 190.104 27.7162 190.504 27.4557C191.764 26.544 192.057 26.3533 193.063 26.3433C194.811 26.3433 196.403 27.8262 196.413 30.5312C196.413 32.2844 195.485 34.1477 194.118 35.0694C192.301 36.2515 191.002 37.0931 189 37.0931C181.245 37.1031 179.926 25.2614 179.36 19.6611C179.213 20.693 178.96 22.5164 176.098 22.5164H173.461V28.2369C174.242 28.1568 175.395 28.0064 176.098 27.8862C176.362 27.8461 177.172 27.6959 177.807 27.6959C179.555 27.6959 180.337 29.4795 180.337 31.2728C180.337 33.9778 178.706 34.318 175.883 34.8991C171.84 35.7006 164.046 36.783 162.815 36.783C160.217 36.783 159.807 33.7373 159.807 32.6753C159.807 31.423 160.217 29.8599 162.366 29.5093C162.629 29.4692 166.038 29.0886 166.37 29.0485V22.5365Z" stroke="var(--stroke-0, #386F6B)" stroke-width="0.631164"/>
<path id="Vector_6" d="M204.453 10.1125C201.777 10.1125 200.927 8.36922 200.917 6.57591C200.917 4.36183 202.099 2.99924 204.443 2.98922L229.056 2.95914C230.022 2.95914 233.626 2.98923 233.626 6.75618C233.626 12.8474 226.555 21.4632 223.068 21.4733C221.32 21.4733 220.021 20.0306 219.65 18.7382C219.465 20.221 218.986 24.2988 216.583 28.0356C213.81 32.3436 208.653 35.6593 206.123 35.6693C204.345 35.6693 202.558 33.8463 202.558 31.7123C202.558 30.9109 202.744 29.8486 204.111 29.1172C210.977 25.4905 212.423 22.9359 212.667 14.9011C212.706 13.759 212.813 11.2845 216.154 11.2745C219.943 11.2745 219.904 13.9695 219.836 16.0634C220.168 15.4923 220.353 15.382 221.242 14.7308C223.762 12.8975 224.954 10.5733 224.944 10.3128C224.944 10.0824 224.797 10.0824 224.533 10.0824L204.453 10.1125Z" stroke="var(--stroke-0, #386F6B)" stroke-width="0.631164"/>
<path id="Vector_7" d="M265.71 7.85946C271.131 7.85946 271.17 11.436 271.179 14.3314C271.179 17.7176 270.857 25.7124 270.154 29.1487C268.972 34.8592 265.896 35.5103 261.471 35.5203C257.76 35.5203 254.459 35.5203 254.449 31.4528C254.449 29.2788 255.484 27.9463 257.672 27.9463C258.19 27.9463 260.455 28.1669 260.905 28.1669C262.946 28.1669 263.171 27.5958 263.464 25.0812C263.864 21.8452 264.011 16.7759 264.011 16.3551C264.011 15.2531 264.011 14.8323 263.268 14.8323H257.809C256.812 22.1858 253.521 29.0483 247.886 33.6267C246.479 34.7688 245.141 35.5304 243.91 35.5404C242.201 35.5404 240.306 33.7169 240.306 31.6631C240.306 30.0602 241.381 29.2286 242.533 28.3871C245.541 26.173 249.282 23.1574 250.61 14.8621H244.184C243.256 14.8621 240.473 14.8722 240.473 11.4058C240.473 8.01955 243.031 7.89933 244.184 7.89933H251.089C251.157 4.23257 251.157 4.04235 251.421 3.28095C251.87 2.09877 252.906 1.4174 254.644 1.40738C258.434 1.40738 258.434 3.80184 258.434 5.21445C258.434 5.44487 258.434 6.46691 258.365 7.87952H265.72L265.71 7.85946Z" stroke="var(--stroke-0, #386F6B)" stroke-width="0.631164"/>
<path id="Vector_8" d="M291.739 4.74306C291.739 3.26033 292.139 1.31681 295.372 1.30679C297.638 1.30679 299.083 2.13825 299.083 4.73303V6.33609H305.364C308.85 6.33609 310.745 7.69851 310.755 11.5055C310.755 16.3845 309.661 24.4194 303.762 29.5689C300.275 32.6245 295.939 34.3378 291.475 35.2194C290.401 35.4498 289.17 35.6401 288.242 35.6401C285.312 35.6401 284.677 32.9449 284.677 31.6826C284.677 29.1279 286.572 28.7471 287.461 28.5969C292.364 27.7553 295.294 27.2543 298.663 24.5494C302.375 21.5338 303.254 16.6648 303.254 14.03C303.254 13.8396 303.254 13.2287 302.394 13.2287L288.399 13.2487C287.842 13.2487 287.549 13.5895 287.549 14.1606V18.3881C287.549 20.2916 286.738 21.8146 283.994 21.8246C281.991 21.8246 280.36 21.1034 280.351 18.3984V11.9666C280.341 7.35809 282.753 6.36617 285.752 6.36617H291.729V4.76312L291.739 4.74306Z" stroke="var(--stroke-0, #386F6B)" stroke-width="0.631164"/>
<path id="Vector_9" d="M330.134 6.70709C332.585 8.22989 333.699 9.10143 333.699 10.8947C333.699 12.688 332.107 15.2727 329.841 15.2827C329.284 15.2827 328.767 15.1729 327.614 14.4115C324.274 12.2074 323.6 11.7163 320.777 10.1935C319.4 9.43209 318.14 8.71075 318.14 6.92746C318.14 4.68333 319.957 2.93009 322.067 2.92007C323.59 2.92007 328.64 5.80543 330.124 6.71711L330.134 6.70709ZM338.143 29.2386C331.951 33.5466 323.932 34.6686 322.858 34.6686C320.074 34.6686 319.293 32.0437 319.293 30.3706C319.293 27.4352 321.256 27.0148 323.19 26.7443C332.879 25.3617 338.66 21.5445 342.587 11.4859C342.772 11.0251 343.397 9.08145 343.544 8.70075C343.915 7.78907 344.394 6.60705 346.327 6.60705C348.476 6.60705 350.527 7.669 350.527 10.1035C350.527 11.3959 347.578 22.7066 338.153 29.2386H338.143Z" stroke="var(--stroke-0, #386F6B)" stroke-width="0.631164"/>
<path id="Vector_10" d="M367.483 31.9435C367.483 33.1658 367.414 35.7506 363.703 35.7606C360.07 35.7606 359.874 33.3659 359.874 31.9533L359.845 5.0739C359.845 3.89172 359.874 1.22671 363.625 1.22671C367.229 1.22671 367.453 3.58113 367.453 5.06387V10.4336C373.587 12.3672 379.125 15.0625 380.902 16.0142C383.168 17.1864 384.096 18.1379 384.096 19.9712C384.096 21.7946 382.807 24.4698 380.316 24.4698C379.203 24.4698 379.056 24.3595 375.306 22.1153C374.231 21.4741 370.813 19.5304 367.463 18.2381L367.483 31.9435Z" stroke="var(--stroke-0, #386F6B)" stroke-width="0.631164"/>
</g>
</svg>
