<svg preserveAspectRatio="none" width="100%" height="100%" overflow="visible" style="display: block;" viewBox="0 0 150.821 26.6692" fill="none" xmlns="http://www.w3.org/2000/svg">
<g id="Group">
<path id="Vector" d="M5.70379 20.758C5.70379 22.5713 4.78575 23.403 2.81285 23.403C0.996221 23.403 0 22.6515 0 20.758V2.64452C0 0.650848 1.13294 0 2.92027 0C4.7076 0 5.68427 0.781089 5.71357 2.64452V20.758H5.70379Z" fill="var(--fill-0, #236242)"/>
<path id="Vector_2" d="M15.6843 20.7574C15.6843 22.7009 14.6881 23.4024 12.891 23.4024C11.2111 23.4024 10.1758 22.7009 10.1758 20.7574V8.28417C10.1758 6.37064 11.2013 5.63965 12.9886 5.63965C13.6234 5.63965 14.229 5.74981 14.7466 6.10046C13.6918 6.67151 12.8226 7.50299 12.8226 8.79537C12.8226 10.5787 13.9555 11.9312 15.6647 12.1115V20.7476L15.6843 20.7574ZM25.0018 20.7574C25.0018 22.7009 24.0056 23.4024 22.2085 23.4024C20.4114 23.4024 19.4933 22.6709 19.4933 20.7574V12.9329C19.4933 11.9911 19.4152 10.4786 18.1748 10.4786C17.8036 10.4786 17.4911 10.6688 17.0125 10.9894C16.6219 11.2599 16.2019 11.4502 15.694 11.4502C14.4048 11.4502 13.4574 10.1577 13.4574 8.88538C13.4574 6.511 17.0125 5.64943 18.8291 5.64943C21.3002 5.64943 23.6735 6.70145 24.5428 9.23612C24.9628 10.4784 24.992 11.7707 24.992 13.1232V20.7676L25.0018 20.7574Z" fill="var(--fill-0, #236242)"/>
<path id="Vector_3" d="M30.7938 15.2271C30.6376 15.2271 30.4521 15.2575 30.2958 15.2575C29.0554 14.2556 28.4303 12.9929 28.4303 11.3699C28.4303 9.74695 29.0846 8.34434 30.2469 7.3425C31.7217 6.05011 33.7435 5.63965 35.6675 5.63965C37.5916 5.63965 39.7696 6.04011 41.303 7.36255C42.221 8.11394 42.9829 9.27647 42.9829 10.5188C42.9829 11.5707 42.2699 12.3317 41.3225 12.6222C40.2189 12.0813 39.0566 11.7006 37.8455 11.4301C37.6893 10.1878 36.8493 9.83733 35.7164 9.83733C35.0034 9.83733 33.7728 10.0576 33.7728 10.6787C33.7728 11.1897 34.0853 11.3002 37.2204 12.0015C40.4532 12.7328 43.4614 13.7244 43.4614 17.4813C43.4614 19.6453 42.3285 21.3686 40.4923 22.4005C39.0663 23.212 37.3083 23.4024 35.7066 23.4024C33.5481 23.4024 31.2822 22.9416 29.6023 21.4589C28.6842 20.6774 27.9224 19.5454 27.9224 18.243C27.9224 16.62 29.1823 15.8181 30.6376 15.8181C32.005 15.8181 32.6691 16.3293 33.1379 17.6217C33.3235 18.1126 33.509 18.5934 34.0364 18.8138C34.5931 19.0543 35.2182 19.1343 35.8042 19.1343C36.3902 19.1343 37.992 18.974 37.992 18.1324C37.992 17.6215 37.0447 17.3209 35.7261 17.1105C34.9936 16.9502 34.2513 16.7901 33.5188 16.5998C32.8351 15.6581 31.9952 15.2271 30.8329 15.2271H30.7938Z" fill="var(--fill-0, #236242)"/>
<path id="Vector_4" d="M49.0284 8.41617C49.0284 9.8989 48.2177 10.6601 46.7429 10.6601C45.2682 10.6601 44.477 9.92896 44.477 8.41617C44.477 7.66478 44.7701 6.85335 45.4244 6.47264C45.8151 6.25224 46.4793 6.20213 46.7625 6.20213C48.1885 6.20213 49.0284 6.93344 49.0284 8.41617ZM49.6632 8.41617C49.6632 6.93344 48.8526 5.80105 47.3778 5.6107V3.82763C47.3778 1.88405 48.4033 1.18262 50.1907 1.18262C51.978 1.18262 52.8765 2.04434 52.8765 3.82763V6.20213H53.9509C55.3768 6.20213 56.2168 6.93344 56.2168 8.41617C56.2168 9.8989 55.3475 10.6601 53.9509 10.6601H52.8765V17.7332C52.8765 18.7049 53.1695 18.735 54.1364 18.7551C55.3964 18.7851 56.2949 19.5065 56.2949 20.859C56.2949 23.023 54.3513 23.3935 52.6616 23.3935C48.9991 23.3935 47.368 22.1015 47.368 18.2644V11.2412C48.8428 11.0509 49.6534 9.88863 49.6534 8.4059L49.6632 8.41617Z" fill="var(--fill-0, #236242)"/>
<path id="Vector_5" d="M67.5371 15.6787C67.0097 15.9993 66.3554 16.1592 65.7693 16.2995C64.4801 16.62 63.6402 16.8406 63.6402 17.9426C63.6402 18.674 64.1383 19.1049 64.822 19.1049C65.5838 19.1049 66.1601 18.7543 66.7949 18.3535C67.1075 18.1632 67.4786 18.0331 67.8692 18.0331C69.0022 18.0331 69.7347 19.0849 69.7347 20.1669C69.7347 22.5113 65.574 23.4029 63.816 23.4029C60.3683 23.4029 58.0536 21.4592 58.0536 17.8125C58.0536 15.919 58.9228 14.1656 60.6613 13.334C62.2142 12.6027 63.982 12.4127 65.6619 12.1722C66.453 12.0921 67.4785 11.9619 67.4785 11.2506C67.4785 10.389 66.5312 10.1984 65.8963 10.1984C64.6071 10.1984 63.9723 10.6594 63.523 11.8415C62.3412 12.0619 61.1301 12.3022 60.0753 12.8933C58.9424 12.6228 58.4736 11.9215 58.4736 10.8695C58.4736 9.73744 59.0791 8.60553 59.8214 7.79403C61.4036 6.12094 63.7379 5.62988 65.9549 5.62988C69.51 5.62988 73.0066 7.03284 73.0066 11.2707V19.5858C73.0066 19.9665 73.0554 20.3371 73.1336 20.7178C73.1629 20.9582 73.2117 21.2287 73.2117 21.4691C73.2117 23.012 71.5514 23.3828 70.3403 23.3828C69.6566 23.3828 68.8948 23.3026 68.3674 22.8418C69.4222 22.2707 70.3695 21.4092 70.3695 20.0867C70.3695 18.7643 69.4222 17.3615 67.9962 17.3615C67.8399 17.3615 67.6837 17.3918 67.5274 17.4119V15.6586L67.5371 15.6787Z" fill="var(--fill-0, #236242)"/>
<path id="Vector_6" d="M81.5921 15.4385C81.5921 15.5988 81.641 15.7392 81.7484 15.7893C82.2465 16.0898 84.0339 16.1398 84.6687 16.1699C86.6123 16.2801 88.6731 16.2803 90.5092 16.9516C92.2184 17.6028 93.3221 19.1953 93.3221 21.0588C93.3221 25.9177 87.8234 26.6692 84.1901 26.6692C81.7387 26.6692 78.8183 26.399 77.0017 24.5055C76.2692 23.7241 75.8688 22.692 75.8688 21.59C75.8688 19.5963 76.8943 17.8331 79.0039 17.8331C80.2639 17.8331 81.7386 18.5644 81.7386 20.0471C81.7386 20.2675 81.7093 20.3477 81.5531 20.8587C81.5238 20.9088 81.5043 20.9889 81.5043 21.069C81.5043 22.2813 84.1413 22.3615 84.9519 22.3615C85.6649 22.3615 87.7159 22.3115 87.7159 21.2295C87.7159 20.5783 86.7979 20.478 86.3193 20.4179C85.0301 20.2877 83.7408 20.2574 82.4516 20.1973C82.2367 18.2537 80.9475 17.1717 79.0528 17.1717C78.3398 17.1717 77.6268 17.302 77.0213 17.7127C76.7575 17.2519 76.6501 16.7911 76.6501 16.2501C76.6501 15.0379 77.3045 14.086 78.2323 13.4148C77.4119 12.6634 76.9724 11.6316 76.9724 10.5296C76.9724 8.9667 77.8124 7.58415 79.082 6.77265C80.635 5.83091 82.5004 5.61035 84.2682 5.61035C85.8993 5.61035 87.5303 5.771 89.0344 6.47229C89.7669 5.96135 90.6948 5.61035 91.5836 5.61035C93.0584 5.61035 93.5077 6.80253 93.5077 8.09491C93.5077 8.98656 93.3807 10.0385 92.4333 10.3892C92.1208 10.4994 91.7789 10.4997 91.4371 10.4997C91.5152 11.6619 91.2222 12.5835 90.3823 13.3849C88.8782 14.8977 86.5928 15.2482 84.5613 15.2482C83.6139 15.2482 82.6665 15.1984 81.7484 15.008C81.6703 15.1183 81.5921 15.2484 81.5921 15.4087V15.4385ZM82.5102 10.69C82.5102 11.5817 83.565 11.7721 84.278 11.7721C84.991 11.7721 86.036 11.5817 86.036 10.69C86.036 9.79839 85.0105 9.4475 84.278 9.4475C83.5455 9.4475 82.5102 9.74829 82.5102 10.69Z" fill="var(--fill-0, #236242)"/>
<path id="Vector_7" d="M101.704 20.7584C101.704 22.6218 100.756 23.4034 98.9691 23.4034C97.045 23.4034 96.2051 22.5417 96.2051 20.7584V8.2852C96.2051 6.42177 97.1817 5.64068 98.9398 5.64068C99.6527 5.64068 100.678 5.69089 101.176 6.26194C99.7797 6.93318 98.2072 8.04502 98.2072 9.79825C98.2072 11.5515 99.4964 13.4148 101.362 13.4148C101.469 13.4148 101.596 13.415 101.704 13.3849V20.7584ZM101.069 7.07301C102.407 6.26151 103.989 5.61035 105.591 5.61035C107.193 5.61035 108.121 6.98282 108.121 8.55572C108.121 9.20692 107.964 9.95845 107.515 10.4494C106.958 10.9903 106.04 11.0203 105.327 11.1205C104.487 11.2808 103.696 11.5813 102.983 12.0421C102.456 12.4228 101.958 12.7739 101.303 12.7739C99.8578 12.7739 98.8323 11.2106 98.8323 9.82809C98.8323 8.44554 100.014 7.6641 101.069 7.07301Z" fill="var(--fill-0, #236242)"/>
<path id="Vector_8" d="M119.467 15.6787C118.94 15.9993 118.285 16.1592 117.699 16.2995C116.41 16.62 115.57 16.8406 115.57 17.9426C115.57 18.674 116.068 19.1049 116.752 19.1049C117.514 19.1049 118.09 18.7543 118.725 18.3535C119.037 18.1632 119.408 18.0331 119.799 18.0331C120.932 18.0331 121.665 19.0849 121.665 20.1669C121.665 22.5113 117.504 23.4029 115.746 23.4029C112.298 23.4029 109.983 21.4592 109.983 17.8125C109.983 15.919 110.853 14.1656 112.591 13.334C114.144 12.6027 115.912 12.4127 117.592 12.1722C118.383 12.0921 119.408 11.9619 119.408 11.2506C119.408 10.389 118.461 10.1984 117.826 10.1984C116.537 10.1984 115.902 10.6594 115.453 11.8415C114.271 12.0619 113.06 12.3022 112.005 12.8933C110.872 12.6228 110.403 11.9215 110.403 10.8695C110.403 9.73744 111.009 8.60553 111.751 7.79403C113.333 6.12094 115.668 5.62988 117.885 5.62988C121.44 5.62988 124.936 7.03284 124.936 11.2707V19.5858C124.936 19.9665 124.985 20.3371 125.063 20.7178C125.093 20.9582 125.142 21.2287 125.142 21.4691C125.142 23.012 123.481 23.3828 122.27 23.3828C121.586 23.3828 120.825 23.3026 120.297 22.8418C121.352 22.2707 122.299 21.4092 122.299 20.0867C122.299 18.7643 121.352 17.3615 119.926 17.3615C119.77 17.3615 119.614 17.3918 119.457 17.4119V15.6586L119.467 15.6787Z" fill="var(--fill-0, #236242)"/>
<path id="Vector_9" d="M134.423 20.7574C134.423 22.7009 133.427 23.4024 131.63 23.4024C129.833 23.4024 128.914 22.6709 128.914 20.7574V8.28417C128.914 6.31053 129.94 5.63965 131.757 5.63965C132.391 5.63965 133.046 5.74981 133.603 6.10046C132.47 6.83181 131.229 8.01389 131.229 9.50664C131.229 11.2899 132.753 12.4723 134.413 12.4222V20.7676L134.423 20.7574ZM145.45 5.63965C149.083 5.63965 150.821 8.52503 150.821 11.9614V20.7574C150.821 22.7009 149.845 23.4024 148.057 23.4024C146.27 23.4024 145.323 22.7009 145.323 20.7574V12.5225C145.323 11.6909 145.088 10.6088 144.082 10.6088C142.793 10.6088 142.608 12.0915 142.608 13.0933V20.7574C142.608 22.7009 141.582 23.4024 139.795 23.4024C138.007 23.4024 137.109 22.5407 137.109 20.7574V12.362C137.109 11.6307 137.031 10.6088 136.396 10.6088C136.161 10.6088 136.025 10.7188 135.556 11.1796C135.214 11.5603 134.735 11.8009 134.208 11.8009C132.997 11.8009 131.864 10.7988 131.864 9.53648C131.864 8.43445 132.763 7.51289 133.573 6.9218C134.628 6.1103 135.947 5.64943 137.236 5.64943C138.945 5.64943 140.264 6.40084 141.367 7.67318C142.393 6.40084 143.838 5.64943 145.45 5.64943V5.63965Z" fill="var(--fill-0, #236242)"/>
</g>
</svg>
