<svg width="386" height="39" viewBox="0 0 386 39" fill="none" xmlns="http://www.w3.org/2000/svg">
<path d="M5.49459 13.589C3.49239 13.589 1.89062 12.7577 1.89062 10.3232C1.89062 7.69834 2.88683 6.476 5.48481 6.476H16.1404V5.16352C16.1404 3.60064 16.4725 1.61719 19.51 1.61719C22.4009 1.61719 23.446 2.55871 23.446 5.15349V6.44591L34.0626 6.43589C36.1038 6.43589 37.7056 7.26747 37.7056 9.74203C37.7056 12.1765 36.8558 13.5491 34.0723 13.5591H31.4353C30.4391 18.2077 28.515 23.197 25.331 26.9339C27.5969 28.1862 29.0814 28.6768 34.502 30.39C35.8401 30.8107 37.3246 31.4118 37.3246 33.8162C37.3246 36.0303 35.9182 37.9341 33.6914 37.9341C31.7576 37.9341 24.8524 35.4694 19.8323 31.9328C14.9 35.4093 8.40507 37.964 5.9536 37.964C3.87326 37.964 2.42778 36.1005 2.41801 33.8563C2.41801 31.6523 3.56071 30.9613 5.20153 30.4604C10.4366 28.8174 11.4035 28.5069 13.7378 27.2846C14.0308 27.1344 14.148 27.0539 14.3726 26.9437C11.2081 23.1366 9.23523 18.4579 8.19018 13.589H5.48481H5.49459ZM15.6325 13.5689C16.0818 15.3923 17.2343 19.58 19.8421 22.6256C20.7308 21.5937 22.44 19.5402 23.993 13.5591H15.6423L15.6325 13.5689Z" fill="#F4C058"/>
<path d="M56.6132 6.69705C56.535 6.54677 56.3495 5.97566 56.203 5.63503C56.0956 5.2944 55.91 4.80356 55.9002 4.19243C55.9002 2.39913 57.9708 1.5276 59.9046 1.51758C61.5357 1.51758 62.2486 2.00847 63.03 3.76171C63.2937 4.37283 63.8504 5.55494 63.9969 6.69705H66.1456C66.3702 6.27627 66.5558 5.85545 67.1418 4.14229C67.6595 2.57941 68.1771 1.70786 70.15 1.69784C72.455 1.69784 74.3498 2.91015 74.3498 4.77358C74.3498 5.42478 73.9395 6.18613 73.6465 6.71711C75.7269 7.13788 76.5766 9.11142 76.5864 11.6261V13.9908C76.5864 16.0045 75.9222 17.7574 72.5136 17.3867C72.3671 19.3703 71.4002 19.9816 70.5505 20.5126C68.7338 21.7348 67.3958 22.3859 66.6926 22.6865H74.379C75.1213 22.6765 77.7584 22.6766 77.7584 25.8725C77.7584 28.838 75.6487 29.1083 74.379 29.1183H63.4304V33.1359C63.4304 37.7845 61.5064 38.3553 56.6425 38.3653C52.2963 38.3653 51.8176 38.2554 51.2219 37.9549C50.2159 37.504 49.6592 36.0915 49.6592 34.759C49.6592 32.585 50.9191 31.5231 52.8822 31.5231C53.2534 31.5231 54.8161 31.5928 55.1482 31.5627C55.9588 31.4826 55.9588 31.0621 55.9588 30.1504V29.1584L45.0786 29.1687C44.3363 29.1687 41.6992 29.1683 41.6992 26.0927C41.6992 23.6582 42.881 22.7369 45.0786 22.7369H55.9881C56.0662 22.266 56.3202 21.6945 57.3555 21.3138C57.8731 21.1235 58.5079 20.8931 58.5079 20.6226C58.5079 20.4724 58.4005 20.3223 58.215 20.3223H49.6788C48.829 20.3323 47.0026 20.3322 46.8561 17.4468C43.9652 17.7975 42.6955 16.5354 42.6955 14.141V11.7063C42.6955 10.2636 42.7639 7.39851 46.026 6.86753C45.8013 6.40668 45.3227 5.53488 45.313 4.66327C45.313 3.29074 46.944 1.84826 49.2783 1.83824C50.3917 1.83824 51.4661 1.94837 52.5893 4.27266C52.8823 4.92386 53.3315 6.06593 53.4878 6.74719H56.6034L56.6132 6.69705ZM49.6006 14.141L68.6069 14.1209C69.2026 14.1209 69.271 14.1209 69.7202 14.161V13.1689C69.7202 12.9385 69.4956 12.8686 69.3882 12.8686L49.8936 12.8984C49.7862 12.8984 49.6006 12.9789 49.6006 13.1993V14.1507V14.141Z" fill="#F4C058"/>
<path d="M101.67 19.9708C101.114 20.8825 100.489 21.1131 99.258 21.1131L84.4125 21.1331C82.7814 21.1331 81.5508 20.6018 81.5508 17.8267C81.5508 14.8212 83.5139 14.8214 84.7738 14.8114C84.6566 14.0099 84.3245 11.956 84.2073 11.4651C82.5763 11.0444 82.2051 9.37144 82.1954 8.37961C82.1954 5.6045 84.1585 5.21362 85.35 5.21362H88.3192V4.14158C88.3192 1.85737 90.0577 1.51685 91.8743 1.50684C93.3589 1.50684 94.9216 2.03769 94.9216 4.13155V5.19356H98.1544C100.157 5.19356 101.28 6.25546 101.28 8.3894C101.28 9.76193 100.616 11.0543 99.3557 11.405C99.0627 12.8176 98.9162 13.4589 98.545 14.7913H99.2483C100.401 14.7913 101.026 14.9818 101.661 15.8935V7.58812C101.641 3.66088 102.462 2.55882 106.544 2.55882H111.887C114.377 2.54881 117.082 2.54863 117.092 6.88663C117.092 8.75006 116.614 10.3131 116.282 11.2648C115.725 12.9379 114.768 15.1521 114.279 16.1439C113.869 16.9454 113.84 17.0156 113.84 17.2059C113.84 17.4364 113.918 17.4761 114.475 18.1173C116.106 19.9407 117.747 23.4472 117.756 27.7151C117.756 34.6078 113.381 34.6079 111.603 34.6179C109.152 34.6179 108.673 34.207 108.37 33.9365V34.7784C108.37 37.4433 107.228 38.2447 104.776 38.2447C101.915 38.2447 101.69 36.0808 101.69 34.7784L101.67 19.961V19.9708ZM95.9568 22.3751C99.8929 22.3751 100.489 23.6675 100.489 27.0537V32.9948C100.498 36.8018 99.6487 37.6836 95.9763 37.6836H87.3229C83.8362 37.7037 82.8302 36.862 82.8205 33.0149V27.0738C82.8107 23.5272 83.592 22.3854 87.3034 22.3854H95.9568V22.3751ZM94.1402 28.667C94.1402 28.4767 93.9937 28.3261 93.8081 28.3261H89.54C89.3154 28.3261 89.2079 28.4865 89.2079 28.6768V31.2318C89.2079 31.3821 89.2861 31.5723 89.5498 31.5723H93.8179C94.0425 31.5723 94.15 31.3718 94.15 31.2215V28.667H94.1402ZM90.292 11.5652C90.4385 12.6271 90.6632 14.4204 90.6632 14.8011H92.3724C92.558 14.2301 92.8119 13.3485 92.9584 11.5652H90.2823H90.292ZM108.341 15.5026C108.527 15.0418 110.187 10.3631 110.187 9.67179C110.187 9.37124 109.962 9.1809 109.699 9.1809H108.771C108.478 9.1809 108.322 9.37121 108.322 9.64171V15.5026H108.341ZM108.361 28.2664C108.81 27.9258 109.181 27.8452 109.845 27.8051C110.363 27.765 110.548 27.2742 110.548 25.9418C110.548 22.4353 109.24 20.7622 108.351 19.6602V28.2664H108.361Z" fill="#F4C058"/>
<path d="M130.919 16.9661C128.36 20.132 127.247 20.7832 126.065 20.7832C123.838 20.7832 121.68 18.4691 121.68 16.1849C121.68 14.9326 121.973 14.6619 124.795 11.7666C127.872 8.56069 128.722 7.07805 130.538 3.84208C131.652 1.85842 132.062 1.4375 133.576 1.4375C135.539 1.4375 137.883 2.56957 137.883 4.67345C137.883 6.38661 135.148 11.7265 130.919 16.9862V16.9661ZM142.395 23.1876C142.395 20.9735 144.769 19.5312 146.624 19.5211C148.001 19.5211 148.744 20.202 149.3 20.8532C150.267 21.9151 152.572 25.4918 153.275 26.6339C156.293 31.5429 156.664 33.0257 156.664 34.2079C156.664 36.6023 154.066 37.9448 151.957 37.9448C149.916 37.9448 149.359 36.8829 148.421 34.789C146.194 35.1297 129.415 36.6827 125.997 36.6827C125.069 36.6827 122.842 36.6825 122.832 32.8054C122.832 29.4893 125.245 29.3791 127.247 29.2989C129.317 25.1813 129.913 23.6583 132.648 16.5352C133.83 13.4895 134.162 12.6481 136.281 12.6481C137.766 12.6481 140.627 13.2092 140.627 15.6938C140.627 16.5654 140.217 17.6777 139.153 20.1923C136.926 25.3017 135.861 27.3956 134.972 28.9986C141.243 28.6479 143.098 28.5275 144.993 28.3372C142.835 25.0311 142.385 24.4602 142.385 23.1978L142.395 23.1876ZM145.159 1.44753C146.829 1.44753 147.464 2.20903 148.353 3.80197C148.841 4.6335 151.146 8.60088 154.076 11.6365C157.241 14.9826 157.348 15.1027 157.348 16.4652C157.348 18.7093 155.278 20.9236 153.344 20.9236C152.084 20.9236 150.853 20.2423 148.177 16.8561C143.489 10.9953 141.223 6.08617 141.223 4.79379C141.223 2.0888 143.968 1.4375 145.149 1.4375L145.159 1.44753Z" fill="#F4C058"/>
<path d="M167.946 23.4973H165.241C163.307 23.4973 161.94 22.6259 161.93 20.1914C161.93 17.8671 162.74 16.5342 165.231 16.5342L177.664 16.5147C178.885 16.5147 180.184 16.8551 180.711 18.3379C180.565 16.0536 180.448 14.8715 180.37 13.8496L165.114 13.8697C162.926 13.8697 161.656 12.8076 161.656 10.5635C161.656 8.31937 162.506 6.94672 165.104 6.93671L180.106 6.91665C180.028 4.67251 180.067 3.83116 180.282 3.10983C180.799 1.50687 182.508 1.27637 183.583 1.27637C184.55 1.27637 186.181 1.5367 186.816 2.37825C187.333 3.05951 187.372 3.90116 187.372 5.23361V6.90662H189.013C188.935 6.56599 188.749 6.07527 188.681 5.84485C188.349 4.85302 188.193 4.62253 188.193 4.02142C188.193 2.03776 190.341 1.35658 191.904 1.34656C193.535 1.34656 194.063 2.17798 194.434 2.97946C194.697 3.51044 195.254 5.37389 195.254 6.25552C195.254 6.63622 195.176 6.86669 195.108 7.05704C196.963 7.47782 197.334 9.03055 197.334 10.1727C197.334 12.4168 196.524 13.8295 193.926 13.8295H187.616C187.802 17.4963 187.997 20.8824 188.593 24.459C188.964 26.6631 189.453 28.9473 190.674 28.9473C191.23 28.9473 191.679 28.677 192.08 28.4165C193.34 27.5048 193.633 27.3141 194.639 27.3041C196.387 27.3041 197.979 28.787 197.989 31.492C197.989 33.2452 197.061 35.1089 195.694 36.0306C193.877 37.2128 192.578 38.0544 190.576 38.0544C182.821 38.0644 181.502 26.2222 180.936 20.6218C180.789 21.6538 180.536 23.4772 177.674 23.4772H175.037V29.1977C175.818 29.1176 176.971 28.9672 177.674 28.847C177.938 28.8069 178.748 28.6567 179.383 28.6567C181.131 28.6567 181.913 30.4403 181.913 32.2336C181.913 34.9386 180.282 35.2788 177.459 35.8599C173.416 36.6614 165.622 37.7438 164.391 37.7438C161.793 37.7438 161.383 34.698 161.383 33.6361C161.383 32.3838 161.793 30.8207 163.942 30.4701C164.205 30.43 167.614 30.0493 167.946 30.0093V23.4973Z" fill="#F4C058"/>
<path d="M206.028 11.0742C203.352 11.0742 202.502 9.33098 202.492 7.53767C202.492 5.32359 203.674 3.961 206.018 3.95098L230.63 3.9209C231.597 3.9209 235.201 3.95099 235.201 7.71794C235.201 13.8092 228.13 22.425 224.643 22.435C222.895 22.435 221.596 20.9924 221.225 19.7C221.039 21.1827 220.561 25.2605 218.158 28.9974C215.384 33.3053 210.228 36.6211 207.698 36.6311C205.92 36.6311 204.133 34.808 204.133 32.6741C204.133 31.8726 204.319 30.8103 205.686 30.079C212.552 26.4523 213.998 23.8977 214.242 15.8628C214.281 14.7207 214.388 12.2465 217.728 12.2365C221.518 12.2365 221.479 14.9313 221.411 17.0251C221.743 16.4541 221.928 16.3438 222.817 15.6926C225.337 13.8592 226.528 11.535 226.519 11.2745C226.519 11.0441 226.372 11.0441 226.108 11.0441L206.028 11.0742Z" fill="#F4C058"/>
<path d="M267.286 8.82098C272.707 8.82098 272.746 12.3975 272.756 15.2929C272.756 18.6791 272.434 26.6739 271.73 30.1102C270.549 35.8208 267.472 36.4718 263.048 36.4818C259.336 36.4818 256.035 36.4818 256.025 32.4143C256.025 30.2403 257.06 28.9078 259.248 28.9078C259.766 28.9078 262.032 29.1284 262.481 29.1284C264.522 29.1284 264.747 28.5573 265.04 26.0427C265.44 22.8067 265.587 17.7374 265.587 17.3166C265.587 16.2146 265.587 15.7938 264.845 15.7938H259.385C258.389 23.1474 255.097 30.0098 249.462 34.5882C248.055 35.7303 246.717 36.4919 245.487 36.5019C243.778 36.5019 241.883 34.6784 241.883 32.6246C241.883 31.0217 242.957 30.1901 244.11 29.3486C247.118 27.1345 250.859 24.1189 252.187 15.8236H245.76C244.832 15.8236 242.049 15.8339 242.049 12.3676C242.049 8.98131 244.608 8.86109 245.76 8.86109H252.665C252.734 5.19433 252.734 5.00387 252.997 4.24247C253.447 3.06029 254.482 2.37916 256.221 2.36914C260.01 2.36914 260.01 4.76336 260.01 6.17596C260.01 6.40639 260.01 7.42843 259.942 8.84103H267.296L267.286 8.82098Z" fill="#F4C058"/>
<path d="M293.314 5.7058C293.314 4.22306 293.714 2.27955 296.947 2.26953C299.213 2.26953 300.659 3.10099 300.659 5.69577V7.29882H306.939C310.425 7.29882 312.32 8.66149 312.33 12.4685C312.33 17.3475 311.236 25.3821 305.337 30.5316C301.85 33.5872 297.514 35.3005 293.05 36.1822C291.976 36.4126 290.745 36.6029 289.817 36.6029C286.887 36.6029 286.253 33.9077 286.253 32.6454C286.253 30.0907 288.147 29.7099 289.036 29.5596C293.939 28.718 296.869 28.2176 300.239 25.5126C303.95 22.497 304.829 17.628 304.829 14.9932C304.829 14.8028 304.829 14.1914 303.969 14.1914L289.974 14.2115C289.417 14.2115 289.124 14.5523 289.124 15.1233V19.3508C289.124 21.2543 288.313 22.7773 285.569 22.7873C283.567 22.7873 281.936 22.0661 281.926 19.3611V12.9293C281.916 8.32083 284.328 7.32891 287.327 7.32891H293.304V5.72585L293.314 5.7058Z" fill="#F4C058"/>
<path d="M331.708 7.66885C334.16 9.19166 335.273 10.0632 335.273 11.8565C335.273 13.6498 333.681 16.2349 331.415 16.245C330.859 16.245 330.341 16.1346 329.189 15.3732C325.848 13.1692 325.174 12.6781 322.352 11.1553C320.975 10.3939 319.715 9.67251 319.715 7.88922C319.715 5.64509 321.531 3.89185 323.641 3.88184C325.165 3.88184 330.214 6.76719 331.699 7.67888L331.708 7.66885ZM339.717 30.2107C333.525 34.5186 325.507 35.6406 324.432 35.6406C321.649 35.6406 320.867 33.0157 320.867 31.3426C320.867 28.4072 322.83 27.9863 324.764 27.7158C334.453 26.3333 340.235 22.5163 344.161 12.4577C344.347 11.9969 344.972 10.0532 345.118 9.67254C345.489 8.76086 345.968 7.57884 347.902 7.57884C350.051 7.57884 352.102 8.64079 352.102 11.0753C352.102 12.3677 349.152 23.6786 339.727 30.2107H339.717Z" fill="#F4C058"/>
<path d="M369.056 32.9043C369.056 34.1265 368.987 36.7114 365.276 36.7214C361.643 36.7214 361.447 34.3267 361.447 32.9141L361.418 6.03468C361.418 4.8525 361.447 2.1875 365.198 2.1875C368.802 2.1875 369.026 4.54192 369.026 6.02465V11.3944C375.16 13.328 380.698 16.0233 382.475 16.975C384.741 18.1472 385.669 19.0986 385.669 20.932C385.669 22.7554 384.38 25.4305 381.889 25.4305C380.776 25.4305 380.629 25.3202 376.879 23.0761C375.804 22.4349 372.386 20.4912 369.036 19.1988L369.056 32.9043Z" fill="#F4C058"/>
<path d="M3.92037 12.6178C1.91817 12.6178 0.316406 11.7862 0.316406 9.35174C0.316406 6.72691 1.31262 5.50456 3.91059 5.50456H14.5662V4.19209C14.5662 2.6292 14.8983 0.645508 17.9358 0.645508C20.8268 0.645508 21.8718 1.58727 21.8718 4.18206V5.47448L32.4883 5.46445C34.5296 5.46445 36.1314 6.29603 36.1314 8.77059C36.1314 11.2051 35.2817 12.5774 32.4981 12.5874H29.8611C28.8648 17.236 26.9408 22.2253 23.7568 25.9622C26.0227 27.2145 27.5073 27.7056 32.9279 29.4188C34.2659 29.8395 35.7505 30.4406 35.7505 32.845C35.7505 35.0591 34.344 36.9625 32.1172 36.9625C30.1834 36.9625 23.2782 34.4982 18.2581 30.9617C13.3258 34.4381 6.83091 36.9928 4.37944 36.9928C2.29911 36.9928 0.85362 35.1293 0.843853 32.8851C0.843853 30.6811 1.98655 29.9896 3.62737 29.4887C8.86239 27.8457 9.8293 27.5352 12.1636 26.3129C12.4566 26.1627 12.5738 26.0827 12.7984 25.9725C9.63399 22.1655 7.66107 17.4868 6.61602 12.6178H3.91059H3.92037ZM14.0583 12.6075C14.5076 14.4309 15.6601 18.6186 18.2678 21.6642C19.1566 20.6323 20.8658 18.5787 22.4187 12.5977H14.0681L14.0583 12.6075Z" stroke="#386F6B" stroke-width="0.631164"/>
<path d="M55.0429 5.73514C54.9647 5.58486 54.7792 5.01375 54.6327 4.67312C54.5252 4.33249 54.3397 3.84164 54.3299 3.23052C54.3299 1.43721 56.4005 0.565683 58.3343 0.555664C59.9653 0.555664 60.6783 1.04656 61.4597 2.79979C61.7234 3.41092 62.2801 4.59303 62.4266 5.73514H64.5753C64.7999 5.31436 64.9855 4.89354 65.5715 3.18038C66.0891 1.61749 66.6068 0.745947 68.5797 0.735928C70.8846 0.735928 72.7794 1.94823 72.7794 3.81167C72.7794 4.46287 72.3692 5.22421 72.0762 5.75519C74.1565 6.17597 75.0063 8.14951 75.016 10.6641V13.0284C75.016 15.0421 74.3519 16.7954 70.9432 16.4248C70.7967 18.4084 69.8299 19.0197 68.9801 19.5506C67.1635 20.7729 65.8255 21.424 65.1222 21.7246H72.8087C73.551 21.7146 76.188 21.7147 76.188 24.9106C76.188 27.8761 74.0784 28.1463 72.8087 28.1564H61.8601V32.174C61.8601 36.8226 59.936 37.3934 55.0721 37.4034C50.7259 37.4034 50.2473 37.2935 49.6516 36.993C48.6456 36.5421 48.0889 35.1296 48.0889 33.7971C48.0889 31.6231 49.3488 30.5607 51.3119 30.5607C51.6831 30.5607 53.2458 30.6309 53.5778 30.6008C54.3885 30.5207 54.3885 30.1002 54.3885 29.1885V28.1965L43.5082 28.2067C42.766 28.2067 40.1289 28.2064 40.1289 25.1308C40.1289 22.6963 41.3107 21.775 43.5082 21.775H54.4178C54.4959 21.3041 54.7499 20.7326 55.7852 20.3519C56.3028 20.1616 56.9376 19.9312 56.9376 19.6607C56.9376 19.5104 56.8302 19.3604 56.6446 19.3604H48.1084C47.2587 19.3704 45.4323 19.3703 45.2858 16.4849C42.3948 16.8356 41.1251 15.5735 41.1251 13.179V10.7444C41.1251 9.30171 41.1935 6.43635 44.4556 5.90537C44.231 5.44452 43.7524 4.57296 43.7426 3.70136C43.7426 2.32883 45.3737 0.886098 47.708 0.876079C48.8214 0.876079 49.8958 0.986458 51.0189 3.31074C51.3119 3.96194 51.7612 5.10402 51.9175 5.78528H55.0331L55.0429 5.73514ZM48.0303 13.1688L67.0365 13.1487C67.6323 13.1487 67.7007 13.1487 68.1499 13.1888V12.1972C68.1499 11.9668 67.9253 11.8964 67.8179 11.8964L48.3233 11.9267C48.2159 11.9267 48.0303 12.0067 48.0303 12.2271V13.179V13.1688Z" stroke="#386F6B" stroke-width="0.631164"/>
<path d="M100.084 19.0099C99.5278 19.9216 98.9027 20.1521 97.672 20.1521L82.8265 20.1722C81.1955 20.1722 79.9648 19.6409 79.9648 16.8658C79.9648 13.8602 81.928 13.8605 83.1879 13.8505C83.0707 13.049 82.7386 10.9951 82.6214 10.5042C80.9903 10.0834 80.6192 8.41026 80.6094 7.41843C80.6094 4.64332 82.5725 4.25268 83.7641 4.25268H86.7332V3.18064C86.7332 0.896428 88.4717 0.555917 90.2883 0.545898C91.7729 0.545898 93.3356 1.07675 93.3356 3.17061V4.23263H96.5684C98.5706 4.23263 99.6938 5.29453 99.6938 7.42846C99.6938 8.80099 99.0297 10.0934 97.7697 10.444C97.4767 11.8566 97.3302 12.4979 96.9591 13.8304H97.6623C98.8148 13.8304 99.4399 14.0209 100.075 14.9325V6.62718C100.055 2.69994 100.876 1.59789 104.958 1.59789H110.301C112.791 1.58787 115.497 1.58769 115.506 5.92569C115.506 7.78913 115.028 9.35213 114.696 10.3039C114.139 11.977 113.182 14.1912 112.693 15.183C112.283 15.9845 112.254 16.0547 112.254 16.245C112.254 16.4754 112.332 16.5152 112.889 17.1564C114.52 18.9797 116.161 22.4863 116.17 26.7541C116.17 33.6468 111.795 33.647 110.017 33.657C107.566 33.657 107.087 33.2461 106.785 32.9756V33.817C106.785 36.4819 105.642 37.2838 103.19 37.2838C100.329 37.2838 100.104 35.1194 100.104 33.817L100.084 19.0001V19.0099ZM94.3806 21.4142C98.3167 21.4142 98.9124 22.7065 98.9124 26.0928V32.0339C98.9222 35.8409 98.0725 36.7227 94.4002 36.7227H85.7468C82.26 36.7427 81.2541 35.901 81.2443 32.0539V26.1128C81.2345 22.5663 82.0158 21.4245 85.7272 21.4245H94.3806V21.4142ZM92.564 27.6958C92.564 27.5055 92.4175 27.3553 92.232 27.3553H87.9639C87.7392 27.3553 87.6318 27.5157 87.6318 27.7061V30.2606C87.6318 30.4109 87.7099 30.6011 87.9736 30.6011H92.2417C92.4663 30.6011 92.5738 30.4011 92.5738 30.2508V27.6958H92.564ZM88.7159 10.6045C88.8624 11.6664 89.087 13.4595 89.087 13.8402H90.7962C90.9818 13.2691 91.2358 12.3878 91.3823 10.6045H88.7061H88.7159ZM106.765 14.5417C106.951 14.0808 108.611 9.40213 108.611 8.71085C108.611 8.4103 108.386 8.21996 108.123 8.21996H107.195C106.902 8.21996 106.745 8.41027 106.745 8.68077V14.5417H106.765ZM106.785 27.2952C107.234 26.9545 107.605 26.8744 108.269 26.8344C108.787 26.7943 108.972 26.3035 108.972 24.9711C108.972 21.4646 107.664 19.7915 106.775 18.6895V27.2952H106.785Z" stroke="#386F6B" stroke-width="0.631164"/>
<path d="M129.353 15.9947C126.794 19.1605 125.68 19.8113 124.499 19.8113C122.272 19.8113 120.113 17.4972 120.113 15.213C120.113 13.9607 120.406 13.6903 123.229 10.7949C126.305 7.58901 127.155 6.10637 128.972 2.8704C130.085 0.886743 130.495 0.46582 132.009 0.46582C133.972 0.46582 136.316 1.59789 136.316 3.70177C136.316 5.41493 133.582 10.7551 129.353 16.0148V15.9947ZM140.829 22.2259C140.829 20.0118 143.202 18.569 145.058 18.559C146.435 18.559 147.177 19.2403 147.734 19.8915C148.701 20.9535 151.006 24.5301 151.709 25.6722C154.727 30.5813 155.098 32.064 155.098 33.2462C155.098 35.6406 152.5 36.9831 150.39 36.9831C148.349 36.9831 147.792 35.9212 146.855 33.8274C144.628 34.168 127.849 35.721 124.43 35.721C123.502 35.721 121.276 35.7209 121.266 31.8437C121.266 28.5276 123.678 28.4174 125.68 28.3373C127.751 24.2197 128.347 22.6966 131.081 15.5735C132.263 12.5279 132.595 11.6865 134.715 11.6865C136.199 11.6865 139.061 12.2475 139.061 14.7321C139.061 15.6037 138.651 16.716 137.586 19.2306C135.359 24.3401 134.295 26.434 133.406 28.0369C139.676 27.6863 141.532 27.5659 143.427 27.3755C141.268 24.0694 140.819 23.4985 140.819 22.2362L140.829 22.2259ZM143.583 0.475849C145.253 0.475849 145.888 1.23735 146.777 2.83029C147.265 3.66182 149.57 7.62896 152.5 10.6646C155.665 14.0107 155.772 14.1313 155.772 15.4938C155.772 17.7379 153.701 19.9517 151.768 19.9517C150.508 19.9517 149.277 19.2704 146.601 15.8841C141.913 10.0233 139.647 5.11449 139.647 3.82211C139.647 1.11712 142.391 0.46582 143.573 0.46582L143.583 0.475849Z" stroke="#386F6B" stroke-width="0.631164"/>
<path d="M166.372 22.5363H163.666C161.733 22.5363 160.365 21.6649 160.356 19.2304C160.356 16.9061 161.166 15.5733 163.657 15.5733L176.09 15.5532C177.311 15.5532 178.61 15.8942 179.137 17.3769C178.991 15.0927 178.873 13.9105 178.795 12.8887L163.539 12.9087C161.352 12.9087 160.082 11.8467 160.082 9.60257C160.082 7.35843 160.932 5.98579 163.53 5.97577L178.532 5.95571C178.453 3.71157 178.493 2.86997 178.707 2.14864C179.225 0.545688 180.934 0.31543 182.009 0.31543C182.975 0.31543 184.607 0.575763 185.241 1.41731C185.759 2.09857 185.798 2.94022 185.798 4.27268V5.94568H187.439C187.361 5.60506 187.175 5.11409 187.107 4.88367C186.775 3.89184 186.618 3.66159 186.618 3.06048C186.618 1.07682 188.767 0.395401 190.33 0.385383C191.961 0.385383 192.488 1.21704 192.859 2.01852C193.123 2.5495 193.68 4.41296 193.68 5.29458C193.68 5.67528 193.602 5.90576 193.533 6.09611C195.389 6.51688 195.76 8.06961 195.76 9.21171C195.76 11.4559 194.95 12.8686 192.352 12.8686H186.042C186.228 16.5354 186.423 19.9215 187.019 23.4981C187.39 25.7021 187.878 27.9863 189.099 27.9863C189.656 27.9863 190.105 27.716 190.506 27.4556C191.766 26.5439 192.059 26.3532 193.065 26.3432C194.813 26.3432 196.405 27.8261 196.415 30.5311C196.415 32.2843 195.487 34.1475 194.119 35.0692C192.303 36.2514 191.004 37.093 189.002 37.093C181.247 37.103 179.928 25.2612 179.362 19.6609C179.215 20.6928 178.961 22.5163 176.1 22.5163H173.463V28.2368C174.244 28.1566 175.396 28.0063 176.1 27.886C176.363 27.846 177.174 27.6957 177.809 27.6957C179.557 27.6957 180.338 29.4793 180.338 31.2727C180.338 33.9776 178.707 34.3179 175.885 34.899C171.841 35.7004 164.047 36.7828 162.817 36.7828C160.219 36.7828 159.809 33.7371 159.809 32.6751C159.809 31.4228 160.219 29.8598 162.367 29.5091C162.631 29.4691 166.04 29.0884 166.372 29.0483V22.5363Z" stroke="#386F6B" stroke-width="0.631164"/>
<path d="M204.457 10.1123C201.781 10.1123 200.932 8.36907 200.922 6.57576C200.922 4.36168 202.104 2.99909 204.448 2.98907L229.06 2.95898C230.027 2.95898 233.631 2.98908 233.631 6.75602C233.631 12.8473 226.56 21.4631 223.073 21.4731C221.325 21.4731 220.026 20.0305 219.655 18.7381C219.469 20.2208 218.99 24.2986 216.588 28.0355C213.814 32.3434 208.657 35.6592 206.128 35.6692C204.35 35.6692 202.563 33.8461 202.563 31.7122C202.563 30.9107 202.748 29.8484 204.116 29.1171C210.982 25.4904 212.427 22.9357 212.671 14.9009C212.71 13.7588 212.818 11.2844 216.158 11.2744C219.948 11.2744 219.909 13.9694 219.84 16.0632C220.172 15.4922 220.358 15.3819 221.247 14.7307C223.766 12.8973 224.958 10.5731 224.948 10.3126C224.948 10.0822 224.802 10.0822 224.538 10.0822L204.457 10.1123Z" stroke="#386F6B" stroke-width="0.631164"/>
<path d="M265.712 7.85931C271.133 7.85931 271.172 11.4359 271.182 14.3312C271.182 17.7174 270.859 25.7122 270.156 29.1486C268.974 34.8591 265.898 35.5102 261.473 35.5202C257.762 35.5202 254.461 35.5201 254.451 31.4526C254.451 29.2786 255.486 27.9461 257.674 27.9461C258.192 27.9461 260.458 28.1668 260.907 28.1668C262.948 28.1668 263.173 27.5956 263.466 25.081C263.866 21.845 264.013 16.7757 264.013 16.355C264.013 15.2529 264.013 14.8321 263.27 14.8321H257.811C256.815 22.1857 253.523 29.0481 247.888 33.6265C246.481 34.7686 245.143 35.5302 243.913 35.5402C242.203 35.5402 240.309 33.7167 240.309 31.663C240.309 30.06 241.383 29.2285 242.535 28.3869C245.544 26.1728 249.284 23.1573 250.613 14.862H244.186C243.258 14.862 240.475 14.872 240.475 11.4056C240.475 8.0194 243.034 7.89918 244.186 7.89918H251.091C251.16 4.23242 251.16 4.0422 251.423 3.2808C251.873 2.09862 252.908 1.41725 254.646 1.40723C258.436 1.40723 258.436 3.80169 258.436 5.21429C258.436 5.44472 258.436 6.46676 258.367 7.87936H265.722L265.712 7.85931Z" stroke="#386F6B" stroke-width="0.631164"/>
<path d="M291.74 4.74291C291.74 3.26017 292.14 1.31666 295.373 1.30664C297.639 1.30664 299.084 2.1381 299.084 4.73288V6.33593H305.364C308.851 6.33593 310.746 7.69836 310.756 11.5054C310.756 16.3844 309.662 24.4192 303.763 29.5687C300.276 32.6243 295.939 34.3376 291.476 35.2193C290.402 35.4497 289.171 35.64 288.243 35.64C285.313 35.64 284.678 32.9448 284.678 31.6825C284.678 29.1278 286.573 28.747 287.462 28.5967C292.365 27.7552 295.295 27.2542 298.664 24.5492C302.376 21.5336 303.255 16.6647 303.255 14.0298C303.255 13.8395 303.255 13.2285 302.395 13.2285L288.399 13.2486C287.843 13.2486 287.55 13.5894 287.55 14.1604V18.3879C287.55 20.2914 286.739 21.8144 283.995 21.8245C281.992 21.8245 280.361 21.1032 280.352 18.3982V11.9664C280.342 7.35793 282.754 6.36602 285.753 6.36602H291.73V4.76296L291.74 4.74291Z" stroke="#386F6B" stroke-width="0.631164"/>
<path d="M330.138 6.70693C332.59 8.22974 333.703 9.10128 333.703 10.8946C333.703 12.6879 332.111 15.2725 329.845 15.2826C329.289 15.2826 328.771 15.1727 327.618 14.4113C324.278 12.2073 323.604 11.7161 320.782 10.1933C319.405 9.43194 318.145 8.7106 318.145 6.92731C318.145 4.68317 319.961 2.92994 322.071 2.91992C323.594 2.91992 328.644 5.80528 330.128 6.71696L330.138 6.70693ZM338.147 29.2385C331.955 33.5464 323.936 34.6684 322.862 34.6684C320.078 34.6684 319.297 32.0435 319.297 30.3704C319.297 27.435 321.26 27.0146 323.194 26.7441C332.883 25.3616 338.665 21.5443 342.591 11.4858C342.776 11.0249 343.402 9.0813 343.548 8.7006C343.919 7.78892 344.398 6.6069 346.332 6.6069C348.48 6.6069 350.531 7.66884 350.531 10.1033C350.531 11.3957 347.582 22.7064 338.157 29.2385H338.147Z" stroke="#386F6B" stroke-width="0.631164"/>
<path d="M367.485 31.9434C367.485 33.1656 367.417 35.7504 363.706 35.7604C360.072 35.7604 359.877 33.3657 359.877 31.9531L359.848 5.07374C359.848 3.89156 359.877 1.22656 363.627 1.22656C367.231 1.22656 367.456 3.58098 367.456 5.06372V10.4335C373.589 12.367 379.127 15.0623 380.905 16.0141C383.171 17.1862 384.099 18.1377 384.099 19.9711C384.099 21.7944 382.809 24.4696 380.319 24.4696C379.205 24.4696 379.059 24.3593 375.308 22.1152C374.234 21.474 370.816 19.5303 367.466 18.2379L367.485 31.9434Z" stroke="#386F6B" stroke-width="0.631164"/>
</svg>
