<svg width="121" height="175" viewBox="0 0 121 175" fill="none" xmlns="http://www.w3.org/2000/svg">
<path d="M9.65735 3.43687C8.10443 3.43687 6.65898 4.08791 6.28784 5.78103H3.21127C1.55091 5.78103 0.632812 4.88953 0.632812 3.16635C0.632812 1.44317 1.58021 0.601562 3.21127 0.601562H16.1328C17.7638 0.601562 18.7112 1.46321 18.7112 3.16635C18.7112 4.86949 17.7931 5.78103 16.1328 5.78103H13.0562C12.6655 4.07789 11.2689 3.43687 9.65735 3.43687ZM6.81517 6.83278C6.81517 4.91925 7.91888 4.0777 9.68668 4.0777C11.4545 4.0777 12.5289 4.96934 12.5289 6.83278V20.6786C12.5289 22.5921 11.474 23.4337 9.68668 23.4337C8.92487 23.4337 8.13379 23.2735 7.52825 22.7625C6.95201 22.2516 6.84447 21.44 6.81517 20.6786V6.83278Z" fill="#236242"/>
<path d="M27.2077 3.0256C27.2077 4.64859 25.8892 6.02087 24.2875 6.02087C22.6857 6.02087 21.3672 4.63857 21.3672 3.0256C21.3672 1.41262 22.6857 0 24.2875 0C25.8892 0 27.2077 1.37255 27.2077 3.0256ZM27.0515 8.31514V20.7883C27.0515 22.7319 26.1041 23.4333 24.3168 23.4333C22.5295 23.4333 21.5528 22.762 21.5528 20.7883V8.31514C21.5528 7.50364 21.7677 6.64236 22.4221 6.13142C22.9983 6.48207 23.6331 6.67246 24.2875 6.67246C24.9418 6.67246 25.606 6.48207 26.1823 6.13142C26.8367 6.64236 27.0515 7.50364 27.0515 8.31514Z" fill="#236242"/>
<path d="M41.2142 12.8038C39.3682 12.8038 37.4734 14.3968 37.4734 16.3705C37.4734 16.9115 37.659 17.3923 37.9227 17.8532L36.6628 19.0654V20.7888C36.6628 22.8926 35.4224 23.4338 33.8988 23.4338C32.1603 23.4338 31.1641 22.7023 31.1641 20.7888V2.67529C31.1641 0.731703 32.1896 0.0302734 33.9769 0.0302734C35.7642 0.0302734 36.6628 0.891999 36.6628 2.67529V11.3113L41.6145 6.64256C42.1419 6.15166 42.6889 5.67104 43.4605 5.67104C44.9841 5.67104 46.4589 7.15382 46.4589 8.7167C46.4589 9.41799 46.0878 10.0888 45.5897 10.5497L42.7182 13.2749C42.2982 12.9243 41.7709 12.794 41.2142 12.794V12.8038ZM38.8212 18.0939C38.4794 17.5829 38.1083 17.0116 38.1083 16.3705C38.1083 14.7475 39.7393 13.4554 41.2434 13.4554C42.0052 13.4554 42.6889 13.966 43.1089 14.5571L46.1854 19.1456C46.4784 19.5463 46.6836 20.1174 46.6836 20.6283C46.6836 22.1912 45.0232 23.4338 43.607 23.4338C42.5522 23.4338 42.0248 22.8423 41.4779 22.0308L38.8212 18.0939Z" fill="#236242"/>
<path d="M57.1925 3.43687C55.6396 3.43687 54.194 4.08791 53.8229 5.78103H50.7464C49.0861 5.78103 48.168 4.88953 48.168 3.16635C48.168 1.44317 49.1154 0.601562 50.7464 0.601562H63.6679C65.299 0.601562 66.2464 1.46321 66.2464 3.16635C66.2464 4.86949 65.3283 5.78103 63.6679 5.78103H60.5913C60.2007 4.07789 58.804 3.43687 57.1925 3.43687ZM54.3503 6.83278C54.3503 4.91925 55.454 4.0777 57.2218 4.0777C58.9896 4.0777 60.0639 4.96934 60.0639 6.83278V20.6786C60.0639 22.5921 59.0092 23.4337 57.2218 23.4337C56.46 23.4337 55.6688 23.2735 55.0633 22.7625C54.487 22.2516 54.3796 21.44 54.3503 20.6786V6.83278Z" fill="#236242"/>
<path d="M79.3278 13.5854C81.0077 13.5854 82.3849 12.5833 82.7462 10.8602C83.1955 12.0223 83.4005 13.2349 83.4005 14.4772C83.4005 16.8215 82.7168 19.1156 81.1639 20.8488C79.484 22.7122 77.3451 23.4434 74.9034 23.4434C72.4617 23.4434 70.3521 22.7122 68.6624 20.8488C67.1095 19.1256 66.4258 16.8511 66.4258 14.5569C66.4258 12.2627 67.1095 9.99872 68.6624 8.26553C70.3423 6.40209 72.4813 5.6709 74.9034 5.6709C77.4819 5.6709 79.9821 6.56237 81.535 8.74639C81.9062 9.25734 82.1699 9.8286 82.1699 10.4698C82.1699 12.0327 80.5877 12.924 79.2496 12.924C78.3804 12.924 77.726 12.5433 77.1693 11.9021C76.5344 11.1207 75.9583 10.5495 74.9034 10.5495C72.8719 10.5495 72.1101 12.7939 72.1101 14.5471C72.1101 16.3004 72.8719 18.5442 74.9034 18.5442C76.9349 18.5442 77.7163 16.4406 77.7163 14.7374C77.7163 14.1463 77.6381 13.5751 77.5307 13.0341C78.0581 13.4148 78.6637 13.5751 79.3181 13.5751L79.3278 13.5854Z" fill="#236242"/>
<path d="M96.5149 12.8038C94.669 12.8038 92.7742 14.3968 92.7742 16.3705C92.7742 16.9115 92.9598 17.3923 93.2235 17.8532L91.9636 19.0654V20.7888C91.9636 22.8926 90.7232 23.4338 89.1996 23.4338C87.4611 23.4338 86.4648 22.7023 86.4648 20.7888V2.67529C86.4648 0.731703 87.4904 0.0302734 89.2777 0.0302734C91.065 0.0302734 91.9636 0.891999 91.9636 2.67529V11.3113L96.9153 6.64256C97.4427 6.15166 97.9897 5.67104 98.7612 5.67104C100.285 5.67104 101.76 7.15382 101.76 8.7167C101.76 9.41799 101.389 10.0888 100.89 10.5497L98.019 13.2749C97.599 12.9243 97.0717 12.794 96.5149 12.794V12.8038ZM94.122 18.0939C93.7802 17.5829 93.409 17.0116 93.409 16.3705C93.409 14.7475 95.0401 13.4554 96.5442 13.4554C97.306 13.4554 97.9897 13.966 98.4097 14.5571L101.486 19.1456C101.779 19.5463 101.984 20.1174 101.984 20.6283C101.984 22.1912 100.324 23.4338 98.9078 23.4338C97.853 23.4338 97.3256 22.8423 96.7787 22.0308L94.122 18.0939Z" fill="#236242"/>
<path d="M58.4328 174.022C90.3549 174.022 116.233 147.477 116.233 114.733C116.233 81.9883 90.3549 55.4434 58.4328 55.4434C26.5107 55.4434 0.632812 81.9883 0.632812 114.733C0.632812 147.477 26.5107 174.022 58.4328 174.022Z" fill="white" stroke="#236242" stroke-width="1.26233" stroke-linecap="round" stroke-linejoin="round"/>
<path d="M58.4313 145.018C74.7376 145.018 87.9566 131.459 87.9566 114.733C87.9566 98.0062 74.7376 84.4463 58.4313 84.4463C42.1251 84.4463 28.9062 98.0062 28.9062 114.733C28.9062 131.459 42.1251 145.018 58.4313 145.018Z" fill="black"/>
<path d="M58.4322 93.0547C52.6893 93.0547 51.9764 93.0846 49.7202 93.1848C47.4739 93.285 45.9307 93.6559 44.5927 94.1969C43.2058 94.7479 42.0239 95.4893 40.8519 96.7015C39.6799 97.9038 38.9571 99.1156 38.4102 100.538C37.8828 101.921 37.5312 103.494 37.4237 105.798C37.3261 108.112 37.2969 108.854 37.2969 114.735C37.2969 120.616 37.3261 121.367 37.4237 123.671C37.5214 125.975 37.8828 127.558 38.4102 128.931C38.9474 130.354 39.6701 131.566 40.8519 132.768C42.0239 133.97 43.2058 134.712 44.5927 135.273C45.9405 135.814 47.4739 136.174 49.7202 136.284C51.9764 136.384 52.6991 136.414 58.4322 136.414C64.1653 136.414 64.8979 136.384 67.1442 136.284C69.3906 136.184 70.9338 135.814 72.2718 135.273C73.6587 134.722 74.8404 133.98 76.0125 132.768C77.1845 131.566 77.9072 130.354 78.4542 128.931C78.9816 127.548 79.3332 125.975 79.4406 123.671C79.5383 121.357 79.5676 120.616 79.5676 114.735C79.5676 108.854 79.5383 108.112 79.4406 105.798C79.343 103.494 78.9816 101.911 78.4542 100.538C77.917 99.1156 77.1943 97.9038 76.0125 96.7015C74.8404 95.4993 73.6587 94.758 72.2718 94.1969C70.924 93.6559 69.3906 93.295 67.1442 93.1848C64.8881 93.0846 64.1653 93.0547 58.4322 93.0547Z" fill="black"/>
<path d="M70.9952 108.012C67.4694 108.012 64.6077 105.077 64.6077 101.46H59.8219V120.475C59.8219 122.689 58.0736 124.482 55.9152 124.482C53.7567 124.482 52.0084 122.689 52.0084 120.475C52.0084 118.261 53.7567 116.468 55.9152 116.468C56.3156 116.468 56.7746 116.527 57.1458 116.648V111.638C56.7453 111.578 56.3351 111.548 55.9152 111.548C51.1099 111.548 47.2227 115.546 47.2227 120.465C47.2227 125.384 51.1196 129.381 55.9152 129.381C60.7107 129.381 64.6077 125.384 64.6077 120.465V110.396C66.3461 111.849 68.573 112.731 70.9952 112.731V108.002V108.012Z" fill="#E73656"/>
<path d="M69.6358 106.62C66.11 106.62 63.2483 103.684 63.2483 100.067H58.4625V119.082C58.4625 121.297 56.7142 123.09 54.5558 123.09C52.3973 123.09 50.649 121.297 50.649 119.082C50.649 116.868 52.3973 115.075 54.5558 115.075C54.9562 115.075 55.4153 115.135 55.7864 115.255V110.246C55.386 110.186 54.9758 110.156 54.5558 110.156C49.7505 110.156 45.8633 114.153 45.8633 119.072C45.8633 123.991 49.7603 127.989 54.5558 127.989C59.3513 127.989 63.2483 123.991 63.2483 119.072V109.004C64.9868 110.456 67.2136 111.338 69.6358 111.338V106.609V106.62Z" fill="#00AEBB"/>
<path d="M69.6356 107.861C68.0925 107.521 66.7544 106.599 65.8461 105.347C64.6155 104.415 63.7267 103.043 63.3946 101.46H59.8199V120.475C59.8199 122.689 58.0717 124.482 55.9132 124.482C54.4872 124.482 53.237 123.701 52.5631 122.529C51.4204 121.827 50.6586 120.555 50.6586 119.092C50.6586 116.878 52.4069 115.085 54.5654 115.085C54.9658 115.085 55.4249 115.145 55.796 115.265V111.568C51.0493 111.639 47.2305 115.606 47.2305 120.485C47.2305 122.589 47.9435 124.532 49.1351 126.055C50.6196 127.277 52.5143 128.009 54.5654 128.009C59.3706 128.009 63.2579 124.011 63.2579 119.092V109.024C64.9964 110.476 67.2232 111.358 69.6454 111.358V107.872L69.6356 107.861Z" fill="white"/>
</svg>
