<svg width="117" height="178" viewBox="0 0 117 178" fill="none" xmlns="http://www.w3.org/2000/svg">
<path d="M63.6173 15.6588C63.6173 17.2317 62.2695 19.0953 60.111 19.0953C59.652 19.0953 59.0366 18.9649 58.6069 18.6844L53.284 25.7472C52.5417 26.729 51.7799 27.3605 50.481 27.3605C48.7327 27.3605 47.0039 25.8173 47.0039 23.9538C47.0039 23.2626 47.2481 22.6315 47.6486 22.0905L53.9189 13.7651C54.5049 14.1158 55.2081 14.2661 55.882 14.2661C58.0698 14.2661 60.1208 12.4027 60.1208 10.0684C60.1208 9.24685 59.8474 8.42554 59.32 7.76432L58.8608 7.16311L63.0411 1.61284C63.8127 0.631027 64.5452 0 65.8344 0C67.5826 0 69.3114 1.51269 69.3114 3.40618C69.3114 4.0674 69.0672 4.72848 68.6668 5.26948L62.6114 13.3146C63.1681 14.0059 63.5979 14.7373 63.5979 15.649L63.6173 15.6588ZM48.1564 5.28954C47.756 4.74854 47.5411 4.11751 47.5411 3.42624C47.5411 1.5628 49.2308 0.0200565 51.0182 0.0200565C52.3074 0.0200565 53.0497 0.651083 53.8213 1.63289L58.773 8.25497C59.1734 8.79596 59.4176 9.42748 59.4176 10.1188C59.4176 11.9822 57.6986 13.5249 55.9406 13.5249C54.6221 13.5249 53.9091 12.8936 53.1375 11.8818L48.1564 5.28954ZM60.0817 19.8564C62.2988 19.8564 64.3205 18.0229 64.3889 15.6886L69.2138 22.0905C69.6142 22.6315 69.8583 23.2525 69.8583 23.9538C69.8583 25.8173 68.1394 27.3605 66.352 27.3605C65.0628 27.3605 64.3206 26.729 63.5881 25.7472L59.0074 19.696C59.3785 19.7862 59.7106 19.8564 60.0817 19.8564Z" fill="#236242"/>
<path d="M58.4329 176.939C90.355 176.939 116.233 150.394 116.233 117.65C116.233 84.9053 90.355 58.3604 58.4329 58.3604C26.5108 58.3604 0.632812 84.9053 0.632812 117.65C0.632812 150.394 26.5108 176.939 58.4329 176.939Z" fill="white" stroke="#236242" stroke-width="1.26233" stroke-linecap="round" stroke-linejoin="round"/>
<path d="M58.4313 147.934C74.7376 147.934 87.9564 134.375 87.9564 117.649C87.9564 100.922 74.7376 87.3623 58.4313 87.3623C42.1251 87.3623 28.9062 100.922 28.9062 117.649C28.9062 134.375 42.1251 147.934 58.4313 147.934Z" fill="black"/>
<path d="M58.4342 96.3799C52.8085 96.3799 52.0955 96.4003 49.8882 96.5105C47.6809 96.6107 46.1768 96.9711 44.8583 97.5021C43.4909 98.0431 42.3384 98.7746 41.1859 99.9568C40.0334 101.139 39.3205 102.321 38.7931 103.724C38.2852 105.076 37.9336 106.619 37.8262 108.883C37.7285 111.148 37.6992 111.879 37.6992 117.65C37.6992 123.42 37.7188 124.152 37.8262 126.416C37.9239 128.68 38.2755 130.223 38.7931 131.575C39.3205 132.978 40.0334 134.16 41.1859 135.342C42.3384 136.524 43.4909 137.256 44.8583 137.797C46.1768 138.318 47.6809 138.678 49.8882 138.788C52.0955 138.888 52.8085 138.919 58.4342 138.919C64.0599 138.919 64.7728 138.898 66.9801 138.788C69.1874 138.688 70.6916 138.328 72.0101 137.797C73.3774 137.256 74.5299 136.524 75.6824 135.342C76.8349 134.16 77.5478 132.978 78.0752 131.575C78.5831 130.223 78.9347 128.68 79.0422 126.416C79.1398 124.152 79.1691 123.42 79.1691 117.65C79.1691 111.879 79.1496 111.148 79.0422 108.883C78.9445 106.619 78.5929 105.076 78.0752 103.724C77.5478 102.321 76.8349 101.139 75.6824 99.9568C74.5299 98.7746 73.3774 98.0431 72.0101 97.5021C70.6916 96.9811 69.1874 96.6207 66.9801 96.5105C64.7728 96.4103 64.0599 96.3799 58.4342 96.3799Z" fill="black"/>
<path d="M60.8026 115.657L70.0616 104.616H67.864L59.826 114.204L53.3993 104.616H45.9961L55.7043 119.113L45.9961 130.694H48.1936L56.6809 120.566L63.4592 130.694H70.8624L60.7929 115.657H60.8026ZM57.7944 119.243L56.8079 117.801L48.9749 106.309H52.3445L58.6636 115.576L59.6501 117.019L67.864 129.071H64.4944L57.7944 119.233V119.243Z" fill="white"/>
</svg>
