<svg preserveAspectRatio="none" width="100%" height="100%" overflow="visible" style="display: block;" viewBox="0 0 59.47 7.7" fill="none" xmlns="http://www.w3.org/2000/svg">
<g id="Group">
<path id="Vector" d="M3.03 4.67C3.03 4.67 3.03 4.61 3.03 4.6C3.03 4.34 3.29 4.11 3.59 4.11H3.64C3.75 4.02 3.81 3.95 3.81 3.91C3.81 3.89 3.78 3.87 3.72 3.87H1.95C1.7 3.87 1.53 3.65 1.53 3.34C1.53 3.03 1.71 2.81 1.95 2.81H5.3C5.64 2.81 5.9 3.03 5.9 3.31C5.9 3.65 5.49 3.99 4.32 4.67H7.04C7.3 4.67 7.49 4.9 7.49 5.21C7.49 5.52 7.3 5.76 7.04 5.76H4.59C4.59 5.87 4.61 5.96 4.61 6.06C4.61 6.55 4.53 6.95 4.37 7.21C4.16 7.55 3.85 7.7 3.29 7.7C2.94 7.7 2.44 7.64 2.2 7.57C1.94 7.5 1.79 7.3 1.79 7.03C1.79 6.69 1.99 6.45 2.26 6.45C2.32 6.45 2.36 6.45 2.48 6.48C2.66 6.53 2.86 6.55 3 6.55C3.26 6.55 3.34 6.37 3.34 5.85V5.79C3.34 5.79 3.34 5.77 3.34 5.76H0.439999C0.179999 5.76 0 5.54 0 5.21C0 4.88 0.179999 4.67 0.439999 4.67H3.06H3.03ZM4.9 1.37C5.05 1.11 5.2 0.779998 5.32 0.489998C5.44 0.189998 5.61 0.0699997 5.88 0.0699997C6.26 0.0699997 6.57 0.33 6.57 0.66C6.57 0.83 6.51 0.949999 6.26 1.37H6.6C7.13 1.37 7.38 1.63 7.38 2.15V3.04C7.38 3.3 7.12 3.5 6.76 3.5C6.4 3.5 6.14 3.31 6.14 3.04V2.55C6.14 2.45 6.09 2.41 6 2.41H1.44C1.34 2.41 1.3 2.46 1.3 2.55V3.03C1.3 3.3 1.04 3.49 0.679998 3.49C0.319998 3.49 0.0599995 3.3 0.0599995 3.03V2.15C0.0599995 1.62 0.32 1.37 0.84 1.37H1.22C1.1 1.15 1.1 1.15 1 1.01C0.94 0.909998 0.9 0.809999 0.9 0.709999C0.9 0.379999 1.23 0.0900002 1.6 0.0900002C1.78 0.0900002 1.93 0.160001 2.04 0.310001C2.27 0.630001 2.38 0.869999 2.38 1.03C2.38 1.15 2.33 1.25 2.24 1.36H3.18L3.14 1.27C3.1 1.16 3.08 1.1 2.96 0.880001C2.9 0.770001 2.87 0.68 2.87 0.59C2.87 0.29 3.19 0.0400009 3.55 0.0400009C3.77 0.0400009 3.95 0.14 4.05 0.34C4.23 0.65 4.33 0.92 4.33 1.07C4.33 1.18 4.3 1.28 4.23 1.37H4.9Z" fill="var(--fill-0, white)"/>
<path id="Vector_2" d="M11.11 1.69V0.650002C11.11 0.350002 11.39 0.150002 11.8 0.150002C12.21 0.150002 12.49 0.350002 12.49 0.650002V1.69H14.62C14.91 1.69 15.12 1.96 15.12 2.34C15.12 2.72 14.91 2.97 14.62 2.97H12.49V3.92H14.23C14.49 3.92 14.69 4.19 14.69 4.55C14.69 4.91 14.49 5.18 14.23 5.18H12.49V6.16H14.96C15.26 6.16 15.46 6.43 15.46 6.82C15.46 7.21 15.26 7.48 14.96 7.48H8.51C8.21 7.48 8.01 7.21 8.01 6.82C8.01 6.43 8.22 6.16 8.51 6.16H11.12V5.18H9.33C9.07 5.18 8.87 4.92 8.87 4.55C8.87 4.18 9.06 3.92 9.33 3.92H11.12V2.97H9.77C9.63 3.23 9.5 3.45 9.37 3.63C9.2 3.87 8.95 4.01 8.71 4.01C8.34 4.01 8.05 3.71 8.05 3.34C8.05 3.15 8.1 3.03 8.24 2.81C8.62 2.25 8.97 1.54 9.13 1.02C9.24 0.67 9.48 0.48 9.8 0.48C10.17 0.48 10.46 0.759998 10.46 1.1C10.46 1.25 10.43 1.4 10.33 1.68H11.13L11.11 1.69Z" fill="var(--fill-0, white)"/>
<path id="Vector_3" d="M20.29 6.89C20.29 7.22 20 7.45 19.59 7.45C19.18 7.45 18.88 7.22 18.88 6.89V3.84C18.02 4.35 16.92 4.83 16.59 4.83C16.25 4.83 15.97 4.51 15.97 4.12C15.97 3.93 16.04 3.75 16.18 3.64C16.2267 3.6 16.35 3.54333 16.55 3.47C18.09 2.9 19.6 1.88 20.88 0.529999C21.01 0.389999 21.14 0.32 21.32 0.32C21.7 0.32 22.06 0.64 22.06 0.98C22.06 1.14 22.01 1.23 21.84 1.42C21.45 1.85 20.94 2.32 20.3 2.84V6.89H20.29Z" fill="var(--fill-0, white)"/>
<path id="Vector_4" d="M25.58 1.27C25.7 1.31 25.88 1.39 25.93 1.41C26.16 1.52 26.3 1.75 26.3 2.01C26.3 2.38 26 2.69 25.64 2.69C25.53 2.69 25.46 2.67 25.26 2.59C24.76 2.37 23.97 2.12 23.47 2.01C23.22 1.95 23.07 1.73 23.07 1.43C23.07 1.03 23.33 0.77 23.7 0.77C23.94 0.77 24.9 1.03 25.59 1.27H25.58ZM29.67 2.2C29.67 2.53 29.25 3.84 28.93 4.44C28.36 5.55 27.49 6.3 26.25 6.73C25.69 6.93 25.05 7.07 24.28 7.16C24.09 7.18 23.86 7.21 23.81 7.21C23.48 7.21 23.23 6.91 23.23 6.53C23.23 6.3 23.33 6.08 23.5 5.96C23.5733 5.91333 23.7567 5.87 24.05 5.83C26.62 5.52 27.78 4.48 28.39 1.94C28.45 1.7 28.67 1.56 28.97 1.56C29.35 1.56 29.65 1.83 29.65 2.19L29.67 2.2Z" fill="var(--fill-0, white)"/>
<path id="Vector_5" d="M35.95 1.13C36.6 1.13 36.94 1.4 36.94 1.91C36.94 2.37 36.56 3.56 36.16 4.36C35.58 5.5 34.8 6.3 33.58 6.98C32.96 7.32 32.25 7.59 31.93 7.59C31.59 7.59 31.35 7.29 31.35 6.88C31.35 6.67 31.45 6.5 31.62 6.38C31.7 6.32 31.72 6.32 32.02 6.22C32.82 5.95 33.54 5.53 34.05 5.03C33.65 4.69 33.32 4.45 32.84 4.14C32.64 4.01 32.55 3.86 32.55 3.67C32.55 3.34 32.82 3.05 33.14 3.05C33.42 3.05 34.05 3.42 34.8 4.03C35.14 3.45 35.47 2.64 35.47 2.42C35.47 2.33 35.41 2.31 35.25 2.31H33.17C32.42 3.41 31.42 4.31 30.95 4.31C30.64 4.31 30.37 4 30.37 3.65C30.37 3.5 30.43 3.35 30.55 3.23C30.55 3.23 30.6433 3.15666 30.83 3.01C31.6 2.43 32.25 1.58 32.6 0.709999C32.72 0.419999 32.94 0.27 33.22 0.27C33.61 0.27 33.91 0.489999 33.91 0.779999C33.91 0.879999 33.89 0.990002 33.81 1.15H35.94L35.95 1.13Z" fill="var(--fill-0, white)"/>
<path id="Vector_6" d="M39.88 5.39C39.88 5.8 39.97 5.83 41.06 5.83C41.75 5.83 43.05 5.77 43.73 5.72C43.78 5.72 43.82 5.72 43.84 5.72C44.14 5.72 44.38 5.99 44.38 6.37C44.38 6.67 44.24 6.9 44 6.99C43.83 7.05 42.62 7.1 41.3 7.1C39.74 7.1 39.27 7.04 38.92 6.81C38.61 6.6 38.46 6.25 38.46 5.72V0.989998C38.46 0.659998 38.76 0.43 39.16 0.43C39.56 0.43 39.88 0.659998 39.88 0.989998V2.42C40.89 2.32 41.93 2.16 42.7 1.99C42.8 1.97 42.88 1.96 42.97 1.96C43.38 1.96 43.61 2.22 43.61 2.66C43.61 2.96 43.47 3.12 43.17 3.19C42.47 3.36 41.32 3.52 39.88 3.64V5.4V5.39ZM43.8 0.82C44.03 1.18 44.16 1.44 44.16 1.56C44.16 1.72 44 1.86 43.81 1.86C43.65 1.86 43.58 1.8 43.49 1.63C43.4 1.45 43.24 1.17 43.08 0.939999C43.01 0.839999 42.99 0.800001 42.99 0.720001C42.99 0.540001 43.15 0.400002 43.34 0.400002C43.49 0.400002 43.56 0.46 43.8 0.82ZM44.87 0.419998C45.1 0.779998 45.23 1.04 45.23 1.16C45.23 1.32 45.07 1.46 44.88 1.46C44.72 1.46 44.65 1.4 44.56 1.23C44.47 1.06 44.31 0.770001 44.15 0.540001C44.08 0.440001 44.06 0.4 44.06 0.32C44.06 0.14 44.22 0 44.41 0C44.56 0 44.63 0.0599982 44.87 0.419998Z" fill="var(--fill-0, white)"/>
<path id="Vector_7" d="M51.12 6.02C51.38 6.02 51.58 6.25 51.58 6.57C51.58 6.89 51.39 7.13 51.12 7.13H46.08C45.81 7.13 45.62 6.9 45.62 6.57C45.62 6.24 45.81 6.02 46.08 6.02H48.9C49.02 5.11 49.16 3.76 49.16 3.49C49.16 3.32 49.1 3.27 48.88 3.27H46.76C46.49 3.27 46.3 3.05 46.3 2.72C46.3 2.39 46.49 2.18 46.76 2.18H49.37C50.15 2.18 50.43 2.4 50.43 3C50.43 3.33 50.29 4.77 50.13 6.02H51.11H51.12Z" fill="var(--fill-0, white)"/>
<path id="Vector_8" d="M58.93 3.16C59.23 3.16 59.47 3.44 59.47 3.81C59.47 4.18 59.25 4.48 58.93 4.48H52.84C52.54 4.48 52.3 4.2 52.3 3.82C52.3 3.44 52.53 3.16 52.84 3.16H58.93Z" fill="var(--fill-0, white)"/>
</g>
</svg>
