<svg preserveAspectRatio="none" width="100%" height="100%" overflow="visible" style="display: block;" viewBox="0 0 55.53 7.65" fill="none" xmlns="http://www.w3.org/2000/svg">
<g id="Group">
<path id="Vector" d="M1.81 6.05C1.63 5.27 1.37 4.39 1.17 3.81C1.12 3.67 1.11 3.59 1.11 3.49C1.11 3.11 1.44 2.84 1.92 2.84C2.23 2.84 2.44 2.99 2.55 3.3C2.68 3.64 2.94 4.72 3.15 5.67L3.22 6.04H4.13C4.28 5.58 4.64 4.14 4.79 3.42C4.88 3 5.11 2.8 5.49 2.8C5.95 2.8 6.29 3.09 6.29 3.48C6.29 3.79 5.92 5.06 5.55 6.05H6.97C7.26 6.05 7.47 6.33 7.47 6.71C7.47 7.09 7.26 7.37 6.97 7.37H0.5C0.2 7.37 0 7.1 0 6.71C0 6.32 0.21 6.05 0.5 6.05H1.82H1.81ZM3 1.31V0.549995C3 0.259995 3.29 0.0599976 3.7 0.0599976C4.11 0.0599976 4.4 0.259995 4.4 0.549995V1.31H6.71C6.98 1.31 7.19 1.59 7.19 1.97C7.19 2.35 6.99 2.62 6.71 2.62H0.75C0.46 2.62 0.26 2.36 0.26 1.96C0.26 1.56 0.46 1.3 0.75 1.3H3V1.31Z" fill="var(--fill-0, white)"/>
<path id="Vector_2" d="M12.66 4.43V6H14.96C15.25 6 15.45 6.27 15.45 6.67C15.45 7.07 15.25 7.34 14.96 7.34H8.46C8.16 7.34 7.96 7.07 7.96 6.67C7.96 6.27 8.16 6 8.46 6H8.97V2.96C8.97 2.67 9.24 2.47 9.63 2.47C10.02 2.47 10.31 2.67 10.31 2.96V6H11.29V1.8H8.69C8.4 1.8 8.2 1.53 8.2 1.14C8.2 0.749999 8.4 0.479996 8.69 0.479996H14.73C15.02 0.479996 15.23 0.759999 15.23 1.14C15.23 1.52 15.03 1.8 14.73 1.8H12.65V3.14H14.41C14.7 3.14 14.91 3.42 14.91 3.8C14.91 4.18 14.7 4.43999 14.41 4.43999H12.65L12.66 4.43Z" fill="var(--fill-0, white)"/>
<path id="Vector_3" d="M20.62 3.24C21.04 4.44 21.71 5.23 23.03 6.09C23.29 6.26 23.41 6.45 23.41 6.7C23.41 7.1 23.08 7.43999 22.69 7.43999C22.4 7.43999 22.05 7.24 21.55 6.78C20.76 6.08 20.18 5.24 19.78 4.22C19.48 5.04 19.06 5.72 18.48 6.35C17.86 7 17.08 7.49 16.69 7.49C16.3 7.49 15.99 7.15 15.99 6.76C15.99 6.58 16.07 6.4 16.21 6.28C16.25 6.24667 16.3467 6.18667 16.5 6.1C17.78 5.33 18.47 4.49 18.84 3.23H16.6C16.28 3.23 16.06 2.95 16.06 2.56C16.06 2.17 16.29 1.89 16.6 1.89H19.01V0.709999C19.01 0.389999 19.31 0.159996 19.7 0.159996C20.09 0.159996 20.4 0.389999 20.4 0.709999V1.89H22.87C23.18 1.89 23.41 2.17 23.41 2.56C23.41 2.95 23.19 3.23 22.87 3.23H20.63L20.62 3.24Z" fill="var(--fill-0, white)"/>
<path id="Vector_4" d="M27.04 4.62C27.04 4.62 27.04 4.56 27.04 4.55C27.04 4.29 27.3 4.06 27.6 4.06H27.65C27.76 3.97 27.82 3.9 27.82 3.86C27.82 3.84 27.79 3.82 27.73 3.82H25.96C25.71 3.82 25.54 3.6 25.54 3.29C25.54 2.98 25.72 2.76 25.96 2.76H29.31C29.65 2.76 29.91 2.98 29.91 3.26C29.91 3.6 29.5 3.94 28.33 4.62H31.05C31.31 4.62 31.5 4.85 31.5 5.16C31.5 5.47 31.31 5.71 31.05 5.71H28.6C28.6 5.82 28.62 5.91 28.62 6.01C28.62 6.5 28.54 6.9 28.38 7.16C28.17 7.5 27.86 7.65 27.3 7.65C26.95 7.65 26.45 7.59 26.2 7.52C25.94 7.45 25.79 7.25 25.79 6.98C25.79 6.64 25.99 6.4 26.26 6.4C26.32 6.4 26.36 6.4 26.48 6.43C26.66 6.48 26.86 6.5 27 6.5C27.26 6.5 27.34 6.32 27.34 5.8V5.74C27.34 5.74 27.34 5.72 27.34 5.71H24.44C24.18 5.71 24 5.49 24 5.16C24 4.83 24.18 4.62 24.44 4.62H27.06H27.04ZM28.9 1.33C29.05 1.07 29.2 0.739997 29.32 0.449997C29.44 0.149997 29.61 0.0299988 29.88 0.0299988C30.26 0.0299988 30.57 0.289995 30.57 0.619995C30.57 0.789995 30.51 0.910002 30.26 1.33H30.6C31.13 1.33 31.38 1.59 31.38 2.11V3C31.38 3.26 31.12 3.46 30.76 3.46C30.4 3.46 30.14 3.27 30.14 3V2.51C30.14 2.41 30.09 2.37 30 2.37H25.44C25.34 2.37 25.3 2.42 25.3 2.51V2.99C25.3 3.26 25.04 3.45 24.68 3.45C24.32 3.45 24.06 3.26 24.06 2.99V2.11C24.06 1.58 24.32 1.33 24.84 1.33H25.22C25.1 1.11 25.1 1.11 25 0.970001C24.94 0.870001 24.9 0.769998 24.9 0.669998C24.9 0.339998 25.23 0.0499954 25.6 0.0499954C25.78 0.0499954 25.93 0.119997 26.04 0.269997C26.27 0.589997 26.38 0.829998 26.38 0.989998C26.38 1.11 26.33 1.21 26.24 1.32H27.18L27.14 1.23C27.1 1.12 27.08 1.06 26.96 0.839996C26.9 0.729996 26.87 0.639995 26.87 0.549995C26.87 0.249995 27.19 0 27.55 0C27.77 0 27.95 0.0999954 28.05 0.299995C28.23 0.609995 28.33 0.879999 28.33 1.03C28.33 1.14 28.3 1.24 28.23 1.33H28.9Z" fill="var(--fill-0, white)"/>
<path id="Vector_5" d="M38.29 2.46C38 3.5 37.42 4.59 36.75 5.33C37.28 5.66 37.88 5.89 38.8 6.13C39.22 6.23 39.45 6.47 39.45 6.81C39.45 6.95 39.41 7.1 39.34 7.23C39.21 7.47 39.01 7.58 38.74 7.58C38.6 7.58 38.48 7.56 38.24 7.49C37.35 7.25 36.56 6.85 35.77 6.24C34.95 6.85 34.15 7.26 33.32 7.5C33.03 7.59 32.82 7.63 32.69 7.63C32.27 7.63 31.96 7.31 31.96 6.88C31.96 6.63 32.1 6.43 32.34 6.32C32.38 6.3 32.5 6.26333 32.7 6.21C33.38 6.02 34.16 5.67 34.75 5.27C34.11 4.53 33.56 3.53 33.19 2.45H32.51C32.24 2.45 32.05 2.19 32.05 1.83C32.05 1.47 32.23 1.21 32.51 1.21H35.04V0.540001C35.04 0.260001 35.32 0.0699997 35.72 0.0699997C36.12 0.0699997 36.42 0.260001 36.42 0.540001V1.21H38.95C39.21 1.21 39.4 1.47 39.4 1.83C39.4 2.19 39.22 2.45 38.95 2.45H38.31L38.29 2.46ZM34.52 2.46C34.81 3.24 35.21 3.9 35.73 4.46C36.25 3.89 36.64 3.24 36.92 2.46H34.52Z" fill="var(--fill-0, white)"/>
<path id="Vector_6" d="M43.04 4.62C43.04 4.62 43.04 4.56 43.04 4.55C43.04 4.29 43.3 4.06 43.6 4.06H43.65C43.76 3.97 43.82 3.9 43.82 3.86C43.82 3.84 43.79 3.82 43.73 3.82H41.96C41.71 3.82 41.54 3.6 41.54 3.29C41.54 2.98 41.72 2.76 41.96 2.76H45.31C45.65 2.76 45.91 2.98 45.91 3.26C45.91 3.6 45.5 3.94 44.33 4.62H47.05C47.31 4.62 47.5 4.85 47.5 5.16C47.5 5.47 47.31 5.71 47.05 5.71H44.6C44.6 5.82 44.62 5.91 44.62 6.01C44.62 6.5 44.54 6.9 44.38 7.16C44.17 7.5 43.86 7.65 43.3 7.65C42.95 7.65 42.45 7.59 42.2 7.52C41.94 7.45 41.79 7.25 41.79 6.98C41.79 6.64 41.99 6.4 42.26 6.4C42.32 6.4 42.36 6.4 42.48 6.43C42.66 6.48 42.86 6.5 43 6.5C43.26 6.5 43.34 6.32 43.34 5.8V5.74C43.34 5.74 43.34 5.72 43.34 5.71H40.44C40.18 5.71 40 5.49 40 5.16C40 4.83 40.18 4.62 40.44 4.62H43.06H43.04ZM44.9 1.33C45.05 1.07 45.2 0.739997 45.32 0.449997C45.44 0.149997 45.61 0.0299988 45.88 0.0299988C46.26 0.0299988 46.57 0.289995 46.57 0.619995C46.57 0.789995 46.51 0.910002 46.26 1.33H46.6C47.13 1.33 47.38 1.59 47.38 2.11V3C47.38 3.26 47.12 3.46 46.76 3.46C46.4 3.46 46.14 3.27 46.14 3V2.51C46.14 2.41 46.09 2.37 46 2.37H41.44C41.34 2.37 41.3 2.42 41.3 2.51V2.99C41.3 3.26 41.04 3.45 40.68 3.45C40.32 3.45 40.06 3.26 40.06 2.99V2.11C40.06 1.58 40.32 1.33 40.84 1.33H41.22C41.1 1.11 41.1 1.11 41 0.970001C40.94 0.870001 40.9 0.769998 40.9 0.669998C40.9 0.339998 41.23 0.0499954 41.6 0.0499954C41.78 0.0499954 41.93 0.119997 42.04 0.269997C42.27 0.589997 42.38 0.829998 42.38 0.989998C42.38 1.11 42.33 1.21 42.24 1.32H43.18L43.14 1.23C43.1 1.12 43.08 1.06 42.96 0.839996C42.9 0.729996 42.87 0.639995 42.87 0.549995C42.87 0.249995 43.19 0 43.55 0C43.77 0 43.95 0.0999954 44.05 0.299995C44.23 0.609995 44.33 0.879999 44.33 1.03C44.33 1.14 44.3 1.24 44.23 1.33H44.9Z" fill="var(--fill-0, white)"/>
<path id="Vector_7" d="M49.51 0.830002V0.449997C49.51 0.229997 49.77 0.0699997 50.11 0.0699997C50.45 0.0699997 50.71 0.229997 50.71 0.449997V0.830002H51.84C52.06 0.830002 52.22 1.07 52.22 1.39C52.22 1.71 52.06 1.93 51.84 1.93H51.76C51.67 2.29 51.62 2.52 51.54 2.79H51.9C52.1 2.79 52.27 3.05 52.27 3.37C52.27 3.69 52.11 3.93 51.9 3.93H48.29C48.07 3.93 47.92 3.7 47.92 3.37C47.92 3.04 48.08 2.79 48.29 2.79H48.7C48.64 2.49 48.57 2.26 48.48 1.93H48.36C48.15 1.93 48 1.71 48 1.39C48 1.07 48.15 0.830002 48.36 0.830002H49.52H49.51ZM51.29 4.31C51.76 4.31 51.99 4.55 51.99 5.04V6.78C51.99 7.28 51.76 7.53 51.28 7.53H48.93C48.45 7.53 48.22 7.28 48.22 6.78V5.04C48.22 4.56 48.46 4.31 48.93 4.31H51.29ZM49.38 6.28C49.38 6.38 49.44 6.43999 49.53 6.43999H50.68C50.78 6.43999 50.83 6.38 50.83 6.27V5.53C50.83 5.44 50.77 5.38 50.69 5.38H49.53C49.43 5.38 49.38 5.44 49.38 5.53V6.27V6.28ZM49.56 1.93999C49.56 1.93999 49.58 2 49.59 2.06C49.65 2.25 49.73 2.62 49.77 2.8H50.44C50.51 2.55 50.59 2.24999 50.65 1.93999H49.56ZM53.54 7.18C53.54 7.47 53.32 7.64 52.96 7.64C52.6 7.64 52.38 7.46 52.38 7.18V1.07C52.38 0.61 52.61 0.369995 53.08 0.369995H54.74C55.17 0.369995 55.4 0.59 55.4 1C55.4 1.3 55.16 2.32 54.94 3.01C54.9 3.12 54.88 3.2 54.88 3.26C54.88 3.34 54.9 3.4 54.98 3.52C55.36 4.08 55.53 4.68 55.53 5.4C55.53 6.38 55.26 6.77 54.58 6.77C54.37 6.77 53.97 6.74 53.86 6.71C53.71 6.68 53.6 6.58999 53.53 6.43999V7.18H53.54ZM53.54 5.77C53.62 5.6 53.75 5.51 53.91 5.51H54.09C54.09 5.51 54.16 5.53 54.19 5.53C54.35 5.53 54.4 5.44 54.4 5.15C54.4 4.66 54.26 4.19 53.96 3.74C53.84 3.56 53.8 3.46 53.8 3.34C53.8 3.27 53.82 3.18 53.87 3.04C53.97 2.74 54.18 1.84 54.18 1.67C54.18 1.61 54.14 1.57 54.04 1.57H53.66C53.57 1.57 53.54 1.61 53.54 1.71V5.75V5.77Z" fill="var(--fill-0, white)"/>
</g>
</svg>
