<svg preserveAspectRatio="none" width="100%" height="100%" overflow="visible" style="display: block;" viewBox="0 0 32.57 8.49" fill="none" xmlns="http://www.w3.org/2000/svg">
<g id="Group">
<path id="Vector" d="M2.01 2.75L2.14 4.29V7.34C2.14 7.71 2.04 8.23 1.21 8.23C0.430003 8.23 0.25 7.84 0.25 7.34V1.21C0.25 0.59 0.550001 0.25 1.45 0.25C2.47 0.25 2.91 0.380001 3.05 1.2L3.88 6.2C3.91 6.35 3.93 6.37 3.96 6.37C4.02 6.37 4.03 6.33 4.05 6.2L4.88 1.2C5 0.470001 5.38 0.25 6.3 0.25C7.16 0.25 7.68 0.39 7.68 1.21V7.34C7.68 7.57 7.68 8.23 6.74 8.23C6.13 8.23 5.78 7.99 5.78 7.34V4.29L5.92 2.75H5.9L5.12 7.47C5.01 8.16 4.29 8.23 3.98 8.23C3.7 8.23 2.94 8.18 2.82 7.47L2.04 2.74H2.02L2.01 2.75Z" stroke="var(--stroke-0, #386F6B)" stroke-width="0.5"/>
<path id="Vector_2" d="M14.42 3.3C14.95 3.3 15.25 3.57 15.25 4.16C15.25 4.55 15.15 5.03 14.42 5.03H11.98V6.03C11.98 6.16 12.04 6.22 12.16 6.22H14.92C15.17 6.22 15.77 6.25 15.77 7.12C15.77 7.78 15.44 8.03 14.92 8.03H11.33C10.34 8.03 9.94 7.61 9.94 6.64V1.85C9.94 0.74 10.5 0.46 11.33 0.46H14.71C15.1 0.46 15.55 0.61 15.55 1.37C15.55 2.04 15.2 2.28 14.71 2.28H12.16C12.03 2.28 11.98 2.35 11.98 2.46V3.3H14.42Z" stroke="var(--stroke-0, #386F6B)" stroke-width="0.5"/>
<path id="Vector_3" d="M21.77 1.15C21.77 0.900001 21.79 0.26 22.78 0.26C23.45 0.26 23.82 0.500001 23.82 1.15V7.35C23.82 7.91 23.44 8.24 22.48 8.24C21.99 8.24 21.31 8.19 21.08 7.53L19.54 3.08H19.52L19.63 3.82V7.34C19.63 7.59 19.61 8.23 18.62 8.23C17.95 8.23 17.58 7.99 17.58 7.34V1.15C17.58 0.580001 17.96 0.25 18.92 0.25C19.42 0.25 20.08 0.29 20.31 0.96L21.86 5.41H21.88L21.77 4.67V1.15Z" stroke="var(--stroke-0, #386F6B)" stroke-width="0.5"/>
<path id="Vector_4" d="M30.27 1.15C30.27 0.900001 30.29 0.26 31.28 0.26C31.95 0.26 32.32 0.500001 32.32 1.15V5.19C32.32 6.14 32.09 7.04 31.32 7.61C30.68 8.08 29.92 8.23 29.19 8.23C28.01 8.23 27.11 7.78 26.63 7.18C26.25 6.69 26.08 5.96 26.08 5.2V1.15C26.08 0.900001 26.1 0.26 27.09 0.26C27.76 0.26 28.13 0.500001 28.13 1.15V5.14C28.13 5.47 28.13 6.4 29.2 6.4C30.27 6.4 30.27 5.45 30.27 5.14V1.15Z" stroke="var(--stroke-0, #386F6B)" stroke-width="0.5"/>
</g>
</svg>
