<svg preserveAspectRatio="none" width="100%" height="100%" overflow="visible" style="display: block;" viewBox="0 0 104 25" fill="none" xmlns="http://www.w3.org/2000/svg">
<g id="menu-header 1" clip-path="url(#clip0_2829_2845)">
<path id="Vector" d="M104 0H0V25H104V0Z" fill="var(--fill-0, white)"/>
<path id="Vector_2" d="M35.76 10.5L35.89 12.04V15.09C35.89 15.46 35.79 15.98 34.96 15.98C34.18 15.98 34 15.59 34 15.09V8.96C34 8.34 34.3 8 35.2 8C36.22 8 36.66 8.13 36.8 8.95L37.63 13.95C37.66 14.1 37.68 14.12 37.71 14.12C37.77 14.12 37.78 14.08 37.8 13.95L38.63 8.95C38.75 8.22 39.13 8 40.05 8C40.91 8 41.43 8.14 41.43 8.96V15.09C41.43 15.32 41.43 15.98 40.49 15.98C39.88 15.98 39.53 15.74 39.53 15.09V12.04L39.67 10.5H39.65L38.87 15.22C38.76 15.91 38.04 15.98 37.73 15.98C37.45 15.98 36.69 15.93 36.57 15.22L35.79 10.49H35.77L35.76 10.5Z" stroke="var(--stroke-0, #386F6B)" stroke-width="0.5"/>
<path id="Vector_3" d="M48.1714 11.0509C48.7014 11.0509 49.0014 11.3209 49.0014 11.9109C49.0014 12.3009 48.9014 12.7809 48.1714 12.7809H45.7314V13.7809C45.7314 13.9109 45.7914 13.9709 45.9114 13.9709H48.6714C48.9214 13.9709 49.5214 14.0009 49.5214 14.8709C49.5214 15.5309 49.1914 15.7809 48.6714 15.7809H45.0814C44.0914 15.7809 43.6914 15.3609 43.6914 14.3909V9.60094C43.6914 8.49094 44.2514 8.21094 45.0814 8.21094H48.4614C48.8514 8.21094 49.3014 8.36094 49.3014 9.12094C49.3014 9.79094 48.9514 10.0309 48.4614 10.0309H45.9114C45.7814 10.0309 45.7314 10.1009 45.7314 10.2109V11.0509H48.1714Z" stroke="var(--stroke-0, #386F6B)" stroke-width="0.5"/>
<path id="Vector_4" d="M55.5181 8.9C55.5181 8.65 55.5381 8.01 56.5281 8.01C57.1981 8.01 57.5681 8.25 57.5681 8.9V15.1C57.5681 15.66 57.1881 15.99 56.2281 15.99C55.7381 15.99 55.0581 15.94 54.8281 15.28L53.2881 10.83H53.2681L53.3781 11.57V15.09C53.3781 15.34 53.3581 15.98 52.3681 15.98C51.6981 15.98 51.3281 15.74 51.3281 15.09V8.9C51.3281 8.33 51.7081 8 52.6681 8C53.1681 8 53.8281 8.04 54.0581 8.71L55.6081 13.16H55.6281L55.5181 12.42V8.9Z" stroke="var(--stroke-0, #386F6B)" stroke-width="0.5"/>
<path id="Vector_5" d="M64.0181 8.89977C64.0181 8.64977 64.0381 8.00977 65.0281 8.00977C65.6981 8.00977 66.0681 8.24977 66.0681 8.89977V12.9398C66.0681 13.8898 65.8381 14.7898 65.0681 15.3598C64.4281 15.8298 63.6681 15.9798 62.9381 15.9798C61.7581 15.9798 60.8581 15.5298 60.3781 14.9298C59.9981 14.4398 59.8281 13.7098 59.8281 12.9498V8.89977C59.8281 8.64977 59.8481 8.00977 60.8381 8.00977C61.5081 8.00977 61.8781 8.24977 61.8781 8.89977V12.8898C61.8781 13.2198 61.8781 14.1498 62.9481 14.1498C64.0181 14.1498 64.0181 13.1998 64.0181 12.8898V8.89977Z" stroke="var(--stroke-0, #386F6B)" stroke-width="0.5"/>
</g>
<defs>
<clipPath id="clip0_2829_2845">
<rect width="104" height="25" fill="white"/>
</clipPath>
</defs>
</svg>
