<svg preserveAspectRatio="none" width="100%" height="100%" overflow="visible" style="display: block;" viewBox="0 0 31.42 7.65" fill="none" xmlns="http://www.w3.org/2000/svg">
<g id="Group">
<path id="Vector" d="M3.69 6.37C3.01 6.8 2.51 7.06 1.88 7.29C1.38 7.47 0.900001 7.59 0.700001 7.59C0.310001 7.59 0 7.29 0 6.89C0 6.63 0.139997 6.43 0.379997 6.31C0.439997 6.28 0.479999 6.27 0.709999 6.21C1.44 6.03 2.17 5.75 2.6 5.51C1.94 4.87 1.74 4.59 1.74 4.32C1.74 3.99 2.06 3.69 2.4 3.69C2.63 3.69 2.78 3.78 3.02 4.08C3.2 4.3 3.47 4.58 3.68 4.76C3.97 4.51 4.22 4.26 4.48 3.95C4.64 3.76 4.81 3.66 5 3.66C5.35 3.66 5.67 3.96 5.67 4.3C5.67 4.59 5.4 4.95 4.77 5.52C5.29 5.78 5.87 5.96 6.74 6.12C7.15 6.18 7.39 6.42 7.39 6.78C7.39 7.2 7.09 7.48 6.66 7.48C6.01 7.48 4.61 6.95 3.72 6.37L3.68 6.35L3.69 6.37ZM3 0.959999V0.510002C3 0.210002 3.26 0.0299988 3.69 0.0299988C4.12 0.0299988 4.38 0.220002 4.38 0.510002V0.959999H6.85C7.13 0.959999 7.34 1.22 7.34 1.58C7.34 1.94 7.14 2.2 6.85 2.2H5.44C6 2.5 6.42 2.77 6.78 3.05C7.08 3.28 7.18 3.44 7.18 3.68C7.18 4.04 6.88 4.35 6.52 4.35C6.33 4.35 6.2 4.29 5.95 4.09C5.69 3.88 5.2 3.55 4.65 3.2C4.41 3.06 4.33 2.92 4.33 2.7C4.33 2.52 4.42 2.32 4.55 2.2H2.78C2.91 2.32 2.98 2.49 2.98 2.68C2.98 3 2.8 3.21 2.04 3.74C1.34 4.24 1 4.41 0.75 4.41C0.41 4.41 0.110001 4.1 0.110001 3.73C0.110001 3.55 0.189998 3.39 0.329998 3.27C0.389998 3.22 0.42 3.21 0.59 3.11C0.95 2.91 1.5 2.54 1.94 2.21H0.549999C0.259999 2.21 0.0599976 1.95 0.0599976 1.59C0.0599976 1.23 0.259999 0.970001 0.549999 0.970001H3V0.959999Z" fill="var(--fill-0, white)"/>
<path id="Vector_2" d="M12.24 4.88H11.47V5.67C11.47 5.86 11.33 6.01 11.1 6.06C11.92 6.24 13.78 6.41 15.03 6.44C15.45 6.44 15.64 6.61 15.64 6.98C15.64 7.44 15.42 7.65 14.96 7.65C14.5 7.65 13.18 7.53 12.4 7.43C11.78 7.34 11.52 7.29 10.48 7.08C10.18 7.02 9.8 6.98 9.51 6.98C9.19 6.98 8.93 7.03 8.58 7.14C8.48 7.17 8.4 7.19 8.33 7.19C8.03 7.19 7.79 6.9 7.79 6.54C7.79 6.24 7.94 6.05 8.25 5.98C8.59 5.4 8.71 5.16 8.71 5.04C8.71 4.98 8.68 4.93 8.6 4.88C8.43 4.78 8.37 4.68 8.37 4.53C8.37 4.36 8.44 4.08 8.55 3.84H8.36C8.09 3.84 7.88 3.57 7.88 3.21C7.88 2.85 8.09 2.59 8.36 2.59H9.38C9.76 2.59 10.04 2.82 10.04 3.15C10.04 3.31 9.99 3.44 9.85 3.62C9.69 3.84 9.53 4.17 9.53 4.3C9.53 4.4 9.56 4.44 9.65 4.48C9.95 4.62 10.07 4.76 10.07 4.98C10.07 5.15 9.99 5.33 9.85 5.48C9.75 5.58 9.64 5.68 9.47 5.84C9.81 5.84 10.03 5.87 10.47 5.94C10.39 5.87 10.35 5.78 10.35 5.68V2.67C10.35 2.13 10.61 1.87 11.15 1.87H11.59C11.59 1.87 11.52 1.83 11.47 1.8C11.29 1.69 11.21 1.59 11.21 1.42C11.21 1.33 11.23 1.26 11.31 1.16H10.63C10.44 1.16 10.3 0.970002 10.3 0.690002C10.3 0.410002 10.44 0.230003 10.63 0.230003H14.38C14.76 0.230003 15 0.41 15 0.68C15 0.97 14.78 1.23 13.95 1.87H14.45C14.99 1.87 15.25 2.13 15.25 2.67V5.37C15.25 6.03 15.05 6.2 14.32 6.2C13.68 6.2 13.45 6.06 13.45 5.66C13.45 5.38 13.63 5.17 13.89 5.17H13.98H14.02C14.11 5.17 14.13 5.14 14.13 5.03V4.88H13.33V5.79C13.33 5.99 13.11 6.13 12.79 6.13C12.47 6.13 12.25 5.99 12.25 5.79V4.88H12.24ZM9.31 0.449997C9.47 0.609997 9.6 0.77 9.84 1.07C9.92 1.18 9.97 1.31 9.97 1.45C9.97 1.81 9.63 2.15 9.27 2.15C9.06 2.15 8.96 2.09 8.81 1.89C8.63 1.67 8.61 1.64 8.18 1.13C8.06 0.999997 8.02 0.89 8.02 0.75C8.02 0.41 8.34 0.110001 8.69 0.110001C8.91 0.110001 9.07 0.199997 9.31 0.449997ZM11.47 2.97H12.24V2.63H11.61C11.52 2.63 11.47 2.68 11.47 2.77V2.97ZM11.47 4.11H12.24V3.74H11.47V4.11ZM12.12 1.15C12.42 1.32 12.62 1.45 12.86 1.62C13.21 1.38 13.36 1.26 13.36 1.2C13.36 1.17 13.31 1.14 13.22 1.14H12.12V1.15ZM13.32 2.64V2.98H14.12V2.78C14.12 2.69 14.07 2.64 13.98 2.64H13.32ZM14.12 4.11V3.74H13.32V4.11H14.12Z" fill="var(--fill-0, white)"/>
<path id="Vector_3" d="M19.29 1.03V0.489998C19.29 0.229998 19.59 0.0299988 19.99 0.0299988C20.39 0.0299988 20.69 0.219998 20.69 0.489998V1.03H22.93C23.17 1.03 23.34 1.3 23.34 1.68C23.34 2.06 23.17 2.32 22.93 2.32H18.03C17.89 2.32 17.84 2.38 17.83 2.52V3.63C17.83 5.04 17.66 6.14 17.33 6.95C17.17 7.35 16.99 7.49 16.67 7.49C16.25 7.49 15.91 7.18 15.91 6.79C15.91 6.67 15.93 6.56 15.99 6.41C16.32 5.63 16.48 4.7 16.48 3.6V2.01C16.48 1.35 16.82 1.02 17.47 1.02H19.29V1.03ZM21.09 6.96C20.11 7.13 18.85 7.29 18.56 7.29C18.27 7.29 18.11 7.19 17.98 6.95C17.88 6.77 17.84 6.61 17.84 6.46C17.84 6.28 17.87 6.19 18.04 5.88C18.42 5.19 19.19 3.5 19.39 2.95C19.53 2.61 19.74 2.43 20.04 2.43C20.46 2.43 20.8 2.72 20.8 3.06C20.8 3.2 20.78 3.24 20.54 3.76C20.19 4.54 19.79 5.31 19.42 5.92C19.95 5.89 20.79 5.8 21.41 5.71C21.31 5.5 21.23 5.36 21.05 5.03C20.96 4.85 20.93 4.76 20.93 4.61C20.93 4.26 21.25 3.97 21.63 3.97C21.86 3.97 22.07 4.09 22.21 4.3C22.47 4.69 22.95 5.65 23.19 6.28C23.32 6.62 23.35 6.74 23.35 6.89C23.35 7.23 23.03 7.51 22.65 7.51C22.43 7.51 22.22 7.41 22.11 7.25C22.0833 7.21 22.04 7.12 21.98 6.98C21.94 6.89 21.93 6.88 21.91 6.8L21.08 6.94L21.09 6.96Z" fill="var(--fill-0, white)"/>
<path id="Vector_4" d="M27.09 1.03V0.5C27.09 0.2 27.36 0 27.75 0C28.14 0 28.39 0.21 28.39 0.5V1.03H30.52C30.77 1.03 30.94 1.27 30.94 1.61C30.94 1.95 30.77 2.18 30.52 2.18H28.39V2.8H31C31.24 2.8 31.42 3.05 31.42 3.38C31.42 3.71 31.25 3.95 31 3.95H24.48C24.21 3.95 23.98 3.68 23.98 3.36C23.98 3.04 24.16 2.79 24.4 2.79H24.57C24.34 2.68 24.2 2.47 24.2 2.21C24.2 2.05 24.25 1.94 24.39 1.75C24.76 1.3 25.01 0.940002 25.22 0.510002C25.29 0.370002 25.31 0.340003 25.36 0.300003C25.47 0.180003 25.63 0.110001 25.8 0.110001C26.15 0.110001 26.44 0.380001 26.44 0.720001C26.44 0.820001 26.42 0.909999 26.37 1.03H27.1H27.09ZM30 4.36C30.5 4.36 30.75 4.61 30.75 5.11V6.69C30.75 7.19 30.5 7.43 30 7.43H25.35C24.85 7.43 24.6 7.18 24.6 6.69V5.11C24.6 4.61 24.85 4.36 25.35 4.36H30ZM27.09 2.79V2.17H25.71C25.39 2.61 25.29 2.71 25.1 2.79H27.09ZM25.9 6.19C25.9 6.28 25.94 6.32 26.03 6.32H29.31C29.4 6.32 29.44 6.28 29.44 6.19V5.59C29.44 5.51 29.39 5.46 29.31 5.46H26.03C25.95 5.46 25.9 5.51 25.9 5.59V6.19Z" fill="var(--fill-0, white)"/>
</g>
</svg>
