<svg preserveAspectRatio="none" width="100%" height="100%" overflow="visible" style="display: block;" viewBox="0 0 67.99 7.64" fill="none" xmlns="http://www.w3.org/2000/svg">
<g id="Group">
<path id="Vector" d="M3.86 1.78V0.839996C3.86 0.519996 4.16 0.279999 4.56 0.279999C4.96 0.279999 5.27 0.509996 5.27 0.839996V1.78H6.51C6.79 1.78 7 2.04 7 2.38C7 2.72 6.79 2.98 6.51 2.98H5.27V6.38C5.27 7.16 4.97 7.46 4.17 7.46C3.78 7.46 3.07 7.43 2.96 7.41C2.69 7.36 2.51 7.11 2.51 6.77C2.51 6.43 2.73 6.17 3.03 6.17C3.05 6.17 3.09 6.17 3.13 6.17L3.67 6.18999C3.82 6.18999 3.86 6.14999 3.86 5.96999V3.93C3.24 4.76 2.73 5.28 1.99 5.87C1.3 6.41 0.98 6.6 0.73 6.6C0.37 6.6 0.039999 6.24 0.039999 5.86C0.039999 5.68 0.119999 5.5 0.269999 5.38C0.309999 5.35 0.33 5.33 0.49 5.24C1.47 4.65 2.43 3.81 3.1 2.98H0.49C0.21 2.98 0 2.72 0 2.38C0 2.04 0.21 1.78 0.49 1.78H3.86Z" fill="var(--fill-0, white)"/>
<path id="Vector_2" d="M14.12 3.24C14.42 3.24 14.66 3.52 14.66 3.89C14.66 4.26 14.44 4.56 14.12 4.56H8.03C7.73 4.56 7.49 4.27999 7.49 3.89999C7.49 3.51999 7.72 3.24 8.03 3.24H14.12Z" fill="var(--fill-0, white)"/>
<path id="Vector_3" d="M19.85 1.28999C20.43 1.28999 20.55 1.33 20.86 1.63C21.35 2.1 21.48 2.32 21.48 2.61C21.48 3.02 21.31 3.92 21.15 4.38C20.77 5.43 19.96 6.32 18.86 6.88C18.3 7.17 17.27 7.49 16.92 7.49C16.57 7.49 16.26 7.19 16.26 6.81C16.26 6.6 16.36 6.39 16.53 6.27C16.6033 6.22333 16.7567 6.17666 16.99 6.13C18 5.92 18.65 5.6 19.18 5.05C19.56 4.64 19.84 4.11999 19.99 3.50999C20.05 3.26999 20.11 2.86 20.11 2.7C20.11 2.54 20.05 2.48 19.81 2.48H15.69C15.41 2.48 15.2 2.23 15.2 1.89C15.2 1.55 15.41 1.28999 15.69 1.28999H19.85ZM22.74 0.969994C22.74 1.50999 22.3 1.95 21.76 1.95C21.22 1.95 20.79 1.49999 20.79 0.969994C20.79 0.439994 21.24 0 21.77 0C22.3 0 22.74 0.449996 22.74 0.979996V0.969994ZM21.33 0.969994C21.33 1.20999 21.53 1.41 21.77 1.41C22.01 1.41 22.21 1.20999 22.21 0.969994C22.21 0.729994 22.01 0.529999 21.77 0.529999C21.53 0.529999 21.33 0.739994 21.33 0.969994Z" fill="var(--fill-0, white)"/>
<path id="Vector_4" d="M25.81 1.35C25.93 1.39 26.11 1.47 26.16 1.49C26.39 1.6 26.53 1.82 26.53 2.09C26.53 2.46 26.23 2.77 25.87 2.77C25.76 2.77 25.69 2.75 25.49 2.67C24.99 2.45 24.19 2.2 23.7 2.09C23.45 2.03 23.3 1.80999 23.3 1.50999C23.3 1.10999 23.56 0.849998 23.93 0.849998C24.17 0.849998 25.13 1.11 25.82 1.35H25.81ZM29.9 2.28C29.9 2.62 29.48 3.92 29.16 4.52C28.59 5.63 27.72 6.38 26.48 6.81C25.92 7.01 25.28 7.15 24.51 7.24C24.32 7.26 24.09 7.28999 24.04 7.28999C23.71 7.28999 23.46 6.99 23.46 6.61C23.46 6.38 23.56 6.15999 23.73 6.03999C23.8033 5.99333 23.9867 5.95 24.28 5.91C26.85 5.6 28.01 4.56 28.62 2.02C28.68 1.78 28.9 1.64 29.2 1.64C29.58 1.64 29.88 1.91 29.88 2.27L29.9 2.28Z" fill="var(--fill-0, white)"/>
<path id="Vector_5" d="M33.12 1.68999L32.99 0.949997C32.99 0.949997 32.99 0.869994 32.99 0.829994C32.99 0.499994 33.29 0.279999 33.73 0.279999C34.11 0.279999 34.36 0.459997 34.41 0.769997L34.55 1.59L36.71 1.43C37.05 1.41 37.3 1.68 37.3 2.05C37.3 2.39 37.1 2.63 36.8 2.66L34.75 2.82L34.95 3.99L37.2 3.82C37.54 3.8 37.79 4.07 37.79 4.45C37.79 4.8 37.59 5.05 37.29 5.07L35.17 5.24L35.45 6.87C35.45 6.92 35.47 6.97 35.47 7.02C35.47 7.4 35.17 7.64 34.72 7.64C34.36 7.64 34.11 7.46 34.06 7.18L33.75 5.37L31.12 5.57999C30.79 5.60999 30.54 5.32 30.54 4.93C30.54 4.58 30.74 4.32 31.04 4.3L33.54 4.11L33.34 2.93999L31.41 3.09C31.08 3.11 30.83 2.83999 30.83 2.46999C30.83 2.11999 31.03 1.87 31.32 1.85L33.14 1.71L33.12 1.68999Z" fill="var(--fill-0, white)"/>
<path id="Vector_6" d="M40.04 3.07L39.87 2.21C39.87 2.15 39.85 2.1 39.85 2.06C39.85 1.77 40.15 1.56 40.55 1.56C40.85 1.56 41.06 1.71 41.11 1.96L41.29 2.87L43.49 2.50999C43.62 2.48999 43.74 2.48 43.84 2.48C44.31 2.48 44.57 2.69 44.57 3.06C44.57 3.52 44.18 4.57 43.77 5.24C43.43 5.78 43.35 5.85 43.08 5.85C42.72 5.85 42.39 5.57 42.39 5.25C42.39 5.15 42.43 5.03 42.51 4.93C42.73 4.64 42.92 4.31 43.06 3.95L43.09 3.88C43.11 3.82 43.13 3.77 43.13 3.74C43.13 3.7 43.1 3.68 43.03 3.68C42.99 3.68 42.97 3.68 42.85 3.7L41.48 3.93999L42.06 6.93C42.08 6.99 42.08 7.02999 42.08 7.07999C42.08 7.38999 41.78 7.62 41.38 7.62C41.09 7.62 40.88 7.47 40.84 7.21L40.25 4.14999L39.14 4.34C39.14 4.34 39.08 4.34 39.03 4.34C38.75 4.34 38.54 4.08 38.54 3.74C38.54 3.47 38.69 3.27 38.92 3.23L40.05 3.05L40.04 3.07Z" fill="var(--fill-0, white)"/>
<path id="Vector_7" d="M48.21 1.35C48.33 1.39 48.51 1.47 48.56 1.49C48.79 1.6 48.93 1.82 48.93 2.09C48.93 2.46 48.63 2.77 48.27 2.77C48.16 2.77 48.09 2.75 47.89 2.67C47.39 2.45 46.6 2.2 46.1 2.09C45.85 2.03 45.7 1.80999 45.7 1.50999C45.7 1.10999 45.96 0.849998 46.33 0.849998C46.57 0.849998 47.53 1.11 48.22 1.35H48.21ZM52.3 2.28C52.3 2.62 51.88 3.92 51.56 4.52C50.99 5.63 50.12 6.38 48.88 6.81C48.32 7.01 47.68 7.15 46.91 7.24C46.72 7.26 46.49 7.28999 46.44 7.28999C46.11 7.28999 45.86 6.99 45.86 6.61C45.86 6.38 45.96 6.15999 46.13 6.03999C46.2033 5.99333 46.3867 5.95 46.68 5.91C49.26 5.6 50.41 4.56 51.02 2.02C51.08 1.78 51.3 1.64 51.6 1.64C51.98 1.64 52.28 1.91 52.28 2.27L52.3 2.28Z" fill="var(--fill-0, white)"/>
<path id="Vector_8" d="M56.1 1.45C56.1 1.76 55.72 3.56 55.47 4.38C55.16 5.42 54.82 6.21 54.39 6.91C54.25 7.13 54.05 7.25 53.77 7.25C53.34 7.25 52.99 6.91 52.99 6.49C52.99 6.36 53.02 6.26 53.09 6.13C53.82 5.05 54.51 3.01 54.67 1.46C54.69 1.31 54.69 1.28 54.72 1.21C54.82 0.989999 55.06 0.839996 55.37 0.839996C55.79 0.839996 56.11 1.09999 56.11 1.43999L56.1 1.45ZM58.21 1.2C58.53 1.86 59.41 4.11 59.78 5.21C60.07 6.06 60.17 6.45 60.17 6.67C60.17 6.94 60.04 7.13 59.79 7.25C59.65 7.31 59.49 7.35 59.36 7.35C59.1 7.35 58.86 7.21999 58.74 7.00999C58.7133 6.96333 58.6667 6.81333 58.6 6.56C58.3 5.56 57.6 3.48 56.94 1.66C56.89 1.53 56.88 1.47 56.88 1.38C56.88 1.06 57.22 0.769997 57.6 0.769997C57.86 0.769997 58.09 0.929997 58.22 1.2H58.21ZM60.55 1.02C60.55 1.56 60.11 2 59.57 2C59.03 2 58.6 1.55 58.6 1.02C58.6 0.489997 59.05 0.0499954 59.58 0.0499954C60.11 0.0499954 60.55 0.499997 60.55 1.02ZM59.13 1.02C59.13 1.26 59.33 1.46 59.57 1.46C59.81 1.46 60.01 1.26 60.01 1.02C60.01 0.779997 59.81 0.579994 59.57 0.579994C59.33 0.579994 59.13 0.789997 59.13 1.02Z" fill="var(--fill-0, white)"/>
<path id="Vector_9" d="M65.92 0.93C66.57 0.93 67 1.27 67 1.78C67 1.97 66.95 2.14 66.82 2.43C66.53 3.05 66.24 3.54 65.73 4.23C66.51 4.85 67.35 5.57999 67.77 6.03999C67.91 6.18999 67.99 6.34 67.99 6.52C67.99 6.9 67.63 7.25999 67.25 7.25999C67.03 7.25999 66.93 7.2 66.7 6.95C66.22 6.43 65.49 5.71 64.92 5.21C64.12 6.04 63.24 6.71 62.27 7.2C62.09 7.3 61.96 7.34 61.82 7.34C61.48 7.34 61.18 6.97999 61.18 6.57999C61.18 6.39999 61.25 6.24 61.38 6.12C61.45 6.06 61.46 6.05 61.74 5.92C63.15 5.25 64.44 4.07 65.19 2.75C65.36 2.46 65.43 2.31 65.43 2.25C65.43 2.18 65.37 2.14999 65.23 2.14999H61.94C61.66 2.14999 61.45 1.9 61.45 1.55C61.45 1.2 61.66 0.949997 61.94 0.949997H65.92V0.93Z" fill="var(--fill-0, white)"/>
</g>
</svg>
