<svg preserveAspectRatio="none" width="100%" height="100%" overflow="visible" style="display: block;" viewBox="0 0 73.86 7.62" fill="none" xmlns="http://www.w3.org/2000/svg">
<g id="Group">
<path id="Vector" d="M0.49 3.98999C0.2 3.98999 0 3.75 0 3.41C0 3.07 0.2 2.83 0.49 2.83H6.7C6.99 2.83 7.19 3.08 7.19 3.41C7.19 3.74 6.99 3.98999 6.7 3.98999H4.48C4.41 5.13999 4.17 5.92999 3.73 6.45999C3.32 6.95999 2.46 7.48 2.03 7.48C1.65 7.48 1.37 7.18 1.37 6.78C1.37 6.6 1.45 6.42999 1.57 6.31999C1.62 6.27999 1.63 6.28 1.79 6.2C2.69 5.78 3.04 5.18999 3.1 3.98999H0.49ZM4.89 0.759995C5.18 0.759995 5.38 1.01 5.38 1.34C5.38 1.67 5.18 1.92 4.89 1.92H1.34C1.05 1.92 0.85 1.68 0.85 1.34C0.85 0.999996 1.05 0.759995 1.34 0.759995H4.89ZM6.2 0.410004C6.37 0.710004 6.64 1.40999 6.64 1.53999C6.64 1.71999 6.47 1.84999 6.26 1.84999C6.08 1.84999 6 1.78 5.92 1.55C5.8 1.22 5.79 1.2 5.59 0.690002C5.55 0.580002 5.54 0.559995 5.54 0.509995C5.54 0.349995 5.69 0.220001 5.88 0.220001C6.01 0.220001 6.11 0.289998 6.18 0.419998L6.2 0.410004ZM7.22 0.199997C7.39 0.499997 7.66 1.2 7.66 1.33C7.66 1.51 7.49 1.64 7.28 1.64C7.1 1.64 7.02 1.57 6.94 1.34C6.82 1.01 6.81 0.989996 6.61 0.479996C6.57 0.369996 6.56 0.350003 6.56 0.300003C6.56 0.140003 6.71 0.00999451 6.9 0.00999451C7.03 0.00999451 7.13 0.0799915 7.2 0.209991L7.22 0.199997Z" fill="var(--fill-0, white)"/>
<path id="Vector_2" d="M10.54 3.14999C10.65 3.20999 10.72 3.22999 10.76 3.25999C10.94 3.36999 11.04 3.54999 11.04 3.75999C11.04 4.12999 10.77 4.42 10.42 4.42C10.3 4.42 10.28 4.41999 10.06 4.31999C9.59 4.13999 9.36 4.05999 8.44 3.75999C8.15 3.65999 8.01 3.46 8.01 3.16C8.01 2.81 8.27 2.53999 8.62 2.53999C8.86 2.53999 9.97 2.88999 10.55 3.14999H10.54ZM14.71 2.91C14.71 3.27 14.29 4.3 13.89 4.91C13.3 5.8 12.48 6.42999 11.39 6.81999C10.82 7.01999 10.21 7.16 9.43 7.25C9.23 7.27 9.01 7.3 8.96 7.3C8.63 7.3 8.38 7 8.38 6.61C8.38 6.32 8.54 6.07 8.78 5.98C8.85 5.96 8.86 5.95 9.2 5.91C10.63 5.72 11.53 5.38 12.13 4.81C12.69 4.27 13.18 3.43 13.38 2.69C13.44 2.45 13.68 2.28999 13.96 2.28999C14.37 2.28999 14.7 2.57 14.7 2.91H14.71ZM11.24 1.17999C11.35 1.23999 11.42 1.25999 11.46 1.28999C11.64 1.39999 11.74 1.57999 11.74 1.78999C11.74 2.15999 11.47 2.45 11.12 2.45C11 2.45 10.98 2.44999 10.76 2.34999C10.29 2.16999 10.06 2.08999 9.14 1.78999C8.85 1.68999 8.71 1.5 8.71 1.19C8.71 0.840002 8.97 0.569992 9.32 0.569992C9.56 0.569992 10.67 0.919993 11.25 1.17999H11.24ZM13.4 0.690002C13.64 1.03 13.84 1.43 13.84 1.59C13.84 1.78 13.67 1.92999 13.46 1.92999C13.29 1.92999 13.2 1.86 13.11 1.67C12.99 1.43 12.82 1.15 12.69 0.949997C12.63 0.869997 12.61 0.809996 12.61 0.729996C12.61 0.539996 12.79 0.389999 13 0.389999C13.14 0.389999 13.25 0.469993 13.41 0.679993L13.4 0.690002ZM14.56 0.269989C14.87 0.679989 15.07 1.06 15.07 1.23C15.07 1.42 14.89 1.58 14.69 1.58C14.52 1.58 14.43 1.51999 14.34 1.31999C14.24 1.10999 14.08 0.82999 13.94 0.62999C13.86 0.50999 13.84 0.449995 13.84 0.369995C13.84 0.189995 14.02 0.0299988 14.22 0.0299988C14.35 0.0299988 14.46 0.1 14.57 0.25L14.56 0.269989Z" fill="var(--fill-0, white)"/>
<path id="Vector_3" d="M21.29 1.16C21.94 1.16 22.28 1.43 22.28 1.94C22.28 2.4 21.9 3.59 21.5 4.39C20.92 5.53 20.14 6.32999 18.92 7.00999C18.3 7.34999 17.59 7.62 17.26 7.62C16.93 7.62 16.68 7.32 16.68 6.91C16.68 6.7 16.78 6.53 16.95 6.41C17.03 6.35 17.05 6.35 17.35 6.25C18.15 5.98 18.87 5.56 19.38 5.06C18.98 4.72 18.65 4.48 18.17 4.17C17.97 4.04 17.88 3.89 17.88 3.7C17.88 3.37 18.15 3.08 18.47 3.08C18.75 3.08 19.38 3.45 20.13 4.06C20.47 3.48 20.8 2.67 20.8 2.44C20.8 2.35 20.74 2.33 20.58 2.33H18.5C17.75 3.42 16.75 4.33 16.28 4.33C15.97 4.33 15.7 4.02 15.7 3.67C15.7 3.52 15.76 3.37 15.88 3.25C15.88 3.25 15.9733 3.17667 16.16 3.03C16.93 2.45 17.58 1.6 17.93 0.729996C18.05 0.439996 18.27 0.289993 18.55 0.289993C18.94 0.289993 19.24 0.510003 19.24 0.800003C19.24 0.900003 19.22 1.01 19.14 1.17H21.27L21.29 1.16Z" fill="var(--fill-0, white)"/>
<path id="Vector_4" d="M25.81 2.41C25.81 4.1 25.72 4.73 25.4 5.47C25.13 6.11 24.74 6.61 24.22 6.98C24.08 7.08 23.96 7.12 23.81 7.12C23.45 7.12 23.08 6.73999 23.08 6.37999C23.08 6.14999 23.16 6.02999 23.48 5.76999C24.27 5.12999 24.46 4.4 24.43 2.16V1.16C24.43 0.850004 24.73 0.610001 25.12 0.610001C25.51 0.610001 25.81 0.840004 25.81 1.16V2.41ZM27.9 5.14999C27.9 5.28999 27.92 5.34 27.96 5.34C28 5.34 28.06 5.28999 28.19 5.14999C28.67 4.60999 29.1 3.9 29.35 3.22C29.46 2.89 29.61 2.76999 29.9 2.76999C30.28 2.76999 30.6 3.05 30.6 3.39C30.6 3.57 30.46 3.96999 30.25 4.42999C29.77 5.44999 29.02 6.34 28.17 6.91C27.9 7.09 27.7 7.17 27.45 7.17C26.92 7.17 26.53 6.76 26.53 6.22V0.949997C26.53 0.639997 26.83 0.399994 27.22 0.399994C27.61 0.399994 27.91 0.629997 27.91 0.949997V5.16L27.9 5.14999Z" fill="var(--fill-0, white)"/>
<path id="Vector_5" d="M34.17 1.39999C34.17 1.70999 33.79 3.51 33.54 4.33C33.23 5.37 32.89 6.16 32.46 6.87C32.32 7.09 32.12 7.20999 31.84 7.20999C31.41 7.20999 31.06 6.87 31.06 6.45C31.06 6.32 31.09 6.22 31.16 6.09C31.89 5.01 32.58 2.97 32.74 1.42C32.76 1.27 32.76 1.24 32.79 1.17C32.89 0.949998 33.13 0.800003 33.44 0.800003C33.86 0.800003 34.18 1.05999 34.18 1.39999H34.17ZM36.28 1.14999C36.6 1.80999 37.48 4.06 37.85 5.16C38.14 6.01 38.24 6.4 38.24 6.62C38.24 6.89 38.11 7.08 37.86 7.2C37.72 7.26 37.56 7.3 37.43 7.3C37.17 7.3 36.93 7.16999 36.81 6.95999C36.7833 6.91332 36.7367 6.76333 36.67 6.50999C36.37 5.50999 35.67 3.43 35.01 1.61C34.96 1.48 34.95 1.42 34.95 1.33C34.95 1.01 35.29 0.720001 35.67 0.720001C35.93 0.720001 36.16 0.879994 36.29 1.14999H36.28ZM38.62 0.970001C38.62 1.51 38.18 1.95 37.64 1.95C37.1 1.95 36.67 1.5 36.67 0.970001C36.67 0.440001 37.12 0 37.65 0C38.18 0 38.62 0.449996 38.62 0.979996V0.970001ZM37.2 0.970001C37.2 1.21 37.4 1.41 37.64 1.41C37.88 1.41 38.08 1.21 38.08 0.970001C38.08 0.730001 37.88 0.529999 37.64 0.529999C37.4 0.529999 37.2 0.740001 37.2 0.970001Z" fill="var(--fill-0, white)"/>
<path id="Vector_6" d="M41.8 1.3C41.92 1.34 42.1 1.42 42.15 1.44C42.38 1.55 42.52 1.77999 42.52 2.03999C42.52 2.40999 42.22 2.72 41.86 2.72C41.75 2.72 41.68 2.7 41.48 2.62C40.98 2.4 40.18 2.14999 39.69 2.03999C39.44 1.97999 39.29 1.75999 39.29 1.45999C39.29 1.05999 39.55 0.800003 39.92 0.800003C40.16 0.800003 41.12 1.06 41.81 1.3H41.8ZM45.89 2.23C45.89 2.57 45.47 3.87 45.15 4.47C44.58 5.58 43.71 6.31999 42.47 6.75999C41.91 6.95999 41.27 7.1 40.5 7.19C40.31 7.21 40.08 7.23999 40.03 7.23999C39.7 7.23999 39.45 6.95 39.45 6.56C39.45 6.33 39.55 6.10999 39.72 5.98999C39.7933 5.94332 39.9767 5.9 40.27 5.86C42.84 5.55 44 4.51 44.61 1.97C44.67 1.73 44.89 1.59 45.19 1.59C45.57 1.59 45.87 1.86 45.87 2.22L45.89 2.23Z" fill="var(--fill-0, white)"/>
<path id="Vector_7" d="M51.8 1.03C52.54 1.03 52.87 1.29999 52.87 1.92999C52.87 2.55999 52.67 3.68 52.45 4.28C52.05 5.4 51.28 6.24999 50.14 6.81999C49.58 7.08999 48.59 7.39999 48.26 7.39999C47.9 7.39999 47.6 7.08999 47.6 6.70999C47.6 6.49999 47.7 6.29 47.86 6.17C47.9333 6.10333 48.1367 6.03667 48.47 5.97C49.56 5.74 50.34 5.25 50.84 4.48C51.18 3.95 51.45 3.05999 51.45 2.45999C51.45 2.27999 51.39 2.23999 51.16 2.23999H46.95C46.67 2.23999 46.46 1.98 46.46 1.64C46.46 1.3 46.67 1.03999 46.95 1.03999H51.8V1.03Z" fill="var(--fill-0, white)"/>
<path id="Vector_8" d="M55.83 5.53999C55.83 5.65999 55.85 5.72 55.92 5.72C55.99 5.72 56.29 5.59 56.6 5.44C57.72 4.87 58.73 4.01999 59.43 3.03999C59.57 2.84999 59.73 2.75 59.93 2.75C60.29 2.75 60.66 3.1 60.66 3.45C60.66 3.62 60.6 3.74999 60.42 4.00999C59.59 5.18999 58.23 6.23999 56.69 6.89999C56.08 7.15999 55.72 7.26999 55.43 7.26999C54.81 7.26999 54.41 6.85 54.41 6.19V0.970001C54.41 0.650001 54.71 0.410004 55.12 0.410004C55.53 0.410004 55.83 0.640001 55.83 0.970001V5.53999Z" fill="var(--fill-0, white)"/>
<path id="Vector_9" d="M62.54 2.34999C62.8 2.79999 63.23 4.07999 63.23 4.37999C63.23 4.66999 62.93 4.89999 62.57 4.89999C62.39 4.89999 62.23 4.83 62.14 4.7C62.08 4.62 62.07 4.59 62 4.36C61.87 3.88 61.66 3.28 61.49 2.87C61.45 2.76 61.43 2.67 61.43 2.58C61.43 2.31 61.73 2.06 62.07 2.06C62.27 2.06 62.45 2.16 62.55 2.34L62.54 2.34999ZM67.04 2.39C67.04 2.69 66.82 3.82 66.66 4.33C66.34 5.32 65.91 5.98999 65.24 6.51999C64.66 6.97999 63.63 7.44 63.17 7.44C62.85 7.44 62.63 7.18 62.63 6.8C62.63 6.61 62.73 6.45 62.89 6.34C62.97 6.29 62.98 6.28 63.27 6.19C64.93 5.65 65.54 4.71 65.78 2.34C65.81 2.02 66.03 1.83 66.37 1.83C66.75 1.83 67.03 2.07 67.03 2.39H67.04ZM64.37 2.22C64.66 2.87 64.93 3.75 64.93 4.03C64.93 4.33 64.63 4.56999 64.27 4.56999C64.07 4.56999 63.9 4.48 63.81 4.34C63.76 4.27 63.76 4.26 63.71 4.06C63.57 3.51 63.41 3 63.23 2.56C63.18 2.45 63.17 2.36999 63.17 2.28999C63.17 2.01999 63.47 1.78 63.83 1.78C64.09 1.78 64.23 1.9 64.37 2.23V2.22Z" fill="var(--fill-0, white)"/>
<path id="Vector_10" d="M70.25 7.03C70.25 7.36 69.95 7.59 69.55 7.59C69.15 7.59 68.85 7.36 68.85 7.03V0.789993C68.85 0.469993 69.15 0.229996 69.55 0.229996C69.95 0.229996 70.26 0.459993 70.26 0.789993V2.45C71.79 2.92 72.27 3.09 73.43 3.59C73.71 3.71 73.86 3.92 73.86 4.2C73.86 4.6 73.54 4.97 73.2 4.97C73.04 4.97 72.98 4.94999 72.66 4.78999C72.07 4.48999 71.24 4.14999 70.25 3.76999V7.01999V7.03Z" fill="var(--fill-0, white)"/>
</g>
</svg>
