<svg preserveAspectRatio="none" width="100%" height="100%" overflow="visible" style="display: block;" viewBox="0 0 39.46 7.62" fill="none" xmlns="http://www.w3.org/2000/svg">
<g id="Group">
<path id="Vector" d="M3.11 4.73C3.15 4.47 3.41 4.31 3.77 4.31C4.13 4.31 4.39 4.48 4.43 4.73H7.12C7.4 4.73 7.61 4.99 7.61 5.35C7.61 5.71 7.41 5.95 7.12 5.95H4.43V7.15C4.43 7.44 4.17 7.62 3.77 7.62C3.37 7.62 3.11 7.44 3.11 7.15V5.95H0.49C0.19 5.95 0 5.72 0 5.35C0 4.98 0.2 4.73 0.49 4.73H3.11ZM3.09 0.849998V0.509998C3.09 0.239998 3.36 0.0499992 3.76 0.0499992C4.16 0.0499992 4.43 0.239998 4.43 0.509998V0.849998H6.8C7.06 0.849998 7.26 1.11 7.26 1.45C7.26 1.79 7.07 2.03 6.8 2.03H5.89C6.07 2.16 6.17 2.32 6.17 2.5C6.17 2.6 6.15 2.68 6.1 2.81C7.05 3.37 7.3 3.59 7.3 3.92C7.3 4.26 7.01 4.56 6.67 4.56C6.48 4.56 6.41 4.52 6.17 4.32C5.9 4.1 5.72 3.95 5.49 3.77C5.06 4.31 4.82 4.49 4.55 4.49C4.2 4.49 3.89 4.2 3.89 3.85C3.89 3.67 3.95 3.55 4.11 3.41C4.41 3.12 4.75 2.7 4.99 2.29C5.06 2.17 5.13 2.09 5.21 2.03H2.59C2.77 2.14 2.88 2.33 2.88 2.53C2.88 2.65 2.85 2.75 2.76 2.9C3.46 3.4 3.63 3.6 3.63 3.89C3.63 4.2 3.34 4.48 3.01 4.48C2.83 4.48 2.72 4.42 2.55 4.25C2.39 4.07 2.28 3.95 2.12 3.8C1.52 4.5 1.28 4.7 0.969999 4.7C0.629999 4.7 0.35 4.4 0.35 4.06C0.35 3.86 0.410001 3.74 0.610001 3.57C1.05 3.18 1.43 2.75 1.7 2.29C1.77 2.16 1.83 2.11 1.94 2.03H0.809999C0.529999 2.03 0.34 1.8 0.34 1.45C0.34 1.1 0.529999 0.849998 0.809999 0.849998H3.1H3.09Z" fill="var(--fill-0, white)"/>
<path id="Vector_2" d="M9.74 2.14H8.46C8.24 2.14 8.08 1.95 8.08 1.67C8.08 1.39 8.23 1.21 8.46 1.21H8.82C8.82 1.21 8.8 1.18 8.79 1.15C8.79 1.15 8.75667 1.09 8.69 0.969997C8.62 0.859997 8.59 0.79 8.59 0.68C8.59 0.38 8.88 0.119999 9.21 0.119999C9.42 0.119999 9.59 0.219998 9.71 0.419998C9.94 0.809998 10.01 0.969999 10.01 1.14C10.01 1.16 10.01 1.17 10.01 1.2H10.36V0.360001C10.36 0.160001 10.62 0 10.94 0C11.24 0 11.51 0.170001 11.51 0.360001V1.2H12.03V0.360001C12.03 0.160001 12.29 0 12.61 0C12.91 0 13.18 0.170001 13.18 0.360001V1.2H13.48C13.5 1.14 13.51 1.13 13.55 1.06C13.64 0.909998 13.77 0.649999 13.85 0.459999C13.95 0.229999 14.11 0.119999 14.34 0.119999C14.68 0.119999 14.96 0.38 14.96 0.68C14.96 0.83 14.93 0.939999 14.79 1.19H15.2C15.42 1.19 15.58 1.38 15.58 1.65C15.58 1.92 15.43 2.11 15.2 2.11H13.93C13.86 2.25 13.81 2.35 13.74 2.48H15C15.18 2.48 15.31 2.66 15.31 2.9C15.31 3.14 15.18 3.31 15 3.31H12.4V3.55H14.83C15.01 3.55 15.14 3.73 15.14 3.95C15.14 4.17 15.01 4.35 14.83 4.35H12.4V4.61H15.15C15.36 4.61 15.51 4.81 15.51 5.07C15.51 5.33 15.36 5.53 15.15 5.53H13.17C13.73 5.84 14.45 6.13 15.1 6.29C15.44 6.37 15.63 6.56 15.63 6.84C15.63 7.18 15.36 7.47 15.03 7.47C14.53 7.47 13.3 6.81 12.4 6.09V7.21C12.4 7.44 12.15 7.59 11.78 7.59C11.41 7.59 11.16 7.44 11.16 7.21V6.15C10.26 6.86 9.07 7.49 8.63 7.49C8.31 7.49 8.04 7.21 8.04 6.88C8.04 6.69 8.14 6.5 8.31 6.39C8.38 6.35 8.39 6.35 8.66 6.26C9.21 6.09 9.91 5.8 10.41 5.52H8.47C8.26 5.52 8.11 5.33 8.11 5.06C8.11 4.79 8.26 4.6 8.47 4.6H11.16V4.34H8.79C8.61 4.34 8.48 4.18 8.48 3.94C8.48 3.7 8.61 3.54 8.79 3.54H11.16V3.3H8.6C8.42 3.3 8.29 3.13 8.29 2.88C8.29 2.63 8.42 2.46 8.6 2.46H9.97C9.92 2.38 9.88 2.3 9.84 2.22L9.76 2.09L9.74 2.14ZM10.95 2.14C11.02 2.27 11.07 2.36 11.14 2.51H12.47C12.57 2.33 12.61 2.29 12.68 2.14H10.95Z" fill="var(--fill-0, white)"/>
<path id="Vector_3" d="M19.19 1.6V0.559998C19.19 0.259998 19.47 0.0599976 19.88 0.0599976C20.29 0.0599976 20.57 0.259998 20.57 0.559998V1.6H22.7C22.99 1.6 23.2 1.87 23.2 2.25C23.2 2.63 22.99 2.88 22.7 2.88H20.57V3.83H22.31C22.57 3.83 22.77 4.1 22.77 4.46C22.77 4.82 22.57 5.09 22.31 5.09H20.57V6.07H23.04C23.34 6.07 23.54 6.34 23.54 6.73C23.54 7.12 23.34 7.39 23.04 7.39H16.59C16.29 7.39 16.09 7.12 16.09 6.73C16.09 6.34 16.3 6.07 16.59 6.07H19.2V5.09H17.41C17.15 5.09 16.95 4.83 16.95 4.46C16.95 4.09 17.14 3.83 17.41 3.83H19.2V2.88H17.85C17.71 3.14 17.58 3.36 17.45 3.54C17.28 3.78 17.03 3.92 16.79 3.92C16.42 3.92 16.13 3.62 16.13 3.25C16.13 3.06 16.18 2.94 16.32 2.72C16.7 2.16 17.05 1.45 17.21 0.93C17.32 0.58 17.56 0.389999 17.88 0.389999C18.25 0.389999 18.54 0.669998 18.54 1.01C18.54 1.16 18.51 1.31 18.41 1.59H19.21L19.19 1.6Z" fill="var(--fill-0, white)"/>
<path id="Vector_4" d="M27.52 5.62C27.06 6.48 26.52 6.9 25.87 6.9C24.88 6.9 24.1 5.76 24.1 4.31C24.1 3.03 24.67 1.92 25.71 1.16C26.36 0.69 27.13 0.459999 28 0.459999C30.07 0.459999 31.49 1.81 31.49 3.79C31.49 4.87 31.17 5.71 30.52 6.31C30.04 6.76 29.64 7 28.99 7.21C28.77 7.28 28.67 7.31 28.55 7.31C28.18 7.31 27.93 7.03 27.93 6.61C27.93 6.41 28.02 6.24 28.19 6.13C28.25 6.08 28.3 6.07 28.48 6C29.63 5.58 30.14 4.9 30.14 3.79C30.14 3.17 29.97 2.66 29.64 2.29C29.4 2.02 29.16 1.88 28.67 1.72C28.67 1.72 28.6533 1.71333 28.62 1.7C28.36 3.52 28.08 4.55 27.51 5.62H27.52ZM27.35 1.68C27.01 1.76 26.76 1.87 26.52 2.05C25.82 2.56 25.42 3.38 25.42 4.32C25.42 4.98 25.64 5.52 25.92 5.52C26.07 5.52 26.24 5.32 26.43 4.92C26.85 4.04 27.17 2.94 27.33 1.8L27.35 1.68Z" fill="var(--fill-0, white)"/>
<path id="Vector_5" d="M33.88 5.82C33.71 6.86 33.19 7.61 32.64 7.61C32.26 7.61 31.93 7.29 31.93 6.92C31.93 6.74 31.98 6.63 32.15 6.38C32.49 5.89 32.64 5.35 32.64 4.61V4.04C32.64 3.48 32.9 3.22 33.46 3.21H38.34C38.84 3.21 39.08 3.47 39.08 3.95V5.06C39.08 5.56 38.82 5.8 38.34 5.8H33.89L33.88 5.82ZM35.12 0.59V0.5C35.12 0.22 35.39 0.0200005 35.78 0.0200005C36.17 0.0200005 36.46 0.22 36.46 0.5V0.59H39.08C39.3 0.59 39.46 0.810001 39.46 1.11C39.46 1.41 39.3 1.63 39.08 1.63H36.46V1.93H38.78C39 1.93 39.17 2.17 39.17 2.45C39.17 2.73 38.99 2.95 38.78 2.95H32.79C32.56 2.95 32.4 2.74 32.4 2.45C32.4 2.16 32.56 1.93 32.79 1.93H35.12V1.63H32.49C32.27 1.63 32.11 1.41 32.11 1.11C32.11 0.810001 32.26 0.59 32.49 0.59H35.12ZM33.95 4.8H35.21V4.2H34.07C33.98 4.2 33.94 4.24 33.94 4.32V4.8H33.95ZM36.46 4.2V4.8H37.64C37.72 4.8 37.75 4.77 37.76 4.68V4.32C37.76 4.24 37.72 4.21 37.64 4.2H36.46Z" fill="var(--fill-0, white)"/>
</g>
</svg>
