<svg preserveAspectRatio="none" width="100%" height="100%" overflow="visible" style="display: block;" viewBox="0 0 42.93 7.65001" fill="none" xmlns="http://www.w3.org/2000/svg">
<g id="Group">
<path id="Vector" d="M6.33 2.46001C6.04 3.50001 5.46 4.59 4.79 5.33C5.32 5.66 5.92 5.89 6.84 6.13C7.26 6.23 7.49 6.47001 7.49 6.81001C7.49 6.95001 7.45 7.10001 7.38 7.23001C7.25 7.47001 7.05 7.58 6.78 7.58C6.64 7.58 6.52 7.56001 6.28 7.49001C5.39 7.25001 4.6 6.85001 3.81 6.24001C2.99 6.85001 2.19 7.26 1.36 7.5C1.07 7.59 0.86 7.63 0.73 7.63C0.31 7.63 0 7.31 0 6.88C0 6.63 0.139997 6.43001 0.379997 6.32001C0.419997 6.30001 0.539998 6.26334 0.739998 6.21001C1.42 6.02001 2.2 5.67 2.79 5.27C2.15 4.53 1.6 3.53001 1.23 2.45001H0.549999C0.279999 2.45001 0.0900002 2.19 0.0900002 1.83C0.0900002 1.47 0.269999 1.21001 0.549999 1.21001H3.08V0.540009C3.08 0.260009 3.36 0.0700073 3.76 0.0700073C4.16 0.0700073 4.46 0.260009 4.46 0.540009V1.21001H6.99C7.25 1.21001 7.44 1.47 7.44 1.83C7.44 2.19 7.26 2.45001 6.99 2.45001H6.35L6.33 2.46001ZM2.56 2.46001C2.85 3.24001 3.25 3.90001 3.77 4.46001C4.29 3.89001 4.68 3.24001 4.96 2.46001H2.56Z" fill="var(--fill-0, white)"/>
<path id="Vector_2" d="M11.08 4.62001C11.08 4.62001 11.08 4.56 11.08 4.55C11.08 4.29 11.34 4.06001 11.64 4.06001H11.69C11.8 3.97001 11.86 3.9 11.86 3.86C11.86 3.84 11.83 3.82001 11.77 3.82001H10C9.75 3.82001 9.58 3.60001 9.58 3.29001C9.58 2.98001 9.76 2.76001 10 2.76001H13.35C13.69 2.76001 13.95 2.98001 13.95 3.26001C13.95 3.60001 13.54 3.94001 12.37 4.62001H15.09C15.35 4.62001 15.54 4.85 15.54 5.16C15.54 5.47 15.35 5.71001 15.09 5.71001H12.64C12.64 5.82001 12.66 5.91001 12.66 6.01001C12.66 6.50001 12.58 6.9 12.42 7.16C12.21 7.5 11.9 7.65001 11.34 7.65001C10.99 7.65001 10.49 7.59 10.25 7.52C9.99 7.45 9.84 7.25001 9.84 6.98001C9.84 6.64001 10.04 6.40001 10.31 6.40001C10.37 6.40001 10.41 6.40001 10.53 6.43001C10.71 6.48001 10.91 6.5 11.05 6.5C11.31 6.5 11.39 6.32 11.39 5.8V5.74001C11.39 5.74001 11.39 5.72001 11.39 5.71001H8.49C8.23 5.71001 8.05 5.49 8.05 5.16C8.05 4.83 8.23 4.62001 8.49 4.62001H11.11H11.08ZM12.94 1.33C13.09 1.07 13.24 0.740012 13.36 0.450012C13.48 0.150012 13.65 0.030014 13.92 0.030014C14.3 0.030014 14.61 0.29001 14.61 0.62001C14.61 0.79001 14.55 0.910002 14.3 1.33H14.64C15.17 1.33 15.42 1.59 15.42 2.11V3C15.42 3.26 15.16 3.46001 14.8 3.46001C14.44 3.46001 14.18 3.27 14.18 3V2.51001C14.18 2.41001 14.13 2.37001 14.04 2.37001H9.48C9.38 2.37001 9.34 2.42001 9.34 2.51001V2.99001C9.34 3.26001 9.08 3.45001 8.72 3.45001C8.36 3.45001 8.1 3.26001 8.1 2.99001V2.11C8.1 1.58 8.36 1.33 8.88 1.33H9.26C9.14 1.11 9.14 1.11 9.04 0.970001C8.98 0.870001 8.94 0.770013 8.94 0.670013C8.94 0.340013 9.27 0.0500031 9.64 0.0500031C9.82 0.0500031 9.97 0.120004 10.08 0.270004C10.31 0.590004 10.42 0.830005 10.42 0.990005C10.42 1.11001 10.37 1.21001 10.28 1.32001H11.22L11.18 1.23001C11.14 1.12001 11.12 1.06001 11 0.840012C10.94 0.730012 10.91 0.640003 10.91 0.550003C10.91 0.250003 11.23 0 11.59 0C11.81 0 11.99 0.100003 12.09 0.300003C12.27 0.610003 12.37 0.880014 12.37 1.03001C12.37 1.14001 12.34 1.24 12.27 1.33H12.94Z" fill="var(--fill-0, white)"/>
<path id="Vector_3" d="M17.55 0.830002V0.450012C17.55 0.230012 17.81 0.0700073 18.15 0.0700073C18.49 0.0700073 18.75 0.230012 18.75 0.450012V0.830002H19.89C20.11 0.830002 20.27 1.07001 20.27 1.39001C20.27 1.71001 20.11 1.93001 19.89 1.93001H19.81C19.72 2.29001 19.67 2.52001 19.59 2.79001H19.95C20.15 2.79001 20.32 3.05001 20.32 3.37001C20.32 3.69001 20.16 3.93001 19.95 3.93001H16.34C16.12 3.93001 15.97 3.70001 15.97 3.37001C15.97 3.04001 16.13 2.79001 16.34 2.79001H16.75C16.69 2.49001 16.62 2.26001 16.53 1.93001H16.41C16.2 1.93001 16.05 1.71001 16.05 1.39001C16.05 1.07001 16.2 0.830002 16.41 0.830002H17.57H17.55ZM19.33 4.31001C19.8 4.31001 20.03 4.55001 20.03 5.04001V6.78001C20.03 7.28001 19.8 7.53001 19.32 7.53001H16.97C16.49 7.53001 16.26 7.28001 16.26 6.78001V5.04001C16.26 4.56001 16.5 4.31001 16.97 4.31001H19.33ZM17.42 6.28001C17.42 6.38001 17.48 6.44 17.57 6.44H18.72C18.82 6.44 18.87 6.38 18.87 6.27V5.53001C18.87 5.44001 18.81 5.38 18.73 5.38H17.57C17.47 5.38 17.42 5.44001 17.42 5.53001V6.27V6.28001ZM17.6 1.94C17.6 1.94 17.62 2.00001 17.63 2.06001C17.69 2.25001 17.77 2.62 17.81 2.8H18.48C18.55 2.55 18.63 2.25 18.69 1.94H17.6ZM21.58 7.18001C21.58 7.47001 21.36 7.64001 21 7.64001C20.64 7.64001 20.42 7.46001 20.42 7.18001V1.07001C20.42 0.610007 20.65 0.37001 21.12 0.37001H22.77C23.2 0.37001 23.43 0.59 23.43 1C23.43 1.3 23.19 2.32001 22.97 3.01001C22.93 3.12001 22.91 3.20001 22.91 3.26001C22.91 3.34001 22.93 3.4 23.01 3.52C23.39 4.08 23.56 4.68001 23.56 5.40001C23.56 6.38001 23.29 6.77 22.61 6.77C22.4 6.77 22 6.74001 21.89 6.71001C21.74 6.68001 21.63 6.59 21.56 6.44V7.18001H21.58ZM21.58 5.76001C21.66 5.59001 21.79 5.5 21.95 5.5H22.13C22.13 5.5 22.2 5.52 22.23 5.52C22.39 5.52 22.44 5.43001 22.44 5.14001C22.44 4.65001 22.3 4.18001 22 3.73001C21.88 3.55001 21.84 3.45 21.84 3.33C21.84 3.26 21.86 3.17001 21.91 3.03001C22.01 2.73001 22.22 1.83 22.22 1.66C22.22 1.6 22.18 1.56001 22.08 1.56001H21.7C21.61 1.56001 21.58 1.60001 21.58 1.70001V5.75V5.76001Z" fill="var(--fill-0, white)"/>
<path id="Vector_4" d="M27.65 3.31001C28.31 3.49001 28.7 3.69001 29.03 4.01001C29.41 4.38001 29.57 4.75001 29.57 5.31001C29.57 6.00001 29.18 6.63 28.55 6.94C28.13 7.16 27.54 7.27 26.81 7.27C25.92 7.27 25.12 7.03001 24.57 6.59001C24.24 6.33001 24.09 6.10001 24.09 5.85001C24.09 5.52001 24.39 5.22 24.71 5.22C24.89 5.22 24.99 5.26 25.23 5.47C25.69 5.85 26.21 6.04001 26.85 6.04001C27.2 6.04001 27.53 5.98001 27.68 5.87001C27.87 5.74001 27.99 5.55 27.99 5.36C27.99 4.9 27.73 4.69001 26.88 4.43001L26.29 4.25C25.58 4.04 25.22 3.89001 24.99 3.73001C24.6 3.44001 24.37 2.97001 24.37 2.43001C24.37 1.18001 25.31 0.460007 26.93 0.460007C27.6 0.460007 28.39 0.690014 28.83 1.03001C29.08 1.21001 29.17 1.37001 29.17 1.60001C29.17 1.92001 28.88 2.21001 28.57 2.21001C28.41 2.21001 28.34 2.19001 28.1 2.03001C27.72 1.79001 27.32 1.67001 26.9 1.67001C26.27 1.67001 25.88 1.93 25.88 2.33C25.88 2.73 26.11 2.90001 26.99 3.14001L27.64 3.32001L27.65 3.31001Z" fill="var(--fill-0, white)"/>
<path id="Vector_5" d="M32.13 2.17001C32.19 2.88001 32.23 3.71 32.23 4.44V6.68001C32.23 7.01001 31.93 7.24001 31.52 7.24001C31.11 7.24001 30.81 7.01001 30.81 6.68001V1.39001C30.81 0.920015 31.28 0.5 31.81 0.5C32.43 0.5 32.74 0.68 33.05 1.25L34.32 3.54001C34.62 4.09001 34.84 4.56001 35.02 5.04001H35.06C35.02 4.52001 34.99 3.56001 34.99 2.93001V1.06001C34.99 0.730013 35.29 0.5 35.7 0.5C36.11 0.5 36.41 0.730013 36.41 1.06001V6.35001C36.41 6.81001 36.04 7.25 35.67 7.25C35.13 7.25 34.87 7.10001 34.59 6.62001L32.94 3.8C32.67 3.33 32.34 2.65001 32.17 2.18001H32.13V2.17001Z" fill="var(--fill-0, white)"/>
<path id="Vector_6" d="M41.01 3.31001C41.67 3.49001 42.06 3.69001 42.39 4.01001C42.77 4.38001 42.93 4.75001 42.93 5.31001C42.93 6.00001 42.54 6.63 41.91 6.94C41.49 7.16 40.9 7.27 40.17 7.27C39.28 7.27 38.48 7.03001 37.93 6.59001C37.6 6.33001 37.45 6.10001 37.45 5.85001C37.45 5.52001 37.75 5.22 38.07 5.22C38.25 5.22 38.35 5.26 38.59 5.47C39.05 5.85 39.57 6.04001 40.21 6.04001C40.56 6.04001 40.89 5.98001 41.04 5.87001C41.23 5.74001 41.35 5.55 41.35 5.36C41.35 4.9 41.09 4.69001 40.24 4.43001L39.65 4.25C38.94 4.04 38.58 3.89001 38.35 3.73001C37.96 3.44001 37.73 2.97001 37.73 2.43001C37.73 1.18001 38.67 0.460007 40.29 0.460007C40.96 0.460007 41.75 0.690014 42.19 1.03001C42.44 1.21001 42.53 1.37001 42.53 1.60001C42.53 1.92001 42.24 2.21001 41.93 2.21001C41.77 2.21001 41.7 2.19001 41.46 2.03001C41.08 1.79001 40.68 1.67001 40.26 1.67001C39.63 1.67001 39.24 1.93 39.24 2.33C39.24 2.73 39.47 2.90001 40.35 3.14001L41 3.32001L41.01 3.31001Z" fill="var(--fill-0, white)"/>
</g>
</svg>
