<svg preserveAspectRatio="none" width="100%" height="100%" overflow="visible" style="display: block;" viewBox="0 0 75.5599 276.601" fill="none" xmlns="http://www.w3.org/2000/svg">
<g id="Group">
<path id="Vector" d="M64.1906 258.643L64.9637 264.524L70.1249 267.202L64.9135 269.777L64.0199 275.627L60.0335 271.343L54.3201 272.28L57.0613 267.068L54.4305 261.784L60.1138 262.856L64.1906 258.643Z" stroke="var(--stroke-0, #236242)" stroke-width="1.94668" stroke-linecap="round" stroke-linejoin="round"/>
<path id="Vector_2" d="M46.556 2.27799L24.4754 19.0772C23.8629 19.5407 23.7324 20.4367 24.1842 21.065L50.7632 57.8253C51.2151 58.4536 52.0887 58.5876 52.7012 58.1241L74.7817 41.3249C75.3942 40.8614 75.5248 39.9654 75.0729 39.3371L48.4939 2.57673C48.0421 1.94844 47.1685 1.8145 46.556 2.27799ZM68.8373 37.9568C69.2892 38.5851 69.1687 39.4813 68.5461 39.9448L53.4944 51.3982C52.8819 51.8617 52.0083 51.7381 51.5565 51.0995L29.8073 21.302C29.3554 20.6737 29.4759 19.7775 30.0985 19.314L45.1502 7.86058C45.7627 7.39708 46.6363 7.52072 47.0982 8.15931L68.8474 37.9568H68.8373Z" fill="var(--fill-0, #F4C058)"/>
<path id="Vector_3" d="M51.8814 58.0206C51.0178 58.2781 50.0539 57.9692 49.4815 57.1864L22.9026 20.426C22.1796 19.4166 22.3804 17.9953 23.3645 17.2434L45.445 0.444347C46.429 -0.297245 47.8147 -0.0912874 48.5477 0.918102L75.1267 37.6783C75.8497 38.6877 75.6488 40.1092 74.6648 40.8611L52.5843 57.6601C52.3634 57.8249 52.1224 57.9485 51.8814 58.0206ZM46.429 1.8245L24.3485 18.6235C24.0975 18.8089 24.0473 19.1695 24.228 19.427L50.807 56.1873C50.9978 56.4448 51.3492 56.4963 51.5902 56.3109L73.6707 39.5117C73.9218 39.3264 73.972 38.9555 73.7912 38.7083L47.2122 1.94809C47.0315 1.69059 46.67 1.6391 46.429 1.8245ZM52.7951 51.7686C52.4939 51.8613 52.1826 51.882 51.8613 51.8305C51.2789 51.7378 50.7568 51.4287 50.4053 50.9343L28.5256 20.6733C27.8027 19.664 28.0035 18.2425 28.9875 17.4906L44.0392 6.03712C45.0233 5.29552 46.409 5.50161 47.142 6.511L69.0217 36.7719C69.7446 37.7813 69.5438 39.2028 68.5598 39.9547L53.5081 51.4082C53.2872 51.573 53.0562 51.6965 52.7951 51.7686ZM45.204 7.31429C45.1438 7.33489 45.0835 7.36588 45.0233 7.40708L29.9715 18.8606C29.7205 19.0459 29.6703 19.4166 29.8511 19.6638L51.7308 49.9249C51.8211 50.0485 51.9517 50.131 52.1023 50.1516C52.2529 50.1722 52.3935 50.1309 52.514 50.0485L67.5657 38.595C67.8167 38.4096 67.8669 38.0492 67.6862 37.7917L45.8065 7.53067C45.6659 7.33498 45.4149 7.2525 45.194 7.3246L45.204 7.31429Z" fill="var(--fill-0, #236241)"/>
<path id="Vector_4" d="M49.3972 189.251C48.9856 189.231 39.1753 188.716 34.2652 181.732L34.0543 181.434L33.7029 181.372C33.241 181.289 32.7791 181.207 32.3272 181.094C27.7585 180.043 23.6517 177.839 20.4686 174.697L19.6352 173.874L21.2719 172.133L22.1154 172.957C25.0273 175.82 28.7325 177.829 32.8393 178.766L33.6627 178.941L33.9338 178.797C34.0945 178.704 34.2752 178.663 34.456 178.663C34.7773 178.663 35.0986 178.797 35.3295 179.044L35.43 179.157L35.5705 179.405C36.896 181.732 39.0247 183.576 41.9065 184.905L43.6035 185.688L43.0914 183.854C42.7299 182.546 42.7801 181.094 43.242 179.518L43.3123 179.26L43.1717 178.787L43.9348 178.55C44.0453 178.508 44.0955 178.498 44.1457 178.478L44.2863 178.436C50.1503 176.634 54.3375 172.401 55.4822 167.127C56.5164 162.348 54.9701 157.27 51.2247 153.202L50.4716 152.306L52.1184 150.709L52.9217 151.574C57.2093 156.23 58.9665 162.09 57.7615 167.652C56.4963 173.462 52.0381 178.241 45.8226 180.435L45.3306 180.61L45.2502 181.135C45.0795 182.227 45.2201 183.195 45.672 184.029C46.8267 186.151 49.6081 186.862 49.7286 186.893C50.321 187.037 50.7026 187.614 50.6223 188.221C50.5419 188.808 50.07 189.241 49.4976 189.251H49.4173H49.3972ZM10.7588 173.276C6.00932 173.369 1.94265 171.711 1.50083 171.515C0.94857 171.278 0.657388 170.629 0.838129 170.032C0.988746 169.537 1.4205 169.208 1.92256 169.197C2.01293 169.197 2.10331 169.197 2.19368 169.228C2.33425 169.259 2.98694 169.373 3.83039 169.362C4.7341 169.342 6.01936 169.166 7.0536 168.404C7.77657 167.869 8.29872 167.086 8.59995 166.076L8.77065 165.51L8.3188 165.129C1.77195 159.639 -1.17011 151.955 0.426437 144.57C2.43467 135.331 11.4717 128.739 22.4166 128.544C24.7361 128.503 27.0857 128.75 29.3952 129.275C40.7317 131.871 49.2667 141.027 49.6884 151.049L49.7386 152.306L49.6181 153.603C49.5579 154.283 49.4474 154.973 49.2868 155.694C47.2886 164.902 38.2415 171.474 27.2966 171.669C25.5695 171.7 24.1537 171.628 22.8283 171.443L21.0611 171.195L20.4084 171.051H20.308C20.308 171.051 19.7155 170.907 19.5147 170.856L19.1633 170.763L18.852 170.959C16.5325 172.431 13.8113 173.204 10.7488 173.255L10.7588 173.276ZM10.5078 167.642L10.4776 167.714C10.2065 168.332 9.86514 168.888 9.46349 169.352L8.22843 170.794L10.0961 170.825C10.317 170.825 10.5279 170.825 10.7387 170.825C13.1988 170.784 15.3777 170.227 17.2153 169.177L17.5266 169.002L17.8479 167.879L18.9624 168.219C19.5749 168.404 20.1975 168.569 20.8201 168.713C22.9588 169.208 25.1378 169.434 27.2765 169.393C37.1169 169.208 45.2302 163.388 47.0074 155.231C49.2265 145.003 41.0932 134.404 28.8831 131.613C26.7443 131.119 24.5654 130.892 22.4267 130.933C12.5863 131.119 4.47302 136.938 2.69574 145.096C1.22973 151.863 4.2722 159.093 10.6383 163.975C10.8592 164.14 11.06 164.295 11.2709 164.439L12.2248 165.129L10.5078 167.652V167.642Z" fill="var(--fill-0, #236242)"/>
</g>
</svg>
