<svg preserveAspectRatio="none" width="100%" height="100%" overflow="visible" style="display: block;" viewBox="0 0 102.865 96.2066" fill="none" xmlns="http://www.w3.org/2000/svg">
<g id="Group">
<g id="Group_2">
<path id="Vector" d="M82.3839 61.3877C77.4391 61.1571 72.4943 61.2084 67.5494 61.2852C66.9345 60.9522 66.1659 61.1059 65.7816 60.7984C61.3235 57.3652 74.877 58.7488 78.592 58.262C84.1518 57.5446 89.2247 57.4421 94.3489 57.3652C93.3497 55.6743 92.9141 54.4957 91.71 54.2395C90.3264 53.932 65.1411 60.1579 64.5518 55.3668C58.1209 61.234 58.3003 63.258 53.0224 69.7658C57.9416 74.0188 46.8221 87.1367 49.7685 90.6981C54.5084 82.115 55.7894 72.7122 58.1978 64.0011C60.5293 64.1292 62.579 63.7961 64.8336 62.8737C65.1923 72.456 64.3468 81.5001 60.3756 90.2625C58.1722 89.2633 57.8391 87.0086 55.6101 86.3937C53.6885 89.5195 53.6373 93.0552 51.0752 96.2065C48.2569 93.7982 45.6179 93.2345 42.774 94.8999C42.2872 92.8502 42.0822 91.7997 41.4417 90.5699C40.9549 89.5963 38.9309 90.9543 37.5473 91.1336L1.78052 51.1394C-0.525367 48.5516 -0.448504 46.6045 1.19123 43.7861L19.7152 12.2724C20.8425 10.3765 24.7625 7.7119 26.9146 6.89203L63.8856 0C67.7544 1.05046 70.419 5.66222 72.9298 8.50614L102.086 41.5059C102.906 42.4282 103.188 43.7349 102.394 44.6316C101.907 45.1953 100.729 45.4259 99.14 45.759C98.9351 47.3475 100.447 48.5516 100.575 50.2682C100.729 52.3179 98.192 52.7279 96.3473 52.9841C96.8598 54.9825 99.4475 56.4173 99.6268 57.9801C100.062 61.4902 84.0493 61.4646 82.3839 61.3621V61.3877ZM48.1288 70.56C48.7693 71.0212 48.5387 69.7914 49.0511 69.5095C51.3058 68.3566 59.2739 52.9584 66.4221 51.0369L98.4483 42.377L63.9625 3.3051C52.0488 5.32915 41.1343 6.86641 29.6305 9.47974C27.0171 10.069 22.9946 12.9898 21.6624 15.3213L3.06156 47.3218C5.54679 50.755 8.08326 53.4452 10.7222 56.0842C12.2082 54.5982 11.5933 53.0609 12.0545 52.651C12.9512 51.8824 14.3348 51.9848 14.9753 52.9328C15.5646 53.8039 15.4365 54.88 14.386 55.8536C13.7711 56.4429 12.4388 55.0081 10.7478 55.5205C11.3371 57.6214 13.5405 60.0042 15.2827 60.7216C15.8976 60.7216 16.7431 59.4918 17.2556 59.4149C18.2291 59.2612 19.2284 60.0042 19.459 60.8241C19.7664 61.977 18.1523 62.7456 17.9729 63.7192C17.563 65.9482 20.8169 66.7425 22.8153 66.9218C24.2244 68.126 23.1227 70.5344 24.3013 71.7386C29.2205 76.8628 33.0893 82.32 38.1366 86.7268C39.5458 84.7028 37.1118 84.754 36.7018 84.1135C36.1126 83.1911 36.6506 82.0382 37.2911 81.3977C38.2391 80.4497 39.1871 81.7563 40.4681 82.0638C41.7492 82.3712 44.055 79.0918 42.6971 78.0669C41.5442 77.1958 40.545 76.7603 40.6475 75.7098C40.7243 74.9668 41.2367 74.0957 42.0566 73.8651C43.4914 73.4296 44.1575 74.4544 44.6187 76.7603C45.8741 75.0949 47.8213 73.4808 48.1031 70.56H48.1288ZM95.425 49.7046C94.8101 46.9888 93.0935 46.9631 91.7612 47.2962L67.3957 53.4709C77.2598 54.5982 86.1758 51.6774 95.425 49.7046ZM58.9408 83.1399C60.7855 76.8628 61.4516 71.6873 61.8103 65.7177C61.0673 65.8714 54.8671 85.7276 58.9408 83.1399ZM45.4898 88.7509C47.3601 83.9854 50.3322 79.2455 50.7933 73.9676C47.7445 77.5545 45.7716 81.3208 42.9021 85.0871C41.9541 86.3425 43.9782 89.1096 45.5154 88.7509H45.4898Z" fill="var(--fill-0, #226E77)"/>
<path id="Vector_2" d="M49.0513 69.5352C48.667 70.0476 48.1545 70.3294 48.1289 70.5856C46.566 70.5088 45.5412 70.2782 45.1056 69.5352C44.6188 68.6897 44.9775 67.7673 45.4131 67.2293C46.028 66.4863 47.4884 66.5119 48.2058 67.2037C48.667 67.6648 48.7438 68.5872 49.0513 69.5352Z" fill="var(--fill-0, #226E77)"/>
<path id="Vector_3" d="M82.3841 61.3877C82.256 62.6175 70.1117 62.6432 67.5496 61.2852C72.4944 61.2084 77.4392 61.1571 82.3841 61.3877Z" fill="var(--fill-0, #70BC96)"/>
<path id="Vector_4" d="M48.1289 70.56C48.1289 70.3294 48.667 70.0476 49.0513 69.5096C48.5132 69.7914 48.7694 70.9956 48.1289 70.56Z" fill="var(--fill-0, #E4D66D)"/>
<path id="Vector_5" d="M49.0513 69.5352C48.7182 68.5872 48.667 67.6649 48.2058 67.2037C47.4884 66.5119 46.028 66.4863 45.4131 67.2293C44.9775 67.7673 44.6189 68.6897 45.1057 69.5352C45.5412 70.2782 46.566 70.5088 48.1289 70.5856C47.8471 73.4808 45.8999 75.1205 44.6445 76.7859C44.1833 74.48 43.5172 73.4552 42.0824 73.8907C41.2881 74.1469 40.7757 74.9924 40.6732 75.7354C40.5451 76.8115 41.5443 77.2215 42.7229 78.0926C44.0808 79.1174 41.8262 82.4225 40.4939 82.0894C39.1616 81.7564 38.2649 80.4753 37.3169 81.4233C36.6764 82.0638 36.1383 83.2168 36.7276 84.1391C37.1375 84.7796 39.5715 84.7284 38.1624 86.7524C33.1151 82.3456 29.2207 76.8884 24.3271 71.7642C23.1485 70.5344 24.2758 68.126 22.8411 66.9475C20.8426 66.7681 17.5888 65.9739 17.9987 63.7449C18.1781 62.7713 19.7922 62.0026 19.4847 60.8497C19.2798 60.0298 18.2549 59.2868 17.2813 59.4405C16.7689 59.5174 15.9234 60.7472 15.3085 60.7472C13.5663 60.0298 11.3629 57.6471 10.7736 55.5462C12.4646 55.0081 13.7969 56.4685 14.4118 55.8792C15.4366 54.9056 15.5903 53.8296 15.0011 52.9584C14.3349 52.0105 12.977 51.908 12.0803 52.6766C11.6191 53.0609 12.2084 54.6238 10.748 56.1098C8.10903 53.4709 5.57256 50.8063 3.08733 47.3475L21.6881 15.3469C23.046 13.0154 27.0429 10.1203 29.6562 9.50536C41.1856 6.89203 52.0745 5.35477 63.9883 3.33072L98.4484 42.4026L66.4223 51.0625C59.274 53.0097 51.3315 68.3822 49.0513 69.5352ZM32.1158 10.1203L29.9381 11.9906L62.1179 49.4996L64.2957 47.6293L32.1158 10.1203ZM41.4931 39.7124C44.5676 42.0952 54.3548 56.033 55.0466 56.033C56.0714 56.033 57.1219 55.5462 57.0706 54.3164C56.9681 51.1906 53.0481 52.1642 52.587 45.8102L48.8463 43.8374L28.4777 18.857C27.3247 17.4478 26.6586 14.7064 23.9171 15.8594C22.9179 16.2693 23.8659 19.0363 24.8395 19.6C27.7347 21.2141 27.6322 24.2374 29.0413 26.6458C29.5794 27.5425 31.8596 27.5169 32.4489 28.2343C34.1655 30.3352 30.6811 35.8693 34.9598 34.1014C36.8045 33.3328 37.4706 34.3064 38.3673 35.6131C39.2641 36.9197 37.7524 37.4065 36.907 38.6876C35.8565 40.3017 37.1888 41.3009 38.3417 41.6084C39.4947 41.9158 40.5707 39.3794 41.4931 39.738V39.7124ZM23.7634 25.211C23.7634 24.1349 22.8923 23.2382 21.7906 23.2382C20.6889 23.2382 19.8178 24.1093 19.8178 25.211C19.8178 26.3127 20.6889 27.1838 21.7906 27.1838C22.8923 27.1838 23.7634 26.3127 23.7634 25.211ZM19.5103 32.4361C19.5103 31.3856 18.6392 30.5145 17.5888 30.5145C16.5383 30.5145 15.6672 31.3856 15.6672 32.4361C15.6672 33.4865 16.5383 34.3577 17.5888 34.3577C18.6392 34.3577 19.5103 33.4865 19.5103 32.4361ZM27.8371 32.4617C27.8371 31.4112 26.9917 30.5401 25.9156 30.5401C24.8395 30.5401 23.994 31.3856 23.994 32.4617C23.994 33.5378 24.8395 34.3833 25.9156 34.3833C26.9917 34.3833 27.8371 33.5378 27.8371 32.4617ZM15.3598 39.6099C15.3598 38.5339 14.4886 37.6884 13.4382 37.6884C12.3877 37.6884 11.5166 38.5595 11.5166 39.6099C11.5166 40.6604 12.3877 41.5315 13.4382 41.5315C14.4886 41.5315 15.3598 40.6604 15.3598 39.6099ZM23.6866 39.6099C23.6866 38.5595 22.8154 37.6884 21.765 37.6884C20.7145 37.6884 19.8434 38.5595 19.8434 39.6099C19.8434 40.6604 20.7145 41.5315 21.765 41.5315C22.8154 41.5315 23.6866 40.6604 23.6866 39.6099ZM32.039 39.6099C32.039 38.5595 31.1679 37.6884 30.1174 37.6884C29.067 37.6884 28.1958 38.5595 28.1958 39.6099C28.1958 40.6604 29.067 41.5315 30.1174 41.5315C31.1679 41.5315 32.039 40.6604 32.039 39.6099ZM11.1579 46.8863C11.1579 45.8102 10.2868 44.9647 9.23636 44.9647C8.1859 44.9647 7.31479 45.8358 7.31479 46.8863C7.31479 47.9367 8.1859 48.8079 9.23636 48.8079C10.2868 48.8079 11.1579 47.9367 11.1579 46.8863ZM19.5103 46.8607C19.5103 45.8102 18.6392 44.9391 17.5888 44.9391C16.5383 44.9391 15.6672 45.8102 15.6672 46.8607C15.6672 47.9111 16.5383 48.7822 17.5888 48.7822C18.6392 48.7822 19.5103 47.9111 19.5103 46.8607ZM27.8628 46.8863C27.8628 45.8102 26.9917 44.9647 25.9412 44.9647C24.8907 44.9647 24.0196 45.8358 24.0196 46.8863C24.0196 47.9367 24.8907 48.8079 25.9412 48.8079C26.9917 48.8079 27.8628 47.9367 27.8628 46.8863ZM36.1896 46.8863C36.1896 45.8102 35.3185 44.9647 34.268 44.9647C33.2175 44.9647 32.3464 45.8358 32.3464 46.8863C32.3464 47.9367 33.2175 48.8079 34.268 48.8079C35.3185 48.8079 36.1896 47.9367 36.1896 46.8863ZM44.5164 46.8863C44.5164 45.8102 43.6453 44.9391 42.5692 44.9391C41.4931 44.9391 40.622 45.8102 40.622 46.8863C40.622 47.9624 41.4931 48.8335 42.5692 48.8335C43.6453 48.8335 44.5164 47.9624 44.5164 46.8863ZM23.7122 54.0858C23.7122 53.0097 22.8411 52.1642 21.7906 52.1642C20.7402 52.1642 19.869 53.0353 19.869 54.0858C19.869 55.1362 20.7402 56.0073 21.7906 56.0073C22.8411 56.0073 23.7122 55.1362 23.7122 54.0858ZM32.0646 54.0858C32.0646 53.0097 31.1935 52.1642 30.143 52.1642C29.0926 52.1642 28.2215 53.0353 28.2215 54.0858C28.2215 55.1362 29.0926 56.0073 30.143 56.0073C31.1935 56.0073 32.0646 55.1362 32.0646 54.0858ZM40.3914 54.0858C40.3914 53.0097 39.5203 52.1642 38.4698 52.1642C37.4194 52.1642 36.5483 53.0353 36.5483 54.0858C36.5483 55.1362 37.4194 56.0073 38.4698 56.0073C39.5203 56.0073 40.3914 55.1362 40.3914 54.0858ZM48.7438 54.0858C48.7438 53.0097 47.8727 52.1386 46.7966 52.1386C45.7206 52.1386 44.8494 53.0097 44.8494 54.0858C44.8494 55.1618 45.7206 56.033 46.7966 56.033C47.8727 56.033 48.7438 55.1618 48.7438 54.0858ZM27.8884 61.3109C27.8884 60.2348 27.0173 59.3637 25.9412 59.3637C24.8651 59.3637 23.994 60.2348 23.994 61.3109C23.994 62.3869 24.8651 63.2581 25.9412 63.2581C27.0173 63.2581 27.8884 62.3869 27.8884 61.3109ZM36.2152 61.3109C36.2152 60.2348 35.3441 59.3637 34.268 59.3637C33.1919 59.3637 32.3208 60.2348 32.3208 61.3109C32.3208 62.3869 33.1919 63.2581 34.268 63.2581C35.3441 63.2581 36.2152 62.3869 36.2152 61.3109ZM44.5676 61.3365C44.5676 60.2604 43.6965 59.3637 42.5948 59.3637C41.4931 59.3637 40.622 60.2348 40.622 61.3365C40.622 62.4382 41.4931 63.3093 42.5948 63.3093C43.6965 63.3093 44.5676 62.4382 44.5676 61.3365ZM52.8944 61.3109C52.8944 60.2348 52.0233 59.3637 50.9472 59.3637C49.8711 59.3637 49 60.2348 49 61.3109C49 62.3869 49.8711 63.2581 50.9472 63.2581C52.0233 63.2581 52.8944 62.3869 52.8944 61.3109ZM32.039 68.5616C32.039 67.4855 31.1679 66.64 30.1174 66.64C29.067 66.64 28.1958 67.5111 28.1958 68.5616C28.1958 69.612 29.067 70.4832 30.1174 70.4832C31.1679 70.4832 32.039 69.612 32.039 68.5616ZM40.417 68.5616C40.417 67.4855 39.5459 66.6144 38.4698 66.6144C37.3938 66.6144 36.5226 67.4855 36.5226 68.5616C36.5226 69.6377 37.3938 70.5088 38.4698 70.5088C39.5459 70.5088 40.417 69.6377 40.417 68.5616ZM36.2152 75.7867C36.2152 74.7106 35.3441 73.8395 34.268 73.8395C33.1919 73.8395 32.3208 74.7106 32.3208 75.7867C32.3208 76.8628 33.1919 77.7339 34.268 77.7339C35.3441 77.7339 36.2152 76.8628 36.2152 75.7867Z" fill="var(--fill-0, #E4D66D)"/>
<path id="Vector_6" d="M41.4931 39.7124C40.5707 39.3537 39.5459 41.8902 38.3417 41.5828C37.1375 41.2753 35.8309 40.2761 36.907 38.662C37.7524 37.3809 39.2385 36.8429 38.3673 35.5875C37.4962 34.332 36.8045 33.3072 34.9598 34.0758C30.6811 35.8437 34.1655 30.3095 32.4489 28.2086C31.8596 27.4912 29.5537 27.5169 29.0413 26.6201C27.6322 24.2374 27.7347 21.1885 24.8395 19.5744C23.8659 19.0107 22.9179 16.2693 23.9171 15.8337C26.6586 14.6808 27.3247 17.4222 28.4777 18.8314L48.8463 43.8118L52.587 45.7846C53.0481 52.1386 56.9681 51.165 57.0706 54.2907C57.0962 55.4949 56.0714 55.9817 55.0466 56.0073C54.3804 56.0073 44.5676 42.0696 41.4931 39.6868V39.7124Z" fill="var(--fill-0, #226E77)"/>
<path id="Vector_7" d="M32.1055 10.1482L29.9274 12.0164L62.1035 49.5304L64.2817 47.6622L32.1055 10.1482Z" fill="var(--fill-0, #226E77)"/>
<path id="Vector_8" d="M46.7966 56.033C47.872 56.033 48.7438 55.1612 48.7438 54.0858C48.7438 53.0104 47.872 52.1386 46.7966 52.1386C45.7212 52.1386 44.8494 53.0104 44.8494 54.0858C44.8494 55.1612 45.7212 56.033 46.7966 56.033Z" fill="var(--fill-0, #226E77)"/>
<path id="Vector_9" d="M30.1174 56.0073C31.1787 56.0073 32.039 55.147 32.039 54.0858C32.039 53.0245 31.1787 52.1642 30.1174 52.1642C29.0562 52.1642 28.1958 53.0245 28.1958 54.0858C28.1958 55.147 29.0562 56.0073 30.1174 56.0073Z" fill="var(--fill-0, #226E77)"/>
<path id="Vector_10" d="M38.4698 56.0073C39.5311 56.0073 40.3914 55.147 40.3914 54.0858C40.3914 53.0245 39.5311 52.1642 38.4698 52.1642C37.4086 52.1642 36.5483 53.0245 36.5483 54.0858C36.5483 55.147 37.4086 56.0073 38.4698 56.0073Z" fill="var(--fill-0, #226E77)"/>
<path id="Vector_11" d="M30.1174 41.5315C31.1787 41.5315 32.039 40.6712 32.039 39.6099C32.039 38.5487 31.1787 37.6884 30.1174 37.6884C29.0562 37.6884 28.1958 38.5487 28.1958 39.6099C28.1958 40.6712 29.0562 41.5315 30.1174 41.5315Z" fill="var(--fill-0, #226E77)"/>
<path id="Vector_12" d="M30.1174 70.4832C31.1787 70.4832 32.039 69.6228 32.039 68.5616C32.039 67.5003 31.1787 66.64 30.1174 66.64C29.0562 66.64 28.1958 67.5003 28.1958 68.5616C28.1958 69.6228 29.0562 70.4832 30.1174 70.4832Z" fill="var(--fill-0, #226E77)"/>
<path id="Vector_13" d="M38.4698 70.5088C39.5452 70.5088 40.417 69.637 40.417 68.5616C40.417 67.4862 39.5452 66.6144 38.4698 66.6144C37.3944 66.6144 36.5226 67.4862 36.5226 68.5616C36.5226 69.637 37.3944 70.5088 38.4698 70.5088Z" fill="var(--fill-0, #226E77)"/>
<path id="Vector_14" d="M34.268 77.7339C35.3434 77.7339 36.2152 76.8621 36.2152 75.7867C36.2152 74.7113 35.3434 73.8395 34.268 73.8395C33.1926 73.8395 32.3208 74.7113 32.3208 75.7867C32.3208 76.8621 33.1926 77.7339 34.268 77.7339Z" fill="var(--fill-0, #226E77)"/>
<path id="Vector_15" d="M50.9472 63.2581C52.0226 63.2581 52.8944 62.3863 52.8944 61.3109C52.8944 60.2355 52.0226 59.3637 50.9472 59.3637C49.8718 59.3637 49 60.2355 49 61.3109C49 62.3863 49.8718 63.2581 50.9472 63.2581Z" fill="var(--fill-0, #226E77)"/>
<path id="Vector_16" d="M42.5948 63.3093C43.6844 63.3093 44.5676 62.426 44.5676 61.3365C44.5676 60.2469 43.6844 59.3637 42.5948 59.3637C41.5052 59.3637 40.622 60.2469 40.622 61.3365C40.622 62.426 41.5052 63.3093 42.5948 63.3093Z" fill="var(--fill-0, #226E77)"/>
<path id="Vector_17" d="M34.2936 63.2581C35.369 63.2581 36.2408 62.3863 36.2408 61.3109C36.2408 60.2355 35.369 59.3637 34.2936 59.3637C33.2182 59.3637 32.3464 60.2355 32.3464 61.3109C32.3464 62.3863 33.2182 63.2581 34.2936 63.2581Z" fill="var(--fill-0, #226E77)"/>
<path id="Vector_18" d="M34.268 48.8079C35.3293 48.8079 36.1896 47.9475 36.1896 46.8863C36.1896 45.825 35.3293 44.9647 34.268 44.9647C33.2067 44.9647 32.3464 45.825 32.3464 46.8863C32.3464 47.9475 33.2067 48.8079 34.268 48.8079Z" fill="var(--fill-0, #226E77)"/>
<path id="Vector_19" d="M42.5948 48.8335C43.6702 48.8335 44.542 47.9617 44.542 46.8863C44.542 45.8109 43.6702 44.9391 42.5948 44.9391C41.5194 44.9391 40.6476 45.8109 40.6476 46.8863C40.6476 47.9617 41.5194 48.8335 42.5948 48.8335Z" fill="var(--fill-0, #226E77)"/>
</g>
<path id="Vector_20" d="M21.7812 41.5889C22.8565 41.5705 23.7132 40.6839 23.6948 39.6087C23.6765 38.5334 22.7899 37.6767 21.7146 37.6951C20.6394 37.7135 19.7826 38.6001 19.801 39.6753C19.8194 40.7505 20.706 41.6073 21.7812 41.5889Z" fill="var(--fill-0, #226E77)"/>
<path id="Vector_21" d="M22.0058 56.2124C23.0811 56.194 23.9378 55.3074 23.9194 54.2322C23.901 53.1569 23.0144 52.3002 21.9392 52.3186C20.864 52.337 20.0072 53.2235 20.0256 54.2988C20.044 55.374 20.9306 56.2308 22.0058 56.2124Z" fill="var(--fill-0, #226E77)"/>
<path id="Vector_22" d="M13.3302 41.7335C14.4055 41.7151 15.2622 40.8285 15.2438 39.7533C15.2254 38.678 14.3388 37.8213 13.2636 37.8397C12.1884 37.8581 11.3316 38.7446 11.35 39.8199C11.3684 40.8951 12.255 41.7519 13.3302 41.7335Z" fill="var(--fill-0, #226E77)"/>
<path id="Vector_23" d="M21.5072 27.0427C22.6107 27.0238 23.49 26.1139 23.4712 25.0104C23.4523 23.9069 22.5424 23.0276 21.4388 23.0464C20.3353 23.0653 19.456 23.9752 19.4749 25.0788C19.4938 26.1823 20.4037 27.0616 21.5072 27.0427Z" fill="var(--fill-0, #226E77)"/>
<path id="Vector_24" d="M25.8572 34.244C26.9324 34.2256 27.7892 33.339 27.7708 32.2638C27.7524 31.1885 26.8658 30.3318 25.7905 30.3502C24.7153 30.3686 23.8586 31.2551 23.8769 32.3304C23.8953 33.4056 24.7819 34.2624 25.8572 34.244Z" fill="var(--fill-0, #226E77)"/>
<path id="Vector_25" d="M17.4057 34.3882C18.4809 34.3698 19.3377 33.4832 19.3193 32.4079C19.3009 31.3327 18.4143 30.476 17.3391 30.4943C16.2638 30.5127 15.4071 31.3993 15.4255 32.4746C15.4439 33.5498 16.3304 34.4065 17.4057 34.3882Z" fill="var(--fill-0, #226E77)"/>
<path id="Vector_26" d="M26.3571 63.49C27.4465 63.4714 28.3145 62.5732 28.2959 61.4838C28.2772 60.3944 27.379 59.5264 26.2896 59.545C25.2002 59.5636 24.3322 60.4619 24.3508 61.5513C24.3694 62.6407 25.2677 63.5087 26.3571 63.49Z" fill="var(--fill-0, #226E77)"/>
<path id="Vector_27" d="M9.20438 49.1306C10.2796 49.1122 11.1364 48.2256 11.118 47.1504C11.0996 46.0751 10.213 45.2184 9.13777 45.2368C8.06253 45.2552 7.20578 46.1417 7.22417 47.217C7.24256 48.2922 8.12913 49.149 9.20438 49.1306Z" fill="var(--fill-0, #226E77)"/>
<path id="Vector_28" d="M17.6554 48.986C18.7307 48.9676 19.5874 48.081 19.569 47.0058C19.5506 45.9305 18.6641 45.0738 17.5888 45.0922C16.5136 45.1106 15.6568 45.9971 15.6752 47.0724C15.6936 48.1476 16.5802 49.0044 17.6554 48.986Z" fill="var(--fill-0, #226E77)"/>
<path id="Vector_29" d="M26.0817 48.893C27.157 48.8746 28.0137 47.9881 27.9953 46.9128C27.9769 45.8376 27.0904 44.9808 26.0151 44.9992C24.9399 45.0176 24.0831 45.9042 24.1015 46.9794C24.1199 48.0547 25.0065 48.9114 26.0817 48.893Z" fill="var(--fill-0, #226E77)"/>
</g>
</svg>
