<svg preserveAspectRatio="none" width="100%" height="100%" overflow="visible" style="display: block;" viewBox="0 0 371.986 350.964" fill="none" xmlns="http://www.w3.org/2000/svg">
<g id="Group">
<path id="Vector" d="M203.363 275.231C179.91 282.455 157.474 290.846 134.417 299.436C131.318 300.602 128.914 301.124 126.063 302.936C123.807 304.376 105.436 310.731 96.4613 316.391C91.7756 319.37 84.5612 320.338 81.0904 324.981C75.5866 332.378 72.4629 341.042 65.298 347.249C63.2651 349.011 59.943 348.366 57.687 347.025C51.142 343.128 44.0763 340.968 44.5474 334.091C29.945 327.364 16.0617 329.002 3.81454 315.547C1.97995 313.536 -0.647971 311.947 0.145365 308.596C1.18662 304.277 6.39288 298.542 11.5 298.939C19.706 299.585 27.0692 299.734 35.1761 299.386C55.1582 298.567 47.2001 303.879 54.7368 302.39L74.1735 298.567C81.3631 297.152 87.3131 293.925 93.04 289.655L104.866 280.842C109.576 277.341 114.386 274.164 118.997 270.639L133.227 259.691C145.301 250.406 181.67 232.731 196.57 225.383L187.373 224.464C177.134 223.446 166.572 223.446 157.424 218.357C147.136 212.648 137.293 204.902 132.732 193.855C128.839 184.422 134.641 173.722 142.673 168.807C153.656 162.104 164.812 158.182 177.927 157.958C186.778 157.809 196.149 161.086 204.132 165.232C210.478 168.534 215.858 172.481 223.544 172.853C217.643 166.647 218.337 138.868 222.23 134.052C223.668 132.264 226.296 131.023 224.882 127.92C224.064 128.69 223.445 129.434 222.676 129.732C221.635 130.154 220.891 129.434 219.8 128.839C216.85 127.225 216.007 123.551 217.966 120.671L227.659 106.397C231.155 90.1117 233.733 86.9589 247.517 80.9016C241.245 75.2912 238.791 66.9996 239.634 58.9067C240.005 55.3816 238.915 53.8176 237.353 51.1365C232.246 42.3981 231.403 29.8863 235.543 20.6266C238.27 14.5445 243.104 8.90924 248.41 5.1855C263.483 -5.38993 272.359 3.62153 275.383 2.80231L280.887 1.31281C288.101 -0.623538 302.109 10.8952 307.96 19.2364C314.48 28.5458 318.471 49.1753 310.786 59.7011C316.885 63.4745 317.256 68.8863 315.595 74.7202C313.86 80.852 310.265 84.8488 302.778 85.0474C306.77 88.5477 311.083 89.218 315.595 91.5019C321.719 94.5802 327.446 99.3962 331.041 105.429C336.495 114.614 335.999 119.182 335.206 129.683L334.363 140.581C334.115 143.858 334.189 146.34 334.363 149.567L335.255 163.966C336.173 178.762 336.073 183.205 327.272 195.568C335.776 241.37 314.034 244.945 308.034 258.425C304.91 265.5 300.472 272.798 291.374 271.681C284.234 270.813 280.713 262.298 276.895 258.127C271.441 259.79 265.888 260.212 260.26 261.329L249.401 263.464C255.773 266.394 260.285 269.422 265.739 272.277L275.73 277.515C285.622 282.704 295.539 287.917 306.844 289.406C310.687 289.357 314.629 285.633 318 284.019C322.463 281.884 326.454 280.345 330.867 278.756C333.941 277.639 336.197 277.416 338.553 280.42C342.197 285.087 345.593 290.747 346.957 296.829C347.23 298.045 344.552 299.336 345.271 300.851C345.792 301.918 346.486 303.259 347.602 304.425L360.642 318.303C367.435 325.527 372.74 334.811 371.897 345.263C371.402 351.295 358.535 352.561 354.271 348.961C345.544 341.564 327.743 333.769 324.967 330.591C322.884 328.183 322.487 325.328 319.017 323.888C310.91 320.512 302.753 317.905 294.151 315.671L245.856 303.184C233.733 300.056 222.949 296.556 212.189 290.077C206.834 286.849 201.95 283.175 203.264 275.082L203.363 275.231ZM251.881 25.815C252.476 26.5101 252.823 28.1734 251.881 29.1168C242.509 38.7985 237.625 70.6489 250.368 78.3198C256.318 78.0219 257.409 73.33 262.02 70.4503C267.921 76.5324 274.218 68.8367 275.185 71.1702C276.35 73.9754 271.516 74.1989 269.433 76.0607C271.094 82.0932 271.788 87.7036 271.962 93.7609C272.036 96.02 273.053 97.6336 270.698 99.2969C267.202 101.755 263.359 103.467 259.913 106.422C265.789 119.306 261.103 126.406 271.937 136.807C275.829 137.751 278.482 139.166 280.54 142.741C283.961 148.699 287.853 154.259 292.043 159.721C292.217 159.944 294.522 171.364 278.433 144.975C276.598 141.946 274.392 139.886 270.574 140.035C269.037 138.371 268.293 136.435 266.235 134.697C262.417 137.676 259.07 140.606 254.509 142.194C261.475 152.224 255.252 150.486 257.905 156.32C262.615 166.721 269.532 175.46 275.557 184.993C278.581 189.784 280.267 195.791 286.217 198.348C289.936 199.962 294.646 198.299 297.82 195.667C310.24 185.365 313.315 168.36 323.603 153.093C324.049 152.422 324.719 152.373 325.066 152.224C325.388 152.075 326.776 152.695 326.429 153.316C321.942 161.459 317.504 169.08 313.959 177.595C312.397 181.368 310.389 184.571 308.579 188.22C315.744 189.263 320.033 182.014 325.909 191.72C328.264 187.723 331.636 183.925 331.908 179.283C333.198 157.884 328.983 151.777 332.355 122.881C333.297 114.837 328.933 106.993 323.33 101.755C311.306 90.5089 314.058 96.7648 299.431 87.654C297.671 97.9812 280.689 102.921 273.276 103.294C272.607 103.319 272.483 101.159 273.127 101.184C272.507 101.159 295.936 96.2683 295.886 88.2001C295.886 87.083 294.894 85.1963 293.308 84.1785C299.704 77.2275 301.712 86.6858 309.571 78.0219C313.513 73.6775 315.174 67.1238 308.951 62.5311C304.092 70.5 297.473 76.1352 289.837 80.5044C289.043 80.281 289.44 78.7915 288.672 77.9226C290.828 76.0111 295.812 74.7202 296.803 71.8157C297.968 68.4643 300.373 69.0105 301.935 66.6024L306.1 60.2224C317.851 42.2492 307.935 37.1104 308.629 35.8691C309.249 34.752 310.141 33.8087 309.992 32.6419C309.67 29.9856 307.612 30.929 306.1 29.4643C304.687 28.0989 308.455 27.0315 307.067 24.1021C306.695 23.3077 304.166 23.2084 303.943 22.3892C302.976 19.1868 302.282 16.4312 299.208 14.3956C298.439 13.8742 298.142 12.5089 297.2 12.6082C296.258 12.7075 295.316 13.5763 294.175 13.5763C291.771 13.5763 293.729 9.87742 292.737 9.08302C290.01 6.92325 285.374 4.73865 281.655 5.25998L273.202 6.4764L271.293 9.10784C270.846 9.72847 268.962 8.56169 268.937 7.44457C268.937 6.8736 269.433 5.90542 269.656 5.03655C267.995 4.2918 265.814 3.72083 264.029 3.7953C264.648 5.13585 264.624 6.10402 264.177 6.89842C263.681 7.74247 262.541 7.8666 261.822 7.41975C261.277 7.0722 261.326 4.7883 260.409 4.4904C257.682 3.62153 252.55 5.73165 250.914 8.01555C250.244 8.95889 252.302 12.6826 249.401 11.9627C247.914 11.5903 246.798 9.92707 245.584 11.7889C245.063 12.5833 243.451 13.4522 244.989 14.6438C245.98 15.4134 246.402 16.5802 245.782 17.3994C244.022 19.7081 242.485 15.7113 240.774 17.7221C238.27 20.7011 242.212 22.0416 239.857 23.978C239.237 24.4745 235.964 22.836 236.088 32.8901C236.088 34.3052 238.791 35.4471 237.526 37.2097C236.807 38.2523 235.989 39.2205 236.287 40.1639C237.08 42.8698 241.369 41.4299 240.824 44.2103C240.749 44.6324 239.931 45.0792 239.286 45.4268C238.22 45.9729 238.642 47.4872 239.088 47.9341C239.361 48.232 239.559 48.9022 239.881 48.4554C241.691 46.0722 244.27 29.6133 251.757 25.8647L251.881 25.815ZM268.838 94.0837C269.706 87.2816 267.995 82.8876 266.731 77.2772C256.591 74.5712 261.202 76.9544 253.938 80.9264C254.682 90.8564 258.798 91.477 268.838 94.0837ZM240.923 99.3465C242.609 97.5591 243.947 93.8602 247.245 96.1441L258.252 103.716L268.194 97.2861C263.186 95.1015 257.508 94.5057 253.715 90.4096C251.905 88.4732 252.724 85.4446 250.765 83.0117C246.402 88.076 219.379 121.292 220.296 124.569C221.188 127.746 233.014 120.994 234.279 118.561C237.774 111.858 235.518 105.007 240.923 99.3217V99.3465ZM243.997 87.2568C243.997 87.0085 243.799 86.8099 243.551 86.8099C243.303 86.8099 243.104 87.0085 243.104 87.2568C243.104 87.505 243.303 87.7036 243.551 87.7036C243.799 87.7036 243.997 87.505 243.997 87.2568ZM242.237 87.9271C237.353 88.647 233.907 94.2823 233.56 99.4955C237.055 95.8959 239.931 93.4879 242.237 87.9271ZM248.41 117.171C249.277 117.717 248.311 119.082 247.914 119.132C245.088 119.405 242.782 115.805 239.485 115.334C238.32 115.16 238.022 116.972 238.617 117.494L240.08 118.76C242.46 120.845 244.716 121.987 245.088 125.363C245.435 128.566 246.526 132.463 249.352 134.424C250.963 135.541 253.641 137.875 255.649 137.949C258.599 138.049 262.169 134.722 263.607 132.562C263.235 127.721 261.103 122.831 260.409 118.04C258.401 104.262 254.31 104.56 245.732 98.5025C244.889 97.9067 243.823 99.3465 243.972 99.8679C245.187 103.89 255.203 106.72 253.74 109.525C252.327 112.256 246.798 105.156 241.146 103.319C240.055 102.971 240.179 105.851 241.369 106.571C244.542 108.457 252.327 112.628 251.162 114.862C249.996 117.096 241.121 107.911 239.683 110.021C239.46 110.369 239.162 111.511 239.634 111.833L248.41 117.221V117.171ZM254.509 148.028C248.856 137.85 253.195 140.928 245.484 134.921C245.683 141.375 227.312 135.467 230.138 132.562C231.378 131.271 239.584 136.137 245.385 135.368C242.212 130.502 242.782 119.504 237.179 121.267C234.502 122.111 231.601 124.42 229.221 126.058C229.593 130.998 225.973 134.151 224.511 137.825C221.61 145.024 219.701 171.513 232.32 175.634C244.046 179.481 247.121 170.842 250.269 172.804C252.823 174.392 251.36 179.184 253.071 179.357C257.955 179.854 262.491 178.687 267.549 178.34C262.467 170.222 257.484 162.898 253.864 154.061C253.12 152.273 255.5 149.816 254.509 148.028ZM162.581 191.944C160.969 194.426 159.407 195.022 157.077 193.681C156.11 193.135 154.995 193.458 155.168 192.242C155.292 191.348 155.143 190.454 155.912 190.131C154.449 190.727 165.655 188.369 169.101 189.908C179.142 194.327 185.042 202.023 198.281 209.098C215.313 218.208 224.808 208.899 254.112 228.585C266.929 237.2 275.78 249.513 283.961 262.124C286.663 266.27 290.06 267.958 294.721 267.709C304.439 267.188 301.439 256.985 312.472 246.956C327.842 233.004 328.041 212.449 323.306 193.632C322.959 192.266 320.926 188.94 319.488 189.436C315.05 190.975 309.001 189.734 305.555 192.614L296.828 199.912C293.456 202.718 288.101 203.165 283.837 200.334C272.259 192.639 274.466 178.762 261.971 181.716C252.253 184.024 215.387 175.956 206.065 170.321C199.347 166.25 192.38 163.047 184.001 161.955C168.729 159.969 152.441 165.331 140.194 174.963C136.103 178.166 135.211 184.322 134.814 188.667C134.517 191.894 141.508 202.494 143.764 203.959C144.607 202.867 145.499 202.122 146.64 202.047C147.359 201.998 148.425 202.867 148.326 203.934C148.251 204.853 147.408 205.523 146.243 206.739C148.797 208.403 151.251 211.357 154.4 212.35C155.366 212.648 157.672 209.967 158.366 212.101C158.862 213.69 158.341 215.726 160.077 216.272C160.994 216.57 163.176 218.01 163.349 216.446C163.225 214.832 162.804 213.79 163.622 213.243C164.688 212.499 165.407 212.821 165.977 213.194C167.093 213.939 167.118 215.229 166.275 216.148C165.729 216.719 164.366 215.8 163.077 217.662C170.316 219.946 184.794 224.439 186.356 220.567L187.521 217.687C187.645 217.389 189.703 217.166 189.926 218.184C190.397 220.443 190.075 221.659 192.455 221.734C193.967 221.758 194.513 220.492 195.827 219.226C197.314 217.811 198.43 220.914 199.397 221.758C201.95 221.609 205.694 220.989 208.098 219.524C209.735 218.531 207.95 216.421 207.132 215.577C204.752 213.144 202.694 217.538 200.958 216.421C199.694 215.602 200.363 212.598 197.81 212.325C196.422 212.176 195.95 213.641 195.008 214.634C193.595 216.148 192.083 214.336 191.885 213.045C191.761 212.25 193.843 210.96 193.521 210.19C186.158 202.842 183.53 206.566 182.166 205.622C179.39 203.735 186.753 201.377 171.332 195.717C170.241 195.32 170.167 192.117 168.134 192.812C167.266 193.11 166.622 194.054 165.68 195.146C165.01 195.916 163.969 195.096 163.696 194.6C163.349 193.93 163.399 193.235 162.556 192.018L162.581 191.944ZM248.211 178.513C249.897 178.513 249.699 176.825 248.906 176.651C246.129 176.031 245.98 178.588 245.856 178.017C245.955 178.414 246.947 178.513 248.211 178.513ZM211.594 216.545C210.206 217.985 211.619 217.96 212.214 217.985C213.553 217.985 213.85 217.191 213.478 216.57C213.131 215.974 212.363 215.751 211.569 216.57L211.594 216.545ZM275.482 255.098C272.458 249.91 268.466 245.342 264.971 242.189C263.781 242.189 260.93 243.033 260.706 241.817C261.574 238.615 260.558 237.026 258.227 235.089C256.17 233.376 254.186 232.061 251.286 233.848C249.947 232.284 250.021 230.72 249.401 228.759C245.187 226.401 241.121 224.266 236.634 222.329C235.295 221.758 233.386 223.322 232.394 222.429C231.551 221.659 231.353 220.269 230.733 219.847C227.213 217.389 226.841 224.688 223.494 218.854C222.155 216.52 220.122 218.432 218.437 219.201C216.751 219.971 213.032 218.829 212.883 221.187C212.834 222.007 215.04 223.422 214.247 224.588C213.801 225.259 212.611 226.152 211.47 225.656C210.578 225.284 210.28 223.869 209.759 222.23C203.562 224.936 198.182 228.337 192.083 231.539C173.117 241.519 153.928 250.506 135.831 262.124C126.806 267.908 118.699 276.1 108.758 282.207C108.51 289.357 111.386 297.499 117.633 301.397C118.129 301.72 208.148 267.858 225.626 264.581L256.046 258.872C262.665 257.63 269.21 257.457 275.507 255.073L275.482 255.098ZM245.608 299.585L266.21 304.947C271.516 297.499 273.945 289.059 272.854 279.725L243.352 264.135C230.808 266.021 219.478 269.571 207.875 273.27C205.842 277.788 207.082 282.555 211.098 285.112C217.371 289.108 224.114 291.765 230.708 295.191C235.27 297.549 240.253 298.194 245.633 299.585H245.608ZM364.311 345.387C362.402 345.387 361.832 344.071 361.534 341.961C359.378 327.463 346.858 323.863 337.561 304.848C334.115 297.797 330.074 291.368 326.975 283.97L312.794 291.293C326.132 297.698 331.412 304.45 331.041 318.501C331.016 319.842 332.107 321.058 331.685 322.374C331.14 324.012 325.239 326.495 327.545 328.257C335.627 334.439 343.957 336.698 355.832 345.958C358.188 347.795 362.253 348.018 364.509 347.199C365.625 346.802 368.501 346.479 368.526 344.592C368.774 325.03 350.329 315.944 341.23 301.496C341.18 299.336 343.387 297.301 342.767 295.24C341.304 290.499 338.825 286.154 335.701 282.331C334.511 280.867 330.743 281.984 329.95 283.821C334.065 292.311 338.875 301.347 343.56 309.688C350.973 322.92 365.625 329.772 364.336 345.412L364.311 345.387ZM325.661 305.22C322.314 300.379 317.579 294.942 312.025 294.52L299.977 293.627C299.183 293.577 299.084 291.715 298.39 291.144C290.556 289.084 283.763 285.608 276.003 282.009C275.78 290.747 274.342 297.946 269.334 305.716L302.852 314.653C309.397 316.391 315.744 318.501 321.645 321.654C323.355 322.573 324.694 324.211 326.727 322.87C329.528 321.009 327.867 308.397 325.686 305.245L325.661 305.22ZM64.703 323.218C71.1489 324.509 75.6362 322.92 81.2887 320.115L114.733 303.507C109.13 298.07 106.775 292.385 105.733 284.863C86.0983 298.045 92.0979 297.648 69.0416 303.06C50.6213 307.38 45.0928 302.117 50.547 312.27C53.1005 317.037 58.282 321.927 64.703 323.218ZM6.09538 305.965C5.27725 306.213 4.58309 306.685 4.21121 307.156C3.44267 308.149 3.44267 309.415 4.236 310.582C14.5246 325.725 32.1515 324.285 47.2745 331.46L49.1338 337.468C49.3074 338.038 60.4884 346.479 63.6122 344.27C64.4799 343.649 66.2897 341.439 65.1741 340.645C56.2986 334.464 38.6965 323.516 28.9286 321.108C21.3671 319.246 8.27705 314.231 7.11184 306.312C10.905 305.965 12.7396 314.033 24.9123 317.086C34.9282 319.594 43.5061 323.739 52.2824 329.201L68.0499 339.031C71.1985 334.836 73.0579 331.534 75.6362 326.619C58.8522 325.849 55.6541 325.254 47.4232 312.369C46.853 311.451 45.663 311.004 45.3159 310.334C44.3738 308.348 48.3157 303.482 46.0844 302.961C40.4567 301.62 34.6059 302.713 28.755 302.911C19.4333 303.234 7.75643 299.858 6.07059 305.94L6.09538 305.965Z" fill="var(--fill-0, #226E77)"/>
<path id="Vector_2" d="M275.482 255.098C269.185 257.481 262.64 257.655 256.021 258.897L225.601 264.606C208.123 267.883 118.104 301.744 117.609 301.422C111.361 297.524 108.51 289.382 108.733 282.232C118.65 276.125 126.782 267.933 135.806 262.149C153.904 250.53 173.093 241.544 192.058 231.564C198.182 228.362 203.537 224.961 209.735 222.255C210.255 223.893 210.553 225.284 211.445 225.681C212.611 226.177 213.776 225.284 214.222 224.613C215.015 223.446 212.809 222.031 212.858 221.212C212.982 218.829 216.676 219.996 218.412 219.226C220.147 218.457 222.131 216.545 223.469 218.879C226.841 224.713 227.213 217.414 230.709 219.872C231.304 220.294 231.527 221.709 232.37 222.453C233.361 223.347 235.27 221.783 236.609 222.354C241.096 224.291 245.162 226.425 249.377 228.784C249.996 230.745 249.922 232.309 251.261 233.873C254.162 232.086 256.12 233.401 258.203 235.114C260.533 237.051 261.549 238.639 260.682 241.842C260.93 243.058 263.756 242.189 264.946 242.214C268.442 245.392 272.433 249.935 275.458 255.123L275.482 255.098ZM238.146 228.461C238.146 227.369 237.254 226.475 236.163 226.475C235.072 226.475 234.179 227.369 234.179 228.461C234.179 229.553 235.072 230.447 236.163 230.447C237.254 230.447 238.146 229.553 238.146 228.461ZM246.03 230.025C246.03 228.958 245.162 228.089 244.096 228.089C243.03 228.089 242.162 228.958 242.162 230.025C242.162 231.093 243.03 231.961 244.096 231.961C245.162 231.961 246.03 231.093 246.03 230.025ZM248.757 237.572C248.757 236.455 247.864 235.561 246.749 235.561C245.633 235.561 244.741 236.455 244.741 237.572C244.741 238.689 245.633 239.583 246.749 239.583C247.864 239.583 248.757 238.689 248.757 237.572ZM256.566 239.26C256.566 238.143 255.674 237.249 254.558 237.249C253.443 237.249 252.55 238.143 252.55 239.26C252.55 240.377 253.443 241.271 254.558 241.271C255.674 241.271 256.566 240.377 256.566 239.26ZM267.177 248.296C267.177 247.204 266.309 246.335 265.219 246.335C264.128 246.335 263.26 247.204 263.26 248.296C263.26 249.389 264.128 250.257 265.219 250.257C266.309 250.257 267.177 249.389 267.177 248.296Z" fill="var(--fill-0, #F9FBFC)"/>
<path id="Vector_3" d="M245.608 299.585C240.229 298.17 235.245 297.549 230.684 295.191C224.089 291.765 217.371 289.108 211.073 285.112C207.082 282.58 205.818 277.813 207.851 273.27C219.453 269.571 230.783 266.021 243.327 264.135L272.83 279.725C273.92 289.059 271.491 297.474 266.185 304.947L245.584 299.585H245.608Z" fill="var(--fill-0, #F9FBFC)"/>
<path id="Vector_4" d="M325.661 305.22C327.843 308.373 329.504 320.984 326.702 322.846C324.669 324.186 323.355 322.573 321.62 321.629C315.719 318.476 309.373 316.366 302.828 314.629L269.309 305.692C274.342 297.946 275.755 290.747 275.978 281.984C283.738 285.583 290.531 289.034 298.365 291.119C299.059 291.69 299.158 293.552 299.952 293.602L312.001 294.495C317.554 294.918 322.264 300.329 325.636 305.195L325.661 305.22Z" fill="var(--fill-0, #F9FBFC)"/>
<path id="Vector_5" d="M64.703 323.218C58.3068 321.927 53.1253 317.037 50.547 312.27C45.0928 302.117 50.6213 307.355 69.0416 303.06C92.0979 297.673 86.0983 298.045 105.733 284.863C106.775 292.41 109.13 298.07 114.733 303.507L81.2887 320.115C75.6362 322.92 71.1489 324.509 64.703 323.218Z" fill="var(--fill-0, #F9FBFC)"/>
<path id="Vector_6" d="M364.311 345.387C364.609 345.933 364.658 346.578 364.509 347.174C362.253 347.968 358.212 347.77 355.832 345.933C343.932 336.673 335.627 334.414 327.545 328.233C325.239 326.47 331.165 323.988 331.685 322.349C332.107 321.033 331.016 319.817 331.041 318.476C331.413 304.425 326.132 297.673 312.794 291.268L326.975 283.945C330.074 291.343 334.115 297.797 337.561 304.823C346.883 323.839 359.402 327.438 361.534 341.936C361.857 344.046 362.402 345.362 364.311 345.362V345.387Z" fill="var(--fill-0, #70BC96)"/>
<path id="Vector_7" d="M7.11184 306.337C6.78955 306.362 6.44247 305.989 6.09538 305.965C7.75643 299.883 19.4333 303.259 28.7798 302.936C34.6307 302.737 40.4567 301.645 46.1092 302.986C48.3405 303.507 44.3986 308.373 45.3407 310.359C45.663 311.029 46.853 311.476 47.448 312.394C55.6789 325.278 58.877 325.874 75.661 326.644C73.0579 331.534 71.2233 334.861 68.0747 339.056L52.3072 329.226C43.5557 323.764 34.953 319.618 24.9371 317.111C12.7644 314.058 10.9298 305.989 7.13663 306.337H7.11184Z" fill="var(--fill-0, #70BC96)"/>
<path id="Vector_8" d="M364.485 347.174C364.658 346.578 364.609 345.933 364.286 345.387C365.576 329.747 350.924 322.92 343.511 309.664C338.825 301.297 334.04 292.286 329.9 283.796C330.694 281.959 334.462 280.842 335.652 282.306C338.776 286.129 341.255 290.474 342.718 295.215C343.362 297.276 341.131 299.312 341.18 301.471C350.279 315.919 368.749 325.005 368.476 344.567C368.476 346.429 365.576 346.777 364.46 347.174H364.485Z" fill="var(--fill-0, #F9FBFC)"/>
<path id="Vector_9" d="M6.09538 305.965C6.41767 305.965 6.78955 306.362 7.11184 306.337C8.27705 314.256 21.3671 319.246 28.9286 321.133C38.6965 323.566 56.2987 334.489 65.1741 340.67C66.3145 341.464 64.5047 343.674 63.6122 344.294C60.4885 346.529 49.3074 338.063 49.1338 337.492L47.2745 331.485C32.1267 324.31 14.5246 325.75 4.236 310.607C3.44267 309.44 3.44267 308.174 4.21121 307.181C4.58309 306.685 5.30205 306.213 6.09538 305.989V305.965Z" fill="var(--fill-0, #F9FBFC)"/>
<path id="Vector_10" d="M254.558 241.271C255.667 241.271 256.566 240.371 256.566 239.26C256.566 238.149 255.667 237.249 254.558 237.249C253.449 237.249 252.55 238.149 252.55 239.26C252.55 240.371 253.449 241.271 254.558 241.271Z" fill="var(--fill-0, #226E77)"/>
<path id="Vector_11" d="M236.163 230.447C237.258 230.447 238.146 229.558 238.146 228.461C238.146 227.364 237.258 226.475 236.163 226.475C235.067 226.475 234.179 227.364 234.179 228.461C234.179 229.558 235.067 230.447 236.163 230.447Z" fill="var(--fill-0, #226E77)"/>
<path id="Vector_12" d="M246.749 239.583C247.858 239.583 248.757 238.682 248.757 237.572C248.757 236.461 247.858 235.561 246.749 235.561C245.64 235.561 244.741 236.461 244.741 237.572C244.741 238.682 245.64 239.583 246.749 239.583Z" fill="var(--fill-0, #226E77)"/>
<path id="Vector_13" d="M265.219 250.257C266.3 250.257 267.177 249.379 267.177 248.296C267.177 247.213 266.3 246.335 265.219 246.335C264.137 246.335 263.26 247.213 263.26 248.296C263.26 249.379 264.137 250.257 265.219 250.257Z" fill="var(--fill-0, #226E77)"/>
<path id="Vector_14" d="M244.096 231.961C245.164 231.961 246.03 231.095 246.03 230.025C246.03 228.956 245.164 228.089 244.096 228.089C243.028 228.089 242.162 228.956 242.162 230.025C242.162 231.095 243.028 231.961 244.096 231.961Z" fill="var(--fill-0, #226E77)"/>
<path id="Vector_15" d="M268.838 94.0837C258.798 91.477 254.682 90.8812 253.938 80.9264C261.202 76.9296 256.591 74.5712 266.731 77.2772C267.995 82.8876 269.681 87.2816 268.838 94.0837Z" fill="var(--fill-0, #E4D66D)"/>
<path id="Vector_16" d="M286.168 67.943C285.821 63.8469 291.771 65.3612 294.076 59.7011C294.869 57.7399 295.093 53.2218 293.01 52.3033C278.904 48.4057 266.483 41.7278 256.418 31.2517C255.153 29.936 255.451 29.8863 255.897 28.1486C260.335 28.9926 259.269 34.1314 267.028 32.915C266.21 39.9156 273.301 40.139 277.689 43.1677C281.06 45.4764 285.622 47.1148 289.316 47.8596C290.159 46.6183 290.531 44.7813 292.018 45.1785C293.506 45.5757 293.357 46.519 293.605 48.083C293.952 50.218 296.828 51.062 297.051 53.3211C297.398 56.7718 297.522 59.9493 299.035 63.2759L293.556 64.6661C292.936 66.6024 294.002 68.3898 292.465 70.5992C289.961 69.0601 288.399 67.2727 286.143 67.9678L286.168 67.943Z" fill="var(--fill-0, #226E77)"/>
<path id="Vector_17" d="M254.781 63.8469C254.36 64.7902 258.103 67.4961 256.046 68.4147C253.814 69.4077 250.467 64.542 251.831 62.1588C253.492 59.2294 255.575 57.2186 254.409 53.4452C254.211 52.7998 254.88 51.8564 255.351 51.7323C256.541 51.4592 257.013 52.1791 257.335 53.47C258.376 57.6406 256.418 60.1976 254.781 63.8469Z" fill="var(--fill-0, #226E77)"/>
<path id="Vector_18" d="M270.995 53.2218C271.119 55.0092 270.896 57.7648 269.086 57.8889C266.557 58.0627 266.508 54.6368 266.756 52.8742C266.979 51.2854 267.549 50.218 268.689 50.0938C270.003 49.9449 270.822 51.1613 270.97 53.2218H270.995Z" fill="var(--fill-0, #226E77)"/>
<path id="Vector_19" d="M248.831 56.598C245.807 56.8462 245.955 49.8952 248.658 49.7463C251.534 49.5973 251.93 56.3497 248.831 56.598Z" fill="var(--fill-0, #226E77)"/>
<path id="Vector_20" d="M255.922 28.1486C255.451 29.9112 255.178 29.9608 256.442 31.2517C266.508 41.7278 278.928 48.4057 293.035 52.3033C295.117 53.2218 294.894 57.7399 294.101 59.7011C291.795 65.3612 285.845 63.8469 286.192 67.943C286.465 71.344 286.465 75.2415 288.746 77.8481C289.514 78.717 289.143 80.2065 289.911 80.4299C290.035 82.9372 292.142 83.2848 293.382 84.104C294.969 85.1218 295.96 87.0085 295.96 88.1257C296.01 96.2186 272.582 101.084 273.202 101.109C272.582 101.084 272.681 103.244 273.35 103.219C280.763 102.847 297.745 97.8819 299.506 87.5795C314.133 96.6903 311.381 90.4344 323.405 101.68C329.008 106.918 333.371 114.763 332.429 122.806C329.033 151.678 333.247 157.784 331.983 179.208C331.71 183.851 328.338 187.649 325.983 191.646C320.107 181.939 315.819 189.188 308.654 188.145C310.464 184.496 312.472 181.294 314.034 177.52C317.579 169.005 322.016 161.384 326.504 153.242C326.851 152.621 325.463 152 325.14 152.149C324.793 152.323 324.124 152.348 323.677 153.018C313.389 168.285 310.34 185.266 297.894 195.593C294.721 198.224 290.01 199.863 286.292 198.274C280.342 195.717 278.656 189.709 275.631 184.918C269.607 175.41 262.665 166.647 257.979 156.245C255.327 150.387 261.549 152.149 254.583 142.12C259.145 140.531 262.491 137.602 266.309 134.623C268.367 136.361 269.111 138.322 270.648 139.96C274.466 139.811 276.672 141.897 278.507 144.9C294.597 171.314 292.266 159.87 292.118 159.646C287.903 154.21 284.011 148.624 280.614 142.666C278.581 139.116 275.904 137.701 272.012 136.733C261.178 126.331 265.888 119.231 259.988 106.347C263.434 103.393 267.276 101.68 270.772 99.2224C273.127 97.5591 272.111 95.9703 272.036 93.6865C271.863 87.6043 271.169 81.9939 269.508 75.9863C271.59 74.1244 276.424 73.901 275.259 71.0957C274.292 68.7622 267.995 76.4579 262.095 70.3758C257.459 73.2555 256.368 77.9474 250.443 78.2453C237.675 70.5744 242.584 38.6992 251.955 29.0423C252.872 28.0989 252.525 26.4357 251.955 25.7406C252.6 23.4567 253.294 21.3962 255.773 21.6693C255.847 23.7546 256.517 26.1874 256.021 28.0741L255.922 28.1486ZM248.831 56.598C251.93 56.3497 251.534 49.6222 248.658 49.7463C245.955 49.8704 245.807 56.8214 248.831 56.598ZM270.995 53.2218C270.846 51.1365 270.028 49.9449 268.714 50.0938C267.574 50.218 267.004 51.2854 266.78 52.8742C266.533 54.6616 266.557 58.0875 269.111 57.8889C270.896 57.7647 271.144 55.0092 271.02 53.2218H270.995ZM254.781 63.8469C256.418 60.1976 258.376 57.6406 257.335 53.47C257.013 52.1791 256.566 51.4592 255.351 51.7323C254.88 51.8316 254.211 52.7998 254.409 53.4452C255.575 57.2186 253.492 59.2294 251.831 62.1588C250.467 64.542 253.814 69.4077 256.046 68.4147C258.079 67.4961 254.36 64.7902 254.781 63.8469ZM323.95 109.227C324.917 109.128 324.669 107.737 324.272 107.365C321.025 104.187 306.943 112.975 310.86 115.16C313.339 116.55 314.133 110.369 323.95 109.252V109.227ZM294.002 151.752C297.349 144.007 301.191 137.205 305.009 129.981C305.406 129.261 304.662 128.243 304.29 128.193C303.918 128.143 302.902 128.019 302.605 128.59C298.34 136.584 293.754 144.354 290.457 153.167C291.2 154.359 293.308 153.316 293.977 151.727L294.002 151.752ZM298.96 171.264C297.373 170.594 293.704 160.093 291.969 163.792C291.225 165.381 297.324 176.254 301.687 177.049C303.571 173.97 302.505 169.949 301.315 167.268C299.877 167.168 299.654 167.64 299.605 168.186C299.506 169.229 299.828 170.048 298.935 171.264H298.96Z" fill="var(--fill-0, #F9FBFC)"/>
<path id="Vector_21" d="M288.746 77.873C286.465 75.2415 286.465 71.3688 286.192 67.9678C288.473 67.2727 290.035 69.0601 292.514 70.5992C294.076 68.365 292.985 66.5776 293.605 64.6661L299.084 63.2759C297.572 59.9493 297.473 56.7718 297.101 53.3211C296.878 51.0868 294.002 50.218 293.655 48.083C293.407 46.5439 293.531 45.5757 292.068 45.1785C290.605 44.7813 290.184 46.6183 289.366 47.8596C285.647 47.1397 281.11 45.5012 277.738 43.1677C273.35 40.139 266.26 39.9156 267.078 32.915C259.343 34.1066 260.384 28.9678 255.946 28.1486C256.442 26.2867 255.773 23.829 255.699 21.7437C253.244 21.4707 252.525 23.556 251.881 25.815C244.394 29.5388 241.815 46.0225 240.005 48.4057C239.683 48.8278 239.485 48.1575 239.212 47.8844C238.766 47.4376 238.344 45.9481 239.41 45.3771C240.055 45.0544 240.873 44.6075 240.947 44.1607C241.468 41.3803 237.204 42.8201 236.411 40.1142C236.138 39.1709 236.931 38.1779 237.65 37.16C238.89 35.3975 236.212 34.2307 236.212 32.8405C236.088 22.7616 239.361 24.4248 239.981 23.9283C242.336 21.992 238.394 20.6514 240.898 17.6725C242.584 15.6616 244.146 19.6336 245.906 17.3497C246.526 16.5305 246.104 15.3637 245.113 14.5942C243.575 13.3777 245.187 12.5089 245.707 11.7393C246.922 9.90224 248.038 11.5407 249.525 11.9131C252.426 12.6578 250.344 8.90924 251.038 7.9659C252.699 5.682 257.806 3.54705 260.533 4.44075C261.45 4.73865 261.401 7.02255 261.946 7.3701C262.665 7.81695 263.805 7.69282 264.301 6.84877C264.748 6.0792 264.772 5.0862 264.153 3.74565C265.938 3.67118 268.094 4.24215 269.78 4.9869C269.557 5.85577 269.061 6.84877 269.061 7.39492C269.061 8.51204 270.97 9.67882 271.417 9.05819L273.326 6.42675L281.779 5.21033C285.498 4.689 290.134 6.84877 292.861 9.03337C293.853 9.80294 291.87 13.5267 294.299 13.5267C295.415 13.5267 296.431 12.633 297.324 12.5585C298.241 12.484 298.539 13.8494 299.332 14.3459C302.406 16.3816 303.125 19.1123 304.067 22.3395C304.315 23.1588 306.819 23.2581 307.191 24.0525C308.604 26.9818 304.811 28.0741 306.224 29.4147C307.761 30.8793 309.794 29.936 310.116 32.5922C310.265 33.759 309.397 34.7024 308.753 35.8195C308.059 37.0856 317.975 42.2243 306.224 60.1728L302.059 66.5528C300.497 68.9608 298.068 68.3898 296.927 71.766C295.936 74.6705 290.952 75.9614 288.796 77.873H288.746ZM280.664 8.73547C280.664 7.668 279.796 6.79912 278.73 6.79912C277.664 6.79912 276.796 7.668 276.796 8.73547C276.796 9.80294 277.664 10.6718 278.73 10.6718C279.796 10.6718 280.664 9.80294 280.664 8.73547ZM288.572 10.3491C288.572 9.30644 287.729 8.43757 286.663 8.43757C285.597 8.43757 284.754 9.28162 284.754 10.3491C284.754 11.4166 285.597 12.2606 286.663 12.2606C287.729 12.2606 288.572 11.4166 288.572 10.3491ZM259.417 11.7393C259.417 10.6966 258.574 9.87742 257.558 9.87742C256.542 9.87742 255.699 10.7215 255.699 11.7393C255.699 12.7571 256.542 13.6012 257.558 13.6012C258.574 13.6012 259.417 12.7571 259.417 11.7393ZM267.425 13.2784C267.425 12.211 266.557 11.3669 265.516 11.3669C264.475 11.3669 263.607 12.211 263.607 13.2784C263.607 14.3459 264.475 15.19 265.516 15.19C266.557 15.19 267.425 14.3459 267.425 13.2784ZM275.358 14.8176C275.358 13.7749 274.516 12.9309 273.474 12.9309C272.433 12.9309 271.59 13.7749 271.59 14.8176C271.59 15.8602 272.433 16.7043 273.474 16.7043C274.516 16.7043 275.358 15.8602 275.358 14.8176ZM283.292 16.4064C283.292 15.3141 282.399 14.4204 281.308 14.4204C280.218 14.4204 279.325 15.3141 279.325 16.4064C279.325 17.4987 280.218 18.3924 281.308 18.3924C282.399 18.3924 283.292 17.4987 283.292 16.4064ZM254.261 17.8462C254.261 16.7539 253.393 15.8851 252.302 15.8851C251.211 15.8851 250.344 16.7539 250.344 17.8462C250.344 18.9385 251.211 19.8074 252.302 19.8074C253.393 19.8074 254.261 18.9385 254.261 17.8462ZM291.176 17.8214C291.176 16.7788 290.333 15.9347 289.291 15.9347C288.25 15.9347 287.407 16.7788 287.407 17.8214C287.407 18.864 288.25 19.7081 289.291 19.7081C290.333 19.7081 291.176 18.864 291.176 17.8214ZM262.144 19.3357C262.144 18.2931 261.302 17.449 260.26 17.449C259.219 17.449 258.376 18.2931 258.376 19.3357C258.376 20.3784 259.219 21.2224 260.26 21.2224C261.302 21.2224 262.144 20.3784 262.144 19.3357ZM299.01 19.4102C299.01 18.3924 298.192 17.5732 297.175 17.5732C296.159 17.5732 295.341 18.3924 295.341 19.4102C295.341 20.428 296.159 21.2472 297.175 21.2472C298.192 21.2472 299.01 20.428 299.01 19.4102ZM270.053 20.9245C270.053 19.8819 269.21 19.013 268.144 19.013C267.078 19.013 266.235 19.857 266.235 20.9245C266.235 21.992 267.078 22.836 268.144 22.836C269.21 22.836 270.053 21.992 270.053 20.9245ZM277.986 22.414C277.986 21.3465 277.119 20.4777 276.053 20.4777C274.987 20.4777 274.119 21.3465 274.119 22.414C274.119 23.4815 274.987 24.3504 276.053 24.3504C277.119 24.3504 277.986 23.4815 277.986 22.414ZM248.881 23.9532C248.881 22.9105 248.038 22.0665 246.997 22.0665C245.955 22.0665 245.113 22.9105 245.113 23.9532C245.113 24.9958 245.955 25.8399 246.997 25.8399C248.038 25.8399 248.881 24.9958 248.881 23.9532ZM285.944 23.9532C285.944 22.9105 285.102 22.0416 284.036 22.0416C282.969 22.0416 282.127 22.8857 282.127 23.9532C282.127 25.0206 282.969 25.8647 284.036 25.8647C285.102 25.8647 285.944 25.0206 285.944 23.9532ZM293.803 25.542C293.803 24.4745 292.936 23.6056 291.87 23.6056C290.804 23.6056 289.936 24.4745 289.936 25.542C289.936 26.6094 290.804 27.4783 291.87 27.4783C292.936 27.4783 293.803 26.6094 293.803 25.542ZM264.748 26.957C264.748 25.9143 263.905 25.0455 262.839 25.0455C261.773 25.0455 260.93 25.8895 260.93 26.957C260.93 28.0245 261.773 28.8685 262.839 28.8685C263.905 28.8685 264.748 28.0245 264.748 26.957ZM301.613 27.0563C301.613 26.0136 300.77 25.1696 299.729 25.1696C298.687 25.1696 297.845 26.0136 297.845 27.0563C297.845 28.0989 298.687 28.943 299.729 28.943C300.77 28.943 301.613 28.0989 301.613 27.0563ZM272.73 28.5706C272.73 27.5031 271.888 26.6591 270.822 26.6591C269.755 26.6591 268.913 27.5031 268.913 28.5706C268.913 29.6381 269.755 30.4821 270.822 30.4821C271.888 30.4821 272.73 29.6381 272.73 28.5706ZM243.65 30.0849C243.65 29.0175 242.782 28.1486 241.716 28.1486C240.65 28.1486 239.782 29.0175 239.782 30.0849C239.782 31.1524 240.65 32.0213 241.716 32.0213C242.782 32.0213 243.65 31.1524 243.65 30.0849ZM280.589 30.1346C280.589 29.0919 279.747 28.2479 278.705 28.2479C277.664 28.2479 276.821 29.0919 276.821 30.1346C276.821 31.1772 277.664 32.0213 278.705 32.0213C279.747 32.0213 280.589 31.1772 280.589 30.1346ZM288.622 31.5992C288.622 30.5069 287.729 29.6133 286.639 29.6133C285.548 29.6133 284.655 30.5069 284.655 31.5992C284.655 32.6915 285.548 33.5852 286.639 33.5852C287.729 33.5852 288.622 32.6915 288.622 31.5992ZM296.382 33.1632C296.382 32.0957 295.514 31.2269 294.448 31.2269C293.382 31.2269 292.514 32.0957 292.514 33.1632C292.514 34.2307 293.382 35.0996 294.448 35.0996C295.514 35.0996 296.382 34.2307 296.382 33.1632ZM304.39 34.7024C304.39 33.6597 303.547 32.8157 302.505 32.8157C301.464 32.8157 300.621 33.6597 300.621 34.7024C300.621 35.745 301.464 36.5891 302.505 36.5891C303.547 36.5891 304.39 35.745 304.39 34.7024ZM275.358 36.1919C275.358 35.1244 274.491 34.2803 273.449 34.2803C272.408 34.2803 271.54 35.1492 271.54 36.1919C271.54 37.2345 272.408 38.1034 273.449 38.1034C274.491 38.1034 275.358 37.2345 275.358 36.1919ZM283.317 37.8055C283.317 36.7132 282.424 35.8443 281.358 35.8443C280.292 35.8443 279.399 36.738 279.399 37.8055C279.399 38.873 280.292 39.7667 281.358 39.7667C282.424 39.7667 283.317 38.873 283.317 37.8055ZM291.151 39.295C291.151 38.2523 290.308 37.3835 289.242 37.3835C288.176 37.3835 287.333 38.2275 287.333 39.295C287.333 40.3625 288.176 41.2065 289.242 41.2065C290.308 41.2065 291.151 40.3625 291.151 39.295ZM298.985 40.8093C298.985 39.7418 298.117 38.8978 297.076 38.8978C296.035 38.8978 295.167 39.7667 295.167 40.8093C295.167 41.852 296.035 42.7208 297.076 42.7208C298.117 42.7208 298.985 41.852 298.985 40.8093ZM306.894 42.3733C306.894 41.3306 306.051 40.4866 305.009 40.4866C303.968 40.4866 303.125 41.3306 303.125 42.3733C303.125 43.4159 303.968 44.26 305.009 44.26C306.051 44.26 306.894 43.4159 306.894 42.3733ZM301.638 48.4306C301.638 47.3879 300.795 46.5439 299.753 46.5439C298.712 46.5439 297.869 47.3879 297.869 48.4306C297.869 49.4732 298.712 50.3173 299.753 50.3173C300.795 50.3173 301.638 49.4732 301.638 48.4306ZM309.645 50.0194C309.645 48.9767 308.802 48.1078 307.736 48.1078C306.67 48.1078 305.827 48.9519 305.827 50.0194C305.827 51.0868 306.67 51.9309 307.736 51.9309C308.802 51.9309 309.645 51.0868 309.645 50.0194ZM304.266 56.0518C304.266 55.0092 303.423 54.1651 302.381 54.1651C301.34 54.1651 300.497 55.0092 300.497 56.0518C300.497 57.0945 301.34 57.9385 302.381 57.9385C303.423 57.9385 304.266 57.0945 304.266 56.0518Z" fill="var(--fill-0, #D1801F)"/>
<path id="Vector_22" d="M254.509 148.028C255.5 149.816 253.145 152.273 253.864 154.061C257.484 162.898 262.467 170.222 267.549 178.34C262.467 178.687 257.93 179.854 253.071 179.357C251.36 179.184 252.823 174.392 250.269 172.804C247.121 170.842 244.046 179.481 232.32 175.634C219.726 171.513 221.635 145 224.511 137.825C225.973 134.151 229.593 130.998 229.221 126.058C231.601 124.395 234.502 122.111 237.179 121.267C242.782 119.504 242.212 130.502 245.385 135.368C239.559 136.137 231.378 131.296 230.138 132.562C227.312 135.467 245.707 141.375 245.484 134.921C253.195 140.928 248.831 137.85 254.509 148.028ZM247.641 158.157C245.98 156.816 249.823 138.52 246.278 139.414C245.881 139.513 245.385 139.886 245.311 140.829L243.922 160.118C243.799 161.98 243.179 163.668 244.889 164.512C248.038 166.051 250.715 160.639 250.17 160.217L247.641 158.182V158.157Z" fill="var(--fill-0, #F9FBFC)"/>
<path id="Vector_23" d="M248.41 117.171L239.634 111.784C239.138 111.486 239.435 110.319 239.683 109.972C241.096 107.861 250.046 116.972 251.162 114.812C252.277 112.653 244.542 108.408 241.369 106.521C240.179 105.826 240.055 102.921 241.146 103.269C246.823 105.106 252.352 112.231 253.74 109.475C255.178 106.67 245.162 103.815 243.972 99.8182C243.823 99.2969 244.889 97.8819 245.732 98.4528C254.31 104.51 258.401 104.212 260.409 117.99C261.103 122.781 263.235 127.672 263.607 132.513C262.169 134.672 258.599 138.024 255.649 137.9C253.641 137.825 250.963 135.492 249.352 134.375C246.501 132.413 245.435 128.516 245.088 125.313C244.716 121.937 242.46 120.795 240.08 118.71L238.617 117.444C238.022 116.923 238.32 115.135 239.485 115.284C242.782 115.756 245.088 119.355 247.914 119.082C248.311 119.033 249.302 117.667 248.41 117.121V117.171Z" fill="var(--fill-0, #F9FBFC)"/>
<path id="Vector_24" d="M240.923 99.3465C235.518 105.031 237.799 111.858 234.279 118.586C233.014 120.994 221.188 127.771 220.296 124.594C219.379 121.317 246.402 88.1257 250.765 83.0366C252.724 85.4694 251.93 88.4732 253.715 90.4344C257.508 94.5305 263.186 95.1263 268.194 97.3109L258.252 103.741L247.245 96.169C243.922 93.8851 242.609 97.6088 240.923 99.3714V99.3465Z" fill="var(--fill-0, #D1801F)"/>
<path id="Vector_25" d="M293.382 84.1288C292.142 83.3344 290.035 82.9621 289.911 80.4548C297.547 76.0856 304.166 70.4503 309.026 62.4815C315.248 67.0741 313.587 73.6279 309.645 77.9723C301.786 86.6362 299.778 77.1779 293.382 84.1288ZM309.521 71.3688C309.521 70.351 308.703 69.5318 307.687 69.5318C306.67 69.5318 305.852 70.351 305.852 71.3688C305.852 72.3866 306.67 73.2059 307.687 73.2059C308.703 73.2059 309.521 72.3866 309.521 71.3688ZM304.266 77.4509C304.266 76.4083 303.423 75.5642 302.381 75.5642C301.34 75.5642 300.497 76.4083 300.497 77.4509C300.497 78.4936 301.34 79.3376 302.381 79.3376C303.423 79.3376 304.266 78.4936 304.266 77.4509Z" fill="var(--fill-0, #D1801F)"/>
<path id="Vector_26" d="M242.237 87.9271C239.931 93.4879 237.03 95.8959 233.56 99.4955C233.907 94.2823 237.353 88.6718 242.237 87.9271Z" fill="var(--fill-0, #F9FBFC)"/>
<path id="Vector_27" d="M248.211 178.513C246.947 178.513 245.955 178.414 245.856 178.017C245.98 178.588 246.129 176.031 248.906 176.651C249.699 176.825 249.897 178.513 248.211 178.513Z" fill="var(--fill-0, #70BC96)"/>
<path id="Vector_28" d="M243.551 87.7037C243.797 87.7037 243.997 87.5036 243.997 87.2568C243.997 87.01 243.797 86.81 243.551 86.81C243.304 86.81 243.104 87.01 243.104 87.2568C243.104 87.5036 243.304 87.7037 243.551 87.7037Z" fill="var(--fill-0, #F9FBFC)"/>
<path id="Vector_29" d="M162.581 191.944C163.399 193.16 163.349 193.855 163.721 194.525C163.994 195.022 165.035 195.841 165.705 195.072C166.647 193.979 167.291 193.036 168.159 192.738C170.217 192.043 170.291 195.245 171.357 195.643C186.778 201.303 179.439 203.661 182.191 205.548C183.579 206.491 186.183 202.767 193.546 210.115C193.868 210.885 191.81 212.176 191.909 212.97C192.108 214.261 193.62 216.073 195.033 214.559C195.975 213.566 196.446 212.101 197.835 212.25C200.388 212.523 199.719 215.527 200.983 216.347C202.719 217.464 204.776 213.07 207.156 215.502C207.974 216.347 209.759 218.457 208.123 219.45C205.718 220.914 201.975 221.535 199.421 221.684C198.454 220.84 197.339 217.737 195.851 219.152C194.537 220.418 193.992 221.684 192.48 221.659C190.075 221.609 190.422 220.368 189.951 218.109C189.728 217.091 187.67 217.315 187.546 217.613L186.381 220.492C184.819 224.34 170.316 219.872 163.101 217.588C164.391 215.726 165.754 216.644 166.3 216.073C167.142 215.18 167.118 213.864 166.002 213.119C165.432 212.747 164.688 212.449 163.647 213.169C162.829 213.74 163.25 214.758 163.374 216.371C163.201 217.935 161.044 216.495 160.102 216.198C158.366 215.651 158.887 213.616 158.391 212.027C157.722 209.892 155.391 212.573 154.424 212.275C151.251 211.307 148.821 208.328 146.268 206.665C147.408 205.448 148.251 204.778 148.35 203.86C148.45 202.792 147.383 201.923 146.665 201.973C145.524 202.047 144.632 202.792 143.789 203.884C141.533 202.42 134.541 191.819 134.839 188.592C135.236 184.248 136.128 178.091 140.219 174.889C152.466 165.257 168.754 159.895 184.026 161.881C192.405 162.973 199.372 166.175 206.09 170.247C215.387 175.882 252.277 183.95 261.996 181.641C274.466 178.687 272.259 192.564 283.862 200.26C288.126 203.09 293.481 202.643 296.853 199.838L305.58 192.539C309.026 189.66 315.075 190.901 319.513 189.362C320.95 188.865 322.983 192.192 323.33 193.557C328.066 212.35 327.867 232.93 312.496 246.881C301.439 256.911 304.464 267.114 294.746 267.635C290.06 267.883 286.663 266.195 283.986 262.049C275.829 249.438 266.979 237.125 254.137 228.511C224.833 208.825 215.338 218.134 198.306 209.023C185.067 201.948 179.191 194.252 169.126 189.833C165.655 188.319 154.474 190.678 155.937 190.057C155.143 190.38 155.292 191.273 155.193 192.167C155.044 193.383 156.135 193.061 157.102 193.607C159.457 194.947 161.019 194.352 162.606 191.869L162.581 191.944ZM145.623 196.338C145.623 195.295 144.78 194.451 143.739 194.451C142.698 194.451 141.855 195.295 141.855 196.338C141.855 197.38 142.698 198.224 143.739 198.224C144.78 198.224 145.623 197.38 145.623 196.338ZM153.532 197.877C153.532 196.834 152.689 195.99 151.648 195.99C150.606 195.99 149.763 196.834 149.763 197.877C149.763 198.919 150.606 199.763 151.648 199.763C152.689 199.763 153.532 198.919 153.532 197.877ZM161.49 199.391C161.49 198.348 160.647 197.529 159.631 197.529C158.614 197.529 157.771 198.373 157.771 199.391C157.771 200.409 158.614 201.253 159.631 201.253C160.647 201.253 161.49 200.409 161.49 199.391ZM169.423 200.905C169.423 199.863 168.58 199.019 167.539 199.019C166.498 199.019 165.655 199.863 165.655 200.905C165.655 201.948 166.498 202.792 167.539 202.792C168.58 202.792 169.423 201.948 169.423 200.905ZM177.406 202.445C177.406 201.377 176.539 200.533 175.497 200.533C174.456 200.533 173.588 201.402 173.588 202.445C173.588 203.487 174.456 204.356 175.497 204.356C176.539 204.356 177.406 203.487 177.406 202.445ZM156.185 205.448C156.185 204.406 155.342 203.537 154.276 203.537C153.21 203.537 152.367 204.381 152.367 205.448C152.367 206.516 153.21 207.36 154.276 207.36C155.342 207.36 156.185 206.516 156.185 205.448ZM164.192 206.988C164.192 205.895 163.3 205.026 162.234 205.026C161.168 205.026 160.275 205.92 160.275 206.988C160.275 208.055 161.168 208.949 162.234 208.949C163.3 208.949 164.192 208.055 164.192 206.988ZM172.101 208.576C172.101 207.509 171.233 206.615 170.142 206.615C169.051 206.615 168.184 207.484 168.184 208.576C168.184 209.669 169.051 210.537 170.142 210.537C171.233 210.537 172.101 209.669 172.101 208.576ZM180.084 210.14C180.084 209.048 179.191 208.154 178.1 208.154C177.01 208.154 176.117 209.048 176.117 210.14C176.117 211.233 177.01 212.126 178.1 212.126C179.191 212.126 180.084 211.233 180.084 210.14ZM187.868 211.63C187.868 210.587 187.025 209.718 185.959 209.718C184.893 209.718 184.05 210.562 184.05 211.63C184.05 212.697 184.893 213.541 185.959 213.541C187.025 213.541 187.868 212.697 187.868 211.63ZM174.729 216.173C174.729 215.13 173.886 214.261 172.82 214.261C171.754 214.261 170.911 215.105 170.911 216.173C170.911 217.24 171.754 218.084 172.82 218.084C173.886 218.084 174.729 217.24 174.729 216.173ZM182.662 217.637C182.662 216.545 181.77 215.651 180.679 215.651C179.588 215.651 178.695 216.545 178.695 217.637C178.695 218.73 179.588 219.623 180.679 219.623C181.77 219.623 182.662 218.73 182.662 217.637Z" fill="var(--fill-0, #EDDA6C)"/>
<path id="Vector_30" d="M211.594 216.545C212.363 215.726 213.156 215.974 213.503 216.545C213.875 217.191 213.577 217.985 212.239 217.96C211.644 217.96 210.23 217.96 211.619 216.52L211.594 216.545Z" fill="var(--fill-0, #70BC96)"/>
<path id="Vector_31" d="M170.142 210.538C171.224 210.538 172.101 209.659 172.101 208.576C172.101 207.493 171.224 206.615 170.142 206.615C169.061 206.615 168.184 207.493 168.184 208.576C168.184 209.659 169.061 210.538 170.142 210.538Z" fill="var(--fill-0, #226E77)"/>
<path id="Vector_32" d="M178.1 212.126C179.196 212.126 180.084 211.237 180.084 210.14C180.084 209.043 179.196 208.154 178.1 208.154C177.005 208.154 176.117 209.043 176.117 210.14C176.117 211.237 177.005 212.126 178.1 212.126Z" fill="var(--fill-0, #226E77)"/>
<path id="Vector_33" d="M180.704 219.623C181.799 219.623 182.687 218.734 182.687 217.637C182.687 216.541 181.799 215.651 180.704 215.651C179.608 215.651 178.72 216.541 178.72 217.637C178.72 218.734 179.608 219.623 180.704 219.623Z" fill="var(--fill-0, #226E77)"/>
<path id="Vector_34" d="M162.234 208.949C163.315 208.949 164.192 208.071 164.192 206.988C164.192 205.904 163.315 205.026 162.234 205.026C161.152 205.026 160.275 205.904 160.275 206.988C160.275 208.071 161.152 208.949 162.234 208.949Z" fill="var(--fill-0, #226E77)"/>
<path id="Vector_35" d="M175.497 204.356C176.552 204.356 177.406 203.5 177.406 202.445C177.406 201.389 176.552 200.533 175.497 200.533C174.443 200.533 173.588 201.389 173.588 202.445C173.588 203.5 174.443 204.356 175.497 204.356Z" fill="var(--fill-0, #226E77)"/>
<path id="Vector_36" d="M143.764 198.224C144.804 198.224 145.648 197.38 145.648 196.338C145.648 195.296 144.804 194.451 143.764 194.451C142.723 194.451 141.88 195.296 141.88 196.338C141.88 197.38 142.723 198.224 143.764 198.224Z" fill="var(--fill-0, #226E77)"/>
<path id="Vector_37" d="M151.648 199.763C152.688 199.763 153.532 198.919 153.532 197.877C153.532 196.835 152.688 195.99 151.648 195.99C150.607 195.99 149.763 196.835 149.763 197.877C149.763 198.919 150.607 199.763 151.648 199.763Z" fill="var(--fill-0, #226E77)"/>
<path id="Vector_38" d="M159.631 201.253C160.658 201.253 161.49 200.419 161.49 199.391C161.49 198.363 160.658 197.529 159.631 197.529C158.604 197.529 157.771 198.363 157.771 199.391C157.771 200.419 158.604 201.253 159.631 201.253Z" fill="var(--fill-0, #226E77)"/>
<path id="Vector_39" d="M172.845 218.084C173.899 218.084 174.754 217.228 174.754 216.173C174.754 215.117 173.899 214.261 172.845 214.261C171.79 214.261 170.936 215.117 170.936 216.173C170.936 217.228 171.79 218.084 172.845 218.084Z" fill="var(--fill-0, #226E77)"/>
<path id="Vector_40" d="M185.959 213.541C187.014 213.541 187.868 212.686 187.868 211.63C187.868 210.574 187.014 209.718 185.959 209.718C184.905 209.718 184.05 210.574 184.05 211.63C184.05 212.686 184.905 213.541 185.959 213.541Z" fill="var(--fill-0, #226E77)"/>
<path id="Vector_41" d="M167.539 202.792C168.58 202.792 169.423 201.947 169.423 200.905C169.423 199.863 168.58 199.019 167.539 199.019C166.499 199.019 165.655 199.863 165.655 200.905C165.655 201.947 166.499 202.792 167.539 202.792Z" fill="var(--fill-0, #226E77)"/>
<path id="Vector_42" d="M154.276 207.36C155.33 207.36 156.185 206.504 156.185 205.448C156.185 204.393 155.33 203.537 154.276 203.537C153.221 203.537 152.367 204.393 152.367 205.448C152.367 206.504 153.221 207.36 154.276 207.36Z" fill="var(--fill-0, #226E77)"/>
<path id="Vector_43" d="M294.002 151.752C293.308 153.341 291.225 154.383 290.481 153.192C293.754 144.379 298.365 136.609 302.629 128.615C302.952 128.019 303.968 128.143 304.315 128.218C304.662 128.292 305.406 129.261 305.034 130.005C301.191 137.229 297.373 144.031 294.027 151.777L294.002 151.752Z" fill="var(--fill-0, #226E77)"/>
<path id="Vector_44" d="M298.96 171.264C299.853 170.048 299.53 169.204 299.63 168.186C299.679 167.615 299.902 167.168 301.34 167.268C302.53 169.949 303.596 173.995 301.712 177.049C297.324 176.254 291.225 165.406 291.994 163.792C293.729 160.093 297.398 170.594 298.985 171.264H298.96Z" fill="var(--fill-0, #226E77)"/>
<path id="Vector_45" d="M323.95 109.227C314.133 110.344 313.339 116.525 310.86 115.135C306.943 112.951 321.025 104.187 324.273 107.34C324.669 107.713 324.892 109.103 323.95 109.202V109.227Z" fill="var(--fill-0, #226E77)"/>
<path id="Vector_46" d="M281.333 39.7667C282.415 39.7667 283.292 38.8886 283.292 37.8055C283.292 36.7224 282.415 35.8443 281.333 35.8443C280.252 35.8443 279.375 36.7224 279.375 37.8055C279.375 38.8886 280.252 39.7667 281.333 39.7667Z" fill="var(--fill-0, #226E77)"/>
<path id="Vector_47" d="M286.639 33.5852C287.734 33.5852 288.622 32.6961 288.622 31.5993C288.622 30.5024 287.734 29.6133 286.639 29.6133C285.543 29.6133 284.655 30.5024 284.655 31.5993C284.655 32.6961 285.543 33.5852 286.639 33.5852Z" fill="var(--fill-0, #226E77)"/>
<path id="Vector_48" d="M281.308 18.3924C282.404 18.3924 283.292 17.5032 283.292 16.4064C283.292 15.3095 282.404 14.4204 281.308 14.4204C280.213 14.4204 279.325 15.3095 279.325 16.4064C279.325 17.5032 280.213 18.3924 281.308 18.3924Z" fill="var(--fill-0, #226E77)"/>
<path id="Vector_49" d="M252.302 19.8074C253.384 19.8074 254.261 18.9294 254.261 17.8462C254.261 16.7631 253.384 15.8851 252.302 15.8851C251.22 15.8851 250.344 16.7631 250.344 17.8462C250.344 18.9294 251.22 19.8074 252.302 19.8074Z" fill="var(--fill-0, #226E77)"/>
<path id="Vector_50" d="M276.053 24.3504C277.121 24.3504 277.986 23.4834 277.986 22.414C277.986 21.3446 277.121 20.4777 276.053 20.4777C274.985 20.4777 274.119 21.3446 274.119 22.414C274.119 23.4834 274.985 24.3504 276.053 24.3504Z" fill="var(--fill-0, #226E77)"/>
<path id="Vector_51" d="M294.448 35.0996C295.516 35.0996 296.382 34.2326 296.382 33.1632C296.382 32.0938 295.516 31.2269 294.448 31.2269C293.38 31.2269 292.514 32.0938 292.514 33.1632C292.514 34.2326 293.38 35.0996 294.448 35.0996Z" fill="var(--fill-0, #226E77)"/>
<path id="Vector_52" d="M278.73 10.6718C279.798 10.6718 280.664 9.80488 280.664 8.73547C280.664 7.66605 279.798 6.79912 278.73 6.79912C277.662 6.79912 276.796 7.66605 276.796 8.73547C276.796 9.80488 277.662 10.6718 278.73 10.6718Z" fill="var(--fill-0, #226E77)"/>
<path id="Vector_53" d="M291.87 27.4783C292.938 27.4783 293.803 26.6114 293.803 25.542C293.803 24.4725 292.938 23.6056 291.87 23.6056C290.802 23.6056 289.936 24.4725 289.936 25.542C289.936 26.6114 290.802 27.4783 291.87 27.4783Z" fill="var(--fill-0, #226E77)"/>
<path id="Vector_54" d="M241.716 32.0213C242.784 32.0213 243.65 31.1543 243.65 30.0849C243.65 29.0155 242.784 28.1486 241.716 28.1486C240.648 28.1486 239.782 29.0155 239.782 30.0849C239.782 31.1543 240.648 32.0213 241.716 32.0213Z" fill="var(--fill-0, #226E77)"/>
<path id="Vector_55" d="M273.449 38.1034C274.504 38.1034 275.358 37.2476 275.358 36.1919C275.358 35.1362 274.504 34.2803 273.449 34.2803C272.395 34.2803 271.54 35.1362 271.54 36.1919C271.54 37.2476 272.395 38.1034 273.449 38.1034Z" fill="var(--fill-0, #226E77)"/>
<path id="Vector_56" d="M299.729 50.3173C300.769 50.3173 301.613 49.4726 301.613 48.4306C301.613 47.3886 300.769 46.5439 299.729 46.5439C298.688 46.5439 297.845 47.3886 297.845 48.4306C297.845 49.4726 298.688 50.3173 299.729 50.3173Z" fill="var(--fill-0, #226E77)"/>
<path id="Vector_57" d="M302.381 57.9385C303.422 57.9385 304.266 57.0938 304.266 56.0518C304.266 55.0098 303.422 54.1651 302.381 54.1651C301.341 54.1651 300.497 55.0098 300.497 56.0518C300.497 57.0938 301.341 57.9385 302.381 57.9385Z" fill="var(--fill-0, #226E77)"/>
<path id="Vector_58" d="M286.688 12.2606C287.743 12.2606 288.597 11.4048 288.597 10.3491C288.597 9.29339 287.743 8.43757 286.688 8.43757C285.634 8.43757 284.779 9.29339 284.779 10.3491C284.779 11.4048 285.634 12.2606 286.688 12.2606Z" fill="var(--fill-0, #226E77)"/>
<path id="Vector_59" d="M307.736 51.9309C308.791 51.9309 309.645 51.0751 309.645 50.0194C309.645 48.9637 308.791 48.1078 307.736 48.1078C306.682 48.1078 305.827 48.9637 305.827 50.0194C305.827 51.0751 306.682 51.9309 307.736 51.9309Z" fill="var(--fill-0, #226E77)"/>
<path id="Vector_60" d="M305.034 44.26C306.075 44.26 306.918 43.4153 306.918 42.3733C306.918 41.3313 306.075 40.4866 305.034 40.4866C303.994 40.4866 303.15 41.3313 303.15 42.3733C303.15 43.4153 303.994 44.26 305.034 44.26Z" fill="var(--fill-0, #226E77)"/>
<path id="Vector_61" d="M289.267 41.2065C290.321 41.2065 291.176 40.3507 291.176 39.295C291.176 38.2393 290.321 37.3835 289.267 37.3835C288.212 37.3835 287.358 38.2393 287.358 39.295C287.358 40.3507 288.212 41.2065 289.267 41.2065Z" fill="var(--fill-0, #226E77)"/>
<path id="Vector_62" d="M278.705 32.0213C279.746 32.0213 280.589 31.1766 280.589 30.1346C280.589 29.0926 279.746 28.2479 278.705 28.2479C277.665 28.2479 276.821 29.0926 276.821 30.1346C276.821 31.1766 277.665 32.0213 278.705 32.0213Z" fill="var(--fill-0, #226E77)"/>
<path id="Vector_63" d="M299.753 28.943C300.794 28.943 301.638 28.0983 301.638 27.0563C301.638 26.0143 300.794 25.1696 299.753 25.1696C298.713 25.1696 297.869 26.0143 297.869 27.0563C297.869 28.0983 298.713 28.943 299.753 28.943Z" fill="var(--fill-0, #226E77)"/>
<path id="Vector_64" d="M262.839 28.8685C263.893 28.8685 264.748 28.0127 264.748 26.957C264.748 25.9013 263.893 25.0455 262.839 25.0455C261.784 25.0455 260.93 25.9013 260.93 26.957C260.93 28.0127 261.784 28.8685 262.839 28.8685Z" fill="var(--fill-0, #226E77)"/>
<path id="Vector_65" d="M284.036 25.8647C285.09 25.8647 285.944 25.0089 285.944 23.9532C285.944 22.8975 285.09 22.0416 284.036 22.0416C282.981 22.0416 282.127 22.8975 282.127 23.9532C282.127 25.0089 282.981 25.8647 284.036 25.8647Z" fill="var(--fill-0, #226E77)"/>
<path id="Vector_66" d="M246.997 25.8399C248.037 25.8399 248.881 24.9952 248.881 23.9532C248.881 22.9112 248.037 22.0665 246.997 22.0665C245.956 22.0665 245.113 22.9112 245.113 23.9532C245.113 24.9952 245.956 25.8399 246.997 25.8399Z" fill="var(--fill-0, #226E77)"/>
<path id="Vector_67" d="M268.169 22.836C269.223 22.836 270.078 21.9802 270.078 20.9245C270.078 19.8688 269.223 19.013 268.169 19.013C267.115 19.013 266.26 19.8688 266.26 20.9245C266.26 21.9802 267.115 22.836 268.169 22.836Z" fill="var(--fill-0, #226E77)"/>
<path id="Vector_68" d="M260.235 21.2224C261.276 21.2224 262.12 20.3777 262.12 19.3357C262.12 18.2937 261.276 17.449 260.235 17.449C259.195 17.449 258.351 18.2937 258.351 19.3357C258.351 20.3777 259.195 21.2224 260.235 21.2224Z" fill="var(--fill-0, #226E77)"/>
<path id="Vector_69" d="M289.267 19.7081C290.307 19.7081 291.151 18.8634 291.151 17.8214C291.151 16.7794 290.307 15.9347 289.267 15.9347C288.226 15.9347 287.382 16.7794 287.382 17.8214C287.382 18.8634 288.226 19.7081 289.267 19.7081Z" fill="var(--fill-0, #226E77)"/>
<path id="Vector_70" d="M265.516 15.19C266.57 15.19 267.425 14.3341 267.425 13.2784C267.425 12.2227 266.57 11.3669 265.516 11.3669C264.462 11.3669 263.607 12.2227 263.607 13.2784C263.607 14.3341 264.462 15.19 265.516 15.19Z" fill="var(--fill-0, #226E77)"/>
<path id="Vector_71" d="M257.558 13.6012C258.585 13.6012 259.417 12.7676 259.417 11.7393C259.417 10.711 258.585 9.87742 257.558 9.87742C256.531 9.87742 255.699 10.711 255.699 11.7393C255.699 12.7676 256.531 13.6012 257.558 13.6012Z" fill="var(--fill-0, #226E77)"/>
<path id="Vector_72" d="M273.474 16.7043C274.515 16.7043 275.358 15.8596 275.358 14.8176C275.358 13.7756 274.515 12.9309 273.474 12.9309C272.434 12.9309 271.59 13.7756 271.59 14.8176C271.59 15.8596 272.434 16.7043 273.474 16.7043Z" fill="var(--fill-0, #226E77)"/>
<path id="Vector_73" d="M270.822 30.4821C271.876 30.4821 272.73 29.6263 272.73 28.5706C272.73 27.5149 271.876 26.6591 270.822 26.6591C269.767 26.6591 268.913 27.5149 268.913 28.5706C268.913 29.6263 269.767 30.4821 270.822 30.4821Z" fill="var(--fill-0, #226E77)"/>
<path id="Vector_74" d="M297.076 42.7208C298.13 42.7208 298.985 41.865 298.985 40.8093C298.985 39.7536 298.13 38.8978 297.076 38.8978C296.022 38.8978 295.167 39.7536 295.167 40.8093C295.167 41.865 296.022 42.7208 297.076 42.7208Z" fill="var(--fill-0, #226E77)"/>
<path id="Vector_75" d="M297.15 21.2472C298.164 21.2472 298.985 20.4248 298.985 19.4102C298.985 18.3956 298.164 17.5732 297.15 17.5732C296.137 17.5732 295.316 18.3956 295.316 19.4102C295.316 20.4248 296.137 21.2472 297.15 21.2472Z" fill="var(--fill-0, #226E77)"/>
<path id="Vector_76" d="M302.505 36.5891C303.546 36.5891 304.39 35.7444 304.39 34.7024C304.39 33.6604 303.546 32.8157 302.505 32.8157C301.465 32.8157 300.621 33.6604 300.621 34.7024C300.621 35.7444 301.465 36.5891 302.505 36.5891Z" fill="var(--fill-0, #226E77)"/>
<path id="Vector_77" d="M247.641 158.157L250.17 160.193C250.715 160.639 248.038 166.051 244.889 164.487C243.204 163.643 243.799 161.955 243.923 160.093L245.311 140.804C245.385 139.861 245.881 139.489 246.278 139.389C249.823 138.496 245.98 156.791 247.641 158.132V158.157Z" fill="var(--fill-0, #226E77)"/>
<path id="Vector_78" d="M302.357 79.3376C303.397 79.3376 304.241 78.4929 304.241 77.4509C304.241 76.4089 303.397 75.5642 302.357 75.5642C301.316 75.5642 300.472 76.4089 300.472 77.4509C300.472 78.4929 301.316 79.3376 302.357 79.3376Z" fill="var(--fill-0, #226E77)"/>
<path id="Vector_79" d="M307.687 73.2059C308.7 73.2059 309.521 72.3834 309.521 71.3688C309.521 70.3542 308.7 69.5318 307.687 69.5318C306.674 69.5318 305.852 70.3542 305.852 71.3688C305.852 72.3834 306.674 73.2059 307.687 73.2059Z" fill="var(--fill-0, #226E77)"/>
</g>
</svg>
