<svg preserveAspectRatio="none" width="100%" height="100%" overflow="visible" style="display: block;" viewBox="0 0 58.9977 109.008" fill="none" xmlns="http://www.w3.org/2000/svg">
<g id="Group">
<path id="Vector" d="M14.3254 59.4923C12.3518 54.8302 13.1645 50.1448 15.1381 45.4594C12.7465 46.7181 9.58869 47.3708 8.00979 49.2357C2.13533 56.1589 2.53006 65.553 6.15225 73.5019C-0.5581 77.9309 -3.20509 56.8116 5.61821 46.485C8.21876 43.4546 12.2589 42.7786 15.7882 42.3357C19.8748 41.8462 24.4258 28.8389 41.4222 36.0885C46.2054 38.1398 58.4883 42.8486 58.9759 48.6063C59.4171 53.8511 53.1015 44.4337 44.6033 41.2401C36.7552 38.303 30.1841 33.7808 21.5698 42.9884C25.9118 44.3871 29.116 46.5549 30.5324 49.4221C32.5989 53.5481 32.6686 58.2801 30.5789 62.2429C29.116 65.0169 24.658 66.0892 21.8949 65.5297C18.7603 64.9003 15.8579 63.1287 14.3022 59.4457L14.3254 59.4923ZM27.0495 60.6578C29.4643 58.1403 29.1625 53.3616 27.3978 50.914C26.0279 48.9792 22.7075 45.2962 19.7355 47.0445C16.5312 48.9326 15.9972 54.5738 17.3439 57.6508C18.946 61.3571 23.9614 63.8514 27.0495 60.6578Z" fill="var(--fill-0, #226E77)"/>
<path id="Vector_2" d="M33.6438 12.1486C33.6438 14.6662 24.1936 19.9343 20.5946 20.7036C18.2727 13.4074 20.4785 9.6777 18.412 2.54468C18.0637 1.33253 19.689 -0.485689 20.7804 0.120384C24.2865 2.07847 33.6438 10.9365 33.6206 12.1486H33.6438ZM29.9519 12.3118C27.2817 9.44459 25.2152 7.18347 22.0806 4.85242C21.7091 9.025 22.4057 12.2185 22.754 16.2513C25.5867 15.8084 27.6532 14.3398 29.9519 12.3351V12.3118Z" fill="var(--fill-0, #226E77)"/>
<path id="Vector_3" d="M40.4935 104.575C40.2613 105.461 41.608 106.253 41.8866 106.859C42.3278 107.815 41.4454 108.561 40.3309 108.957C39.6808 109.19 38.9378 108.584 38.0554 107.838C36.4301 106.463 35.1763 108.771 33.4813 108.841C30.7878 108.957 34.5261 104.225 34.2939 102.78C34.1778 102.104 32.8543 101.428 32.8543 100.449C32.8543 99.0736 34.5029 98.3742 35.571 98.8405C36.3837 99.2134 37.1731 100.099 38.0554 101.241C39.5415 101.218 40.3077 99.3533 42.1188 99.5631C43.2798 99.7029 42.9315 101.568 42.7689 102.43C42.6296 103.176 40.8882 103.153 40.5167 104.575H40.4935Z" fill="var(--fill-0, #226E77)"/>
<path id="Vector_4" d="M29.9519 12.3118C27.63 14.3398 25.5635 15.7851 22.754 16.228C22.4289 12.1952 21.7091 9.025 22.0806 4.82911C25.2152 7.16016 27.2817 9.42128 29.9519 12.2885V12.3118Z" fill="var(--fill-0, #D1801F)"/>
</g>
</svg>
