<svg preserveAspectRatio="none" width="100%" height="100%" overflow="visible" style="display: block;" viewBox="0 0 103.398 126.527" fill="none" xmlns="http://www.w3.org/2000/svg">
<g id="Group">
<path id="Vector" d="M74.1333 106.7C68.738 114.283 81.3356 120.958 70.3386 124.566C66.3115 125.866 62.2585 127.707 58.1282 125.498C54.9788 123.805 54.8755 119.707 56.4502 116.737C52.5006 116.713 49.2737 114.872 47.4925 111.731C46.1759 109.424 44.0075 107.878 42.5361 105.792C37.9669 99.2646 36.7277 91.3135 34.8691 83.6078C30.7387 81.031 24.4141 80.2458 21.2131 76.2947C18.7607 73.2763 18.4509 69.7424 13.8559 68.0491C9.26085 66.3558 4.58838 61.5214 5.31119 56.6378C5.98238 52.196 11.1453 51.6806 15.4048 51.7543C16.7729 46.159 7.55708 44.2694 1.00013 33.4471C-4.21445 24.8579 12.3328 18.821 19.0446 18.3301C27.4861 9.3238 37.6829 6.72251 49.79 5.83905C54.1269 5.52002 70.416 -3.92806 77.5409 1.88803C84.4592 7.53234 75.2175 23.6309 75.1143 25.7168C75.011 27.5574 79.6835 38.6251 72.9975 49.0794C76.0952 50.9444 78.78 52.2451 81.981 53.0549C85.5176 53.9384 86.9633 57.0059 89.364 58.3802C90.9129 59.2637 106.04 62.6748 102.994 70.675C101.42 74.8223 92.3327 75.0186 87.1698 71.8284L93.2621 84.9821C94.0107 86.5772 92.6683 88.4423 94.6044 90.0865C97.2892 92.3442 96.4889 95.9271 93.9332 98.1848C94.656 99.8536 96.8245 100.516 97.9862 101.768C101.497 105.596 98.8897 109.302 95.5337 111.952C93.0297 113.94 91.3001 116.198 87.9958 115.609C84.6916 115.02 83.9171 111.535 82.0843 109.007C80.2514 108.835 76.4566 108.909 74.1591 106.651L74.1333 106.7ZM66.6212 4.66111C65.537 4.58749 64.3237 4.39116 62.9813 5.39732C60.0643 5.54456 57.173 6.30532 54.385 8.4158C61.9488 11.0662 67.9636 14.919 72.2747 22.0358C75.5789 17.5449 79.477 5.78997 73.8752 3.60587C71.6035 2.72241 68.4799 2.55063 66.5954 4.68565L66.6212 4.66111ZM26.8149 15.6307C26.5051 15.8516 26.1953 16.097 25.9114 16.3424C18.6316 22.3548 15.0692 31.5084 16.489 40.5884C17.9088 49.6683 24.0785 57.4231 32.8813 61.2024C33.8107 61.595 34.74 61.9386 35.6952 62.2331C43.7494 64.7362 52.578 63.6564 59.7287 59.3373C60.9936 58.5765 62.1811 57.7176 63.2911 56.7851C74.7529 47.0916 76.0178 30.4777 66.1308 19.3363C56.2437 8.19494 38.7929 6.55072 26.8149 15.6552V15.6307ZM6.93752 26.8457C5.54353 26.9193 4.22697 27.631 3.78812 28.7598C2.36831 32.3428 9.80296 39.5822 13.1847 41.8645C12.2295 34.7723 13.6494 28.5635 17.3667 21.8149C13.6494 22.5511 10.0869 23.7536 6.96334 26.8457H6.93752ZM89.9061 85.4729C85.7758 76.4911 81.7487 69.6688 77.1795 62.2085C76.6632 61.3496 76.8955 60.1471 77.4376 59.9017C77.8506 59.7054 78.8316 59.8526 79.193 60.368L83.1169 65.9141C83.3234 64.2454 85.5434 60.2207 83.9687 58.5029C80.4063 55.2145 75.2434 54.0365 70.7774 52.515C62.052 64.3435 47.3892 68.7117 32.7523 64.3435C31.2292 68.8099 30.2482 72.7118 28.1572 76.7855C31.0743 78.9451 34.5077 79.6077 37.7087 80.9329C39.6448 89.1294 40.729 97.5222 45.7887 104.394C62.3618 102.136 76.8955 95.3627 89.8545 85.4729H89.9061ZM15.4822 65.1779C17.599 62.8956 20.3612 59.9017 18.8639 57.0796C17.599 54.7237 9.6997 54.1592 8.89944 57.0059C7.81522 60.8097 12.4877 63.7791 15.4822 65.1779ZM29.2157 63.4601C28.0282 61.2269 24.4916 60.0735 22.4006 58.6747C21.5745 61.9631 19.8191 64 18.5025 66.8712C20.6452 69.1289 24.2076 69.4234 25.5758 72.0983C25.3693 72.8345 23.2524 73.0799 23.3557 73.6934C23.5364 74.5769 23.872 74.7487 24.2592 74.8959C27.0472 75.9266 29.9643 64.9325 29.1898 63.4601H29.2157ZM92.6167 63.6809C91.8164 62.1349 88.4347 61.7913 87.2214 62.6748C86.163 63.4355 86.0597 66.3804 86.3695 67.8283C86.6018 69.0553 89.1575 69.9878 91.1969 69.6688C92.8748 69.3989 93.4169 65.1534 92.6425 63.6809H92.6167ZM95.4047 70.6259C97.315 71.902 100.258 69.8406 100.026 68.3682C99.8448 67.2884 97.9087 64.8834 96.618 65.2761C95.1465 65.7178 94.1914 69.767 95.4047 70.6259ZM71.9133 103.314C74.9852 101.792 77.102 105.302 78.9607 105.67C81.284 105.94 93.9332 95.6572 92.436 92.4669C91.9455 91.4117 90.2159 89.0067 88.538 90.111C76.2243 98.1603 63.3686 104.271 48.7832 106.651C49.4802 111.142 53.4815 114.357 58.2572 112.835C62.1553 111.608 66.5696 111.289 69.719 109.13C70.6741 107.78 69.719 104.369 71.9133 103.314ZM89.3382 112.688C92.7199 110.357 94.7593 108.688 96.5922 105.891C95.353 103.903 92.9781 100.663 90.2417 101.522C88.5896 102.038 85.75 104.394 85.3627 105.891C84.6916 108.492 86.7567 111.437 89.3124 112.688H89.3382ZM70.9581 120.099C71.8874 118.529 70.1837 113.719 68.4283 113.302C65.6145 112.909 62.5425 114.701 59.7287 115.265C59.4447 117.326 57.9475 121.449 60.2192 122.603C63.3169 124.198 69.022 122.504 70.9581 120.099Z" fill="var(--fill-0, #226E77)"/>
<path id="Vector_2" d="M63.3004 56.7597C61.958 55.5327 60.8996 53.594 59.3507 54.3547C57.3888 55.3609 58.8086 57.4468 59.738 59.3119C52.5873 63.6556 43.7844 64.7108 35.7044 62.2077C36.6079 61.1525 37.2791 60.0481 37.0984 59.2874C36.7628 57.9622 35.3172 57.4468 34.4137 57.9867C33.3811 58.6248 33.2778 59.9009 32.8906 61.177C24.0878 57.4223 17.8922 49.643 16.4982 40.563C15.1043 31.483 18.6409 22.354 25.9206 16.317C26.8241 17.8631 26.7725 19.1637 27.5211 20.0226C27.9858 20.538 29.6638 20.6361 30.2833 19.8754C31.161 18.7956 30.4382 17.5195 29.767 17.1759C28.8893 16.6851 28.0891 16.4152 26.8241 15.6053C38.8022 6.50083 56.253 8.1205 66.14 19.2864C76.0271 30.4278 74.7621 47.0417 63.3004 56.7352V56.7597ZM55.5818 15.0655C55.5818 14.0593 54.7041 13.2249 53.6457 13.2249C52.5873 13.2249 51.7096 14.0593 51.7096 15.0655C51.7096 16.0716 52.5873 16.906 53.6457 16.906C54.7041 16.906 55.5818 16.0716 55.5818 15.0655ZM47.3469 16.2434C47.3469 15.2372 46.4692 14.4029 45.4108 14.4029C44.3524 14.4029 43.4747 15.2372 43.4747 16.2434C43.4747 17.2496 44.3524 18.0839 45.4108 18.0839C46.4692 18.0839 47.3469 17.2496 47.3469 16.2434ZM38.9829 17.4213C38.9829 16.3906 38.1052 15.5563 37.021 15.5563C35.9368 15.5563 35.0591 16.3906 35.0591 17.4213C35.0591 18.452 35.9368 19.2864 37.021 19.2864C38.1052 19.2864 38.9829 18.452 38.9829 17.4213ZM60.9512 21.3233C60.9512 20.2926 60.0735 19.4582 58.9893 19.4582C57.9051 19.4582 57.0274 20.2926 57.0274 21.3233C57.0274 22.354 57.9051 23.1883 58.9893 23.1883C60.0735 23.1883 60.9512 22.354 60.9512 21.3233ZM52.5356 22.4767C52.5356 21.446 51.6579 20.6116 50.5737 20.6116C49.4895 20.6116 48.6118 21.446 48.6118 22.4767C48.6118 23.5074 49.4895 24.3418 50.5737 24.3418C51.6579 24.3418 52.5356 23.5074 52.5356 22.4767ZM44.3007 23.6792C44.3007 22.6485 43.423 21.8386 42.3646 21.8386C41.3062 21.8386 40.4285 22.673 40.4285 23.6792C40.4285 24.6853 41.3062 25.5197 42.3646 25.5197C43.423 25.5197 44.3007 24.6853 44.3007 23.6792ZM35.9368 24.9307C35.9368 23.9246 35.0849 23.0902 34.0006 23.0902C32.9164 23.0902 32.0645 23.9 32.0645 24.9307C32.0645 25.9614 32.9164 26.7713 34.0006 26.7713C35.0849 26.7713 35.9368 25.9614 35.9368 24.9307ZM27.7018 26.0841C27.7018 25.0534 26.8241 24.219 25.7399 24.219C24.6557 24.219 23.778 25.0534 23.778 26.0841C23.778 27.1148 24.6557 27.9492 25.7399 27.9492C26.8241 27.9492 27.7018 27.1148 27.7018 26.0841ZM66.14 27.5811C66.14 26.5259 65.2365 25.6915 64.1523 25.6915C63.0681 25.6915 62.1645 26.5504 62.1645 27.5811C62.1645 28.6118 63.0681 29.4707 64.1523 29.4707C65.2365 29.4707 66.14 28.6118 66.14 27.5811ZM57.776 28.7345C57.776 27.7283 56.9241 26.9185 55.8657 26.9185C54.8073 26.9185 53.9555 27.7283 53.9555 28.7345C53.9555 29.7407 54.8073 30.5505 55.8657 30.5505C56.9241 30.5505 57.776 29.7407 57.776 28.7345ZM49.5411 29.937C49.5411 28.9063 48.6634 28.0474 47.5534 28.0474C46.4434 28.0474 45.5657 28.8817 45.5657 29.937C45.5657 30.9922 46.4434 31.8266 47.5534 31.8266C48.6634 31.8266 49.5411 30.9922 49.5411 29.937ZM41.203 31.164C41.203 30.1578 40.3253 29.3235 39.2669 29.3235C38.2085 29.3235 37.3308 30.1578 37.3308 31.164C37.3308 32.1702 38.2085 33.0045 39.2669 33.0045C40.3253 33.0045 41.203 32.1702 41.203 31.164ZM32.8906 32.3174C32.8906 31.3112 32.0129 30.4769 30.9545 30.4769C29.8961 30.4769 29.0184 31.3112 29.0184 32.3174C29.0184 33.3236 29.8961 34.1579 30.9545 34.1579C32.0129 34.1579 32.8906 33.3236 32.8906 32.3174ZM24.6299 33.5199C24.6299 32.4892 23.7522 31.6548 22.668 31.6548C21.5838 31.6548 20.7061 32.4892 20.7061 33.5199C20.7061 34.5506 21.5838 35.385 22.668 35.385C23.7522 35.385 24.6299 34.5506 24.6299 33.5199ZM53.6973 34.1089C53.0777 34.4279 51.8128 34.3788 51.3223 34.8942C50.7286 35.5077 50.5995 36.3911 51.3223 37.4464C51.8128 38.1335 52.9229 37.5445 53.8522 37.5445C54.7299 37.8145 55.4269 39.0906 56.1755 39.1887C57.7502 39.3851 58.3181 37.7163 58.473 36.7347C59.9445 36.5138 62.9132 37.4464 63.0681 34.9678C63.1455 33.7898 61.7515 32.9555 60.8222 33.2009C60.0735 33.3972 59.4024 34.477 58.3698 34.9432C57.8277 34.207 57.3114 33.299 56.4079 32.7837C55.2204 32.1211 54.2136 33.0782 53.6715 34.1334L53.6973 34.1089ZM71.303 33.8389C71.303 32.8328 70.4511 32.0229 69.3927 32.0229C68.3343 32.0229 67.4824 32.8328 67.4824 33.8389C67.4824 34.8451 68.3343 35.6549 69.3927 35.6549C70.4511 35.6549 71.303 34.8451 71.303 33.8389ZM46.4692 37.4218C46.4692 36.3666 45.5657 35.5322 44.4814 35.5322C43.3972 35.5322 42.4937 36.3666 42.4937 37.4218C42.4937 38.4771 43.3972 39.3114 44.4814 39.3114C45.5657 39.3114 46.4692 38.4771 46.4692 37.4218ZM34.0781 39.9986C31.8838 39.9986 31.032 41.3728 31.445 43.2625C31.7548 44.7349 32.5034 47.1889 34.9558 46.5263C37.2533 45.9128 35.8593 43.2134 36.4789 41.1274C36.7628 40.1704 38.1568 39.5323 38.1052 38.6488C38.0536 37.52 37.2017 36.6365 36.0916 36.6611C34.5686 36.7101 34.2588 38.3789 34.0523 39.9986H34.0781ZM29.8187 39.7777C29.8187 38.747 28.941 37.8881 27.8309 37.8881C26.7209 37.8881 25.8432 38.7225 25.8432 39.7777C25.8432 40.8329 26.7209 41.6673 27.8309 41.6673C28.941 41.6673 29.8187 40.8329 29.8187 39.7777ZM21.4805 40.9802C21.4805 39.9495 20.6028 39.1151 19.5186 39.1151C18.4344 39.1151 17.5567 39.9495 17.5567 40.9802C17.5567 42.0109 18.4344 42.8453 19.5186 42.8453C20.6028 42.8453 21.4805 42.0109 21.4805 40.9802ZM68.3343 41.2256C68.3343 40.1949 67.4566 39.3605 66.3723 39.3605C65.2881 39.3605 64.4104 40.1949 64.4104 41.2256C64.4104 42.2563 65.2881 43.0907 66.3723 43.0907C67.4566 43.0907 68.3343 42.2563 68.3343 41.2256ZM59.9961 42.5262C59.9961 41.5201 59.1442 40.7102 58.0858 40.7102C57.0274 40.7102 56.1755 41.5201 56.1755 42.5262C56.1755 43.5324 57.0274 44.3422 58.0858 44.3422C59.1442 44.3422 59.9961 43.5324 59.9961 42.5262ZM51.4772 52.8823C55.2462 50.8945 57.1307 46.7963 54.6266 43.5569C52.6131 40.9556 48.7925 40.4158 45.5657 41.79C43.3714 42.7226 40.7383 45.3484 41.1513 48.5632C41.4611 50.8945 43.0616 52.416 44.4556 52.9805C46.5208 53.8149 49.2572 54.0357 51.4772 52.8823ZM26.7467 47.2871C26.7467 46.2564 25.869 45.422 24.7848 45.422C23.7006 45.422 22.8229 46.2564 22.8229 47.2871C22.8229 48.3178 23.7006 49.1522 24.7848 49.1522C25.869 49.1522 26.7467 48.3178 26.7467 47.2871ZM65.2107 48.6859C65.2107 47.6797 64.3588 46.8454 63.2746 46.8454C62.1904 46.8454 61.3385 47.6552 61.3385 48.6859C61.3385 49.7166 62.1904 50.5264 63.2746 50.5264C64.3588 50.5264 65.2107 49.7166 65.2107 48.6859ZM40.2478 52.3179C40.2478 51.3117 39.3959 50.4774 38.3117 50.4774C37.2275 50.4774 36.3756 51.2872 36.3756 52.3179C36.3756 53.3486 37.2275 54.1584 38.3117 54.1584C39.3959 54.1584 40.2478 53.3486 40.2478 52.3179ZM31.9613 53.4713C31.9613 52.4651 31.1094 51.6553 30.051 51.6553C28.9926 51.6553 28.1407 52.4651 28.1407 53.4713C28.1407 54.4775 28.9926 55.2873 30.051 55.2873C31.1094 55.2873 31.9613 54.4775 31.9613 53.4713ZM53.8006 57.2751C53.8006 56.2444 52.9229 55.41 51.8386 55.41C50.7544 55.41 49.8767 56.2444 49.8767 57.2751C49.8767 58.3058 50.7544 59.1401 51.8386 59.1401C52.9229 59.1401 53.8006 58.3058 53.8006 57.2751ZM45.4882 58.453C45.4882 57.4468 44.6363 56.6125 43.5521 56.6125C42.4679 56.6125 41.616 57.4223 41.616 58.453C41.616 59.4837 42.4679 60.2935 43.5521 60.2935C44.6363 60.2935 45.4882 59.4837 45.4882 58.453Z" fill="var(--fill-0, #F9FBFC)"/>
<path id="Vector_3" d="M89.9004 85.4733C76.9156 95.3631 62.3819 102.136 45.8346 104.394C40.7491 97.5226 39.6649 89.1053 37.7546 80.9333C34.5536 79.6081 31.1202 78.9455 28.2031 76.786C30.2941 72.7122 31.2751 68.8348 32.7982 64.3439C47.4351 68.7367 62.0721 64.3439 70.8233 52.5154C75.2892 54.0369 80.4522 55.2394 84.0146 58.5033C85.5893 60.2211 83.3693 64.2458 83.1627 65.9145L79.2389 60.3684C78.8517 59.8285 77.8965 59.7058 77.4835 59.9021C76.9414 60.1475 76.709 61.35 77.2253 62.2089C81.7946 69.6692 85.8216 76.4915 89.952 85.4733H89.9004ZM57.5545 86.5531C60.1618 87.6819 59.7746 91.1176 62.4077 92.9336C65.6345 89.9151 68.9646 86.3077 70.1263 81.9885C71.1331 78.1357 68.3709 76.6387 66.0734 74.8963C65.5054 73.1785 67.7255 69.1048 64.4987 68.1968C61.0137 67.2152 58.4322 69.9882 55.7475 71.7061C54.3277 72.6141 52.5464 72.6141 52.3657 74.3319C51.6946 80.9578 55.1537 76.7123 55.6958 81.6204C56.0056 84.5407 48.7259 86.8966 48.3644 90.0378C47.7707 95.0195 54.9214 85.4242 57.5545 86.5776V86.5531Z" fill="var(--fill-0, #70BC96)"/>
<path id="Vector_4" d="M71.9152 103.313C69.7467 104.392 70.6761 107.779 69.7209 109.129C66.5715 111.288 62.1572 111.607 58.2592 112.834C53.4834 114.331 49.4822 111.141 48.7852 106.65C63.3705 104.27 76.2521 98.159 88.5399 90.1097C90.2178 89.0054 91.9474 91.4104 92.4379 92.4656C93.9352 95.6559 81.2859 105.938 78.9626 105.668C77.1039 105.3 75.013 101.791 71.9152 103.313Z" fill="var(--fill-0, #D1801F)"/>
<path id="Vector_5" d="M62.9752 5.39547C63.1301 6.25438 63.2076 7.38324 63.7497 7.87405C64.6532 8.65935 66.2021 8.31578 66.5893 7.57957C67.1056 6.59795 66.7442 5.54271 66.5893 4.68379C68.4738 2.54877 71.5973 2.7451 73.869 3.60401C79.4708 5.78811 75.5728 17.543 72.2685 22.0339C67.9575 14.9172 61.9426 11.0643 54.3789 8.41394C57.1669 6.30346 60.0582 5.56725 62.9752 5.39547ZM72.2169 12.684C72.2169 11.7024 71.3908 10.9171 70.3582 10.9171C69.3256 10.9171 68.4996 11.7024 68.4996 12.684C68.4996 13.6656 69.3256 14.4509 70.3582 14.4509C71.3908 14.4509 72.2169 13.6656 72.2169 12.684Z" fill="var(--fill-0, #F9FBFC)"/>
<path id="Vector_6" d="M6.9314 26.8452L7.49933 29.5692C7.73166 30.6245 8.97077 30.5263 10.0292 30.1091C10.9069 29.7656 11.1134 28.9557 10.9843 28.195C10.7262 26.8452 9.38381 26.5753 6.9314 26.8452C10.055 23.7532 13.6174 22.5507 17.3347 21.8145C13.6432 28.5631 12.2234 34.7718 13.1528 41.864C9.77103 39.5818 2.33638 32.3423 3.75619 28.7594C4.22085 27.606 5.51159 26.9189 6.90559 26.8452H6.9314Z" fill="var(--fill-0, #F9FBFC)"/>
<path id="Vector_7" d="M29.2147 63.463C29.9891 64.9354 27.072 75.905 24.284 74.8988C23.871 74.7516 23.5612 74.5798 23.3805 73.6964C23.2514 73.0828 25.3683 72.8129 25.6006 72.1012C24.2066 69.4509 20.67 69.1564 18.5273 66.8741C19.8697 64.0029 21.6251 61.9906 22.4254 58.6776C24.5164 60.0519 28.0272 61.2053 29.2405 63.463H29.2147Z" fill="var(--fill-0, #F9FBFC)"/>
<path id="Vector_8" d="M70.9572 120.101C69.0211 122.506 63.316 124.2 60.2182 122.605C57.9724 121.451 59.4438 117.353 59.7278 115.267C62.5416 114.703 65.6135 112.911 68.4273 113.304C70.1827 113.721 71.8607 118.531 70.9572 120.101ZM67.782 118.187C67.782 117.157 66.9043 116.322 65.82 116.322C64.7358 116.322 63.8581 117.157 63.8581 118.187C63.8581 119.218 64.7358 120.052 65.82 120.052C66.9043 120.052 67.782 119.218 67.782 118.187Z" fill="var(--fill-0, #F9FBFC)"/>
<path id="Vector_9" d="M89.3354 112.691C86.7798 111.439 84.7146 108.494 85.3858 105.893C85.773 104.396 88.6126 102.04 90.2648 101.525C93.0011 100.666 95.3761 103.905 96.6152 105.893C94.7823 108.691 92.743 110.359 89.3612 112.691H89.3354Z" fill="var(--fill-0, #F9FBFC)"/>
<path id="Vector_10" d="M15.4896 65.1786C12.4692 63.7798 7.82259 60.7859 8.90681 57.0066C9.70707 54.1845 17.6322 54.7489 18.8713 57.0802C20.3686 59.9024 17.6064 62.8963 15.4896 65.1786Z" fill="var(--fill-0, #F9FBFC)"/>
<path id="Vector_11" d="M92.6215 63.6779C93.3959 65.175 92.8796 69.3965 91.1758 69.6665C89.1365 69.9855 86.5808 69.0529 86.3485 67.8257C86.0645 66.3777 86.1419 63.4079 87.2003 62.6716C88.4395 61.7881 91.7954 62.1317 92.5956 63.6779H92.6215Z" fill="var(--fill-0, #F9FBFC)"/>
<path id="Vector_12" d="M25.9141 16.3446C26.198 16.0991 26.5078 15.8537 26.8176 15.6328C28.1083 16.4427 28.8828 16.7127 29.7605 17.2036C30.4316 17.5717 31.1545 18.848 30.2768 19.9033C29.6572 20.6642 27.9792 20.566 27.5146 20.0506C26.7659 19.1916 26.7918 17.8908 25.9141 16.3446Z" fill="var(--fill-0, #EDDA6C)"/>
<path id="Vector_13" d="M35.7201 62.2103C34.7649 61.9158 33.8098 61.5722 32.9063 61.1795C33.2935 59.9032 33.3967 58.627 34.4293 57.9888C35.3328 57.4489 36.7526 57.9643 37.1141 59.2896C37.3206 60.0505 36.6236 61.1549 35.7201 62.2103Z" fill="var(--fill-0, #E4D66D)"/>
<path id="Vector_14" d="M63.2902 56.7592C62.1801 57.6919 60.9926 58.5509 59.7277 59.3117C58.7984 57.4464 57.3786 55.3603 59.3405 54.354C60.8636 53.5686 61.922 55.5321 63.2902 56.7592Z" fill="var(--fill-0, #E4D66D)"/>
<path id="Vector_15" d="M66.618 4.66266C66.747 5.54622 67.1343 6.60158 66.618 7.55877C66.2307 8.29506 64.6819 8.63867 63.7783 7.85328C63.2362 7.38696 63.1588 6.23343 63.0039 5.37442C64.3463 4.39269 65.5596 4.56449 66.6438 4.63812L66.618 4.66266Z" fill="var(--fill-0, #E4D66D)"/>
<path id="Vector_16" d="M51.471 52.8823C49.2767 54.0357 46.5146 53.8148 44.4494 52.9804C43.0554 52.416 41.4549 50.8945 41.1451 48.5631C40.732 45.3483 43.3393 42.7225 45.5594 41.79C48.7862 40.4157 52.6068 40.9556 54.6204 43.5569C57.1244 46.8208 55.2399 50.8945 51.471 52.8823ZM49.8188 50.6245C52.5036 49.7902 53.562 47.3116 52.4519 45.4956C51.4452 43.8268 48.9153 43.3115 46.7727 44.2195C44.501 45.152 43.2877 47.3606 44.2945 49.373C45.0173 50.8208 47.4955 51.3607 49.8188 50.6245Z" fill="var(--fill-0, #226E77)"/>
<path id="Vector_17" d="M34.062 39.9964C34.8365 40.4382 35.6367 40.8063 36.4628 41.1254C35.8433 43.2116 37.2373 45.9113 34.9397 46.5249C32.4615 47.1876 31.7387 44.7333 31.4289 43.2607C31.0159 41.3708 31.8678 39.9719 34.062 39.9964Z" fill="var(--fill-0, #226E77)"/>
<path id="Vector_18" d="M58.4131 34.9187L58.5164 36.7103C58.3357 37.7166 57.7936 39.361 56.2189 39.1646C55.4703 39.0665 54.7732 37.7902 53.8955 37.5202C54.0504 36.3667 53.9988 35.2132 53.7148 34.0842C54.257 33.0288 55.2637 32.0716 56.4512 32.7343C57.3805 33.2497 57.871 34.1578 58.4131 34.8941V34.9187Z" fill="var(--fill-0, #226E77)"/>
<path id="Vector_19" d="M47.5463 31.8266C48.6441 31.8266 49.5341 30.9805 49.5341 29.9368C49.5341 28.893 48.6441 28.0469 47.5463 28.0469C46.4485 28.0469 45.5586 28.893 45.5586 29.9368C45.5586 30.9805 46.4485 31.8266 47.5463 31.8266Z" fill="var(--fill-0, #EDDA6C)"/>
<path id="Vector_20" d="M27.8237 41.6683C28.9215 41.6683 29.8114 40.8222 29.8114 39.7785C29.8114 38.7348 28.9215 37.8887 27.8237 37.8887C26.7259 37.8887 25.8359 38.7348 25.8359 39.7785C25.8359 40.8222 26.7259 41.6683 27.8237 41.6683Z" fill="var(--fill-0, #EDDA6C)"/>
<path id="Vector_21" d="M36.475 41.1275C35.6489 40.8085 34.8487 40.4403 34.0742 39.9985C34.2549 38.3787 34.5905 36.7097 36.1136 36.6607C37.1978 36.6361 38.0497 37.5197 38.1271 38.6487C38.1788 39.5322 36.7848 40.1703 36.5008 41.1275H36.475Z" fill="var(--fill-0, #E4D66D)"/>
<path id="Vector_22" d="M38.2955 54.16C39.3648 54.16 40.2316 53.3359 40.2316 52.3193C40.2316 51.3026 39.3648 50.4785 38.2955 50.4785C37.2262 50.4785 36.3594 51.3026 36.3594 52.3193C36.3594 53.3359 37.2262 54.16 38.2955 54.16Z" fill="var(--fill-0, #EDDA6C)"/>
<path id="Vector_23" d="M63.2681 50.5291C64.3374 50.5291 65.2042 49.705 65.2042 48.6883C65.2042 47.6717 64.3374 46.8476 63.2681 46.8476C62.1989 46.8476 61.332 47.6717 61.332 48.6883C61.332 49.705 62.1989 50.5291 63.2681 50.5291Z" fill="var(--fill-0, #EDDA6C)"/>
<path id="Vector_24" d="M58.5173 36.7356L58.4141 34.9439C59.4467 34.4776 60.1178 33.3977 60.8665 33.2014C61.7958 32.9559 63.1898 33.7904 63.1124 34.9685C62.9833 37.4473 59.9888 36.5147 58.5173 36.7356Z" fill="var(--fill-0, #E4D66D)"/>
<path id="Vector_25" d="M64.1166 29.471C65.2144 29.471 66.1044 28.6249 66.1044 27.5812C66.1044 26.5374 65.2144 25.6913 64.1166 25.6913C63.0188 25.6913 62.1289 26.5374 62.1289 27.5812C62.1289 28.6249 63.0188 29.471 64.1166 29.471Z" fill="var(--fill-0, #EDDA6C)"/>
<path id="Vector_26" d="M43.5416 60.3006C44.6109 60.3006 45.4777 59.4765 45.4777 58.4599C45.4777 57.4433 44.6109 56.6191 43.5416 56.6191C42.4723 56.6191 41.6055 57.4433 41.6055 58.4599C41.6055 59.4765 42.4723 60.3006 43.5416 60.3006Z" fill="var(--fill-0, #EDDA6C)"/>
<path id="Vector_27" d="M37.0166 19.2871C38.1001 19.2871 38.9785 18.452 38.9785 17.4218C38.9785 16.3916 38.1001 15.5565 37.0166 15.5565C35.9331 15.5565 35.0547 16.3916 35.0547 17.4218C35.0547 18.452 35.9331 19.2871 37.0166 19.2871Z" fill="var(--fill-0, #EDDA6C)"/>
<path id="Vector_28" d="M58.958 23.1897C60.0416 23.1897 60.9199 22.3546 60.9199 21.3244C60.9199 20.2942 60.0416 19.4591 58.958 19.4591C57.8745 19.4591 56.9961 20.2942 56.9961 21.3244C56.9961 22.3546 57.8745 23.1897 58.958 23.1897Z" fill="var(--fill-0, #EDDA6C)"/>
<path id="Vector_29" d="M58.0783 44.3433C59.1333 44.3433 59.9886 43.5302 59.9886 42.5271C59.9886 41.5241 59.1333 40.7109 58.0783 40.7109C57.0232 40.7109 56.168 41.5241 56.168 42.5271C56.168 43.5302 57.0232 44.3433 58.0783 44.3433Z" fill="var(--fill-0, #EDDA6C)"/>
<path id="Vector_30" d="M42.3502 25.5174C43.4195 25.5174 44.2863 24.6933 44.2863 23.6767C44.2863 22.6601 43.4195 21.8359 42.3502 21.8359C41.2809 21.8359 40.4141 22.6601 40.4141 23.6767C40.4141 24.6933 41.2809 25.5174 42.3502 25.5174Z" fill="var(--fill-0, #EDDA6C)"/>
<path id="Vector_31" d="M22.6533 35.381C23.7369 35.381 24.6152 34.5458 24.6152 33.5157C24.6152 32.4855 23.7369 31.6504 22.6533 31.6504C21.5698 31.6504 20.6914 32.4855 20.6914 33.5157C20.6914 34.5458 21.5698 35.381 22.6533 35.381Z" fill="var(--fill-0, #EDDA6C)"/>
<path id="Vector_32" d="M66.3877 43.0919C67.4712 43.0919 68.3496 42.2568 68.3496 41.2266C68.3496 40.1964 67.4712 39.3613 66.3877 39.3613C65.3042 39.3613 64.4258 40.1964 64.4258 41.2266C64.4258 42.2568 65.3042 43.0919 66.3877 43.0919Z" fill="var(--fill-0, #EDDA6C)"/>
<path id="Vector_33" d="M19.5088 42.8478C20.5923 42.8478 21.4707 42.0126 21.4707 40.9825C21.4707 39.9523 20.5923 39.1172 19.5088 39.1172C18.4253 39.1172 17.5469 39.9523 17.5469 40.9825C17.5469 42.0126 18.4253 42.8478 19.5088 42.8478Z" fill="var(--fill-0, #EDDA6C)"/>
<path id="Vector_34" d="M55.8595 30.5486C56.9145 30.5486 57.7698 29.7354 57.7698 28.7324C57.7698 27.7293 56.9145 26.9162 55.8595 26.9162C54.8045 26.9162 53.9492 27.7293 53.9492 28.7324C53.9492 29.7354 54.8045 30.5486 55.8595 30.5486Z" fill="var(--fill-0, #EDDA6C)"/>
<path id="Vector_35" d="M53.6353 16.9041C54.7046 16.9041 55.5714 16.08 55.5714 15.0634C55.5714 14.0468 54.7046 13.2227 53.6353 13.2227C52.566 13.2227 51.6992 14.0468 51.6992 15.0634C51.6992 16.08 52.566 16.9041 53.6353 16.9041Z" fill="var(--fill-0, #EDDA6C)"/>
<path id="Vector_36" d="M25.7315 27.9513C26.815 27.9513 27.6934 27.1162 27.6934 26.086C27.6934 25.0558 26.815 24.2207 25.7315 24.2207C24.6479 24.2207 23.7695 25.0558 23.7695 26.086C23.7695 27.1162 24.6479 27.9513 25.7315 27.9513Z" fill="var(--fill-0, #EDDA6C)"/>
<path id="Vector_37" d="M44.4721 39.3109C45.5699 39.3109 46.4598 38.4648 46.4598 37.4211C46.4598 36.3774 45.5699 35.5312 44.4721 35.5312C43.3743 35.5312 42.4844 36.3774 42.4844 37.4211C42.4844 38.4648 43.3743 39.3109 44.4721 39.3109Z" fill="var(--fill-0, #EDDA6C)"/>
<path id="Vector_38" d="M51.8252 59.1446C52.9087 59.1446 53.7871 58.3095 53.7871 57.2793C53.7871 56.2492 52.9087 55.4141 51.8252 55.4141C50.7417 55.4141 49.8633 56.2492 49.8633 57.2793C49.8633 58.3095 50.7417 59.1446 51.8252 59.1446Z" fill="var(--fill-0, #EDDA6C)"/>
<path id="Vector_39" d="M69.379 35.656C70.4341 35.656 71.2893 34.8429 71.2893 33.8398C71.2893 32.8367 70.4341 32.0236 69.379 32.0236C68.324 32.0236 67.4688 32.8367 67.4688 33.8398C67.4688 34.8429 68.324 35.656 69.379 35.656Z" fill="var(--fill-0, #EDDA6C)"/>
<path id="Vector_40" d="M39.2564 33.0057C40.3257 33.0057 41.1925 32.1816 41.1925 31.165C41.1925 30.1483 40.3257 29.3242 39.2564 29.3242C38.1871 29.3242 37.3203 30.1483 37.3203 31.165C37.3203 32.1816 38.1871 33.0057 39.2564 33.0057Z" fill="var(--fill-0, #EDDA6C)"/>
<path id="Vector_41" d="M24.7705 49.1524C25.8541 49.1524 26.7324 48.3173 26.7324 47.2872C26.7324 46.257 25.8541 45.4219 24.7705 45.4219C23.687 45.4219 22.8086 46.257 22.8086 47.2872C22.8086 48.3173 23.687 49.1524 24.7705 49.1524Z" fill="var(--fill-0, #EDDA6C)"/>
<path id="Vector_42" d="M33.9947 26.7751C35.064 26.7751 35.9308 25.9509 35.9308 24.9343C35.9308 23.9177 35.064 23.0936 33.9947 23.0936C32.9254 23.0936 32.0586 23.9177 32.0586 24.9343C32.0586 25.9509 32.9254 26.7751 33.9947 26.7751Z" fill="var(--fill-0, #EDDA6C)"/>
<path id="Vector_43" d="M45.397 18.0858C46.4663 18.0858 47.3332 17.2617 47.3332 16.245C47.3332 15.2284 46.4663 14.4043 45.397 14.4043C44.3278 14.4043 43.4609 15.2284 43.4609 16.245C43.4609 17.2617 44.3278 18.0858 45.397 18.0858Z" fill="var(--fill-0, #EDDA6C)"/>
<path id="Vector_44" d="M30.0431 55.2867C31.0981 55.2867 31.9534 54.4736 31.9534 53.4705C31.9534 52.4674 31.0981 51.6543 30.0431 51.6543C28.9881 51.6543 28.1328 52.4674 28.1328 53.4705C28.1328 54.4736 28.9881 55.2867 30.0431 55.2867Z" fill="var(--fill-0, #EDDA6C)"/>
<path id="Vector_45" d="M30.9439 34.158C32.0132 34.158 32.88 33.3339 32.88 32.3173C32.88 31.3007 32.0132 30.4766 30.9439 30.4766C29.8746 30.4766 29.0078 31.3007 29.0078 32.3173C29.0078 33.3339 29.8746 34.158 30.9439 34.158Z" fill="var(--fill-0, #EDDA6C)"/>
<path id="Vector_46" d="M50.5674 24.3399C51.6509 24.3399 52.5293 23.5048 52.5293 22.4747C52.5293 21.4445 51.6509 20.6094 50.5674 20.6094C49.4839 20.6094 48.6055 21.4445 48.6055 22.4747C48.6055 23.5048 49.4839 24.3399 50.5674 24.3399Z" fill="var(--fill-0, #EDDA6C)"/>
<path id="Vector_47" d="M53.6876 34.1074C53.9715 35.2364 54.049 36.3899 53.8683 37.5435C52.9131 37.5435 51.8031 38.1325 51.3384 37.4453C50.5898 36.3899 50.7189 35.5064 51.3384 34.8928C51.8289 34.3774 53.0938 34.4265 53.7134 34.1074H53.6876Z" fill="var(--fill-0, #EDDA6C)"/>
<path id="Vector_48" d="M57.5571 86.557C54.8981 85.4036 47.7733 94.9989 48.367 90.0172C48.7284 86.876 56.0082 84.5202 55.6984 81.5998C55.1821 76.6918 51.7229 80.9373 52.3683 74.3113C52.549 72.5935 54.3302 72.5935 55.75 71.6855C58.4348 69.9922 60.9904 67.1946 64.5012 68.1762C67.7281 69.0842 65.508 73.1579 66.0759 74.8758C68.3734 76.6181 71.1356 78.1151 70.1288 81.9679C68.993 86.2871 65.6371 89.8945 62.4102 92.913C59.8029 91.097 60.1644 87.6613 57.5571 86.5325V86.557ZM58.4606 79.5139C61.1453 77.8942 63.7784 74.1395 63.417 70.5812C60.7065 70.9984 58.2799 72.8389 56.6536 75.2684C55.9566 76.3236 57.0408 79.0231 58.4606 79.5139ZM66.9278 79.8329C65.7145 76.4218 62.2037 80.2747 60.8872 81.4771C59.2867 82.9005 60.7065 87.5632 63.004 87.5386C65.224 87.5141 67.8313 82.3115 66.9536 79.8329H66.9278Z" fill="var(--fill-0, #226E77)"/>
<path id="Vector_49" d="M70.3665 14.4541C71.393 14.4541 72.2251 13.663 72.2251 12.687C72.2251 11.7111 71.393 10.9199 70.3665 10.9199C69.34 10.9199 68.5078 11.7111 68.5078 12.687C68.5078 13.663 69.34 14.4541 70.3665 14.4541Z" fill="var(--fill-0, #EDDA6C)"/>
<path id="Vector_50" d="M6.94141 26.8441C9.39381 26.5742 10.7104 26.8441 10.9943 28.194C11.1492 28.9548 10.9427 29.7648 10.0392 30.1084C9.00659 30.5256 7.74166 30.5992 7.50933 29.5684L6.94141 26.8441Z" fill="var(--fill-0, #EDDA6C)"/>
<path id="Vector_51" d="M65.794 120.047C66.8775 120.047 67.7559 119.212 67.7559 118.182C67.7559 117.152 66.8775 116.316 65.794 116.316C64.7104 116.316 63.832 117.152 63.832 118.182C63.832 119.212 64.7104 120.047 65.794 120.047Z" fill="var(--fill-0, #EDDA6C)"/>
<path id="Vector_52" d="M49.8119 50.6262C47.4885 51.338 45.0103 50.8225 44.2875 49.3745C43.2807 47.3374 44.5198 45.1531 46.7657 44.2204C48.9084 43.3369 51.4382 43.8523 52.445 45.4967C53.555 47.3129 52.4966 49.7917 49.8119 50.6262Z" fill="var(--fill-0, #70BC96)"/>
<path id="Vector_53" d="M66.933 79.8296C67.8107 82.3084 65.2034 87.4871 62.9833 87.5361C60.6858 87.5607 59.266 82.8975 60.8665 81.474C62.2089 80.2959 65.7197 76.4181 66.9072 79.8296H66.933Z" fill="var(--fill-0, #70BC96)"/>
<path id="Vector_54" d="M58.4654 79.5099C57.0455 79.019 55.9613 76.3193 56.6583 75.2639C58.2588 72.8587 60.7112 70.9934 63.4218 70.5762C63.7832 74.1349 61.1759 77.8901 58.4654 79.5099Z" fill="var(--fill-0, #70BC96)"/>
</g>
</svg>
