<svg preserveAspectRatio="none" width="100%" height="100%" overflow="visible" style="display: block;" viewBox="0 0 137.845 114.91" fill="none" xmlns="http://www.w3.org/2000/svg">
<g id="Group">
<path id="Vector" d="M118.273 76.4289L110.429 81.1395C106.323 78.0727 103.372 73.5829 99.5607 69.6328L82.2011 51.6C81.3897 50.7659 80.1357 50.7168 79.6931 51.3792C79.2996 51.9926 79.6193 53.023 80.234 53.6609C88.5942 62.1498 96.6347 70.3689 104.306 79.4466C105.56 80.9187 107.601 81.8019 107.109 83.7892L72.2673 105.551L60.7106 94.2164C65.2349 82.8324 66.8577 71.5711 68.8003 59.6964C70.2018 51.1829 71.628 43.1602 68.4314 34.107C76.2015 33.6163 82.6683 36.4868 87.6106 41.8353L116.797 73.313C117.756 74.3435 117.707 75.6683 118.248 76.4043L118.273 76.4289Z" fill="var(--fill-0, #EDDA6C)"/>
<path id="Vector_2" d="M118.273 76.429C117.732 75.6929 117.756 74.3435 116.822 73.3376L87.6352 41.8599C82.6683 36.5114 76.2261 33.6164 68.456 34.1316C71.6526 43.1603 70.2264 51.183 68.8249 59.721C66.8824 71.5712 65.2595 82.857 60.7352 94.241L72.2919 105.576C71.4559 106.091 70.4969 107.563 69.0462 107.318C62.9973 99.7367 55.5961 93.2351 48.3671 86.1692C47.4327 85.2368 46.9409 82.8815 48.1212 82.6853C52.2521 84.7216 54.3175 88.6962 58.596 91.6403C63.2432 80.5753 64.3743 69.4121 66.3168 58.0281C67.7184 49.8336 69.1199 41.4919 64.8415 33.9108C61.227 36.7813 62.1367 40.2897 62.0876 43.7736C62.063 46.4479 58.7189 47.7482 58.4976 50.2998C58.2271 53.7346 57.8829 56.8996 55.424 59.1077C53.5061 60.8251 50.4817 62.1009 47.4573 61.6347C40.179 60.5061 43.5231 67.7929 32.704 64.0391C28.4994 75.4231 34.0564 85.4331 41.8019 93.3332C48.3179 99.982 53.8503 107.318 61.3253 112.47C62.358 120.836 48.1949 105.159 46.4245 103.245L35.9006 91.8857C28.6961 84.1083 26.4093 74.5889 28.7207 64.309C24.7373 63.6465 23.8275 59.7701 21.1228 58.249C16.9919 55.9182 10.2054 54.5933 9.54148 48.7787C9.07429 44.5587 7.45143 42.596 4.94339 39.5537C-2.38405 30.5986 -1.10544 17.5218 5.75481 9.22912C13.0577 0.396724 24.7619 -2.4002 35.4334 2.1632C39.5397 3.90515 43.1788 6.94742 47.236 8.39495C54.2438 10.8484 56.6289 16.1969 58.4238 22.8703C59.1615 25.5936 63.2432 27.5073 63.4154 31.4083C76.2261 28.6359 85.914 34.9903 94.1758 43.8963L109.224 60.1626C112.322 63.5239 115.101 67.3022 119.33 69.4121C125.33 72.3808 132.141 74.4172 137.845 77.9746C136.542 83.8875 126.731 76.2082 123.51 75.3495C123.068 76.797 122.01 78.4163 120.732 77.9746C120.019 77.7293 118.838 77.2141 118.273 76.429ZM36.6628 11.29C37.8431 11.8298 38.8512 10.8484 39.0971 11.7316C39.6381 13.6453 38.3594 14.8475 38.6791 15.8289C39.2938 17.7671 42.1461 16.9084 43.5477 18.0125C40.1298 15.2891 53.629 32.7331 53.629 32.0707C53.629 32.8803 53.1864 33.6654 52.3013 34.0089C51.8587 34.1807 50.7276 33.5918 50.1866 33.8862C43.0805 37.8608 39.343 34.9412 39.9085 38.1062C40.9167 39.0875 44.064 39.1366 43.9903 40.9031C43.8919 43.5037 40.8183 44.2398 39.5397 45.9817C38.8266 46.9631 38.925 48.3616 38.3595 48.9504C37.6464 49.711 35.6547 48.8277 35.04 49.4165C31.4746 52.7532 27.4175 51.7228 23.4587 50.2998C22.8686 50.079 21.0736 51.3302 20.4589 50.9868C17.6803 49.392 21.3195 47.2084 20.0654 45.7118C18.4426 43.7982 15.8362 45.3684 14.9264 43.7246C13.9183 41.8845 17.1148 40.805 16.3771 38.9158C15.9345 37.7872 15.4919 35.7509 14.1396 36.5605C13.156 37.1493 12.5659 38.4497 11.6069 38.1552C10.648 37.8608 10.0332 37.1003 10.0824 36.1679C10.1316 35.5546 11.2381 34.8922 11.3365 34.1807C11.9758 29.4946 1.8698 33.003 5.33681 29.4946L7.42685 27.3846C0.689537 34.1561 15.7132 6.53034 13.9183 7.07009C11.5332 7.78159 7.0826 11.0937 7.47602 13.3509C8.16451 17.1783 6.14823 17.0801 4.99256 19.1656C1.23049 25.9371 4.45161 34.7695 9.54148 39.799C11.2381 41.4674 11.6561 43.2584 12.1233 45.3929C14.6805 57.2676 26.6306 53.7101 27.3683 54.397C29.0157 55.9672 25.7209 57.8809 26.7782 59.0831C28.5731 61.1686 33.3925 61.4139 35.8268 61.2176C40.0315 56.6787 56.4567 62.8124 55.6699 51.0849C55.3011 45.6137 62.358 44.4115 58.3747 39.7745C57.1452 39.8481 55.6453 41.1239 54.9568 39.8727C54.5388 39.1366 54.4159 37.959 55.2273 37.1248C55.9404 36.3888 57.1944 36.7813 58.3501 38.2043C62.899 31.2611 57.5141 37.2229 58.1288 27.6054C56.383 26.6977 54.3667 27.1883 53.0143 25.5691C54.3913 22.1342 54.2192 18.9693 52.3258 16.246C50.9735 17.8898 52.498 19.3373 51.5882 19.9752C50.6784 20.6131 49.4981 20.1715 48.8834 19.4355C48.2687 18.6994 48.1949 17.4236 49.0801 16.982C49.5473 16.7367 51.2439 17.1538 51.8095 16.3196C52.6209 15.1174 50.285 13.6944 49.1293 12.9093C48.1949 12.2714 46.4491 13.6944 44.7525 13.9397C44.064 11.0447 42.1707 9.62168 39.9085 8.29682C37.1054 6.65301 35.8268 6.16232 32.3352 8.02694C31.0566 8.7139 31.3271 5.0092 30.5402 4.49398C26.6306 1.86879 20.3605 3.16912 16.6968 5.32815C19.2786 8.51763 22.3522 5.94151 24.6881 5.7207L36.7366 11.2655L36.6628 11.29ZM47.654 31.1384C48.6867 28.366 42.3428 23.3364 39.9823 21.3491C34.2777 16.5895 32.6057 8.37042 20.9261 9.94062C17.0902 10.4558 13.697 13.9888 11.8282 17.5708C7.72191 25.3728 11.9266 30.1815 17.3853 35.113C18.418 36.0453 24.1472 51.7228 30.4173 48.6069C32.4336 47.601 32.4336 45.9572 32.5319 43.8227C33.0729 32.0216 46.5475 34.1561 47.6786 31.1384H47.654ZM38.2119 39.3574C35.753 39.7254 35.6547 41.5901 35.3104 42.8904C35.0154 43.9699 35.3104 46.6442 37.4988 45.6628C39.1709 44.9022 38.6299 40.9031 38.2119 39.3574Z" fill="var(--fill-0, #226E77)"/>
<path id="Vector_3" d="M69.0461 107.318C66.5873 109.084 64.3989 111.685 61.3253 112.445C53.8503 107.318 48.3179 99.9819 41.8018 93.3086C34.081 85.4085 28.4994 75.3984 32.704 64.0145C43.5231 67.7682 40.2036 60.4815 47.4572 61.6101C50.4817 62.0762 53.5061 60.8004 55.424 59.083C57.8829 56.8749 58.2271 53.7345 58.4976 50.2752C58.6943 47.7481 62.0629 46.4233 62.0875 43.749C62.1121 40.2651 61.2023 36.7321 64.8415 33.8862C69.1199 41.4673 67.6938 49.809 66.3168 58.0035C64.3743 69.412 63.2432 80.5507 58.5959 91.6157C54.3421 88.6716 52.2521 84.697 48.1211 82.6606C46.9409 82.8569 47.4327 85.2122 48.367 86.1445C55.5715 93.2104 62.9727 99.7121 69.0461 107.293V107.318Z" fill="var(--fill-0, #F9FBFC)"/>
<path id="Vector_4" d="M110.429 81.1395C110.576 81.9982 110.798 83.1268 110.036 83.7647C109.273 84.4026 107.773 83.3721 107.109 83.7647C107.601 81.7774 105.56 80.8942 104.306 79.4221C96.6347 70.3198 88.5942 62.1253 80.234 53.6364C79.6193 52.9985 79.2751 51.968 79.6931 51.3547C80.1357 50.6923 81.3897 50.7413 82.2011 51.5755L99.5607 69.6083C103.347 73.5584 106.323 78.0236 110.429 81.115V81.1395Z" fill="var(--fill-0, #226E77)"/>
<path id="Vector_5" d="M36.6628 11.2899L24.6143 5.74514C22.2784 5.96595 19.2048 8.54207 16.623 5.35259C20.2867 3.19356 26.5568 1.89323 30.4665 4.51842C31.2533 5.03364 30.9582 8.76288 32.2614 8.05138C35.753 6.18676 37.0316 6.67745 39.8348 8.32126C42.1215 9.67065 43.9902 11.0937 44.6787 13.9642C46.3753 13.7188 48.1211 12.2958 49.0555 12.9337C50.2112 13.7188 52.5471 15.1418 51.7357 16.344C51.1701 17.1782 49.4981 16.7856 49.0063 17.0065C48.1457 17.4481 48.2441 18.7484 48.8096 19.4599C49.3752 20.1714 50.6046 20.613 51.5144 19.9997C52.4242 19.3863 50.8997 17.9142 52.2521 16.2704C54.1454 18.9937 54.3421 22.1587 52.9405 25.5935C54.2929 27.2128 56.3092 26.7221 58.055 27.6299C57.4403 37.2474 62.8252 31.2855 58.2763 38.2288C57.1452 36.8058 55.8666 36.4377 55.1535 37.1492C54.3421 37.9834 54.465 39.1856 54.883 39.8971C55.5961 41.1484 57.0714 39.848 58.3009 39.799C62.2842 44.436 55.2273 45.6136 55.5961 51.1093C56.383 62.8368 39.9577 56.7032 35.753 61.2421C33.3187 61.4383 28.5239 61.193 26.7044 59.1076C25.6471 57.9054 28.942 55.9672 27.2945 54.4215C26.5568 53.7345 14.6067 57.292 12.0495 45.4173C11.5823 43.2828 11.1643 41.4918 9.46769 39.8235C4.37782 34.7694 1.18129 25.9615 4.91877 19.19C6.07444 17.1046 8.09072 17.2027 7.40223 13.3754C6.98423 11.1182 11.4348 7.80604 13.8445 7.09454C15.6395 6.55478 0.615748 34.1806 7.35306 27.3845L5.26302 29.4945C1.77142 33.0029 11.902 29.4945 11.2627 34.1806C11.1643 34.8921 10.0578 35.5545 10.0086 36.1679C9.93487 37.1002 10.5496 37.8607 11.5331 38.1552C12.5167 38.4496 13.0822 37.1492 14.0658 36.5604C15.4182 35.7508 15.8362 37.7871 16.3033 38.9157C17.041 40.8049 13.8445 41.8844 14.8526 43.7245C15.7378 45.3437 18.3688 43.7981 19.9917 45.7118C21.2703 47.2084 17.6066 49.3919 20.3851 50.9867C20.9998 51.3301 22.7702 50.0789 23.3849 50.2997C27.3437 51.7472 31.4008 52.7531 34.9662 49.4165C35.5809 48.8522 37.5726 49.7109 38.2857 48.9503C38.8512 48.3615 38.7528 46.963 39.4659 45.9816C40.7199 44.2642 43.8181 43.5037 43.9165 40.903C43.9902 39.1365 40.8429 39.0875 39.8348 38.1061C39.2692 34.9411 43.0067 37.8853 50.1128 33.8862C50.6538 33.5917 51.8095 34.1806 52.2275 34.0088C53.1127 33.6408 53.5553 32.8802 53.5553 32.0706C53.5553 32.733 40.0806 15.289 43.4739 18.0124C42.0723 16.9083 39.2446 17.767 38.6053 15.8288C38.2857 14.8474 39.5643 13.6452 39.0233 11.7315C38.7774 10.8238 37.7693 11.8297 36.589 11.2899H36.6628ZM33.7859 53.0476C32.7778 53.0966 31.9909 53.9553 32.0401 54.9858C32.0893 56.0162 32.9499 56.7768 33.9826 56.7277C35.0154 56.6787 35.7776 55.82 35.7284 54.7895C35.6793 53.7591 34.8187 52.9985 33.7859 53.0476ZM41.8018 52.1152C40.7199 52.1643 39.8839 53.0966 39.9577 54.1516C40.0315 55.2066 40.9412 56.0653 41.9986 55.9917C43.0559 55.9181 43.9165 55.0103 43.8427 53.9553C43.7689 52.9004 42.8592 52.0416 41.8018 52.1152ZM45.0476 44.9512C43.9902 45.0003 43.1788 45.908 43.228 46.963C43.2772 48.018 44.187 48.8276 45.2443 48.7786C46.3016 48.7295 47.113 47.8217 47.0638 46.7667C47.0147 45.7118 46.1049 44.9021 45.0476 44.9512ZM49.7194 51.3792C48.6867 51.4283 47.9244 52.3115 47.9736 53.3174C48.0228 54.3233 48.908 55.133 49.9161 55.0594C50.9243 54.9858 51.7111 54.1271 51.6619 53.1212C51.6127 52.1152 50.7275 51.3056 49.7194 51.3792ZM48.3916 37.689C47.3835 37.7381 46.5966 38.5968 46.6458 39.6027C46.695 40.6086 47.5556 41.3937 48.5637 41.3446C49.5719 41.2956 50.3587 40.4369 50.3095 39.4309C50.2604 38.425 49.3998 37.6399 48.3916 37.689ZM52.9651 44.1416C51.957 44.1906 51.1947 45.0493 51.2439 46.0552C51.2931 47.0612 52.1537 47.8217 53.1618 47.7727C54.17 47.7236 54.9322 46.8649 54.883 45.859C54.8339 44.8531 53.9733 44.0925 52.9651 44.1416Z" fill="var(--fill-0, #70BC96)"/>
<path id="Vector_6" d="M47.654 31.1383C46.5475 34.156 33.0483 32.0215 32.5073 43.8226C32.409 45.9571 32.3844 47.6009 30.3927 48.6068C24.1471 51.7227 18.3934 36.0452 17.3607 35.1129C11.9266 30.1815 7.72189 25.3727 11.8036 17.5707C13.6969 13.9887 17.0656 10.4558 20.9014 9.94053C32.5811 8.37033 34.2531 16.5894 39.9577 21.3491C42.3182 23.3363 48.6621 28.3659 47.6294 31.1383H47.654ZM24.7127 35.1129C23.5078 34.3278 22.5981 34.6713 22.1801 35.1619C21.4916 35.947 22.0817 37.0266 22.6226 37.8607C23.262 38.8421 24.6389 39.48 25.7454 38.9402C26.2618 38.6704 26.729 38.2533 26.4831 37.2474C26.3355 36.5849 25.8192 35.8244 24.7373 35.1129H24.7127ZM33.2696 36.3396C32.1877 33.5181 30.1468 31.1383 27.6142 29.0774C25.0078 29.0774 29.4583 36.9284 30.5894 37.5173C31.2533 37.8607 33.6384 37.321 33.2696 36.3396ZM37.13 24.0724C35.876 22.9683 34.5236 23.1891 34.1793 23.8761C33.7122 24.7593 33.9089 25.8389 34.4498 26.6485C35.1875 27.728 36.0481 28.1696 36.9333 28.047C37.9168 27.8997 38.089 27.1883 38.1873 26.624C38.3103 25.8879 38.089 24.9311 37.13 24.0724Z" fill="var(--fill-0, #F9FBFC)"/>
<path id="Vector_7" d="M38.2119 39.3573C38.6053 40.903 39.1709 44.9021 37.4988 45.6627C35.335 46.6441 35.0154 43.9698 35.3104 42.8903C35.6793 41.59 35.7776 39.7499 38.2119 39.3573Z" fill="var(--fill-0, #70BC96)"/>
<path id="Vector_8" d="M42.0007 56.0219C43.0721 55.9674 43.8964 55.0565 43.8417 53.9875C43.7871 52.9184 42.8742 52.096 41.8028 52.1505C40.7314 52.205 39.9071 53.1159 39.9618 54.1849C40.0164 55.254 40.9293 56.0764 42.0007 56.0219Z" fill="var(--fill-0, #226E77)"/>
<path id="Vector_9" d="M45.2403 48.7514C46.2981 48.6975 47.1119 47.7982 47.058 46.7427C47.004 45.6872 46.1027 44.8751 45.0449 44.929C43.987 44.9828 43.1732 45.8821 43.2271 46.9377C43.2811 47.9932 44.1824 48.8052 45.2403 48.7514Z" fill="var(--fill-0, #226E77)"/>
<path id="Vector_10" d="M53.1221 47.7626C54.1257 47.7115 54.8978 46.8583 54.8466 45.8569C54.7954 44.8555 53.9403 44.0852 52.9367 44.1362C51.9331 44.1873 51.161 45.0405 51.2122 46.0419C51.2634 47.0433 52.1185 47.8137 53.1221 47.7626Z" fill="var(--fill-0, #226E77)"/>
<path id="Vector_11" d="M48.5718 41.3779C49.589 41.3261 50.3715 40.4613 50.3196 39.4464C50.2677 38.4315 49.4011 37.6507 48.3839 37.7025C47.3667 37.7542 46.5842 38.619 46.6361 39.6339C46.688 40.6488 47.5546 41.4296 48.5718 41.3779Z" fill="var(--fill-0, #226E77)"/>
<path id="Vector_12" d="M49.9096 55.0809C50.9267 55.0291 51.7093 54.1644 51.6574 53.1495C51.6055 52.1346 50.7389 51.3538 49.7217 51.4055C48.7045 51.4573 47.922 52.322 47.9739 53.337C48.0257 54.3519 48.8924 55.1327 49.9096 55.0809Z" fill="var(--fill-0, #226E77)"/>
<path id="Vector_13" d="M33.9578 56.7241C34.975 56.6723 35.7575 55.8076 35.7056 54.7927C35.6537 53.7777 34.7871 52.9969 33.7699 53.0487C32.7527 53.1005 31.9702 53.9652 32.0221 54.9801C32.074 55.9951 32.9406 56.7759 33.9578 56.7241Z" fill="var(--fill-0, #226E77)"/>
<path id="Vector_14" d="M33.2696 36.3396C33.6384 37.321 31.2779 37.8607 30.5894 37.5173C29.4583 36.953 25.0078 29.0774 27.6142 29.0774C30.1222 31.1383 32.1631 33.5181 33.2696 36.3396Z" fill="var(--fill-0, #226E77)"/>
<path id="Vector_15" d="M24.7127 35.1129C25.7946 35.8244 26.311 36.5849 26.4585 37.2474C26.7044 38.2533 26.2372 38.6949 25.7208 38.9402C24.6143 39.48 23.262 38.8666 22.5981 37.8607C22.0571 37.0266 21.467 35.9225 22.1555 35.1619C22.5735 34.6958 23.5078 34.3523 24.6881 35.1129H24.7127Z" fill="var(--fill-0, #226E77)"/>
<path id="Vector_16" d="M37.13 24.0724C38.0889 24.9311 38.3102 25.8879 38.1873 26.624C38.0889 27.1637 37.9168 27.8997 36.9333 28.047C36.0727 28.1696 35.2121 27.728 34.4498 26.6485C33.8843 25.8389 33.7122 24.7593 34.1793 23.8761C34.5236 23.1891 35.876 22.9683 37.13 24.0724Z" fill="var(--fill-0, #226E77)"/>
</g>
</svg>
