<svg preserveAspectRatio="none" width="100%" height="100%" overflow="visible" style="display: block;" viewBox="0 0 152.95 131.018" fill="none" xmlns="http://www.w3.org/2000/svg">
<g id="Group">
<path id="Vector" d="M67.5029 53.3088C66.3596 54.6265 65.1418 55.4967 64.1477 55.5962C62.905 55.7205 61.6871 55.0741 60.6184 54.1542L47.595 43.1153C43.9664 47.8391 40.3874 51.4442 36.6594 55.3227C34.6462 57.436 33.9503 60.4195 30.0234 61.4388C22.8158 46.0739 10.8114 39.8086 0 27.7503C3.85234 25.7116 12.3523 15.3688 15.0614 12.1616L20.0819 6.24431C21.6974 4.35477 24.3816 1.66963 26.2208 0.0287083C30.2471 -0.667439 40.5614 11.5151 44.2398 12.8826C46.7748 13.8273 48.7383 9.17807 50.1053 7.61174C52.0439 5.37413 54.1564 3.36027 55.921 0.476232C60.3947 3.65862 64.0979 7.08963 68.1491 10.7195L77.6184 19.1976C78.9108 20.3413 87.2617 27.2033 87.3363 28.1232C87.4854 29.9382 86.864 31.057 85.671 32.4493L67.5278 53.284L67.5029 53.3088ZM40.3874 15.0705C39.4181 13.2555 37.7281 12.0124 36.1374 10.4212C34.8202 13.1561 37.2061 13.1809 38.5731 14.1506C38.8713 14.8218 39.0205 15.5926 38.5234 16.239C38.1257 16.786 36.9079 16.8108 36.4108 17.5318L33.3041 22.1811C31.0921 20.764 28.3085 17.5567 25.4503 20.7391L17.7953 29.2918C17.0497 30.1371 16.0556 29.789 15.7076 29.3912C15.2354 28.8442 15.5336 28.0735 16.0556 27.4519L26.0716 15.6672C26.5936 13.2306 24.4561 11.2417 25.7485 8.70569C28.731 9.20294 31.0921 10.9682 33.7018 8.95431C31.5643 6.5178 29.6257 4.75257 26.6433 3.63376L5.04532 28.5459C14.4898 37.7698 24.9284 45.7258 31.3406 56.7896L53.212 32.2255C50.8012 24.8911 45.9795 19.3717 40.4123 15.0705H40.3874ZM65.7383 46.0242C66.4093 44.5075 68.4722 45.7755 69.8889 45.5766C72.2251 42.9909 74.4123 40.629 76.326 37.919C74.8099 37.3223 73.4927 36.9245 73.3684 36.1538C73.1199 34.6869 74.1886 33.8416 75.0585 33.8416C76.3757 33.8416 76.9971 34.7366 77.6681 36.4024C79.8553 34.0902 82.3158 32.0018 83.7822 28.8194C77.4196 23.4242 72.0263 17.9048 65.6389 13.1063C63.5015 11.4903 61.538 11.366 60.3947 8.15871C59.8977 6.74156 55.7471 6.56752 54.6535 7.61174C52.2675 9.87422 50.6769 12.2361 48.7383 14.4738C50.0307 15.3937 50.7763 16.065 50.6769 17.0595C50.6272 17.6313 49.3348 18.775 49.6082 19.5208C51.0248 23.4491 55.3494 26.7807 55.7222 31.1813C55.9459 33.7919 54.0819 36.2781 56.0453 39.0627C53.1871 39.8334 51.7208 38.0433 49.5585 40.3555C54.6287 44.3584 58.5058 48.9579 63.6009 51.9414C64.2968 52.3392 66.3099 50.2259 66.1111 49.4303C65.962 48.8087 65.2164 47.4662 65.7383 45.9744V46.0242ZM31.788 17.3578C32.7822 17.5567 33.652 16.1395 33.7763 15.3439C33.9503 14.25 33.1301 13.0815 32.3596 12.9074C31.3406 12.7085 29.6009 12.3356 29.2032 12.982C29.3523 14.8964 29.924 16.96 31.788 17.3329V17.3578Z" fill="var(--fill-0, #226E77)"/>
<path id="Vector_2" d="M82.9123 99.5529L60.0468 129.164C59.3012 130.134 59.0278 131.153 57.9094 131.004C56.9898 130.88 56.1944 130.507 55.5482 129.462C48.7134 118.075 40.1886 108.553 28.9795 100.672L52.864 69.3699L60.4941 74.964L76.7485 91.8207C78.9605 94.108 80.4766 96.3208 82.8626 99.5778L82.9123 99.5529ZM51.9941 116.733C50.2544 116.484 56.9152 125.982 57.6111 125.683C59.8231 126.007 60.6681 122.451 61.7865 121.258C67.9503 114.694 72.6725 107.036 79.0102 99.5529L74.7105 97.5639C74.9342 95.5003 74.1637 91.9947 72.1257 92.3179C71.2558 92.4671 70.4854 94.4561 69.6155 94.0086C68.6462 93.5113 68.1243 92.8401 68.0248 91.945C67.9254 91.1494 69.5658 90.2792 69.5409 89.3593C69.5409 87.967 67.0804 85.4062 65.7383 85.3316C64.5702 86.1521 65.1915 87.967 64.8436 88.6135C64.4459 89.3593 63.1038 89.3842 62.2836 88.8869C61.3392 88.3151 61.1652 86.9974 61.8363 86.1769C62.5073 85.3565 63.924 86.3261 65.9868 84.8841C61.9108 81.2542 58.5804 77.0773 53.7091 74.0689C51.9196 73.5468 51.9196 77.4751 51.7953 78.8922C46.8743 80.5332 43.2208 85.6548 43.519 90.8013C39.6667 90.8511 33.3289 97.5888 35.7895 101.716C37.0073 103.755 39.1199 103.63 41.5307 104.078C42.7485 104.749 41.8289 109.175 44.2646 109.274C45.5322 109.324 48.4401 107.26 48.8377 109.846C49.0614 111.213 46.9737 112.755 48.0672 113.923C49.2602 115.191 50.155 117.081 51.9693 116.733H51.9941Z" fill="var(--fill-0, #226E77)"/>
<path id="Vector_3" d="M61.7865 121.283C60.0468 121.73 58.7295 121.009 58.1827 119.542C57.114 116.584 54.4547 116.26 51.9693 116.758C50.5278 109.697 53.5848 103.978 60.2208 102.288C61.5629 101.94 62.383 101.02 63.3275 102.338C64.098 103.431 62.8553 104.476 62.557 105.694C62.2339 106.987 64.8684 109.995 66.0614 109.423C67.0804 108.951 66.7076 106.713 67.3289 106.49C68.3231 106.141 69.2675 106.34 69.6652 106.887C70.0629 107.434 70.5848 108.727 69.6901 109.175C68.5716 109.771 67.3787 109.498 66.5336 110.219C65.9371 110.716 66.3596 112.606 65.6886 113.252C63.1535 115.713 61.4883 117.951 61.7617 121.258L61.7865 121.283ZM59.2515 115.937C61.1155 114.843 62.4825 113.476 63.0541 111.412C61.712 109.423 60.4693 107.832 58.4313 106.44C56.443 107.385 55.2251 109.001 54.8772 110.99C56.3684 112.854 57.462 114.445 59.2515 115.937Z" fill="var(--fill-0, #226E77)"/>
<path id="Vector_4" d="M147.656 45.9247C145.295 48.4358 131.278 65.3174 129.712 65.2925C128.842 65.2925 127.102 64.8699 126.431 63.8008C117.558 49.6292 111.171 43.9357 99.3406 32.499C98.7442 31.9272 97.3772 32.0515 96.9547 31.7531C96.3582 31.3553 95.3392 29.6896 96.3582 28.894C96.1345 29.068 107.617 15.9158 108.512 14.8467C111.146 11.6892 114.377 9.4267 116.49 5.77192C117.558 3.95697 120.342 4.20559 121.808 5.57302C133.216 16.2141 144.525 27.0293 152.95 40.2561L147.632 45.9496L147.656 45.9247ZM129.215 61.6875L148.874 40.0075C140.623 27.6011 130.159 17.4573 119.249 7.73605L100.186 29.4907C112.24 38.3914 120.541 49.4552 129.215 61.6875Z" fill="var(--fill-0, #226E77)"/>
<path id="Vector_5" d="M108.015 121.979C101.801 124.415 96.6564 127.672 90.4927 130.507C89.1009 128.866 89.6725 126.603 90.8158 124.913L101.677 108.827C104.56 107.782 110.475 117.528 110.575 118.075C111.022 120.462 110.351 121.059 107.99 121.979H108.015ZM107.095 118.697C105.455 115.912 104.659 114.918 102.845 113.103C100.335 116.509 97.8743 119.517 96.0351 123.868L107.095 118.697Z" fill="var(--fill-0, #226E77)"/>
<path id="Vector_6" d="M38.5731 14.1506C39.1199 14.5235 39.8903 14.6727 40.4123 15.0705C45.9795 19.3717 50.8012 24.8911 53.212 32.2255L31.3406 56.7896C24.9284 45.7258 14.4898 37.7698 5.04532 28.5459L26.6433 3.65862C29.6257 4.77743 31.5395 6.54266 33.7018 8.97917C31.0921 10.993 28.731 9.2278 25.7485 8.73055C24.4561 11.2665 26.5936 13.2555 26.0716 15.692L16.0556 27.4768C15.5585 28.0735 15.2354 28.8691 15.7076 29.4161C16.0804 29.8387 17.0497 30.1619 17.7953 29.3166L25.4503 20.764C28.3085 17.5567 31.0921 20.764 33.3041 22.206L36.4108 17.5567C36.883 16.8357 38.1257 16.8108 38.5234 16.2639C38.9956 15.6174 38.8713 14.8467 38.5731 14.1754V14.1506ZM38.3246 26.5818L26.7924 40.3058L29.1038 42.2451L40.636 28.521L38.3246 26.5818Z" fill="var(--fill-0, #F9FBFC)"/>
<path id="Vector_7" d="M65.7383 46.0242C65.2164 47.5159 65.962 48.8585 66.1111 49.48C66.3099 50.2508 64.2968 52.3889 63.6009 51.9911C58.5058 49.0076 54.6038 44.433 49.5585 40.4052C51.7208 38.093 53.1871 39.8831 56.0453 39.1124C54.057 36.3278 55.9211 33.8416 55.7222 31.231C55.3743 26.8304 51.0249 23.474 49.6082 19.5706C49.3348 18.8247 50.6272 17.681 50.6769 17.1092C50.7763 16.0898 50.0307 15.4434 48.7383 14.5235C50.6769 12.2859 52.2675 9.92394 54.6535 7.66147C55.7471 6.61725 59.8977 6.79128 60.3947 8.20844C61.538 11.3908 63.5263 11.54 65.6389 13.1561C72.0263 17.9794 77.4196 23.474 83.7822 28.8691C82.3158 32.0515 79.8553 34.1399 77.6681 36.4521C76.9971 34.7863 76.3757 33.8913 75.0585 33.8913C74.1886 33.8913 73.1199 34.7118 73.3684 36.2035C73.4927 36.9742 74.8099 37.372 76.326 37.9687C74.4123 40.6787 72.2251 43.0158 69.8889 45.6264C68.4722 45.8253 66.4094 44.5573 65.7383 46.0739V46.0242ZM58.1579 13.5539C58.1579 12.4848 57.288 11.6146 56.2193 11.6146C55.1506 11.6146 54.2807 12.4848 54.2807 13.5539C54.2807 14.6229 55.1506 15.4931 56.2193 15.4931C57.288 15.4931 58.1579 14.6229 58.1579 13.5539ZM64.6447 18.2031C64.6447 17.1838 63.7997 16.3384 62.7807 16.3384C61.7617 16.3384 60.9167 17.1838 60.9167 18.2031C60.9167 19.2225 61.7617 20.0678 62.7807 20.0678C63.7997 20.0678 64.6447 19.2225 64.6447 18.2031ZM57.3129 21.5347C57.3129 20.4656 56.443 19.6203 55.3991 19.6203C54.3553 19.6203 53.4854 20.4905 53.4854 21.5347C53.4854 22.5789 54.3553 23.4491 55.3991 23.4491C56.443 23.4491 57.3129 22.5789 57.3129 21.5347ZM61.1652 29.8387L67.0556 24.0707C68.2485 24.5679 69.4664 24.8414 70.3114 24.5182C71.0073 24.2696 71.6287 22.206 70.7339 21.7087C67.0556 19.67 64.1725 22.1314 62.0599 25.0651C61.1652 26.3331 58.6798 29.4907 61.1652 29.8387ZM68.9196 40.3555C70.9079 40.1815 68.3231 37.2229 68.4971 36.3278C68.9444 34.1151 72.1009 30.3857 74.4123 29.4409C75.6798 28.9188 77.0219 29.6647 77.5439 28.5956C77.9167 27.8249 78.0409 26.9547 77.171 26.3331C75.0088 24.7917 69.7398 28.9685 66.9064 30.1122C67.155 37.9936 55.9708 41.176 59.0526 43.7865C59.674 44.3086 61.7866 44.2589 62.2091 43.3141C63.6506 39.9577 65.962 40.6539 68.9196 40.3804V40.3555ZM63.0541 34.3637C63.0541 33.3195 62.2091 32.499 61.1901 32.499C60.171 32.499 59.326 33.3443 59.326 34.3637C59.326 35.383 60.171 36.2284 61.1901 36.2284C62.2091 36.2284 63.0541 35.383 63.0541 34.3637Z" fill="var(--fill-0, #F9FBFC)"/>
<path id="Vector_8" d="M31.788 17.3578C29.924 16.96 29.3523 14.9213 29.2032 13.0069C29.576 12.3605 31.3406 12.7334 32.3596 12.9323C33.1301 13.1063 33.9503 14.25 33.7763 15.3688C33.652 16.1395 32.7822 17.5816 31.788 17.3827V17.3578Z" fill="var(--fill-0, #E4D66D)"/>
<path id="Vector_9" d="M40.3874 15.0705C39.8655 14.6727 39.095 14.5235 38.5482 14.1506C37.1813 13.2058 34.7953 13.1809 36.1126 10.4212C37.7281 11.9875 39.4181 13.2555 40.3626 15.0705H40.3874Z" fill="var(--fill-0, #70BC96)"/>
<path id="Vector_10" d="M61.7865 121.283C60.6681 122.476 59.8231 126.031 57.6111 125.708C56.9152 126.007 50.2544 116.484 51.9942 116.758C54.4795 116.26 57.1389 116.584 58.2076 119.542C58.7295 121.009 60.0716 121.755 61.8114 121.283H61.7865Z" fill="var(--fill-0, #F9FBFC)"/>
<path id="Vector_11" d="M61.7866 121.283C61.5132 117.951 63.1784 115.713 65.7135 113.277C66.3845 112.631 65.9868 110.741 66.5585 110.244C67.4035 109.523 68.5965 109.796 69.7149 109.2C70.6096 108.727 70.0877 107.459 69.6901 106.912C69.2924 106.365 68.348 106.166 67.3538 106.514C66.7325 106.738 67.0804 108.976 66.0863 109.448C64.8933 110.02 62.2588 107.012 62.5819 105.719C62.8801 104.501 64.1228 103.456 63.3523 102.362C62.4079 101.045 61.5877 101.989 60.2456 102.313C53.6096 104.003 50.5526 109.722 51.9942 116.783C50.1798 117.131 49.2851 115.241 48.0921 113.973C46.9985 112.805 49.0614 111.263 48.8626 109.896C48.4649 107.335 45.557 109.374 44.2895 109.324C41.8289 109.224 42.7734 104.799 41.5556 104.128C39.1447 103.68 37.057 103.804 35.8143 101.766C33.3538 97.6634 39.6915 90.9008 43.5439 90.8511C43.2456 85.7046 46.8991 80.558 51.8202 78.942C51.9444 77.5248 51.9444 73.5966 53.7339 74.1187C58.6053 77.1519 61.9357 81.3288 66.0117 84.9338C63.9488 86.3758 62.5322 85.3813 61.8611 86.2267C61.1901 87.072 61.364 88.3648 62.3085 88.9367C63.1038 89.409 64.4459 89.3842 64.8684 88.6632C65.2164 87.9919 64.6199 86.2018 65.7632 85.3813C67.1053 85.4559 69.5658 88.0416 69.5658 89.4091C69.5658 90.329 67.9503 91.1992 68.0497 91.9947C68.1491 92.8898 68.6959 93.5611 69.6404 94.0583C70.5351 94.5307 71.2807 92.5169 72.1506 92.3677C74.1886 92.0445 74.9591 95.5501 74.7354 97.6136L79.0351 99.6026C72.6974 107.086 67.9503 114.744 61.8114 121.308L61.7866 121.283ZM48.6389 103.829C50.9751 102.81 48.3158 100.622 48.4401 99.5032C48.7383 96.5197 51.5219 93.3373 53.7339 91.7213C54.3056 91.3235 55.6228 92.5169 56.1447 92.4671C56.6667 92.4174 58.2076 91.5969 57.7354 90.8262C54.2807 85.083 59.9722 84.4614 58.2076 81.4034C57.9342 80.9558 56.8904 80.7818 56.1944 80.8564C54.3553 81.0553 55.598 86.1024 51.3728 88.7378C50.2792 86.4007 51.3728 84.9835 50.6023 84.5112C49.8319 84.0388 48.8129 84.2128 48.117 84.5112C47.4211 84.8095 47.3465 86.5002 47.769 87.3206C47.9678 87.7184 52.3918 87.7681 51.7208 88.8869C49.2354 92.9147 45.3582 95.9479 44.0906 100.423C43.7178 101.766 47.1974 104.451 48.6389 103.829ZM58.0336 99.9259C59.8231 97.6882 61.3889 97.191 63.7749 96.5943C65.2661 96.2214 63.8991 91.0748 62.3085 91.5721C59.7485 92.3925 59.4254 95.6992 57.0643 96.5943C55.7968 97.0667 53.3611 96.6937 53.3114 98.807C53.2617 100.697 56.8406 101.418 58.0336 99.9259ZM43.0716 97.4645C43.0716 96.4451 42.2515 95.6247 41.2325 95.6247C40.2135 95.6247 39.3933 96.4451 39.3933 97.4645C39.3933 98.4838 40.2135 99.3043 41.2325 99.3043C42.2515 99.3043 43.0716 98.4838 43.0716 97.4645ZM71.0073 100.075C71.0073 99.0557 70.1623 98.2103 69.1433 98.2103C68.1243 98.2103 67.2792 99.0557 67.2792 100.075C67.2792 101.094 68.1243 101.94 69.1433 101.94C70.1623 101.94 71.0073 101.094 71.0073 100.075Z" fill="var(--fill-0, #F9FBFC)"/>
<path id="Vector_12" d="M129.215 61.6875C120.541 49.4552 112.24 38.3914 100.186 29.4907L119.249 7.73605C130.159 17.4821 140.623 27.6011 148.874 40.0075L129.215 61.6875ZM120.591 27.8497C123.697 25.0154 125.387 23.1507 127.898 20.0429C126.034 17.3081 123.25 12.261 119.621 11.9378C116.49 12.4848 114.104 16.9351 112.215 19.3965C114.825 22.8027 117.285 25.1149 120.591 27.8497ZM120.367 40.5793L131.899 27.6757C132.446 27.0541 130.955 25.5873 130.681 26.0099C130.507 26.2834 129.613 26.3083 129.19 26.7558L117.732 39.1621C117.012 39.9329 117.409 41.0019 117.782 41.4246C118.379 42.1208 119.547 41.4992 120.367 40.5793ZM140.523 35.035C139.032 34.6372 130.259 43.9357 131.999 45.2286C133.838 46.596 143.357 35.8057 140.523 35.035Z" fill="var(--fill-0, #F9FBFC)"/>
<path id="Vector_13" d="M107.095 118.697L96.0351 123.868C97.8494 119.517 100.335 116.509 102.845 113.103C104.684 114.918 105.455 115.912 107.095 118.697Z" fill="var(--fill-0, #E4D66D)"/>
<path id="Vector_14" d="M38.3123 26.5797L26.7794 40.2996L29.1002 42.2517L40.633 28.5319L38.3123 26.5797Z" fill="var(--fill-0, #226E77)"/>
<path id="Vector_15" d="M68.9196 40.3555C65.962 40.629 63.6754 39.9329 62.2091 43.2893C61.7866 44.2341 59.674 44.2838 59.0526 43.7617C55.9708 41.1511 67.155 37.9439 66.9064 30.0874C69.7398 28.9437 75.0336 24.7668 77.171 26.3083C78.0409 26.9298 77.9415 27.8 77.5439 28.5707C76.9971 29.6647 75.655 28.894 74.4123 29.4161C72.1009 30.3857 68.9444 34.0902 68.4971 36.303C68.3231 37.198 70.9079 40.1566 68.9196 40.3307V40.3555Z" fill="var(--fill-0, #226E77)"/>
<path id="Vector_16" d="M61.1652 29.8387C58.6798 29.4907 61.1652 26.3083 62.0599 25.0651C64.1477 22.1314 67.0307 19.67 70.7339 21.7087C71.6287 22.206 71.0073 24.2696 70.3114 24.5182C69.4664 24.8414 68.2485 24.5679 67.0556 24.0707L61.1652 29.8387Z" fill="var(--fill-0, #226E77)"/>
<path id="Vector_17" d="M56.2193 15.4931C57.29 15.4931 58.1579 14.6249 58.1579 13.5539C58.1579 12.4828 57.29 11.6146 56.2193 11.6146C55.1486 11.6146 54.2807 12.4828 54.2807 13.5539C54.2807 14.6249 55.1486 15.4931 56.2193 15.4931Z" fill="var(--fill-0, #226E77)"/>
<path id="Vector_18" d="M62.7807 20.0678C63.8102 20.0678 64.6447 19.233 64.6447 18.2031C64.6447 17.1733 63.8102 16.3384 62.7807 16.3384C61.7512 16.3384 60.9167 17.1733 60.9167 18.2031C60.9167 19.233 61.7512 20.0678 62.7807 20.0678Z" fill="var(--fill-0, #226E77)"/>
<path id="Vector_19" d="M61.1901 36.2284C62.2195 36.2284 63.0541 35.3935 63.0541 34.3637C63.0541 33.3339 62.2195 32.499 61.1901 32.499C60.1606 32.499 59.326 33.3339 59.326 34.3637C59.326 35.3935 60.1606 36.2284 61.1901 36.2284Z" fill="var(--fill-0, #226E77)"/>
<path id="Vector_20" d="M55.3991 23.4491C56.456 23.4491 57.3129 22.592 57.3129 21.5347C57.3129 20.4774 56.456 19.6203 55.3991 19.6203C54.3422 19.6203 53.4854 20.4774 53.4854 21.5347C53.4854 22.592 54.3422 23.4491 55.3991 23.4491Z" fill="var(--fill-0, #226E77)"/>
<path id="Vector_21" d="M48.6389 103.829C47.1974 104.451 43.7178 101.766 44.0906 100.423C45.3582 95.9479 49.2354 92.9146 51.7208 88.8869C52.3918 87.793 47.9678 87.7184 47.769 87.3206C47.3465 86.4753 47.4211 84.7846 48.117 84.5112C48.8129 84.2377 49.8319 84.0388 50.6023 84.5112C51.3728 84.9835 50.2792 86.3758 51.3728 88.7378C55.598 86.0775 54.3304 81.0553 56.1944 80.8564C56.9152 80.7818 57.9342 80.9558 58.2076 81.4034C59.9722 84.4614 54.2807 85.083 57.7354 90.8262C58.2076 91.5969 56.6915 92.4423 56.1447 92.4671C55.598 92.492 54.2807 91.2986 53.7339 91.7213C51.5219 93.3373 48.7383 96.5446 48.4401 99.5032C48.3158 100.622 50.9751 102.81 48.6389 103.829Z" fill="var(--fill-0, #226E77)"/>
<path id="Vector_22" d="M58.0336 99.9258C56.8406 101.418 53.2617 100.697 53.3114 98.807C53.3611 96.6937 55.8216 97.0667 57.0643 96.5943C59.4254 95.6992 59.7485 92.3677 62.3085 91.5721C63.8743 91.0748 65.2412 96.2213 63.7749 96.5943C61.364 97.2158 59.7982 97.6882 58.0336 99.9258Z" fill="var(--fill-0, #226E77)"/>
<path id="Vector_23" d="M69.1433 101.94C70.1727 101.94 71.0073 101.105 71.0073 100.075C71.0073 99.0452 70.1727 98.2103 69.1433 98.2103C68.1138 98.2103 67.2792 99.0452 67.2792 100.075C67.2792 101.105 68.1138 101.94 69.1433 101.94Z" fill="var(--fill-0, #226E77)"/>
<path id="Vector_24" d="M41.2325 99.3043C42.2482 99.3043 43.0716 98.4806 43.0716 97.4645C43.0716 96.4484 42.2482 95.6246 41.2325 95.6246C40.2167 95.6246 39.3933 96.4484 39.3933 97.4645C39.3933 98.4806 40.2167 99.3043 41.2325 99.3043Z" fill="var(--fill-0, #226E77)"/>
<path id="Vector_25" d="M120.591 27.8497C117.285 25.1149 114.8 22.8027 112.215 19.3965C114.104 16.9351 116.49 12.4848 119.621 11.9378C123.25 12.261 126.034 17.3081 127.898 20.0429C125.412 23.1507 123.722 25.0154 120.591 27.8497ZM119.92 14.3495L115.173 19.1479L120.417 24.3441L125.164 19.5457L119.92 14.3495Z" fill="var(--fill-0, #226E77)"/>
<path id="Vector_26" d="M120.367 40.5793C119.547 41.4992 118.404 42.1208 117.782 41.4246C117.409 41.0019 117.037 39.9329 117.732 39.1621L129.19 26.7558C129.588 26.3083 130.482 26.2834 130.681 26.0099C130.955 25.6121 132.446 27.079 131.899 27.6757L120.367 40.5793Z" fill="var(--fill-0, #226E77)"/>
<path id="Vector_27" d="M140.523 35.035C143.357 35.7808 133.838 46.5711 131.999 45.2286C130.259 43.9357 139.057 34.6372 140.523 35.035Z" fill="var(--fill-0, #226E77)"/>
<path id="Vector_28" d="M59.2515 115.937C57.4371 114.47 56.3684 112.879 54.8772 110.99C55.2251 109.001 56.443 107.385 58.4313 106.44C60.4693 107.832 61.712 109.423 63.0541 111.412C62.4825 113.501 61.1155 114.843 59.2515 115.937Z" fill="var(--fill-0, #D1801F)"/>
<path id="Vector_29" d="M119.927 14.342L115.186 19.1287L120.43 24.3254L125.171 19.5388L119.927 14.342Z" fill="var(--fill-0, #D1801F)"/>
</g>
</svg>
