<svg preserveAspectRatio="none" width="100%" height="100%" overflow="visible" style="display: block;" viewBox="0 0 107.972 108.975" fill="none" xmlns="http://www.w3.org/2000/svg">
<g id="Group">
<path id="Vector" d="M77.3136 58.7472L36.22 80.8132C32.7258 82.6849 29.8467 85.4431 25.5405 85.3446L8.19261 52.418C5.55966 47.4187 -3.52031 45.1038 1.4749 40.0552C4.57538 36.9275 7.35597 33.6029 10.3334 30.3028L22.5877 16.7578L34.7681 3.23751C35.9247 1.93227 36.466 0.430007 38.3608 0.0359717C40.9937 -0.555081 45.9643 6.29128 47.9083 9.27117C42.3963 14.2212 38.0655 19.4422 33.4886 24.7617C28.6902 30.3521 23.1783 34.8096 18.872 41.5821C25.7128 39.2917 31.1509 34.4402 39.6403 30.8446C45.4476 27.2983 51.0826 23.7273 57.7511 21.6094L77.289 58.7472H77.3136ZM43.1591 8.4831C41.8303 5.6756 40.6 5.15843 38.9513 3.82856C37.0812 5.01067 35.8262 6.36516 35.0634 8.28608C38.1393 8.65549 40.5016 9.27117 43.1345 8.4831H43.1591ZM40.3293 11.66C36.7859 11.5369 30.6096 9.54207 29.5761 14.7384C34.1776 7.6704 35.5064 20.7721 40.3293 11.66ZM34.8666 17.6444C31.6431 17.2011 29.6253 17.2258 27.0416 17.275C25.2945 18.1123 24.1625 19.3191 23.5966 21.0676C26.4264 21.6587 28.7886 21.6833 31.5938 21.437C33.2179 20.5258 34.4729 19.4176 34.8666 17.669V17.6444ZM24.2856 26.658C26.4264 26.658 28.1981 26.7072 29.0347 24.4169C23.572 24.0229 20.0286 22.2497 17.4202 27.6184C19.6349 29.0714 21.9725 28.5543 24.2856 26.658ZM57.8741 29.4162C58.0709 27.7169 56.8406 26.2393 56.0286 25.9684C55.0935 25.6483 53.2972 26.3132 52.8789 27.5199C52.2391 29.2931 52.4359 31.0662 53.0511 32.7163C54.8474 31.8297 57.6526 31.2879 57.8741 29.4162ZM49.68 30.5244C49.3601 28.702 46.8994 29.958 46.3088 30.7215C45.4722 31.8297 45.6198 33.6767 46.3088 35.4253C46.7763 36.6074 48.7449 35.5977 49.2124 34.8342C49.68 34.0708 50.0737 32.7409 49.68 30.5244ZM22.5877 31.4603C16.805 30.2782 12.3266 30.3274 11.6376 34.4894C16.6082 35.5977 21.1113 35.6469 22.5877 31.4603ZM42.4947 33.6767C41.8796 32.5685 39.0251 34.1939 38.4592 35.3268C37.8932 36.4596 37.4749 40.0798 38.7299 40.1537C40.5016 40.2768 41.978 38.9962 42.5439 38.1835C43.0115 37.4693 43.3806 35.3021 42.4947 33.6767ZM48.2774 67.7115C51.6485 69.0414 53.8385 68.1548 56.6684 66.5541C58.8584 65.2981 60.5809 64.1406 59.7688 60.9637C67.5692 61.5547 61.4913 64.0174 72.8351 57.6883C69.6116 49.709 66.1913 45.8426 62.7955 38.2574C61.9342 36.3611 58.4401 35.9424 58.8584 32.9133L47.5392 39.0208C49.0648 40.3753 50.2459 40.0552 50.6642 40.8186C51.1318 41.6559 50.9841 42.7395 50.0491 43.3799C49.5077 43.7493 47.9575 43.7246 47.7606 42.9366L46.8502 39.2425C41.9534 42.444 35.9001 44.562 31.397 48.059C30.6342 48.6501 30.9541 50.3986 30.1912 50.6941C29.4284 50.9897 28.4688 50.2755 27.3368 50.4971C14.0245 53.083 22.9322 60.2002 14.2705 57.1218L27.0662 81.6259C31.5692 80.6901 34.7927 77.8087 37.1796 75.1243C40.6984 75.4445 48.3758 72.3661 48.2528 67.6869L48.2774 67.7115ZM16.682 37.9372C13.7292 37.4693 11.4899 37.4939 8.75857 37.3954C7.25754 38.1835 6.27326 39.144 5.65809 40.8186C8.29104 41.6313 10.8748 41.9515 13.803 41.4836C14.9841 40.5231 16.0422 39.8335 16.7066 37.9372H16.682ZM31.2986 40.4C33.8577 40.2276 35.0388 40.6955 34.965 40.0552C34.9404 39.7104 35.6048 37.9865 35.088 37.6663C33.71 36.829 30.3389 38.8977 31.2986 40.4ZM24.6055 47.4926C28.2719 48.256 28.5426 44.3403 28.075 41.2127C26.7709 41.0649 25.0484 41.9268 24.4086 42.9119C23.8426 43.7493 23.3259 47.2463 24.6301 47.5172L24.6055 47.4926ZM10.7763 44.4881C8.95542 44.1925 6.42091 43.306 5.14134 44.4881C5.73191 45.547 7.20833 47.3202 8.21722 47.2463C9.42296 47.1478 10.3826 45.8672 10.8009 44.4881H10.7763ZM18.7244 45.6702C16.6328 46.8523 15.993 50.0046 17.7155 52.221C18.0108 53.6248 23.695 42.8627 18.7244 45.6702ZM14.1721 50.0292C13.9999 48.1329 12.0067 49.2411 11.2685 49.9799C10.4072 50.8419 12.6957 55.2255 13.7292 53.9203C14.4428 53.0337 14.369 51.9501 14.1967 50.0292H14.1721Z" fill="var(--fill-0, #226E77)"/>
<path id="Vector_2" d="M96.8761 94.0626C94.6615 93.5701 93.7264 95.9343 92.2254 97.3134L81.5706 107.066C77.4858 110.809 71.3341 108.396 67.4462 105.391C56.4961 96.9686 67.6431 87.2163 73.3765 78.3258C73.7948 77.6855 75.0251 77.4393 74.6807 76.4049C78.3225 71.8735 93.3081 85.7879 96.261 89.2357C96.9746 90.9842 96.9253 92.585 96.8515 94.0873L96.8761 94.0626ZM80.6847 102.83C85.6061 98.8649 89.3464 95.3432 93.2343 91.2798C93.7018 88.817 83.5884 82.5125 84.6711 82.6849C84.2035 82.611 81.9151 86.3051 80.4879 84.8767C78.5932 82.9558 81.4968 81.2072 80.1434 79.7789C79.479 79.0647 78.3717 78.9662 77.4612 79.1632C76.5016 79.3602 76.1571 80.5669 76.1325 81.7983C76.0832 84.8521 72.5645 85.2215 71.3833 87.4625C70.9404 88.3245 72.4906 90.2208 71.7524 91.0089C69.5624 93.3977 65.5761 92.4126 66.8064 94.9246L74.8283 94.9738C77.0429 94.9738 74.3362 100.761 80.6847 102.83ZM77.1413 105.268C75.1974 103.052 68.6765 94.5306 67.0525 99.0866C66.2405 101.352 70.3498 101.155 71.2603 102.214C72.7367 103.987 73.5733 106.647 77.1413 105.268Z" fill="var(--fill-0, #226E77)"/>
<path id="Vector_3" d="M97.7866 94.0873C97.3191 92.7574 97.8604 91.5753 99.0415 90.2208C97.2452 86.1573 76.5016 66.5048 74.6807 75.6169C73.9671 75.6415 73.2781 75.6169 72.5891 75.543C71.3587 72.637 74.3608 69.2138 77.7319 69.2877C79.9958 69.3369 81.3737 68.3765 82.2104 66.5541C86.5412 56.9248 101.871 67.1697 106.817 75.3706C111.197 82.611 101.675 83.9901 102.142 89.4327C102.363 91.9939 100.075 95.7865 97.7866 94.1119V94.0873ZM103.495 77.5132C101.822 73.0064 96.6301 69.4108 92.8898 67.2682C91.7333 68.0071 91.7825 70.1496 90.9951 70.5437C90.1092 70.9869 87.8946 71.4549 87.5501 70.2235C87.0334 68.475 88.8297 67.5145 87.8454 66.0369C85.68 67.7608 84.3512 68.9429 82.6779 71.381C89.2726 75.2228 94.0217 79.902 98.9677 84.9013C100.912 82.9065 104.8 80.8625 103.52 77.4639L103.495 77.5132Z" fill="var(--fill-0, #226E77)"/>
<path id="Vector_4" d="M97.7866 94.0873C97.5897 93.9395 97.1468 94.1119 96.9007 94.0873C96.9746 92.585 96.9992 90.9842 96.3102 89.2357C93.3573 85.7879 78.3963 71.8735 74.7299 76.4049C74.656 76.1833 75.0252 75.8385 74.7053 75.6169C76.5262 66.5048 97.2699 86.1573 99.0662 90.2208C97.885 91.5999 97.3437 92.7574 97.8112 94.0873H97.7866Z" fill="var(--fill-0, #D1801F)"/>
<path id="Vector_5" d="M74.6807 75.5922C75.0005 75.8139 74.6314 76.1587 74.7053 76.3803C75.0498 77.4146 73.8194 77.6609 73.4011 78.3012C73.3519 77.3161 72.9582 76.4049 72.5891 75.5183C73.2781 75.5676 73.9917 75.6169 74.6807 75.5922Z" fill="var(--fill-0, #E4D66D)"/>
<path id="Vector_6" d="M48.2774 67.7115C48.3758 72.3907 40.723 75.4691 37.2042 75.1489C34.8174 77.8333 31.5938 80.7147 27.0908 81.6505L14.2951 57.1465C22.9322 60.2495 14.0491 53.1076 27.3614 50.5217C28.4934 50.3001 29.4038 51.0389 30.2158 50.7188C31.0279 50.3986 30.6834 48.6501 31.4216 48.0836C35.9493 44.5866 41.978 42.4686 46.8748 39.2671L47.7852 42.9612C47.9821 43.7493 49.5077 43.7739 50.0737 43.4045C51.0087 42.7642 51.1564 41.6806 50.6889 40.8432C50.2705 40.0798 49.114 40.4 47.5638 39.0455L58.883 32.9379C58.4647 35.9671 61.9835 36.3857 62.8201 38.282C66.2159 45.8426 69.6362 49.7337 72.8597 57.7129C61.5159 64.0421 67.5938 61.5794 59.7934 60.9883C60.5809 64.1652 58.883 65.3227 56.6929 66.5787C53.8631 68.1794 51.6731 69.066 48.302 67.7362L48.2774 67.7115ZM28.9855 70.5929C32.0368 72.9571 34.3006 70.0511 36.4906 68.7459L50.9595 60.1756C52.1653 61.3823 51.304 63.3771 52.6082 64.1406C53.9124 64.904 55.0689 63.6973 55.2904 62.9831C55.5118 62.2197 55.1919 61.5547 54.4537 61.2099C53.9124 60.9637 53.0511 61.3085 51.5747 60.2987C53.1249 58.0084 62.9677 54.93 61.0238 52.6643C60.6055 52.1718 60.0149 51.9994 59.1044 52.1718L44.5863 54.9793C43.5036 55.1763 42.2979 54.4128 42.1994 53.4031C44.3156 51.9994 47.1454 50.3493 49.926 49.3889C51.3532 49.1426 52.5344 50.6449 54.626 50.4971C53.8139 44.8821 60.7777 43.3306 58.317 40.3015C57.8987 39.7597 55.9793 39.538 55.9055 40.2522C55.1427 46.606 44.9062 47.3448 44.291 47.5911C42.6916 48.2314 40.9691 53.4031 38.8283 50.3986C38.2623 49.5859 39.1974 47.7389 38.1639 47.3202C37.2534 46.9508 36.466 46.8523 35.8016 47.7142C35.2357 48.4777 34.8666 49.9307 35.9493 50.3494L39.4189 51.7038L27.263 57.6883C26.9677 56.1121 26.7709 55.0285 26.2787 54.5113C25.8358 54.0434 23.9903 54.0188 23.7934 54.8808C22.9568 58.3286 30.585 68.6966 31.1017 63.3525C31.1509 62.8107 30.8802 62.1212 30.4127 60.7174C36.6383 59.3875 42.5686 57.6636 49.4831 57.245C46.4072 60.3972 42.8884 61.6779 39.6157 63.4264C38.8529 61.5794 38.1147 60.8405 36.9336 61.0376C36.22 61.1607 35.6786 61.7025 35.654 62.4906C35.654 63.057 36.1461 64.1652 36.4906 65.0272L28.9609 70.5683L28.9855 70.5929ZM63.1154 48.4777C63.1154 47.4433 62.2541 46.6306 61.2206 46.6553C60.1871 46.6799 59.3751 47.5172 59.3997 48.5516C59.4243 49.5859 60.261 50.3986 61.2945 50.374C62.3279 50.3493 63.14 49.512 63.1154 48.4777ZM67.2247 55.3733C67.2247 54.339 66.3635 53.5263 65.33 53.5509C64.2965 53.5755 63.4845 54.4128 63.5091 55.4472C63.5337 56.4815 64.3703 57.2942 65.4038 57.2696C66.4373 57.245 67.2493 56.4076 67.2247 55.3733ZM23.2521 63.0324C23.2521 61.998 22.3908 61.1853 21.3819 61.2099C20.3731 61.2346 19.5364 62.0719 19.561 63.0816C19.5856 64.0913 20.4223 64.9287 21.4312 64.904C22.44 64.8794 23.2767 64.0421 23.2521 63.0324ZM27.4107 69.9033C27.4107 68.869 26.5494 68.0563 25.5159 68.0563C24.4824 68.0563 23.6704 68.9183 23.6704 69.9526C23.6704 70.9869 24.5316 71.7996 25.5651 71.7996C26.5986 71.7996 27.4107 70.9377 27.4107 69.9033ZM43.4052 69.6325C43.4052 68.5981 42.5439 67.7854 41.5104 67.81C40.477 67.8347 39.6649 68.672 39.6895 69.7063C39.7141 70.7407 40.5508 71.5534 41.5843 71.5287C42.6178 71.5041 43.4298 70.6668 43.4052 69.6325ZM31.5446 76.799C31.5446 75.7646 30.6834 74.9519 29.6745 74.9766C28.6656 75.0012 27.829 75.8385 27.8536 76.8482C27.8782 77.8579 28.7148 78.6953 29.7237 78.6706C30.7326 78.646 31.5692 77.8087 31.5446 76.799Z" fill="var(--fill-0, #70BC96)"/>
<path id="Vector_7" d="M16.682 37.9372C16.0422 39.8335 14.9595 40.4985 13.7784 41.4836C10.8748 41.9515 8.26643 41.6313 5.63348 40.8186C6.24866 39.144 7.23294 38.1835 8.73396 37.3954C11.4899 37.4939 13.7046 37.4693 16.6574 37.9372H16.682Z" fill="var(--fill-0, #70BC96)"/>
<path id="Vector_8" d="M24.2856 26.658C21.9725 28.5543 19.6349 29.0714 17.4202 27.6184C20.0286 22.2497 23.572 24.0229 29.0347 24.4169C28.1981 26.7072 26.4264 26.658 24.2856 26.658Z" fill="var(--fill-0, #70BC96)"/>
<path id="Vector_9" d="M34.8666 17.6444C34.4729 19.393 33.2425 20.5012 31.5938 21.4124C28.7886 21.6587 26.4264 21.634 23.5966 21.043C24.1379 19.3191 25.2945 18.1123 27.0415 17.2504C29.6253 17.2258 31.6431 17.1765 34.8666 17.6198V17.6444Z" fill="var(--fill-0, #70BC96)"/>
<path id="Vector_10" d="M22.5877 31.4603C21.1113 35.6469 16.6082 35.6223 11.6376 34.4894C12.3266 30.3274 16.805 30.2535 22.5877 31.4603Z" fill="var(--fill-0, #70BC96)"/>
<path id="Vector_11" d="M57.8741 29.4162C57.6526 31.2879 54.8474 31.8297 53.0511 32.7163C52.4359 31.0662 52.2391 29.2931 52.8789 27.5199C53.2972 26.3132 55.0935 25.6483 56.0286 25.9684C56.8406 26.2393 58.0709 27.7169 57.8741 29.4162Z" fill="var(--fill-0, #70BC96)"/>
<path id="Vector_12" d="M42.4947 33.6767C43.3806 35.3021 43.0361 37.4693 42.5439 38.1835C42.0026 39.0208 40.5016 40.2768 38.7299 40.1537C37.4749 40.0798 37.8932 36.4596 38.4592 35.3268C39.0251 34.1939 41.8796 32.5685 42.4947 33.6767Z" fill="var(--fill-0, #70BC96)"/>
<path id="Vector_13" d="M43.1591 8.4831C40.5016 9.27117 38.1393 8.65549 35.088 8.28608C35.8508 6.36516 37.1058 5.01067 38.9759 3.82856C40.6 5.1338 41.8303 5.6756 43.1837 8.4831H43.1591Z" fill="var(--fill-0, #70BC96)"/>
<path id="Vector_14" d="M24.6055 47.4926C23.3259 47.2217 23.8426 43.7246 24.384 42.8873C25.0238 41.9268 26.7463 41.0649 28.0504 41.188C28.518 44.3157 28.2473 48.2314 24.5809 47.468L24.6055 47.4926Z" fill="var(--fill-0, #70BC96)"/>
<path id="Vector_15" d="M40.3293 11.66C35.5063 20.7474 34.1776 7.6704 29.5761 14.7384C30.6096 9.54207 36.7859 11.5369 40.3293 11.66Z" fill="var(--fill-0, #70BC96)"/>
<path id="Vector_16" d="M49.68 30.5244C50.0737 32.7409 49.68 34.0461 49.2124 34.8342C48.7449 35.6223 46.801 36.5827 46.3088 35.4253C45.5952 33.6767 45.4476 31.8297 46.3088 30.7215C46.8994 29.958 49.3601 28.702 49.68 30.5244Z" fill="var(--fill-0, #70BC96)"/>
<path id="Vector_17" d="M18.7244 45.6702C23.695 42.8627 18.0108 53.6248 17.7155 52.221C16.0176 50.0046 16.6574 46.8523 18.7244 45.6702Z" fill="var(--fill-0, #70BC96)"/>
<path id="Vector_18" d="M10.7763 44.4881C10.3826 45.8426 9.39835 47.1478 8.19261 47.2463C7.20833 47.3202 5.73191 45.547 5.11674 44.4881C6.3963 43.306 8.93082 44.1925 10.7517 44.4881H10.7763Z" fill="var(--fill-0, #70BC96)"/>
<path id="Vector_19" d="M14.1721 50.0292C14.3444 51.9501 14.4182 53.0091 13.7046 53.9203C12.6711 55.2255 10.3826 50.8419 11.2439 49.9799C11.9821 49.2411 13.9752 48.1575 14.1475 50.0292H14.1721Z" fill="var(--fill-0, #70BC96)"/>
<path id="Vector_20" d="M31.2986 40.4C30.3389 38.8977 33.71 36.829 35.088 37.6663C35.6048 37.9865 34.9404 39.6858 34.965 40.0552C35.0388 40.6955 33.8577 40.2276 31.2986 40.4Z" fill="var(--fill-0, #70BC96)"/>
<path id="Vector_21" d="M28.9855 70.5929L36.5152 65.0518C36.1707 64.1652 35.654 63.0816 35.6786 62.5152C35.7032 61.7271 36.2446 61.1853 36.9582 61.0622C38.1393 60.8652 38.8775 61.604 39.6403 63.451C42.9377 61.7025 46.4564 60.4219 49.5077 57.2696C42.5932 57.6883 36.6629 59.4368 30.4373 60.742C30.9048 62.1458 31.1755 62.8353 31.1263 63.3771C30.6096 68.7212 22.9814 58.3532 23.818 54.9054C24.0395 54.0434 25.8604 54.0681 26.3033 54.536C26.7955 55.0531 26.9923 56.1367 27.2876 57.7129L39.4435 51.7285L35.9739 50.374C34.9158 49.9553 35.2849 48.5023 35.8262 47.7389C36.466 46.8769 37.278 46.9754 38.1885 47.3448C39.222 47.7635 38.2869 49.6105 38.8529 50.4232C40.9691 53.4277 42.7162 48.256 44.3156 47.6157C44.9308 47.3695 55.1427 46.6306 55.9301 40.2768C56.0286 39.5626 57.9233 39.7843 58.3416 40.3261C60.7777 43.3798 53.8139 44.9067 54.6506 50.5217C52.5344 50.6941 51.3778 49.1672 49.9506 49.4135C47.17 50.374 44.3649 52.024 42.224 53.4278C42.3225 54.4375 43.5282 55.2009 44.6109 55.0039L59.129 52.1964C60.0149 52.024 60.6301 52.1964 61.0484 52.6889C62.9923 54.9546 53.1495 58.033 51.5993 60.3234C53.0757 61.3331 53.937 60.9883 54.4783 61.2346C55.2165 61.5794 55.5364 62.2689 55.315 63.0077C55.0935 63.7219 54.0108 64.9533 52.6328 64.1652C51.2548 63.3771 52.1899 61.4316 50.9841 60.2002L36.5152 68.7705C34.3252 70.0511 32.0614 72.9818 29.0101 70.6175L28.9855 70.5929ZM50.8611 56.8509C50.8611 56.6047 50.6642 56.4076 50.4182 56.4076C50.1721 56.4076 49.9752 56.6047 49.9752 56.8509C49.9752 57.0972 50.1721 57.2942 50.4182 57.2942C50.6642 57.2942 50.8611 57.0972 50.8611 56.8509Z" fill="var(--fill-0, #226E77)"/>
<path id="Vector_22" d="M65.3837 57.2358C66.4028 57.2189 67.2153 56.3783 67.1984 55.3584C67.1815 54.3384 66.3416 53.5253 65.3225 53.5422C64.3034 53.5591 63.4909 54.3997 63.5078 55.4196C63.5247 56.4396 64.3646 57.2527 65.3837 57.2358Z" fill="var(--fill-0, #226E77)"/>
<path id="Vector_23" d="M25.5702 71.8088C26.6029 71.7917 27.4261 70.9399 27.409 69.9064C27.3919 68.8728 26.5408 68.0489 25.5081 68.066C24.4754 68.0831 23.6521 68.9349 23.6693 69.9684C23.6864 71.002 24.5375 71.826 25.5702 71.8088Z" fill="var(--fill-0, #226E77)"/>
<path id="Vector_24" d="M41.558 71.5188C42.5907 71.5017 43.414 70.6499 43.3969 69.6164C43.3797 68.5828 42.5287 67.7589 41.496 67.776C40.4633 67.7931 39.64 68.6449 39.6571 69.6784C39.6742 70.712 40.5253 71.536 41.558 71.5188Z" fill="var(--fill-0, #226E77)"/>
<path id="Vector_25" d="M29.7189 78.6591C30.7381 78.6422 31.5505 77.8017 31.5336 76.7817C31.5167 75.7618 30.6769 74.9486 29.6578 74.9655C28.6386 74.9825 27.8262 75.823 27.8431 76.843C27.86 77.8629 28.6998 78.676 29.7189 78.6591Z" fill="var(--fill-0, #226E77)"/>
<path id="Vector_26" d="M61.3087 50.3843C62.3414 50.3671 63.1647 49.5154 63.1476 48.4818C63.1305 47.4483 62.2794 46.6243 61.2467 46.6415C60.214 46.6586 59.3907 47.5103 59.4078 48.5439C59.425 49.5775 60.276 50.4014 61.3087 50.3843Z" fill="var(--fill-0, #226E77)"/>
<path id="Vector_27" d="M21.446 64.9335C22.4651 64.9166 23.2775 64.076 23.2606 63.0561C23.2437 62.0361 22.4039 61.223 21.3848 61.2399C20.3656 61.2568 19.5532 62.0974 19.5701 63.1173C19.587 64.1373 20.4268 64.9504 21.446 64.9335Z" fill="var(--fill-0, #226E77)"/>
<path id="Vector_28" d="M77.8965 92.2651C79.1466 92.2443 80.1433 91.2133 80.1225 89.9621C80.1018 88.711 79.0716 87.7136 77.8215 87.7343C76.5713 87.755 75.5747 88.7861 75.5955 90.0373C75.6162 91.2884 76.6464 92.2858 77.8965 92.2651Z" fill="var(--fill-0, #226E77)"/>
<path id="Vector_29" d="M50.4255 57.2866C50.6701 57.2826 50.8651 57.0808 50.8611 56.836C50.857 56.5913 50.6554 56.3961 50.4109 56.4002C50.1663 56.4042 49.9713 56.606 49.9753 56.8507C49.9794 57.0955 50.181 57.2907 50.4255 57.2866Z" fill="var(--fill-0, #70BC96)"/>
</g>
</svg>
