<svg preserveAspectRatio="none" width="100%" height="100%" overflow="visible" style="display: block;" viewBox="0 0 120.009 133.987" fill="none" xmlns="http://www.w3.org/2000/svg">
<g id="Group">
<path id="Vector" d="M41.7175 116.298C41.5394 119.301 41.4121 122.203 39.6815 124.341C36.2202 128.566 23.0876 124.748 23.4439 118.487C23.5712 116.324 25.6581 114.695 26.1926 112.506C24.5128 109.757 23.9784 107.467 25.1491 103.573C15.9869 105.711 15.5033 112.251 11.8893 112.404C6.87551 112.608 1.68357 106.932 0.283786 102.504C-1.2178 97.7189 3.59238 95.81 6.44285 93.9521C1.65812 84.357 16.3432 65.0397 24.7419 59.6695C26.5998 50.8125 19.9317 46.8676 28.2541 38.5451C29.1194 34.8292 27.2615 19.3804 35.3548 18.9732C39.5287 18.7696 41.9466 22.3073 43.9317 25.6159C50.4216 22.7145 47.4185 -3.831 61.849 0.470238C66.8628 1.97185 70.9095 5.89132 74.4216 9.70898C76.2541 11.6942 78.6974 11.516 81.0643 12.4323C98.1671 18.9732 94.9604 21.5437 100.763 29.5099C102.876 32.3859 128.683 46.3586 116.975 55.4446C111.427 59.7458 104.377 61.4256 97.0728 61.0438C91.7281 68.4756 83.9911 72.0896 74.498 73.1586C77.9338 84.8915 75.5669 88.7601 75.4397 91.5597C75.2361 95.9118 78.0356 99.984 76.1268 104.82C75.1343 107.339 72.9201 110.597 69.4588 109.452C61.5945 106.856 63.0706 93.3667 59.9402 99.5768C57.4715 104.514 54.112 108.179 50.2944 111.895C49.0219 113.117 49.3527 115.586 47.393 116.145C45.9678 116.553 44.6189 117.087 41.6666 116.247L41.7175 116.298ZM71.0622 10.8543C67.7027 7.57109 62.4344 1.97185 57.5987 3.90614C53.3739 5.61136 52.2286 13.3485 51.6433 17.9551C57.7005 13.5012 63.7069 11.796 71.0622 10.8543ZM67.3464 14.3411C62.3071 15.181 57.6242 17.3952 53.7557 20.7293C52.7631 21.5692 51.8469 22.5109 50.9816 23.478C42.8373 32.7677 41.7684 46.3077 48.3601 56.7681C48.971 57.7097 49.6072 58.626 50.3198 59.4913C53.5266 63.4362 57.7514 66.414 62.5362 68.1447C63.4524 68.4756 64.3941 68.7555 65.3612 68.9846C69.1025 69.9008 73.0219 70.0281 76.814 69.3663C78.2393 69.1118 79.639 68.7555 81.0134 68.2719C82.7186 67.6866 84.3474 66.9485 85.9254 66.0323C87.0706 65.3705 88.165 64.6324 89.183 63.818C97.3273 57.4552 101.272 47.0966 99.4397 36.9417C99.2106 35.6946 98.9052 34.4729 98.5235 33.2767C94.6804 21.391 83.3803 13.5012 70.884 13.9848C69.6878 14.0357 68.4916 14.1629 67.3209 14.3411H67.3464ZM37.9254 32.4368C38.9943 32.3859 40.2414 32.4368 41.183 31.5969C42.1247 30.757 40.6486 29.5863 40.5977 28.721C40.4704 26.2267 38.8416 21.5183 35.2021 22.7654C31.9953 23.8598 31.3336 29.8663 32.148 32.4623C33.6242 33.5821 36.1947 32.9967 37.9254 32.4114V32.4368ZM40.7504 43.6607C41.0049 40.3266 41.5139 37.8833 41.1576 34.9819C37.569 35.9745 34.8204 35.8473 31.6899 36.1527C31.0791 39.2068 32.5044 42.1082 30.9519 44.5261C29.9593 44.6279 28.7377 43.8389 28.2541 43.8643C27.7196 43.8643 24.6146 49.5908 40.7504 43.6862V43.6607ZM108.831 55.7246L110.714 55.2919C112.649 54.8592 114.583 53.5103 115.525 52.2632C117.204 50.049 115.957 47.0712 114.583 45.0606C110.943 41.8028 108.169 38.316 102.672 35.5927C103.003 43.508 103.486 50.4053 99.1597 57.3534C102.85 57.9134 105.802 57.4298 108.856 55.6991L108.831 55.7246ZM67.0409 81.4811C70.2732 84.6879 66.4556 85.6296 66.1756 89.2946C67.6772 89.6763 72.3092 88.7092 72.6146 86.7494C73.3782 82.041 72.0802 77.5361 71.1894 72.6241C56.0717 71.3006 44.5934 61.4765 41.3103 46.7149L27.6178 49.6927L28.9667 60.2294C22.4768 65.5996 16.5468 70.9952 12.1693 78.7323C22.3241 91.7633 36.2711 100.518 51.287 106.423L66.99 81.4811H67.0409ZM28.2541 109.019C34.235 110.801 39.3506 113.142 45.3315 113.295C46.8076 113.32 48.5383 108.663 47.2403 108.027C33.8023 101.766 21.357 93.9776 11.5839 82.4991C9.67509 85.0951 7.51178 88.531 9.06427 91.0252C11.6348 95.1483 15.9105 99.8568 20.5171 101.46C22.5531 102.173 26.1162 98.2788 27.6687 101.969C28.4831 103.929 27.5669 106.347 28.2541 109.019ZM66.6083 99.7295C68.9752 98.5587 71.393 98.8387 72.2583 97.3116C73.0219 96.0136 71.9784 92.5777 70.7568 91.916C68.8479 91.3052 66.8628 93.0868 64.8776 93.5449C64.954 95.8609 65.1576 97.8461 66.5828 99.7549L66.6083 99.7295ZM8.2753 106.958C8.63161 107.594 9.11518 108.128 9.47148 108.485C10.4641 109.503 11.5584 108.917 12.4238 107.848C13.4163 106.627 17.0558 104.845 15.7324 102.707C14.5362 100.748 11.9911 98.5333 9.90415 97.2353C8.30075 96.2172 3.74508 98.8387 3.31242 100.697C2.62525 103.573 5.95929 105.838 8.2753 106.983V106.958ZM67.6518 102.529C66.5828 103.776 68.4407 105.278 69.2552 105.736C70.4004 106.398 71.9529 106.169 72.3856 105.201C72.8946 104.082 73.9381 101.587 72.5637 101.078C71.393 100.62 68.5171 101.537 67.6518 102.555V102.529ZM28.814 120.701C29.5521 121.465 30.621 121.719 32.5044 121.77C33.5987 122.559 35.9148 123.679 37.2382 121.974C38.2817 120.625 39.0197 116.375 37.5945 115.255C35.3294 113.499 32.2499 113.728 30.0356 112.455C28.7122 115.891 26.6507 117.393 26.9561 119.301C27.0579 119.861 27.5924 120.396 28.814 120.701Z" fill="var(--fill-0, #226E77)"/>
<path id="Vector_2" d="M109.442 130.576C108.729 134.597 103.054 128.693 102.01 128.362L96.0802 133.987C93.077 130.602 97.6327 127.955 98.498 125.282C97.8363 123.755 92.6698 122.483 94.3241 119.403C95.9529 116.375 99.0579 121.796 101.018 121.821C102.494 121.821 107.228 115.051 108.78 118.894C109.798 121.388 105.319 122.788 105.344 124.646C105.395 127.039 109.849 128.286 109.416 130.576H109.442Z" fill="var(--fill-0, #226E77)"/>
<path id="Vector_3" d="M42.5319 13.5775C41.743 15.8681 37.6963 11.3124 34.0823 12.3813C31.9953 12.9922 29.7048 17.3698 29.0685 17.5988C28.2541 17.8788 26.5489 17.9297 26.4471 16.5553C26.1671 13.2212 29.2976 10.7016 31.3591 9.53083C34.5659 7.6729 39.0452 7.8256 41.4376 10.2689C42.3792 11.2361 42.9137 12.4577 42.5319 13.5775Z" fill="var(--fill-0, #226E77)"/>
<path id="Vector_4" d="M32.1735 4.51696C28.2541 6.5276 21.6115 13.4248 22.4259 9.81079C23.5712 4.69512 26.7525 1.13197 31.5627 1.87005C32.5044 2.02275 33.0388 4.08429 32.1735 4.51696Z" fill="var(--fill-0, #226E77)"/>
<path id="Vector_5" d="M98.5489 33.2767C96.6655 33.6585 93.8405 33.7857 94.5531 36.2545C95.1894 38.5196 97.9635 37.0435 99.4651 36.9417C101.298 47.1221 97.3527 57.4552 89.2085 63.818C88.2923 63.3853 87.5033 61.7565 85.849 61.9855C84.6528 62.1637 84.4238 63.5126 84.551 64.0725C84.7037 64.836 85.1873 65.4469 85.9508 66.0068C84.3983 66.8976 82.744 67.6611 81.0388 68.2465C80.9116 67.4575 80.6825 66.4904 80.2244 66.0068C79.6899 65.4214 78.5447 65.0651 77.7557 65.8032C76.6868 66.7958 77.0176 68.2719 76.814 69.3409C73.0219 70.0026 69.1024 69.8754 65.3612 68.9591C65.8957 67.712 66.3029 66.9485 66.4556 66.0577C66.5828 65.3196 65.9466 64.0725 64.5977 64.098C62.7398 64.098 62.6634 66.2613 62.5362 68.1192C57.7514 66.414 53.5266 63.4108 50.3198 59.4659C51.4142 58.2951 52.8649 57.7352 52.9413 56.4881C53.0431 54.8847 51.6942 54.2229 50.5489 54.5793C49.8872 54.7829 49.3018 55.4955 48.3601 56.7426C41.7684 46.2822 42.8373 32.7422 50.9816 23.4526C52.2541 23.2235 53.6284 26.1504 55.1809 25.0814C57.6242 23.4271 54.8755 21.5437 53.7557 20.7039C57.6242 17.3698 62.3071 15.1555 67.3464 14.3156C67.27 15.8681 67.3718 18.5151 69.2297 18.4642C71.6475 18.3878 71.1385 15.5118 70.9094 13.9593C83.4057 13.4757 94.7058 21.3656 98.5489 33.2512V33.2767ZM63.7069 20.0421C63.7069 18.9986 62.867 18.1333 61.7981 18.1333C60.7292 18.1333 59.8893 18.9732 59.8893 20.0421C59.8893 21.1111 60.7292 21.951 61.7981 21.951C62.867 21.951 63.7069 21.1111 63.7069 20.0421ZM77.8829 21.391C77.8829 20.3475 77.0431 19.4822 75.9741 19.4822C74.9052 19.4822 74.0653 20.3221 74.0653 21.391C74.0653 22.46 74.9052 23.2999 75.9741 23.2999C77.0431 23.2999 77.8829 22.46 77.8829 21.391ZM70.4004 24.8015C70.4004 23.7325 69.5351 22.8672 68.4662 22.8672C67.3973 22.8672 66.5319 23.7325 66.5319 24.8015C66.5319 25.8704 67.3973 26.7358 68.4662 26.7358C69.5351 26.7358 70.4004 25.8704 70.4004 24.8015ZM84.7292 26.074C84.7292 25.0051 83.8638 24.1652 82.8204 24.1652C81.7769 24.1652 80.9116 25.0305 80.9116 26.074C80.9116 27.1175 81.7769 27.9829 82.8204 27.9829C83.8638 27.9829 84.7292 27.1175 84.7292 26.074ZM62.867 28.2119C62.867 27.1684 62.0272 26.3285 60.9837 26.3285C59.9402 26.3285 59.1003 27.1684 59.1003 28.2119C59.1003 29.2554 59.9402 30.0953 60.9837 30.0953C62.0272 30.0953 62.867 29.2554 62.867 28.2119ZM77.1703 29.6372C77.1703 28.5937 76.305 27.7284 75.2615 27.7284C74.218 27.7284 73.3527 28.5937 73.3527 29.6372C73.3527 30.6807 74.218 31.546 75.2615 31.546C76.305 31.546 77.1703 30.6807 77.1703 29.6372ZM91.4482 30.8843C91.4482 29.8153 90.5828 28.9755 89.5394 28.9755C88.4959 28.9755 87.6305 29.8408 87.6305 30.8843C87.6305 31.9278 88.4959 32.7931 89.5394 32.7931C90.5828 32.7931 91.4482 31.9278 91.4482 30.8843ZM55.3336 31.6478C55.3336 30.5789 54.4683 29.739 53.4248 29.739C52.3813 29.739 51.516 30.6043 51.516 31.6478C51.516 32.6913 52.3813 33.5567 53.4248 33.5567C54.4683 33.5567 55.3336 32.6913 55.3336 31.6478ZM69.7133 33.0476C69.7133 31.9532 68.8225 31.0879 67.7536 31.0879C66.6846 31.0879 65.7939 31.9787 65.7939 33.0476C65.7939 34.1166 66.6846 35.0074 67.7536 35.0074C68.8225 35.0074 69.7133 34.1166 69.7133 33.0476ZM83.8893 34.3456C83.8893 33.2767 83.024 32.4114 81.955 32.4114C80.8861 32.4114 80.0208 33.2767 80.0208 34.3456C80.0208 35.4146 80.8861 36.2799 81.955 36.2799C83.024 36.2799 83.8893 35.4146 83.8893 34.3456ZM63.0452 33.7857C61.0855 32.7422 59.4821 34.3456 58.6677 35.211C57.9551 35.9491 57.1152 37.9597 58.1332 39.0032C59.6602 40.5557 61.6708 39.105 62.5871 38.1633C63.5542 37.1707 64.7249 34.702 63.0706 33.8112L63.0452 33.7857ZM76.4322 37.8833C76.4322 36.8398 75.5669 35.9745 74.5234 35.9745C73.48 35.9745 72.6146 36.8398 72.6146 37.8833C72.6146 38.9268 73.48 39.7922 74.5234 39.7922C75.5669 39.7922 76.4322 38.9268 76.4322 37.8833ZM90.6846 39.1304C90.6846 38.0615 89.8193 37.2216 88.7758 37.2216C87.7324 37.2216 86.867 38.0869 86.867 39.1304C86.867 40.1739 87.7324 41.0393 88.7758 41.0393C89.8193 41.0393 90.6846 40.1739 90.6846 39.1304ZM54.621 39.9194C54.621 38.825 53.7302 37.9597 52.6613 37.9597C51.5924 37.9597 50.7016 38.8505 50.7016 39.9194C50.7016 40.9884 51.5924 41.8792 52.6613 41.8792C53.7302 41.8792 54.621 40.9884 54.621 39.9194ZM83.2021 42.6936C83.2021 41.6247 82.3368 40.7593 81.2679 40.7593C80.1989 40.7593 79.3336 41.6247 79.3336 42.6936C79.3336 43.7625 80.1989 44.6279 81.2679 44.6279C82.3368 44.6279 83.2021 43.7625 83.2021 42.6936ZM97.4291 43.9662C97.4291 42.8718 96.5383 42.0064 95.4694 42.0064C94.4004 42.0064 93.5097 42.8972 93.5097 43.9662C93.5097 45.0351 94.4004 45.9259 95.4694 45.9259C96.5383 45.9259 97.4291 45.0351 97.4291 43.9662ZM63.7324 57.7097C63.8851 58.6005 64.445 59.5677 65.1067 59.8985C66.8373 60.713 66.3538 58.2697 67.27 57.6588C69.0006 56.5135 70.8331 55.75 71.2403 53.434C71.6475 51.2961 71.1385 48.9291 69.4333 46.9694C67.4736 44.7042 64.4195 43.6353 61.849 44.3479C58.6168 45.2387 57.0134 48.0638 57.3188 51.3724C57.5987 54.2484 60.2202 56.4881 63.6815 57.7097H63.7324ZM75.6178 46.104C75.6178 45.0606 74.778 44.2207 73.7345 44.2207C72.691 44.2207 71.8511 45.0606 71.8511 46.104C71.8511 47.1475 72.691 47.9874 73.7345 47.9874C74.778 47.9874 75.6178 47.1475 75.6178 46.104ZM89.8702 47.4275C89.8702 46.3586 89.0049 45.4932 87.936 45.4932C86.867 45.4932 86.0017 46.3586 86.0017 47.4275C86.0017 48.4964 86.867 49.3618 87.936 49.3618C89.0049 49.3618 89.8702 48.4964 89.8702 47.4275ZM53.832 48.191C53.832 47.1221 52.9667 46.2568 51.8978 46.2568C50.8289 46.2568 49.9635 47.1221 49.9635 48.191C49.9635 49.26 50.8289 50.1253 51.8978 50.1253C52.9667 50.1253 53.832 49.26 53.832 48.191ZM81.217 49.1836C80.4026 47.2493 77.7811 49.0309 77.0176 49.8963C75.9741 51.0925 74.8289 52.7722 76.7122 54.452C79.1809 54.6047 82.3114 51.8305 81.1915 49.1582L81.217 49.1836ZM96.5892 52.1105C96.5892 51.067 95.7493 50.2271 94.7058 50.2271C93.6624 50.2271 92.8225 51.067 92.8225 52.1105C92.8225 53.154 93.6624 53.9939 94.7058 53.9939C95.7493 53.9939 96.5892 53.154 96.5892 52.1105ZM89.0812 55.6227C89.0812 54.5793 88.2414 53.7394 87.1979 53.7394C86.1544 53.7394 85.3145 54.5793 85.3145 55.6227C85.3145 56.6662 86.1544 57.5061 87.1979 57.5061C88.2414 57.5061 89.0812 56.6662 89.0812 55.6227ZM81.5987 59.135C81.5987 58.0915 80.7589 57.2516 79.7154 57.2516C78.6719 57.2516 77.832 58.0915 77.832 59.135C77.832 60.1785 78.6719 61.0184 79.7154 61.0184C80.7589 61.0184 81.5987 60.1785 81.5987 59.135ZM59.7366 61.222C59.7366 60.2039 58.8967 59.3641 57.8787 59.3641C56.8607 59.3641 56.0208 60.2039 56.0208 61.222C56.0208 62.24 56.8607 63.0799 57.8787 63.0799C58.8967 63.0799 59.7366 62.24 59.7366 61.222ZM74.0144 62.5709C74.0144 61.5274 73.1746 60.6621 72.1056 60.6621C71.0367 60.6621 70.1968 61.502 70.1968 62.5709C70.1968 63.6398 71.0367 64.4797 72.1056 64.4797C73.1746 64.4797 74.0144 63.6398 74.0144 62.5709Z" fill="var(--fill-0, #F9FBFC)"/>
<path id="Vector_6" d="M67.0409 81.4811L51.3379 106.423C36.3474 100.493 22.375 91.7633 12.2202 78.7323C16.5977 70.9952 22.5277 65.5996 29.0176 60.2294L27.6687 49.6926L41.3612 46.7149C44.6189 61.4765 56.0971 71.3006 71.2403 72.6241C72.1311 77.5616 73.4291 82.041 72.6655 86.7494C72.3347 88.7346 67.7281 89.6763 66.2265 89.2945C66.5065 85.6296 70.3241 84.6879 67.0918 81.4811H67.0409ZM49.6327 78.1724C50.2689 76.5435 53.323 76.6454 53.5012 75.271C53.6793 74.0239 54.3411 72.675 53.5012 71.1988C50.9561 66.7703 46.2986 65.8032 42.252 63.4362C40.9794 62.6982 41.6921 58.6514 38.638 59.644C38.7652 71.7842 35.253 75.8309 28.3813 87.1821L39.8851 90.1599C43.7027 91.1525 46.5277 89.2945 48.5128 86.9785C50.8543 84.2298 48.5128 81.0484 49.6072 78.1979L49.6327 78.1724Z" fill="var(--fill-0, #70BC96)"/>
<path id="Vector_7" d="M28.2541 109.019C27.5669 106.347 28.4831 103.929 27.6687 101.969C26.1162 98.2788 22.5531 102.147 20.5171 101.46C15.9105 99.8567 11.6093 95.1483 9.06427 91.0252C7.51178 88.531 9.67509 85.0951 11.5839 82.4991C21.357 93.9775 33.8023 101.766 47.2403 108.027C48.5383 108.663 46.8076 113.346 45.3315 113.295C39.3506 113.168 34.235 110.826 28.2541 109.019Z" fill="var(--fill-0, #D1801F)"/>
<path id="Vector_8" d="M110.689 55.3173C110.74 54.4011 110.943 53.3322 110.562 52.4923C110.18 51.6524 108.958 51.3724 107.864 52.0596C107.253 52.4414 106.668 53.6121 107.431 54.5538C107.762 54.961 108.22 55.2919 108.806 55.7246C105.777 57.4552 102.799 57.9134 99.1088 57.3789C103.435 50.4307 102.952 43.5335 102.621 35.6182C108.144 38.3415 110.892 41.8283 114.532 45.086C115.906 47.0712 117.153 50.0744 115.474 52.2887C114.532 53.5358 112.598 54.8847 110.663 55.3173H110.689ZM111.605 45.3405C111.605 44.3225 110.791 43.508 109.773 43.508C108.755 43.508 107.94 44.3225 107.94 45.3405C107.94 46.3586 108.755 47.173 109.773 47.173C110.791 47.173 111.605 46.3586 111.605 45.3405Z" fill="var(--fill-0, #F9FBFC)"/>
<path id="Vector_9" d="M71.0622 10.8543C63.7069 11.796 57.7005 13.5012 51.6433 17.9551C52.2286 13.3485 53.3739 5.61136 57.5987 3.90614C62.4089 1.97185 67.7027 7.57109 71.0622 10.8543Z" fill="var(--fill-0, #F9FBFC)"/>
<path id="Vector_10" d="M40.7504 43.6607C24.5892 49.5654 27.7196 43.8643 28.2541 43.8389C28.7377 43.8389 29.9593 44.6279 30.9519 44.5006C32.5044 42.0828 31.0791 39.1813 31.6899 36.1272C34.8204 35.8218 37.569 35.9491 41.1576 34.9565C41.5139 37.8833 41.0303 40.3266 40.7504 43.6353V43.6607Z" fill="var(--fill-0, #F9FBFC)"/>
<path id="Vector_11" d="M12.4238 107.848C12.4492 106.703 12.0675 105.1 10.7949 104.82C9.57329 104.54 7.94444 105.66 8.2753 106.958C5.95929 105.812 2.62525 103.573 3.31242 100.671C3.77053 98.8133 8.30075 96.2172 9.90415 97.2098C11.9911 98.5078 14.5362 100.722 15.7324 102.682C17.0303 104.82 13.3909 106.627 12.4238 107.823V107.848Z" fill="var(--fill-0, #F9FBFC)"/>
<path id="Vector_12" d="M32.5044 121.77C32.4535 120.828 32.1989 119.581 31.0537 119.149C30.0865 118.792 29.1703 119.759 28.8395 120.701C27.6178 120.396 27.0579 119.861 26.9816 119.301C26.6507 117.393 28.7377 115.865 30.0611 112.455C32.3008 113.728 35.3548 113.499 37.6199 115.255C39.0452 116.349 38.2817 120.625 37.2636 121.974C35.9402 123.679 33.6496 122.559 32.5298 121.77H32.5044Z" fill="var(--fill-0, #F9FBFC)"/>
<path id="Vector_13" d="M40.5977 28.7209C39.6815 28.441 38.129 28.3646 37.3909 29.5099C36.9582 30.1971 37.5945 31.5206 37.9254 32.4368C36.1947 33.0222 33.6242 33.6076 32.148 32.4877C31.3336 29.8662 31.9953 23.8598 35.2021 22.7908C38.867 21.5437 40.4959 26.2267 40.5977 28.7464V28.7209Z" fill="var(--fill-0, #F9FBFC)"/>
<path id="Vector_14" d="M66.6083 99.7295C65.183 97.8461 64.954 95.8355 64.9031 93.5194C66.8882 93.0613 68.8734 91.2797 70.7822 91.8906C72.0038 92.5523 73.0473 95.9882 72.2838 97.2862C71.393 98.8133 69.0006 98.5333 66.6337 99.704L66.6083 99.7295Z" fill="var(--fill-0, #F9FBFC)"/>
<path id="Vector_15" d="M67.6518 102.529C68.5171 101.511 71.393 100.62 72.5637 101.053C73.9381 101.587 72.8946 104.056 72.3856 105.176C71.9529 106.143 70.4004 106.372 69.2552 105.711C68.4407 105.252 66.5828 103.751 67.6518 102.504V102.529Z" fill="var(--fill-0, #F9FBFC)"/>
<path id="Vector_16" d="M98.5489 33.2767C98.9307 34.4729 99.2361 35.6946 99.4651 36.9417C97.9635 37.0435 95.1894 38.5196 94.5531 36.2545C93.8405 33.7857 96.691 33.6585 98.5489 33.2767Z" fill="var(--fill-0, #E4D66D)"/>
<path id="Vector_17" d="M50.9816 23.478C51.8469 22.4854 52.7631 21.5692 53.7557 20.7293C54.901 21.5692 57.6496 23.4526 55.1809 25.1069C53.603 26.1758 52.2541 23.249 50.9816 23.478Z" fill="var(--fill-0, #E4D66D)"/>
<path id="Vector_18" d="M70.9095 13.9848C71.1385 15.5373 71.6475 18.4133 69.2297 18.4896C67.3718 18.5405 67.27 15.919 67.3464 14.3411C68.5171 14.1375 69.7133 14.0102 70.9095 13.9848Z" fill="var(--fill-0, #E4D66D)"/>
<path id="Vector_19" d="M89.2085 63.8435C88.165 64.6579 87.0706 65.396 85.9508 66.0577C85.2127 65.4978 84.7037 64.8869 84.551 64.1234C84.4492 63.5635 84.6783 62.2146 85.849 62.0364C87.4778 61.7819 88.2923 63.4362 89.2085 63.8689V63.8435Z" fill="var(--fill-0, #E4D66D)"/>
<path id="Vector_20" d="M40.5977 28.7209C40.6486 29.5863 42.0993 30.7316 41.183 31.5969C40.2668 32.4623 38.9943 32.4114 37.9254 32.4368C37.5945 31.5206 36.9582 30.2226 37.3909 29.5099C38.129 28.3646 39.6815 28.441 40.5977 28.7209Z" fill="var(--fill-0, #E4D66D)"/>
<path id="Vector_21" d="M65.3866 68.9846C64.4195 68.7555 63.4778 68.4755 62.5616 68.1447C62.7143 66.2868 62.7652 64.1489 64.6231 64.1234C65.972 64.1234 66.6083 65.3451 66.481 66.0831C66.3283 66.9485 65.9211 67.7375 65.3866 68.9846Z" fill="var(--fill-0, #EDDA6C)"/>
<path id="Vector_22" d="M50.3453 59.4913C49.6327 58.626 48.971 57.7097 48.3856 56.768C49.3273 55.5209 49.9126 54.8083 50.5744 54.6047C51.7196 54.2484 53.0685 54.9101 52.9667 56.5135C52.8904 57.7606 51.4397 58.3206 50.3453 59.4913Z" fill="var(--fill-0, #E4D66D)"/>
<path id="Vector_23" d="M81.0388 68.2719C79.6645 68.7301 78.2647 69.1118 76.8395 69.3663C77.0431 68.2974 76.7122 66.8212 77.7811 65.8286C78.5701 65.0906 79.6899 65.4469 80.2499 66.0322C80.708 66.5158 80.9116 67.483 81.0643 68.2719H81.0388Z" fill="var(--fill-0, #EDDA6C)"/>
<path id="Vector_24" d="M12.4238 107.848C11.5584 108.917 10.4386 109.503 9.47148 108.485C9.11517 108.103 8.63161 107.594 8.2753 106.958C7.91899 105.66 9.57329 104.565 10.7949 104.82C12.0675 105.1 12.4747 106.678 12.4238 107.848Z" fill="var(--fill-0, #E4D66D)"/>
<path id="Vector_25" d="M110.689 55.3173L108.806 55.75C108.246 55.3173 107.762 54.961 107.431 54.5793C106.668 53.6121 107.253 52.4668 107.864 52.085C108.958 51.4233 110.154 51.6524 110.562 52.5177C110.969 53.3831 110.714 54.4265 110.689 55.3428V55.3173Z" fill="var(--fill-0, #EDDA6C)"/>
<path id="Vector_26" d="M32.5044 121.77C30.621 121.719 29.5775 121.465 28.814 120.701C29.1449 119.759 30.0865 118.792 31.0282 119.149C32.1735 119.581 32.4535 120.828 32.4789 121.77H32.5044Z" fill="var(--fill-0, #E4D66D)"/>
<path id="Vector_27" d="M67.2955 57.6334C66.1247 57.837 64.9285 57.8624 63.7578 57.6843C60.2965 56.4372 57.6751 54.2229 57.3951 51.347C57.0897 48.0383 58.6931 45.1878 61.9254 44.3225C64.4959 43.6098 67.55 44.7042 69.5097 46.9439C71.2149 48.9037 71.6984 51.2706 71.3167 53.4085C70.884 55.7246 69.0516 56.4881 67.3464 57.6334H67.2955ZM68.2371 53.1031C69.3061 50.5325 67.4227 48.7255 66.2011 47.8602C64.7249 46.8167 62.5107 46.4604 60.9837 48.191C59.1512 50.3035 60.9837 52.8486 62.3071 53.8666C64.0632 55.2664 67.1936 55.5973 68.2371 53.1031Z" fill="var(--fill-0, #226E77)"/>
<path id="Vector_28" d="M63.0452 33.7857C64.7249 34.6765 63.5542 37.1453 62.5616 38.1379C61.6454 39.0795 59.6602 40.5303 58.1078 38.9777C57.0897 37.9597 57.9296 35.9236 58.6422 35.1855C59.4566 34.3202 61.06 32.7422 63.0197 33.7603L63.0452 33.7857Z" fill="var(--fill-0, #226E77)"/>
<path id="Vector_29" d="M81.217 49.1836C82.3114 51.8305 79.1809 54.6302 76.7377 54.4775C74.8543 52.7722 75.9996 51.0925 77.0431 49.9217C77.8066 49.0564 80.428 47.2748 81.2424 49.2091L81.217 49.1836Z" fill="var(--fill-0, #226E77)"/>
<path id="Vector_30" d="M95.4694 45.9259C96.5517 45.9259 97.4291 45.0485 97.4291 43.9662C97.4291 42.8838 96.5517 42.0064 95.4694 42.0064C94.387 42.0064 93.5097 42.8838 93.5097 43.9662C93.5097 45.0485 94.387 45.9259 95.4694 45.9259Z" fill="var(--fill-0, #EDDA6C)"/>
<path id="Vector_31" d="M67.7536 35.0074C68.8359 35.0074 69.7133 34.13 69.7133 33.0476C69.7133 31.9653 68.8359 31.0879 67.7536 31.0879C66.6713 31.0879 65.7939 31.9653 65.7939 33.0476C65.7939 34.13 66.6713 35.0074 67.7536 35.0074Z" fill="var(--fill-0, #EDDA6C)"/>
<path id="Vector_32" d="M79.7154 61.0184C80.7555 61.0184 81.5987 60.1752 81.5987 59.135C81.5987 58.0948 80.7555 57.2516 79.7154 57.2516C78.6752 57.2516 77.832 58.0948 77.832 59.135C77.832 60.1752 78.6752 61.0184 79.7154 61.0184Z" fill="var(--fill-0, #EDDA6C)"/>
<path id="Vector_33" d="M72.1311 64.4797C73.1853 64.4797 74.0399 63.6251 74.0399 62.5709C74.0399 61.5167 73.1853 60.6621 72.1311 60.6621C71.0769 60.6621 70.2223 61.5167 70.2223 62.5709C70.2223 63.6251 71.0769 64.4797 72.1311 64.4797Z" fill="var(--fill-0, #EDDA6C)"/>
<path id="Vector_34" d="M87.1979 57.5061C88.238 57.5061 89.0812 56.6629 89.0812 55.6228C89.0812 54.5826 88.238 53.7394 87.1979 53.7394C86.1577 53.7394 85.3145 54.5826 85.3145 55.6228C85.3145 56.6629 86.1577 57.5061 87.1979 57.5061Z" fill="var(--fill-0, #EDDA6C)"/>
<path id="Vector_35" d="M81.2933 44.6279C82.3616 44.6279 83.2276 43.7619 83.2276 42.6936C83.2276 41.6253 82.3616 40.7593 81.2933 40.7593C80.2251 40.7593 79.3591 41.6253 79.3591 42.6936C79.3591 43.7619 80.2251 44.6279 81.2933 44.6279Z" fill="var(--fill-0, #EDDA6C)"/>
<path id="Vector_36" d="M52.6359 41.8792C53.7182 41.8792 54.5956 41.0018 54.5956 39.9194C54.5956 38.8371 53.7182 37.9597 52.6359 37.9597C51.5535 37.9597 50.6762 38.8371 50.6762 39.9194C50.6762 41.0018 51.5535 41.8792 52.6359 41.8792Z" fill="var(--fill-0, #EDDA6C)"/>
<path id="Vector_37" d="M75.2615 31.546C76.3157 31.546 77.1703 30.6914 77.1703 29.6372C77.1703 28.583 76.3157 27.7284 75.2615 27.7284C74.2073 27.7284 73.3527 28.583 73.3527 29.6372C73.3527 30.6914 74.2073 31.546 75.2615 31.546Z" fill="var(--fill-0, #EDDA6C)"/>
<path id="Vector_38" d="M68.4662 26.7358C69.5344 26.7358 70.4004 25.8698 70.4004 24.8015C70.4004 23.7332 69.5344 22.8672 68.4662 22.8672C67.3979 22.8672 66.5319 23.7332 66.5319 24.8015C66.5319 25.8698 67.3979 26.7358 68.4662 26.7358Z" fill="var(--fill-0, #EDDA6C)"/>
<path id="Vector_39" d="M61.8236 21.951C62.8778 21.951 63.7324 21.0963 63.7324 20.0421C63.7324 18.9879 62.8778 18.1333 61.8236 18.1333C60.7694 18.1333 59.9148 18.9879 59.9148 20.0421C59.9148 21.0963 60.7694 21.951 61.8236 21.951Z" fill="var(--fill-0, #EDDA6C)"/>
<path id="Vector_40" d="M53.4248 33.5567C54.479 33.5567 55.3336 32.702 55.3336 31.6478C55.3336 30.5936 54.479 29.739 53.4248 29.739C52.3706 29.739 51.516 30.5936 51.516 31.6478C51.516 32.702 52.3706 33.5567 53.4248 33.5567Z" fill="var(--fill-0, #EDDA6C)"/>
<path id="Vector_41" d="M87.9614 49.3618C89.0297 49.3618 89.8957 48.4958 89.8957 47.4275C89.8957 46.3592 89.0297 45.4932 87.9614 45.4932C86.8932 45.4932 86.0272 46.3592 86.0272 47.4275C86.0272 48.4958 86.8932 49.3618 87.9614 49.3618Z" fill="var(--fill-0, #EDDA6C)"/>
<path id="Vector_42" d="M51.8978 50.1253C52.966 50.1253 53.832 49.2593 53.832 48.191C53.832 47.1228 52.966 46.2568 51.8978 46.2568C50.8295 46.2568 49.9635 47.1228 49.9635 48.191C49.9635 49.2593 50.8295 50.1253 51.8978 50.1253Z" fill="var(--fill-0, #EDDA6C)"/>
<path id="Vector_43" d="M57.8787 63.0799C58.9048 63.0799 59.7366 62.2481 59.7366 61.222C59.7366 60.1959 58.9048 59.3641 57.8787 59.3641C56.8526 59.3641 56.0208 60.1959 56.0208 61.222C56.0208 62.2481 56.8526 63.0799 57.8787 63.0799Z" fill="var(--fill-0, #EDDA6C)"/>
<path id="Vector_44" d="M88.7758 41.0393C89.83 41.0393 90.6846 40.1847 90.6846 39.1304C90.6846 38.0762 89.83 37.2216 88.7758 37.2216C87.7216 37.2216 86.867 38.0762 86.867 39.1304C86.867 40.1847 87.7216 41.0393 88.7758 41.0393Z" fill="var(--fill-0, #EDDA6C)"/>
<path id="Vector_45" d="M74.5234 39.7922C75.5777 39.7922 76.4323 38.9376 76.4323 37.8833C76.4323 36.8291 75.5777 35.9745 74.5234 35.9745C73.4692 35.9745 72.6146 36.8291 72.6146 37.8833C72.6146 38.9376 73.4692 39.7922 74.5234 39.7922Z" fill="var(--fill-0, #EDDA6C)"/>
<path id="Vector_46" d="M94.7058 53.9939C95.746 53.9939 96.5892 53.1507 96.5892 52.1105C96.5892 51.0703 95.746 50.2271 94.7058 50.2271C93.6657 50.2271 92.8225 51.0703 92.8225 52.1105C92.8225 53.1507 93.6657 53.9939 94.7058 53.9939Z" fill="var(--fill-0, #EDDA6C)"/>
<path id="Vector_47" d="M81.955 36.2799C83.0233 36.2799 83.8893 35.4139 83.8893 34.3456C83.8893 33.2774 83.0233 32.4114 81.955 32.4114C80.8868 32.4114 80.0208 33.2774 80.0208 34.3456C80.0208 35.4139 80.8868 36.2799 81.955 36.2799Z" fill="var(--fill-0, #EDDA6C)"/>
<path id="Vector_48" d="M89.5139 32.7931C90.5681 32.7931 91.4227 31.9385 91.4227 30.8843C91.4227 29.8301 90.5681 28.9755 89.5139 28.9755C88.4597 28.9755 87.6051 29.8301 87.6051 30.8843C87.6051 31.9385 88.4597 32.7931 89.5139 32.7931Z" fill="var(--fill-0, #EDDA6C)"/>
<path id="Vector_49" d="M60.9582 30.0953C61.9984 30.0953 62.8416 29.2521 62.8416 28.2119C62.8416 27.1718 61.9984 26.3285 60.9582 26.3285C59.9181 26.3285 59.0749 27.1718 59.0749 28.2119C59.0749 29.2521 59.9181 30.0953 60.9582 30.0953Z" fill="var(--fill-0, #EDDA6C)"/>
<path id="Vector_50" d="M82.8204 27.9829C83.8746 27.9829 84.7292 27.1283 84.7292 26.074C84.7292 25.0198 83.8746 24.1652 82.8204 24.1652C81.7662 24.1652 80.9116 25.0198 80.9116 26.074C80.9116 27.1283 81.7662 27.9829 82.8204 27.9829Z" fill="var(--fill-0, #EDDA6C)"/>
<path id="Vector_51" d="M75.9996 23.2999C77.0538 23.2999 77.9084 22.4453 77.9084 21.391C77.9084 20.3368 77.0538 19.4822 75.9996 19.4822C74.9454 19.4822 74.0908 20.3368 74.0908 21.391C74.0908 22.4453 74.9454 23.2999 75.9996 23.2999Z" fill="var(--fill-0, #EDDA6C)"/>
<path id="Vector_52" d="M73.7345 47.9874C74.7746 47.9874 75.6178 47.1442 75.6178 46.104C75.6178 45.0639 74.7746 44.2207 73.7345 44.2207C72.6943 44.2207 71.8511 45.0639 71.8511 46.104C71.8511 47.1442 72.6943 47.9874 73.7345 47.9874Z" fill="var(--fill-0, #EDDA6C)"/>
<path id="Vector_53" d="M67.2955 57.6334C66.3538 58.2442 66.8628 60.713 65.1321 59.8731C64.4704 59.5422 63.9105 58.6005 63.7578 57.6843C64.9285 57.8624 66.1247 57.837 67.2955 57.6334Z" fill="var(--fill-0, #E4D66D)"/>
<path id="Vector_54" d="M49.6327 78.1724C48.5383 81.0229 50.8798 84.2043 48.5383 86.953C46.5531 89.2945 43.7281 91.127 39.9105 90.1344L28.4068 87.1567C35.2785 75.8055 38.7907 71.7587 38.6634 59.6186C41.7175 58.626 41.0049 62.6727 42.2774 63.4108C46.3241 65.7777 50.9816 66.7449 53.5266 71.1734C54.3665 72.6495 53.7048 73.9984 53.5266 75.2455C53.3485 76.6199 50.2689 76.5435 49.6581 78.147L49.6327 78.1724ZM51.6433 73.5658C49.1491 69.3918 45.7387 67.5339 41.5648 66.9485L38.4344 76.1363C42.9137 76.569 47.5203 76.8999 51.6178 73.5403L51.6433 73.5658ZM42.0738 87.4366C45.5097 87.513 47.4439 84.5352 46.8331 81.5065C44.0335 79.4704 39.7578 77.9434 36.5001 79.8522C34.7949 80.8448 34.5404 83.339 33.217 85.0951C35.9911 86.3422 38.6125 87.3094 42.0993 87.4112L42.0738 87.4366Z" fill="var(--fill-0, #226E77)"/>
<path id="Vector_55" d="M109.798 47.173C110.81 47.173 111.631 46.3526 111.631 45.3405C111.631 44.3285 110.81 43.508 109.798 43.508C108.786 43.508 107.966 44.3285 107.966 45.3405C107.966 46.3526 108.786 47.173 109.798 47.173Z" fill="var(--fill-0, #EDDA6C)"/>
<path id="Vector_56" d="M68.2371 53.1031C67.1937 55.5973 64.0632 55.2664 62.3071 53.8666C61.0091 52.8231 59.1512 50.278 60.9837 48.191C62.4853 46.4604 64.7249 46.8167 66.2011 47.8602C67.4482 48.751 69.3315 50.5325 68.2371 53.1031Z" fill="var(--fill-0, #70BC96)"/>
<path id="Vector_57" d="M42.0738 87.4366C38.5871 87.3603 35.9656 86.3677 33.1915 85.1206C34.515 83.3644 34.7949 80.8702 36.4747 79.8776C39.7578 77.9434 44.0081 79.4704 46.8076 81.532C47.4185 84.5606 45.4842 87.5384 42.0484 87.4621L42.0738 87.4366Z" fill="var(--fill-0, #70BC96)"/>
<path id="Vector_58" d="M51.6433 73.5658C47.5203 76.9253 42.9391 76.5944 38.4598 76.1618L41.5903 66.9739C45.7642 67.5593 49.1491 69.4172 51.6687 73.5912L51.6433 73.5658Z" fill="var(--fill-0, #70BC96)"/>
</g>
</svg>
