<svg preserveAspectRatio="none" width="100%" height="100%" overflow="visible" style="display: block;" viewBox="0 0 334.061 444.958" fill="none" xmlns="http://www.w3.org/2000/svg">
<g id="Group">
<path id="Vector" d="M268.756 28.6317C268.142 26.8928 267.17 25.2562 267.81 23.0826H268.73V28.6317H268.756Z" fill="var(--fill-0, #F9FBFC)"/>
<path id="Vector_2" d="M196.713 420.494L173.364 413.64C165.487 411.339 159.81 404.818 152.853 400.854L143.34 395.459C140.041 393.592 136.665 391.802 133.775 389.194C128.967 384.821 125.054 377.61 124.236 371.063C123.903 368.302 128.404 365.847 126.537 362.855C119.556 351.654 129.888 339.763 108.482 313.706C102.344 306.239 96.104 299.079 86.4881 296.01C81.987 294.578 77.2558 293.172 72.3711 295.038C74.4682 288.85 79.404 286.165 83.7005 282.048C95.5669 270.669 106.564 258.931 119.172 248.191C122.292 245.531 125.361 252.129 131.013 251.311C133.238 250.978 132.803 248.242 134.159 246.554C135.105 245.378 137.739 246.145 138.711 245.097C142.521 240.877 136.844 240.494 143.774 234.126C145.897 232.157 143.595 227.964 145.232 226.02C146.536 224.46 150.066 225.458 151.293 223.131C152.853 220.215 151.728 216.635 151.191 213.592C155.027 210.575 160.321 208.12 164.899 206.049L173.338 202.238C168.709 224.026 175.077 251.592 180.371 273.456C181.215 276.959 184.77 297.493 187.634 296.803C188.095 296.675 189.246 296.01 188.913 295.064C185.179 284.656 178.914 253.229 176.791 241.184C174.796 229.856 173.85 218.4 175.563 206.969C175.87 204.898 177.686 203.185 175.461 201.062C183.491 196.357 191.061 190.833 200.319 187.714C221.213 200.525 222.876 198.275 242.849 191.549C247.095 190.117 250.675 193.084 251.238 196.843C252.235 203.696 256.583 206.867 260.905 211.265C265.61 215.996 270.06 221.187 278.014 219.116C278.986 220.778 278.883 222.363 280.009 223.591C280.674 224.307 281.952 223.872 282.438 223.386C282.924 222.9 283.154 221.52 283.768 220.855C285.737 218.656 287.681 222.824 289.036 222.594C291.875 222.082 294.151 220.011 297.476 220.855C302.13 222.005 306.683 221.801 311.158 222.287C310.263 223.821 309.061 224.665 309.496 225.816C309.93 226.966 310.774 227.503 312.386 227.12C313.818 226.787 313.204 225.227 313.051 223.361C314.815 222.057 318.677 222.159 321.158 223.105C322.002 223.437 323.255 225.637 323.587 226.532L330.109 244.662C330.339 249.342 323.485 250.058 321.004 251.976C314.764 256.757 310.416 262.69 302.412 265.119C302.795 270.694 300.263 274.786 299.138 279.695C297.195 288.108 307.399 301.073 294.074 306.75C291.185 307.978 288.832 310.433 285.686 311.123C278.73 312.657 265.968 315.752 268.961 326.543L275.891 351.68C278.039 359.454 279.855 366.921 283.359 373.774C286.581 380.116 282.771 385.358 278.525 389.117C255.406 409.574 251.519 401.954 245.228 405.304C240.215 407.963 234.896 411.492 230.753 415.251C221.955 423.255 208.963 424.125 196.662 420.519L196.713 420.494ZM245.739 197.687C245.739 196.562 244.844 195.667 243.719 195.667C242.593 195.667 241.698 196.562 241.698 197.687C241.698 198.812 242.593 199.707 243.719 199.707C244.844 199.707 245.739 198.812 245.739 197.687ZM254.818 254.251C253.232 245.813 255.687 229.319 240.727 225.432C233.924 223.668 230.829 219.167 228.297 213.004C226.558 208.759 224.87 204.796 227.402 199.809C217.505 199.553 226.712 216.968 228.707 220.573C231.008 224.742 235.484 226.89 239.857 228.347C254.025 233.129 249.524 246.529 252.337 257.116C253.13 260.056 261.595 284.17 264.255 279.184C265.073 277.624 256.71 264.25 254.792 254.226L254.818 254.251ZM250.931 204.387C250.931 203.287 250.036 202.417 248.961 202.417C247.887 202.417 246.992 203.312 246.992 204.387C246.992 205.461 247.887 206.356 248.961 206.356C250.036 206.356 250.931 205.461 250.931 204.387ZM256.097 210.907C256.097 209.705 255.125 208.759 253.948 208.759C252.772 208.759 251.8 209.731 251.8 210.907C251.8 212.084 252.772 213.055 253.948 213.055C255.125 213.055 256.097 212.084 256.097 210.907ZM136.895 337.027L140.961 318.616L146.051 292.072C148.148 281.102 148.148 270.285 149.401 259.238C151.191 243.435 155.615 228.756 163.492 215.255C163.978 214.411 163.211 212.979 162.648 212.902C161.958 212.825 161.242 213.183 160.73 214.001C150.935 230.649 146.46 249.47 145.539 268.904C144.951 281.409 142.905 292.993 140.373 305.19C137.841 317.363 136.23 328.64 132.394 341.374C135.361 342.397 136.383 339.508 136.921 337.027H136.895ZM274.97 223.207C274.97 222.031 274.024 221.085 272.848 221.085C271.671 221.085 270.725 222.031 270.725 223.207C270.725 224.384 271.671 225.33 272.848 225.33C274.024 225.33 274.97 224.384 274.97 223.207ZM305.174 226.455C305.174 225.304 304.227 224.358 303.077 224.358C301.926 224.358 300.979 225.304 300.979 226.455C300.979 227.606 301.926 228.552 303.077 228.552C304.227 228.552 305.174 227.606 305.174 226.455ZM296.785 227.503C296.785 226.327 295.814 225.355 294.637 225.355C293.461 225.355 292.489 226.327 292.489 227.503C292.489 228.68 293.461 229.651 294.637 229.651C295.814 229.651 296.785 228.68 296.785 227.503ZM288.474 228.577C288.474 227.401 287.527 226.481 286.377 226.481C285.226 226.481 284.28 227.427 284.28 228.577C284.28 229.728 285.226 230.674 286.377 230.674C287.527 230.674 288.474 229.728 288.474 228.577ZM204.027 360.17L199.501 341.707L191.445 309.41C191.189 308.412 190.268 308.054 189.731 308.054C189.246 308.054 188.504 308.285 188.427 308.643C188.325 309.231 188.606 309.921 188.785 310.663L197.122 344.648L200.089 356.564C203.516 370.347 207.147 383.9 213.567 396.635C213.95 397.402 214.487 397.914 214.845 398.144C215.715 398.655 215.894 397.863 216.252 397.607C216.61 397.351 216.789 395.868 216.431 395.305C211.597 387.455 206.38 369.708 204.027 360.195V360.17Z" fill="var(--fill-0, #EDDA6C)"/>
<path id="Vector_3" d="M136.895 337.027C136.358 339.508 135.309 342.397 132.368 341.374C136.23 328.64 137.841 317.363 140.348 305.19C142.879 292.993 144.925 281.434 145.514 268.904C146.434 249.47 150.935 230.649 160.705 214.001C161.191 213.158 161.932 212.8 162.623 212.902C163.185 212.979 163.953 214.411 163.467 215.254C155.564 228.756 151.14 243.435 149.375 259.238C148.122 270.285 148.148 281.076 146.025 292.072L140.936 318.616L136.869 337.027H136.895Z" fill="var(--fill-0, #226E77)"/>
<path id="Vector_4" d="M254.818 254.251C256.71 264.25 265.099 277.65 264.28 279.209C261.621 284.196 253.156 260.082 252.363 257.141C249.55 246.554 254.025 233.129 239.883 228.373C235.509 226.89 231.034 224.767 228.732 220.599C226.737 216.968 217.531 199.553 227.428 199.835C224.896 204.796 226.558 208.759 228.323 213.03C230.855 219.193 233.949 223.693 240.752 225.458C255.713 229.345 253.258 245.864 254.843 254.277L254.818 254.251Z" fill="var(--fill-0, #226E77)"/>
<path id="Vector_5" d="M204.027 360.17C206.355 369.657 211.572 387.429 216.431 395.28C216.789 395.868 216.636 397.326 216.252 397.581C215.868 397.837 215.715 398.63 214.845 398.118C214.462 397.888 213.95 397.402 213.567 396.61C207.147 383.875 203.516 370.322 200.089 356.539L197.122 344.622L188.785 310.637C188.606 309.921 188.325 309.205 188.427 308.617C188.504 308.259 189.245 308.029 189.731 308.029C190.268 308.029 191.189 308.387 191.445 309.384L199.501 341.681L204.027 360.144V360.17Z" fill="var(--fill-0, #226E77)"/>
<path id="Vector_6" d="M253.923 213.055C255.109 213.055 256.071 212.094 256.071 210.907C256.071 209.721 255.109 208.759 253.923 208.759C252.736 208.759 251.775 209.721 251.775 210.907C251.775 212.094 252.736 213.055 253.923 213.055Z" fill="var(--fill-0, #226E77)"/>
<path id="Vector_7" d="M294.612 229.651C295.798 229.651 296.76 228.69 296.76 227.503C296.76 226.317 295.798 225.355 294.612 225.355C293.425 225.355 292.463 226.317 292.463 227.503C292.463 228.69 293.425 229.651 294.612 229.651Z" fill="var(--fill-0, #226E77)"/>
<path id="Vector_8" d="M286.377 230.674C287.535 230.674 288.474 229.735 288.474 228.577C288.474 227.419 287.535 226.481 286.377 226.481C285.218 226.481 284.279 227.419 284.279 228.577C284.279 229.735 285.218 230.674 286.377 230.674Z" fill="var(--fill-0, #226E77)"/>
<path id="Vector_9" d="M272.873 225.33C274.046 225.33 274.996 224.38 274.996 223.207C274.996 222.035 274.046 221.085 272.873 221.085C271.701 221.085 270.751 222.035 270.751 223.207C270.751 224.38 271.701 225.33 272.873 225.33Z" fill="var(--fill-0, #226E77)"/>
<path id="Vector_10" d="M303.077 228.552C304.235 228.552 305.174 227.613 305.174 226.455C305.174 225.297 304.235 224.358 303.077 224.358C301.918 224.358 300.979 225.297 300.979 226.455C300.979 227.613 301.918 228.552 303.077 228.552Z" fill="var(--fill-0, #226E77)"/>
<path id="Vector_11" d="M243.719 199.707C244.835 199.707 245.739 198.802 245.739 197.687C245.739 196.571 244.835 195.667 243.719 195.667C242.603 195.667 241.698 196.571 241.698 197.687C241.698 198.802 242.603 199.707 243.719 199.707Z" fill="var(--fill-0, #70BC96)"/>
<path id="Vector_12" d="M248.961 206.356C250.049 206.356 250.931 205.474 250.931 204.386C250.931 203.299 250.049 202.417 248.961 202.417C247.874 202.417 246.992 203.299 246.992 204.386C246.992 205.474 247.874 206.356 248.961 206.356Z" fill="var(--fill-0, #226E77)"/>
<path id="Vector_13" d="M268.858 84.2759C269.523 84.0713 270.188 83.7644 270.776 83.4064C271.185 89.6459 274.74 95.911 280.878 99.4144C280.546 91.4871 279.881 84.9152 282.234 78.0108C288.781 82.9717 291.824 89.5437 296.555 95.2717C305.148 105.654 313.306 110.103 317.986 123.094C321.03 131.533 323.843 139.46 324.38 148.001C325.454 165.006 328.983 182.625 323.587 199.272L319.802 210.958C318.856 213.848 319.061 216.687 317.91 219.09C311.132 219.96 304.458 218.502 297.348 218.042L277.042 216.738C272.822 216.456 269.114 216.022 266.403 212.135C263.922 208.555 258.833 206.381 256.864 202.417C252.388 193.416 249.652 183.571 242.031 176.411C233.924 168.816 227.914 157.923 230.241 146.466C231.111 142.17 236.89 142.631 239.755 142.605C243.821 142.528 247.12 139.92 249.908 137.44L276.249 114.067C275.584 111.945 273.359 112.456 272.106 113.556L245.56 136.979C242.619 139.562 236.839 141.429 234.307 138.028L224.819 125.293C224.001 124.193 222.518 123.58 222.364 122.455C221.52 116.496 245.279 98.9541 239.525 97.3175C237.99 96.8828 230.241 107.086 225.638 111.229C222.032 114.476 220.446 118.516 218.068 122.327C216.994 124.066 203.337 138.641 201.496 137.082L201.419 133.962C202.57 133.911 203.746 133.706 204.206 132.939C204.82 131.916 204.488 130.152 205.076 128.924C210.881 116.675 214.359 116.062 218.502 107.009C221.52 100.386 225.049 94.3 227.428 87.4468C230.983 88.9555 239.09 93.1493 238.169 88.4952C238.041 87.8815 237.248 87.7536 236.123 87.4468C224.41 84.2503 216.226 73.5102 215.152 61.7983C219.5 61.517 221.827 57.8347 224.333 54.6126C237.274 37.9654 227.505 32.9533 235.484 26.5348C236.583 44.0515 237.581 37.6074 231.136 50.9559C230.701 51.8764 233.54 52.3367 234.256 51.3139C243.463 38.1955 236.379 33.5926 239.652 26.4581C243.974 17.0988 252.721 37.6585 253.386 43.1565C253.846 46.8388 255.611 48.6288 257.043 51.6207C262.286 62.6677 258.935 76.6043 250.394 84.9407C249.447 85.8613 248.399 86.1682 248.936 87.2166C251.544 92.3566 258.322 78.4199 259.805 78.7012C264.741 79.673 261.749 85.7846 266.429 88.2651C267.196 88.6742 268.449 87.7792 268.577 87.1399C268.705 86.4239 269.395 84.8896 268.935 84.3014L268.858 84.2759ZM252.209 59.4201C255.074 59.6503 254.767 55.7378 254.562 54.3058C254.409 53.1295 253.539 50.828 251.212 51.544C248.68 52.3367 249.575 59.19 252.209 59.3945V59.4201ZM246.02 54.6638C245.867 53.8199 245.509 53.3085 245.125 53.334C241.059 53.513 243.974 61.875 247.938 64.5345C247.325 66.5802 245.662 67.4752 245.586 69.4698C248.245 70.774 249.729 68.4981 250.445 67.1684C253.463 61.4914 247.529 62.4887 246.02 54.6893V54.6638ZM232.773 63.128C235.177 61.5426 233.668 54.6382 230.957 54.3825C227.939 54.0756 228.016 57.8091 228.297 59.5224C228.553 61.1078 229.934 64.9692 232.773 63.128ZM241.161 80.2355C242.67 80.4912 244.077 80.031 244.409 78.8802C244.921 77.0646 245.279 75.2235 242.951 74.6609C242.747 73.7403 242.568 72.7941 242.108 72.2571C241.315 71.3877 239.627 70.6717 238.169 71.2087C235.586 72.1549 233.054 74.3285 232.236 76.9368C231.417 79.5451 232.594 82.179 234.307 82.8694C236.916 83.9434 239.678 83.0229 241.187 80.2355H241.161Z" fill="var(--fill-0, #F9FBFC)"/>
<path id="Vector_14" d="M250.215 3.64807C251.519 4.05722 252.491 5.31024 253.846 5.59153C257.81 9.45287 262.081 13.3142 264.894 18.5308C265.84 20.2953 265.84 22.5456 267.81 23.0826C267.17 25.2562 268.142 26.8928 268.756 28.6317C269.804 31.598 270.93 34.6922 270.623 37.812C270.418 39.8066 271.083 50.828 273.538 50.7769L273.615 51.5696C273.947 55.5588 277.4 59.2923 280.622 61.7471C282.208 65.0459 282.413 68.9072 282.95 72.8964C283.359 75.8883 286.811 76.4765 288.346 78.4711L303.281 97.7266C305.199 100.182 307.936 101.92 309.93 104.043C332.538 127.773 329.597 166.489 330.083 189.759L330.441 206.739C330.543 211.393 329.086 215.587 325.556 218.604C323.127 220.701 325.531 222.568 326.247 224.537C328.318 230.24 329.904 235.763 332.947 241.082C338.292 250.441 323.076 252.666 315.276 262.102C313.153 264.685 308.677 265.733 306.273 267.804C304.458 281.92 299.854 275.297 304.125 291.995C306.401 300.818 302.488 307.313 294.432 310.688C290.724 312.248 287.937 315.036 283.129 315.266C279.702 315.419 274.382 317.9 273.129 321.454C270.904 327.745 277.502 340.019 278.551 347.026C279.446 352.959 282.975 365.08 286.044 370.245C290.392 377.533 288.141 385.537 282.08 390.728L276.121 395.842C272.029 399.371 268.142 402.031 263.155 404.358C248.936 411.032 251.877 403.36 239.115 413.206L229.039 420.979C223.592 425.199 213.209 427.27 205.843 426.094C193.005 424.074 181.445 419.445 169.093 415.993C165.845 415.072 149.733 402.389 140.271 397.505C126.64 390.472 129.223 390.012 122.19 377.686C119.632 373.211 119.99 368.506 123.673 364.466C120.093 360.962 120.195 356.718 120.246 352.396C120.297 348.688 119.223 345.287 119.683 340.812C113.495 343.395 108.073 345.926 102.523 349.225C98.7382 351.501 95.2345 354.212 91.4495 356.487L70.1206 369.324C67.2818 371.038 65.4405 373.007 62.9853 375.283C60.7092 377.38 56.3872 379.195 56.2081 383.082C55.5688 396.942 47.7942 396.021 43.5745 423.485C42.1423 432.768 35.5953 442.051 26.0561 444.505C20.353 445.989 12.425 443.662 8.15409 439.954C4.67599 436.936 2.27201 432.026 0.890997 427.909C-2.94514 416.351 6.69636 403.002 9.17706 396.431C15.5451 379.476 8.89574 383.594 24.7262 369.555C28.0253 366.639 31.708 366.46 35.1861 369.35C44.7253 352.933 53.1904 353.7 66.847 341.426C64.8523 339.073 61.1696 338.025 57.7426 336.72C50.5051 333.959 44.3417 330.327 37.8714 325.98C32.3473 322.272 28.6391 316.647 24.7774 311.277C21.9642 307.338 23.2941 303.119 26.3374 299.744C40.6334 283.915 60.5302 305.344 66.7447 296.752C70.1206 292.072 72.5757 286.983 77.0256 282.764L101.168 259.954C105.592 255.786 109.531 250.697 114.364 247.552C118.072 245.122 116.998 243.869 117.254 240.161L119.99 201.267C120.246 197.61 122.241 195.59 123.648 192.854C126.895 186.537 131.32 182.267 137.509 178.712L170.525 159.687L196.151 143.014C198.401 141.557 200.038 138.82 201.419 137.03C203.286 138.565 216.917 124.014 217.991 122.276C220.344 118.44 221.929 114.399 225.561 111.177C230.164 107.06 237.913 96.8316 239.448 97.2663C245.202 98.9029 221.444 116.445 222.287 122.403C222.441 123.529 223.899 124.117 224.743 125.242L234.231 137.977C236.763 141.378 242.568 139.536 245.483 136.928L272.029 113.504C273.283 112.405 275.508 111.893 276.172 114.016L249.831 137.388C247.043 139.869 243.744 142.503 239.678 142.554C236.814 142.605 231.034 142.119 230.164 146.415C227.837 157.871 233.847 168.765 241.954 176.36C249.575 183.494 252.312 193.339 256.787 202.366C258.756 206.356 263.871 208.529 266.326 212.084C269.037 215.971 272.745 216.431 276.965 216.687L297.271 217.991C304.381 218.451 311.056 219.883 317.833 219.039C326.963 217.863 326.682 205.128 326.63 198.991L326.554 191.243C326.451 181.039 328.497 177.92 326.989 167.384C326.554 164.29 326.349 148.435 324.303 147.975C323.766 139.434 320.953 131.507 317.91 123.068C313.23 110.078 305.071 105.628 296.478 95.2462C291.747 89.5437 288.704 82.9461 282.157 77.9852C279.804 84.8896 280.469 91.4871 280.801 99.3888C274.664 95.911 271.109 89.6204 270.7 83.3809C270.521 80.8748 270.802 78.1131 267.196 77.1413C267.068 79.4428 267.247 82.2301 268.756 84.2503C269.191 84.8385 268.5 86.3728 268.398 87.0888C268.296 87.7536 267.017 88.6231 266.25 88.2139C261.57 85.7335 264.536 79.6218 259.626 78.6501C258.168 78.3688 251.391 92.3054 248.757 87.1655C248.22 86.117 249.268 85.8102 250.215 84.8896C258.756 76.5532 262.107 62.6166 256.864 51.5696C255.457 48.5777 253.667 46.7877 253.207 43.1053C252.542 37.6074 243.77 17.0477 239.473 26.407C236.2 33.5415 243.284 38.1444 234.077 51.2627C233.361 52.2856 230.522 51.8253 230.957 50.9047C237.402 37.5562 236.379 44.0003 235.305 26.4837C227.351 32.9278 237.095 37.9398 224.154 54.5615C221.648 57.7835 219.321 61.4659 214.973 61.7471C214.794 59.8548 215.638 59.0877 217.173 57.5022C229.832 44.5118 221.546 49.4215 227.095 41.5966C229.627 38.0421 226.814 25.2307 236.353 20.4999C238.271 19.5537 240.445 21.7529 242.005 20.6789C242.951 20.0396 243.284 18.6076 244.153 18.4541C245.074 18.2751 246.404 18.403 246.583 19.7071C246.762 21.0113 246.404 22.2643 246.89 23.1082C247.504 24.2078 248.68 24.7192 250.061 25.0005C253.258 25.6909 250.956 28.4015 251.826 30.9076C252.337 32.3652 255.79 30.7542 257.222 32.7232C259.396 35.6639 249.447 32.9022 260.623 50.9303L262.465 61.9773C265.048 58.5251 263.769 54.1779 262.209 50.828C263.053 49.4727 262.848 47.4525 263.974 45.8671C264.766 44.7419 266.915 45.5858 267.912 44.5885C266.48 39.6787 268.705 33.4648 265.892 33.4392C264.817 33.4392 263.615 34.9991 262.72 34.5899C261.365 33.9762 261.084 32.9022 261.416 31.777C261.774 30.6007 263.871 30.6774 265.073 30.4473C266.71 25.9722 262.286 21.8552 260.368 18.7354C258.603 15.8458 257.912 13.9791 254.997 12.3936C253.283 11.473 253.079 7.91856 249.908 7.07469C247.094 6.33311 244.895 5.38695 242.108 8.48114C241.136 6.56326 240.496 5.4381 239.78 4.92666C238.757 4.21065 236.558 3.8015 236.277 5.2591C236.046 6.48654 236.225 7.45827 235.842 8.19985C235.407 9.01815 233.847 9.55515 233.029 8.37885C232.364 7.45827 232.568 5.74496 231.827 5.4381C230.829 5.00338 229.193 5.13124 228.425 5.51481C227.402 6.00068 228.042 7.7907 227.786 9.12043C227.479 10.5269 224.564 10.5013 224.385 9.146C224.078 6.81897 223.822 5.87282 221.904 6.10296C217.403 6.6144 221.06 10.578 218.144 11.294C217.147 11.5242 216.559 10.4246 215.382 10.1177C211.981 9.24829 207.275 12.7261 206.687 15.9737C206.559 16.7153 208.349 17.6358 208.298 18.1473C208.247 18.94 207.633 19.9117 206.815 20.1674C205.92 20.4232 204.974 20.0396 203.695 18.6843C200.115 22.2132 196.969 27.2508 197.557 32.314C199.552 31.9049 200.856 31.6236 201.47 32.4419C202.212 33.4392 202.135 35.0246 200.677 35.5361C199.475 35.9452 197.915 35.6895 197.276 36.4822C196.202 37.7864 197.838 39.4997 197.838 40.9573C197.813 45.3301 196.79 49.933 198.836 53.9733C199.271 54.8428 200.728 55.0985 200.831 55.9935C200.933 56.8885 199.654 57.4255 199.475 58.4995C197.634 69.1118 202.288 69.0351 202.749 69.9045C204.846 73.9704 195.69 67.1939 206.892 89.5181C207.25 90.2597 209.5 89.825 209.73 90.6944C210.14 92.3566 208.503 93.9676 209.449 96.5503C210.037 98.1613 213.157 95.732 214.487 97.1896C215.152 97.9056 215.076 99.3888 214.59 99.8235C214.104 100.258 212.16 100.437 211.597 101C210.881 104.171 211.904 107.316 212.723 111.075C215.843 104.657 219.449 98.7495 222.134 91.8707C222.569 90.72 222.185 89.3135 222.697 88.4952C223.31 87.5235 225.126 88.0605 225.766 87.2678C226.635 86.1938 224.615 85.1198 223.975 84.5316C221.827 82.5626 218.988 86.3728 217.607 84.0202C216.482 82.0767 219.832 80.6958 218.323 78.4967C216.61 76.0162 214.794 79.5195 212.646 77.4994C212.109 76.9879 212.748 74.3796 212.16 74.0216C209.091 72.1293 205.971 70.0835 205.741 65.8386C204.13 64.8158 202.263 64.7646 201.317 62.5143C209.858 56.4026 202.544 55.2263 205.792 53.4107C206.713 52.8993 207.761 53.0527 208.554 53.9222C210.447 55.9168 207.761 54.3569 207.71 60.1617C207.659 63.8952 208.349 68.5492 212.62 70.7996C214.206 67.0405 210.932 64.4578 211.163 61.2357C212.544 60.801 213.848 61.6449 215.024 61.7727C216.124 73.4846 224.282 84.2247 235.995 87.4212C237.121 87.7281 237.913 87.8559 238.041 88.4696C238.962 93.1237 230.855 88.9299 227.3 87.4212C224.922 94.2489 221.392 100.361 218.375 106.984C214.232 116.036 210.753 116.65 204.948 128.899C204.385 130.1 204.718 131.865 204.079 132.913C203.618 133.681 202.442 133.885 201.291 133.936C201.24 131.686 200.421 128.975 201.777 126.648L209.347 113.76L206.815 99.8235L200.498 84.7106C195.767 73.3567 192.596 42.4149 193.977 29.6801C194.821 21.8807 204.769 9.24829 210.395 7.66284C213.26 6.84455 215.664 4.74766 218.426 3.75036C224.359 1.57676 224.461 5.4381 231.597 1.78133C237.888 1.0909 244.077 1.70462 250.112 3.6225L250.215 3.64807ZM236.353 25.3841C236.353 25.1284 236.149 24.9238 235.893 24.9238C235.637 24.9238 235.433 25.1284 235.433 25.3841C235.433 25.6398 235.637 25.8444 235.893 25.8444C236.149 25.8444 236.353 25.6398 236.353 25.3841ZM277.502 83.3297C280.546 77.9341 274.178 74.9422 276.249 73.7403L278.397 72.5129C281.952 70.4671 273.922 55.3542 269.114 54.9962C268.04 53.6409 271.364 49.2681 268.244 48.0407C264.766 46.6598 265.866 56.2236 267.733 59.2155C268.321 60.1617 269.753 60.4174 269.625 61.4914C269.216 65.0715 265.559 61.9773 261.953 66.8104C263.334 67.9611 264.766 67.3985 266.122 68.1401C267.017 70.2625 266.889 72.4361 267.119 74.7887L273.129 72.2827C273.641 85.58 273.129 76.6555 277.502 83.3809V83.3297ZM276.965 84.9152C275.098 84.7617 274.664 85.0942 274.357 85.6568C274.075 86.1682 275.431 89.9272 276.607 90.4387C277.298 88.8532 277.732 86.9865 276.965 84.9152ZM230.753 140.943C231.315 140.38 231.827 140.534 231.059 139.46C229.73 137.567 219.372 120.844 218.733 127.594C222.185 130.612 228.221 143.5 230.727 140.943H230.753ZM130.399 207.532C133.315 205.026 137.048 206.483 139.785 207.864C145.155 210.6 143.877 221.878 147.329 221.801C155.539 221.647 136.46 200.755 149.375 194.311C153.442 192.265 157.354 190.245 161.088 187.458C175.538 176.718 190.78 168.381 206.636 159.968C214.411 155.851 220.216 149.484 226.558 143.756L215.868 129.87L195.588 147.592L176.1 160.659L153.339 173.956C138.941 182.369 131.09 183.929 124.773 198.94C121.653 206.381 123.315 214.308 122.266 222.031C121.857 225.1 118.098 247.552 123.878 245.199C124.389 244.994 125.08 244.202 125.156 243.179L126.742 221.494C127.074 217.07 126.333 211.035 130.374 207.583L130.399 207.532ZM174.975 197.866C184.438 191.064 195.204 187.484 204.846 181.27C213.592 175.618 219.04 166.412 227.249 160.019C227.147 155.979 227.607 152.783 225.433 149.075C219.244 154.854 213.771 159.099 207.352 163.369C190.294 171.348 174.719 181.167 159.451 192.214C156.92 194.03 154.106 194.899 151.447 196.434C145.283 199.963 147.738 205.563 150.066 211.189C154.106 206.56 173.492 198.94 174.949 197.891L174.975 197.866ZM245.304 186.358C242.235 179.684 236.839 176.795 233.08 171.757C231.059 169.046 230.701 165.492 227.377 163.19C225.331 167.461 222.518 169.507 219.883 172.192L213.464 178.738C210.6 181.653 208.554 183.852 204.104 186.026C221.802 197.533 227.07 194.618 245.304 186.41V186.358ZM196.713 420.494C209.014 424.099 221.981 423.23 230.804 415.226C234.947 411.467 240.266 407.938 245.279 405.278C251.57 401.928 255.457 409.549 278.576 389.091C282.822 385.332 286.632 380.09 283.41 373.748C279.906 366.895 278.091 359.428 275.942 351.654L269.012 326.517C266.019 315.726 278.781 312.632 285.737 311.098C288.883 310.407 291.261 307.952 294.126 306.725C307.45 301.048 297.271 288.083 299.189 279.67C300.315 274.76 302.846 270.694 302.463 265.094C310.442 262.639 314.815 256.732 321.055 251.95C323.536 250.032 330.39 249.316 330.16 244.636L323.638 226.506C323.306 225.611 322.053 223.412 321.209 223.079C318.728 222.133 314.866 222.031 313.102 223.335C313.255 225.202 313.843 226.787 312.437 227.094C310.826 227.478 309.982 226.89 309.547 225.79C309.112 224.69 310.314 223.795 311.209 222.261C306.708 221.775 302.181 221.98 297.527 220.829C294.202 219.985 291.952 222.057 289.087 222.568C287.732 222.824 285.788 218.63 283.819 220.829C283.231 221.494 283.001 222.875 282.489 223.361C281.978 223.847 280.725 224.281 280.06 223.565C278.934 222.338 279.037 220.727 278.065 219.09C270.111 221.136 265.661 215.971 260.956 211.24C256.608 206.867 252.286 203.67 251.289 196.817C250.726 193.058 247.146 190.092 242.9 191.524C222.901 198.249 221.239 200.5 200.37 187.688C191.112 190.808 183.568 196.331 175.512 201.037C177.737 203.159 175.921 204.872 175.614 206.944C173.901 218.374 174.847 229.83 176.842 241.159C178.965 253.177 185.23 284.605 188.964 295.038C189.297 295.959 188.146 296.649 187.685 296.777C184.821 297.468 181.266 276.934 180.422 273.43C175.129 251.566 168.735 224 173.389 202.213L164.95 206.023C160.372 208.094 155.078 210.549 151.242 213.567C151.779 216.635 152.904 220.19 151.344 223.105C150.117 225.406 146.588 224.435 145.283 225.995C143.647 227.938 145.948 232.132 143.826 234.101C136.895 240.468 142.572 240.852 138.762 245.071C137.816 246.12 135.156 245.352 134.21 246.529C132.854 248.242 133.289 250.978 131.064 251.285C125.438 252.103 122.343 245.506 119.223 248.165C106.615 258.931 95.6181 270.669 83.7516 282.022C79.4552 286.139 74.5193 288.824 72.4222 295.013C77.3069 293.146 82.0382 294.553 86.5392 295.985C96.1296 299.053 102.395 306.213 108.533 313.68C129.939 339.738 119.581 351.629 126.589 362.829C128.455 365.821 123.929 368.302 124.287 371.038C125.105 377.584 129.018 384.795 133.826 389.168C136.716 391.776 140.092 393.566 143.391 395.433L152.904 400.829C159.861 404.792 165.538 411.288 173.415 413.615L196.764 420.468L196.713 420.494ZM134.235 241.414C134.21 242.846 136.204 243.051 136.742 242.361C136.997 242.028 137.33 241.491 137.33 240.494L137.176 221.136C137.176 220.241 137.739 219.116 138.148 218.63C141.805 214.206 138.25 232.464 141.038 232.873C142.726 226.199 143.11 216.508 138.992 211.265C137.406 209.245 134.619 208.631 132.752 209.578C131.115 210.421 129.351 212.109 129.862 214.59C130.425 217.3 128.558 219.499 128.711 221.622C129.351 230.112 128.737 238.141 127.637 246.452C127.484 247.628 128.072 248.165 128.609 248.421C133.442 250.825 129.325 225.739 133.136 225.406C133.749 225.355 134.593 225.637 134.568 226.583L134.21 241.466L134.235 241.414ZM30.6594 301.559C28.946 302.863 26.2607 303.579 27.3604 307.108C30.6339 317.593 45.4158 328.64 55.0573 331.095C59.0469 334.317 64.3152 336.337 69.9671 337.564C65.6962 333.55 60.1977 332.782 55.6711 330.2C50.9654 327.54 46.1063 324.83 41.3239 321.684C37.3855 319.101 27.3859 306.341 30.8129 303.298C33.8307 304.628 35.7487 314.141 42.2957 318.743C51.2212 325.034 60.9394 329.1 70.5809 334.01C71.5527 334.496 72.7547 336.925 74.1869 335.698C78.1253 332.297 81.987 329.279 86.0277 325.136C76.1305 310.484 89.0455 308.975 86.5137 301.227C85.0304 296.701 73.9311 295.806 73.6498 298.721C73.3941 301.355 75.3633 304.884 76.0794 307.006C76.7187 307.159 78.1253 307.671 78.4066 307.441C79.046 306.955 79.6598 309.768 78.8414 309.87C69.251 311.149 59.3026 310.765 49.7123 308.77C48.229 305.446 48.408 302.326 47.4362 298.976C34.291 294.169 31.8614 300.664 30.7106 301.559H30.6594ZM53.0114 306.188C55.2363 304.321 53.6507 300.792 51.1189 300.46C50.5307 302.173 51.1189 306.111 53.0114 306.188ZM72.013 308.387C73.1895 304.832 71.9619 301.534 69.0976 300.357C68.8418 303.298 68.5605 307.057 72.013 308.387ZM99.3775 315.368C100.605 314.55 101.475 310.765 100.912 309.359C100.094 307.313 96.9991 308.489 95.081 308.003C95.4646 304.014 92.6259 300.664 88.9688 301.125C90.1708 305.881 89.4291 309.538 85.6186 311.89C86.0022 313.578 87.0763 314.473 87.2297 316.007C85.1326 317.772 85.8231 319.69 86.9484 321.019C88.3039 322.63 90.094 321.71 91.7308 320.61L99.4031 315.394L99.3775 315.368ZM60.7859 307.006C62.167 306.418 60.7348 303.477 60.121 302.429C59.5328 301.431 56.6173 301.227 56.515 302.25C56.2593 304.628 57.6915 308.31 60.7859 307.006ZM66.0542 307.083C68.1002 306.034 65.8241 301.559 64.1106 301.841C62.5761 302.199 64.1617 308.054 66.0542 307.083ZM53.9065 378.786C59.7118 373.544 63.4968 369.12 69.072 365.668L84.8258 356.411C95.7971 349.967 105.848 342.679 118.123 337.36C116.436 328.742 111.167 322.017 105.566 315.368C97.3827 318.999 91.5262 324.753 84.9792 330.43L66.1054 346.77L48.2034 359.479C44.3161 362.241 41.3239 365.489 39.3803 369.938C46.0807 369.657 51.1189 372.726 53.9065 378.786ZM10.6604 402.389C6.23602 408.961 2.80907 416.939 4.08778 425.582C4.93173 431.31 9.45838 437.422 14.3431 439.57C21.0691 442.536 28.0509 441.974 32.6542 436.629C44.8787 426.196 35.2372 421.158 49.3798 393.95C50.9399 390.958 53.2671 387.608 51.3235 383.772C45.825 391.546 42.8328 407.017 37.2065 412.464C33.268 412.975 27.9486 411.16 25.6469 408.015C23.1662 404.613 24.0357 400.062 25.1866 396.456L31.2732 377.507C31.6568 376.28 32.9356 375.283 32.6542 374.362C29.6621 364.849 17.0284 381.982 16.0821 384.898L10.6859 402.389H10.6604ZM34.5723 378.428C32.9867 379.988 32.7054 382.468 32.1172 385.256C35.493 386.739 39.7639 386.713 42.8328 390.549C38.7921 392.646 35.9277 388.836 32.1683 387.813C30.7362 387.429 29.2273 391.393 30.4549 391.879C33.6772 391.879 38.1783 392.85 40.5055 396.226C36.5415 397.684 33.0634 395.203 29.9178 392.825C28.4856 394.027 28.5112 395.587 28.1276 397.581C28.0253 398.067 27.2581 398.502 27.2325 399.704C27.2069 400.906 25.8515 402.619 26.4397 404.434C27.744 407.529 33.2936 410.367 36.7206 409.012L47.4873 384.361C48.3313 384.437 49.3542 384.437 49.9169 384.054C51.17 383.21 50.7864 381.65 50.5818 380.192C50.0703 376.306 47.2316 374.695 44.1115 373.621C41.1449 372.598 37.9481 372.649 35.1094 375.129C34.3677 375.769 34.5723 376.97 34.5979 378.402L34.5723 378.428Z" fill="var(--fill-0, #226E77)"/>
<path id="Vector_15" d="M250.215 3.64807C244.179 1.73019 237.99 1.0909 231.699 1.80691C231.392 1.83248 231.085 1.80691 230.778 1.80691C233.719 -0.826986 248.476 -0.87813 250.215 3.64807Z" fill="var(--fill-0, #F9FBFC)"/>
<path id="Vector_16" d="M268.73 23.0826H267.81C265.84 22.5456 265.84 20.2953 264.894 18.5308C262.081 13.3142 257.81 9.45287 253.846 5.59153C255.79 6.00068 257.81 6.53768 259.293 8.50671C262.899 13.2631 266.326 17.9938 268.73 23.0826Z" fill="var(--fill-0, #70BC96)"/>
<path id="Vector_17" d="M280.597 61.7216C277.374 59.2923 273.922 55.5332 273.589 51.544C275.303 51.007 279.957 60.3918 280.597 61.7216Z" fill="var(--fill-0, #F9FBFC)"/>
<path id="Vector_18" d="M218.528 2.85535V3.75036C215.766 4.77323 213.362 6.87012 210.498 7.66284C211.93 4.10837 215.331 3.72479 218.528 2.82978V2.85535Z" fill="var(--fill-0, #F9FBFC)"/>
<path id="Vector_19" d="M273.513 50.7513C271.058 50.8024 270.393 39.781 270.597 37.7864C272.311 41.8267 273.129 46.3529 273.513 50.7513Z" fill="var(--fill-0, #70BC96)"/>
<path id="Vector_20" d="M230.804 1.80691C231.111 1.80691 231.417 1.83248 231.724 1.80691C224.589 5.46367 224.487 1.60233 218.554 3.77593V2.88092C222.569 1.75576 226.558 1.55119 230.804 1.80691Z" fill="var(--fill-0, #70BC96)"/>
<path id="Vector_21" d="M270.776 83.4064C270.162 83.7644 269.523 84.0457 268.858 84.2759C267.349 82.2557 267.145 79.4684 267.298 77.1669C270.904 78.1386 270.623 80.9004 270.802 83.4064H270.776Z" fill="var(--fill-0, #70BC96)"/>
<path id="Vector_22" d="M262.337 50.9047L260.751 50.9814C249.55 32.9278 259.498 35.7151 257.35 32.7743C255.892 30.8053 252.44 32.4163 251.954 30.9587C251.084 28.4271 253.386 25.7165 250.189 25.0516C248.808 24.7448 247.657 24.2334 247.018 23.1593C246.532 22.3155 246.89 21.0369 246.711 19.7583C246.532 18.4797 245.228 18.3263 244.281 18.5053C243.412 18.6843 243.054 20.0907 242.133 20.73C240.573 21.804 238.399 19.6049 236.481 20.551C226.942 25.2562 229.755 38.0677 227.223 41.6477C221.674 49.4727 229.96 44.5629 217.3 57.5534C215.766 59.1388 214.922 59.906 215.101 61.7983C213.925 61.6704 212.62 60.8266 211.239 61.2613C210.14 61.6193 208.81 60.443 207.787 60.1873C207.864 54.408 210.549 55.9423 208.631 53.9478C207.812 53.1039 206.789 52.9249 205.869 53.4363C202.621 55.2519 209.91 56.4282 201.393 62.5399C202.34 64.7902 204.206 64.8158 205.818 65.8642C206.048 70.1347 209.168 72.1549 212.237 74.0472C212.825 74.4052 212.186 77.0135 212.723 77.5249C214.845 79.5451 216.661 76.0418 218.4 78.5222C219.909 80.6958 216.533 82.1023 217.684 84.0457C219.065 86.3983 221.878 82.5626 224.052 84.5572C224.691 85.1453 226.737 86.1938 225.842 87.2933C225.203 88.0861 223.387 87.5746 222.773 88.5208C222.262 89.3391 222.646 90.7455 222.211 91.8963C219.525 98.7751 215.919 104.682 212.799 111.101C211.981 107.316 210.958 104.171 211.674 101.025C212.262 100.463 214.155 100.284 214.666 99.8491C215.178 99.4144 215.229 97.9568 214.564 97.2152C213.234 95.7576 210.114 98.1869 209.526 96.5759C208.605 93.9932 210.242 92.3821 209.807 90.72C209.603 89.8505 207.352 90.2597 206.968 89.5437C195.741 67.2195 204.923 73.996 202.825 69.9301C202.391 69.0607 197.711 69.1374 199.552 58.5251C199.731 57.4767 201.01 56.9396 200.907 56.0191C200.805 55.0985 199.347 54.8428 198.913 53.9989C196.841 49.9586 197.89 45.3556 197.915 40.9829C197.915 39.5508 196.278 37.8375 197.353 36.5078C198.017 35.7151 199.578 35.9708 200.754 35.5616C202.212 35.0502 202.288 33.4903 201.547 32.4675C200.933 31.6236 199.629 31.9305 197.634 32.3396C197.046 27.2764 200.191 22.2132 203.772 18.7098C205.05 20.0652 205.997 20.4743 206.892 20.193C207.736 19.9373 208.324 18.9656 208.375 18.1728C208.401 17.6614 206.61 16.7408 206.764 15.9992C207.352 12.7516 212.058 9.27386 215.459 10.1433C216.636 10.4502 217.224 11.5753 218.221 11.3196C221.137 10.6036 217.454 6.63997 221.981 6.12854C223.899 5.92396 224.18 6.84455 224.461 9.17158C224.64 10.5269 227.581 10.5525 227.863 9.146C228.144 7.81627 227.505 6.02625 228.502 5.54039C229.269 5.18238 230.906 5.05452 231.903 5.46367C232.619 5.77053 232.44 7.48384 233.105 8.40442C233.949 9.55515 235.484 9.04372 235.919 8.22542C236.302 7.48384 236.123 6.51211 236.353 5.28467C236.635 3.82708 238.86 4.23622 239.857 4.95223C240.573 5.46367 241.212 6.56326 242.184 8.50671C244.997 5.41253 247.171 6.35868 249.984 7.10026C253.156 7.94413 253.36 11.4986 255.074 12.4192C257.989 14.0046 258.654 15.8714 260.444 18.761C262.362 21.9063 266.787 25.9978 265.15 30.4729C263.974 30.703 261.851 30.6263 261.493 31.8026C261.16 32.9278 261.416 34.0018 262.797 34.6155C263.692 35.0246 264.894 33.4392 265.968 33.4648C268.781 33.4903 266.531 39.7298 267.989 44.6141C266.991 45.6369 264.843 44.7931 264.05 45.8926C262.951 47.4781 263.13 49.4983 262.286 50.8536L262.337 50.9047ZM250.087 12.5471C250.087 11.3963 249.14 10.4502 247.99 10.4502C246.839 10.4502 245.893 11.3963 245.893 12.5471C245.893 13.6978 246.839 14.6439 247.99 14.6439C249.14 14.6439 250.087 13.6978 250.087 12.5471ZM241.749 13.7234C241.749 12.5982 240.829 11.6776 239.704 11.6776C238.578 11.6776 237.658 12.5982 237.658 13.7234C237.658 14.8485 238.578 15.7691 239.704 15.7691C240.829 15.7691 241.749 14.8485 241.749 13.7234ZM233.361 14.8741C233.361 13.7489 232.44 12.8283 231.315 12.8283C230.19 12.8283 229.269 13.7489 229.269 14.8741C229.269 15.9992 230.19 16.9198 231.315 16.9198C232.44 16.9198 233.361 15.9992 233.361 14.8741ZM225.075 16.076C225.075 14.8997 224.129 13.9535 222.952 13.9535C221.776 13.9535 220.83 14.8997 220.83 16.076C220.83 17.2523 221.776 18.1984 222.952 18.1984C224.129 18.1984 225.075 17.2523 225.075 16.076ZM216.712 17.1755C216.712 16.0248 215.766 15.0787 214.615 15.0787C213.464 15.0787 212.518 16.0248 212.518 17.1755C212.518 18.3263 213.464 19.2724 214.615 19.2724C215.766 19.2724 216.712 18.3263 216.712 17.1755ZM255.227 19.2469C255.227 18.0961 254.281 17.15 253.13 17.15C251.979 17.15 251.033 18.0961 251.033 19.2469C251.033 20.3976 251.979 21.3437 253.13 21.3437C254.281 21.3437 255.227 20.3976 255.227 19.2469ZM230.062 22.7502C230.062 21.6506 229.167 20.7812 228.093 20.7812C227.019 20.7812 226.124 21.6762 226.124 22.7502C226.124 23.8242 227.019 24.7192 228.093 24.7192C229.167 24.7192 230.062 23.8242 230.062 22.7502ZM221.725 23.9521C221.725 22.8525 220.83 21.9575 219.73 21.9575C218.63 21.9575 217.735 22.8525 217.735 23.9521C217.735 25.0516 218.63 25.9467 219.73 25.9467C220.83 25.9467 221.725 25.0516 221.725 23.9521ZM213.413 25.0516C213.413 23.9521 212.518 23.0571 211.418 23.0571C210.319 23.0571 209.424 23.9521 209.424 25.0516C209.424 26.1512 210.319 27.0462 211.418 27.0462C212.518 27.0462 213.413 26.1512 213.413 25.0516ZM205.025 26.2024C205.025 25.1028 204.13 24.2078 203.03 24.2078C201.93 24.2078 201.035 25.1028 201.035 26.2024C201.035 27.302 201.93 28.197 203.03 28.197C204.13 28.197 205.025 27.302 205.025 26.2024ZM260.495 25.8699C260.495 24.7704 259.6 23.8498 258.475 23.8498C257.35 23.8498 256.455 24.7448 256.455 25.8699C256.455 26.9951 257.35 27.8901 258.475 27.8901C259.6 27.8901 260.495 26.9951 260.495 25.8699ZM226.865 30.4729C226.865 29.3988 225.996 28.5294 224.922 28.5294C223.847 28.5294 222.978 29.3988 222.978 30.4729C222.978 31.5469 223.847 32.4163 224.922 32.4163C225.996 32.4163 226.865 31.5469 226.865 30.4729ZM218.681 31.7003C218.681 30.5496 217.761 29.629 216.61 29.629C215.459 29.629 214.538 30.5496 214.538 31.7003C214.538 32.851 215.459 33.7716 216.61 33.7716C217.761 33.7716 218.681 32.851 218.681 31.7003ZM210.293 32.7488C210.293 31.5725 209.347 30.6519 208.196 30.6519C207.045 30.6519 206.099 31.598 206.099 32.7488C206.099 33.8995 207.045 34.8456 208.196 34.8456C209.347 34.8456 210.293 33.8995 210.293 32.7488ZM223.95 38.2723C223.95 37.096 223.004 36.1498 221.827 36.1498C220.651 36.1498 219.704 37.096 219.704 38.2723C219.704 39.4486 220.651 40.3947 221.827 40.3947C223.004 40.3947 223.95 39.4486 223.95 38.2723ZM215.434 39.4997C215.434 38.3745 214.513 37.454 213.388 37.454C212.262 37.454 211.342 38.3745 211.342 39.4997C211.342 40.6249 212.262 41.5454 213.388 41.5454C214.513 41.5454 215.434 40.6249 215.434 39.4997ZM262.388 40.3691C262.388 39.2696 261.493 38.4001 260.419 38.4001C259.345 38.4001 258.449 39.2951 258.449 40.3691C258.449 41.4432 259.345 42.3382 260.419 42.3382C261.493 42.3382 262.388 41.4432 262.388 40.3691ZM206.917 40.6504C206.917 39.5508 206.022 38.6303 204.897 38.6303C203.772 38.6303 202.877 39.5253 202.877 40.6504C202.877 41.7756 203.772 42.6706 204.897 42.6706C206.022 42.6706 206.917 41.7756 206.917 40.6504ZM220.651 46.1739C220.651 45.0488 219.756 44.1538 218.63 44.1538C217.505 44.1538 216.61 45.0488 216.61 46.1739C216.61 47.2991 217.505 48.1941 218.63 48.1941C219.756 48.1941 220.651 47.2991 220.651 46.1739ZM212.365 47.2479C212.365 46.0972 211.444 45.1766 210.293 45.1766C209.142 45.1766 208.222 46.0972 208.222 47.2479C208.222 48.3987 209.142 49.3193 210.293 49.3193C211.444 49.3193 212.365 48.3987 212.365 47.2479ZM203.874 48.3731C203.874 47.2224 202.953 46.3018 201.802 46.3018C200.652 46.3018 199.731 47.2224 199.731 48.3731C199.731 49.5238 200.652 50.4444 201.802 50.4444C202.953 50.4444 203.874 49.5238 203.874 48.3731ZM217.377 53.8966C217.377 52.7714 216.482 51.8764 215.357 51.8764C214.232 51.8764 213.336 52.7714 213.336 53.8966C213.336 55.0218 214.232 55.9168 215.357 55.9168C216.482 55.9168 217.377 55.0218 217.377 53.8966ZM207.864 77.4482C207.864 76.3486 206.968 75.4536 205.869 75.4536C204.769 75.4536 203.874 76.3486 203.874 77.4482C203.874 78.5478 204.769 79.4428 205.869 79.4428C206.968 79.4428 207.864 78.5478 207.864 77.4482ZM213.106 84.0457C213.106 82.9206 212.211 82.0256 211.086 82.0256C209.961 82.0256 209.066 82.9206 209.066 84.0457C209.066 85.1709 209.961 86.0659 211.086 86.0659C212.211 86.0659 213.106 85.1709 213.106 84.0457ZM218.349 90.8223C218.349 89.646 217.377 88.6742 216.201 88.6742C215.024 88.6742 214.053 89.646 214.053 90.8223C214.053 91.9986 215.024 92.9703 216.201 92.9703C217.377 92.9703 218.349 91.9986 218.349 90.8223Z" fill="var(--fill-0, #70BC96)"/>
<path id="Vector_23" d="M277.502 83.3297C273.155 76.6043 273.641 85.5033 273.129 72.2316L267.119 74.7376C266.915 72.385 267.042 70.237 266.122 68.0889C264.766 67.3474 263.309 67.9099 261.953 66.7592C265.559 61.9517 269.216 65.0459 269.625 61.4403C269.753 60.3918 268.321 60.1361 267.733 59.1644C265.892 56.1725 264.766 46.6087 268.244 47.9895C271.364 49.2425 268.04 53.5897 269.114 54.945C273.896 55.3031 281.927 70.416 278.397 72.4617L276.249 73.6892C274.152 74.891 280.546 77.8829 277.502 83.2786V83.3297ZM274.817 68.2424C274.817 67.1172 273.922 66.2222 272.797 66.2222C271.671 66.2222 270.776 67.1172 270.776 68.2424C270.776 69.3675 271.671 70.2625 272.797 70.2625C273.922 70.2625 274.817 69.3675 274.817 68.2424Z" fill="var(--fill-0, #70BC96)"/>
<path id="Vector_24" d="M262.337 50.9047C263.897 54.2546 265.201 58.5762 262.593 62.054L260.751 51.007L262.337 50.9303V50.9047Z" fill="var(--fill-0, #F9FBFC)"/>
<path id="Vector_25" d="M276.965 84.9152C277.732 87.0121 277.298 88.8532 276.607 90.4387C275.431 89.9272 274.075 86.1682 274.357 85.6568C274.664 85.0686 275.098 84.7362 276.965 84.9152Z" fill="var(--fill-0, #70BC96)"/>
<path id="Vector_26" d="M235.893 25.8444C236.147 25.8444 236.353 25.6383 236.353 25.3841C236.353 25.1299 236.147 24.9238 235.893 24.9238C235.639 24.9238 235.433 25.1299 235.433 25.3841C235.433 25.6383 235.639 25.8444 235.893 25.8444Z" fill="var(--fill-0, #F9FBFC)"/>
<path id="Vector_27" d="M247.99 14.6439C249.148 14.6439 250.087 13.7051 250.087 12.5471C250.087 11.389 249.148 10.4502 247.99 10.4502C246.831 10.4502 245.893 11.389 245.893 12.5471C245.893 13.7051 246.831 14.6439 247.99 14.6439Z" fill="var(--fill-0, #226E77)"/>
<path id="Vector_28" d="M222.952 18.1984C224.125 18.1984 225.075 17.2482 225.075 16.076C225.075 14.9038 224.125 13.9535 222.952 13.9535C221.78 13.9535 220.83 14.9038 220.83 16.076C220.83 17.2482 221.78 18.1984 222.952 18.1984Z" fill="var(--fill-0, #226E77)"/>
<path id="Vector_29" d="M208.196 34.8456C209.354 34.8456 210.293 33.9068 210.293 32.7488C210.293 31.5907 209.354 30.6519 208.196 30.6519C207.038 30.6519 206.099 31.5907 206.099 32.7488C206.099 33.9068 207.038 34.8456 208.196 34.8456Z" fill="var(--fill-0, #226E77)"/>
<path id="Vector_30" d="M214.615 19.2724C215.773 19.2724 216.712 18.3336 216.712 17.1755C216.712 16.0175 215.773 15.0787 214.615 15.0787C213.457 15.0787 212.518 16.0175 212.518 17.1755C212.518 18.3336 213.457 19.2724 214.615 19.2724Z" fill="var(--fill-0, #226E77)"/>
<path id="Vector_31" d="M216.61 33.7716C217.754 33.7716 218.681 32.8443 218.681 31.7003C218.681 30.5564 217.754 29.629 216.61 29.629C215.466 29.629 214.538 30.5564 214.538 31.7003C214.538 32.8443 215.466 33.7716 216.61 33.7716Z" fill="var(--fill-0, #226E77)"/>
<path id="Vector_32" d="M221.827 40.3947C222.999 40.3947 223.95 39.4445 223.95 38.2723C223.95 37.1001 222.999 36.1498 221.827 36.1498C220.655 36.1498 219.704 37.1001 219.704 38.2723C219.704 39.4445 220.655 40.3947 221.827 40.3947Z" fill="var(--fill-0, #226E77)"/>
<path id="Vector_33" d="M253.13 21.3437C254.288 21.3437 255.227 20.4049 255.227 19.2469C255.227 18.0888 254.288 17.15 253.13 17.15C251.972 17.15 251.033 18.0888 251.033 19.2469C251.033 20.4049 251.972 21.3437 253.13 21.3437Z" fill="var(--fill-0, #226E77)"/>
<path id="Vector_34" d="M210.293 49.3193C211.437 49.3193 212.365 48.3919 212.365 47.2479C212.365 46.104 211.437 45.1766 210.293 45.1766C209.149 45.1766 208.222 46.104 208.222 47.2479C208.222 48.3919 209.149 49.3193 210.293 49.3193Z" fill="var(--fill-0, #226E77)"/>
<path id="Vector_35" d="M201.802 50.4444C202.947 50.4444 203.874 49.5171 203.874 48.3731C203.874 47.2291 202.947 46.3018 201.802 46.3018C200.658 46.3018 199.731 47.2291 199.731 48.3731C199.731 49.5171 200.658 50.4444 201.802 50.4444Z" fill="var(--fill-0, #226E77)"/>
<path id="Vector_36" d="M218.63 48.1941C219.746 48.1941 220.651 47.2896 220.651 46.1739C220.651 45.0582 219.746 44.1538 218.63 44.1538C217.515 44.1538 216.61 45.0582 216.61 46.1739C216.61 47.2896 217.515 48.1941 218.63 48.1941Z" fill="var(--fill-0, #226E77)"/>
<path id="Vector_37" d="M213.388 41.5454C214.518 41.5454 215.434 40.6295 215.434 39.4997C215.434 38.3699 214.518 37.454 213.388 37.454C212.258 37.454 211.342 38.3699 211.342 39.4997C211.342 40.6295 212.258 41.5454 213.388 41.5454Z" fill="var(--fill-0, #226E77)"/>
<path id="Vector_38" d="M231.315 16.9198C232.445 16.9198 233.361 16.0039 233.361 14.8741C233.361 13.7443 232.445 12.8283 231.315 12.8283C230.185 12.8283 229.269 13.7443 229.269 14.8741C229.269 16.0039 230.185 16.9198 231.315 16.9198Z" fill="var(--fill-0, #226E77)"/>
<path id="Vector_39" d="M239.704 15.7691C240.833 15.7691 241.749 14.8532 241.749 13.7234C241.749 12.5935 240.833 11.6776 239.704 11.6776C238.574 11.6776 237.658 12.5935 237.658 13.7234C237.658 14.8532 238.574 15.7691 239.704 15.7691Z" fill="var(--fill-0, #226E77)"/>
<path id="Vector_40" d="M246.02 54.6638C247.529 62.4631 253.463 61.4659 250.445 67.1428C249.729 68.4981 248.245 70.7484 245.586 69.4442C245.637 67.4496 247.325 66.5546 247.938 64.5089C243.974 61.875 241.059 53.513 245.125 53.3085C245.509 53.3085 245.841 53.7943 246.02 54.6382V54.6638Z" fill="var(--fill-0, #226E77)"/>
<path id="Vector_41" d="M232.773 63.128C229.934 64.9948 228.553 61.1078 228.297 59.5224C228.016 57.7835 227.939 54.0756 230.957 54.3825C233.642 54.6382 235.177 61.5426 232.773 63.128Z" fill="var(--fill-0, #226E77)"/>
<path id="Vector_42" d="M252.209 59.4201C249.55 59.2155 248.68 52.3367 251.212 51.5696C253.539 50.8536 254.409 53.155 254.562 54.3313C254.767 55.7633 255.074 59.6758 252.209 59.4457V59.4201Z" fill="var(--fill-0, #226E77)"/>
<path id="Vector_43" d="M241.161 80.2355C241.033 78.2154 241.085 75.8372 242.951 74.6609C245.279 75.249 244.921 77.0646 244.409 78.8802C244.077 80.0054 242.67 80.4657 241.161 80.2355Z" fill="var(--fill-0, #226E77)"/>
<path id="Vector_44" d="M130.399 207.532C126.358 211.01 127.1 217.045 126.768 221.443L125.182 243.128C125.105 244.176 124.415 244.943 123.903 245.148C118.123 247.475 121.883 225.048 122.292 221.98C123.315 214.257 121.653 206.33 124.798 198.889C131.115 183.878 138.966 182.318 153.365 173.905L176.126 160.608L195.614 147.54L215.894 129.819L226.584 143.705C220.242 149.433 214.436 155.8 206.662 159.917C190.806 168.33 175.563 176.667 161.114 187.407C157.38 190.194 153.467 192.24 149.401 194.26C136.486 200.73 155.564 221.596 147.355 221.75C143.902 221.801 145.207 210.524 139.81 207.813C137.074 206.432 133.34 204.975 130.425 207.481L130.399 207.532Z" fill="var(--fill-0, #F9FBFC)"/>
<path id="Vector_45" d="M174.975 197.866C173.517 198.914 154.132 206.56 150.091 211.163C147.764 205.537 145.309 199.937 151.472 196.408C154.132 194.899 156.945 194.03 159.477 192.189C174.745 181.167 190.32 171.348 207.378 163.344C213.797 159.073 219.27 154.828 225.459 149.049C227.607 152.757 227.147 155.954 227.274 159.994C219.065 166.387 213.618 175.593 204.871 181.244C195.23 187.458 184.463 191.038 175.001 197.84L174.975 197.866Z" fill="var(--fill-0, #F9FBFC)"/>
<path id="Vector_46" d="M134.235 241.414L134.593 226.532C134.593 225.611 133.749 225.304 133.161 225.355C129.325 225.662 133.442 250.748 128.634 248.37C128.097 248.114 127.509 247.577 127.663 246.401C128.762 238.09 129.351 230.086 128.737 221.571C128.583 219.448 130.45 217.249 129.888 214.538C129.376 212.084 131.141 210.37 132.778 209.526C134.644 208.58 137.432 209.194 139.018 211.214C143.135 216.482 142.751 226.148 141.064 232.822C138.276 232.413 141.831 214.18 138.174 218.579C137.764 219.065 137.202 220.19 137.202 221.085L137.355 240.443C137.355 241.44 137.048 241.977 136.767 242.309C136.204 243 134.21 242.795 134.261 241.363L134.235 241.414Z" fill="var(--fill-0, #F9FBFC)"/>
<path id="Vector_47" d="M211.239 61.2613C211.009 64.4833 214.283 67.0661 212.697 70.8251C208.426 68.5748 207.736 63.9207 207.787 60.1873C208.784 60.443 210.14 61.6193 211.239 61.2613Z" fill="var(--fill-0, #F9FBFC)"/>
<path id="Vector_48" d="M216.201 92.9703C217.387 92.9703 218.349 92.0086 218.349 90.8222C218.349 89.6359 217.387 88.6742 216.201 88.6742C215.014 88.6742 214.053 89.6359 214.053 90.8222C214.053 92.0086 215.014 92.9703 216.201 92.9703Z" fill="var(--fill-0, #226E77)"/>
<path id="Vector_49" d="M215.357 55.9168C216.473 55.9168 217.377 55.0123 217.377 53.8966C217.377 52.7809 216.473 51.8764 215.357 51.8764C214.241 51.8764 213.336 52.7809 213.336 53.8966C213.336 55.0123 214.241 55.9168 215.357 55.9168Z" fill="var(--fill-0, #226E77)"/>
<path id="Vector_50" d="M205.869 79.4428C206.97 79.4428 207.864 78.5498 207.864 77.4482C207.864 76.3466 206.97 75.4536 205.869 75.4536C204.767 75.4536 203.874 76.3466 203.874 77.4482C203.874 78.5498 204.767 79.4428 205.869 79.4428Z" fill="var(--fill-0, #226E77)"/>
<path id="Vector_51" d="M211.086 86.0659C212.202 86.0659 213.106 85.1614 213.106 84.0457C213.106 82.93 212.202 82.0256 211.086 82.0256C209.97 82.0256 209.066 82.93 209.066 84.0457C209.066 85.1614 209.97 86.0659 211.086 86.0659Z" fill="var(--fill-0, #226E77)"/>
<path id="Vector_52" d="M219.704 25.9467C220.806 25.9467 221.699 25.0536 221.699 23.9521C221.699 22.8505 220.806 21.9575 219.704 21.9575C218.603 21.9575 217.71 22.8505 217.71 23.9521C217.71 25.0536 218.603 25.9467 219.704 25.9467Z" fill="var(--fill-0, #226E77)"/>
<path id="Vector_53" d="M228.067 24.7192C229.155 24.7192 230.036 23.8377 230.036 22.7502C230.036 21.6627 229.155 20.7812 228.067 20.7812C226.98 20.7812 226.098 21.6627 226.098 22.7502C226.098 23.8377 226.98 24.7192 228.067 24.7192Z" fill="var(--fill-0, #226E77)"/>
<path id="Vector_54" d="M204.897 42.6706C206.013 42.6706 206.917 41.7661 206.917 40.6504C206.917 39.5347 206.013 38.6303 204.897 38.6303C203.781 38.6303 202.877 39.5347 202.877 40.6504C202.877 41.7661 203.781 42.6706 204.897 42.6706Z" fill="var(--fill-0, #226E77)"/>
<path id="Vector_55" d="M260.419 42.3382C261.506 42.3382 262.388 41.4566 262.388 40.3691C262.388 39.2817 261.506 38.4001 260.419 38.4001C259.331 38.4001 258.449 39.2817 258.449 40.3691C258.449 41.4566 259.331 42.3382 260.419 42.3382Z" fill="var(--fill-0, #226E77)"/>
<path id="Vector_56" d="M258.475 27.8901C259.591 27.8901 260.495 26.9857 260.495 25.8699C260.495 24.7542 259.591 23.8498 258.475 23.8498C257.359 23.8498 256.455 24.7542 256.455 25.8699C256.455 26.9857 257.359 27.8901 258.475 27.8901Z" fill="var(--fill-0, #226E77)"/>
<path id="Vector_57" d="M224.922 32.4163C225.995 32.4163 226.865 31.5462 226.865 30.4729C226.865 29.3995 225.995 28.5294 224.922 28.5294C223.848 28.5294 222.978 29.3995 222.978 30.4729C222.978 31.5462 223.848 32.4163 224.922 32.4163Z" fill="var(--fill-0, #226E77)"/>
<path id="Vector_58" d="M203.03 28.197C204.132 28.197 205.025 27.304 205.025 26.2024C205.025 25.1008 204.132 24.2078 203.03 24.2078C201.928 24.2078 201.035 25.1008 201.035 26.2024C201.035 27.304 201.928 28.197 203.03 28.197Z" fill="var(--fill-0, #226E77)"/>
<path id="Vector_59" d="M211.444 27.0462C212.546 27.0462 213.439 26.1532 213.439 25.0516C213.439 23.9501 212.546 23.0571 211.444 23.0571C210.342 23.0571 209.449 23.9501 209.449 25.0516C209.449 26.1532 210.342 27.0462 211.444 27.0462Z" fill="var(--fill-0, #226E77)"/>
<path id="Vector_60" d="M272.797 70.2625C273.912 70.2625 274.817 69.3581 274.817 68.2424C274.817 67.1267 273.912 66.2222 272.797 66.2222C271.681 66.2222 270.776 67.1267 270.776 68.2424C270.776 69.3581 271.681 70.2625 272.797 70.2625Z" fill="var(--fill-0, #226E77)"/>
<path id="Vector_61" d="M53.9065 378.786C51.1189 372.751 46.0807 369.682 39.3803 369.938C41.3239 365.489 44.3161 362.241 48.2034 359.479L66.1054 346.77L84.9792 330.43C91.5262 324.753 97.4083 318.974 105.566 315.368C111.167 322.017 116.436 328.768 118.123 337.36C105.848 342.679 95.7971 349.967 84.8258 356.411L69.072 365.668C63.4712 369.094 59.7118 373.544 53.9065 378.786Z" fill="var(--fill-0, #F9FBFC)"/>
<path id="Vector_62" d="M32.6287 436.629C32.5775 436.195 32.2962 435.811 31.887 435.658C32.9356 434.967 34.7258 431.975 32.9611 431.055C29.0738 433.177 25.1098 435.632 20.7622 434.89C12.0414 433.407 11.1974 425.327 7.61703 423.716C5.59666 416.99 13.6014 403.36 10.6348 402.389L16.031 384.898C16.9772 381.982 29.5853 364.849 32.6031 374.362C32.8844 375.283 31.6057 376.254 31.2221 377.507L25.1354 396.456C23.9846 400.062 23.115 404.588 25.5957 408.015C27.8974 411.185 33.1913 412.975 37.1553 412.464C42.7817 406.992 45.7738 391.521 51.2723 383.772C53.216 387.608 50.8887 390.958 49.3287 393.95C35.1861 421.158 44.8276 426.196 32.6031 436.629H32.6287Z" fill="var(--fill-0, #70BC96)"/>
<path id="Vector_63" d="M30.8129 303.324L30.6594 301.559C31.8103 300.69 34.2398 294.195 47.385 298.976C48.3824 302.326 48.2034 305.446 49.6611 308.77C59.2771 310.765 69.1999 311.149 78.7902 309.87C79.6086 309.768 78.9948 306.955 78.3555 307.441C78.0486 307.671 76.6676 307.159 76.0282 307.006C75.3121 304.884 73.3429 301.355 73.5987 298.721C73.88 295.806 85.0048 296.701 86.4625 301.227C88.9944 309.001 76.0793 310.484 85.9766 325.136C81.9359 329.279 78.0741 332.297 74.1357 335.698C72.7036 336.925 71.5271 334.521 70.5297 334.01C60.9138 329.1 51.17 325.034 42.2446 318.743C35.6976 314.141 33.7795 304.628 30.7617 303.298L30.8129 303.324Z" fill="var(--fill-0, #70BC96)"/>
<path id="Vector_64" d="M35.5697 379.425C33.5493 382.213 43.9325 387.046 44.9043 385.332C45.1089 384.974 44.8787 384.412 44.6741 383.9L47.4362 384.361L36.6694 409.012C33.2424 410.367 27.6928 407.529 26.3885 404.434C25.8003 402.619 27.1558 400.906 27.1813 399.704H29.0738C31.2732 401.98 34.5467 403.872 38.4596 403.028C36.6438 399.422 32.5008 398.527 29.0994 398.476C29.0994 397.939 28.6647 397.428 28.102 397.581C28.4856 395.587 28.4601 394.027 29.8922 392.825C33.0379 395.203 36.516 397.684 40.48 396.226C38.1527 392.85 33.6516 391.904 30.4293 391.879C29.2017 391.393 30.7106 387.404 32.1428 387.813C35.9022 388.836 38.7665 392.646 42.8072 390.549C39.7383 386.688 35.4674 386.713 32.0916 385.256C32.7054 382.468 32.9867 379.988 34.5467 378.428C34.8536 378.786 35.1861 379.118 35.5441 379.425H35.5697Z" fill="var(--fill-0, #F9FBFC)"/>
<path id="Vector_65" d="M7.6426 423.716C4.59927 427.756 14.3431 438.905 23.3196 438.036C26.2351 437.754 29.4319 436.143 31.887 435.658C32.2962 435.811 32.5519 436.195 32.6287 436.629C28.0509 441.974 21.0691 442.536 14.3175 439.57C9.4328 437.422 4.90616 431.31 4.06221 425.582C2.78349 416.939 6.21044 408.961 10.6348 402.389C13.6014 403.36 5.59666 416.99 7.61703 423.716H7.6426Z" fill="var(--fill-0, #F9FBFC)"/>
<path id="Vector_66" d="M99.3775 315.368L91.7052 320.585C90.0685 321.71 88.2783 322.605 86.9228 320.994C85.8231 319.664 85.1326 317.746 87.2042 315.982C87.0507 314.447 85.9766 313.552 85.593 311.865C89.4035 309.512 90.1452 305.855 88.9432 301.099C92.6259 300.639 95.4647 303.963 95.0555 307.978C96.9735 308.489 100.068 307.287 100.886 309.333C101.449 310.714 100.554 314.499 99.3519 315.342L99.3775 315.368ZM95.5925 314.32C95.5925 313.22 94.6974 312.351 93.6233 312.351C92.5492 312.351 91.6541 313.246 91.6541 314.32C91.6541 315.394 92.5492 316.289 93.6233 316.289C94.6974 316.289 95.5925 315.394 95.5925 314.32Z" fill="var(--fill-0, #F9FBFC)"/>
<path id="Vector_67" d="M47.4617 384.361L44.6997 383.9C42.0144 381.855 38.9455 380.065 35.5953 379.425C35.2372 379.118 34.9048 378.786 34.5979 378.428C34.5467 376.996 34.3677 375.794 35.1094 375.155C37.9737 372.674 41.1449 372.623 44.1115 373.646C47.206 374.72 50.0703 376.331 50.5818 380.218C50.7608 381.676 51.1444 383.235 49.9169 384.079C49.3542 384.463 48.3313 384.437 47.4873 384.386L47.4617 384.361Z" fill="var(--fill-0, #70BC96)"/>
<path id="Vector_68" d="M30.6594 301.559L30.8129 303.324C27.3859 306.367 37.3855 319.127 41.3239 321.71C46.1063 324.855 50.9654 327.54 55.6711 330.225L55.0573 331.095C45.4158 328.64 30.6339 317.593 27.3604 307.108C26.2607 303.579 28.946 302.838 30.6594 301.559Z" fill="var(--fill-0, #F9FBFC)"/>
<path id="Vector_69" d="M55.0829 331.12L55.6967 330.251C60.2489 332.833 65.7218 333.601 69.9927 337.615C64.3152 336.388 59.0725 334.368 55.0829 331.146V331.12Z" fill="var(--fill-0, #70BC96)"/>
<path id="Vector_70" d="M60.7859 307.006C57.717 308.31 56.2593 304.602 56.515 302.25C56.6173 301.227 59.5584 301.431 60.121 302.429C60.7348 303.477 62.167 306.418 60.7859 307.006Z" fill="var(--fill-0, #F9FBFC)"/>
<path id="Vector_71" d="M72.013 308.387C68.5605 307.057 68.8163 303.298 69.0976 300.357C71.9619 301.534 73.1895 304.832 72.013 308.387Z" fill="var(--fill-0, #F9FBFC)"/>
<path id="Vector_72" d="M53.0114 306.188C51.0933 306.111 50.5307 302.173 51.1189 300.46C53.6507 300.792 55.2363 304.347 53.0114 306.188Z" fill="var(--fill-0, #F9FBFC)"/>
<path id="Vector_73" d="M66.0542 307.083C64.1873 308.054 62.6017 302.224 64.1106 301.841C65.8241 301.559 68.0746 306.009 66.0542 307.083Z" fill="var(--fill-0, #F9FBFC)"/>
<path id="Vector_74" d="M29.125 398.476V399.729L27.2069 399.704C27.2581 398.502 28.0253 398.067 28.102 397.581C28.6902 397.428 29.125 397.939 29.0994 398.476H29.125Z" fill="var(--fill-0, #70BC96)"/>
<path id="Vector_75" d="M31.9126 435.658C29.4575 436.143 26.2607 437.754 23.3452 438.036C14.3686 438.905 4.62484 427.756 7.66818 423.716C11.2486 425.327 12.0925 433.433 20.8134 434.89C25.161 435.632 29.125 433.177 33.0123 431.055C34.7769 431.975 32.9867 434.967 31.9382 435.658H31.9126Z" fill="var(--fill-0, #226E77)"/>
<path id="Vector_76" d="M44.6742 383.9C44.8787 384.412 45.1089 384.974 44.9043 385.332C43.9325 387.046 33.5749 382.213 35.5697 379.425C38.8944 380.065 41.9889 381.855 44.6742 383.9Z" fill="var(--fill-0, #226E77)"/>
<path id="Vector_77" d="M29.125 399.704V398.451C32.5264 398.476 36.695 399.397 38.5107 403.002C34.6235 403.846 31.3244 401.954 29.125 399.704Z" fill="var(--fill-0, #226E77)"/>
<path id="Vector_78" d="M93.6233 316.289C94.7109 316.289 95.5925 315.407 95.5925 314.32C95.5925 313.232 94.7109 312.351 93.6233 312.351C92.5357 312.351 91.6541 313.232 91.6541 314.32C91.6541 315.407 92.5357 316.289 93.6233 316.289Z" fill="var(--fill-0, #226E77)"/>
</g>
</svg>
