<svg preserveAspectRatio="none" width="100%" height="100%" overflow="visible" style="display: block;" viewBox="0 0 17.6058 18.3524" fill="none" xmlns="http://www.w3.org/2000/svg">
<g id="&#227;&#131;&#172;&#227;&#130;&#164;&#227;&#131;&#164;&#227;&#131;&#188; 1">
<path id="Vector" d="M11.9361 11.529C10.6232 12.2976 13.9699 16.7811 11.55 18.1133C10.1855 18.8563 9.07854 17.7803 8.64089 16.0894C8.35771 15.0133 8.38345 13.8348 7.84282 13.0406C7.14773 11.9902 3.59503 13.9373 1.04636 14.1935C0.402753 14.2447 -0.369573 12.5282 0.196799 11.7083C1.68996 9.58188 4.57331 9.78684 6.89029 8.86452C6.40115 5.84136 4.47033 3.12564 6.68433 0C9.41322 1.4091 9.64491 4.3554 10.1855 7.53228C12.2193 8.76204 16.1067 4.94466 17.4454 8.73642C18.3464 11.2728 15.3086 9.53064 11.9104 11.5546L11.9361 11.529Z" fill="var(--fill-0, #226E77)"/>
</g>
</svg>
