<svg preserveAspectRatio="none" width="100%" height="100%" overflow="visible" style="display: block;" viewBox="0 0 162.064 13.5063" fill="none" xmlns="http://www.w3.org/2000/svg">
<g id="Group">
<path id="Vector" d="M6.32888 12.9044C5.68427 12.9344 4.89314 12.9342 4.1118 12.9342C3.33045 12.9342 2.58825 12.9344 1.99247 12.9044C0.722783 12.8643 0.0879491 12.193 0.0488818 11.0809C0.0195813 10.0991 0 8.4661 0 6.82307C0 5.36037 0.0195813 3.89774 0.0488818 2.88588C0.0781823 1.92411 0.781389 1.29281 1.87527 1.25274C2.43198 1.2327 3.38914 1.22266 4.32676 1.22266C5.09834 1.22266 5.86011 1.2327 6.35821 1.25274C7.25676 1.2828 8.1162 1.92398 8.1455 3.00597C8.1748 3.92767 8.18461 5.43037 8.18461 6.93314C8.18461 8.58618 8.1748 10.2393 8.1455 11.0308C8.1162 12.0827 7.3837 12.8542 6.32888 12.8943V12.9044ZM6.74891 5.99146C6.74891 5.0397 6.73912 4.17819 6.71958 3.56707C6.69028 2.53516 6.47539 2.51508 4.13135 2.51508C1.65057 2.51508 1.44555 2.53516 1.40649 3.56707C1.39672 4.18821 1.37716 5.0397 1.37716 5.99146H6.74891ZM1.37716 7.31397C1.37716 8.57629 1.37718 9.77844 1.40649 10.4998C1.43579 11.4716 1.60182 11.5417 4.09236 11.5417C4.65884 11.5417 5.2448 11.5417 5.6257 11.5217C6.44612 11.4916 6.70005 11.1008 6.71958 10.4597C6.74888 9.70827 6.74891 8.51619 6.74891 7.32399H1.37716V7.31397Z" fill="var(--fill-0, #1B1A1A)"/>
<path id="Vector_2" d="M18.4962 10.2589V12.8437C18.4962 13.2445 18.1445 13.4648 17.7929 13.4648C17.4413 13.4648 17.0897 13.2545 17.0897 12.8437V10.2589H15.361C14.9117 10.2589 14.7067 9.95848 14.7067 9.63789C14.7067 9.3173 14.941 8.97651 15.361 8.97651H17.0897V8.59593L17.1288 5.67037C15.9959 7.60393 14.394 9.48741 12.5286 10.9401C12.3528 11.0804 12.1575 11.1407 12.0012 11.1407C11.591 11.1407 11.2687 10.8098 11.2687 10.4291C11.2687 10.2087 11.386 9.9684 11.6497 9.78807C13.5542 8.46563 15.234 6.6522 16.4646 4.43811L12.4016 4.49828H12.3919C11.9427 4.49828 11.7375 4.17781 11.7375 3.86724C11.7375 3.52661 11.9719 3.15572 12.4114 3.15572H17.0897V0.651103C17.0897 0.21029 17.4218 0 17.7831 0C18.1445 0 18.5059 0.230327 18.5059 0.651103V3.15572H23.1647C23.5846 3.15572 23.7898 3.48651 23.7898 3.83715C23.7898 4.1878 23.5846 4.49828 23.1647 4.49828H23.1451L19.092 4.43811C20.3812 6.6021 22.1978 8.17517 23.9558 9.36737C24.2 9.5477 24.3074 9.75796 24.3074 9.98839C24.3074 10.4092 23.9265 10.81 23.4577 10.81C23.2917 10.81 23.1256 10.7499 22.94 10.6297C21.3871 9.47758 19.6584 7.56401 18.4571 5.58036L18.4962 8.5859V8.97651H20.2346C20.6644 8.97651 20.8695 9.29723 20.8695 9.6078C20.8695 9.91837 20.6644 10.2489 20.2346 10.2489H18.4962V10.2589Z" fill="var(--fill-0, #1B1A1A)"/>
<path id="Vector_3" d="M26.7226 3.82737C26.2538 3.82737 26.0487 3.52671 26.0487 3.22616C26.0487 2.89555 26.2831 2.56503 26.7226 2.56503H30.8832C31.3228 2.56503 31.5279 2.87548 31.5279 3.19608C31.5279 3.51667 31.3228 3.82737 30.8832 3.82737H26.7226ZM29.8675 13.0243C29.5647 13.0443 29.1252 13.0543 28.6955 13.0543C28.2657 13.0543 27.8653 13.0443 27.5723 13.0243C26.8788 12.9842 26.4589 12.4933 26.4394 11.8421C26.4296 11.5115 26.4296 11.191 26.4296 10.8604C26.4296 10.4296 26.4296 9.98876 26.4394 9.61807C26.4492 9.04702 26.8105 8.5159 27.5333 8.47583C27.8654 8.46581 28.256 8.44574 28.6272 8.44574C29.096 8.44574 29.5549 8.45579 29.8968 8.47583C30.4633 8.50588 31.0981 8.89667 31.1176 9.54787C31.1274 9.8885 31.1274 10.2992 31.1274 10.7099C31.1274 11.1207 31.1274 11.5015 31.1176 11.8321C31.1079 12.5034 30.6196 12.9842 29.8578 13.0343L29.8675 13.0243ZM27.2011 1.7635C26.7616 1.7635 26.5566 1.47289 26.5566 1.18235C26.5566 0.861762 26.7909 0.53125 27.2011 0.53125H30.2484C30.6586 0.53125 30.8637 0.831677 30.8637 1.15227C30.8637 1.47286 30.6586 1.77353 30.2484 1.77353H27.2011V1.7635ZM27.2305 5.78092C26.791 5.78092 26.5858 5.49031 26.5858 5.19977C26.5858 4.8892 26.8203 4.5587 27.2305 4.5587H30.2777C30.6879 4.5587 30.893 4.85912 30.893 5.17971C30.893 5.48027 30.6879 5.79095 30.2777 5.79095H27.2305V5.78092ZM27.2305 7.71442C26.791 7.71442 26.5858 7.42405 26.5858 7.13351C26.5858 6.81292 26.8203 6.48216 27.2305 6.48216H30.2777C30.6879 6.48216 30.893 6.78283 30.893 7.0934C30.893 7.40397 30.6879 7.71442 30.2777 7.71442H27.2305ZM29.8578 10.74C29.8578 10.4695 29.8578 10.199 29.8382 9.98863C29.8089 9.59791 29.4866 9.57796 28.7444 9.57796C28.5393 9.57796 28.3341 9.57797 28.1193 9.58799C27.6993 9.61804 27.6992 9.8784 27.6992 10.7099C27.6992 10.9804 27.709 11.2509 27.709 11.4814C27.7188 11.7919 28.0021 11.8421 28.7444 11.8421C29.5843 11.8421 29.8285 11.7518 29.8382 11.4613C29.8578 11.2509 29.8578 10.9804 29.8578 10.73V10.74ZM31.8893 7.35389C31.4595 7.35389 31.2544 7.05324 31.2544 6.75268C31.2544 6.45213 31.479 6.13166 31.8893 6.13166H33.4128C33.5398 5.60068 33.6766 4.93939 33.8133 4.29821C33.4422 4.29821 33.0906 4.29821 32.7878 4.30823H32.7585C32.3483 4.30823 32.153 4.02764 32.153 3.72708C32.153 3.42653 32.3776 3.10606 32.7878 3.09604H34.0575C34.1454 2.66524 34.2235 2.2644 34.2625 1.98388H32.4264C31.9771 1.98388 31.7721 1.69328 31.7721 1.41276C31.7721 1.09217 32.0064 0.781712 32.4264 0.781712H37.9057C38.3354 0.781712 38.5404 1.08236 38.5404 1.38292C38.5404 1.68347 38.3354 1.98388 37.9057 1.98388H35.5909C35.5323 2.28443 35.4541 2.66524 35.3662 3.09604C35.6983 3.09604 36.0597 3.10607 36.382 3.10607C37.3196 3.1261 37.7591 3.55681 37.7591 4.51858C37.7591 4.99947 37.7396 5.58065 37.7298 6.13166H38.5404C38.9506 6.13166 39.1557 6.43207 39.1557 6.73263C39.1557 7.0432 38.9506 7.35389 38.5404 7.35389H31.8893ZM36.802 13.0844C36.4016 13.1145 35.8936 13.1245 35.376 13.1245C33.4714 13.1245 32.3483 13.1244 32.28 11.6917C32.2702 11.3912 32.2702 11.0807 32.2702 10.75C32.2702 10.3593 32.2702 9.95869 32.2995 9.60804C32.3386 8.83662 32.8659 8.31557 33.7059 8.26548C34.1356 8.25546 34.6435 8.2354 35.1416 8.2354C35.7471 8.2354 36.343 8.25546 36.802 8.26548C37.5443 8.29554 38.2377 8.8366 38.267 9.58799C38.2768 9.97871 38.2962 10.4296 38.2962 10.8704C38.2962 11.1409 38.2963 11.4114 38.2768 11.6619C38.2475 12.4433 37.7396 12.9942 36.802 13.0744V13.0844ZM36.8899 10.5096C36.8899 9.62798 36.8312 9.41773 36.3331 9.3977C36.0401 9.38768 35.6397 9.38767 35.249 9.38767C34.8583 9.38767 34.4775 9.38768 34.1942 9.3977C33.6375 9.41773 33.6278 9.6681 33.6278 10.8002C33.6278 11.0306 33.6376 11.2509 33.6376 11.4212C33.6669 11.9221 34.2528 11.9221 35.2685 11.9221C36.548 11.9221 36.8508 11.832 36.8801 11.4212C36.8899 11.1707 36.8899 10.8402 36.8899 10.5196V10.5096ZM36.4309 6.14169C36.4406 5.73093 36.4601 5.30999 36.4601 4.96936C36.4601 4.48848 36.3722 4.31826 36.0108 4.31826H35.1318C34.9853 4.94943 34.8486 5.61071 34.7217 6.14169H36.4309Z" fill="var(--fill-0, #1B1A1A)"/>
<path id="Vector_4" d="M48.5211 12.9044C47.8765 12.9344 47.0853 12.9342 46.304 12.9342C45.5226 12.9342 44.7803 12.9344 44.1845 12.9044C42.9148 12.8643 42.28 12.193 42.2409 11.0809C42.2116 10.0991 42.1921 8.4661 42.1921 6.82307C42.1921 5.36037 42.2116 3.89774 42.2409 2.88588C42.2702 1.92411 42.9734 1.29281 44.0673 1.25274C44.624 1.2327 45.5812 1.22266 46.5188 1.22266C47.2904 1.22266 48.0522 1.2327 48.5503 1.25274C49.4488 1.2828 50.3084 1.92398 50.3377 3.00597C50.367 3.92767 50.3767 5.43037 50.3767 6.93314C50.3767 8.58618 50.367 10.2393 50.3377 11.0308C50.3084 12.0827 49.5759 12.8542 48.5211 12.8943V12.9044ZM48.941 5.99146C48.941 5.0397 48.9312 4.17819 48.9116 3.56707C48.8823 2.53516 48.6676 2.51508 46.3235 2.51508C43.8428 2.51508 43.6376 2.53516 43.5985 3.56707C43.5888 4.18821 43.5692 5.0397 43.5692 5.99146H48.941ZM43.5692 7.31397C43.5692 8.57629 43.5692 9.77844 43.5985 10.4998C43.6278 11.4716 43.7939 11.5417 46.2844 11.5417C46.8509 11.5417 47.4369 11.5417 47.8178 11.5217C48.6382 11.4916 48.8921 11.1008 48.9116 10.4597C48.9409 9.70827 48.941 8.51619 48.941 7.32399H43.5692V7.31397Z" fill="var(--fill-0, #1B1A1A)"/>
<path id="Vector_5" d="M60.6921 10.2589V12.8437C60.6921 13.2445 60.3405 13.4648 59.9889 13.4648C59.6373 13.4648 59.2856 13.2545 59.2856 12.8437V10.2589H57.557C57.1077 10.2589 56.9025 9.95848 56.9025 9.63789C56.9025 9.3173 57.137 8.97651 57.557 8.97651H59.2856V8.59593L59.3247 5.67037C58.1917 7.60393 56.59 9.48741 54.7246 10.9401C54.5488 11.0804 54.3534 11.1407 54.1971 11.1407C53.7869 11.1407 53.4646 10.8098 53.4646 10.4291C53.4646 10.2087 53.5818 9.9684 53.8455 9.78807C55.7501 8.46563 57.43 6.6522 58.6606 4.43811L54.5976 4.49828H54.5878C54.1385 4.49828 53.9334 4.17781 53.9334 3.86724C53.9334 3.52661 54.1679 3.15572 54.6074 3.15572H59.2856V0.651103C59.2856 0.21029 59.6177 0 59.9791 0C60.3405 0 60.7019 0.230327 60.7019 0.651103V3.15572H65.3606C65.7806 3.15572 65.9857 3.48651 65.9857 3.83715C65.9857 4.1878 65.7806 4.49828 65.3606 4.49828H65.3411L61.2878 4.43811C62.5771 6.6021 64.3937 8.17517 66.1517 9.36737C66.3959 9.5477 66.5033 9.75796 66.5033 9.98839C66.5033 10.4092 66.1224 10.81 65.6536 10.81C65.4875 10.81 65.3216 10.7499 65.136 10.6297C63.5831 9.47758 61.8543 7.56401 60.653 5.58036L60.6921 8.5859V8.97651H62.4306C62.8603 8.97651 63.0655 9.29723 63.0655 9.6078C63.0655 9.91837 62.8603 10.2489 62.4306 10.2489H60.6921V10.2589Z" fill="var(--fill-0, #1B1A1A)"/>
<path id="Vector_6" d="M80.1374 4.28815L77.8421 4.24803C77.598 6.05136 76.8265 7.79457 75.7033 9.25727C76.9241 10.3994 78.5064 11.1908 80.3816 11.5215C80.8211 11.6016 81.0067 11.9121 81.0067 12.2327C81.0067 12.6836 80.6746 13.1546 80.1277 13.1546C80.0202 13.1546 77.2563 12.8339 74.7852 10.3193C72.1189 13.0343 69.2084 13.3549 69.14 13.3549C68.6126 13.3549 68.2903 12.934 68.2903 12.5133C68.2903 12.2027 68.4953 11.8822 68.9544 11.812C70.8687 11.4814 72.5388 10.5296 73.8182 9.21716C73.2127 8.4257 72.7244 7.56406 72.3435 6.6624C71.2301 7.71434 70.8492 7.74447 70.7027 7.74447C70.2827 7.74447 69.9408 7.40386 69.9408 7.01314C69.9408 6.72261 70.1069 6.44205 70.5074 6.22164C71.2399 5.81089 71.9431 5.13981 72.2166 4.63889C72.3142 4.45856 72.5096 4.36837 72.7049 4.36837C73.0858 4.36837 73.496 4.66886 73.496 5.04956C73.496 5.11969 73.4959 5.17973 73.3494 5.48029C73.662 6.4621 74.1015 7.36392 74.6973 8.15538C75.5372 6.98322 76.0939 5.65062 76.299 4.24803C75.8693 4.24803 75.4786 4.22798 75.0684 4.22798C73.6327 4.22798 72.0993 4.26814 69.1985 4.31823H69.1888C68.7395 4.31823 68.5149 3.9877 68.5149 3.64707C68.5149 3.28641 68.759 2.90547 69.2083 2.90547L73.955 2.92553L73.9354 0.841851C73.9354 0.381001 74.3359 0.150391 74.707 0.150391C75.0782 0.150391 75.4787 0.381001 75.4787 0.841851V2.92553L80.157 2.90547C80.5965 2.90547 80.8113 3.26635 80.8113 3.62702C80.8113 3.98768 80.6062 4.31823 80.1667 4.31823H80.157L80.1374 4.28815Z" fill="var(--fill-0, #1B1A1A)"/>
<path id="Vector_7" d="M91.1637 9.44878C91.193 9.65917 91.2028 9.88975 91.2028 10.1102C91.2028 11.4626 90.5875 13.5063 88.0384 13.5063C86.8957 13.5063 86.2803 13.1858 86.2803 12.6047C86.2803 12.224 86.5539 11.8935 86.9738 11.8935C87.0422 11.8935 87.1203 11.8933 87.2082 11.9233C87.5305 12.0235 87.8626 12.0938 88.1751 12.0938C89.816 12.0938 89.8159 10.08 89.8159 9.95973C89.8159 9.7794 89.8062 9.61909 89.7769 9.44878L83.5652 9.47886C83.116 9.47886 82.8913 9.14834 82.8913 8.81773C82.8913 8.48712 83.1257 8.12652 83.5457 8.12652L88.9662 8.1566C88.7904 8.03638 88.5951 7.91609 88.3802 7.83594C88.0774 7.73576 87.9408 7.53539 87.9408 7.33502C87.9408 7.02444 88.2825 6.70373 88.7123 6.70373C89.0346 6.70373 89.3471 6.86407 89.5815 7.00433C89.9624 6.75387 90.7341 6.19284 90.7341 6.01251C90.7341 5.9524 90.6754 5.92226 90.568 5.92226C90.4019 5.91224 90.1285 5.91223 89.7965 5.91223C88.8589 5.91223 87.4328 5.94236 86.4171 5.99245H86.3877C85.9482 5.99245 85.7334 5.682 85.7334 5.36141C85.7334 5.04082 85.9483 4.74014 86.4073 4.73012C87.0324 4.70006 87.8235 4.70003 88.6048 4.70003C89.6792 4.70003 90.7438 4.71008 91.4177 4.73012C92.2576 4.74014 92.6093 5.18111 92.6093 5.65198C92.6093 6.39335 91.8377 7.00442 90.5094 7.84597C90.5876 7.95617 90.6559 8.05618 90.7145 8.16638L95.0802 8.12652C95.51 8.12652 95.7249 8.46709 95.7249 8.81773C95.7249 9.16838 95.5198 9.47886 95.0998 9.47886L91.1735 9.45881L91.1637 9.44878ZM93.586 4.64011C93.586 4.00894 93.2636 3.89874 92.6581 3.88872C91.4861 3.86869 90.1676 3.85864 88.8979 3.85864C87.8528 3.85864 86.8273 3.86869 85.9287 3.88872C85.1181 3.89874 84.9911 4.10913 84.952 4.64011V5.52162C84.952 5.94239 84.5809 6.18275 84.2 6.18275C83.8679 6.18275 83.5066 5.97243 83.4968 5.50156C83.4968 5.31121 83.487 5.08087 83.487 4.84043C83.487 4.58997 83.4968 4.32951 83.4968 4.1091C83.5261 3.39779 84.0633 2.68629 85.206 2.66625L86.4366 2.64644C86.3585 2.60637 86.3097 2.52601 86.2511 2.43585C85.9386 1.91489 85.6162 1.71468 85.2255 1.35402C85.0986 1.2338 85.04 1.0934 85.04 0.963162C85.04 0.632552 85.4111 0.322087 85.7822 0.322087C86.3389 0.322087 87.4817 1.46411 87.4817 1.98507C87.4817 2.25556 87.2863 2.5162 87.0519 2.64644C88.3412 2.63642 89.6108 2.63641 90.9098 2.63641C91.3298 2.13549 91.7205 1.26366 91.9451 0.652531C92.0819 0.301884 92.3456 0.171664 92.6093 0.171664C93.0195 0.171664 93.4395 0.482217 93.4395 0.902992C93.4395 1.19353 92.9706 1.92511 92.3748 2.64644C92.7069 2.64644 93.0683 2.66625 93.4004 2.66625C94.2599 2.67627 95.0705 3.15732 95.0998 4.08904C95.1096 4.29943 95.1096 4.61006 95.1096 4.9006C95.1096 5.11099 95.1096 5.31116 95.0998 5.45142C95.0705 5.89223 94.6896 6.11279 94.3282 6.11279C93.9668 6.11279 93.5957 5.90228 93.5957 5.4815V4.63008L93.586 4.64011ZM89.4351 2.58627C89.23 2.58627 89.0347 2.47596 88.937 2.2255C88.7319 1.66446 88.4096 1.33382 88.0775 0.933077C87.9896 0.822874 87.9408 0.712837 87.9408 0.602634C87.9408 0.292061 88.3119 0.0214844 88.6928 0.0214844C89.4351 0.0214844 90.2457 1.49427 90.2457 1.84491C90.2457 2.24565 89.816 2.5963 89.4351 2.5963V2.58627Z" fill="var(--fill-0, #1B1A1A)"/>
<path id="Vector_8" d="M109.594 10.0901L106.996 10.0299V10.4108L107.015 11.5628V11.5929C107.015 12.3743 106.498 13.3962 104.876 13.3962C103.734 13.3962 103.451 13.1057 103.451 12.6449C103.451 12.3042 103.656 11.9534 104.017 11.9534C104.066 11.9534 104.105 11.9534 104.154 11.9634C104.417 12.0235 104.681 12.0637 104.916 12.0637C105.345 12.0637 105.648 11.9034 105.648 11.3123V10.0099L98.2937 10.0901H98.2839C97.8834 10.0901 97.6979 9.78944 97.6979 9.47886C97.6979 9.16829 97.903 8.82776 98.3034 8.82776H105.638L105.629 8.32684C105.629 8.1966 105.658 8.07629 105.716 7.98612C105.267 7.99614 104.789 7.99615 104.33 7.99615C103.216 7.99615 102.093 7.96605 100.999 7.95604C100.003 7.92598 99.5047 7.41503 99.4754 6.6937C99.4559 6.25289 99.4559 5.88228 99.4559 5.52162C99.4559 5.16095 99.4559 4.80021 99.4754 4.43954C99.5047 3.85847 99.8856 3.23735 100.97 3.20729C101.497 3.19727 102.318 3.19726 103.206 3.19726V2.44588H98.9579C98.5379 2.45589 98.3132 2.16553 98.3132 1.86497C98.3132 1.56442 98.5379 1.26377 98.9579 1.26377H103.206V0.682615C103.206 0.251821 103.558 0.0214844 103.91 0.0214844C104.261 0.0214844 104.613 0.251821 104.613 0.682615V1.28382H108.969C109.379 1.2738 109.565 1.57444 109.565 1.86497C109.565 2.15551 109.379 2.46593 108.969 2.46593H104.613V3.20729C105.492 3.20729 106.361 3.2073 106.986 3.21732C107.807 3.23736 108.363 3.80854 108.412 4.35956C108.422 4.69017 108.441 5.03082 108.441 5.38146C108.441 5.82228 108.422 6.25287 108.412 6.67364C108.383 7.34488 107.826 7.93601 106.918 7.96606H106.879C106.957 8.05623 106.986 8.1866 106.986 8.34689V8.85784L109.604 8.84782C110.014 8.84782 110.219 9.14823 110.219 9.45881C110.219 9.76938 110.014 10.1102 109.613 10.1102H109.604L109.594 10.0901ZM102.298 12.1339C101.849 11.7332 101.331 11.5529 100.862 11.4026C100.638 11.3224 100.55 11.1419 100.55 10.9515C100.55 10.6209 100.794 10.2503 101.185 10.2503C101.448 10.2503 103.353 10.6711 103.353 11.5427C103.353 11.9334 103.031 12.2941 102.679 12.2941C102.552 12.2941 102.415 12.2541 102.298 12.1439V12.1339ZM103.284 4.159C102.513 4.159 101.79 4.17906 101.321 4.18908C100.872 4.1991 100.696 4.45963 100.677 4.74015C100.677 4.84033 100.648 4.97065 100.648 5.07083H103.284V4.14921V4.159ZM103.284 6.02254H100.648C100.648 6.14276 100.677 6.27313 100.677 6.40337C100.706 6.83416 100.911 6.95421 101.331 6.97424C101.849 6.99428 102.552 6.9943 103.284 6.9943V6.03257V6.02254ZM107.181 5.07083C107.181 4.97065 107.162 4.84033 107.162 4.74015C107.133 4.15907 106.957 4.159 104.544 4.159V5.08086H107.181V5.07083ZM104.544 6.02254V6.98427C105.277 6.98427 105.97 6.98425 106.527 6.96422C106.908 6.96422 107.142 6.81412 107.172 6.39334C107.172 6.27312 107.201 6.14275 107.201 6.01251H104.554L104.544 6.02254Z" fill="var(--fill-0, #1B1A1A)"/>
<path id="Vector_9" d="M114.338 4.0176H113.048C112.658 4.0176 112.453 3.68709 112.453 3.37652C112.453 3.04591 112.658 2.72517 113.048 2.72517H117.111C117.492 2.72517 117.678 3.04591 117.678 3.37652C117.678 3.70713 117.483 4.0176 117.111 4.0176H115.705V8.31556C116.174 8.13523 116.613 7.9348 116.994 7.75447C117.111 7.71439 117.219 7.68427 117.317 7.68427C117.668 7.68427 117.951 7.98495 117.951 8.31556C117.951 8.556 117.805 8.79633 117.483 8.9466C114.631 10.269 113.146 10.76 112.824 10.76C112.394 10.76 112.169 10.3994 112.169 10.0387C112.169 9.73815 112.335 9.43766 112.668 9.34749C113.195 9.21725 113.761 9.01686 114.347 8.82651V4.0176H114.338ZM123.558 4.51852C123.382 6.36192 122.815 8.18523 121.77 9.72807C122.503 10.5396 123.46 11.2509 124.72 11.7919C125.042 11.9222 125.169 12.1826 125.169 12.433C125.169 12.8538 124.818 13.2747 124.329 13.2747C123.978 13.2747 122.337 12.5233 120.901 10.8101C119.055 12.8138 116.858 13.395 116.594 13.395C116.115 13.395 115.803 13.0143 115.803 12.6336C115.803 12.343 115.998 12.0525 116.418 11.9123C117.99 11.4514 119.182 10.6599 120.081 9.63807C119.407 8.52601 118.948 7.32359 118.703 6.17147C118.528 6.50208 118.352 6.79272 118.176 7.03316C118.01 7.25357 117.795 7.3438 117.58 7.3438C117.199 7.3438 116.828 7.07317 116.828 6.71251C116.828 6.57225 116.887 6.42202 117.024 6.26172C118.108 4.90923 119.045 2.23437 119.319 0.821761C119.397 0.461096 119.69 0.300781 119.993 0.300781C120.374 0.300781 120.754 0.541137 120.754 0.961912C120.754 1.19234 120.471 2.08401 120.032 3.24615L124.407 3.2261C124.817 3.2261 125.023 3.53681 125.023 3.86742C125.023 4.19803 124.817 4.51852 124.407 4.51852H123.548H123.558ZM119.641 4.50849C119.836 5.97119 120.198 7.34374 120.891 8.53594C121.594 7.36377 121.985 5.99124 122.132 4.52855H119.641V4.50849Z" fill="var(--fill-0, #1B1A1A)"/>
<path id="Vector_10" d="M134.791 10.7096C134.41 10.7196 134.117 10.7397 133.737 10.7497C133.063 10.7898 129.976 11.1604 129.459 11.2105C128.931 11.2706 128.619 11.3308 128.101 11.3108C127.105 11.2807 126.88 9.77793 128.14 9.77793C128.511 9.77793 128.873 9.7779 129.253 9.74785C129.752 9.70777 132.486 9.32705 133.502 9.22687C133.737 7.90443 134.088 6.19142 134.205 5.62036C134.293 5.13948 134.117 5.10923 133.697 5.16934C132.994 5.27954 130.601 5.64027 130.045 5.74046C129.39 5.86068 128.961 5.91072 128.335 5.94078C127.398 5.97083 127.076 4.49832 128.257 4.39814C128.775 4.35807 129.224 4.39805 129.752 4.30789C130.269 4.21772 132.74 3.92723 133.268 3.8571C133.756 3.77695 134.205 3.64675 134.703 3.64675C136.081 3.62672 136.286 4.72859 136.061 5.23953C135.68 6.10112 135.338 7.82443 135.045 9.12683C135.944 9.33722 136.247 10.6094 134.782 10.7096H134.791Z" fill="var(--fill-0, #1B1A1A)"/>
<path id="Vector_11" d="M148.592 7.43353H147.831C145.028 7.43353 142.898 7.57396 141.736 7.61404C140.974 7.64409 140.584 7.65415 140.291 7.65415C140.115 7.65415 139.978 7.64412 139.822 7.64412C139.265 7.62408 138.972 7.22329 138.972 6.83257C138.972 6.44184 139.265 6.10124 139.851 6.10124H139.939C140.476 6.13129 141.121 6.14135 141.717 6.14135C142.918 6.14135 146.053 5.96101 148.632 5.88086H148.661C149.247 5.88086 149.559 6.2716 149.559 6.6523C149.559 7.033 149.247 7.43353 148.622 7.43353H148.602H148.592Z" fill="var(--fill-0, #1B1A1A)"/>
<path id="Vector_12" d="M151.864 12.0731C150.78 12.4939 150.028 11.0814 151.298 10.6506C154.14 9.63871 156.67 7.1441 157.851 4.87993C157.968 4.63948 157.89 4.5292 157.715 4.54924C157.002 4.61937 155.331 5.10015 154.951 5.19031C154.257 5.34059 154.052 5.43076 153.466 5.44078C152.528 5.45079 152.265 3.89814 153.486 3.89814C153.896 3.89814 154.423 3.79779 154.784 3.72766C155.312 3.63749 157.08 3.15666 158.31 3.03644C159.56 2.91622 160.205 3.79773 159.717 4.66933C159.17 5.64113 158.574 6.60297 157.871 7.49461C159.248 8.13579 161.045 9.1177 161.885 10.35C162.207 10.8108 162.051 11.3418 161.758 11.5923C161.465 11.8527 160.996 11.8827 160.674 11.4619C159.912 10.4901 158.271 9.17778 156.972 8.56666C155.624 10.0294 153.964 11.2416 151.874 12.0631L151.864 12.0731Z" fill="var(--fill-0, #1B1A1A)"/>
</g>
</svg>
