<svg preserveAspectRatio="none" width="100%" height="100%" overflow="visible" style="display: block;" viewBox="0 0 105.483 101.042" fill="none" xmlns="http://www.w3.org/2000/svg">
<g id="Group">
<path id="Vector" d="M0.758902 12.9147L0.456133 65.6618C0.417065 72.3241 5.65206 77.764 12.1568 77.8041L59.272 78.0947L85.5252 99.8447L85.4471 78.2551L90.8383 78.2852C97.3333 78.3253 102.637 72.9552 102.676 66.2829L102.979 13.5357C103.018 6.87342 97.7825 1.43352 91.2778 1.39344L12.5865 0.912332C6.09157 0.872258 0.788193 6.24238 0.749126 12.9147H0.758902Z" fill="var(--fill-0, #E7D56D)"/>
<path id="Vector_2" d="M0.974989 43.1601C1.08242 43.2002 1.1996 43.2103 1.3168 43.2203C1.95165 43.2203 2.46929 42.6992 2.47906 42.048L2.49861 39.874V39.8139C2.51814 39.7538 2.52788 39.6837 2.52788 39.6135V38.0506C2.53765 37.9905 2.52788 37.9305 2.52788 37.8703V37.8102L2.54743 34.8347C2.54743 34.3138 2.22512 33.863 1.74655 33.7027C1.63911 33.6627 1.52193 33.6526 1.40473 33.6426C0.769888 33.6426 0.252244 34.1635 0.242477 34.8147L0.174102 42.0279C0.174102 42.5489 0.486647 42.9998 0.974989 43.1601Z" fill="var(--fill-0, #236242)"/>
<g id="Group_2">
<path id="Vector_3" d="M1.10901 28.5221C1.21645 28.5622 1.33369 28.5723 1.45089 28.5823C2.08573 28.5823 2.60337 28.0614 2.60337 27.4102V26.6688C2.60337 26.0778 2.28106 25.6167 1.80248 25.4564C1.69505 25.4163 1.57787 25.4065 1.46067 25.3965C1.15789 25.3965 0.864863 25.5165 0.640226 25.737C0.425356 25.9574 0.298411 26.258 0.298411 26.5686V27.3801C0.298411 27.9011 0.620664 28.3518 1.09924 28.5121L1.10901 28.5221Z" fill="var(--fill-0, #236242)"/>
<g id="Group_3">
<path id="Vector_4" d="M8.98597 77.8133C10.2166 78.2141 11.5156 78.4246 12.8243 78.4346L58.162 78.8052L58.7186 79.196C58.7772 79.2661 58.8359 79.3262 58.8945 79.3763L84.8352 100.786C84.9426 100.876 85.0696 100.946 85.2063 100.986C85.4896 101.076 85.7826 101.056 86.056 100.926C86.4467 100.736 86.7104 100.315 86.7104 99.874L87.0034 79.5267C87.0034 79.3464 86.9643 79.166 86.8862 79.0057L86.1927 79.0358L92.0626 79.0857C99.1826 79.1458 105.023 73.2451 105.082 65.9416L105.482 13.8556C105.511 10.3191 104.193 6.97276 101.771 4.45812C100.296 2.92529 98.4794 1.77334 96.5065 1.12213C95.2759 0.721396 93.9866 0.510891 92.6681 0.500872L51.1591 0.160156C50.8563 0.160156 50.5634 0.280466 50.3387 0.500872C50.1239 0.721279 49.9969 1.02191 49.9969 1.33248C49.9969 1.85344 50.3192 2.31418 50.7977 2.46445C50.9052 2.50453 51.0224 2.5146 51.1396 2.52462L92.6486 2.86534C93.723 2.86534 94.7875 3.04568 95.8033 3.37629C97.4246 3.90727 98.9189 4.85901 100.13 6.11131C102.122 8.18514 103.207 10.9302 103.177 13.8355L102.777 65.9215C102.757 68.8269 101.624 71.5518 99.6026 73.5956C97.5809 75.6394 94.9047 76.7515 92.0724 76.7315L77.6858 76.6112C77.051 76.6112 76.5334 77.1323 76.5236 77.7835C76.5236 78.3045 76.8459 78.7552 77.3245 78.9155C77.4319 78.9555 77.5491 78.9656 77.6663 78.9756L85.2356 79.0358L84.8254 78.9957C84.7473 79.156 84.6984 79.3363 84.6984 79.5167L84.4152 97.4396L61.7171 78.8553L60.0372 77.4729C60.2814 77.6732 59.5879 77.1122 59.4316 76.982C58.7284 76.4109 58.3671 76.491 57.8983 76.3908C57.781 76.3708 56.9899 76.451 56.8727 76.451L12.8439 76.0802C11.7695 76.0802 10.705 75.8998 9.68921 75.5692C8.06792 75.0382 6.56384 74.0865 5.36252 72.8342C3.37008 70.7604 2.28591 68.0153 2.31521 65.11L2.44218 48.1789C2.44218 47.6579 2.1297 47.2069 1.64136 47.0467C1.53392 47.0066 1.41668 46.9965 1.29948 46.9865C0.664639 46.9865 0.146995 47.5076 0.137228 48.1588L0.000478022 65.0899C-0.0288225 68.6264 1.28975 71.9727 3.71192 74.4874C5.18671 76.0202 7.00329 77.1722 8.97619 77.8234L8.98597 77.8133Z" fill="var(--fill-0, #236242)"/>
<path id="Vector_5" d="M30.9892 2.3043C31.0966 2.34437 31.2138 2.35445 31.331 2.36447L35.0815 2.39455C35.7164 2.39455 36.234 1.87342 36.2438 1.22222C36.2438 0.701264 35.9312 0.25055 35.4429 0.0902543C35.3354 0.0501804 35.2182 0.0401032 35.101 0.0300848L31.3506 0C30.7157 0 30.1981 0.520882 30.1883 1.17208C30.1883 1.69304 30.5009 2.144 30.9892 2.3043Z" fill="var(--fill-0, #236242)"/>
<path id="Vector_6" d="M39.6162 2.35482C39.7627 2.40491 39.9093 2.41473 40.0655 2.40471L45.5057 2.57519C45.8084 2.54514 46.0917 2.40472 46.287 2.16428C46.4823 1.92384 46.58 1.6134 46.5507 1.30283C46.5117 0.821941 46.1991 0.421183 45.7498 0.280924C45.6033 0.230832 45.4568 0.220764 45.3005 0.230783L39.8604 0.0605469C39.5576 0.0906023 39.2744 0.230773 39.0791 0.471216C38.8837 0.71166 38.7861 1.02234 38.8154 1.33291C38.8545 1.8138 39.167 2.21456 39.6162 2.35482Z" fill="var(--fill-0, #236242)"/>
<path id="Vector_7" d="M1.18336 20.3579C1.2908 20.398 1.40798 20.4081 1.52518 20.4181C1.82795 20.4181 2.12098 20.2978 2.34562 20.0774C2.56049 19.857 2.68743 19.5564 2.68743 19.2458L2.73632 13.2447C2.75585 10.3394 3.8888 7.61444 5.91053 5.57067C7.93227 3.5269 10.6083 2.41474 13.4407 2.44479L24.9167 2.53504C25.5516 2.53504 26.0692 2.01416 26.079 1.36296C26.079 0.842002 25.7567 0.391043 25.2781 0.230748C25.1707 0.190674 25.0535 0.180597 24.9363 0.170578L13.4603 0.0805685C10.0126 0.0505131 6.75046 1.40306 4.29898 3.88764C1.83774 6.37222 0.470377 9.68815 0.441076 13.2247L0.392254 19.2257C0.392254 19.7467 0.7048 20.1976 1.19314 20.3579H1.18336Z" fill="var(--fill-0, #236242)"/>
<g id="Group_4">
<path id="Vector_8" d="M24.854 53.3401V54.9732C24.854 55.1936 24.6587 55.3137 24.4536 55.3137C24.2484 55.3137 24.0629 55.1936 24.0629 54.9732V53.3401H21.3574C21.0937 53.3401 20.9668 53.1697 20.9668 52.9994C20.9668 52.809 21.1035 52.6088 21.3574 52.6088H24.0629V52.4084C24.0629 52.2582 24.1312 52.1579 24.2289 52.0978C24.1117 52.0277 24.0238 51.9074 24.0238 51.7771C24.0238 51.687 24.0628 51.5968 24.1703 51.5267C24.6879 51.1961 25.1079 50.6552 25.3814 49.9439C25.44 49.7836 25.5572 49.7236 25.6842 49.7236C25.8698 49.7236 26.065 49.8637 26.065 50.0741C26.065 50.1242 26.0651 50.2042 25.899 50.5048C26.2506 50.8454 26.6902 51.1059 27.0808 51.3063C27.2273 51.3865 27.2957 51.5068 27.2957 51.637C27.2957 51.8474 27.1297 52.0577 26.905 52.0577C26.612 52.0577 25.9869 51.5568 25.5572 51.0759C25.2837 51.4766 24.981 51.8273 24.6391 52.0577L24.6196 52.0778C24.7465 52.1278 24.854 52.2381 24.854 52.4084V52.6188H27.5887C27.8328 52.6188 27.9598 52.7992 27.9598 52.9896C27.9598 53.1599 27.8426 53.3501 27.5887 53.3501H24.854V53.3401ZM24.4536 49.6333L21.7189 49.6534C21.4551 49.6534 21.3184 49.4629 21.3184 49.2725C21.3184 49.0822 21.4551 48.902 21.7189 48.902L24.0629 48.922V48.3008C24.0629 48.0403 24.2777 47.9102 24.4828 47.9102C24.6879 47.9102 24.9028 48.0403 24.9028 48.3008V48.9321L27.2957 48.912C27.5496 48.912 27.6668 49.1022 27.6668 49.2826C27.6668 49.4629 27.5496 49.6634 27.2957 49.6634L24.473 49.6433L24.4536 49.6333ZM21.9727 52.178C21.7579 52.178 21.5723 52.0076 21.5723 51.8072C21.5723 51.697 21.6309 51.587 21.7579 51.4768C22.2755 51.0861 22.6565 50.625 22.8811 50.0139C22.9495 49.8235 23.0862 49.7434 23.2229 49.7434C23.3987 49.7434 23.5843 49.8737 23.5843 50.0841C23.5843 50.2043 23.4378 50.4948 23.4183 50.5248C23.6136 50.595 24.1703 50.8957 24.1703 51.2364C24.1703 51.4367 24.0238 51.627 23.8578 51.627C23.7894 51.627 23.7113 51.5968 23.6429 51.5167C23.4671 51.3163 23.2522 51.146 23.1155 51.0558C22.8127 51.5267 22.295 52.168 21.9727 52.168V52.178Z" fill="var(--fill-0, #236242)"/>
<path id="Vector_9" d="M35.6161 53.1286L33.565 53.0885H33.3209C34.1706 53.7096 35.0203 54.0101 35.9481 54.3207C36.1239 54.3808 36.2021 54.5111 36.2021 54.6414C36.2021 54.8618 36.0263 55.1022 35.7723 55.1022C35.6063 55.1022 34.1999 54.5612 32.9595 53.5794L32.979 55.0119C32.979 55.2323 32.7837 55.3326 32.5981 55.3326C32.4125 55.3326 32.2173 55.2323 32.2173 55.0119L32.2367 53.5794C31.2308 54.4109 29.6876 55.1323 29.4239 55.1323C29.1797 55.1323 29.0137 54.9518 29.0137 54.7615C29.0137 54.6312 29.1016 54.5012 29.2969 54.431C30.2834 54.0804 31.0452 53.7196 31.8266 53.0885H31.5628L29.59 53.1286C29.3849 53.1286 29.2872 52.9782 29.2872 52.8179C29.2872 52.6576 29.3946 52.4973 29.5997 52.4973L32.2563 52.5173V52.1468H30.4104C30.2346 52.1468 30.1369 52.0065 30.1369 51.8662C30.1369 51.726 30.2346 51.5957 30.4104 51.5957H32.2367V51.245H30.0002C29.7951 51.245 29.6876 51.1049 29.6876 50.9446C29.6876 50.7943 29.7951 50.644 30.0002 50.644H31.4261C31.3773 50.5238 31.3187 50.4035 31.2601 50.3133C31.2308 50.2733 31.221 50.2333 31.221 50.1932C31.221 50.093 31.3089 50.0129 31.4261 49.9729H29.5704C29.3458 49.9729 29.2286 49.8025 29.2286 49.6321C29.2286 49.4618 29.3458 49.2914 29.5606 49.2914L30.6253 49.3115C30.5081 49.1211 30.3616 48.9408 30.2053 48.7805C30.1565 48.7204 30.1369 48.6603 30.1369 48.6102C30.1369 48.4399 30.3518 48.2795 30.5471 48.2795C30.6155 48.2795 30.6741 48.2796 30.7327 48.3297C30.8792 48.4299 31.3089 49.0009 31.387 49.3315H31.6703V48.2297C31.6703 47.9892 31.8461 47.8789 32.0317 47.8789C32.2173 47.8789 32.393 47.9992 32.393 48.2297V49.3416H32.8618V48.2297C32.8618 47.9992 33.0376 47.8789 33.2232 47.8789C33.4088 47.8789 33.5846 47.9992 33.5846 48.2196L33.565 49.3315H33.8385C34.0046 49.0711 34.151 48.7404 34.2487 48.4899C34.3171 48.3196 34.4538 48.2394 34.5906 48.2394C34.8055 48.2394 35.0106 48.4099 35.0106 48.6203C35.0106 48.6403 35.0105 48.8106 34.6199 49.3215L35.7235 49.3015C35.9384 49.3015 36.0458 49.4719 36.0458 49.6422C36.0458 49.8125 35.9384 49.9927 35.7137 49.9927H33.7604C33.8776 50.0428 33.9655 50.1329 33.9655 50.2632C33.9655 50.3534 33.8483 50.624 33.819 50.6741H35.2352C35.4403 50.6741 35.5379 50.8144 35.5379 50.9747C35.5379 51.125 35.4403 51.2751 35.2352 51.2751H33.0084V51.6258H34.8152C35.0008 51.6258 35.0887 51.7561 35.0887 51.8963C35.0887 52.0266 35.0008 52.1668 34.8152 52.1668H32.9986V52.5274L35.6551 52.5073C35.8602 52.5073 35.9677 52.6677 35.9579 52.828C35.9579 52.9883 35.8602 53.1386 35.6649 53.1386L35.6161 53.1286ZM31.7386 49.9829C31.8168 50.023 32.0707 50.2232 32.1489 50.644V50.6641H33.0474C33.1158 50.5138 33.1939 50.2933 33.2134 50.123C33.2134 50.0529 33.2525 50.0129 33.2916 49.9829H31.7289H31.7386Z" fill="var(--fill-0, #236242)"/>
<path id="Vector_10" d="M37.5482 54.962C37.2845 54.962 37.1673 54.7916 37.1673 54.6012C37.1673 54.4008 37.304 54.2006 37.5482 54.2006H40.322V52.7078H38.7984C38.5347 52.7078 38.4174 52.5374 38.4174 52.3571C38.4174 52.1767 38.5542 51.9765 38.7984 51.9765H40.322V50.7142H38.8765C38.6127 51.195 38.3198 51.6457 37.9779 52.0765C37.8607 52.2168 37.7338 52.2668 37.6166 52.2668C37.4017 52.2668 37.2259 52.0966 37.2259 51.8963C37.2259 51.8161 37.2552 51.7259 37.3333 51.6258C37.851 51.0146 38.4565 50.0429 38.7788 48.9008C38.8374 48.7004 38.9937 48.6202 39.15 48.6202C39.3746 48.6202 39.609 48.7704 39.609 49.0008C39.609 49.0309 39.609 49.0811 39.5895 49.1211C39.482 49.4117 39.3746 49.6923 39.2476 49.9728H40.3318V48.4999C40.3318 48.1893 40.5466 48.0391 40.7517 48.0391C40.9568 48.0391 41.1619 48.1893 41.1619 48.4999V49.9828H43.3595C43.6232 49.9828 43.7501 50.153 43.7501 50.3534C43.7501 50.5538 43.6232 50.7242 43.3595 50.7242H41.1619V51.9865H42.8027C43.0664 51.9865 43.1934 52.1567 43.1934 52.3571C43.1934 52.5575 43.0664 52.7279 42.8027 52.7279H41.1619V54.2206H43.8771C44.1213 54.2206 44.2385 54.4008 44.2385 54.5912C44.2385 54.7815 44.1213 54.962 43.8771 54.962H37.558H37.5482Z" fill="var(--fill-0, #236242)"/>
<path id="Vector_11" d="M50.6193 51.6362C50.6193 50.7145 49.9161 49.9231 48.7343 49.9231H48.7147C48.8417 49.9832 48.9394 50.1033 48.9394 50.2736V50.3137C48.9394 51.1853 48.0994 52.7082 47.2106 53.5998C47.0055 53.8002 46.8004 53.8803 46.6051 53.8803C46.0289 53.8803 45.5112 53.209 45.5112 52.3074C45.5112 50.8046 46.9567 49.2617 48.7831 49.2617C50.4239 49.2617 51.4495 50.3739 51.4495 51.6763C51.4495 51.9869 51.3908 52.2974 51.2736 52.618C50.5606 54.4714 48.3534 54.722 48.2361 54.722C47.9529 54.722 47.7771 54.5215 47.7771 54.3111C47.7771 54.1307 47.9138 53.9505 48.2264 53.8904C49.7012 53.6399 50.629 52.7082 50.629 51.6162L50.6193 51.6362ZM48.2753 49.9632C47.2595 50.1736 46.2437 51.2754 46.2437 52.2673C46.2437 52.8884 46.6539 52.9687 46.6735 52.9687C46.7223 52.9687 46.7809 52.9486 46.8297 52.8986C47.0739 52.6781 48.0897 51.4358 48.119 50.3137C48.119 50.1434 48.1874 50.0233 48.2753 49.9532V49.9632Z" fill="var(--fill-0, #236242)"/>
<path id="Vector_12" d="M56.9853 53.7709C56.7704 53.7709 56.6141 53.791 56.3993 53.791C56.0281 53.821 54.3092 54.0114 54.0259 54.0515C53.7329 54.0815 53.5669 54.1216 53.2739 54.1116C52.7172 54.0916 52.6 53.26 53.3032 53.26C53.5083 53.26 53.7134 53.2602 53.9185 53.2401C54.192 53.2201 55.7156 53.0097 56.2723 52.9496C56.3993 52.2182 56.5946 51.2665 56.663 50.9459C56.7118 50.6754 56.6142 50.6654 56.3798 50.6954C55.9891 50.7555 54.6706 50.9557 54.358 51.0158C53.9967 51.086 53.7525 51.1061 53.4106 51.1261C52.893 51.1462 52.7074 50.3246 53.3716 50.2644C53.6548 50.2444 53.9087 50.2646 54.2017 50.2146C54.485 50.1645 55.8621 50.0042 56.1551 49.9641C56.4188 49.924 56.6727 49.8438 56.956 49.8438C57.7178 49.8438 57.835 50.445 57.7081 50.7255C57.4932 51.1964 57.3076 52.158 57.1513 52.8794C57.6494 52.9996 57.8155 53.7008 57.0048 53.7509L56.9853 53.7709Z" fill="var(--fill-0, #236242)"/>
<path id="Vector_13" d="M59.6725 55.1428C59.0962 55.4333 58.686 54.6218 59.2915 54.3613C60.2878 53.9205 61.1765 53.1191 61.8895 52.2375C61.5769 52.0572 61.2547 51.9067 60.9617 51.7965C60.444 51.6061 60.7859 50.8548 61.4207 51.1253C61.7235 51.2456 62.0555 51.3958 62.3876 51.5661C62.6513 51.1754 62.8955 50.7747 63.0811 50.404C63.2373 50.1035 63.3545 49.7528 63.3838 49.6025C63.4913 49.0315 64.4191 49.1416 64.2921 49.7928C64.2433 50.0733 64.1066 50.364 63.9112 50.6946C63.6475 51.1354 63.3839 51.5663 63.1006 51.987C63.3741 52.1674 63.6182 52.3676 63.8136 52.598C64.0187 52.8284 63.9601 53.1189 63.8136 53.2792C63.6671 53.4395 63.4034 53.4996 63.208 53.2792C63.042 53.0889 62.8173 52.8987 62.5634 52.7083C61.8016 53.6801 60.8835 54.5417 59.6529 55.1528L59.6725 55.1428Z" fill="var(--fill-0, #236242)"/>
<path id="Vector_14" d="M67.5537 51.2361C67.2118 50.9856 66.7821 50.7551 66.4012 50.665C65.9128 50.5548 66.1179 49.7232 66.7332 49.8835C67.163 50.0037 67.6708 50.1841 68.0713 50.4446C68.335 50.6149 68.335 50.9154 68.208 51.1158C68.0908 51.3161 67.8174 51.4365 67.5537 51.2361ZM67.9053 54.3818C67.6318 54.5321 67.4462 54.6222 67.1239 54.6523C66.45 54.7124 66.3523 53.8307 66.87 53.7806C67.036 53.7605 67.329 53.6504 67.4951 53.5702C68.9699 52.889 70.2786 51.5265 71.099 49.9036C71.3627 49.3826 72.1831 49.7332 71.8315 50.3945C70.8256 52.2679 69.5656 53.4901 67.9053 54.3818Z" fill="var(--fill-0, #236242)"/>
<path id="Vector_15" d="M74.6855 54.581C74.6855 54.9717 74.4706 55.1923 74.2459 55.2123C74.0213 55.2324 73.7869 55.0821 73.7966 54.7014C73.8455 53.3389 73.865 50.7239 73.826 49.5116C73.826 49.2411 73.7967 48.9807 73.7576 48.8104C73.6111 48.2193 74.5487 48.0992 74.6171 48.6803C74.6464 48.9307 74.6562 48.8506 74.6464 49.4216C74.6464 49.7522 74.6464 50.233 74.6464 50.794C74.6855 50.794 74.7343 50.794 74.7831 50.794C75.1933 50.8341 76.2579 51.0645 76.6974 51.5554C77.0783 51.9762 76.5216 52.6476 76.0919 52.2369C75.7793 51.9263 75.0566 51.6657 74.6366 51.6156C74.6366 52.6876 74.6561 53.8397 74.6757 54.581H74.6855Z" fill="var(--fill-0, #236242)"/>
<path id="Vector_16" d="M81.6678 52.6984C81.6678 52.8386 81.6678 52.9889 81.6483 53.1592C81.6287 53.4898 81.4041 53.6701 81.2088 53.6701C81.0329 53.6701 80.8767 53.5397 80.8767 53.2793V53.1993C80.8962 52.9989 80.906 52.8085 80.906 52.6382C80.7399 52.7284 79.9781 53.1391 79.9781 53.6601C79.9781 53.8003 80.0465 54.2911 80.8767 54.2911C81.2478 54.2911 81.6678 54.191 81.9022 54.1209C81.9706 54.1009 82.0487 54.0908 82.1073 54.0908C82.371 54.0908 82.5272 54.2813 82.5272 54.4817C82.5272 54.652 82.4589 55.0826 81.072 55.0826C79.6851 55.0826 79.2554 54.3612 79.2554 53.7601C79.2554 52.7483 80.4079 52.1072 80.8278 51.8868C80.7302 51.5662 80.5641 51.3959 80.3493 51.3959C80.2223 51.3959 80.0856 51.4459 79.9293 51.5461C79.5875 51.9368 79.3824 52.057 79.2066 52.057C79.0112 52.057 78.855 51.927 78.855 51.7366C78.855 51.6364 78.9038 51.5161 79.0405 51.3959C79.4801 50.9952 79.6949 50.7848 80.0758 50.1336C79.9293 50.1536 79.8023 50.1637 79.6754 50.1637C78.8549 50.1637 78.8452 49.6928 78.8452 49.6326C78.8452 49.4423 78.9819 49.2618 79.1772 49.2618C79.2651 49.2618 79.3628 49.292 79.4702 49.3722C79.5484 49.4222 79.6461 49.4424 79.7731 49.4424C79.8414 49.4424 80.0465 49.4423 80.4176 49.3521C80.486 49.1317 80.5251 48.9815 80.5642 48.691C80.5935 48.4806 80.7399 48.4004 80.906 48.4004C81.1209 48.4004 81.3455 48.5505 81.3455 48.7709C81.3455 48.8711 81.3162 49.0014 81.2967 49.0816C81.5408 48.9614 81.5701 48.9515 81.6287 48.9515C81.8241 48.9515 81.9803 49.1216 81.9803 49.322C81.9803 49.5925 81.7655 49.763 80.9255 49.9734C80.8083 50.2338 80.6423 50.5142 80.4665 50.8047C80.9157 50.8047 81.2771 51.0652 81.492 51.5862C82.5175 51.1354 83.2305 50.915 83.3672 50.915C83.6602 50.915 83.8263 51.1354 83.8263 51.3458C83.8263 51.476 83.7579 51.6163 83.6114 51.6664C83.3575 51.7766 83.0937 51.8067 82.6738 51.9369C82.3319 52.0471 81.9803 52.1773 81.6678 52.3075C81.6873 52.4277 81.6873 52.5681 81.6873 52.7084L81.6678 52.6984Z" fill="var(--fill-0, #236242)"/>
<path id="Vector_17" d="M45.5794 60.3023C45.3254 60.3023 45.218 60.1422 45.218 59.9819C45.218 59.8216 45.3449 59.6211 45.5794 59.6211H47.8159C48.0503 59.6211 48.1675 59.7915 48.1675 59.9618C48.1675 60.1322 48.0503 60.3023 47.8159 60.3023H45.5794ZM46.5951 65.4219C46.39 65.4219 46.1849 65.4218 46.0286 65.4018C45.6672 65.3717 45.4328 65.1114 45.423 64.7407C45.423 64.5203 45.423 64.3097 45.423 64.0994C45.423 63.889 45.423 63.6888 45.423 63.5084C45.423 63.1878 45.6281 62.8972 46.0188 62.8771C46.1946 62.8771 46.39 62.8571 46.5755 62.8571C46.8002 62.8571 47.0248 62.8571 47.2104 62.8771C47.5229 62.8972 47.855 63.1076 47.8648 63.4683C47.8648 63.6587 47.8648 63.889 47.8648 64.1094C47.8648 64.3298 47.8648 64.5503 47.8648 64.7306C47.8648 64.8208 47.8452 64.901 47.8159 64.9811C48.9489 64.7607 49.193 63.9191 49.193 62.6868C49.193 62.5866 49.193 62.4764 49.193 62.3662V62.3461C49.193 62.0957 49.3689 61.9756 49.5545 61.9756C49.7498 61.9756 49.9549 62.1057 49.9646 62.3662C49.9646 62.4664 49.9646 62.5666 49.9646 62.6768C49.9646 64.0093 49.6228 65.3317 47.9625 65.6723C47.9234 65.6723 47.8843 65.6723 47.8453 65.6723C47.6109 65.6723 47.4936 65.5019 47.4936 65.3316V65.3015C47.3764 65.3516 47.2788 65.4018 46.5951 65.4018V65.4219ZM45.843 59.1603C45.6086 59.1603 45.4914 58.9999 45.4914 58.8397C45.4914 58.6693 45.6086 58.4892 45.843 58.4892H47.4546C47.6694 58.4892 47.7867 58.6593 47.7867 58.8196C47.7867 58.9799 47.6694 59.1503 47.4546 59.1503H45.843V59.1603ZM45.8626 61.3844C45.6282 61.3844 45.511 61.224 45.511 61.0637C45.511 60.8934 45.6282 60.7132 45.8626 60.7132H47.4741C47.689 60.7132 47.8062 60.8834 47.8062 61.0437C47.8062 61.204 47.689 61.3744 47.4741 61.3744H45.8626V61.3844ZM45.8626 62.4564C45.6282 62.4564 45.511 62.2961 45.511 62.1358C45.511 61.9655 45.6282 61.785 45.8626 61.785H47.4741C47.689 61.785 47.8062 61.9554 47.8062 62.1157C47.8062 62.276 47.689 62.4464 47.4741 62.4464H45.8626V62.4564ZM47.1908 64.1395C47.1908 63.9792 47.1908 63.8189 47.1908 63.7087C47.1713 63.4883 46.9955 63.4884 46.6244 63.4884C46.5267 63.4884 46.4291 63.4884 46.3119 63.4884C46.0872 63.5084 46.0872 63.6285 46.0872 64.1294C46.0872 64.2897 46.0872 64.45 46.0872 64.5702C46.0872 64.7405 46.2533 64.7705 46.6146 64.7705C47.1225 64.7705 47.1811 64.7004 47.1908 64.5602C47.1908 64.4399 47.1908 64.2897 47.1908 64.1395ZM48.734 62.5966C48.734 62.817 48.5582 62.9273 48.3824 62.9273C48.2066 62.9273 48.0211 62.807 48.0211 62.5866C48.0211 62.4763 48.0211 62.3663 48.0211 62.2461C48.0211 62.1259 48.0211 61.9855 48.0211 61.8552C48.0406 61.4344 48.3141 61.144 48.8708 61.144C49.3396 61.144 49.867 61.144 50.3944 61.144C50.7851 61.144 51.1659 61.144 51.5273 61.144C51.9278 61.144 52.338 61.4145 52.3575 61.9154C52.3575 62.0256 52.3575 62.1359 52.3575 62.2461C52.3575 62.3663 52.3575 62.4663 52.3575 62.5665C52.338 62.7869 52.1524 62.8972 51.9766 62.8972C51.8008 62.8972 51.6152 62.7969 51.6152 62.5765V62.5565C51.6152 61.8351 51.6152 61.7652 51.1953 61.7552C50.8632 61.7552 50.3846 61.7351 49.9353 61.7351C48.8219 61.7351 48.7438 61.7351 48.7145 62.1558V62.5765L48.734 62.5966ZM48.734 60.7631C48.4996 60.7631 48.3922 60.613 48.3922 60.4527C48.3922 60.2824 48.5094 60.122 48.734 60.122H49.7303V59.6713H48.4019C48.1675 59.6713 48.0503 59.5209 48.0503 59.3606C48.0503 59.1903 48.1675 59.0199 48.4019 59.0199H49.7303V58.519C49.7303 58.2685 49.9158 58.1484 50.1111 58.1484C50.3064 58.1484 50.5018 58.2685 50.5018 58.519V59.0299H51.9864C52.211 59.0299 52.3184 59.1903 52.3184 59.3506C52.3184 59.5209 52.211 59.6813 51.9864 59.6813H50.5018V60.1321H51.5859C51.8008 60.1321 51.9082 60.2824 51.9082 60.4427C51.9082 60.613 51.8008 60.7631 51.5859 60.7631H48.734ZM51.8692 64.0693C51.8692 63.8388 52.0352 63.7388 52.2012 63.7388C52.3673 63.7388 52.5919 63.8389 52.5919 64.1395C52.5919 65.0612 52.3477 65.552 51.2929 65.552C50.4627 65.552 50.287 65.1813 50.287 64.5902C50.287 64.2596 50.3065 62.5765 50.3162 62.316C50.3358 62.1056 50.5214 61.9956 50.7069 61.9956C51.0585 61.9956 51.0585 62.3061 51.0585 62.4464C51.0585 62.8972 51.0292 64.0093 51.0292 64.42C51.0292 64.6504 51.0487 64.8207 51.3417 64.8207C51.7422 64.8207 51.8789 64.7907 51.8789 64.1695V64.0893L51.8692 64.0693Z" fill="var(--fill-0, #236242)"/>
<path id="Vector_18" d="M55.9903 59.4313C55.9903 59.4313 56.0294 59.4313 56.0587 59.4313C56.2443 59.4313 56.4005 59.6015 56.4005 59.8018C56.4005 60.0523 56.2345 60.1325 55.9025 60.3128C55.8439 60.7336 55.8145 61.2948 55.7852 61.7256C55.8633 61.8458 55.9122 61.996 55.9122 62.1663C55.9122 62.2865 55.8927 62.4066 55.8439 62.5469C55.7462 62.8074 55.5313 63.1682 55.3848 63.4788C55.3164 63.6291 55.2871 63.7692 55.2871 63.8995C55.2871 64.4104 55.795 64.6408 56.2735 64.6408C56.8791 64.6408 57.7874 64.1799 57.7874 63.5889C57.7874 63.4586 57.7679 63.3685 57.553 62.597C57.5335 62.5369 57.5335 62.4769 57.5335 62.4268C57.5335 62.1763 57.7191 62.046 57.9144 62.046C58.0805 62.046 58.266 62.1462 58.3246 62.3566C58.6469 63.3584 58.6469 63.619 58.6469 63.659C58.6469 64.6509 57.2405 65.4023 56.2638 65.4023C55.5508 65.4023 54.5351 64.9914 54.5351 64.0396C54.5351 63.8493 54.5741 63.639 54.6523 63.4186C54.0956 63.3385 53.8514 62.6974 53.8514 62.2566C53.8514 61.6755 54.2616 61.2447 54.789 61.2447C54.8769 61.2447 54.9843 61.2645 55.082 61.2846C55.1015 61.0441 55.1211 60.7837 55.1504 60.5733C54.9746 60.6134 54.8183 60.6234 54.6913 60.6234C54.203 60.6234 53.9784 60.4632 53.9784 60.2027C53.9784 60.0424 54.076 59.8219 54.3299 59.8219C54.369 59.8219 54.4179 59.842 54.4765 59.852C54.5546 59.882 54.6523 59.8921 54.7597 59.8921C54.8964 59.8921 55.0527 59.872 55.1992 59.8219C55.1992 59.6015 55.1504 59.4512 55.1406 59.3109V59.251C55.1406 58.9705 55.3359 58.8301 55.541 58.8301C55.7461 58.8301 55.9806 58.9803 55.9903 59.2608V59.4313ZM54.7695 61.9158C54.5937 61.9158 54.496 62.0562 54.496 62.2365C54.496 62.507 54.6327 62.6572 54.7597 62.6572C54.9941 62.6572 55.1211 62.2064 55.1211 62.1563C55.1211 62.0861 55.0722 62.0662 55.0527 62.0061C54.9843 61.956 54.8964 61.9158 54.7695 61.9158ZM59.1157 60.7137C58.8715 60.5233 58.6957 60.4231 58.559 60.4231C58.4223 60.4231 58.3246 60.5133 58.2269 60.7036C58.1488 60.8539 58.0218 60.914 57.9046 60.914C57.6898 60.914 57.4847 60.7438 57.4847 60.4933C57.4847 60.1927 57.8753 59.6717 58.5688 59.6717C59.1743 59.6717 59.7603 60.0524 59.7603 60.393C59.7603 60.6134 59.5845 60.8037 59.3599 60.8037C59.2818 60.8037 59.1939 60.7738 59.1157 60.7137Z" fill="var(--fill-0, #236242)"/>
</g>
<path id="Vector_19" d="M53.1323 17.5531C55.8239 17.5531 58.0059 15.3149 58.0059 12.5539C58.0059 9.7929 55.8239 7.55469 53.1323 7.55469C50.4407 7.55469 48.2587 9.7929 48.2587 12.5539C48.2587 15.3149 50.4407 17.5531 53.1323 17.5531Z" stroke="var(--stroke-0, #236242)" stroke-width="0.946746" stroke-miterlimit="10"/>
<path id="Vector_20" d="M55.0931 10.4785H52.2802V13.3038H55.0931V10.4785Z" stroke="var(--stroke-0, #236242)" stroke-width="0.946746" stroke-linecap="round" stroke-linejoin="round"/>
<path id="Vector_21" d="M50.993 12.1719V14.6065H53.4933" stroke="var(--stroke-0, #236242)" stroke-width="0.946746" stroke-linecap="round" stroke-linejoin="round"/>
<g id="Group_5">
<path id="Vector_22" d="M11.8976 39.8421C11.8976 40.9742 11.3213 41.5051 10.0809 41.5051C8.93821 41.5051 8.31314 41.0343 8.31314 39.8421V28.4911C8.31314 27.2388 9.02612 26.8281 10.1493 26.8281C11.2725 26.8281 11.8781 27.3189 11.8976 28.4911V39.8421Z" fill="var(--fill-0, white)"/>
<path id="Vector_23" d="M18.1588 39.8427C18.1588 41.0649 17.5337 41.5056 16.4105 41.5056C15.3557 41.5056 14.7111 41.0649 14.7111 39.8427V32.0282C14.7111 30.826 15.3557 30.3652 16.4789 30.3652C16.8793 30.3652 17.2504 30.4354 17.5825 30.6558C16.9184 31.0065 16.3812 31.5374 16.3812 32.3489C16.3812 33.4609 17.0942 34.3126 18.1588 34.4328V39.8527V39.8427ZM23.9993 39.8427C23.9993 41.0649 23.3743 41.5056 22.2511 41.5056C21.1279 41.5056 20.5517 41.0449 20.5517 39.8427V34.9337C20.5517 34.3426 20.5028 33.3908 19.7312 33.3908C19.4968 33.3908 19.3015 33.5109 19.0085 33.7112C18.7643 33.8816 18.5006 34.0018 18.1881 34.0018C17.3774 34.0018 16.7817 33.1905 16.7817 32.399C16.7817 30.9063 19.0085 30.3652 20.1512 30.3652C21.7041 30.3652 23.1887 31.0265 23.7357 32.6194C23.9994 33.4008 24.0189 34.2123 24.0189 35.0538V39.8427H23.9993Z" fill="var(--fill-0, white)"/>
<path id="Vector_24" d="M28.2109 32.109C28.2109 33.0407 27.7031 33.5115 26.7752 33.5115C25.8474 33.5115 25.359 33.0507 25.359 32.109C25.359 31.6381 25.5446 31.1272 25.9548 30.8867C26.199 30.7565 26.619 30.7163 26.7948 30.7163C27.6836 30.7163 28.2109 31.1772 28.2109 32.0989V32.109ZM28.6016 32.109C28.6016 31.1773 28.0937 30.4659 27.1659 30.3457V29.2235C27.1659 28.0013 27.8105 27.5605 28.9337 27.5605C30.0569 27.5605 30.6136 28.1015 30.6136 29.2235V30.7163H31.2875C32.1763 30.7163 32.7037 31.1772 32.7037 32.0989C32.7037 33.0206 32.1568 33.5014 31.2875 33.5014H30.6136V37.9398C30.6136 38.5509 30.7992 38.5608 31.4047 38.5809C32.1958 38.6009 32.7623 39.0518 32.7623 39.9034C32.7623 41.2559 31.5414 41.4962 30.4866 41.4962C28.1914 41.4962 27.1659 40.6847 27.1659 38.2803V33.8823C28.0937 33.762 28.6016 33.0407 28.6016 32.109Z" fill="var(--fill-0, white)"/>
<path id="Vector_25" d="M41.9997 36.4061C41.3746 36.4061 40.7496 36.6065 40.3296 37.0974H37.3605C37.507 38.1994 38.0539 38.55 39.0794 38.55C39.9389 38.55 40.1831 38.2995 40.564 37.5682C40.8473 37.0472 41.404 36.8068 41.9802 36.8068C42.7909 36.8068 43.7285 37.3177 43.7285 38.2494C43.7285 38.8204 43.4354 39.3715 43.1034 39.7923C42.1462 40.9945 40.6324 41.5054 39.1576 41.5054C35.788 41.5054 33.8249 39.3215 33.8249 35.9253C33.8249 32.7594 35.6415 30.375 38.8548 30.375C40.4859 30.375 41.9606 30.9962 42.9178 32.3887C43.4745 33.2203 43.875 34.2521 43.875 35.284C43.875 35.8951 43.6601 36.3859 43.1815 36.7366C42.8006 36.5362 42.4197 36.4162 41.99 36.4162L41.9997 36.4061ZM40.0561 34.4125C40.1538 34.4125 40.3198 34.4324 40.3198 34.2921C40.3198 33.6009 39.5483 33.1602 38.9036 33.1602C38.1321 33.1602 37.5851 33.6511 37.3996 34.4125H40.0561Z" fill="var(--fill-0, white)"/>
<path id="Vector_26" d="M49.2648 39.8432C49.2648 41.0154 48.6691 41.5062 47.5459 41.5062C46.3446 41.5062 45.8172 40.9653 45.8172 39.8432V32.0287C45.8172 30.8566 46.4227 30.3658 47.5362 30.3658C47.9854 30.3658 48.6203 30.3957 48.9426 30.7564C48.0636 31.1771 47.0771 31.8684 47.0771 32.9704C47.0771 34.0724 47.8878 35.2346 49.0598 35.2346C49.1281 35.2346 49.2063 35.2346 49.2746 35.2145V39.8332L49.2648 39.8432ZM48.8644 31.2573C49.7044 30.7464 50.7006 30.3457 51.7066 30.3457C52.7125 30.3457 53.2888 31.2074 53.2888 32.1892C53.2888 32.5999 53.1912 33.0707 52.9079 33.3713C52.5661 33.7119 51.98 33.7219 51.5405 33.792C51.0131 33.8922 50.515 34.0826 50.0755 34.3631C49.7434 34.6036 49.4309 34.8239 49.0207 34.8239C48.1124 34.8239 47.4678 33.842 47.4678 32.9804C47.4678 32.1189 48.2101 31.628 48.8742 31.2573H48.8644Z" fill="var(--fill-0, white)"/>
<path id="Vector_27" d="M59.0631 36.5371C59.0631 37.8094 60.2156 38.5809 61.3583 38.5809C61.7197 38.5809 62.0518 38.4807 62.3643 38.3404C61.915 39.9334 61.1728 41.4861 59.3268 41.4861C58.2525 41.4861 57.5493 40.895 57.0023 39.9934C56.6214 39.3722 56.3089 38.6611 56.0745 37.9498L54.2969 32.6701C54.2285 32.4497 54.1992 32.209 54.1992 31.9886C54.1992 30.9768 55.1759 30.3457 56.0842 30.3457C56.8558 30.3457 57.3246 30.7864 57.5687 31.5178L59.1217 36.0562C59.0924 36.2065 59.0729 36.3767 59.0729 36.527L59.0631 36.5371ZM61.0653 31.5278C61.3095 30.7864 61.7782 30.3557 62.5694 30.3557C63.4484 30.3557 64.4544 31.0168 64.4544 31.9987C64.4544 32.2391 64.4056 32.4597 64.3177 32.6901L62.8526 37.0179C62.6085 37.7493 62.1885 38.1702 61.3974 38.1702C60.5086 38.1702 59.4635 37.579 59.4635 36.5471C59.4635 36.3066 59.5124 36.0863 59.6003 35.8559L61.0653 31.5278Z" fill="var(--fill-0, white)"/>
<path id="Vector_28" d="M69.6582 28.702C69.6582 29.7138 68.8378 30.5856 67.8221 30.5856C66.8063 30.5856 65.9859 29.7239 65.9859 28.702C65.9859 27.6801 66.8063 26.8086 67.8221 26.8086C68.8378 26.8086 69.6582 27.6701 69.6582 28.702ZM69.5606 32.0182V39.8326C69.5606 41.0549 68.9648 41.4956 67.8416 41.4956C66.7184 41.4956 66.1129 41.0749 66.1129 39.8326V32.0182C66.1129 31.5072 66.2496 30.9663 66.6598 30.6457C67.0212 30.8662 67.4216 30.9862 67.8318 30.9862C68.242 30.9862 68.6523 30.8662 69.0234 30.6457C69.4336 30.9663 69.5704 31.5072 69.5704 32.0182H69.5606Z" fill="var(--fill-0, white)"/>
<path id="Vector_29" d="M79.7094 36.4061C79.0843 36.4061 78.4592 36.6065 78.0393 37.0974H75.0702C75.2167 38.1994 75.7636 38.55 76.7891 38.55C77.6486 38.55 77.8927 38.2995 78.2737 37.5682C78.5569 37.0472 79.1136 36.8068 79.6899 36.8068C80.5005 36.8068 81.4381 37.3177 81.4381 38.2494C81.4381 38.8204 81.1451 39.3715 80.8131 39.7923C79.8559 40.9945 78.342 41.5054 76.8672 41.5054C73.4977 41.5054 71.5346 39.3215 71.5346 35.9253C71.5346 32.7594 73.3512 30.375 76.5645 30.375C78.1955 30.375 79.6703 30.9962 80.6275 32.3887C81.1842 33.2203 81.5846 34.2521 81.5846 35.284C81.5846 35.8951 81.3697 36.3859 80.8912 36.7366C80.5102 36.5362 80.1294 36.4162 79.6996 36.4162L79.7094 36.4061ZM77.7658 34.4125C77.8634 34.4125 78.0295 34.4324 78.0295 34.2921C78.0295 33.6009 77.2579 33.1602 76.6133 33.1602C75.8417 33.1602 75.2948 33.6511 75.1092 34.4125H77.7658Z" fill="var(--fill-0, white)"/>
<path id="Vector_30" d="M92.2001 35.7751C92.1708 35.9755 92.1317 36.186 92.1317 36.3863C92.1317 37.5184 93.1182 38.1997 94.1437 38.1997C94.6027 38.1997 95.0032 38.1195 95.3646 37.8289L95.0032 39.0612C94.6028 40.4337 94.2805 41.4956 92.6299 41.4956C92.0732 41.4956 91.4579 41.3254 91.116 40.8746C90.9304 40.6342 90.7839 40.3536 90.7351 40.063L89.778 35.1741L88.8208 39.9828C88.6254 41.0147 87.7855 41.5056 86.8088 41.5056C85.92 41.5056 85.0898 40.9848 84.8457 40.0831L82.6872 32.5692C82.6384 32.3789 82.6091 32.1985 82.6091 32.0082C82.6091 30.9963 83.4979 30.3652 84.4257 30.3652C84.9238 30.3652 85.461 30.5554 85.7638 30.9762C85.9103 31.1766 85.9591 31.3971 86.0079 31.6175L87.0921 36.4764L87.9711 31.8379C88.1566 30.8761 88.8306 30.3652 89.7877 30.3652C90.7449 30.3652 91.4188 30.8761 91.6044 31.8379L92.2978 35.4547L92.2197 35.7751H92.2001ZM93.5479 31.6175C93.6261 31.2469 93.7628 30.9063 94.0949 30.6859C94.3879 30.4655 94.7688 30.3652 95.1302 30.3652C96.058 30.3652 96.9468 30.9863 96.9468 31.9881C96.9468 32.1785 96.9273 32.3789 96.8687 32.5592L95.6185 36.9073C95.4329 37.5485 94.8567 37.7888 94.2511 37.7888C93.7042 37.7888 93.167 37.5886 92.8154 37.1277C92.5322 36.757 92.5029 36.3463 92.581 35.9055L93.5577 31.6075L93.5479 31.6175Z" fill="var(--fill-0, white)"/>
</g>
</g>
</g>
<g id="Group_6">
<path id="Vector_31" d="M12.5109 39.8735C12.5109 40.9856 11.9445 41.4964 10.7431 41.4964C9.62971 41.4964 9.01439 41.0357 9.01439 39.8735V28.783C9.01439 27.5608 9.70785 27.1602 10.8017 27.1602C11.8956 27.1602 12.4914 27.6409 12.5109 28.783V39.8735Z" stroke="var(--stroke-0, #236242)" stroke-width="0.631164" stroke-linecap="round" stroke-linejoin="round"/>
<path id="Vector_32" d="M18.6257 39.8742C18.6257 41.0664 18.0104 41.4971 16.9165 41.4971C15.8812 41.4971 15.2562 41.0664 15.2562 39.8742V32.2401C15.2562 31.0679 15.8812 30.6172 16.9849 30.6172C17.3755 30.6172 17.7467 30.6873 18.0592 30.8977C17.4146 31.2484 16.8872 31.7592 16.8872 32.5507C16.8872 33.6427 17.5806 34.4642 18.6257 34.5845V39.8742ZM24.3198 39.8742C24.3198 41.0664 23.7044 41.4971 22.6106 41.4971C21.5167 41.4971 20.9502 41.0464 20.9502 39.8742V35.0854C20.9502 34.5043 20.9014 33.5826 20.1493 33.5826C19.9247 33.5826 19.7294 33.7029 19.4363 33.8932C19.1922 34.0636 18.9382 34.1738 18.6257 34.1738C17.8346 34.1738 17.2584 33.3823 17.2584 32.6008C17.2584 31.1481 19.4364 30.6172 20.54 30.6172C22.0539 30.6172 23.5091 31.2583 24.0365 32.8112C24.2905 33.5726 24.31 34.3642 24.31 35.1957V39.8742H24.3198Z" stroke="var(--stroke-0, #236242)" stroke-width="0.631164" stroke-linecap="round" stroke-linejoin="round"/>
<path id="Vector_33" d="M28.4326 32.3207C28.4326 33.2323 27.9345 33.6933 27.0359 33.6933C26.1374 33.6933 25.649 33.2424 25.649 32.3207C25.649 31.8598 25.8248 31.3589 26.2253 31.1285C26.4694 30.9983 26.8699 30.958 27.0457 30.958C27.915 30.958 28.4326 31.409 28.4326 32.3106V32.3207ZM28.8232 32.3207C28.8232 31.409 28.3251 30.7177 27.4168 30.6075V29.5154C27.4168 28.3232 28.0419 27.8926 29.1455 27.8926C30.2492 27.8926 30.7864 28.4234 30.7864 29.5154V30.9681H31.4505C32.3197 30.9681 32.8374 31.419 32.8374 32.3207C32.8374 33.2223 32.31 33.6933 31.4505 33.6933H30.7864V38.0211C30.7864 38.6122 30.9622 38.6324 31.558 38.6524C32.3296 38.6724 32.8765 39.1133 32.8765 39.9448C32.8765 41.2673 31.6849 41.4975 30.6496 41.4975C28.413 41.4975 27.4071 40.7062 27.4071 38.3618V34.0639C28.3056 33.9436 28.8135 33.2324 28.8135 32.3307L28.8232 32.3207Z" stroke="var(--stroke-0, #236242)" stroke-width="0.631164" stroke-linecap="round" stroke-linejoin="round"/>
<path id="Vector_34" d="M41.9001 36.5177C41.2848 36.5177 40.6793 36.7182 40.269 37.1991H37.3683C37.5148 38.2711 38.0422 38.6217 39.0482 38.6217C39.8881 38.6217 40.1225 38.3713 40.4937 37.6599C40.7671 37.149 41.3141 36.9186 41.8805 36.9186C42.6717 36.9186 43.5897 37.4194 43.5897 38.3211C43.5897 38.8821 43.2968 39.4131 42.9745 39.8238C42.0369 40.996 40.5621 41.4968 39.1263 41.4968C35.8349 41.4968 33.9206 39.363 33.9206 36.0469C33.9206 32.9612 35.6884 30.627 38.8333 30.627C40.4253 30.627 41.861 31.238 42.7986 32.5905C43.3456 33.402 43.7363 34.4039 43.7363 35.4158C43.7363 36.0069 43.5312 36.4877 43.0623 36.8384C42.6912 36.638 42.3201 36.5277 41.9001 36.5277V36.5177ZM39.9955 34.5742C40.0932 34.5742 40.2495 34.5943 40.2495 34.4541C40.2495 33.7728 39.4975 33.3519 38.8626 33.3519C38.1008 33.3519 37.5734 33.8328 37.3976 34.5742H39.9955Z" stroke="var(--stroke-0, #236242)" stroke-width="0.631164" stroke-linecap="round" stroke-linejoin="round"/>
<path id="Vector_35" d="M48.9892 39.8745C48.9892 41.0166 48.413 41.4974 47.3094 41.4974C46.1374 41.4974 45.6197 40.9665 45.6197 39.8745V32.2403C45.6197 31.0982 46.2155 30.6175 47.2996 30.6175C47.7391 30.6175 48.3642 30.6474 48.6669 30.998C47.8172 31.4088 46.8503 32.0902 46.8503 33.1622C46.8503 34.2342 47.6414 35.3762 48.7841 35.3762C48.8525 35.3762 48.9306 35.3762 48.9892 35.3562V39.8645V39.8745ZM48.5986 31.499C49.419 30.998 50.3859 30.6074 51.3724 30.6074C52.3588 30.6074 52.9155 31.449 52.9155 32.4108C52.9155 32.8115 52.8179 33.2723 52.5444 33.5628C52.2025 33.8934 51.6458 33.9134 51.2063 33.9735C50.6887 34.0737 50.2101 34.2541 49.7706 34.5346C49.4483 34.765 49.1455 34.9854 48.7353 34.9854C47.8465 34.9854 47.2215 34.0238 47.2215 33.1822C47.2215 32.3407 47.9442 31.8596 48.5888 31.499H48.5986Z" stroke="var(--stroke-0, #236242)" stroke-width="0.631164" stroke-linecap="round" stroke-linejoin="round"/>
<path id="Vector_36" d="M58.5525 36.6483C58.5525 37.8906 59.6757 38.652 60.7892 38.652C61.1408 38.652 61.4631 38.5519 61.7756 38.4216C61.3361 39.9745 60.6133 41.4971 58.8065 41.4971C57.7614 41.4971 57.068 40.9161 56.5308 40.0445C56.1596 39.4334 55.8569 38.7421 55.6322 38.0408L53.8938 32.8814C53.8254 32.671 53.7961 32.4304 53.7961 32.22C53.7961 31.2282 54.7435 30.6172 55.6322 30.6172C56.3941 30.6172 56.8434 31.0479 57.0778 31.7592L58.5916 36.1875C58.5623 36.3378 58.5428 36.4981 58.5428 36.6483H58.5525ZM60.5059 31.7592C60.7501 31.0278 61.1993 30.6172 61.9709 30.6172C62.8206 30.6172 63.8071 31.2582 63.8071 32.22C63.8071 32.4504 63.7582 32.671 63.6801 32.9014L62.2444 37.1292C62.0002 37.8405 61.5998 38.2511 60.8282 38.2511C59.959 38.2511 58.9432 37.6702 58.9432 36.6684C58.9432 36.438 58.9921 36.2174 59.0702 35.987L60.5059 31.7592Z" stroke="var(--stroke-0, #236242)" stroke-width="0.631164" stroke-linecap="round" stroke-linejoin="round"/>
<path id="Vector_37" d="M68.8947 29.0037C68.8947 29.9955 68.0938 30.8371 67.1073 30.8371C66.1209 30.8371 65.32 29.9955 65.32 29.0037C65.32 28.0118 66.1209 27.1504 67.1073 27.1504C68.0938 27.1504 68.8947 27.9918 68.8947 29.0037ZM68.797 32.2396V39.8738C68.797 41.066 68.2207 41.4967 67.1171 41.4967C66.0134 41.4967 65.4275 41.086 65.4275 39.8738V32.2396C65.4275 31.7387 65.5544 31.2179 65.9548 30.8973C66.3064 31.1077 66.6971 31.2277 67.0975 31.2277C67.498 31.2277 67.8984 31.1077 68.2598 30.8973C68.6602 31.2079 68.7872 31.7387 68.7872 32.2396H68.797Z" stroke="var(--stroke-0, #236242)" stroke-width="0.631164" stroke-linecap="round" stroke-linejoin="round"/>
<path id="Vector_38" d="M78.711 36.5177C78.0957 36.5177 77.4902 36.7182 77.08 37.1991H74.1792C74.3257 38.2711 74.8532 38.6217 75.8591 38.6217C76.6991 38.6217 76.9335 38.3713 77.3046 37.6599C77.5781 37.149 78.125 36.9186 78.6915 36.9186C79.4826 36.9186 80.4007 37.4194 80.4007 38.3211C80.4007 38.8821 80.1077 39.4131 79.7854 39.8238C78.8478 40.996 77.373 41.4968 75.9373 41.4968C72.6459 41.4968 70.7316 39.363 70.7316 36.0469C70.7316 32.9612 72.4993 30.627 75.6442 30.627C77.2362 30.627 78.672 31.238 79.6096 32.5905C80.1565 33.402 80.5472 34.4039 80.5472 35.4158C80.5472 36.0069 80.3421 36.4877 79.8733 36.8384C79.5022 36.638 79.131 36.5277 78.711 36.5277V36.5177ZM76.8065 34.5742C76.9042 34.5742 77.0604 34.5943 77.0604 34.4541C77.0604 33.7728 76.3084 33.3519 75.6736 33.3519C74.9118 33.3519 74.3843 33.8328 74.2085 34.5742H76.8065Z" stroke="var(--stroke-0, #236242)" stroke-width="0.631164" stroke-linecap="round" stroke-linejoin="round"/>
<path id="Vector_39" d="M90.8987 35.9072C90.8694 36.1076 90.8304 36.3078 90.8304 36.4982C90.8304 37.6002 91.7973 38.2614 92.7935 38.2614C93.2428 38.2614 93.6335 38.1814 93.9851 37.9009L93.6335 39.1031C93.2428 40.4455 92.9205 41.4873 91.309 41.4873C90.762 41.4873 90.1662 41.3172 89.8244 40.8764C89.6486 40.6459 89.5021 40.3654 89.4533 40.0849L88.5156 35.306L87.578 39.9946C87.3827 41.0065 86.5623 41.4773 85.6149 41.4773C84.7457 41.4773 83.935 40.9665 83.7006 40.0849L81.591 32.7513C81.5421 32.5709 81.5128 32.3906 81.5128 32.2102C81.5128 31.2184 82.3821 30.6074 83.2806 30.6074C83.7592 30.6074 84.2964 30.7878 84.5894 31.1986C84.7359 31.399 84.7847 31.6092 84.8336 31.8296L85.8981 36.5684L86.7478 32.04C86.9236 31.0983 87.5878 30.6074 88.5156 30.6074C89.4435 30.6074 90.1077 31.0983 90.2835 32.04L90.9573 35.5765L90.8792 35.8872L90.8987 35.9072ZM92.2271 31.8497C92.3052 31.489 92.4321 31.1585 92.7545 30.9381C93.0475 30.7277 93.4186 30.6275 93.7702 30.6275C94.6687 30.6275 95.538 31.2384 95.538 32.2102C95.538 32.3906 95.5185 32.591 95.4599 32.7713L94.239 37.0191C94.0632 37.6503 93.4968 37.8808 92.901 37.8808C92.3736 37.8808 91.8364 37.6803 91.4946 37.2395C91.2211 36.8789 91.1917 36.4782 91.2699 36.0474L92.2173 31.8497H92.2271Z" stroke="var(--stroke-0, #236242)" stroke-width="0.631164" stroke-linecap="round" stroke-linejoin="round"/>
</g>
</g>
</svg>
