<svg preserveAspectRatio="none" width="100%" height="100%" overflow="visible" style="display: block;" viewBox="0 0 88.6337 14.6976" fill="none" xmlns="http://www.w3.org/2000/svg">
<g id="Group">
<path id="Vector" d="M3.58441 13.0238C3.58441 14.1558 3.00818 14.6867 1.76779 14.6867C0.625075 14.6867 0 14.2159 0 13.0238V1.67274C0 0.420435 0.712983 0.00976562 1.83617 0.00976562C2.95935 0.00976562 3.56487 0.500583 3.58441 1.67274V13.0238Z" fill="var(--fill-0, white)"/>
<path id="Vector_2" d="M9.83416 13.0246C9.83416 14.2468 9.20911 14.6875 8.08592 14.6875C7.03111 14.6875 6.3865 14.2468 6.3865 13.0246V5.2101C6.3865 4.00788 7.03111 3.54688 8.1543 3.54688C8.55474 3.54688 8.92588 3.61704 9.25795 3.83745C8.59381 4.1881 8.05659 4.71902 8.05659 5.53051C8.05659 6.64256 8.76958 7.49421 9.83416 7.61443V13.0346V13.0246ZM15.6747 13.0246C15.6747 14.2468 15.0497 14.6875 13.9265 14.6875C12.8033 14.6875 12.227 14.2268 12.227 13.0246V8.11536C12.227 7.52427 12.1782 6.57247 11.4066 6.57247C11.1722 6.57247 10.9769 6.69276 10.6839 6.89313C10.4397 7.06345 10.176 7.18371 9.86349 7.18371C9.05285 7.18371 8.45707 6.37211 8.45707 5.58065C8.45707 4.0879 10.6839 3.54688 11.8266 3.54688C13.3795 3.54688 14.8641 4.20809 15.411 5.80103C15.6747 6.58247 15.6943 7.39414 15.6943 8.2357V13.0246H15.6747Z" fill="var(--fill-0, white)"/>
<path id="Vector_3" d="M19.8864 5.29037C19.8864 6.22209 19.3785 6.6931 18.4507 6.6931C17.5228 6.6931 17.0345 6.2321 17.0345 5.29037C17.0345 4.8195 17.22 4.30859 17.6302 4.06814C17.8744 3.9379 18.2944 3.89791 18.4702 3.89791C19.359 3.89791 19.8864 4.35864 19.8864 5.28034V5.29037ZM20.2869 5.29037C20.2869 4.35865 19.779 3.64733 18.8511 3.52711V2.40517C18.8511 1.18291 19.4957 0.742188 20.6189 0.742188C21.7421 0.742188 22.2988 1.2831 22.2988 2.40517V3.89791H22.9727C23.8615 3.89791 24.3889 4.35864 24.3889 5.28034C24.3889 6.20204 23.8419 6.68307 22.9727 6.68307H22.2988V11.1212C22.2988 11.7323 22.4843 11.7425 23.0899 11.7625C23.881 11.7825 24.4377 12.2332 24.4377 13.0848C24.4377 14.4373 23.2169 14.6778 22.1621 14.6778C19.8669 14.6778 18.8414 13.8663 18.8414 11.4619V7.06366C19.7692 6.94344 20.2771 6.22209 20.2771 5.29037H20.2869Z" fill="var(--fill-0, white)"/>
<path id="Vector_4" d="M33.6866 9.58778C33.0615 9.58778 32.4363 9.78834 32.0164 10.2792H29.0473C29.1938 11.3813 29.7408 11.7319 30.7663 11.7319C31.6258 11.7319 31.8699 11.4814 32.2508 10.7501C32.534 10.2291 33.0908 9.98867 33.667 9.98867C34.4777 9.98867 35.4153 10.4995 35.4153 11.4313C35.4153 12.0023 35.1223 12.5534 34.7902 12.9742C33.8331 14.1764 32.3192 14.6873 30.8444 14.6873C27.4748 14.6873 25.5117 12.5032 25.5117 9.10691C25.5117 5.94108 27.3283 3.55664 30.5416 3.55664C32.1726 3.55664 33.6474 4.1778 34.6046 5.57036C35.1711 6.4019 35.5617 7.43394 35.5617 8.46584C35.5617 9.07697 35.3469 9.56782 34.8683 9.91847C34.4874 9.7181 34.1065 9.59781 33.6768 9.59781L33.6866 9.58778ZM31.7332 7.59411C31.8309 7.59411 31.9969 7.61428 31.9969 7.47402C31.9969 6.78274 31.2253 6.34181 30.5807 6.34181C29.8091 6.34181 29.2621 6.83271 29.0765 7.59411H31.7332Z" fill="var(--fill-0, white)"/>
<path id="Vector_5" d="M40.9442 13.0248C40.9442 14.197 40.3484 14.6878 39.2252 14.6878C38.0239 14.6878 37.4964 14.1469 37.4964 13.0248V5.21036C37.4964 4.0382 38.102 3.54714 39.2154 3.54714C39.6647 3.54714 40.3094 3.57733 40.6219 3.93799C39.7429 4.35877 38.7564 5.05001 38.7564 6.15204C38.7564 7.25407 39.5671 8.41622 40.7391 8.41622C40.8075 8.41622 40.8856 8.4162 40.9539 8.39617V13.0148L40.9442 13.0248ZM40.5535 4.44895C41.3934 3.938 42.3897 3.53711 43.3956 3.53711C44.4016 3.53711 44.9779 4.39879 44.9779 5.3806C44.9779 5.79135 44.8802 6.26215 44.5969 6.56271C44.2551 6.90334 43.6692 6.91352 43.2297 6.98365C42.7023 7.08383 42.2042 7.27401 41.7647 7.55453C41.4326 7.79497 41.12 8.01558 40.7098 8.01558C39.8014 8.01558 39.1569 7.03368 39.1569 6.17209C39.1569 5.31051 39.8991 4.81963 40.5632 4.44895H40.5535Z" fill="var(--fill-0, white)"/>
<path id="Vector_6" d="M50.75 9.7287C50.75 11.001 51.9024 11.7725 53.0451 11.7725C53.4065 11.7725 53.7386 11.6723 54.0512 11.5321C53.6019 13.125 52.8596 14.6778 51.0137 14.6778C49.9393 14.6778 49.2361 14.0867 48.6892 13.185C48.3083 12.5639 47.9957 11.8525 47.7613 11.1412L45.9837 5.86146C45.9154 5.64106 45.8861 5.40068 45.8861 5.18028C45.8861 4.16841 46.8627 3.53711 47.771 3.53711C48.5426 3.53711 49.0114 3.97809 49.2556 4.70944L50.8085 9.24783C50.7792 9.39811 50.7597 9.5684 50.7597 9.71867L50.75 9.7287ZM52.7424 4.71947C52.9866 3.9781 53.4553 3.54714 54.2464 3.54714C55.1255 3.54714 56.1315 4.20849 56.1315 5.1903C56.1315 5.43075 56.0827 5.6511 56.0045 5.88152L54.5395 10.2096C54.2953 10.9409 53.8754 11.3616 53.0842 11.3616C52.1955 11.3616 51.1504 10.7706 51.1504 9.73873C51.1504 9.49829 51.1993 9.27769 51.2872 9.04727L52.7522 4.71947H52.7424Z" fill="var(--fill-0, white)"/>
<path id="Vector_7" d="M61.3451 1.89338C61.3451 2.90525 60.5247 3.77674 59.5089 3.77674C58.4932 3.77674 57.6728 2.91527 57.6728 1.89338C57.6728 0.871499 58.4932 0 59.5089 0C60.5247 0 61.3451 0.861481 61.3451 1.89338ZM61.2377 5.20956V13.024C61.2377 14.2463 60.6419 14.687 59.5187 14.687C58.3955 14.687 57.79 14.2663 57.79 13.024V5.20956C57.79 4.69861 57.917 4.1575 58.337 3.83691C58.6983 4.05731 59.0987 4.17762 59.5089 4.17762C59.9191 4.17762 60.3293 4.05731 60.7005 3.83691C61.1107 4.1575 61.2475 4.69861 61.2475 5.20956H61.2377Z" fill="var(--fill-0, white)"/>
<path id="Vector_8" d="M71.3963 9.58778C70.7712 9.58778 70.146 9.78834 69.7261 10.2792H66.757C66.9035 11.3813 67.4505 11.7319 68.476 11.7319C69.3355 11.7319 69.5797 11.4814 69.9606 10.7501C70.2438 10.2291 70.8005 9.98867 71.3767 9.98867C72.1874 9.98867 73.125 10.4995 73.125 11.4313C73.125 12.0023 72.832 12.5534 72.4999 12.9742C71.5428 14.1764 70.0289 14.6873 68.5541 14.6873C65.1845 14.6873 63.2214 12.5032 63.2214 9.10691C63.2214 5.94108 65.0381 3.55664 68.2514 3.55664C69.8824 3.55664 71.3571 4.1778 72.3143 5.57036C72.8808 6.4019 73.2714 7.43394 73.2714 8.46584C73.2714 9.07697 73.0566 9.56782 72.578 9.91847C72.1971 9.7181 71.8162 9.59781 71.3865 9.59781L71.3963 9.58778ZM69.4429 7.59411C69.5406 7.59411 69.7066 7.61428 69.7066 7.47402C69.7066 6.78274 68.935 6.34181 68.2904 6.34181C67.5188 6.34181 66.9719 6.83271 66.7864 7.59411H69.4429Z" fill="var(--fill-0, white)"/>
<path id="Vector_9" d="M83.8869 8.96702C83.8576 9.16739 83.8186 9.37764 83.8186 9.57801C83.8186 10.7101 84.8051 11.3914 85.8306 11.3914C86.2897 11.3914 86.6901 11.3114 87.0515 11.0209L86.6901 12.2531C86.2897 13.6256 85.9673 14.6875 84.3167 14.6875C83.76 14.6875 83.1447 14.5171 82.8028 14.0663C82.6173 13.8258 82.4707 13.5455 82.4219 13.255L81.4648 8.36582L80.5076 13.1747C80.3123 14.2066 79.4724 14.6976 78.4957 14.6976C77.607 14.6976 76.7768 14.1767 76.5326 13.275L74.374 5.76116C74.3252 5.57081 74.296 5.39042 74.296 5.20007C74.296 4.1882 75.1847 3.5569 76.1126 3.5569C76.6107 3.5569 77.1478 3.74736 77.4506 4.16814C77.5971 4.36851 77.646 4.58881 77.6948 4.80921L78.7887 9.66827L79.6579 5.02959C79.8435 4.06782 80.5174 3.5569 81.4745 3.5569C82.4317 3.5569 83.1056 4.06782 83.2912 5.02959L83.9847 8.64637L83.9065 8.96702H83.8869ZM85.2348 4.79918C85.3129 4.4285 85.4497 4.08794 85.7818 3.86753C86.0748 3.64713 86.4556 3.54688 86.817 3.54688C87.7448 3.54688 88.6337 4.16814 88.6337 5.16998C88.6337 5.36034 88.6141 5.56077 88.5555 5.74111L87.3053 10.089C87.1197 10.7301 86.5436 10.9707 85.9381 10.9707C85.3911 10.9707 84.8441 10.7702 84.5022 10.3093C84.219 9.93866 84.1897 9.52793 84.2678 9.08712L85.2445 4.78916L85.2348 4.79918Z" fill="var(--fill-0, white)"/>
</g>
</svg>
