<svg preserveAspectRatio="none" width="100%" height="100%" overflow="visible" style="display: block;" viewBox="0 0 87.1357 14.9781" fill="none" xmlns="http://www.w3.org/2000/svg">
<g id="Group">
<path id="Vector" d="M3.80241 13.0387C3.80241 14.1508 3.23587 14.6616 2.03455 14.6616C0.921135 14.6616 0.315582 14.2009 0.315582 13.0387V1.94821C0.315582 0.725959 1.0091 0.325347 2.10299 0.325347C3.19687 0.325347 3.79265 0.806107 3.81218 1.94821V13.0387H3.80241Z" stroke="var(--stroke-0, #236242)" stroke-width="0.631164" stroke-linecap="round" stroke-linejoin="round"/>
<path id="Vector_2" d="M9.90796 13.0394C9.90796 14.2316 9.29265 14.6623 8.19876 14.6623C7.16348 14.6623 6.53833 14.2316 6.53833 13.0394V5.40524C6.53833 4.23308 7.16342 3.78238 8.2573 3.78238C8.64797 3.78238 9.0191 3.85254 9.3414 4.06293C8.69679 4.41357 8.16943 4.92442 8.16943 5.71588C8.16943 6.80789 8.86291 7.62943 9.90796 7.74965V13.0394ZM15.6117 13.0394C15.6117 14.2316 14.9964 14.6623 13.9026 14.6623C12.8087 14.6623 12.2422 14.2116 12.2422 13.0394V8.25058C12.2422 7.66951 12.1933 6.74781 11.4315 6.74781C11.2069 6.74781 11.0116 6.86809 10.7186 7.05844C10.4744 7.22875 10.2205 7.33899 9.91773 7.33899C9.12662 7.33899 8.55035 6.54746 8.55035 5.76602C8.55035 4.31334 10.7284 3.78238 11.8418 3.78238C13.3556 3.78238 14.8108 4.4235 15.3382 5.97637C15.5922 6.73777 15.6117 7.52936 15.6117 8.36089V13.0394Z" stroke="var(--stroke-0, #236242)" stroke-width="0.631164" stroke-linecap="round" stroke-linejoin="round"/>
<path id="Vector_3" d="M19.7147 5.4839C19.7147 6.39558 19.2166 6.85655 18.3181 6.85655C17.4195 6.85655 16.9312 6.4056 16.9312 5.4839C16.9312 5.02305 17.1069 4.52219 17.5074 4.29176C17.7515 4.16152 18.1521 4.12128 18.3279 4.12128C19.1971 4.12128 19.7147 4.57221 19.7147 5.47387V5.4839ZM20.1054 5.4839C20.1054 4.57222 19.6073 3.88099 18.699 3.77078V2.67868C18.699 1.48648 19.3241 1.05582 20.418 1.05582C21.5119 1.05582 22.0587 1.58667 22.0587 2.67868V4.13131H22.7229C23.5922 4.13131 24.1097 4.58224 24.1097 5.4839C24.1097 6.38556 23.5824 6.85655 22.7229 6.85655H22.0587V11.1844C22.0587 11.7754 22.2346 11.7956 22.8304 11.8156C23.6019 11.8357 24.1489 12.2765 24.1489 13.1081C24.1489 14.4305 22.9573 14.6607 21.922 14.6607C19.6854 14.6607 18.6795 13.8694 18.6795 11.5251V7.22711C19.578 7.10688 20.0858 6.39559 20.0858 5.49393L20.1054 5.4839Z" stroke="var(--stroke-0, #236242)" stroke-width="0.631164" stroke-linecap="round" stroke-linejoin="round"/>
<path id="Vector_4" d="M33.1823 9.68289C32.567 9.68289 31.9614 9.88343 31.5512 10.3643H28.6505C28.797 11.4363 29.3244 11.7869 30.3303 11.7869C31.1703 11.7869 31.4146 11.5364 31.7759 10.8251C32.0494 10.3142 32.5963 10.0838 33.1628 10.0838C33.9539 10.0838 34.8719 10.5846 34.8719 11.4863C34.8719 12.0473 34.5789 12.5783 34.2566 12.989C33.319 14.1612 31.8443 14.662 30.4086 14.662C27.1269 14.662 25.2028 12.5282 25.2028 9.21205C25.2028 6.12636 26.9706 3.79214 30.1155 3.79214C31.7075 3.79214 33.1433 4.40323 34.0809 5.75573C34.6278 6.56722 35.0185 7.56914 35.0185 8.581C35.0185 9.17209 34.8133 9.6529 34.3445 10.0035C33.9734 9.80318 33.6023 9.69292 33.1823 9.69292V9.68289ZM31.2778 7.73936C31.3755 7.73936 31.5318 7.75953 31.5318 7.61927C31.5318 6.93801 30.7699 6.51714 30.1448 6.51714C29.383 6.51714 28.8556 6.998 28.6798 7.73936H31.2778Z" stroke="var(--stroke-0, #236242)" stroke-width="0.631164" stroke-linecap="round" stroke-linejoin="round"/>
<path id="Vector_5" d="M40.2713 13.0397C40.2713 14.1818 39.6951 14.6626 38.5915 14.6626C37.4195 14.6626 36.9018 14.1317 36.9018 13.0397V5.40551C36.9018 4.2634 37.4976 3.78264 38.5719 3.78264C39.0114 3.78264 39.6365 3.81258 39.9393 4.16323C39.0896 4.57398 38.1227 5.2554 38.1227 6.32737C38.1227 7.39935 38.9138 8.54142 40.0565 8.54142C40.1249 8.54142 40.203 8.5414 40.2616 8.52136V13.0297L40.2713 13.0397ZM39.8806 4.66415C40.7011 4.16323 41.6679 3.77261 42.6544 3.77261C43.6408 3.77261 44.1976 4.61421 44.1976 5.57599C44.1976 5.97673 44.1 6.43748 43.8265 6.72801C43.4846 7.05862 42.9279 7.07857 42.4884 7.13868C41.9708 7.23887 41.4922 7.41926 41.0527 7.69978C40.7304 7.9302 40.4276 8.15056 40.0174 8.15056C39.1286 8.15056 38.5035 7.18898 38.5035 6.34743C38.5035 5.50588 39.2263 5.02481 39.8709 4.66415H39.8806Z" stroke="var(--stroke-0, #236242)" stroke-width="0.631164" stroke-linecap="round" stroke-linejoin="round"/>
<path id="Vector_6" d="M49.8424 9.81352C49.8424 11.0558 50.9655 11.8172 52.0789 11.8172C52.4305 11.8172 52.7529 11.717 53.0654 11.5868C52.6259 13.1397 51.9031 14.6623 50.0962 14.6623C49.0512 14.6623 48.3578 14.0813 47.8206 13.2097C47.4495 12.5985 47.1467 11.9073 46.922 11.206L45.1836 6.04656C45.1153 5.83618 45.0859 5.59558 45.0859 5.38519C45.0859 4.39336 46.0332 3.78238 46.922 3.78238C47.6838 3.78238 48.1332 4.21307 48.3676 4.92438L49.8814 9.35271C49.8521 9.50299 49.8326 9.66324 49.8326 9.81352H49.8424ZM51.786 4.92438C52.0302 4.19303 52.4794 3.78238 53.251 3.78238C54.1007 3.78238 55.0872 4.42341 55.0872 5.38519C55.0872 5.61561 55.0384 5.83619 54.9602 6.06662L53.5244 10.2944C53.2802 11.0057 52.8798 11.4163 52.1083 11.4163C51.239 11.4163 50.2232 10.8354 50.2232 9.83358C50.2232 9.60315 50.2721 9.38257 50.3502 9.15214L51.786 4.92438Z" stroke="var(--stroke-0, #236242)" stroke-width="0.631164" stroke-linecap="round" stroke-linejoin="round"/>
<path id="Vector_7" d="M60.1768 2.16885C60.1768 3.16068 59.3662 4.00231 58.3895 4.00231C57.4128 4.00231 56.6021 3.16068 56.6021 2.16885C56.6021 1.17702 57.4031 0.315582 58.3895 0.315582C59.376 0.315582 60.1768 1.15699 60.1768 2.16885ZM60.0792 5.4048V13.039C60.0792 14.2312 59.5028 14.6619 58.409 14.6619C57.3151 14.6619 56.7193 14.2512 56.7193 13.039V5.4048C56.7193 4.90388 56.8463 4.38307 57.2468 4.06248C57.5984 4.27287 57.9891 4.39292 58.3895 4.39292C58.79 4.39292 59.1904 4.27287 59.5517 4.06248C59.9522 4.37305 60.0792 4.90388 60.0792 5.4048Z" stroke="var(--stroke-0, #236242)" stroke-width="0.631164" stroke-linecap="round" stroke-linejoin="round"/>
<path id="Vector_8" d="M69.9931 9.68289C69.3778 9.68289 68.7724 9.88343 68.3621 10.3643H65.4614C65.6079 11.4363 66.1353 11.7869 67.1413 11.7869C67.9812 11.7869 68.2254 11.5364 68.5868 10.8251C68.8602 10.3142 69.4072 10.0838 69.9737 10.0838C70.7648 10.0838 71.6829 10.5846 71.6829 11.4863C71.6829 12.0473 71.3899 12.5783 71.0676 12.989C70.13 14.1612 68.6551 14.662 67.2194 14.662C63.9377 14.662 62.0137 12.5282 62.0137 9.21205C62.0137 6.12636 63.7815 3.79214 66.9264 3.79214C68.5184 3.79214 69.9541 4.40323 70.8917 5.75573C71.4387 6.56722 71.8293 7.56914 71.8293 8.581C71.8293 9.17209 71.6242 9.6529 71.1554 10.0035C70.7843 9.80318 70.4131 9.69292 69.9931 9.69292V9.68289ZM68.0886 7.73936C68.1863 7.73936 68.3426 7.75953 68.3426 7.61927C68.3426 6.93801 67.5807 6.51714 66.9557 6.51714C66.1938 6.51714 65.6664 6.998 65.4906 7.73936H68.0886Z" stroke="var(--stroke-0, #236242)" stroke-width="0.631164" stroke-linecap="round" stroke-linejoin="round"/>
<path id="Vector_9" d="M82.1809 9.07242C82.1516 9.27279 82.1125 9.47301 82.1125 9.66336C82.1125 10.7654 83.0794 11.4266 84.0756 11.4266C84.5249 11.4266 84.9155 11.3466 85.2671 11.0661L84.9155 12.2683C84.5249 13.6107 84.2025 14.6525 82.591 14.6525C82.0441 14.6525 81.4483 14.4824 81.1064 14.0415C80.9306 13.8111 80.7841 13.5306 80.7353 13.25L79.7977 8.47122L78.8601 13.1598C78.6648 14.1717 77.8444 14.6425 76.897 14.6425C76.0278 14.6425 75.2171 14.1317 74.9827 13.25L72.8731 5.91646C72.8242 5.73613 72.795 5.55575 72.795 5.37542C72.795 4.38359 73.6642 3.77261 74.5627 3.77261C75.0413 3.77261 75.5784 3.95303 75.8714 4.36379C76.0179 4.56416 76.0668 4.77443 76.1156 4.99484L77.1803 9.73356L78.03 5.20519C78.2058 4.26345 78.8699 3.77261 79.7977 3.77261C80.7256 3.77261 81.3898 4.26345 81.5656 5.20519L82.2394 8.74174L82.1613 9.05237L82.1809 9.07242ZM83.5092 5.00487C83.5873 4.6442 83.7142 4.31368 84.0365 4.09327C84.3295 3.88288 84.7007 3.78264 85.0523 3.78264C85.9508 3.78264 86.8201 4.39385 86.8201 5.36564C86.8201 5.54597 86.8005 5.74615 86.7419 5.92649L85.5211 10.1743C85.3453 10.8055 84.7788 11.036 84.183 11.036C83.6556 11.036 83.1185 10.8355 82.7766 10.3947C82.5032 10.034 82.4739 9.63334 82.552 9.20255L83.4994 5.00487H83.5092Z" stroke="var(--stroke-0, #236242)" stroke-width="0.631164" stroke-linecap="round" stroke-linejoin="round"/>
</g>
</svg>
