<svg preserveAspectRatio="none" width="100%" height="100%" overflow="visible" style="display: block;" viewBox="0 0 74.3082 60.9008" fill="none" xmlns="http://www.w3.org/2000/svg">
<g id="Group">
<path id="Vector" d="M35.8772 14.2636L21.6568 7.01022C20.7289 6.53935 19.6154 6.92016 19.1564 7.87191L2.60168 42.0348C2.14264 42.9865 2.52353 44.1387 3.44161 44.6096L17.6622 51.8529C18.5803 52.3238 19.7034 51.9329 20.1624 50.9912L36.7173 16.8284C37.1763 15.8766 36.8051 14.7244 35.8772 14.2636ZM21.6372 25.3541C19.4397 24.232 18.5509 21.4969 19.635 19.2528C20.7289 16.9986 23.3953 16.0869 25.5831 17.1989C27.7806 18.321 28.6693 21.0561 27.5852 23.3103C26.4913 25.5644 23.825 26.4762 21.6372 25.3541Z" fill="var(--fill-0, #F4C058)"/>
<path id="Vector_2" d="M50.8226 60.8907C48.6055 60.8907 45.949 60.1293 43.4292 58.6466C40.4991 56.9334 36.3385 54.8596 32.3145 52.8659C20.6334 47.0652 17.9671 45.5123 18.5335 43.5587C18.7191 42.9075 19.3832 42.5368 20.018 42.7371C20.4868 42.8774 20.8091 43.2882 20.8579 43.759C21.9128 44.9813 28.5054 48.2475 33.3497 50.6619C37.4127 52.6756 41.6027 54.7593 44.6109 56.5226C48.3516 58.7166 51.9751 58.897 53.1862 57.805C53.9578 57.1137 53.655 55.7812 53.2643 54.7894C53.0983 54.3586 53.1764 53.8577 53.4792 53.517C53.7819 53.1664 54.2605 53.0263 54.6902 53.1565C58.0696 54.1283 59.8667 53.467 60.3746 52.6155C60.9313 51.6837 60.3453 50.0207 58.8705 48.3777C58.4993 47.9669 58.4505 47.3458 58.7533 46.8749C59.056 46.404 59.6323 46.2037 60.15 46.394C63.5391 47.6263 66.1858 47.2655 67.0551 45.4621C67.7974 43.9293 67.1137 41.3246 64.4083 39.5213C63.9004 39.1806 63.7148 38.4993 63.9883 37.9383C64.2617 37.3772 64.9064 37.1269 65.4826 37.3473C65.9319 37.5176 69.9558 38.9103 71.8017 34.9029C71.9775 34.5122 71.9287 33.9209 71.6552 33.2296C70.5906 30.5146 66.3031 26.5273 59.144 23.7522C58.6654 23.5618 58.3528 23.091 58.3724 22.56C58.3919 22.0391 58.7337 21.5781 59.2221 21.4278C64.8868 19.6646 69.3503 13.7037 69.9656 9.23543C70.1414 7.93303 70.0633 6.18985 68.6764 5.26816C66.8598 4.06594 66.1175 4.70721 63.8125 7.11164C61.8103 9.19548 59.0561 12.0506 54.1825 13.4331C50.2855 14.5351 46.7987 13.944 43.7319 13.4131C40.8116 12.9121 38.2918 12.4814 35.9184 13.5033C35.3129 13.7638 34.6097 13.4733 34.3558 12.8422C34.1018 12.221 34.3851 11.4996 35.0004 11.2391C38.0086 9.94674 40.9777 10.4577 44.1226 10.9987C47.0819 11.5096 50.1487 12.0307 53.5378 11.0689C57.7962 9.85665 60.189 7.38193 62.1033 5.38825C64.2325 3.17417 66.4397 0.880006 69.9656 3.20429C71.8799 4.46662 72.7199 6.73089 72.3292 9.56612C71.7236 14.0243 67.9927 19.7449 62.6796 22.6002C68.2759 25.2551 72.544 28.9017 73.8821 32.298C74.4193 33.6505 74.4485 34.9127 73.9699 35.9446C72.6514 38.7999 70.4637 39.882 68.4225 40.1124C69.8093 42.1562 70.1609 44.5505 69.2037 46.5442C68.2954 48.4177 66.1077 49.9604 62.4647 49.4896C63.1582 51.1126 63.1679 52.6556 62.4158 53.8979C61.3512 55.6811 59.0267 56.4025 56.0185 55.9517C56.2334 57.9353 55.3837 59.0874 54.7489 59.6585C53.821 60.49 52.4341 60.9008 50.8128 60.9008L50.8226 60.8907Z" fill="var(--fill-0, #4C4B4C)"/>
<path id="Vector_3" d="M17.274 47.7049C16.8052 47.7049 16.3461 47.5949 15.9164 47.3745L1.70559 40.1211C0.973081 39.7504 0.426182 39.0992 0.162478 38.3077C-0.101227 37.5163 -0.0425827 36.6648 0.328557 35.9134L16.8833 1.75032C17.2447 0.998939 17.8796 0.437826 18.6511 0.167327C19.4227 -0.103171 20.2528 -0.0429039 20.9951 0.32778L35.2059 7.58114C35.9384 7.95183 36.4853 8.59282 36.749 9.3943C37.0127 10.1958 36.9542 11.0475 36.5928 11.7989L20.0379 45.9617C19.6766 46.7131 19.0516 47.2742 18.2702 47.5447C17.9479 47.6549 17.6158 47.715 17.2935 47.715L17.274 47.7049ZM19.618 2.4616C19.5497 2.4616 19.4714 2.47165 19.4031 2.50171C19.2273 2.56182 19.0906 2.68214 19.0125 2.85245L2.45766 37.0153C2.37952 37.1756 2.36007 37.366 2.41867 37.5363C2.47727 37.7066 2.59445 37.8568 2.76049 37.9369L16.9809 45.1905C17.1372 45.2707 17.3228 45.2805 17.4888 45.2304C17.6646 45.1703 17.8014 45.0502 17.8795 44.8799L34.4342 10.7168C34.5124 10.5565 34.5222 10.3661 34.4636 10.1858C34.405 10.0155 34.2878 9.87532 34.1315 9.78516L19.911 2.53179C19.8133 2.4817 19.7157 2.4616 19.618 2.4616ZM22.3918 21.4766C21.5323 21.4766 20.6825 21.2764 19.8914 20.8656C18.5436 20.1744 17.5377 18.9921 17.0591 17.5294C16.5806 16.0667 16.6879 14.4939 17.3521 13.1214C18.7292 10.2661 22.128 9.10388 24.9018 10.5165C27.6854 11.9391 28.8184 15.4155 27.4413 18.2708C26.7771 19.6533 25.6148 20.6851 24.1888 21.176C23.6028 21.3764 22.9973 21.4766 22.3918 21.4766ZM22.4113 12.37C21.2198 12.37 20.0673 13.0511 19.5008 14.2132C19.1102 15.0147 19.0515 15.9164 19.3348 16.758C19.6082 17.5995 20.1943 18.2807 20.9659 18.6814C21.7472 19.0822 22.6261 19.1425 23.4466 18.8519C24.267 18.5714 24.9312 17.9802 25.3218 17.1787C26.1227 15.5356 25.4586 13.532 23.8568 12.7105C23.3978 12.47 22.8997 12.36 22.4211 12.36L22.4113 12.37Z" fill="var(--fill-0, #4C4B4C)"/>
</g>
</svg>
