<svg preserveAspectRatio="none" width="100%" height="100%" overflow="visible" style="display: block;" viewBox="0 0 72.5574 65.9609" fill="none" xmlns="http://www.w3.org/2000/svg">
<g id="Group">
<path id="Vector" d="M69.1879 23.3423L72.5574 29.5238L55.9733 65.9609C55.9733 65.9609 45.7963 51.1936 31.7907 54.0789L27.9523 52.6363C27.9523 52.6363 22.6391 44.6617 15.275 42.2773C15.275 42.2773 7.21733 40.1933 2.91016 40.3536L19.5821 3.35547L24.3581 5.51937L10.5087 35.8553C10.5087 35.8553 23.108 38.8209 29.681 50.7028L31.8688 51.4241C31.8688 51.4241 43.6085 48.058 53.6195 56.8041L69.1879 23.3322V23.3423Z" fill="var(--fill-0, #F4C058)"/>
<path id="Vector_2" d="M49.7842 16.8418L41.6875 36.1875H43.9143L45.731 37.9508L55.3318 17.523C55.3318 17.523 53.8472 16.5112 49.7744 16.8418H49.7842Z" fill="var(--fill-0, #F4C058)"/>
<path id="Vector_3" d="M21.076 41.2656C20.8709 41.2656 20.656 41.1854 20.4314 41.0151C20.0993 40.7747 19.9626 40.3338 20.1091 39.9431L19.1128 39.2819C18.9468 39.4522 18.7124 39.5522 18.478 39.5522C18.3022 39.5522 18.1361 39.5022 17.9896 39.402C17.8041 39.2818 17.6185 39.1617 17.4329 39.0415C17.2278 38.9112 17.0813 38.7108 17.0227 38.4704C16.9641 38.2299 17.0032 37.9795 17.1302 37.7691C17.2962 37.4886 17.5794 37.3281 17.9017 37.3281C18.0678 37.3281 18.2338 37.3784 18.3706 37.4685C18.5659 37.5887 18.7612 37.7189 18.9566 37.8491C19.3082 38.0795 19.4547 38.5204 19.3179 38.9312L20.3239 39.5723C20.49 39.4019 20.7244 39.3017 20.9685 39.3017C21.1443 39.3017 21.3104 39.352 21.4569 39.4522C21.5643 39.5223 21.662 39.6225 21.7304 39.7327C22.0234 40.1334 22.0136 40.6043 21.7401 40.9349C21.7401 40.9349 21.4569 41.2656 21.0564 41.2656H21.076Z" fill="var(--fill-0, #3C3D3D)"/>
<path id="Vector_4" d="M54.0003 65.3806C53.8733 65.3806 53.7366 65.3507 53.6194 65.2905C53.4339 65.2004 53.3166 65.1001 53.219 64.9599C53.1018 64.7895 50.4452 60.9524 46.2455 57.6463C42.1043 54.3903 37.9437 52.7474 33.8807 52.7474C32.4645 52.7474 31.0483 52.9476 29.6516 53.3484C29.5735 53.3684 29.4856 53.3784 29.4075 53.3784C29.007 53.3784 28.6457 53.098 28.5382 52.6973C28.4406 52.3366 28.5578 51.9559 28.841 51.7255L29.9349 50.8237L28.548 50.6133C28.4601 50.6033 28.3722 50.5734 28.2941 50.5334L27.415 50.0324L27.3271 51.0243C27.3271 51.3348 27.1611 51.6154 26.9071 51.7857C26.7606 51.8858 26.5946 51.9358 26.4188 51.9358C26.1063 51.9358 25.823 51.7756 25.657 51.5051C22.3949 46.2655 17.4236 42.6687 10.8798 40.8253C6.99259 39.7333 3.65234 39.6131 2.40219 39.6131C2.05058 39.6131 1.84549 39.6131 1.83572 39.6231H1.81617C1.66967 39.6231 1.57199 39.603 1.47433 39.573L1.29853 39.513L1.12274 39.5629C1.0446 39.583 0.966455 39.593 0.898087 39.593C0.771119 39.593 0.634399 39.5631 0.517197 39.503C0.0679228 39.2826 -0.127416 38.7316 0.0874541 38.2708L17.1208 0.981791C17.2673 0.6612 17.5896 0.451027 17.9412 0.451027C18.0779 0.451027 18.2049 0.480926 18.3221 0.541037C18.7714 0.761443 18.9667 1.31244 18.7616 1.77329L2.32407 37.7498L3.2519 37.7799C5.08806 37.84 7.9595 38.1004 11.2705 39.0221C16.6324 40.5149 21.0861 43.1797 24.485 46.9366L25.4226 46.1351C24.7096 45.1533 23.8599 44.1816 22.8832 43.2499C22.5218 42.8993 22.5023 42.3181 22.8441 41.9374C23.0199 41.7471 23.2543 41.6469 23.5083 41.6469C23.7329 41.6469 23.9576 41.737 24.1236 41.8973C25.7254 43.4301 27.0244 45.0632 27.9815 46.7363L28.5675 47.7582L36.713 29.9253C36.8596 29.6047 37.1819 29.3943 37.5335 29.3943C37.6702 29.3943 37.7971 29.4244 37.9144 29.4845C38.1292 29.5847 38.2953 29.7751 38.3832 30.0055C38.4613 30.2359 38.4515 30.4864 38.3539 30.7168L30.2767 48.3993L31.4585 48.1589C32.8649 47.8683 34.3299 47.7181 35.8145 47.7181C36.1466 47.7181 36.4884 47.7181 36.8302 47.7382C40.3951 47.8985 45.7669 49.0406 51.1289 53.559L51.7344 54.0699L66.4921 21.7603L65.994 21.4798C60.9055 18.5644 56.6569 17.2119 54.5863 16.6608L54.098 16.5305L44.8195 36.858C44.6828 37.1585 44.3995 37.3589 44.087 37.389C44.087 37.389 44.087 37.389 44.0772 37.389C43.7159 37.389 43.4424 37.2489 43.2764 37.0084L41.8309 34.9446L39.5356 35.6458C39.4477 35.6759 39.3696 35.6859 39.2817 35.6859C39.018 35.6859 38.7738 35.5656 38.598 35.3653C38.3636 35.0847 38.3148 34.694 38.4613 34.3634L47.0073 15.649L45.8841 15.8192C45.7083 15.8493 45.5423 15.8694 45.4055 15.8994L45.093 15.9596L41.2351 24.4051C41.0886 24.7257 40.7663 24.9361 40.4147 24.9361C40.2877 24.9361 40.151 24.906 40.0338 24.8459C39.8189 24.7457 39.6528 24.5553 39.5649 24.3249C39.4868 24.0945 39.4966 23.844 39.5942 23.6136L43.4229 15.2283L43.208 14.9277C38.1878 8.055 28.5675 3.78699 24.6608 2.26418L24.1334 2.06386L9.82498 33.3816L10.4403 33.622C11.6025 34.0729 13.4289 34.8343 15.4897 35.9163C15.7046 36.0265 15.8609 36.2169 15.939 36.4574C16.0171 36.6878 15.9976 36.9482 15.8902 37.1686C15.7339 37.4792 15.4311 37.6796 15.0795 37.6796C14.933 37.6796 14.7963 37.6494 14.6693 37.5793C11.2314 35.786 8.42831 34.8743 8.3111 34.8342C8.05717 34.7541 7.85209 34.5637 7.75442 34.3233C7.64698 34.0828 7.65675 33.8023 7.75442 33.5519L22.6879 0.861696L22.766 0.721545L22.8246 0.631291V0.561093C22.9711 0.220465 23.2934 0 23.6548 0C23.7525 0 23.8404 0.0200859 23.938 0.0501413C24.5143 0.240492 38.0804 4.85901 44.6437 13.8255L44.8684 14.1362L45.2395 14.066C45.9427 13.9357 47.0757 13.7854 48.4625 13.7854C50.2499 13.7854 52.0079 14.0359 53.6878 14.5168C53.7464 14.5368 53.805 14.5569 53.8636 14.587L53.932 14.6271L54.0101 14.6471C58.2001 15.5989 63.2105 17.7028 67.7618 20.4077C67.8106 20.4378 67.8692 20.4777 67.9083 20.5178L67.9669 20.578L68.045 20.6181C68.4845 20.8385 68.6798 21.3895 68.465 21.8403L53.0725 55.5426C53.0334 55.6328 52.9748 55.7129 52.9064 55.7931L52.8381 55.873L52.799 55.9633C52.7599 56.0535 52.7013 56.1336 52.6427 56.2138C52.4669 56.4041 52.2325 56.5043 51.9883 56.5043C51.7539 56.5043 51.5391 56.4142 51.373 56.2539C45.6594 50.7637 39.7603 49.6115 35.8047 49.6115C35.2187 49.6115 34.6229 49.6416 34.0369 49.6917L34.076 50.934C38.5492 50.9941 43.0322 52.7875 47.4273 56.2539C50.0057 58.2876 51.9981 60.4816 53.219 61.9643L53.8343 62.7057L70.2328 26.7994C70.3793 26.4788 70.7016 26.2686 71.0532 26.2686C71.1899 26.2686 71.3169 26.2985 71.4341 26.3587C71.8834 26.5791 72.0787 27.1301 71.8638 27.5909L54.8305 64.8796C54.684 65.2002 54.3617 65.4106 54.0101 65.4106L54.0003 65.3806ZM42.1727 32.9509C42.4657 32.9509 42.7392 33.091 42.9052 33.3415L43.8233 34.654L52.3204 16.0496L51.5391 15.9095C50.8359 15.7792 50.1131 15.6991 49.4001 15.659L48.99 15.6389L41.0397 33.0509L42.0946 32.9609H42.1727V32.9509Z" fill="var(--fill-0, #3C3D3D)"/>
<path id="Vector_5" d="M38.9806 28.1011C38.7462 28.1011 38.5118 28.0009 38.3457 27.8305C38.1797 27.6602 38.082 27.4199 38.082 27.1794C38.082 26.939 38.1797 26.6984 38.3457 26.5281C38.5118 26.3578 38.7462 26.2578 38.9806 26.2578C39.215 26.2578 39.4494 26.3578 39.6154 26.5281C39.7815 26.6984 39.8791 26.939 39.8791 27.1794C39.8791 27.4199 39.7815 27.6602 39.6154 27.8305C39.4494 28.0009 39.215 28.1011 38.9806 28.1011Z" fill="var(--fill-0, #3C3D3D)"/>
<path id="Vector_6" d="M26.2233 24.7664H20.6562C21.4864 22.5323 23.1956 21.5804 25.3932 21.1797C25.7936 21.2498 25.6276 22.3319 25.7155 22.7226C25.862 23.4138 26.1647 24.0651 26.2233 24.7664Z" fill="var(--fill-0, white)"/>
</g>
</svg>
