<svg preserveAspectRatio="none" width="100%" height="100%" overflow="visible" style="display: block;" viewBox="0 0 105.483 101.051" fill="none" xmlns="http://www.w3.org/2000/svg">
<g id="Group">
<path id="Vector" d="M91.7815 0.922097L13.0901 1.40296C6.5952 1.44304 1.35043 6.88319 1.3895 13.5455L1.69227 66.2926C1.73134 72.9549 7.03472 78.3348 13.5297 78.2947L18.9209 78.2646L18.8428 99.8545L45.096 78.1044L92.2111 77.8139C98.7061 77.7738 103.951 72.3336 103.912 65.6714L103.609 12.9242C103.57 6.26192 98.2666 0.882024 91.7717 0.922097H91.7815Z" fill="var(--fill-0, #E7D56D)"/>
<g id="Group_2">
<path id="Vector_2" d="M96.4967 77.8231C95.2661 78.2238 93.9672 78.4341 92.6584 78.4441L47.3208 78.8149L46.7641 79.2055C46.7055 79.2757 46.6468 79.336 46.5882 79.386L20.6476 100.795C20.5401 100.886 20.4132 100.956 20.2764 100.996C19.9932 101.086 19.7002 101.066 19.4267 100.936C19.036 100.745 18.7723 100.325 18.7723 99.8838L18.4794 79.5362C18.4794 79.3559 18.5184 79.1755 18.5966 79.0152L19.29 79.0453L13.4201 79.0955C6.30013 79.1556 0.459552 73.2546 0.400951 65.9511L0.000478022 13.8651C-0.0288225 10.3286 1.28975 6.98252 3.71192 4.46789C5.18671 2.93506 7.00329 1.78286 8.97619 1.13166C10.2068 0.730917 11.496 0.520656 12.8145 0.510638L54.3236 0.169922C54.6264 0.169922 54.9194 0.290232 55.144 0.510638C55.3589 0.731044 55.4858 1.03143 55.4858 1.342C55.4858 1.86297 55.1636 2.32394 54.685 2.47422C54.5776 2.51429 54.4604 2.52437 54.3432 2.53439L12.8341 2.87486C11.7598 2.87486 10.6952 3.0552 9.67944 3.38581C8.05814 3.91679 6.56383 4.86853 5.35274 6.12084C3.36031 8.19466 2.27619 10.9397 2.30549 13.845L2.70591 65.9311C2.72544 68.8364 3.85839 71.5616 5.88013 73.6054C7.90186 75.6491 10.578 76.7611 13.4104 76.741L27.7969 76.6209C28.4317 76.6209 28.9494 77.1418 28.9591 77.793C28.9591 78.314 28.6368 78.7649 28.1583 78.9252C28.0508 78.9653 27.9336 78.9751 27.8164 78.9852L20.2471 79.0453L20.6573 79.0052C20.7355 79.1655 20.7843 79.3459 20.7843 79.5262L21.0675 97.4494L43.7656 78.8651L45.4455 77.4824C45.2013 77.6828 45.8948 77.1217 46.051 76.9915C46.7542 76.4204 47.1157 76.5007 47.5845 76.4006C47.7017 76.3805 48.4928 76.4605 48.61 76.4605L92.6389 76.0899C93.7132 76.0899 94.7778 75.9096 95.7935 75.579C97.4148 75.048 98.919 74.0963 100.12 72.844C102.113 70.7701 103.197 68.0251 103.168 65.1198L103.041 48.1884C103.041 47.6674 103.353 47.2167 103.841 47.0564C103.949 47.0163 104.066 47.0063 104.183 46.9962C104.818 46.9962 105.336 47.5171 105.346 48.1683L105.482 65.0997C105.512 68.6362 104.193 71.9823 101.771 74.4969C100.296 76.0297 98.4794 77.1819 96.5065 77.8331L96.4967 77.8231Z" fill="var(--fill-0, #236242)"/>
<path id="Vector_3" d="M104.507 43.1601C104.399 43.2002 104.282 43.2103 104.165 43.2203C103.53 43.2203 103.012 42.6994 103.003 42.0482L102.983 39.874V39.8141C102.964 39.754 102.954 39.6837 102.954 39.6135V38.0509C102.944 37.9907 102.954 37.9305 102.954 37.8703V37.8104L102.934 34.835C102.934 34.314 103.257 33.863 103.735 33.7027C103.843 33.6627 103.96 33.6526 104.077 33.6426C104.712 33.6426 105.229 34.1637 105.239 34.8149L105.308 42.0282C105.308 42.5491 104.995 42.9998 104.507 43.1601Z" fill="var(--fill-0, #236242)"/>
<path id="Vector_4" d="M104.379 28.5224C104.272 28.5624 104.155 28.5725 104.037 28.5825C103.402 28.5825 102.885 28.0614 102.885 27.4102V26.6688C102.885 26.0778 103.207 25.6169 103.686 25.4567C103.793 25.4166 103.91 25.4065 104.028 25.3965C104.33 25.3965 104.623 25.5168 104.848 25.7372C105.063 25.9576 105.19 26.2582 105.19 26.5688V27.3801C105.19 27.9011 104.867 28.352 104.389 28.5123L104.379 28.5224Z" fill="var(--fill-0, #236242)"/>
<path id="Vector_5" d="M74.4817 2.30405C74.3742 2.34413 74.2569 2.3542 74.1397 2.36422L70.3893 2.39431C69.7545 2.39431 69.2369 1.87342 69.2271 1.22222C69.2271 0.701264 69.5396 0.250305 70.0279 0.0900097C70.1354 0.0499358 70.2526 0.0401032 70.3698 0.0300848L74.1203 0C74.7551 0 75.2727 0.520882 75.2825 1.17208C75.2825 1.69304 74.97 2.14376 74.4817 2.30405Z" fill="var(--fill-0, #236242)"/>
<path id="Vector_6" d="M65.869 2.36458C65.7225 2.41467 65.5761 2.42474 65.4198 2.41472L59.9796 2.58496C59.6768 2.5549 59.3937 2.41473 59.1983 2.17429C59.003 1.93385 58.9053 1.62317 58.9346 1.31259C58.9737 0.831707 59.2862 0.430948 59.7354 0.29069C59.8819 0.240597 60.0285 0.230774 60.1848 0.240793L65.6249 0.0703125C65.9276 0.100368 66.2109 0.240783 66.4063 0.481226C66.6016 0.72167 66.6993 1.03211 66.67 1.34268C66.6309 1.82356 66.3183 2.22432 65.869 2.36458Z" fill="var(--fill-0, #236242)"/>
<path id="Vector_7" d="M104.302 20.3677C104.195 20.4078 104.078 20.4179 103.96 20.4279C103.658 20.4279 103.365 20.3076 103.14 20.0872C102.925 19.8668 102.798 19.5664 102.798 19.2558L102.749 13.2547C102.73 10.3494 101.597 7.6242 99.5752 5.58044C97.5535 3.53667 94.8774 2.42475 92.045 2.4548L80.569 2.54481C79.9341 2.54481 79.4164 2.02393 79.4067 1.37273C79.4067 0.851767 79.729 0.401053 80.2076 0.240758C80.3151 0.200684 80.4322 0.190607 80.5494 0.180588L92.0255 0.0903341C95.4731 0.0602787 98.7353 1.41282 101.187 3.8974C103.648 6.38198 105.015 9.69816 105.045 13.2347L105.093 19.2357C105.093 19.7567 104.781 20.2074 104.293 20.3677H104.302Z" fill="var(--fill-0, #236242)"/>
</g>
<g id="Group_3">
<path id="Vector_8" d="M24.859 53.3384V54.9713C24.859 55.1917 24.6637 55.312 24.4586 55.312C24.2535 55.312 24.0679 55.1917 24.0679 54.9713V53.3384H21.3625C21.0988 53.3384 20.9719 53.168 20.9719 52.9977C20.9719 52.8073 21.1086 52.6071 21.3625 52.6071H24.0679V52.4065C24.0679 52.2562 24.1363 52.1562 24.2339 52.0961C24.1167 52.026 24.0289 51.9057 24.0289 51.7754C24.0289 51.6853 24.0679 51.5951 24.1754 51.525C24.693 51.1944 25.113 50.6533 25.3865 49.942C25.4451 49.7817 25.5623 49.7216 25.6893 49.7216C25.8748 49.7216 26.0701 49.862 26.0701 50.0723C26.0701 50.1224 26.0701 50.2025 25.9041 50.5031C26.2557 50.8437 26.6952 51.1042 27.0859 51.3046C27.2324 51.3847 27.3007 51.5048 27.3007 51.635C27.3007 51.8454 27.1347 52.056 26.9101 52.056C26.6171 52.056 25.992 51.5551 25.5623 51.0742C25.2888 51.4749 24.986 51.8256 24.6442 52.056L24.6246 52.076C24.7516 52.1261 24.859 52.2362 24.859 52.4065V52.6171H27.5937C27.8379 52.6171 27.9649 52.7973 27.9649 52.9876C27.9649 53.158 27.8477 53.3484 27.5937 53.3484H24.859V53.3384ZM24.4586 49.6314L21.7239 49.6514C21.4602 49.6514 21.3235 49.4612 21.3235 49.2708C21.3235 49.0805 21.4602 48.9 21.7239 48.9L24.0679 48.9201V48.2991C24.0679 48.0386 24.2828 47.9082 24.4879 47.9082C24.693 47.9082 24.9079 48.0386 24.9079 48.2991V48.9301L27.3007 48.9101C27.5547 48.9101 27.6719 49.1005 27.6719 49.2809C27.6719 49.4612 27.5547 49.6614 27.3007 49.6614L24.4781 49.6414L24.4586 49.6314ZM21.9778 52.1761C21.7629 52.1761 21.5774 52.0059 21.5774 51.8055C21.5774 51.6953 21.636 51.585 21.763 51.4748C22.2806 51.0841 22.6615 50.6233 22.8861 50.0122C22.9545 49.8218 23.0913 49.7417 23.228 49.7417C23.4038 49.7417 23.5894 49.872 23.5894 50.0824C23.5894 50.2026 23.4429 50.4931 23.4233 50.5231C23.6187 50.5933 24.1754 50.8938 24.1754 51.2344C24.1754 51.4348 24.0288 51.6253 23.8628 51.6253C23.7944 51.6253 23.7163 51.5951 23.648 51.515C23.4722 51.3146 23.2573 51.1443 23.1206 51.0541C22.8178 51.525 22.3001 52.1661 21.9778 52.1661V52.1761Z" fill="var(--fill-0, #236242)"/>
<path id="Vector_9" d="M35.6212 53.1383L33.5702 53.0985H33.326C34.1659 53.7196 35.0254 54.0202 35.9532 54.3307C36.129 54.3908 36.2072 54.5209 36.2072 54.6511C36.2072 54.8715 36.0314 55.1122 35.7775 55.1122C35.6114 55.1122 34.205 54.5712 32.9646 53.5894L32.9842 55.0219C32.9842 55.2423 32.7888 55.3426 32.6033 55.3426C32.4177 55.3426 32.2223 55.2423 32.2223 55.0219L32.2419 53.5894C31.2359 54.4209 29.6927 55.142 29.429 55.142C29.1848 55.142 29.0188 54.9618 29.0188 54.7715C29.0188 54.6412 29.1067 54.5109 29.302 54.4408C30.2884 54.0901 31.0503 53.7296 31.8316 53.0985H31.5679L29.5951 53.1383C29.3899 53.1383 29.2923 52.9882 29.2923 52.828C29.2923 52.6677 29.3997 52.5073 29.6048 52.5073L32.2613 52.5274V52.1566H30.4154C30.2396 52.1566 30.142 52.0165 30.142 51.8762C30.142 51.736 30.2396 51.6057 30.4154 51.6057H32.2419V51.255H30.0052C29.8001 51.255 29.6927 51.1147 29.6927 50.9544C29.6927 50.8041 29.8001 50.6538 30.0052 50.6538H31.4312C31.3823 50.5336 31.3238 50.4135 31.2652 50.3233C31.2359 50.2833 31.2261 50.2431 31.2261 50.203C31.2261 50.1028 31.314 50.0227 31.4312 49.9826H29.5755C29.3509 49.9826 29.2336 49.8122 29.2336 49.6419C29.2336 49.4716 29.3509 49.3014 29.5657 49.3014L30.6303 49.3215C30.5131 49.1311 30.3666 48.9508 30.2103 48.7905C30.1615 48.7304 30.1322 48.6703 30.1322 48.6202C30.1322 48.4499 30.3471 48.2896 30.5424 48.2896C30.6108 48.2896 30.6694 48.2896 30.728 48.3397C30.8745 48.4399 31.3043 49.0109 31.3824 49.3415H31.6656V48.2394C31.6656 47.999 31.8414 47.8887 32.0269 47.8887C32.2125 47.8887 32.3883 48.009 32.3883 48.2394V49.3516H32.8572V48.2394C32.8572 48.009 33.033 47.8887 33.2186 47.8887C33.4041 47.8887 33.5799 48.009 33.5799 48.2294L33.5604 49.3415H33.8339C33.9999 49.0811 34.1463 48.7504 34.244 48.4999C34.3124 48.3296 34.4491 48.2494 34.5858 48.2494C34.8007 48.2494 35.0059 48.4196 35.0059 48.63C35.0059 48.6501 35.0058 48.8206 34.6152 49.3315L35.7188 49.3115C35.9337 49.3115 36.0411 49.4816 36.0411 49.6519C36.0411 49.8222 35.9337 50.0027 35.709 50.0027H33.7557C33.8729 50.0528 33.9609 50.143 33.9609 50.2732C33.9609 50.3634 33.8436 50.6338 33.8143 50.6839H35.2305C35.4356 50.6839 35.5333 50.8242 35.5333 50.9845C35.5333 51.1347 35.4356 51.2851 35.2305 51.2851H33.0036V51.6356H34.8106C34.9961 51.6356 35.0839 51.7658 35.0839 51.9061C35.0839 52.0363 34.9961 52.1766 34.8106 52.1766H32.9938V52.5374L35.6505 52.5173C35.8556 52.5173 35.963 52.6777 35.9532 52.838C35.9532 52.9983 35.8556 53.1484 35.6603 53.1484L35.6212 53.1383ZM31.734 49.9826C31.8121 50.0227 32.066 50.223 32.1441 50.6438V50.6638H33.0427C33.1111 50.5135 33.1893 50.2933 33.2088 50.123C33.2088 50.0529 33.2478 50.0127 33.2869 49.9826H31.7242H31.734Z" fill="var(--fill-0, #236242)"/>
<path id="Vector_10" d="M37.5456 54.9617C37.2819 54.9617 37.1647 54.7916 37.1647 54.6012C37.1647 54.4008 37.3015 54.2003 37.5456 54.2003H40.3194V52.7076H38.7958C38.5321 52.7076 38.4149 52.5374 38.4149 52.3571C38.4149 52.1767 38.5517 51.9763 38.7958 51.9763H40.3194V50.7139H38.8739C38.6102 51.1948 38.3173 51.6457 37.9754 52.0765C37.8582 52.2168 37.7313 52.2668 37.6141 52.2668C37.3992 52.2668 37.2234 52.0964 37.2234 51.896C37.2234 51.8159 37.2527 51.7259 37.3308 51.6258C37.8484 51.0146 38.454 50.0426 38.7763 48.9005C38.8349 48.7001 38.9911 48.6202 39.1474 48.6202C39.372 48.6202 39.6064 48.7704 39.6064 49.0008C39.6064 49.0309 39.6065 49.0811 39.5772 49.1211C39.4698 49.4117 39.3622 49.692 39.2353 49.9726H40.3194V48.4999C40.3194 48.1893 40.5343 48.0391 40.7394 48.0391C40.9445 48.0391 41.1497 48.1893 41.1497 48.4999V49.9826H43.3472C43.6109 49.9826 43.7378 50.153 43.7378 50.3534C43.7378 50.5538 43.6109 50.7239 43.3472 50.7239H41.1497V51.9863H42.7904C43.0541 51.9863 43.1811 52.1567 43.1811 52.3571C43.1811 52.5575 43.0541 52.7276 42.7904 52.7276H41.1497V54.2204H43.8647C44.1089 54.2204 44.2359 54.4008 44.2359 54.5912C44.2359 54.7815 44.1187 54.9617 43.8647 54.9617H37.5456Z" fill="var(--fill-0, #236242)"/>
<path id="Vector_11" d="M50.6243 51.6457C50.6243 50.724 49.9211 49.9326 48.7393 49.9326H48.7198C48.8468 49.9927 48.9445 50.113 48.9445 50.2834V50.3235C48.9445 51.1951 48.1045 52.7179 47.2157 53.6096C47.0106 53.8099 46.8055 53.8899 46.6102 53.8899C46.0339 53.8899 45.5163 53.2188 45.5163 52.3171C45.5163 50.8144 46.9618 49.2715 48.7882 49.2715C50.429 49.2715 51.4545 50.3834 51.4545 51.6858C51.4545 51.9964 51.396 52.3072 51.2788 52.6278C50.5658 54.4812 48.3585 54.7315 48.2413 54.7315C47.958 54.7315 47.7822 54.5312 47.7822 54.3208C47.7822 54.1405 47.919 53.96 48.2315 53.8999C49.7063 53.6494 50.6341 52.7179 50.6341 51.6259L50.6243 51.6457ZM48.2803 49.9727C47.2645 50.1831 46.2488 51.2852 46.2488 52.277C46.2488 52.8982 46.659 52.9783 46.6785 52.9783C46.7273 52.9783 46.786 52.9582 46.8348 52.9081C47.079 52.6877 48.0948 51.4455 48.1241 50.3235C48.1241 50.1532 48.1924 50.0328 48.2803 49.9627V49.9727Z" fill="var(--fill-0, #236242)"/>
<path id="Vector_12" d="M56.9918 53.7787C56.7769 53.7787 56.6207 53.7988 56.4058 53.7988C56.0347 53.8288 54.3156 54.0192 54.0324 54.0593C53.7394 54.0893 53.5734 54.1295 53.2803 54.1194C52.7236 54.0994 52.6065 53.2678 53.2999 53.2678C53.505 53.2678 53.7101 53.2678 53.9152 53.2477C54.1887 53.2277 55.7123 53.0173 56.2691 52.9571C56.396 52.2258 56.5914 51.274 56.6597 50.9534C56.7086 50.6829 56.6109 50.6729 56.3765 50.703C55.9858 50.7631 54.6672 50.9635 54.3547 51.0236C53.9933 51.0938 53.7492 51.1137 53.4073 51.1337C52.8897 51.1537 52.714 50.3324 53.3683 50.2723C53.6516 50.2522 53.9055 50.2722 54.1985 50.2221C54.4817 50.172 55.8588 50.0117 56.1519 49.9717C56.4156 49.9316 56.6694 49.8516 56.9429 49.8516C57.7047 49.8516 57.8219 50.4526 57.695 50.7331C57.4801 51.2039 57.2946 52.1656 57.1383 52.8869C57.6364 53.0072 57.8024 53.7086 56.9918 53.7587V53.7787Z" fill="var(--fill-0, #236242)"/>
<path id="Vector_13" d="M59.6775 55.1523C59.1013 55.4428 58.6911 54.6315 59.2966 54.3711C60.2928 53.9302 61.1816 53.1286 61.8946 52.247C61.5821 52.0667 61.2597 51.9165 60.9667 51.8063C60.4491 51.6159 60.791 50.8644 61.4258 51.1349C61.7286 51.2551 62.0607 51.4055 62.3927 51.5759C62.6564 51.1851 62.9006 50.7842 63.0861 50.4136C63.2424 50.113 63.3596 49.7626 63.3889 49.6123C63.4963 49.0412 64.4242 49.1514 64.2972 49.8026C64.2484 50.0831 64.1116 50.3735 63.9163 50.7041C63.6526 51.1449 63.3889 51.5758 63.1057 51.9966C63.3792 52.1769 63.6233 52.3774 63.8187 52.6078C64.0238 52.8382 63.9652 53.1287 63.8187 53.289C63.6722 53.4493 63.4085 53.5094 63.2131 53.289C63.0471 53.0986 62.8224 52.9082 62.5685 52.7179C61.8067 53.6896 60.8886 54.5512 59.658 55.1623L59.6775 55.1523Z" fill="var(--fill-0, #236242)"/>
<path id="Vector_14" d="M67.5587 51.2461C67.2168 50.9957 66.7872 50.7652 66.4063 50.675C65.9179 50.5648 66.123 49.7332 66.7383 49.8935C67.168 50.0137 67.6759 50.1941 68.0763 50.4546C68.3401 50.6249 68.3401 50.9257 68.2131 51.126C68.0959 51.3264 67.8224 51.4465 67.5587 51.2461ZM67.9103 54.382C67.6368 54.5323 67.4513 54.6222 67.129 54.6523C66.4551 54.7124 66.3574 53.8309 66.875 53.7808C67.0411 53.7608 67.3341 53.6506 67.5001 53.5705C68.9749 52.8892 70.2836 51.5265 71.104 49.9036C71.3677 49.3826 72.1882 49.7332 71.8366 50.3945C70.8306 52.2679 69.5707 53.4904 67.9006 54.382H67.9103Z" fill="var(--fill-0, #236242)"/>
<path id="Vector_15" d="M74.6888 54.5812C74.6888 54.9719 74.474 55.1922 74.2494 55.2122C74.0247 55.2323 73.7902 55.082 73.8 54.7013C73.8489 53.3387 73.8684 50.724 73.8293 49.5118C73.8293 49.2413 73.8001 48.9808 73.7513 48.8105C73.6048 48.2194 74.5424 48.0991 74.6107 48.6802C74.64 48.9306 74.6497 48.8505 74.6399 49.4215C74.6399 49.7521 74.6399 50.2331 74.6399 50.7942C74.679 50.7942 74.7279 50.7942 74.7767 50.7942C75.1869 50.8342 76.2516 51.0647 76.6911 51.5556C77.072 51.9763 76.5152 52.6475 76.0854 52.2368C75.7729 51.9262 75.0501 51.6658 74.6302 51.6157C74.6302 52.6877 74.6497 53.8398 74.6693 54.5812H74.6888Z" fill="var(--fill-0, #236242)"/>
<path id="Vector_16" d="M81.6729 52.6984C81.6729 52.8386 81.6729 52.9889 81.6533 53.1592C81.624 53.4898 81.4091 53.6701 81.2138 53.6701C81.038 53.6701 80.8817 53.54 80.8817 53.2795V53.1993C80.9013 52.9989 80.9111 52.8085 80.9111 52.6382C80.745 52.7284 79.9833 53.1391 79.9833 53.6601C79.9833 53.8003 80.0515 54.2914 80.8817 54.2914C81.2529 54.2914 81.6729 54.1913 81.9073 54.1211C81.9854 54.1011 82.0538 54.0911 82.1124 54.0911C82.3761 54.0911 82.5324 54.2813 82.5324 54.4817C82.5324 54.652 82.464 55.0829 81.0771 55.0829C79.6902 55.0829 79.2604 54.3615 79.2604 53.7604C79.2604 52.7485 80.413 52.1072 80.833 51.8868C80.7353 51.5662 80.5693 51.3959 80.3544 51.3959C80.2274 51.3959 80.0906 51.4461 79.9344 51.5463C79.5925 51.937 79.3874 52.0573 79.2116 52.0573C79.0163 52.0573 78.86 51.927 78.86 51.7366C78.86 51.6364 78.9088 51.5161 79.0456 51.3959C79.4851 50.9952 79.7 50.7848 80.0809 50.1336C79.9344 50.1536 79.8074 50.1637 79.6804 50.1637C78.86 50.1637 78.8503 49.6928 78.8503 49.6326C78.8503 49.4423 78.987 49.2621 79.1823 49.2621C79.2702 49.2621 79.3679 49.2922 79.4754 49.3724C79.5535 49.4225 79.6511 49.4424 79.7781 49.4424C79.8464 49.4424 80.0516 49.4425 80.4227 49.3523C80.5009 49.1319 80.5302 48.9815 80.5692 48.691C80.5985 48.4806 80.745 48.4004 80.9111 48.4004C81.1259 48.4004 81.3505 48.5508 81.3505 48.7712C81.3505 48.8714 81.3213 49.0017 81.3018 49.0818C81.5459 48.9616 81.5752 48.9515 81.6338 48.9515C81.8291 48.9515 81.9854 49.1219 81.9854 49.3223C81.9854 49.5928 81.7706 49.763 80.9306 49.9734C80.8134 50.2338 80.6474 50.5144 80.4716 50.805C80.9209 50.805 81.2822 51.0655 81.497 51.5864C82.5226 51.1356 83.2356 50.915 83.3723 50.915C83.6653 50.915 83.8313 51.1356 83.8313 51.346C83.8313 51.4762 83.7532 51.6163 83.6165 51.6664C83.3626 51.7766 83.0988 51.8067 82.6788 51.9369C82.337 52.0471 81.9854 52.1775 81.6729 52.3077C81.6924 52.428 81.6925 52.5681 81.6925 52.7084L81.6729 52.6984Z" fill="var(--fill-0, #236242)"/>
<path id="Vector_17" d="M45.573 60.3023C45.3191 60.3023 45.2116 60.1419 45.2116 59.9816C45.2116 59.8213 45.3386 59.6211 45.573 59.6211H47.8096C48.0441 59.6211 48.1612 59.7913 48.1612 59.9616C48.1612 60.1319 48.0441 60.3023 47.8096 60.3023H45.573ZM46.5888 65.4316C46.3837 65.4316 46.1786 65.4316 46.0224 65.4116C45.661 65.3815 45.4266 65.1211 45.4168 64.7504C45.4168 64.53 45.4168 64.3197 45.4168 64.1094C45.4168 63.899 45.4168 63.6985 45.4168 63.5182C45.4168 63.1976 45.6219 62.9072 46.0126 62.8871C46.1884 62.8871 46.3837 62.8671 46.5692 62.8671C46.7939 62.8671 47.0185 62.8671 47.2041 62.8871C47.5166 62.9072 47.8488 63.1174 47.8585 63.4781C47.8585 63.6684 47.8585 63.899 47.8585 64.1194C47.8585 64.3398 47.8585 64.5601 47.8585 64.7404C47.8585 64.8306 47.8389 64.9107 47.8096 64.9909C48.9426 64.7705 49.1868 63.9289 49.1868 62.6966C49.1868 62.5964 49.1868 62.4864 49.1868 62.3762V62.3561C49.1868 62.1057 49.3626 61.9853 49.5482 61.9853C49.7435 61.9853 49.9485 62.1157 49.9583 62.3762C49.9583 62.4764 49.9583 62.5764 49.9583 62.6866C49.9583 64.019 49.6165 65.3415 47.9562 65.6821C47.9171 65.6821 47.878 65.6821 47.839 65.6821C47.6046 65.6821 47.4874 65.5119 47.4874 65.3416V65.3115C47.3702 65.3616 47.2725 65.4116 46.5888 65.4116V65.4316ZM45.8465 59.1601C45.6121 59.1601 45.4949 58.9999 45.4949 58.8396C45.4949 58.6693 45.6121 58.4889 45.8465 58.4889H47.4678C47.6827 58.4889 47.7999 58.6593 47.7999 58.8196C47.7999 58.9799 47.6827 59.15 47.4678 59.15H45.8465V59.1601ZM45.8661 61.3844C45.6317 61.3844 45.5145 61.224 45.5145 61.0637C45.5145 60.8934 45.6317 60.713 45.8661 60.713H47.4874C47.7023 60.713 47.8194 60.8834 47.8194 61.0437C47.8194 61.2039 47.7023 61.3743 47.4874 61.3743H45.8661V61.3844ZM45.8661 62.4662C45.6317 62.4662 45.5145 62.3061 45.5145 62.1458C45.5145 61.9755 45.6317 61.795 45.8661 61.795H47.4874C47.7023 61.795 47.8194 61.9654 47.8194 62.1257C47.8194 62.286 47.7023 62.4562 47.4874 62.4562H45.8661V62.4662ZM47.1943 64.1495C47.1943 63.9892 47.1943 63.8287 47.1943 63.7185C47.1748 63.4981 46.999 63.4981 46.6279 63.4981C46.5302 63.4981 46.4325 63.4981 46.3153 63.4981C46.0907 63.5182 46.0907 63.6385 46.0907 64.1394C46.0907 64.2997 46.0907 64.46 46.0907 64.5802C46.0907 64.7505 46.2568 64.7805 46.6181 64.7805C47.126 64.7805 47.1846 64.7104 47.1943 64.5702C47.1943 64.4499 47.1943 64.2998 47.1943 64.1495ZM48.7374 62.5966C48.7374 62.817 48.5617 62.927 48.3859 62.927C48.2101 62.927 48.0245 62.8069 48.0245 62.5865C48.0245 62.4763 48.0245 62.366 48.0245 62.2458C48.0245 62.1256 48.0245 61.9854 48.0245 61.8552C48.044 61.4344 48.3175 61.1439 48.8742 61.1439C49.343 61.1439 49.8705 61.1439 50.3979 61.1439C50.7886 61.1439 51.1695 61.1439 51.5309 61.1439C51.9313 61.1439 52.3415 61.4142 52.361 61.9151C52.361 62.0253 52.361 62.1356 52.361 62.2458C52.361 62.366 52.361 62.4663 52.361 62.5665C52.3415 62.7869 52.1559 62.8972 51.9801 62.8972C51.8043 62.8972 51.6187 62.7969 51.6187 62.5765V62.5564C51.6187 61.8351 51.6187 61.7649 51.1987 61.7549C50.8666 61.7549 50.3881 61.7349 49.9389 61.7349C48.8255 61.7349 48.7473 61.7348 48.718 62.1556V62.5765L48.7374 62.5966ZM48.7374 60.7731C48.503 60.7731 48.3956 60.6228 48.3956 60.4625C48.3956 60.2922 48.5128 60.1321 48.7374 60.1321H49.7337V59.681H48.4054C48.171 59.681 48.0538 59.5309 48.0538 59.3706C48.0538 59.2003 48.171 59.0299 48.4054 59.0299H49.7337V58.529C49.7337 58.2785 49.9193 58.1582 50.1146 58.1582C50.3099 58.1582 50.5053 58.2785 50.5053 58.529V59.04H51.9899C52.2145 59.04 52.3219 59.2003 52.3219 59.3606C52.3219 59.5309 52.2145 59.6911 51.9899 59.6911H50.5053V60.1421H51.5894C51.8043 60.1421 51.9117 60.2922 51.9117 60.4525C51.9117 60.6228 51.8043 60.7731 51.5894 60.7731H48.7374ZM51.8629 64.0692C51.8629 63.8388 52.0289 63.7386 52.1949 63.7386C52.361 63.7386 52.5856 63.8389 52.5856 64.1394C52.5856 65.0611 52.3415 65.552 51.2867 65.552C50.4565 65.552 50.2807 65.1813 50.2807 64.5902C50.2807 64.2596 50.3002 62.5765 50.31 62.316C50.3295 62.1056 50.515 61.9954 50.7006 61.9954C51.0522 61.9954 51.0523 62.3059 51.0523 62.4461C51.0523 62.897 51.023 64.009 51.023 64.4197C51.023 64.6502 51.0425 64.8206 51.3355 64.8206C51.7359 64.8206 51.8727 64.7904 51.8727 64.1693V64.0893L51.8629 64.0692Z" fill="var(--fill-0, #236242)"/>
<path id="Vector_18" d="M55.9844 59.431C55.9844 59.431 56.0236 59.431 56.0529 59.431C56.2384 59.431 56.3947 59.6015 56.3947 59.8018C56.3947 60.0523 56.2286 60.1325 55.8966 60.3128C55.838 60.7336 55.8087 61.2945 55.7794 61.7253C55.8575 61.8455 55.9063 61.9957 55.9063 62.1661C55.9063 62.2863 55.877 62.4066 55.8281 62.5469C55.7305 62.8074 55.5156 63.168 55.3691 63.4785C55.3007 63.6288 55.2715 63.7692 55.2715 63.8995C55.2715 64.4104 55.7793 64.6408 56.2579 64.6408C56.8635 64.6408 57.7717 64.1799 57.7717 63.5889C57.7717 63.4586 57.7424 63.3685 57.5373 62.597C57.5178 62.5369 57.5081 62.4766 57.5081 62.4266C57.5081 62.1761 57.6937 62.046 57.889 62.046C58.0551 62.046 58.2406 62.1462 58.2992 62.3566C58.6215 63.3584 58.6215 63.6187 58.6215 63.6588C58.6215 64.6506 57.2151 65.4023 56.2384 65.4023C55.5254 65.4023 54.5096 64.9914 54.5096 64.0396C54.5096 63.8493 54.5487 63.6388 54.6268 63.4184C54.0701 63.3382 53.826 62.6971 53.826 62.2563C53.826 61.6752 54.2362 61.2444 54.7636 61.2444C54.8515 61.2444 54.959 61.2645 55.0566 61.2846C55.0859 61.0441 55.0956 60.7837 55.1249 60.5733C54.9491 60.6134 54.7929 60.6234 54.6659 60.6234C54.1776 60.6234 53.953 60.463 53.953 60.2025C53.953 60.0422 54.0506 59.8219 54.3046 59.8219C54.3436 59.8219 54.3925 59.842 54.4511 59.852C54.5292 59.882 54.6268 59.8921 54.7342 59.8921C54.871 59.8921 55.0273 59.872 55.1738 59.8219C55.1738 59.6015 55.1249 59.4512 55.1152 59.3109V59.2508C55.1152 58.9703 55.3105 58.8301 55.5156 58.8301C55.7207 58.8301 55.9551 58.9803 55.9649 59.2608V59.431H55.9844ZM54.7733 61.9256C54.5975 61.9256 54.4998 62.066 54.4998 62.2463C54.4998 62.5168 54.6366 62.667 54.7636 62.667C54.998 62.667 55.1347 62.2162 55.1347 62.1661C55.1347 62.0959 55.0859 62.076 55.0566 62.0159C54.9883 61.9658 54.9003 61.9256 54.7733 61.9256ZM59.1195 60.7235C58.8754 60.5331 58.6996 60.4329 58.5629 60.4329C58.4261 60.4329 58.3285 60.5231 58.2308 60.7134C58.1527 60.8637 58.0257 60.9238 57.9085 60.9238C57.6936 60.9238 57.4886 60.7535 57.4886 60.5031C57.4886 60.2025 57.8792 59.6815 58.5727 59.6815C59.1782 59.6815 59.7642 60.0622 59.7642 60.4028C59.7642 60.6232 59.5883 60.8137 59.3637 60.8137C59.2953 60.8137 59.1977 60.7836 59.1195 60.7235Z" fill="var(--fill-0, #236242)"/>
</g>
<path id="Vector_19" d="M53.1241 17.5533C55.8157 17.5533 57.9977 15.3151 57.9977 12.5541C57.9977 9.79315 55.8157 7.55469 53.1241 7.55469C50.4324 7.55469 48.2503 9.79315 48.2503 12.5541C48.2503 15.3151 50.4324 17.5533 53.1241 17.5533Z" stroke="var(--stroke-0, #236242)" stroke-width="0.946746" stroke-miterlimit="10"/>
<path id="Vector_20" d="M55.0961 10.4805H52.2833V13.3057H55.0961V10.4805Z" stroke="var(--stroke-0, #236242)" stroke-width="0.946746" stroke-linecap="round" stroke-linejoin="round"/>
<path id="Vector_21" d="M50.9961 12.1836V14.608H53.4867" stroke="var(--stroke-0, #236242)" stroke-width="0.946746" stroke-linecap="round" stroke-linejoin="round"/>
</g>
</svg>
