<svg preserveAspectRatio="none" width="100%" height="100%" overflow="visible" style="display: block;" viewBox="0 0 273.236 12.7232" fill="none" xmlns="http://www.w3.org/2000/svg">
<g id="Group">
<path id="Vector" d="M3.90673 3.05575C4.73691 3.06576 5.11781 3.5567 5.11781 4.33814C5.10804 5.37004 4.88338 6.88283 4.29737 8.34553C5.60612 9.05684 5.6843 9.48752 5.6843 9.72796C5.6843 10.1287 5.40105 10.5094 5.05921 10.5094C4.91271 10.5094 4.77596 10.4494 4.61969 10.2991C4.31692 9.98851 4.03371 9.72799 3.73093 9.50758C2.56868 11.5714 1.0841 12.3329 0.654361 12.3329C0.263688 12.3329 0 12.0021 0 11.6715C0 11.4511 0.107421 11.2409 0.351591 11.1307C1.44548 10.6298 2.20728 9.81809 2.72492 8.93646C2.44169 8.82626 2.10962 8.72605 1.75802 8.66594C1.63105 9.0767 1.31852 9.25712 1.03528 9.25712C0.752043 9.25712 0.478565 9.04666 0.478565 8.686C0.478565 8.58582 0.488329 8.47579 0.537164 8.36558C0.976671 7.05317 1.299 5.65048 1.5334 4.25791C1.25016 4.26793 0.976683 4.26796 0.732512 4.288H0.703183C0.322277 4.288 0.146467 3.99737 0.146467 3.69682C0.146467 3.39627 0.34181 3.08581 0.703183 3.06577C1.01572 3.06577 1.36732 3.05575 1.72869 3.05575C1.82636 2.28432 1.89475 1.53294 1.94359 0.80159C1.97289 0.41087 2.25613 0.230469 2.5589 0.230469C2.90074 0.230469 3.24259 0.451002 3.24259 0.86176C3.24259 1.27252 3.03748 2.72514 2.98865 3.05575H3.91651H3.90673ZM2.7933 4.22783C2.59796 5.32986 2.3538 6.48209 2.07056 7.59414C2.45147 7.65425 2.84215 7.73443 3.24259 7.87469C3.81884 6.38194 3.88718 4.86901 3.88718 4.47829C3.88718 4.2679 3.71137 4.22783 3.57463 4.22783H2.80307H2.7933ZM9.98167 7.00297C9.99143 7.17328 9.99144 7.33359 9.99144 7.52395C9.99144 8.19518 9.92305 8.94657 9.78632 9.7781C9.53238 11.341 8.4092 12.3329 6.92465 12.3329C6.06517 12.3329 5.40102 12.1524 5.40102 11.4511C5.40102 11.1205 5.61593 10.79 5.98707 10.79C6.04567 10.79 6.12377 10.79 6.19213 10.8201C6.45584 10.9002 6.7098 10.9402 6.9442 10.9402C7.70601 10.9402 8.32132 10.5094 8.52642 9.49755C8.66316 8.83634 8.73154 8.19525 8.73154 7.59414C8.73154 7.39377 8.72175 7.19331 8.70222 6.99294H5.63542C5.22521 6.99294 5.0201 6.70255 5.0201 6.39198C5.0201 6.0814 5.22521 5.79077 5.63542 5.79077H8.46782C8.25295 5.11953 7.89157 4.58854 7.42276 4.27797C7.24696 4.16777 7.16882 4.01759 7.16882 3.87733C7.16882 3.56676 7.48138 3.26609 7.86228 3.26609C7.92088 3.26609 8.14552 3.26606 8.40922 3.47644C8.78036 3.1258 9.43473 2.40453 9.43473 2.2843C9.43473 2.18412 9.28825 2.15394 8.66317 2.15394C7.99903 2.15394 7.03212 2.18406 6.11404 2.22413H6.07494C5.69403 2.22413 5.48895 1.93376 5.48895 1.6332C5.48895 1.33265 5.69406 1.02195 6.10427 1.00191C6.66098 0.971855 7.26653 0.971826 7.82324 0.971826C8.59482 0.971826 9.31756 0.981874 9.8938 1.00191C10.6263 1.01193 11.0072 1.41258 11.0072 1.9135C11.0072 2.19402 10.89 2.4947 10.6654 2.79526C10.3919 3.15592 9.62029 3.95739 9.23938 4.288C9.49332 4.67872 9.69847 5.17963 9.8352 5.78074H11.6909C12.1011 5.78074 12.316 6.09142 12.316 6.39198C12.316 6.69253 12.1108 6.98291 11.6909 6.98291H10.0012L9.98167 7.00297Z" fill="var(--fill-0, #040000)"/>
<path id="Vector_2" d="M20.6265 7.07346C20.773 7.57438 20.9781 7.99518 21.1343 8.35585C21.232 8.60631 21.3102 8.84672 21.3102 9.06712C21.3102 9.42779 21.1148 9.84859 20.5484 9.84859C20.353 9.84859 20.1577 9.80841 19.933 9.73828C19.5521 9.60804 18.4583 9.3577 17.5304 9.3577C16.5342 9.3577 15.8993 9.74842 15.8993 10.1091C15.8993 10.4397 16.4952 11.0307 18.0188 11.0307C18.263 11.0307 18.4974 11.0206 18.6829 10.9906C18.7415 10.9806 18.7903 10.9806 18.8489 10.9806C19.3275 10.9806 19.5521 11.2913 19.5521 11.6119C19.5521 12.223 18.9759 12.4034 18.5462 12.4034C16.3779 12.4034 14.5808 11.4113 14.5808 10.1991C14.5808 9.67813 15.0692 8.25557 17.6867 8.25557C18.2434 8.25557 18.761 8.29571 19.1615 8.32576C19.2592 8.32576 19.3373 8.33579 19.4154 8.33579C19.5619 8.33579 19.6986 8.33583 19.6986 8.12544C19.6986 8.09539 19.6987 8.04524 19.3959 7.06343C19.0931 7.1035 18.8099 7.1236 18.5071 7.1236C18.2434 7.1236 15.6454 7.09346 15.6454 5.5406C15.6454 5.1599 15.8212 4.76913 16.1728 4.48861C16.2705 4.41848 16.3096 4.34838 16.3096 4.26824C16.3096 3.98772 15.4892 3.51696 14.825 3.3767C14.3757 3.29655 14.1707 3.01591 14.1707 2.74541C14.1707 2.45487 14.4441 2.14445 14.8836 2.14445C15.7431 2.14445 17.8234 3.3966 17.8234 4.23815C17.8234 4.56876 17.5499 4.80919 17.2374 4.97951C16.9932 5.10975 16.8858 5.23008 16.8858 5.34028C16.8858 5.58072 17.6574 5.86126 18.4485 5.86126C18.6243 5.86126 18.8197 5.8512 18.9955 5.82115C18.5071 4.37849 17.882 2.89576 17.0616 1.57332C16.9639 1.42305 16.9248 1.29265 16.9248 1.16241C16.9248 0.811765 17.2667 0.601562 17.6183 0.601562C17.9015 0.601562 18.2043 0.741792 18.3704 1.0724C19.0248 2.45495 19.6107 4.00774 20.1186 5.51052C20.3335 5.44039 20.5581 5.36027 20.773 5.29014C20.8706 5.26008 20.9488 5.25003 21.0269 5.25003C21.3981 5.25003 21.6032 5.56074 21.6032 5.89134C21.6032 6.43234 21.2223 6.59256 20.5386 6.81297L20.607 7.0534L20.6265 7.07346Z" fill="var(--fill-0, #040000)"/>
<path id="Vector_3" d="M28.7046 3.00631C28.0893 4.72949 26.9369 6.6431 25.9504 8.35626C25.7844 8.6468 25.5304 8.77696 25.2667 8.77696C24.9249 8.77696 24.6221 8.53642 24.6221 8.17575C24.6221 8.03549 24.6612 7.86521 24.7686 7.70491C25.7453 6.18211 26.5168 5.09027 27.181 3.62757C26.3899 4.01829 25.882 4.18842 25.4621 4.18842C24.5635 4.18842 24.5635 3.55732 24.5635 3.50723C24.5635 3.17662 24.7979 2.8461 25.1886 2.8461C25.2667 2.8461 25.3644 2.85616 25.4621 2.88621C25.5304 2.91627 25.6086 2.91605 25.6965 2.91605C26.1848 2.91605 26.8978 2.55542 27.6205 2.19475C27.6596 1.86414 27.6498 1.53371 27.6791 1.12295C27.6889 0.702177 28.0014 0.511719 28.3237 0.511719C28.646 0.511719 28.9488 0.712186 28.9781 1.11292V1.40326C29.0367 1.39324 29.0758 1.37341 29.1246 1.37341C29.4079 1.37341 29.6716 1.6237 29.6716 1.94429C29.6716 2.41516 29.0855 2.7859 28.7046 3.00631ZM28.3042 12.2533C27.0638 12.2533 26.0285 11.3417 26.0285 10.5502C26.0285 9.62855 27.2299 8.94719 28.9879 8.94719C29.193 8.94719 29.4079 8.95724 29.613 8.97728C29.5153 7.85521 29.5153 7.80529 29.5153 7.65502C29.5153 6.74334 29.7985 5.92175 31.3905 4.82974C31.4686 4.76963 31.5175 4.69933 31.5175 4.65926C31.5175 4.57911 31.3905 4.57928 31.3417 4.57928C31.1659 4.57928 30.8827 4.64933 30.4725 4.74951C30.4041 4.75953 30.3552 4.75954 30.2966 4.75954C29.9743 4.75954 29.779 4.54919 29.779 4.29873C29.779 3.93807 30.1696 3.51726 31.5858 3.51726C32.582 3.51726 33.7834 4.10833 33.7834 4.74951C33.7834 5.0701 33.4806 5.34073 33.0899 5.3808C31.996 5.48099 30.6483 6.22216 30.6483 7.68486C30.6483 7.89524 30.6776 8.11583 30.7166 8.36629C30.7557 8.64681 30.8142 8.9372 30.8533 9.22774C31.703 9.49824 33.0216 10.1095 33.0216 10.901C33.0216 11.2917 32.7481 11.6323 32.3965 11.6323C32.2207 11.6323 32.0253 11.5521 31.8398 11.3518C31.5858 11.0913 31.2147 10.8208 30.8045 10.6004C30.5506 11.4419 29.4958 12.2634 28.314 12.2634L28.3042 12.2533ZM28.6851 10.0192C27.8842 10.0192 27.2005 10.2998 27.2005 10.5502C27.2005 10.8007 27.6791 11.0913 28.2065 11.0913C28.8707 11.0913 29.5153 10.6705 29.5934 10.1295C29.2906 10.0594 28.9781 10.0192 28.6851 10.0192Z" fill="var(--fill-0, #040000)"/>
<path id="Vector_4" d="M40.6501 11.7812C37.8275 11.7812 36.3235 10.4389 36.3235 9.6474C36.3235 9.24666 36.6458 8.89602 37.0267 8.89602C37.2318 8.89602 37.4466 9.00607 37.642 9.24652C38.2964 10.058 39.2633 10.3085 40.2302 10.3085C41.0799 10.3085 41.9199 10.1281 42.5449 9.95779C42.6524 9.92773 42.7598 9.91768 42.8574 9.91768C43.336 9.91768 43.5899 10.2485 43.5899 10.6292C43.5899 11.0099 43.3459 11.3704 42.8282 11.5107C42.1445 11.691 41.4022 11.7912 40.6501 11.7912V11.7812ZM41.6464 4.5078C39.7907 4.5078 38.3061 3.7966 37.9545 3.61626C37.6419 3.46599 37.5052 3.16523 37.5052 2.90475C37.5052 2.57414 37.7201 2.26367 38.1205 2.26367C38.2377 2.26367 38.3647 2.29381 38.5112 2.3439C39.4782 2.76467 40.3376 2.98506 41.7929 3.07523C42.2519 3.10528 42.4961 3.43585 42.4961 3.7865C42.4961 4.13715 42.2226 4.51783 41.6366 4.51783L41.6464 4.5078Z" fill="var(--fill-0, #040000)"/>
<path id="Vector_5" d="M49.1288 6.40171C48.5428 6.08112 48.4257 5.62021 48.4257 4.83877C48.4257 4.61836 48.4353 4.3679 48.4549 4.08738C48.4842 3.4462 48.494 2.94522 48.494 2.52444C48.494 1.91332 48.4647 1.50247 48.3963 1.18188C48.3866 1.11175 48.3866 1.06173 48.3866 1.00161C48.3866 0.600876 48.6893 0.390625 49.0117 0.390625C49.8418 0.390625 49.8809 1.20211 49.8809 2.13383C49.8809 2.52455 49.8515 3.01529 49.8027 3.71658C49.7734 4.14738 49.7344 4.49808 49.7344 4.7786C49.7344 5.64019 50.2911 5.7303 50.7013 5.7303C50.9064 5.7303 50.9357 5.62018 51.092 5.56007C51.1604 5.53001 51.2385 5.51996 51.3068 5.51996C51.6584 5.51996 51.9906 5.83045 51.9906 6.19111C51.9906 6.43156 51.8441 6.69202 51.4827 6.92244C51.0236 7.21298 49.9298 7.69398 49.3047 8.04463C48.2694 8.63572 47.8103 9.23678 47.8103 9.74772C47.8103 10.3088 48.4061 10.91 49.8125 10.91C50.0273 10.91 51.1115 10.8998 51.7073 10.459C51.9222 10.3087 52.1566 10.2386 52.3519 10.2386C52.8012 10.2386 53.1234 10.5692 53.1234 10.9499C53.1234 11.8115 51.5315 12.3025 50.1251 12.3025C47.6638 12.3025 46.5602 11.1004 46.5602 9.89814C46.5602 8.8963 47.3122 7.74408 48.9628 6.79232C48.9921 6.7823 49.3145 6.59194 49.4219 6.53183C49.3438 6.52181 49.2265 6.47161 49.1386 6.42152L49.1288 6.40171Z" fill="var(--fill-0, #040000)"/>
<path id="Vector_6" d="M61.1785 8.20518C61.1785 8.44562 61.1785 8.6961 61.1492 8.97662C61.1102 9.53765 60.739 9.82829 60.4167 9.82829C60.1139 9.82829 59.8601 9.60772 59.8601 9.16691V9.04682C59.8991 8.71621 59.9187 8.38566 59.9187 8.11517C59.6355 8.26544 58.3657 8.95669 58.3657 9.83831C58.3657 10.0788 58.4732 10.9003 59.8601 10.9003C60.4851 10.9003 61.1786 10.73 61.579 10.6098C61.706 10.5697 61.8232 10.5496 61.9208 10.5496C62.3701 10.5496 62.6338 10.8701 62.6338 11.2107C62.6338 11.5013 62.5264 12.2126 60.1921 12.2126C57.8578 12.2126 57.1448 11.0104 57.1448 9.98849C57.1448 8.28535 59.0788 7.2235 59.7917 6.8428C59.6257 6.3018 59.3522 6.02122 58.9908 6.02122C58.7759 6.02122 58.5415 6.10136 58.2778 6.27168C57.7016 6.9329 57.3695 7.12335 57.0668 7.12335C56.7444 7.12335 56.4808 6.90291 56.4808 6.59234C56.4808 6.42202 56.5589 6.21157 56.7933 6.02122C57.5258 5.34998 57.8969 4.99946 58.5416 3.89743C58.2974 3.9375 58.0825 3.95735 57.8774 3.95735C56.5002 3.95735 56.4905 3.17602 56.4905 3.06582C56.4905 2.74523 56.7249 2.45458 57.0472 2.45458C57.1937 2.45458 57.3597 2.51487 57.5355 2.63509C57.6625 2.71524 57.8383 2.74516 58.0434 2.74516C58.1509 2.74516 58.5025 2.73524 59.1178 2.59498C59.2447 2.23431 59.2936 1.96372 59.3619 1.49285C59.4205 1.1422 59.6647 1.00195 59.9381 1.00195C60.2897 1.00195 60.6707 1.25252 60.6707 1.61319C60.6707 1.7835 60.6121 2.00393 60.5926 2.13417C61.0028 1.92378 61.0516 1.91355 61.1492 1.91355C61.4715 1.91355 61.7353 2.19417 61.7353 2.52478C61.7353 2.98563 61.3837 3.26624 59.9675 3.61688C59.7624 4.04768 59.4889 4.52846 59.1959 5.00934C59.9479 5.00934 60.5535 5.44019 60.9148 6.32182C62.6338 5.57043 63.8254 5.18961 64.0598 5.18961C64.5482 5.18961 64.8216 5.57029 64.8216 5.92093C64.8216 6.14134 64.6946 6.3718 64.4504 6.46197C64.0304 6.6423 63.5812 6.70238 62.8682 6.92278C62.3017 7.10311 61.7157 7.32365 61.1785 7.55407C61.2078 7.76446 61.2079 7.98479 61.2079 8.22523L61.1785 8.20518Z" fill="var(--fill-0, #040000)"/>
<path id="Vector_7" d="M74.5601 8.82671C74.5894 9.02708 74.5991 9.22731 74.5991 9.4377C74.5991 10.69 74.0228 12.5937 71.6592 12.5937C70.5947 12.5937 70.0283 12.303 70.0283 11.752C70.0283 11.4014 70.2821 11.0909 70.6728 11.0909C70.7412 11.0909 70.8096 11.0909 70.8877 11.121C71.1905 11.2212 71.503 11.2712 71.7862 11.2712C73.3098 11.2712 73.3099 9.39772 73.3099 9.28752C73.3099 9.11721 73.3001 8.96696 73.2708 8.81668L67.4986 8.84677C67.0786 8.84677 66.8736 8.53609 66.8736 8.23553C66.8736 7.93498 67.0885 7.59446 67.4889 7.59446L72.5285 7.62454C72.3625 7.51434 72.1867 7.4041 71.9816 7.33397C71.6984 7.23378 71.5714 7.05349 71.5714 6.87316C71.5714 6.58262 71.8839 6.28198 72.2941 6.28198C72.5969 6.28198 72.8802 6.43228 73.0951 6.56253C73.4467 6.32208 74.1694 5.81122 74.1694 5.6409C74.1694 5.58079 74.1108 5.56068 74.0229 5.56068C73.8764 5.55066 73.6127 5.55065 73.3001 5.55065C72.4309 5.55065 71.1026 5.58077 70.1552 5.62085H70.1259C69.7157 5.62085 69.5106 5.33022 69.5106 5.02967C69.5106 4.72912 69.7157 4.45853 70.1357 4.43849C70.7217 4.40844 71.4542 4.40841 72.1769 4.40841C73.1731 4.40841 74.1694 4.41845 74.7945 4.43849C75.5661 4.44851 75.8981 4.85937 75.8981 5.29016C75.8981 5.97142 75.1754 6.55253 73.9545 7.33397C74.0229 7.43415 74.0912 7.52436 74.1498 7.62454L78.2129 7.58443C78.6133 7.58443 78.8086 7.90491 78.8086 8.2255C78.8086 8.54609 78.6133 8.83674 78.2226 8.83674H74.5699L74.5601 8.82671ZM76.8064 4.35851C76.8064 3.76742 76.5036 3.67706 75.9469 3.65702C74.853 3.647 73.6322 3.62718 72.4504 3.62718C71.4835 3.62718 70.5264 3.63698 69.6864 3.65702C68.9344 3.66704 68.8171 3.86761 68.7781 4.35851V5.16982C68.7781 5.57056 68.4363 5.80111 68.0847 5.80111C67.7721 5.80111 67.44 5.60061 67.4303 5.16982C67.4303 4.98949 67.4205 4.77924 67.4205 4.55883C67.4205 4.31839 67.4303 4.08803 67.4303 3.87764C67.4596 3.21642 67.9577 2.5451 69.0222 2.53508H70.165C70.0966 2.47497 70.038 2.40488 69.9892 2.32473C69.7059 1.83383 69.4032 1.65349 69.032 1.32288C68.9148 1.21268 68.8562 1.08233 68.8562 0.962111C68.8562 0.651539 69.1981 0.36115 69.5497 0.36115C70.0673 0.36115 71.1319 1.42291 71.1319 1.91382C71.1319 2.16428 70.9561 2.40483 70.7412 2.52505C71.9425 2.51503 73.1244 2.51502 74.3257 2.51502C74.7164 2.05417 75.0777 1.24259 75.2926 0.671537C75.4196 0.350946 75.6637 0.220754 75.9079 0.220754C76.2888 0.220754 76.6794 0.511222 76.6794 0.901942C76.6794 1.16242 76.2399 1.85381 75.6832 2.52505C75.9957 2.52505 76.3279 2.53508 76.6404 2.53508C77.4413 2.5451 78.1933 2.996 78.2226 3.85759C78.2324 4.05796 78.2324 4.34849 78.2324 4.60897C78.2324 4.80934 78.2324 4.98969 78.2226 5.12995C78.1933 5.53069 77.8417 5.74094 77.4999 5.74094C77.1581 5.74094 76.8162 5.55051 76.8162 5.15979V4.36854L76.8064 4.35851ZM72.9583 2.44483C72.763 2.44483 72.5872 2.34481 72.4993 2.11438C72.304 1.59342 72.0109 1.29267 71.6983 0.91197C71.6202 0.811785 71.5714 0.701768 71.5714 0.601583C71.5714 0.311048 71.9132 0.0605469 72.2648 0.0605469C72.9582 0.0605469 73.7104 1.43302 73.7104 1.75361C73.7104 2.13431 73.3099 2.45485 72.9583 2.45485V2.44483Z" fill="var(--fill-0, #040000)"/>
<path id="Vector_8" d="M88.5967 6.03176C88.5967 6.03176 88.5869 6.03177 88.5869 6.04179C88.5869 6.05181 88.5967 6.08193 88.5967 6.11198C88.626 6.24222 88.6259 6.37239 88.6259 6.53268C88.6259 8.59649 86.7507 11.9927 83.6547 11.9927C82.385 11.9927 81.2423 11.2813 81.2423 9.19751C81.2423 7.00346 82.2483 5.15022 83.4789 3.11647C83.5082 3.0764 83.5081 3.05629 83.5081 3.04627C83.5081 3.03625 83.5082 3.01619 83.4789 3.01619C83.4692 3.01619 83.4496 3.02622 83.4203 3.02622C83.2054 3.08633 82.7366 3.16637 82.3753 3.16637C81.6818 3.16637 81.4669 2.83581 81.4669 2.46512C81.4669 2.13451 81.7306 1.78394 82.1896 1.78394C82.2287 1.78394 82.2873 1.78395 82.3362 1.79396C82.5022 1.82402 82.6585 1.82405 82.8538 1.82405C83.2445 1.82405 83.684 1.76399 84.1528 1.62373C85.0611 1.34321 84.8755 1.29312 85.403 1.12281C85.5104 1.09275 85.5886 1.08269 85.6862 1.08269C86.0867 1.08269 86.3112 1.39316 86.3112 1.72377C86.3112 2.00428 86.1355 2.31484 85.7839 2.4551C85.0221 2.74563 82.5412 6.18211 82.5412 8.86706C82.5412 10.0993 83.098 10.5601 83.8207 10.5601C85.1588 10.5601 87.3661 8.95704 87.3661 5.92145C87.3661 5.47062 87.3075 5.11014 87.2293 4.85968C87.1707 4.67934 86.9852 4.35875 86.8582 4.10829C86.7801 3.93798 86.7312 3.78774 86.7312 3.64748C86.7312 3.23672 87.0438 2.96605 87.3954 2.96605C87.6982 2.96605 88.0205 3.16658 88.2256 3.63745C88.6846 4.68939 89.5343 5.43066 90.9798 6.04179C91.3314 6.19206 91.4974 6.49261 91.4974 6.78314C91.4974 7.14381 91.224 7.50444 90.7747 7.50444C89.9445 7.50444 88.6944 6.13204 88.6944 6.13204C88.6358 6.06191 88.6163 6.02173 88.5967 6.02173V6.03176ZM89.9835 3.5472C89.8077 3.33681 89.1534 2.83582 88.8799 2.72561C88.6455 2.62543 88.5674 2.47523 88.5674 2.30492C88.5674 2.05445 88.8115 1.78394 89.1436 1.78394C89.3389 1.78394 90.8724 2.41516 90.8724 3.09641C90.8724 3.41701 90.5989 3.72746 90.3255 3.72746C90.2083 3.72746 90.0812 3.66742 89.9835 3.5472ZM91.2239 2.31494C91.0286 2.10456 90.384 1.64368 90.1105 1.53347C89.8663 1.43329 89.7687 1.26305 89.7687 1.11278C89.7687 0.852297 90.0128 0.591797 90.3449 0.591797C90.6477 0.591797 92.103 1.20292 92.103 1.84411C92.103 2.17472 91.8295 2.4551 91.556 2.4551C91.4485 2.4551 91.3216 2.41512 91.2337 2.30492L91.2239 2.31494Z" fill="var(--fill-0, #040000)"/>
<path id="Vector_9" d="M98.1869 3.00631C97.5716 4.72949 96.4191 6.6431 95.4327 8.35626C95.2666 8.6468 95.0126 8.77696 94.7489 8.77696C94.4071 8.77696 94.1044 8.53642 94.1044 8.17575C94.1044 8.03549 94.1434 7.86521 94.2508 7.70491C95.2275 6.18211 95.9992 5.09027 96.6633 3.62757C95.8722 4.01829 95.3643 4.18842 94.9443 4.18842C94.0458 4.18842 94.0458 3.55732 94.0458 3.50723C94.0458 3.17662 94.2802 2.8461 94.6708 2.8461C94.749 2.8461 94.8467 2.85616 94.9443 2.88621C95.0127 2.91627 95.0908 2.91605 95.1787 2.91605C95.6671 2.91605 96.38 2.55542 97.1028 2.19475C97.1418 1.86414 97.1321 1.53371 97.1614 1.12295C97.1712 0.702177 97.4837 0.511719 97.806 0.511719C98.1283 0.511719 98.4311 0.712186 98.4604 1.11292V1.40326C98.519 1.39324 98.5581 1.37341 98.6069 1.37341C98.8901 1.37341 99.1538 1.6237 99.1538 1.94429C99.1538 2.41516 98.5678 2.7859 98.1869 3.00631ZM97.7864 12.2533C96.546 12.2533 95.5108 11.3417 95.5108 10.5502C95.5108 9.62855 96.7121 8.94719 98.4702 8.94719C98.6753 8.94719 98.8901 8.95724 99.0952 8.97728C98.9976 7.85521 98.9975 7.80529 98.9975 7.65502C98.9975 6.74334 99.2808 5.92175 100.873 4.82974C100.951 4.76963 101 4.69933 101 4.65926C101 4.57911 100.873 4.57928 100.824 4.57928C100.648 4.57928 100.365 4.64933 99.9547 4.74951C99.8864 4.75953 99.8375 4.75954 99.7789 4.75954C99.4566 4.75954 99.2612 4.54919 99.2612 4.29873C99.2612 3.93807 99.652 3.51726 101.068 3.51726C102.064 3.51726 103.266 4.10833 103.266 4.74951C103.266 5.0701 102.963 5.34073 102.572 5.3808C101.478 5.48099 100.13 6.22216 100.13 7.68486C100.13 7.89524 100.16 8.11583 100.199 8.36629C100.238 8.64681 100.297 8.9372 100.336 9.22774C101.185 9.49824 102.504 10.1095 102.504 10.901C102.504 11.2917 102.23 11.6323 101.879 11.6323C101.703 11.6323 101.508 11.5521 101.322 11.3518C101.068 11.0913 100.697 10.8208 100.287 10.6004C100.033 11.4419 98.978 12.2634 97.7962 12.2634L97.7864 12.2533ZM98.1673 10.0192C97.3664 10.0192 96.6827 10.2998 96.6827 10.5502C96.6827 10.8007 97.1613 11.0913 97.6888 11.0913C98.3529 11.0913 98.9976 10.6705 99.0757 10.1295C98.7729 10.0594 98.4603 10.0192 98.1673 10.0192Z" fill="var(--fill-0, #040000)"/>
<path id="Vector_10" d="M108.245 5.91007C107.659 6.06034 107.044 6.17056 106.702 6.17056C106.263 6.17056 106.058 5.8601 106.058 5.53951C106.058 5.18886 106.292 4.83827 106.741 4.83827C106.946 4.83827 107.542 4.8382 108.988 4.51761C109.339 3.76622 109.515 3.37562 109.652 2.38379C109.71 2.03314 109.974 1.88287 110.267 1.88287C110.619 1.88287 111 2.1232 111 2.52394C111 2.69426 110.931 3.24521 110.511 4.217H110.619C112.172 4.217 112.211 5.93027 112.211 6.58147C112.211 7.82376 112.152 11.3202 109.632 11.3202C108.861 11.3202 107.845 10.9595 107.845 10.2883C107.845 9.90755 108.167 9.55693 108.558 9.55693C108.655 9.55693 108.753 9.58705 108.841 9.62713C109.124 9.76738 109.388 9.83747 109.603 9.83747C110.492 9.83747 110.902 8.8555 110.902 6.41099C110.902 5.83994 110.824 5.41917 110.384 5.41917C110.316 5.41917 110.238 5.4192 110.14 5.44926C110.081 5.45928 110.003 5.48939 109.925 5.50943C108.9 7.48307 107.474 9.7673 106.604 11.2901C106.438 11.5706 106.165 11.6907 105.901 11.6907C105.55 11.6907 105.208 11.4705 105.208 11.0898C105.208 10.9495 105.247 10.7792 105.374 10.5989C105.97 9.66717 107.386 7.62344 108.353 5.88023L108.245 5.91007ZM115.785 7.83378C115.483 7.04232 114.477 5.97037 113.441 5.60971C113.197 5.52956 113.07 5.32922 113.07 5.13887C113.07 4.84833 113.324 4.52764 113.724 4.52764C114.418 4.52764 117.094 6.26084 117.094 7.54321C117.094 7.99404 116.723 8.28456 116.371 8.28456C116.137 8.28456 115.912 8.14435 115.785 7.83378ZM115.404 4.14705C115.209 3.93666 114.535 3.47579 114.262 3.37561C114.017 3.27542 113.92 3.12498 113.92 2.95467C113.92 2.69419 114.164 2.43369 114.477 2.43369C114.545 2.43369 116.264 2.9346 116.264 3.67597C116.264 3.99656 116 4.2872 115.736 4.2872C115.629 4.2872 115.502 4.24723 115.414 4.13702L115.404 4.14705ZM116.576 2.86466C116.381 2.66429 115.707 2.25333 115.414 2.15314C115.16 2.07299 115.063 1.90275 115.063 1.72241C115.063 1.47195 115.297 1.19141 115.619 1.19141C116.098 1.19141 117.045 1.7925 117.211 1.93276C117.358 2.07302 117.416 2.24354 117.416 2.39382C117.416 2.71441 117.172 3.02486 116.889 3.02486C116.782 3.02486 116.674 2.96485 116.576 2.87469V2.86466Z" fill="var(--fill-0, #040000)"/>
<path id="Vector_11" d="M121.469 12.4439C120.951 12.4439 120.717 12.1334 120.717 11.8128C120.717 11.4923 120.951 11.1818 121.342 11.1517C123.754 10.9513 125.717 9.49866 125.717 8.38661C125.717 7.79552 125.17 7.49483 124.672 7.49483C123.627 7.49483 121.693 9.25809 121.488 9.50855C121.205 9.86921 120.961 9.99944 120.736 9.99944C120.433 9.99944 119.603 9.68883 119.603 7.70518C119.603 7.09405 119.603 7.04414 119.847 5.89202C119.916 5.54137 119.984 5.14047 119.984 4.71969V4.47926C119.984 3.56758 120.394 3.10682 121.332 2.57585C121.654 2.39551 122.055 2.22518 122.055 2.05487C122.055 1.94466 121.908 1.83436 121.537 1.70412C121.185 1.59392 121.029 1.35365 121.029 1.13324C121.029 0.812653 121.332 0.501953 121.762 0.501953C122.25 0.501953 123.959 1.32351 123.959 2.2953C123.959 2.95652 123.451 3.04656 122.777 3.16678C122.563 3.20685 122.318 3.34714 122.123 3.44733C121.264 3.84806 121.117 4.21894 121.117 4.64974C121.117 4.71987 121.127 4.8 121.127 4.89017V5.04035C121.127 5.21066 121.117 5.39106 121.088 5.60144C120.853 7.16432 120.853 7.25433 120.853 7.44469C120.853 7.48476 120.853 8.04589 121.019 8.04589C121.049 8.04589 121.088 8.03583 121.146 8.00578C121.42 7.83546 121.937 7.47492 122.533 7.12427C123.363 6.6534 124.047 6.37289 124.731 6.37289C125.913 6.37289 127.084 7.15412 127.084 8.41645C127.084 9.30809 126.489 10.3903 125.043 11.352C123.666 12.2737 121.527 12.4539 121.478 12.4539L121.469 12.4439Z" fill="var(--fill-0, #040000)"/>
<path id="Vector_12" d="M131.049 12.3127C130.707 11.7918 129.955 11.1506 129.369 10.8501C129.115 10.7098 128.998 10.4994 128.998 10.289C128.998 9.96838 129.242 9.67773 129.643 9.67773C130.121 9.67773 132.299 10.9102 132.299 11.8619C132.299 12.3128 131.928 12.6334 131.567 12.6334C131.372 12.6334 131.186 12.5331 131.049 12.3227V12.3127Z" fill="var(--fill-0, #040000)"/>
<path id="Vector_13" d="M143.634 2.02387C144.591 2.08398 145.265 2.69519 145.294 3.61689C145.323 4.50853 145.333 5.92104 145.333 7.27353C145.333 8.43568 145.323 9.56775 145.304 10.269C145.265 11.5714 144.542 12.1123 143.223 12.1725C142.696 12.2025 142.022 12.2126 141.358 12.2126C138.106 12.2126 137.002 12.1826 136.943 10.2991C136.914 9.45758 136.904 8.27543 136.904 7.07321C136.904 5.871 136.914 4.6286 136.943 3.7069C137.012 2.01378 138.252 2.00381 139.698 2.00381C139.864 1.48285 140 0.88176 140.049 0.521095C140.088 0.210522 140.401 0.0703125 140.733 0.0703125C141.114 0.0703125 141.534 0.280563 141.534 0.681302C141.534 0.921746 141.358 1.39266 141.114 1.98375C142.09 1.98375 143.106 1.98379 143.634 2.02387ZM144.073 6.15159H138.145V7.84466H144.073V6.15159ZM144.063 4.95921C144.063 4.63862 144.054 4.34823 144.034 4.10779C143.995 3.15603 143.692 3.15584 141.192 3.15584C140.391 3.15584 139.61 3.16589 139.18 3.19595C138.213 3.25606 138.174 3.65681 138.174 4.95921H144.073H144.063ZM138.164 9.02677C138.164 9.40747 138.174 9.74809 138.193 10.0186C138.223 10.9403 138.545 10.9703 141.221 10.9703C141.885 10.9703 142.569 10.9602 143.018 10.9302C144.063 10.8701 144.063 10.3292 144.063 9.02677H138.164Z" fill="var(--fill-0, #040000)"/>
<path id="Vector_14" d="M154.06 6.28117C153.347 11.2704 149.499 12.3825 149.059 12.3825C148.649 12.3825 148.375 12.0517 148.375 11.7011C148.375 11.4506 148.522 11.1802 148.893 11.07C151.442 10.2585 152.39 8.40509 152.692 6.28117C152.253 6.28117 151.833 6.2912 151.472 6.2912C151.11 6.2912 150.885 6.01061 150.885 5.72008V5.6401C150.27 6.37144 149.303 7.34319 148.707 7.34319C148.288 7.34319 147.975 6.99258 147.975 6.63191C147.975 6.42153 148.082 6.20102 148.346 6.03071C149.684 5.17914 150.387 4.17717 151.042 2.90483C151.208 2.59425 151.432 2.4741 151.667 2.4741C152.048 2.4741 152.399 2.79465 152.399 3.18537C152.399 3.64622 151.364 5.05902 151.296 5.13917C151.354 5.12915 151.403 5.10909 151.472 5.10909C152.038 5.09907 152.683 5.09906 153.337 5.09906C154.235 5.09906 155.163 5.09907 155.935 5.10909C156.843 5.11911 157.38 5.70021 157.38 6.64194C157.38 9.35695 157.302 12.3324 154.284 12.3324C153.864 12.3324 153.415 12.2623 152.937 12.132C152.624 12.0519 152.477 11.7712 152.477 11.4907C152.477 11.1301 152.722 10.7694 153.132 10.7694C153.2 10.7694 153.269 10.7795 153.337 10.7995C153.747 10.9097 154.099 10.9697 154.402 10.9697C155.359 10.9697 156.033 10.499 156.033 7.04258V6.83223C156.033 6.44151 155.837 6.2912 155.554 6.2912H154.06V6.28117ZM152.282 1.99323H152.253C151.833 1.99323 151.608 1.67273 151.608 1.3321C151.608 0.991475 151.813 0.670728 152.253 0.670728L154.489 0.630859H154.548C155.232 0.630859 155.847 0.851129 156.13 1.49231C156.921 3.18543 157.957 4.53801 159.588 5.58995C159.871 5.77029 159.978 6.01065 159.978 6.26111C159.978 6.68189 159.627 7.0827 159.178 7.0827C158.416 7.0827 156.355 5.07902 155.075 2.34398C154.939 2.02339 154.685 1.91301 154.304 1.91301H154.236L152.282 1.98321V1.99323Z" fill="var(--fill-0, #040000)"/>
<path id="Vector_15" d="M170.531 6.42235C170.531 4.86949 169.349 3.54718 167.366 3.54718H167.337C167.552 3.64736 167.718 3.85784 167.718 4.13836V4.20831C167.718 5.67101 166.311 8.21571 164.817 9.7285C164.475 10.0591 164.123 10.1993 163.791 10.1993C162.824 10.1993 161.955 9.07738 161.955 7.55457C161.955 5.02991 164.377 2.45508 167.444 2.45508C170.198 2.45508 171.917 4.32857 171.917 6.50258C171.917 7.02354 171.82 7.5546 171.615 8.08558C170.413 11.1913 166.712 11.6221 166.516 11.6221C166.038 11.6221 165.745 11.2913 165.745 10.9407C165.745 10.6301 165.979 10.3396 166.497 10.2395C168.978 9.81867 170.531 8.25573 170.531 6.42235ZM166.594 3.61738C164.895 3.96802 163.186 5.8213 163.186 7.48437C163.186 8.53631 163.87 8.6567 163.909 8.6567C163.987 8.6567 164.084 8.62653 164.172 8.54639C164.583 8.16569 166.282 6.10181 166.341 4.21834C166.341 3.93782 166.448 3.72758 166.604 3.61738H166.594Z" fill="var(--fill-0, #040000)"/>
<path id="Vector_16" d="M184.78 6.59272L180.873 6.55261C182.084 8.10547 183.764 9.34765 185.356 10.1892C185.629 10.3295 185.747 10.55 185.747 10.7804C185.747 11.1711 185.395 11.5618 184.956 11.5618C184.33 11.5618 182.016 9.70851 180.394 7.63468C180.404 9.09738 180.433 10.6501 180.433 11.9825C180.433 12.3432 180.092 12.5236 179.74 12.5236C179.418 12.5236 179.076 12.3532 179.076 11.9926L179.135 7.75478C177.689 9.62823 175.238 11.6819 174.544 11.6819C174.134 11.6819 173.841 11.3614 173.841 11.0008C173.841 10.7803 173.958 10.5501 174.261 10.3898C175.872 9.51816 177.425 8.20567 178.607 6.56264L174.876 6.60275H174.866C174.476 6.60275 174.29 6.31212 174.29 6.00155C174.29 5.67094 174.495 5.32036 174.876 5.32036L179.154 5.35044V3.7875H175.941C175.55 3.7875 175.365 3.49687 175.365 3.1863C175.365 2.87572 175.57 2.52517 175.941 2.52517H179.125L179.095 0.721793C179.095 0.321054 179.418 0.130859 179.75 0.130859C180.101 0.130859 180.443 0.331072 180.443 0.721793C180.443 1.36297 180.443 1.95411 180.433 2.52517H183.657C184.028 2.52517 184.204 2.84564 184.204 3.15621C184.204 3.46678 184.028 3.7875 183.657 3.7875H180.404C180.395 4.27841 180.394 4.78941 180.394 5.35044L184.79 5.32036C185.161 5.32036 185.346 5.65088 185.346 5.98149C185.346 6.3121 185.17 6.61278 184.799 6.61278H184.79L184.78 6.59272Z" fill="var(--fill-0, #040000)"/>
<path id="Vector_17" d="M198.59 7.21325L194.615 7.15333C195.963 8.73624 197.594 9.81821 199.215 10.6297C199.498 10.77 199.606 10.9902 199.606 11.2206C199.606 11.6013 199.254 11.972 198.815 11.972C198.131 11.972 195.562 9.97849 194.009 8.10503C194.019 9.43749 194.049 10.7599 194.049 12.1024C194.049 12.4831 193.707 12.6635 193.365 12.6635C193.023 12.6635 192.711 12.4831 192.711 12.1224L192.75 8.20507C191.578 9.66777 190.122 10.9301 188.355 11.9821C188.189 12.0822 188.042 12.1224 187.905 12.1224C187.515 12.1224 187.212 11.8017 187.212 11.451C187.212 11.2407 187.329 11.0004 187.632 10.8501C189.38 9.9384 190.845 8.76606 192.115 7.16311L188.286 7.22328H188.276C187.895 7.22328 187.7 6.94294 187.7 6.6524C187.7 6.36187 187.905 6.04117 188.286 6.04117H192.769L192.759 3.38637H188.901C188.511 3.38637 188.315 3.09575 188.315 2.79519C188.315 2.49464 188.521 2.18396 188.901 2.18396H192.74V0.601206C192.73 0.200467 193.052 0 193.365 0C193.707 0 194.029 0.210486 194.029 0.601206C194.029 1.13219 194.019 1.65298 194.019 2.18396H197.633C198.004 2.18396 198.19 2.49463 198.19 2.78516C198.19 3.0757 197.994 3.38637 197.633 3.38637H194.009C194 4.27801 194 5.15955 194 6.0512H194.508C194.928 5.53024 195.396 4.66873 195.68 3.88729C195.758 3.64685 195.953 3.53655 196.158 3.53655C196.51 3.53655 196.92 3.85707 196.92 4.21774C196.92 4.41811 196.412 5.35992 195.826 6.0512H198.59C198.961 6.04118 199.147 6.34182 199.147 6.64237C199.147 6.94293 198.971 7.23331 198.6 7.23331H198.59V7.21325ZM190.718 5.60041C190.415 5.10951 190.034 4.68866 189.849 4.52837C189.702 4.39813 189.644 4.27801 189.644 4.13776C189.644 3.87728 189.927 3.61678 190.259 3.61678C190.845 3.61678 191.851 4.67855 191.851 5.17947C191.851 5.57019 191.509 5.89099 191.187 5.89099C191.021 5.89099 190.845 5.8108 190.728 5.60041H190.718Z" fill="var(--fill-0, #040000)"/>
<path id="Vector_18" d="M206.823 8.20518C206.823 8.44562 206.823 8.6961 206.794 8.97662C206.755 9.53765 206.383 9.82829 206.061 9.82829C205.758 9.82829 205.504 9.60772 205.504 9.16691V9.04682C205.543 8.71621 205.563 8.38566 205.563 8.11517C205.28 8.26544 204.01 8.95669 204.01 9.83831C204.01 10.0788 204.117 10.9003 205.504 10.9003C206.129 10.9003 206.823 10.73 207.223 10.6098C207.35 10.5697 207.467 10.5496 207.565 10.5496C208.014 10.5496 208.278 10.8701 208.278 11.2107C208.278 11.5013 208.171 12.2126 205.836 12.2126C203.502 12.2126 202.789 11.0104 202.789 9.98849C202.789 8.28535 204.723 7.2235 205.436 6.8428C205.27 6.3018 204.996 6.02122 204.635 6.02122C204.42 6.02122 204.186 6.10136 203.922 6.27168C203.346 6.9329 203.014 7.12335 202.711 7.12335C202.389 7.12335 202.125 6.90291 202.125 6.59234C202.125 6.42202 202.203 6.21157 202.438 6.02122C203.17 5.34998 203.541 4.99946 204.186 3.89743C203.942 3.9375 203.727 3.95735 203.522 3.95735C202.145 3.95735 202.135 3.17602 202.135 3.06582C202.135 2.74523 202.369 2.45458 202.691 2.45458C202.838 2.45458 203.004 2.51487 203.18 2.63509C203.307 2.71524 203.483 2.74516 203.688 2.74516C203.795 2.74516 204.147 2.73524 204.762 2.59498C204.889 2.23431 204.938 1.96372 205.006 1.49285C205.065 1.1422 205.309 1.00195 205.582 1.00195C205.934 1.00195 206.315 1.25252 206.315 1.61319C206.315 1.7835 206.256 2.00393 206.237 2.13417C206.647 1.92378 206.696 1.91355 206.794 1.91355C207.116 1.91355 207.38 2.19417 207.38 2.52478C207.38 2.98563 207.028 3.26624 205.612 3.61688C205.407 4.04768 205.133 4.52846 204.84 5.00934C205.592 5.00934 206.198 5.44019 206.559 6.32182C208.278 5.57043 209.47 5.18961 209.704 5.18961C210.192 5.18961 210.466 5.57029 210.466 5.92093C210.466 6.14134 210.339 6.3718 210.095 6.46197C209.675 6.6423 209.225 6.70238 208.512 6.92278C207.946 7.10311 207.36 7.32365 206.823 7.55407C206.852 7.76446 206.852 7.98479 206.852 8.22523L206.823 8.20518Z" fill="var(--fill-0, #040000)"/>
<path id="Vector_19" d="M213.055 12.5744C212.616 12.5744 212.362 12.2439 212.362 11.9132C212.362 11.6227 212.557 11.3421 212.977 11.282C214.745 11.0315 215.878 10.3303 216.425 9.14814C216.562 8.83756 216.806 8.72719 217.04 8.72719C217.392 8.72719 217.763 9.01789 217.763 9.38857C217.763 9.48875 217.733 9.56869 217.694 9.66887C216.483 12.2937 213.065 12.5744 213.065 12.5744H213.055ZM216.181 8.4667C215.204 8.43665 214.618 7.8657 214.589 7.07424C214.559 6.46312 214.55 5.45116 214.55 4.47937C214.55 3.50758 214.559 2.52577 214.589 1.97475C214.618 1.31353 215.028 0.642424 216.083 0.60235C216.708 0.572295 217.528 0.572266 218.368 0.572266C219.208 0.572266 220.058 0.572295 220.751 0.60235C221.572 0.632406 222.138 1.26359 222.168 1.87472C222.197 2.48584 222.207 3.38744 222.207 4.30914C222.207 5.33102 222.197 6.3629 222.168 7.04416C222.138 7.79554 221.572 8.43665 220.683 8.4667C220.449 8.4667 220.224 8.49679 219.99 8.49679C219.98 9.05782 219.96 9.70918 219.96 10.16C219.96 10.9314 220.126 11.1117 221.298 11.1117C222.343 11.1117 222.998 10.9412 222.998 9.68893C222.998 9.2381 223.31 9.0278 223.642 9.0278C223.877 9.0278 224.365 9.138 224.365 9.77918C224.365 12.1836 222.783 12.364 221.23 12.364C219.853 12.364 218.671 12.2236 218.671 10.6707C218.671 10.29 218.671 9.24816 218.681 8.48676C217.841 8.48676 216.962 8.47671 216.171 8.45668L216.181 8.4667ZM220.957 3.97845H215.79V5.07055H220.957V3.97845ZM220.937 2.9064C220.937 2.69602 220.908 2.50585 220.908 2.34555C220.898 1.98489 220.712 1.7744 220.263 1.74435C219.814 1.73433 219.218 1.71426 218.573 1.71426C217.812 1.71426 217.02 1.72431 216.444 1.74435C216.024 1.75437 215.819 2.06505 215.8 2.35558C215.8 2.50586 215.79 2.68623 215.79 2.89662H220.927L220.937 2.9064ZM215.8 6.15262C215.8 6.36301 215.809 6.54316 215.809 6.71347C215.819 7.1643 216.063 7.31469 216.464 7.32471C217.089 7.35476 217.773 7.36482 218.466 7.36482C219.081 7.36482 219.687 7.35476 220.273 7.32471C220.927 7.29465 220.927 6.78379 220.927 6.15262H215.79H215.8Z" fill="var(--fill-0, #040000)"/>
<path id="Vector_20" d="M230.041 11.3408C229.523 11.3408 229.22 10.9601 229.22 10.5894C229.22 10.2789 229.435 9.97839 229.904 9.90826C232.482 9.52756 235.471 8.13485 235.471 6.2614C235.471 5.2295 234.533 4.49814 233.479 4.49814C232.99 4.49814 232.414 4.63853 231.76 4.87897C230.461 5.33982 228.83 6.34154 227.443 7.00276C227.277 7.08291 227.13 7.11307 226.993 7.11307C226.534 7.11307 226.232 6.75241 226.232 6.37171C226.232 6.09119 226.398 5.81047 226.759 5.66019C228.068 5.12922 230.216 3.99732 231.584 3.6066C232.306 3.39622 232.99 3.25586 233.645 3.25586C235.862 3.25586 236.965 4.9791 236.965 6.3316C236.965 7.3635 236.35 8.35531 235.149 9.31708C233.459 10.6696 230.392 11.3408 230.031 11.3408H230.041Z" fill="var(--fill-0, #040000)"/>
<path id="Vector_21" d="M241.523 2.16369C241.513 2.58447 241.376 3.22564 241.289 3.9069C241.191 4.65828 241.152 5.34961 241.152 5.96073C241.152 7.68391 241.464 8.86612 241.777 9.74775C241.816 9.85795 241.835 9.96822 241.835 10.0684C241.835 10.4992 241.494 10.7797 241.123 10.7797C240.849 10.7797 240.566 10.6294 240.419 10.2386C240.009 9.20674 239.892 7.85432 239.892 6.56194C239.892 5.58013 239.96 4.63825 240.009 3.9069C240.068 3.15551 240.136 2.67482 240.175 2.10377C240.204 1.70303 240.527 1.50256 240.839 1.50256C241.181 1.50256 241.523 1.72311 241.523 2.14388V2.16369ZM245.772 4.89896C244.492 5.14942 243.848 5.25949 243.506 5.25949C243.047 5.25949 242.783 4.90891 242.783 4.5783C242.783 4.26773 243.017 3.96707 243.506 3.96707C244.355 3.96707 244.668 3.95723 245.928 3.64665C245.899 2.85519 245.859 2.26388 245.82 1.91323C245.82 1.87316 245.811 1.83322 245.811 1.80317C245.811 1.37237 246.123 1.17188 246.465 1.17188C246.836 1.17188 247.217 1.41246 247.237 1.81319C247.246 1.96347 247.246 2.13381 247.246 2.3442C247.246 2.62472 247.246 2.9754 247.237 3.37613C247.793 3.24589 248.028 3.22571 248.194 3.22571C248.653 3.22571 248.877 3.5063 248.877 3.79683C248.877 4.11742 248.633 4.45801 248.174 4.5081C247.871 4.54818 247.559 4.58839 247.246 4.6485C247.246 5.11937 247.256 5.64017 247.285 6.24128C247.295 6.39156 247.295 6.5518 247.295 6.69206C247.295 9.44714 246.094 11.4711 243.672 12.6432C243.545 12.7033 243.427 12.7232 243.32 12.7232C242.92 12.7232 242.627 12.3927 242.627 12.042C242.627 11.8216 242.754 11.5911 243.066 11.4508C245.068 10.5892 246.006 8.82601 246.006 6.45163C246.006 6.2713 245.977 5.38983 245.967 4.85885L245.772 4.89896Z" fill="var(--fill-0, #040000)"/>
<path id="Vector_22" d="M253.802 12.002C252.63 12.002 251.351 10.88 251.351 9.82802C251.351 8.97645 252.181 8.36537 253.519 8.36537C254.027 8.36537 254.564 8.4455 255.111 8.6058C255.121 8.29523 255.121 7.99456 255.121 7.73407C255.053 4.94894 254.984 3.73673 254.799 1.75308V1.67285C254.799 1.22202 255.121 1.01172 255.482 1.01172C255.844 1.01172 256.215 1.23206 256.234 1.69291C256.264 2.40422 256.293 3.07553 256.313 3.77683C256.449 3.76681 256.576 3.74673 256.684 3.73671C257.074 3.66658 257.445 3.48636 257.66 3.3461C257.807 3.24592 257.973 3.19568 258.119 3.19568C258.539 3.19568 258.881 3.55633 258.881 3.93703C258.881 4.63833 257.641 4.99915 256.332 5.09933C256.342 5.83068 256.342 6.63216 256.342 7.60395C256.342 7.98465 256.342 8.53563 256.313 9.06661C256.908 9.34713 257.465 9.70784 257.905 10.1186C258.139 10.329 258.217 10.5794 258.217 10.8198C258.217 11.2707 257.905 11.6913 257.504 11.6913C257.309 11.6913 257.113 11.5913 256.918 11.3709C256.664 11.0603 256.342 10.7797 256.019 10.5293C255.639 11.3107 254.789 12.022 253.783 12.022L253.802 12.002ZM253.529 9.47728C252.738 9.47728 252.621 9.76779 252.621 9.94812C252.621 10.2587 253.099 10.7697 253.724 10.7697C254.242 10.7697 254.73 10.4091 254.926 9.818C254.447 9.59759 253.969 9.46725 253.539 9.46725L253.529 9.47728Z" fill="var(--fill-0, #040000)"/>
<path id="Vector_23" d="M262.807 11.9022C262.807 11.6618 262.924 11.4413 263.197 11.321C265.707 10.189 266.518 8.56595 266.518 7.04314C266.518 6.65242 266.391 4.62878 265.346 4.62878C265.033 4.62878 264.682 4.79902 264.272 5.0595C263.568 5.51034 263.178 5.69055 262.846 5.69055C262.328 5.69055 262.045 5.30986 262.045 4.94919C262.045 4.61858 262.279 4.27797 262.777 4.20784C263.119 4.16776 263.353 4.02765 263.705 3.85734C264.262 3.59686 264.858 3.40631 265.434 3.40631C267.836 3.40631 267.885 6.73254 267.885 7.01306C267.885 10.76 264.086 12.6436 263.529 12.6436C263.109 12.6436 262.807 12.2629 262.807 11.9022ZM266.235 2.24425C265.483 2.24425 264.418 2.07409 263.588 1.64329C263.344 1.50303 263.217 1.29258 263.217 1.07217C263.217 0.761599 263.461 0.460938 263.842 0.460938C263.949 0.460938 264.076 0.491071 264.213 0.541164C264.74 0.781607 265.238 0.851795 265.805 0.851795C265.971 0.851795 266.117 0.851785 266.283 0.841767H266.342C266.801 0.841767 267.036 1.15222 267.036 1.47281C267.036 2.04387 266.586 2.25428 266.235 2.25428V2.24425Z" fill="var(--fill-0, #040000)"/>
<path id="Vector_24" d="M271.683 12.6138C270.823 12.6138 270.13 11.9024 270.13 11.0208C270.13 10.1391 270.823 9.42773 271.683 9.42773C272.542 9.42773 273.235 10.1391 273.235 11.0208C273.235 11.9024 272.542 12.6138 271.683 12.6138ZM271.683 9.9788C271.106 9.9788 270.647 10.4397 270.647 11.0308C270.647 11.6219 271.106 12.0928 271.683 12.0928C272.259 12.0928 272.718 11.6219 272.718 11.0308C272.718 10.4397 272.259 9.9788 271.683 9.9788Z" fill="var(--fill-0, #040000)"/>
</g>
</svg>
