<svg preserveAspectRatio="none" width="100%" height="100%" overflow="visible" style="display: block;" viewBox="0 0 88.6359 14.6976" fill="none" xmlns="http://www.w3.org/2000/svg">
<g id="Group">
<path id="Vector" d="M3.58447 13.0335C3.58447 14.1656 3.00812 14.6965 1.76773 14.6965C0.625015 14.6965 0 14.2257 0 13.0335V1.68251C0 0.430201 0.712983 0.0195312 1.83617 0.0195312C2.95935 0.0195312 3.56493 0.510348 3.58447 1.68251V13.0335Z" fill="var(--fill-0, white)"/>
<path id="Vector_2" d="M9.8341 13.0341C9.8341 14.2563 9.20911 14.6971 8.08592 14.6971C7.03111 14.6971 6.3865 14.2563 6.3865 13.0341V5.21962C6.3865 4.0174 7.03105 3.55664 8.15424 3.55664C8.55468 3.55664 8.92582 3.62681 9.25789 3.84722C8.59375 4.19786 8.05659 4.72878 8.05659 5.54028C8.05659 6.65233 8.76952 7.50398 9.8341 7.6242V13.0441V13.0341ZM15.6748 13.0341C15.6748 14.2563 15.0497 14.6971 13.9265 14.6971C12.8033 14.6971 12.227 14.2363 12.227 13.0341V8.12512C12.227 7.53403 12.1782 6.58224 11.4067 6.58224C11.1723 6.58224 10.9768 6.70228 10.6838 6.90265C10.4396 7.07297 10.176 7.19323 9.86343 7.19323C9.05279 7.19323 8.45707 6.38188 8.45707 5.59042C8.45707 4.09767 10.6839 3.55664 11.8266 3.55664C13.3795 3.55664 14.8641 4.21786 15.411 5.8108C15.6747 6.59224 15.6942 7.40367 15.6942 8.24522V13.0341H15.6748Z" fill="var(--fill-0, white)"/>
<path id="Vector_3" d="M19.8864 5.29843C19.8864 6.23014 19.3786 6.70091 18.4507 6.70091C17.5229 6.70091 17.0345 6.24016 17.0345 5.29843C17.0345 4.82756 17.2202 4.31664 17.6304 4.0762C17.8745 3.94596 18.2945 3.90572 18.4703 3.90572C19.3591 3.90572 19.8864 4.3667 19.8864 5.2884V5.29843ZM20.2869 5.29843C20.2869 4.36671 19.7791 3.65539 18.8512 3.53516V2.41298C18.8512 1.19072 19.4958 0.75 20.619 0.75C21.7421 0.75 22.2988 1.29091 22.2988 2.41298V3.90572H22.9728C23.8616 3.90572 24.3889 4.3667 24.3889 5.2884C24.3889 6.2101 23.842 6.69089 22.9728 6.69089H22.2988V11.1292C22.2988 11.7404 22.4844 11.7503 23.09 11.7703C23.8811 11.7904 24.4378 12.2413 24.4378 13.0928C24.4378 14.4453 23.2169 14.6856 22.1621 14.6856C19.8669 14.6856 18.8414 13.8741 18.8414 11.4697V7.07171C19.7693 6.95149 20.2771 6.23014 20.2771 5.29843H20.2869Z" fill="var(--fill-0, white)"/>
<path id="Vector_4" d="M33.6751 9.59755C33.0501 9.59755 32.425 9.79786 32.0051 10.2888H29.0359C29.1824 11.3908 29.7294 11.7414 30.7549 11.7414C31.6144 11.7414 31.8585 11.4909 32.2395 10.7596C32.5227 10.2386 33.0794 9.99819 33.6556 9.99819C34.4662 9.99819 35.4039 10.5091 35.4039 11.4408C35.4039 12.0118 35.1109 12.5629 34.7788 12.9837C33.8217 14.1859 32.3078 14.6968 30.833 14.6968C27.4634 14.6968 25.5003 12.5129 25.5003 9.11668C25.5003 5.95084 27.317 3.56641 30.5303 3.56641C32.1613 3.56641 33.6361 4.18756 34.5933 5.58013C35.1598 6.41166 35.5504 7.44346 35.5504 8.47536C35.5504 9.08649 35.3355 9.57734 34.8569 9.92799C34.476 9.72762 34.0951 9.60757 33.6654 9.60757L33.6751 9.59755ZM31.7316 7.59385C31.8292 7.59385 31.9953 7.61377 31.9953 7.47351C31.9953 6.78224 31.2236 6.34154 30.579 6.34154C29.8074 6.34154 29.2606 6.83245 29.075 7.59385H31.7316Z" fill="var(--fill-0, white)"/>
<path id="Vector_5" d="M40.9442 13.0346C40.9442 14.2068 40.3484 14.6976 39.2252 14.6976C38.0239 14.6976 37.4964 14.1567 37.4964 13.0346V5.22014C37.4964 4.04798 38.102 3.55717 39.2154 3.55717C39.6647 3.55717 40.3092 3.58711 40.6218 3.94778C39.7428 4.36855 38.7564 5.05979 38.7564 6.16182C38.7564 7.26385 39.567 8.42601 40.739 8.42601C40.8073 8.42601 40.8856 8.42599 40.9539 8.40595V13.0246L40.9442 13.0346ZM40.5437 4.4487C41.3836 3.93776 42.3799 3.53711 43.3859 3.53711C44.3918 3.53711 44.9681 4.39879 44.9681 5.3806C44.9681 5.79135 44.8704 6.26215 44.5872 6.56271C44.2453 6.90334 43.6593 6.91328 43.2198 6.9834C42.6924 7.08359 42.1943 7.27401 41.7548 7.55453C41.4227 7.79497 41.1102 8.01534 40.7 8.01534C39.7917 8.01534 39.147 7.03344 39.147 6.17185C39.147 5.31026 39.8893 4.81939 40.5535 4.4487H40.5437Z" fill="var(--fill-0, white)"/>
<path id="Vector_6" d="M50.7385 9.72846C50.7385 11.0008 51.8911 11.7723 53.0338 11.7723C53.3952 11.7723 53.7272 11.6721 54.0397 11.5318C53.5905 13.1248 52.8482 14.6775 51.0023 14.6775C49.9279 14.6775 49.2247 14.0864 48.6777 13.1848C48.2968 12.5636 47.9844 11.8525 47.7499 11.1412L45.9723 5.86146C45.904 5.64106 45.8747 5.40044 45.8747 5.18003C45.8747 4.16817 46.8514 3.53711 47.7597 3.53711C48.5313 3.53711 49.0001 3.97784 49.2443 4.70919L50.7972 9.24759C50.7679 9.39787 50.7483 9.56815 50.7483 9.71843L50.7385 9.72846ZM52.7408 4.71922C52.985 3.97785 53.4538 3.54714 54.2449 3.54714C55.1239 3.54714 56.1298 4.20825 56.1298 5.19006C56.1298 5.4305 56.081 5.65109 56.0029 5.88152L54.5378 10.2093C54.2937 10.9407 53.8737 11.3616 53.0826 11.3616C52.1938 11.3616 51.1488 10.7704 51.1488 9.73848C51.1488 9.49804 51.1976 9.27769 51.2855 9.04727L52.7506 4.71922H52.7408Z" fill="var(--fill-0, white)"/>
<path id="Vector_7" d="M61.3375 1.89338C61.3375 2.90525 60.5171 3.77698 59.5013 3.77698C58.4856 3.77698 57.6651 2.91527 57.6651 1.89338C57.6651 0.871499 58.4856 0 59.5013 0C60.5171 0 61.3375 0.861481 61.3375 1.89338ZM61.2397 5.20956V13.024C61.2397 14.2463 60.6439 14.687 59.5207 14.687C58.3976 14.687 57.7921 14.2663 57.7921 13.024V5.20956C57.7921 4.69861 57.919 4.15774 58.339 3.83715C58.7004 4.05756 59.1009 4.17762 59.5111 4.17762C59.9213 4.17762 60.3315 4.05756 60.7026 3.83715C61.1128 4.15774 61.2495 4.69861 61.2495 5.20956H61.2397Z" fill="var(--fill-0, white)"/>
<path id="Vector_8" d="M71.3848 9.59755C70.7598 9.59755 70.1347 9.79786 69.7148 10.2888H66.7456C66.8921 11.3908 67.4391 11.7414 68.4646 11.7414C69.3241 11.7414 69.5682 11.4909 69.9492 10.7596C70.2324 10.2386 70.7891 9.99819 71.3653 9.99819C72.1759 9.99819 73.1136 10.5091 73.1136 11.4408C73.1136 12.0118 72.8206 12.5629 72.4885 12.9837C71.5314 14.1859 70.0176 14.6968 68.5428 14.6968C65.1732 14.6968 63.21 12.5129 63.21 9.11668C63.21 5.95084 65.0267 3.56641 68.24 3.56641C69.871 3.56641 71.3458 4.18756 72.303 5.58013C72.8695 6.41166 73.2601 7.44346 73.2601 8.47536C73.2601 9.08649 73.0453 9.57734 72.5667 9.92799C72.1858 9.72762 71.8048 9.60757 71.3751 9.60757L71.3848 9.59755ZM69.4413 7.59385C69.5389 7.59385 69.705 7.61377 69.705 7.47351C69.705 6.78224 68.9334 6.34154 68.2888 6.34154C67.5173 6.34154 66.9703 6.83245 66.7847 7.59385H69.4413Z" fill="var(--fill-0, white)"/>
<path id="Vector_9" d="M83.8794 8.96652C83.8501 9.16689 83.811 9.37738 83.811 9.57775C83.811 10.7098 84.7975 11.3912 85.823 11.3912C86.2821 11.3912 86.6825 11.3109 87.0439 11.0204L86.6825 12.2526C86.2821 13.6251 85.9597 14.687 84.3091 14.687C83.7524 14.687 83.1372 14.5168 82.7953 14.066C82.6098 13.8256 82.4632 13.545 82.4144 13.2545L81.4573 8.36556L80.5001 13.1742C80.3048 14.2061 79.4648 14.6971 78.4881 14.6971C77.5993 14.6971 76.7691 14.1762 76.525 13.2745L74.3665 5.76066C74.3177 5.5703 74.2883 5.38991 74.2883 5.19956C74.2883 4.1877 75.1772 3.55664 76.1051 3.55664C76.6032 3.55664 77.1403 3.74685 77.4431 4.16763C77.5896 4.368 77.6385 4.58854 77.6873 4.80895L78.7812 9.66776L79.6504 5.02933C79.836 4.06755 80.5099 3.55664 81.467 3.55664C82.4242 3.55664 83.0981 4.06755 83.2837 5.02933L83.9771 8.6461L83.899 8.96652H83.8794ZM85.237 4.80895C85.3152 4.43827 85.4518 4.09771 85.7839 3.8773C86.0769 3.65689 86.4579 3.55664 86.8192 3.55664C87.7471 3.55664 88.6359 4.17766 88.6359 5.17951C88.6359 5.36986 88.6164 5.57029 88.5578 5.75063L87.3076 10.0987C87.122 10.7399 86.5458 10.9802 85.9402 10.9802C85.3933 10.9802 84.8464 10.78 84.5045 10.3191C84.2213 9.94843 84.192 9.5377 84.2701 9.09688L85.2468 4.79892L85.237 4.80895Z" fill="var(--fill-0, white)"/>
</g>
</svg>
