<svg preserveAspectRatio="none" width="100%" height="100%" overflow="visible" style="display: block;" viewBox="0 0 101.284 32.1895" fill="none" xmlns="http://www.w3.org/2000/svg">
<g id="Group">
<path id="Vector" d="M13.3903 2.06311V2.02299C13.3903 0.951017 14.2303 0.410156 15.0702 0.410156C15.9102 0.410156 16.8185 0.981033 16.8478 1.98288V5.63977C19.016 5.63977 21.1842 5.67967 23.3427 5.70972C25.8528 5.77985 27.3276 7.18261 27.4643 9.14623C27.5327 10.0379 27.5717 10.9394 27.5717 11.7609C27.5717 12.5824 27.5327 13.444 27.4643 14.2655C27.3276 15.9887 25.9309 17.4214 23.4111 17.5215C21.3112 17.5917 18.9769 17.6319 16.6329 17.6319C16.3887 20.0663 15.8613 22.2203 14.8846 24.0837C18.0979 26.0874 22.6004 27.4899 28.5094 27.4899C29.4567 27.4899 29.9744 28.2815 29.9744 29.1431C29.9744 31.0766 27.9526 31.0766 27.3862 31.0766C21.7605 31.0766 16.838 29.3535 13.068 26.7086C9.15152 30.9765 1.96312 31.6176 1.81662 31.6176C0.66413 31.6176 0 30.756 0 29.8944C0 29.1731 0.488306 28.4216 1.61149 28.2814C5.90889 27.6702 8.70222 26.4581 10.4798 24.5946C9.74727 23.9134 9.08315 23.2022 8.48737 22.4408C6.11404 25.0957 5.13731 25.1256 4.9615 25.1256C4.09226 25.1256 3.35001 24.3341 3.35001 23.5126C3.35001 22.9716 3.63323 22.4007 4.36574 21.9699C5.86983 21.0783 6.95398 19.8158 7.51069 18.7839C7.71579 18.3932 8.10642 18.213 8.55569 18.213C9.32727 18.213 10.2356 18.824 10.2356 19.6055V19.7158C10.763 20.5072 11.4272 21.2584 12.189 22.0098C12.7457 20.7575 13.0582 19.2849 13.234 17.6419C10.89 17.6018 8.6534 17.6017 6.7684 17.5316C4.04346 17.4614 2.82261 16.139 2.68588 14.2756C2.64681 13.5242 2.6175 12.5926 2.6175 11.6609C2.6175 10.7292 2.65658 9.75726 2.68588 9.04595C2.82261 7.18252 4.01414 5.78987 7.05162 5.70972C9.07335 5.66965 11.2416 5.63977 13.4098 5.63977L13.3708 2.05308L13.3903 2.06311ZM13.4294 8.65534C11.3002 8.65534 9.30777 8.69524 7.73531 8.72529C6.12378 8.72529 6.05538 9.65719 6.05538 11.6609C6.05538 12.2019 6.05542 12.7728 6.09449 13.2336C6.20192 14.6662 6.58282 14.7065 13.4684 14.7065C13.4684 13.5644 13.4294 11.1199 13.4294 8.65534ZM16.7794 14.7065C23.5185 14.7065 24.0069 14.7063 24.1143 13.2336C24.1534 12.7728 24.1826 12.2319 24.1826 11.6609C24.1826 9.33659 24.1142 8.75535 22.4734 8.72529C20.8619 8.68522 18.8402 8.65534 16.8184 8.65534C16.8184 11.16 16.7794 13.6045 16.7794 14.7065Z" fill="var(--fill-0, #236242)"/>
<path id="Vector_2" d="M54.3333 22.5215C54.4017 23.0224 54.4407 23.5635 54.4407 24.0945C54.4407 27.3204 52.9756 32.1895 46.8909 32.1895C44.166 32.1895 42.701 31.4379 42.701 30.0354C42.701 29.1437 43.3651 28.3523 44.3418 28.3523C44.5176 28.3523 44.6934 28.3524 44.8985 28.4225C45.6701 28.673 46.4709 28.8131 47.2035 28.8131C51.12 28.8131 51.12 24.0145 51.12 23.7239C51.12 23.2931 51.0809 22.9022 51.0125 22.5014L36.2061 22.5716C35.1219 22.5716 34.5945 21.7801 34.5945 20.9987C34.5945 20.2172 35.1512 19.3457 36.167 19.3457L49.0885 19.4159C48.6685 19.1254 48.2192 18.8449 47.6918 18.6645C46.9593 18.4141 46.6467 17.943 46.6467 17.4822C46.6467 16.7308 47.4476 15.9794 48.5025 15.9794C49.274 15.9794 50.0065 16.3703 50.5633 16.701C51.4716 16.0898 53.3273 14.7673 53.3273 14.3365C53.3273 14.1962 53.1905 14.1261 52.9464 14.1261C52.5655 14.0861 51.9013 14.086 51.0907 14.086C48.8541 14.086 45.465 14.1561 43.0233 14.2663H42.9549C41.9099 14.2663 41.3825 13.5149 41.3825 12.7635C41.3825 12.0121 41.9098 11.2908 42.994 11.2608C44.4981 11.1906 46.3831 11.1908 48.229 11.1908C50.7782 11.1908 53.3273 11.2307 54.9388 11.2608C56.9313 11.3008 57.7712 12.3329 57.7712 13.445C57.7712 15.1982 55.9155 16.6709 52.7803 18.6746C52.9561 18.925 53.1319 19.1755 53.2687 19.426L63.6801 19.3156C64.6958 19.3156 65.2135 20.1373 65.2135 20.9688C65.2135 21.8004 64.7252 22.5416 63.7094 22.5416L54.3528 22.5014L54.3333 22.5215ZM60.0957 11.0504C60.0957 9.54763 59.3241 9.29713 57.8981 9.25706C55.1048 9.21698 51.9599 9.1871 48.9224 9.1871C46.4417 9.1871 43.9999 9.227 41.8317 9.25706C39.9076 9.29713 39.5951 9.79809 39.4877 11.0504V13.1644C39.4877 14.1663 38.6185 14.7371 37.7101 14.7371C36.9093 14.7371 36.0693 14.2363 36.0302 13.1243C36.0302 12.6634 35.9912 12.1224 35.9912 11.5513C35.9912 10.9402 36.0302 10.3291 36.0302 9.79809C36.0986 8.11499 37.3976 6.39188 40.1225 6.36183L43.0526 6.32171C42.8768 6.21151 42.7401 6.03118 42.6033 5.82079C41.8708 4.56848 41.0992 4.09754 40.1616 3.23595C39.8491 2.94541 39.7123 2.62489 39.7123 2.3043C39.7123 1.51284 40.5816 0.761414 41.4899 0.761414C42.8182 0.761414 45.5431 3.48641 45.5431 4.73872C45.5431 5.3799 45.0938 5.99109 44.5274 6.31169C47.6039 6.27161 50.6414 6.27157 53.718 6.27157C54.7337 5.08939 55.642 3.0156 56.1987 1.54288C56.5113 0.721369 57.1461 0.400886 57.7712 0.400886C58.7479 0.400886 59.7636 1.15227 59.7636 2.15412C59.7636 2.83537 58.6502 4.58851 57.2145 6.31169C58.0153 6.31169 58.8553 6.3518 59.6562 6.3518C61.717 6.39187 63.6411 7.53388 63.7094 9.75798C63.7485 10.2589 63.7485 11.0105 63.7485 11.6917C63.7485 12.1926 63.7485 12.6633 63.7094 13.014C63.6411 14.0559 62.7327 14.587 61.8537 14.587C60.9747 14.587 60.1055 14.086 60.1055 13.0842V11.0404L60.0957 11.0504ZM50.2117 6.14145C49.7233 6.14145 49.2643 5.89088 49.0201 5.27975C48.5318 3.95732 47.7602 3.16578 46.9593 2.19399C46.7542 1.94352 46.6467 1.65319 46.6467 1.40273C46.6467 0.651347 47.516 0 48.4243 0C50.2019 0 52.126 3.51656 52.126 4.33808C52.126 5.30987 51.1102 6.13142 50.2019 6.13142L50.2117 6.14145Z" fill="var(--fill-0, #236242)"/>
<path id="Vector_3" d="M79.1331 30.4761C79.1331 31.4779 78.2931 31.9788 77.4239 31.9788C76.5546 31.9788 75.7147 31.4779 75.7147 30.4761V30.436L75.8514 19.0448C74.6599 20.9784 73.2632 22.7718 72.0131 24.1744C71.5931 24.6052 71.1438 24.8155 70.6848 24.8155C69.7472 24.8155 68.9072 23.994 68.9072 23.1325C68.9072 22.7017 69.083 22.311 69.503 21.9102C71.388 20.1871 74.2203 16.6806 75.9002 13.3845L75.8612 12.6331L71.7787 12.7432H71.7396C70.6945 12.7432 70.2062 11.992 70.2062 11.2005C70.2062 10.4091 70.7336 9.62758 71.7787 9.62758H75.8319L75.7635 6.081C75.0994 6.1912 72.7553 6.62203 72.3744 6.62203C71.3294 6.62203 70.7727 5.80041 70.7727 5.00895C70.7727 4.29764 71.2219 3.57627 72.1693 3.46607C75.451 3.14548 77.8243 2.57456 80.8325 1.35231C81.0376 1.28218 81.2134 1.242 81.3892 1.242C82.2975 1.242 82.9617 2.03359 82.9617 2.88516C82.9617 4.13747 81.6334 4.60827 79.1233 5.31958C79.0842 6.07097 79.0843 7.68398 79.055 9.61755H82.6198C83.6649 9.61755 84.1923 10.4091 84.1923 11.1905C84.1923 11.972 83.6649 12.7332 82.6589 12.7332H82.6198L78.9866 12.6632V14.4164C79.1233 14.3764 79.2307 14.3763 79.3382 14.3763C80.6274 14.3763 83.4988 16.9611 83.6649 17.1715C84.0165 17.5622 84.1532 17.9629 84.1532 18.3937C84.1532 19.2854 83.4207 20.1169 82.6198 20.1169C82.2389 20.1169 81.8482 19.9364 81.5064 19.5057C80.9106 18.7142 79.8656 17.8227 78.9866 17.1815C79.0257 22.5915 79.1624 30.436 79.1624 30.436V30.4761H79.1331ZM92.6504 22.341L84.2997 24.7453C84.0946 24.8154 83.9188 24.8155 83.743 24.8155C82.7956 24.8155 82.278 24.0641 82.278 23.2726C82.278 22.6314 82.6589 21.9802 83.4695 21.7297L92.6601 19.0749L92.5918 2.09366C92.5918 1.05174 93.3926 0.550781 94.2326 0.550781C95.0725 0.550781 95.9418 1.09182 95.9418 2.09366L95.8734 18.1834L99.2918 17.1815C99.4676 17.1415 99.6434 17.1113 99.7801 17.1113C100.688 17.1113 101.284 17.9327 101.284 18.7242C101.284 19.3353 100.933 19.9466 100.171 20.157L95.8734 21.3792L95.9418 30.5861C95.9418 31.5179 95.1018 31.9889 94.2619 31.9889C93.4219 31.9889 92.582 31.5279 92.582 30.5861L92.6504 22.341ZM88.0404 16.891C87.0246 15.819 85.5987 14.8472 84.8271 14.3462C84.3388 14.0557 84.1239 13.6348 84.1239 13.2341C84.1239 12.5228 84.8272 11.8015 85.8331 11.8015C87.054 11.8015 89.5738 13.6649 90.1989 14.3061C90.6189 14.7369 90.7946 15.1979 90.7946 15.6687C90.7946 16.6405 90.0622 17.4621 89.1929 17.4621C88.812 17.4621 88.4213 17.2817 88.0404 16.891ZM88.3139 9.29689C87.4446 8.11471 86.1163 6.9727 85.3057 6.39163C84.9248 6.10109 84.749 5.78033 84.749 5.45973C84.749 4.70835 85.589 3.95696 86.4973 3.95696C87.4056 3.95696 91.1463 6.39167 91.1463 8.18497C91.1463 9.18682 90.3747 10.0082 89.5347 10.0082C89.1148 10.0082 88.6948 9.7978 88.3139 9.28686V9.29689Z" fill="var(--fill-0, #236242)"/>
</g>
</svg>
