<svg preserveAspectRatio="none" width="100%" height="100%" overflow="visible" style="display: block;" viewBox="0 0 91 84" fill="none" xmlns="http://www.w3.org/2000/svg">
<g id="Group 11114 1" clip-path="url(#clip0_2738_16395)">
<path id="Vector" d="M18.0703 19.8465C18.0703 19.8465 23.2565 19.3156 22.0845 32.4799L23.8425 33.9826L22.3286 36.4471C22.3286 36.4471 21.6059 59.1891 30.318 71.0008H32.6521C32.6521 71.0008 33.1992 78.9155 40.4559 78.7952C40.4559 78.7952 51.3751 79.1759 50.9845 71.5118C50.5938 63.8376 45.3002 60.9122 45.3002 60.9122L67.6076 49.7116C67.6076 49.7116 62.9781 43.1395 61.4838 41.4764L59.55 41.5364L53.0648 51.6752L52.0979 52.7773C51.7951 53.1279 50.7892 53.4885 50.3399 53.4384L48.9139 53.2281C47.8689 53.1079 47.2047 51.6751 47.3219 50.6031L47.8298 48.9702L55.0671 34.1729L57.4599 19.8565L58.9347 17.412C58.9347 17.412 55.5847 4.01732 53.27 4.35795C50.9553 4.69858 18.588 17.6023 18.588 17.6023L18.0801 19.8665L18.0703 19.8465Z" fill="var(--fill-0, #F4C058)"/>
<path id="Vector_2" d="M87.2874 19.2359C87.0139 19.1959 86.76 19.0454 86.594 18.825C86.428 18.5946 86.3497 18.314 86.3888 18.0335C86.4181 17.8131 86.4963 17.6229 86.6038 17.4626C86.8284 17.112 87.1506 16.9316 87.512 16.9316C87.5511 16.9316 87.5999 16.9316 87.639 16.9316C87.9125 16.9617 88.1664 17.1119 88.3324 17.3323C88.5082 17.5527 88.5767 17.8332 88.5474 18.1238C88.5181 18.3342 88.4496 18.5346 88.3324 18.6949C88.1566 18.9754 87.9223 19.1458 87.6683 19.2159C87.5804 19.2359 87.5023 19.2457 87.4144 19.2457C87.3655 19.2457 87.3167 19.246 87.2678 19.2359H87.2874Z" fill="var(--fill-0, #236242)"/>
<path id="Vector_3" d="M87.3958 51.4853C87.1321 51.4853 86.8684 51.385 86.6828 51.1947C86.4777 50.9943 86.3606 50.7338 86.3606 50.4433C86.3606 50.1528 86.4582 49.8822 86.6437 49.6718C86.8 49.5015 86.9075 49.3011 86.9661 49.0807C86.9661 49.0807 87.0051 49.0307 87.0246 48.9806C87.1711 48.7202 87.425 48.2992 87.2297 47.8083L87.0735 47.4077L86.5852 47.2274C86.4973 47.2074 86.4191 47.1973 86.3312 47.1973C86.048 47.1973 85.3839 47.3575 85.3546 47.3575C85.2764 47.3776 85.1983 47.3876 85.1202 47.3876C84.6318 47.3876 84.2118 47.0469 84.1044 46.556C84.036 46.2655 84.0849 45.9751 84.2411 45.7347C84.3876 45.4942 84.6123 45.334 84.8858 45.2738C85.1495 45.2137 85.4033 45.1836 85.6573 45.1836C85.9698 45.1836 86.2824 45.2236 86.5852 45.3137C88.4213 45.8347 89.4957 47.7884 88.9878 49.6718C88.8413 50.2229 88.5581 50.7338 88.1772 51.1445C88.0404 51.2948 87.8646 51.395 87.6693 51.4451C87.5912 51.4652 87.5032 51.4752 87.4153 51.4752L87.3958 51.4853Z" fill="var(--fill-0, #236242)"/>
<path id="Vector_4" d="M39.6365 83.7746C37.2046 83.7746 35.0559 82.9029 33.4346 81.2399C33.2197 81.0195 33.0342 80.8391 32.8682 80.6788C31.7352 79.5968 31.4129 78.9958 31.6473 77.3027L31.8328 75.9701L30.573 76.3309C30.4851 76.361 30.3972 76.3708 30.3093 76.3708C30.0065 76.3708 29.7134 76.2306 29.5083 75.9701C27.0178 72.8344 25.3281 68.4963 23.9998 64.6693C22.232 59.5298 21.2944 54.16 21.4409 49.9422C21.5288 47.3975 21.607 44.3919 21.5094 41.4164C21.5094 41.3463 21.5094 41.2762 21.5191 41.2161L21.5387 41.0557L21.4996 40.8955C21.4019 40.4747 21.5582 40.0338 21.9001 39.7833L23.0037 38.962L21.7925 38.3006C21.48 38.1303 21.2749 37.8199 21.2456 37.4592C21.2066 37.0885 21.1675 36.7278 21.1284 36.3671L20.9819 35.0346C20.7768 33.101 20.5522 31.0973 20.0248 29.2739L18.3547 29.4645C18.1008 33.1112 16.245 36.0465 13.5103 37.1185C13.2466 37.2187 12.9829 37.3088 12.7192 37.3689C12.182 37.5092 11.6253 37.5693 11.0686 37.5693C10.3849 37.5693 9.69145 37.4693 8.998 37.2689C8.44129 37.1086 8.119 36.5074 8.27527 35.9464C8.40224 35.4856 8.81247 35.1649 9.28128 35.1649C9.37895 35.1649 9.47665 35.175 9.56456 35.205C10.0724 35.3553 10.5704 35.4254 11.0588 35.4254C11.6448 35.4254 12.2114 35.3152 12.7486 35.1048C15.9325 33.8525 17.212 29.0436 15.5516 24.6054C14.1843 20.9587 11.2053 18.4141 8.29482 18.4141C7.70881 18.4141 7.14236 18.5243 6.61496 18.7247C5.46247 19.1755 4.52483 20.0871 3.89975 21.3695L3.3723 22.4315L2.48361 22.0406C1.90736 21.7601 1.69244 21.119 1.93661 20.588C2.79609 18.7346 4.1537 17.4023 5.86289 16.731C6.6247 16.4305 7.43531 16.28 8.26549 16.28C8.7636 16.28 9.27151 16.3303 9.76962 16.4405L10.2482 16.5405L10.5802 16.1699C10.6974 16.0397 10.844 15.9395 11.0198 15.8794L46.0045 3.82712C46.1022 3.79707 46.1999 3.77697 46.3073 3.76696L46.9227 3.7469L47.0984 3.14594C47.1277 3.04575 47.1668 2.95558 47.2058 2.88545C48.0653 1.45281 49.2667 0.511099 50.6633 0.160452C51.0735 0.0602674 51.4935 0 51.9135 0C53.5934 0 55.3221 0.841679 56.7774 2.38452L57.2168 2.84533L57.7834 2.54473C57.9982 2.44455 58.1544 2.39451 58.3009 2.35444C58.5451 2.29433 58.7893 2.26418 59.0432 2.26418C60.9575 2.26418 62.7351 4.03752 63.3504 6.59223C64.0439 9.47755 62.95 12.1824 60.8502 12.7334L60.2934 12.8839L60.2153 13.475C60.0297 14.9578 59.5804 16.3102 58.9162 17.3922L58.7014 17.7527L58.8381 18.1536C59.1897 19.1655 59.4632 20.2374 59.6683 21.3394L60.0492 23.4534L61.2212 21.6701C66.2804 13.9158 73.9669 9.64782 79.5829 6.54209C82.9329 4.67866 85.8239 3.0757 87.4452 1.28239C87.4843 1.25234 87.5136 1.21241 87.5429 1.18236L87.6698 1.0921L87.787 1.03193C87.787 1.03193 87.8554 1.00184 87.8944 0.991819L88.041 0.961734H88.1679L88.2949 0.95195L88.4414 0.971762L88.5683 1.01188L88.7051 1.07204L88.8125 1.14224L88.9394 1.25231L89.047 1.37265L89.1446 1.53286C89.1837 1.62302 89.2032 1.66303 89.2227 1.71312C89.8966 3.89715 90.6877 9.90838 89.4376 13.8857C89.3008 14.3265 88.9005 14.6271 88.4414 14.6271C88.334 14.6271 88.2265 14.607 88.1191 14.5769C87.5721 14.3966 87.2694 13.7856 87.4452 13.2246C87.6112 12.7036 87.7382 12.1125 87.8261 11.4613L86.2439 10.8802C83.685 15.2582 79.661 19.6063 75.7055 23.6537L73.5275 25.8778L76.5063 25.1264C79.7098 24.3149 82.298 23.0827 84.1928 21.4597C84.437 21.2493 84.691 21.2093 84.8668 21.2093C85.1793 21.2093 85.4722 21.3494 85.6676 21.5899C86.0387 22.0407 85.9801 22.722 85.5406 23.1027C85.355 23.2629 85.1597 23.4132 84.9644 23.5735L83.5189 24.6957L85.2867 25.1264C85.3746 25.1464 85.4527 25.1766 85.5211 25.2167C85.775 25.3469 85.9508 25.5772 86.0387 25.8477C86.1266 26.1182 86.0974 26.4088 85.9704 26.6693C85.609 27.3806 82.3078 33.7222 78.1472 36.0665L78.0495 36.1166L77.9713 36.1969C76.5161 37.6095 71.33 42.3081 65.8508 43.7007C64.8546 43.9512 63.8974 44.0813 62.9988 44.0813C61.485 44.0813 60.0981 43.7208 58.8772 42.9994L58.2326 42.6186L57.7443 43.2098C54.3161 47.8183 51.8842 52.1962 50.3019 56.5943C50.1847 56.9249 49.9113 57.1756 49.5694 57.2657C49.4815 57.2858 49.4034 57.2958 49.3155 57.2958C49.1983 57.2958 49.0713 57.2757 48.9541 57.2256C48.6904 57.1254 48.4853 56.925 48.3681 56.6645C48.2509 56.4041 48.2411 56.1134 48.3388 55.843C50.0675 51.0241 52.7632 46.2454 56.5723 41.2362L56.875 40.8353L56.6895 40.3645C55.4393 37.2487 56.1034 32.3999 58.5549 26.7194L58.8088 26.1283L58.3302 25.7076C58.1154 25.5172 57.9884 25.2467 57.9689 24.9461C57.8419 21.8705 57.1875 19.1856 55.9764 16.731C55.7908 16.3503 55.5955 15.9293 55.4002 15.4885C53.9547 12.3127 52.558 9.68802 50.1359 9.678H49.4229L49.2959 10.3993C49.2276 10.78 48.9639 11.0906 48.6123 11.2209L20.933 21.2394C20.7572 21.2894 20.6693 21.2993 20.5814 21.2993C20.1419 21.2993 19.7415 21.0088 19.595 20.588C19.3996 20.027 19.6927 19.416 20.2299 19.2156L47.9091 9.19713C47.997 9.16708 48.0751 9.14698 48.1727 9.13696L48.8271 9.08682L48.9443 8.41566C48.9639 8.31548 48.9932 8.21524 49.042 8.11506L49.2081 7.78437L49.0909 7.43387C48.9834 7.10326 49.0323 6.75241 49.2276 6.47189C49.6574 5.85075 50.2238 5.44004 50.8684 5.26973C51.0832 5.21963 51.2884 5.18974 51.5032 5.18974C53.3882 5.18974 55.1951 7.22344 55.8983 10.1388C55.9862 10.5195 56.0545 10.8901 56.1034 11.2708C56.1131 11.391 56.1035 11.5214 56.0839 11.6416L56.0057 11.9723L56.1718 12.2726C56.3183 12.5431 56.455 12.8137 56.5819 13.0742L57.9493 15.8693L58.1935 12.7535C58.2912 11.5112 58.1838 10.1889 57.881 8.92661C56.9532 5.07952 54.3747 2.17417 51.8939 2.17417C51.6498 2.17417 51.4154 2.20407 51.1908 2.26418C50.1066 2.5447 49.4033 3.37625 49.0127 4.03747C48.8271 4.33803 48.5048 4.52838 48.1629 4.5384L47.5476 4.55845L47.3719 5.15966C47.2742 5.50029 47.03 5.76073 46.6979 5.87093L12.7582 17.5624L13.9303 18.5643C15.0535 19.536 16.0107 20.7383 16.7627 22.1309L17.0459 22.6519L17.6222 22.5716C17.6222 22.5716 17.7198 22.5716 17.7686 22.5716C17.9346 22.5716 18.1788 22.6117 18.4132 22.792C22.1149 25.7575 22.6618 30.7667 23.0916 34.7941L23.2673 36.3972L29.4498 36.2671C29.9577 36.2671 30.3776 36.6075 30.485 37.0984C30.5925 37.5893 30.3483 38.1002 29.9088 38.3106L23.6093 41.3162V41.8873C23.6972 44.7926 23.619 47.628 23.5408 50.0224C23.4041 53.9797 24.2929 59.059 25.9825 63.948C27.0373 66.9936 28.3559 70.4901 30.1628 73.2652L30.6218 73.9665L31.325 73.5157C32.2821 72.9045 33.5812 72.0028 34.7239 71.1612C34.8997 71.031 35.1146 70.9609 35.3294 70.9609C35.6029 70.9609 35.8568 71.0611 36.0522 71.2515C36.4136 71.6021 36.4818 72.173 36.2181 72.6038C35.3098 74.0665 33.9522 76.4812 33.7764 77.3027C33.7081 77.7134 33.6886 77.9339 33.6788 78.0641L33.6592 78.4447L33.923 78.7152C34.0109 78.8054 34.1476 78.9357 34.2648 79.0459C34.4796 79.2563 34.6946 79.4465 34.929 79.687C36.4721 81.2599 38.3473 81.5906 39.6561 81.5906C42.1564 81.5706 44.8618 80.3783 46.6101 78.545C47.87 77.2225 48.6416 75.0584 48.6025 72.8944L48.5536 69.8189L47.0105 72.4537C46.4148 73.4856 45.4576 74.2069 44.3344 74.4874C43.9926 74.5776 43.6409 74.6176 43.2893 74.6176C41.2871 74.6176 39.5487 73.2251 39.0701 71.2314C38.7869 70.0793 38.9724 68.877 39.5682 67.8551C40.164 66.8332 41.1211 66.1119 42.2443 65.8313C42.5862 65.7412 42.9377 65.7012 43.2893 65.7012C43.5139 65.7012 43.7386 65.7213 43.9535 65.7514L44.5004 65.8414L44.8032 65.3605C44.9107 65.1902 45.0571 65.0601 45.2329 64.9699L66.8079 54.6408L65.0303 53.8693C62.3151 52.6972 60.1468 50.4232 58.7795 47.2774C58.6623 47.0169 58.6526 46.7263 58.76 46.4558C58.8675 46.1853 59.053 45.9748 59.3069 45.8546C59.4437 45.7945 59.5902 45.7646 59.7367 45.7646C60.1469 45.7646 60.5278 46.0149 60.6939 46.3956C62.3835 50.2527 65.5284 52.5569 69.1031 52.5569C69.8356 52.5569 70.5973 52.4569 71.3592 52.2766C71.4373 52.2565 71.5154 52.2465 71.6033 52.2465H71.789L81.2627 47.7081C81.3995 47.6379 81.5558 47.6078 81.7023 47.6078C82.1028 47.6078 82.4836 47.8484 82.6497 48.2291L82.806 48.5595L83.1869 48.7902C83.4994 48.9004 83.7337 49.1507 83.8314 49.4613C84.6225 51.9158 84.857 54.6709 84.5054 57.2256C84.4468 57.6564 84.1342 58.007 83.724 58.1172C83.6459 58.1372 83.5579 58.1472 83.47 58.1472C83.4212 58.1472 83.3725 58.1472 83.3139 58.1372C82.7474 58.0571 82.3469 57.5061 82.425 56.925C82.6985 54.9213 82.5715 52.8174 82.0344 50.8337L81.7609 49.8319L47.87 66.062L48.6221 66.9435C49.6476 68.1457 50.3313 69.7186 50.5852 71.4819C50.8196 73.1349 50.6828 74.848 50.175 76.441L49.462 78.6851L51.4349 77.4729C53.1051 76.441 54.7653 75.2789 56.2304 74.247L56.7382 73.8862C59.8636 71.7022 64.0048 69.6684 69.064 67.8451L69.1616 67.8052L69.2496 67.745C69.357 67.6749 69.484 67.6148 69.6403 67.5648C69.7477 67.5247 69.8551 67.5046 69.9626 67.5046C70.4118 67.5046 70.8123 67.8051 70.9588 68.2459C71.0955 68.6868 70.9588 69.1676 70.5877 69.4381C70.4119 69.5884 70.2458 69.6786 70.0504 69.7487C65.0401 71.532 60.9575 73.5155 57.9298 75.6395L57.422 75.9902C53.6325 78.6451 49.3447 81.6606 44.5102 82.8928C44.432 82.9129 44.3441 82.9229 44.266 82.9229C44.2074 82.9229 44.1489 82.9229 44.0805 82.9029L43.8559 82.8627L43.6409 82.943C43.1916 83.1133 42.7521 83.2535 42.3224 83.3637C41.4532 83.5841 40.5741 83.7044 39.7342 83.7044H39.6659L39.6365 83.7746ZM43.2699 67.8952C43.0843 67.8952 42.9085 67.9153 42.7327 67.9654C42.1466 68.1157 41.6583 68.4864 41.3457 69.0174C41.0332 69.5484 40.9453 70.1695 41.0918 70.7706C41.3457 71.8025 42.2443 72.5239 43.2795 72.5239C43.4651 72.5239 43.641 72.5037 43.8168 72.4537C45.0278 72.1431 45.7604 70.8907 45.4674 69.6484C45.2135 68.6165 44.3148 67.8952 43.2795 67.8952H43.2699ZM62.2272 37.6294C61.5338 38.4209 60.8501 39.2323 60.1762 40.0438L59.4241 40.9556L60.4887 41.4164C61.2603 41.7471 62.1198 41.9174 63.0379 41.9174C64.8839 41.9174 67.0325 41.2562 69.4156 39.9337L68.9761 38.2805C68.7124 38.2906 68.4486 38.3006 68.1849 38.3006C66.3195 38.3006 64.6396 38.0001 63.1746 37.389L62.6179 37.1586L62.2174 37.6194L62.2272 37.6294ZM66.9055 17.9132C64.2294 20.6181 62.1882 23.5636 60.6743 26.9198C59.053 30.5264 58.1154 34.1229 58.1056 36.7878V39.1322L59.6098 37.3589C62.6863 33.7423 65.9777 30.3761 69.152 27.1201L69.8258 26.4289L69.6793 25.9279C68.9956 23.6237 68.5171 20.9087 68.3706 18.4742L68.2534 16.5505L66.9153 17.9031L66.9055 17.9132ZM70.949 28.4325C69.0836 30.316 67.0813 32.3398 65.1279 34.4436L64.0634 35.5856L65.5773 35.9063C66.3782 36.0766 67.2669 36.1668 68.1947 36.1668C71.828 36.1668 75.5199 34.8844 77.1216 34.123C77.1704 34.1029 77.2095 34.0828 77.2584 34.0728L77.3658 34.0427L77.4634 33.9828C78.5085 33.3216 79.6317 32.2494 80.7939 30.7968L82.2492 28.9736L79.9931 29.3742C79.2704 29.5045 78.5281 29.5645 77.7858 29.5645C75.1292 29.5645 72.9708 28.753 71.9257 28.2621L71.3885 28.0116L70.9686 28.4325H70.949ZM73.2051 12.8137C72.3749 13.3747 71.5643 13.9658 70.7829 14.5569L70.4509 14.8174V15.2481C70.4118 16.9412 70.4509 20.2273 71.1932 23.323L71.5448 24.8258L72.6191 23.744C73.8009 22.5418 74.9632 21.3696 76.0668 20.2074L76.643 19.6062L76.0766 18.995C75.9887 18.8948 75.9204 18.7848 75.8618 18.6645C75.6078 18.0434 74.7777 15.8093 74.5237 13.465L74.3674 12.0422L73.1953 12.8337L73.2051 12.8137ZM84.4956 6.18156C83.2943 6.91291 81.9758 7.64425 80.5693 8.42569C79.4461 9.04684 78.2644 9.70803 77.0728 10.3993L76.7602 10.5796L76.6724 10.9403C76.3012 12.4131 76.8287 14.9476 77.444 16.8311L77.903 18.2536L78.8895 17.1417C82.2395 13.3547 84.4077 10.2289 85.7067 7.29348L86.8397 4.74875L84.4956 6.18156ZM59.5218 7.0731L59.639 7.4439L61.2798 6.93295C61.231 6.77265 61.1821 6.61239 61.1235 6.46211L59.5218 7.06307V7.0731ZM6.00942 34.1932C5.72618 34.1932 5.45269 34.0729 5.25735 33.8625L4.94475 33.5318L4.49551 33.602C4.33924 33.632 4.183 33.6421 4.0365 33.6421C2.30777 33.6421 0.715707 32.0792 0.178532 29.835C-0.241442 28.0818 0.0906542 26.3285 1.05757 25.2666L1.2432 25.0562L1.27253 24.7757C1.32136 24.395 1.55567 24.0645 1.90728 23.9142L2.88396 23.4935L6.97632 21.7403C7.07399 21.7002 7.1716 21.6701 7.27903 21.6601C7.406 21.65 7.54276 21.64 7.66973 21.64C9.53519 21.64 11.3812 22.9525 12.3774 24.9963C13.5983 27.4909 13.2173 30.316 11.3812 32.3798C11.2542 32.52 11.0978 32.6203 10.922 32.6804L6.31213 34.1531C6.16562 34.1931 6.08754 34.2032 5.99964 34.2032L6.00942 34.1932ZM5.18892 24.8258L5.93121 25.7376C6.45861 26.3888 6.84932 27.1902 7.06419 28.0818C7.23999 28.8332 7.28883 29.5745 7.19116 30.3059L7.01531 31.6685L10.0431 30.6967L10.2091 30.4563C11.5471 28.5528 10.8733 26.6593 10.5119 25.938C9.9259 24.7357 8.86135 23.864 7.86514 23.7738L7.65018 23.7538L5.17926 24.8158L5.18892 24.8258ZM2.63001 26.6793C2.21981 27.0801 1.90733 28.0818 2.20033 29.3241C2.5031 30.5564 3.22583 31.2979 3.77278 31.4581L4.25134 31.5983L4.60293 31.2478C5.01314 30.8471 5.32573 29.8451 5.02296 28.6028C4.72995 27.3705 3.99746 26.6293 3.45051 26.469L2.97195 26.3286L2.62024 26.6793H2.63001Z" fill="var(--fill-0, #236242)"/>
<path id="Vector_5" d="M78.7822 66.1324C78.4306 66.1324 78.1083 65.9521 77.913 65.6616C77.7567 65.4211 77.6981 65.1406 77.7567 64.86C77.8055 64.5795 77.9617 64.3391 78.1961 64.1789C79.2314 63.4575 80.0617 62.626 80.7356 61.6341C80.9016 61.3837 81.0677 61.1131 81.2239 60.8226C81.4095 60.4819 81.761 60.2617 82.142 60.2617C82.3178 60.2617 82.4838 60.3017 82.6401 60.3918C82.8842 60.5321 83.0698 60.7526 83.148 61.0332C83.2261 61.3037 83.1968 61.594 83.0601 61.8445C82.8745 62.1951 82.6694 62.5358 82.4546 62.8563C81.6341 64.0686 80.6281 65.0805 79.3682 65.9521C79.2608 66.0223 79.1534 66.0723 79.0362 66.1023C78.958 66.1224 78.8701 66.1324 78.7822 66.1324Z" fill="var(--fill-0, #236242)"/>
<path id="Vector_6" d="M74.9817 68.2163C74.5031 68.2163 74.0831 67.8856 73.9659 67.4047C73.8585 66.9338 74.0636 66.463 74.4445 66.2226L74.4934 66.2828C74.5715 66.2126 74.6594 66.1423 74.7473 66.1023L74.7961 66.0822C74.8742 66.0421 74.9719 66.0223 75.0598 66.0022C75.1184 66.0022 75.1673 65.9922 75.2259 65.9922C75.4115 65.9922 75.597 66.0422 75.763 66.1424C75.9095 66.2325 76.0072 66.3328 76.0854 66.453C76.1537 66.5632 76.2123 66.6735 76.2416 66.8037C76.2904 67.0542 76.271 67.2444 76.2124 67.4147C76.1635 67.575 76.0854 67.7054 75.9682 67.8156C75.8803 67.9058 75.7826 67.9759 75.6654 68.036C75.5286 68.1061 75.3822 68.1561 75.2259 68.1962C75.1478 68.2162 75.0598 68.2263 74.9719 68.2263L74.9817 68.2163Z" fill="var(--fill-0, #236242)"/>
<path id="Vector_7" d="M21.8993 76.3408C21.4695 76.3408 21.1178 76.0903 20.8346 75.5894C20.5514 75.0784 20.7272 74.417 21.2253 74.1265C21.3816 74.0363 21.5574 73.9863 21.743 73.9863C21.8211 73.9863 21.909 73.9864 21.9871 74.0164C22.4267 74.0665 22.7197 74.2567 22.9932 74.6174C23.169 74.8478 23.2373 75.1284 23.208 75.4089C23.1689 75.6894 23.0322 75.9498 22.8075 76.1201C22.6903 76.2103 22.5633 76.2806 22.4168 76.3107C22.3289 76.3307 22.2508 76.3408 22.1629 76.3408H21.8895H21.8993Z" fill="var(--fill-0, #236242)"/>
<path id="Vector_8" d="M19.231 70.6209C18.7915 70.6209 18.4008 70.3404 18.2445 69.9197C13.576 56.9057 14.1035 46.9975 14.3769 44.2725C14.4355 43.7215 14.8751 43.3105 15.4123 43.3105C15.8029 43.3406 16.0471 43.481 16.2229 43.7014C16.3987 43.9218 16.4768 44.2024 16.4475 44.4929C15.9103 49.8728 16.6135 59.1799 20.1979 69.1783C20.2956 69.4488 20.2859 69.7394 20.1687 69.9999C20.0515 70.2604 19.8464 70.4608 19.5827 70.561C19.3874 70.6211 19.3091 70.6309 19.2212 70.6309L19.231 70.6209Z" fill="var(--fill-0, #236242)"/>
</g>
<defs>
<clipPath id="clip0_2738_16395">
<rect width="91" height="84" fill="white"/>
</clipPath>
</defs>
</svg>
