<svg preserveAspectRatio="none" width="100%" height="100%" overflow="visible" style="display: block;" viewBox="0 0 105.483 101.042" fill="none" xmlns="http://www.w3.org/2000/svg">
<g id="Group">
<path id="Vector" d="M91.7834 0.912332L13.0922 1.39344C6.59723 1.43352 1.35246 6.87342 1.39153 13.5357L1.69424 66.2829C1.73331 72.9451 7.03669 78.3253 13.5316 78.2852L18.9229 78.2551L18.8448 99.8447L45.0981 78.0947L92.2132 77.8041C98.7082 77.764 103.953 72.3241 103.914 65.6618L103.611 12.9147C103.572 6.2524 98.2686 0.872258 91.7737 0.912332H91.7834Z" fill="var(--fill-0, #E7D56D)"/>
<g id="Group_2">
<path id="Vector_2" d="M96.4968 77.8133C95.2661 78.2141 93.9671 78.4246 92.6584 78.4346L47.3207 78.8052L46.764 79.196C46.7054 79.2661 46.6468 79.3262 46.5882 79.3763L20.6476 100.786C20.5401 100.876 20.4132 100.946 20.2764 100.986C19.9932 101.076 19.7002 101.056 19.4267 100.926C19.036 100.736 18.7723 100.315 18.7723 99.874L18.4794 79.5267C18.4794 79.3464 18.5184 79.166 18.5966 79.0057L19.29 79.0358L13.4201 79.0857C6.30007 79.1458 0.459552 73.2451 0.400951 65.9416L0.000478022 13.8556C-0.0288225 10.3191 1.28975 6.97276 3.71192 4.45812C5.18671 2.92529 7.00335 1.77334 8.97625 1.12213C10.2069 0.721396 11.496 0.510891 12.8145 0.500872L54.3236 0.160156C54.6263 0.160156 54.9193 0.280466 55.1439 0.500872C55.3588 0.721279 55.4859 1.02191 55.4859 1.33248C55.4859 1.85344 55.1635 2.31418 54.6849 2.46445C54.5775 2.50453 54.4603 2.5146 54.3431 2.52462L12.8341 2.86534C11.7598 2.86534 10.6952 3.04568 9.67944 3.37629C8.05814 3.90727 6.56377 4.85901 5.35268 6.11131C3.36025 8.18514 2.27613 10.9302 2.30543 13.8355L2.70591 65.9215C2.72544 68.8269 3.85839 71.5518 5.88013 73.5956C7.90186 75.6394 10.5779 76.7515 13.4103 76.7315L27.7968 76.6112C28.4317 76.6112 28.9494 77.1323 28.9591 77.7835C28.9591 78.3045 28.6368 78.7552 28.1582 78.9155C28.0508 78.9555 27.9336 78.9656 27.8164 78.9756L20.2471 79.0358L20.6573 78.9957C20.7355 79.156 20.7843 79.3363 20.7843 79.5167L21.0675 97.4396L43.7657 78.8553L45.4455 77.4729C45.2014 77.6732 45.8948 77.1122 46.0511 76.982C46.7543 76.4109 47.1156 76.491 47.5844 76.3908C47.7016 76.3708 48.4928 76.451 48.61 76.451L92.6388 76.0802C93.7131 76.0802 94.7777 75.8998 95.7935 75.5692C97.4148 75.0382 98.9189 74.0865 100.12 72.8342C102.113 70.7604 103.197 68.0153 103.167 65.11L103.04 48.1789C103.04 47.6579 103.353 47.2069 103.841 47.0467C103.949 47.0066 104.066 46.9965 104.183 46.9865C104.818 46.9865 105.336 47.5076 105.345 48.1588L105.482 65.0899C105.511 68.6264 104.193 71.9727 101.771 74.4874C100.296 76.0202 98.4794 77.1722 96.5065 77.8234L96.4968 77.8133Z" fill="var(--fill-0, #236242)"/>
<path id="Vector_3" d="M104.507 43.1601C104.399 43.2002 104.282 43.2103 104.165 43.2203C103.53 43.2203 103.012 42.6992 103.003 42.048L102.983 39.874V39.8139C102.964 39.7538 102.954 39.6837 102.954 39.6135V38.0506C102.944 37.9905 102.954 37.9305 102.954 37.8703V37.8102L102.934 34.8347C102.934 34.3138 103.257 33.863 103.735 33.7027C103.843 33.6627 103.96 33.6526 104.077 33.6426C104.712 33.6426 105.229 34.1635 105.239 34.8147L105.308 42.0279C105.308 42.5489 104.995 42.9998 104.507 43.1601Z" fill="var(--fill-0, #236242)"/>
<path id="Vector_4" d="M104.368 28.5221C104.26 28.5622 104.143 28.5723 104.026 28.5823C103.391 28.5823 102.873 28.0614 102.873 27.4102V26.6688C102.873 26.0778 103.196 25.6167 103.674 25.4564C103.782 25.4163 103.899 25.4065 104.016 25.3965C104.319 25.3965 104.612 25.5165 104.837 25.737C105.051 25.9574 105.178 26.258 105.178 26.5686V27.3801C105.178 27.9011 104.856 28.3518 104.377 28.5121L104.368 28.5221Z" fill="var(--fill-0, #236242)"/>
<path id="Vector_5" d="M74.4817 2.3043C74.3742 2.34437 74.2571 2.35445 74.1399 2.36447L70.3893 2.39455C69.7545 2.39455 69.2369 1.87342 69.2271 1.22222C69.2271 0.701264 69.5396 0.25055 70.0279 0.0902543C70.1354 0.0501804 70.2527 0.0401032 70.3699 0.0300848L74.1203 0C74.7551 0 75.2727 0.520882 75.2825 1.17208C75.2825 1.69304 74.97 2.144 74.4817 2.3043Z" fill="var(--fill-0, #236242)"/>
<path id="Vector_6" d="M65.8692 2.35482C65.7227 2.40491 65.5761 2.41473 65.4198 2.40471L59.9797 2.57519C59.677 2.54514 59.3937 2.40472 59.1983 2.16428C59.003 1.92384 58.9053 1.6134 58.9346 1.30283C58.9737 0.821941 59.2863 0.421183 59.7356 0.280924C59.8821 0.230832 60.0285 0.220764 60.1848 0.230783L65.625 0.0605469C65.9278 0.0906023 66.2109 0.230773 66.4063 0.471216C66.6016 0.71166 66.6993 1.02234 66.67 1.33291C66.6309 1.8138 66.3184 2.21456 65.8692 2.35482Z" fill="var(--fill-0, #236242)"/>
<path id="Vector_7" d="M104.302 20.3579C104.195 20.398 104.078 20.4081 103.96 20.4181C103.658 20.4181 103.365 20.2978 103.14 20.0774C102.925 19.857 102.798 19.5564 102.798 19.2458L102.749 13.2447C102.73 10.3394 101.597 7.61444 99.5751 5.57067C97.5533 3.5269 94.8773 2.41474 92.0449 2.44479L80.5689 2.53504C79.934 2.53504 79.4164 2.01416 79.4067 1.36296C79.4067 0.842002 79.7289 0.391043 80.2075 0.230748C80.3149 0.190674 80.4321 0.180597 80.5493 0.170578L92.0253 0.0805685C95.473 0.0505131 98.7352 1.40306 101.187 3.88764C103.648 6.37222 105.015 9.68815 105.045 13.2247L105.093 19.2257C105.093 19.7467 104.781 20.1976 104.293 20.3579H104.302Z" fill="var(--fill-0, #236242)"/>
</g>
<g id="Group_3">
<path id="Vector_8" d="M24.859 53.3381V54.9713C24.859 55.1917 24.6638 55.3117 24.4587 55.3117C24.2536 55.3117 24.068 55.1917 24.068 54.9713V53.3381H21.3626C21.0989 53.3381 20.9719 53.1677 20.9719 52.9974C20.9719 52.8071 21.1086 52.6068 21.3626 52.6068H24.068V52.4065C24.068 52.2562 24.1364 52.156 24.2341 52.0959C24.1169 52.0257 24.0289 51.9054 24.0289 51.7752C24.0289 51.685 24.068 51.5949 24.1754 51.5247C24.6931 51.1941 25.113 50.6533 25.3865 49.942C25.4451 49.7817 25.5623 49.7216 25.6893 49.7216C25.8749 49.7216 26.0702 49.8617 26.0702 50.0721C26.0702 50.1222 26.0702 50.2023 25.9042 50.5028C26.2558 50.8435 26.6952 51.104 27.0859 51.3044C27.2324 51.3845 27.3007 51.5048 27.3007 51.635C27.3007 51.8454 27.1348 52.0557 26.9102 52.0557C26.6172 52.0557 25.9921 51.5548 25.5623 51.074C25.2889 51.4747 24.986 51.8253 24.6442 52.0557L24.6246 52.0758C24.7516 52.1259 24.859 52.2362 24.859 52.4065V52.6168H27.5938C27.838 52.6168 27.9649 52.7973 27.9649 52.9876C27.9649 53.158 27.8477 53.3482 27.5938 53.3482H24.859V53.3381ZM24.4489 49.6314L21.7142 49.6514C21.4504 49.6514 21.3137 49.4609 21.3137 49.2706C21.3137 49.0802 21.4504 48.9 21.7142 48.9L24.0582 48.9201V48.2988C24.0582 48.0383 24.2731 47.9082 24.4782 47.9082C24.6833 47.9082 24.8981 48.0383 24.8981 48.2988V48.9301L27.2911 48.9101C27.545 48.9101 27.6621 49.1003 27.6621 49.2806C27.6621 49.4609 27.545 49.6614 27.2911 49.6614L24.4685 49.6414L24.4489 49.6314ZM21.9779 52.1761C21.763 52.1761 21.5774 52.0057 21.5774 51.8053C21.5774 51.6951 21.6361 51.585 21.763 51.4748C22.2807 51.0841 22.6616 50.6231 22.8862 50.0119C22.9546 49.8216 23.0913 49.7414 23.2281 49.7414C23.4039 49.7414 23.5894 49.8717 23.5894 50.0821C23.5894 50.2024 23.4429 50.4928 23.4233 50.5229C23.6187 50.593 24.1754 50.8938 24.1754 51.2344C24.1754 51.4348 24.029 51.625 23.8629 51.625C23.7946 51.625 23.7163 51.5949 23.648 51.5147C23.4722 51.3143 23.2574 51.1441 23.1206 51.0539C22.8179 51.5248 22.3002 52.1661 21.9779 52.1661V52.1761Z" fill="var(--fill-0, #236242)"/>
<path id="Vector_9" d="M35.6097 53.1286L33.5587 53.0885H33.3146C34.1545 53.7096 35.0141 54.0101 35.9419 54.3207C36.1177 54.3808 36.1958 54.5111 36.1958 54.6414C36.1958 54.8618 36.02 55.1022 35.766 55.1022C35.6 55.1022 34.1936 54.5612 32.9532 53.5794L32.9727 55.0119C32.9727 55.2323 32.7774 55.3326 32.5918 55.3326C32.4063 55.3326 32.2109 55.2323 32.2109 55.0119L32.2305 53.5794C31.2245 54.4109 29.6813 55.1323 29.4176 55.1323C29.1734 55.1323 29.0074 54.9518 29.0074 54.7615C29.0074 54.6312 29.0953 54.5012 29.2906 54.431C30.2771 54.0804 31.0389 53.7196 31.8202 53.0885H31.5566L29.5837 53.1286C29.3786 53.1286 29.2809 52.9782 29.2809 52.8179C29.2809 52.6576 29.3884 52.4973 29.5935 52.4973L32.25 52.5173V52.1468H30.4041C30.2283 52.1468 30.1306 52.0065 30.1306 51.8662C30.1306 51.726 30.2283 51.5957 30.4041 51.5957H32.2305V51.245H29.9938C29.7887 51.245 29.6813 51.1049 29.6813 50.9446C29.6813 50.7943 29.7887 50.644 29.9938 50.644H31.4199C31.371 50.5238 31.3124 50.4035 31.2538 50.3133C31.2245 50.2733 31.2147 50.2333 31.2147 50.1932C31.2147 50.093 31.3027 50.0129 31.4199 49.9729H29.5641C29.3395 49.9729 29.2223 49.8025 29.2223 49.6321C29.2223 49.4618 29.3395 49.2914 29.5544 49.2914L30.6189 49.3115C30.5017 49.1211 30.3553 48.9408 30.199 48.7805C30.1502 48.7204 30.1208 48.6603 30.1208 48.6102C30.1208 48.4399 30.3357 48.2795 30.531 48.2795C30.5994 48.2795 30.658 48.2796 30.7166 48.3297C30.8631 48.4299 31.2928 49.0009 31.371 49.3315H31.6542V48.2297C31.6542 47.9892 31.83 47.8789 32.0156 47.8789C32.2012 47.8789 32.377 47.9992 32.377 48.2297V49.3416H32.8458V48.2297C32.8458 47.9992 33.0216 47.8789 33.2071 47.8789C33.3927 47.8789 33.5685 47.9992 33.5685 48.2196L33.549 49.3315H33.8225C33.9885 49.0711 34.135 48.7404 34.2327 48.4899C34.3011 48.3196 34.4378 48.2394 34.5745 48.2394C34.7894 48.2394 34.9944 48.4099 34.9944 48.6203C34.9944 48.6403 34.9945 48.8106 34.6038 49.3215L35.7075 49.3015C35.9224 49.3015 36.0298 49.4719 36.0298 49.6422C36.0298 49.8125 35.9224 49.9927 35.6977 49.9927H33.7444C33.8616 50.0428 33.9494 50.1329 33.9494 50.2632C33.9494 50.3534 33.8322 50.624 33.8029 50.6741H35.2192C35.4243 50.6741 35.5219 50.8144 35.5219 50.9747C35.5219 51.125 35.4243 51.2751 35.2192 51.2751H32.9923V51.6258H34.7991C34.9847 51.6258 35.0726 51.7561 35.0726 51.8963C35.0726 52.0266 34.9847 52.1668 34.7991 52.1668H32.9825V52.5274L35.6391 52.5073C35.8442 52.5073 35.9517 52.6677 35.9419 52.828C35.9419 52.9883 35.8442 53.1386 35.6488 53.1386L35.6097 53.1286ZM31.7323 49.9829C31.8105 50.023 32.0645 50.2232 32.1426 50.644V50.6641H33.0411C33.1094 50.5138 33.1876 50.2933 33.2071 50.123C33.2071 50.0529 33.2462 50.0129 33.2852 49.9829H31.7226H31.7323Z" fill="var(--fill-0, #236242)"/>
<path id="Vector_10" d="M37.5456 54.962C37.2819 54.962 37.1647 54.7916 37.1647 54.6012C37.1647 54.4008 37.3015 54.2006 37.5456 54.2006H40.3194V52.7078H38.7957C38.532 52.7078 38.4148 52.5374 38.4148 52.3571C38.4148 52.1767 38.5515 51.9765 38.7957 51.9765H40.3194V50.7142H38.8739C38.6102 51.195 38.3172 51.6457 37.9753 52.0765C37.8581 52.2168 37.7312 52.2668 37.614 52.2668C37.3991 52.2668 37.2233 52.0966 37.2233 51.8963C37.2233 51.8161 37.2525 51.7259 37.3307 51.6258C37.8483 51.0146 38.4538 50.0429 38.7761 48.9008C38.8347 48.7004 38.991 48.6202 39.1473 48.6202C39.3719 48.6202 39.6064 48.7704 39.6064 49.0008C39.6064 49.0309 39.6064 49.0811 39.5771 49.1211C39.4697 49.4117 39.3622 49.6923 39.2353 49.9728H40.3194V48.4999C40.3194 48.1893 40.5342 48.0391 40.7393 48.0391C40.9444 48.0391 41.1495 48.1893 41.1495 48.4999V49.9828H43.3471C43.6108 49.9828 43.7378 50.153 43.7378 50.3534C43.7378 50.5538 43.6108 50.7242 43.3471 50.7242H41.1495V51.9865H42.7904C43.0541 51.9865 43.181 52.1567 43.181 52.3571C43.181 52.5575 43.0541 52.7279 42.7904 52.7279H41.1495V54.2206H43.8647C44.1089 54.2206 44.2359 54.4008 44.2359 54.5912C44.2359 54.7815 44.1187 54.962 43.8647 54.962H37.5456Z" fill="var(--fill-0, #236242)"/>
<path id="Vector_11" d="M50.6243 51.6362C50.6243 50.7145 49.9212 49.9231 48.7394 49.9231H48.7198C48.8468 49.9832 48.9445 50.1033 48.9445 50.2736V50.3137C48.9445 51.1853 48.1045 52.7082 47.2157 53.5998C47.0106 53.8002 46.8055 53.8803 46.6102 53.8803C46.0339 53.8803 45.5163 53.209 45.5163 52.3074C45.5163 50.7946 46.9618 49.2617 48.7882 49.2617C50.429 49.2617 51.4546 50.3739 51.4546 51.6763C51.4546 51.9869 51.396 52.2974 51.2788 52.618C50.5658 54.4714 48.3585 54.722 48.2413 54.722C47.958 54.722 47.7823 54.5215 47.7823 54.3111C47.7823 54.1307 47.919 53.9505 48.2315 53.8904C49.7063 53.6399 50.6341 52.7082 50.6341 51.6162L50.6243 51.6362ZM48.2706 49.9632C47.2549 50.1736 46.239 51.2754 46.239 52.2673C46.239 52.8884 46.6493 52.9687 46.6688 52.9687C46.7177 52.9687 46.7763 52.9486 46.8251 52.8986C47.0693 52.6781 48.085 51.4358 48.1143 50.3137C48.1143 50.1434 48.1827 50.0233 48.2706 49.9532V49.9632Z" fill="var(--fill-0, #236242)"/>
<path id="Vector_12" d="M56.9802 53.769C56.7654 53.769 56.6091 53.789 56.3943 53.789C56.0231 53.8191 54.3042 54.0094 54.021 54.0495C53.728 54.0796 53.5619 54.1197 53.2689 54.1097C52.7122 54.0896 52.595 53.258 53.2885 53.258C53.4936 53.258 53.6987 53.2582 53.9038 53.2382C54.1773 53.2182 55.7008 53.0077 56.2575 52.9476C56.3845 52.2163 56.5798 51.2645 56.6482 50.9439C56.697 50.6734 56.5993 50.6634 56.3649 50.6935C55.9743 50.7536 54.6558 50.9538 54.3432 51.0139C53.9819 51.084 53.7377 51.1042 53.3959 51.1242C52.8783 51.1442 52.7024 50.3226 53.3568 50.2625C53.64 50.2425 53.8939 50.2627 54.1869 50.2126C54.4702 50.1625 55.8473 50.0022 56.1403 49.9621C56.404 49.9221 56.658 49.8418 56.9315 49.8418C57.6933 49.8418 57.8105 50.443 57.6835 50.7235C57.4687 51.1944 57.283 52.1561 57.1268 52.8774C57.6249 52.9976 57.7909 53.6988 56.9802 53.7489V53.769Z" fill="var(--fill-0, #236242)"/>
<path id="Vector_13" d="M59.6661 55.1428C59.0899 55.4333 58.6796 54.6218 59.2852 54.3613C60.2814 53.9205 61.1702 53.1191 61.8832 52.2375C61.5707 52.0572 61.2484 51.9067 60.9554 51.7965C60.4378 51.6061 60.7796 50.8548 61.4144 51.1253C61.7172 51.2456 62.0492 51.3958 62.3813 51.5661C62.645 51.1754 62.8891 50.7747 63.0747 50.404C63.231 50.1035 63.3482 49.7528 63.3775 49.6025C63.485 49.0315 64.4128 49.1416 64.2858 49.7928C64.237 50.0733 64.1003 50.364 63.905 50.6946C63.6413 51.1354 63.3775 51.5663 63.0943 51.987C63.3677 52.1674 63.6119 52.3676 63.8072 52.598C64.0123 52.8284 63.9537 53.1189 63.8072 53.2792C63.6607 53.4395 63.397 53.4996 63.2017 53.2792C63.0357 53.0889 62.8111 52.8987 62.5572 52.7083C61.7954 53.6801 60.8772 54.5417 59.6466 55.1528L59.6661 55.1428Z" fill="var(--fill-0, #236242)"/>
<path id="Vector_14" d="M67.5588 51.2341C67.217 50.9837 66.7872 50.7532 66.4063 50.663C65.9179 50.5528 66.123 49.7213 66.7383 49.8815C67.168 50.0018 67.6759 50.1822 68.0763 50.4426C68.3401 50.613 68.3401 50.9134 68.2131 51.1138C68.0959 51.3142 67.8225 51.4345 67.5588 51.2341ZM67.9104 54.3798C67.6369 54.5301 67.4513 54.6203 67.129 54.6503C66.4551 54.7105 66.3574 53.8287 66.875 53.7786C67.0411 53.7586 67.3341 53.6484 67.5001 53.5683C68.9749 52.887 70.2837 51.5246 71.1042 49.9016C71.3679 49.3806 72.1883 49.7313 71.8367 50.3925C70.8307 52.266 69.5707 53.4882 67.9006 54.3798H67.9104Z" fill="var(--fill-0, #236242)"/>
<path id="Vector_15" d="M74.6888 54.581C74.6888 54.9717 74.474 55.1923 74.2494 55.2123C74.0247 55.2324 73.7904 55.0821 73.8001 54.7014C73.849 53.3389 73.8684 50.7239 73.8293 49.5116C73.8293 49.2411 73.8001 48.9807 73.7513 48.8104C73.6048 48.2193 74.5424 48.0992 74.6107 48.6803C74.64 48.9307 74.6498 48.8506 74.6401 49.4216C74.6401 49.7522 74.6401 50.233 74.6401 50.794C74.6791 50.794 74.728 50.794 74.7768 50.794C75.187 50.8341 76.2516 51.0645 76.6911 51.5554C77.072 51.9762 76.5153 52.6476 76.0855 52.2369C75.773 51.9263 75.0503 51.6657 74.6303 51.6156C74.6303 52.6876 74.6497 53.8397 74.6693 54.581H74.6888Z" fill="var(--fill-0, #236242)"/>
<path id="Vector_16" d="M81.6729 52.6964C81.6729 52.8367 81.6729 52.9869 81.6533 53.1572C81.624 53.4878 81.4092 53.6682 81.2139 53.6682C81.0381 53.6682 80.8818 53.5378 80.8818 53.2773V53.1973C80.9014 52.997 80.9111 52.8065 80.9111 52.6362C80.745 52.7264 79.9833 53.1372 79.9833 53.6581C79.9833 53.7984 80.0517 54.2892 80.8818 54.2892C81.253 54.2892 81.6729 54.1891 81.9073 54.1189C81.9854 54.0989 82.0538 54.0889 82.1124 54.0889C82.3761 54.0889 82.5324 54.2793 82.5324 54.4797C82.5324 54.65 82.464 55.0807 81.0771 55.0807C79.6902 55.0807 79.2605 54.3593 79.2605 53.7582C79.2605 52.7463 80.413 52.1053 80.833 51.8848C80.7353 51.5643 80.5693 51.394 80.3544 51.394C80.2274 51.394 80.0906 51.4439 79.9344 51.5441C79.5925 51.9349 79.3874 52.0551 79.2116 52.0551C79.0163 52.0551 78.86 51.925 78.86 51.7347C78.86 51.6345 78.9089 51.5142 79.0457 51.394C79.4852 50.9932 79.7 50.7828 80.0809 50.1316C79.9344 50.1517 79.8074 50.1617 79.6804 50.1617C78.86 50.1617 78.8503 49.6908 78.8503 49.6307C78.8503 49.4403 78.987 49.2599 79.1823 49.2599C79.2702 49.2599 79.3679 49.2901 79.4754 49.3702C79.5535 49.4203 79.6512 49.4404 79.7782 49.4404C79.8466 49.4404 80.0516 49.4403 80.4227 49.3501C80.5009 49.1297 80.5302 48.9795 80.5692 48.689C80.5985 48.4786 80.745 48.3984 80.9111 48.3984C81.1259 48.3984 81.3506 48.5486 81.3506 48.769C81.3506 48.8692 81.3213 48.9995 81.3018 49.0796C81.5459 48.9594 81.5752 48.9495 81.6338 48.9495C81.8291 48.9495 81.9855 49.1197 81.9855 49.3201C81.9855 49.5906 81.7706 49.761 80.9306 49.9714C80.8134 50.2319 80.6474 50.5122 80.4716 50.8028C80.9209 50.8028 81.2823 51.0633 81.4972 51.5842C82.5227 51.1334 83.2356 50.9131 83.3723 50.9131C83.6653 50.9131 83.8313 51.1334 83.8313 51.3438C83.8313 51.474 83.7532 51.6144 83.6165 51.6645C83.3626 51.7747 83.0989 51.8047 82.6789 51.935C82.3371 52.0452 81.9854 52.1753 81.6729 52.3055C81.6924 52.4258 81.6925 52.5662 81.6925 52.7064L81.6729 52.6964Z" fill="var(--fill-0, #236242)"/>
<path id="Vector_17" d="M45.573 60.3004C45.3191 60.3004 45.2116 60.1402 45.2116 59.9799C45.2116 59.8196 45.3386 59.6192 45.573 59.6192H47.8095C48.0439 59.6192 48.1612 59.7896 48.1612 59.9599C48.1612 60.1302 48.0439 60.3004 47.8095 60.3004H45.573ZM46.5887 65.4199C46.3836 65.4199 46.1785 65.4199 46.0222 65.3998C45.6609 65.3698 45.4265 65.1094 45.4167 64.7387C45.4167 64.5183 45.4167 64.3078 45.4167 64.0974C45.4167 63.887 45.4167 63.6868 45.4167 63.5065C45.4167 63.1859 45.6218 62.8952 46.0125 62.8752C46.1883 62.8752 46.3837 62.8551 46.5692 62.8551C46.7939 62.8551 47.0184 62.8551 47.204 62.8752C47.5165 62.8952 47.8486 63.1057 47.8584 63.4664C47.8584 63.6567 47.8584 63.887 47.8584 64.1074C47.8584 64.3278 47.8584 64.5484 47.8584 64.7287C47.8584 64.8189 47.8388 64.899 47.8095 64.9792C48.9425 64.7587 49.1867 63.9172 49.1867 62.6849C49.1867 62.5847 49.1867 62.4744 49.1867 62.3642V62.3442C49.1867 62.0937 49.3625 61.9736 49.5481 61.9736C49.7434 61.9736 49.9485 62.1037 49.9583 62.3642C49.9583 62.4644 49.9583 62.5646 49.9583 62.6749C49.9583 64.0073 49.6164 65.3297 47.9561 65.6704C47.917 65.6704 47.8779 65.6704 47.8389 65.6704C47.6045 65.6704 47.4873 65.5 47.4873 65.3297V65.2996C47.3701 65.3497 47.2724 65.3998 46.5887 65.3998V65.4199ZM45.8465 59.1584C45.6121 59.1584 45.4948 58.998 45.4948 58.8377C45.4948 58.6674 45.6121 58.4872 45.8465 58.4872H47.4677C47.6826 58.4872 47.7999 58.6573 47.7999 58.8176C47.7999 58.9779 47.6826 59.1483 47.4677 59.1483H45.8465V59.1584ZM45.8562 61.3824C45.6218 61.3824 45.5046 61.2221 45.5046 61.0618C45.5046 60.8915 45.6218 60.7113 45.8562 60.7113H47.4775C47.6924 60.7113 47.8095 60.8814 47.8095 61.0417C47.8095 61.202 47.6924 61.3724 47.4775 61.3724H45.8562V61.3824ZM45.8562 62.4545C45.6218 62.4545 45.5046 62.2941 45.5046 62.1338C45.5046 61.9635 45.6218 61.7831 45.8562 61.7831H47.4775C47.6924 61.7831 47.8095 61.9535 47.8095 62.1138C47.8095 62.2741 47.6924 62.4444 47.4775 62.4444H45.8562V62.4545ZM47.1942 64.1375C47.1942 63.9772 47.1942 63.817 47.1942 63.7068C47.1747 63.4864 46.9989 63.4864 46.6278 63.4864C46.5301 63.4864 46.4325 63.4864 46.3153 63.4864C46.0907 63.5064 46.0907 63.6266 46.0907 64.1275C46.0907 64.2878 46.0907 64.448 46.0907 64.5682C46.0907 64.7386 46.2566 64.7686 46.618 64.7686C47.1259 64.7686 47.1844 64.6985 47.1942 64.5582C47.1942 64.438 47.1942 64.2878 47.1942 64.1375ZM48.7374 62.5846C48.7374 62.805 48.5617 62.9153 48.3859 62.9153C48.2101 62.9153 48.0245 62.795 48.0245 62.5746C48.0245 62.4644 48.0245 62.3543 48.0245 62.2341C48.0245 62.1139 48.0245 61.9735 48.0245 61.8432C48.044 61.4225 48.3175 61.132 48.8742 61.132C49.343 61.132 49.8704 61.132 50.3978 61.132C50.7884 61.132 51.1694 61.132 51.5307 61.132C51.9312 61.132 52.3414 61.4025 52.3609 61.9034C52.3609 62.0136 52.3609 62.1239 52.3609 62.2341C52.3609 62.3543 52.3609 62.4543 52.3609 62.5545C52.3414 62.7749 52.1558 62.8852 51.98 62.8852C51.8042 62.8852 51.6186 62.7849 51.6186 62.5645V62.5445C51.6186 61.8232 51.6187 61.7532 51.1987 61.7432C50.8666 61.7432 50.388 61.7231 49.9387 61.7231C48.8253 61.7231 48.7472 61.7231 48.7179 62.1438V62.5645L48.7374 62.5846ZM48.7374 60.7612C48.503 60.7612 48.3956 60.6111 48.3956 60.4508C48.3956 60.2805 48.5128 60.1201 48.7374 60.1201H49.7337V59.6693H48.4054C48.171 59.6693 48.0537 59.519 48.0537 59.3587C48.0537 59.1884 48.171 59.018 48.4054 59.018H49.7337V58.517C49.7337 58.2666 49.9193 58.1465 50.1146 58.1465C50.3099 58.1465 50.5052 58.2666 50.5052 58.517V59.028H51.9898C52.2144 59.028 52.3218 59.1884 52.3218 59.3487C52.3218 59.519 52.2144 59.6793 51.9898 59.6793H50.5052V60.1301H51.5893C51.8042 60.1301 51.9117 60.2805 51.9117 60.4408C51.9117 60.6111 51.8042 60.7612 51.5893 60.7612H48.7374ZM51.8628 64.0673C51.8628 63.8369 52.0289 63.7369 52.1949 63.7369C52.361 63.7369 52.5855 63.837 52.5855 64.1375C52.5855 65.0592 52.3414 65.55 51.2866 65.55C50.4564 65.55 50.2806 65.1794 50.2806 64.5883C50.2806 64.2577 50.3001 62.5746 50.3099 62.3141C50.3294 62.1037 50.515 61.9937 50.7006 61.9937C51.0522 61.9937 51.0522 62.3042 51.0522 62.4444C51.0522 62.8953 51.0229 64.0073 51.0229 64.4181C51.0229 64.6485 51.0425 64.8187 51.3355 64.8187C51.7359 64.8187 51.8726 64.7887 51.8726 64.1676V64.0874L51.8628 64.0673Z" fill="var(--fill-0, #236242)"/>
<path id="Vector_18" d="M55.9844 59.4196C55.9844 59.4196 56.0236 59.4196 56.0529 59.4196C56.2384 59.4196 56.3947 59.5898 56.3947 59.7901C56.3947 60.0406 56.2286 60.1207 55.8966 60.3011C55.838 60.7218 55.8087 61.283 55.7794 61.7138C55.8575 61.8341 55.9063 61.9843 55.9063 62.1546C55.9063 62.2748 55.8771 62.3949 55.8282 62.5352C55.7306 62.7957 55.5157 63.1565 55.3692 63.4671C55.3009 63.6173 55.2715 63.7575 55.2715 63.8878C55.2715 64.3987 55.7793 64.6291 56.2579 64.6291C56.8635 64.6291 57.7718 64.1682 57.7718 63.5771C57.7718 63.4469 57.7425 63.3567 57.5374 62.5853C57.5179 62.5252 57.5081 62.4652 57.5081 62.4151C57.5081 62.1646 57.6937 62.0342 57.889 62.0342C58.0551 62.0342 58.2407 62.1345 58.2993 62.3449C58.6216 63.3467 58.6215 63.6073 58.6215 63.6473C58.6215 64.6392 57.2151 65.3905 56.2384 65.3905C55.5254 65.3905 54.5097 64.9797 54.5097 64.0279C54.5097 63.8376 54.5488 63.6273 54.6269 63.4069C54.0702 63.3267 53.826 62.6857 53.826 62.2448C53.826 61.6638 54.2362 61.233 54.7636 61.233C54.8515 61.233 54.959 61.2528 55.0566 61.2728C55.0859 61.0324 55.0958 60.772 55.1251 60.5616C54.9493 60.6016 54.7929 60.6117 54.6659 60.6117C54.1776 60.6117 53.953 60.4515 53.953 60.191C53.953 60.0307 54.0506 59.8102 54.3046 59.8102C54.3436 59.8102 54.3925 59.8302 54.4511 59.8403C54.5292 59.8703 54.6269 59.8804 54.7344 59.8804C54.8711 59.8804 55.0273 59.8603 55.1738 59.8102C55.1738 59.5898 55.125 59.4395 55.1153 59.2992V59.2393C55.1153 58.9588 55.3105 58.8184 55.5156 58.8184C55.7207 58.8184 55.9552 58.9688 55.965 59.2493V59.4196H55.9844ZM54.7636 61.9142C54.5878 61.9142 54.4902 62.0545 54.4902 62.2348C54.4902 62.5053 54.6269 62.6555 54.7539 62.6555C54.9883 62.6555 55.1251 62.2047 55.1251 62.1546C55.1251 62.0845 55.0761 62.0645 55.0468 62.0044C54.9785 61.9543 54.8905 61.9142 54.7636 61.9142ZM59.1099 60.712C58.8657 60.5216 58.6898 60.4214 58.5531 60.4214C58.4164 60.4214 58.3187 60.5116 58.2211 60.702C58.1429 60.8522 58.016 60.9123 57.8988 60.9123C57.6839 60.9123 57.4788 60.7421 57.4788 60.4916C57.4788 60.1911 57.8694 59.67 58.5629 59.67C59.1684 59.67 59.7545 60.0507 59.7545 60.3913C59.7545 60.6117 59.5787 60.802 59.354 60.802C59.2857 60.802 59.188 60.7721 59.1099 60.712Z" fill="var(--fill-0, #236242)"/>
</g>
<path id="Vector_19" d="M53.126 17.5531C55.8176 17.5531 57.9996 15.3149 57.9996 12.5539C57.9996 9.7929 55.8176 7.55469 53.126 7.55469C50.4343 7.55469 48.2523 9.7929 48.2523 12.5539C48.2523 15.3149 50.4343 17.5531 53.126 17.5531Z" stroke="var(--stroke-0, #236242)" stroke-width="0.946746" stroke-miterlimit="10"/>
<path id="Vector_20" d="M55.0905 10.4805H52.2777V13.3057H55.0905V10.4805Z" stroke="var(--stroke-0, #236242)" stroke-width="0.946746" stroke-linecap="round" stroke-linejoin="round"/>
<path id="Vector_21" d="M50.9867 12.1719V14.6065H53.4871" stroke="var(--stroke-0, #236242)" stroke-width="0.946746" stroke-linecap="round" stroke-linejoin="round"/>
</g>
</svg>
