<svg preserveAspectRatio="none" width="100%" height="100%" overflow="visible" style="display: block;" viewBox="0 0 88.6359 14.6976" fill="none" xmlns="http://www.w3.org/2000/svg">
<g id="Group">
<path id="Vector" d="M3.58447 13.0335C3.58447 14.1656 3.00812 14.6965 1.76773 14.6965C0.625015 14.6965 0 14.2257 0 13.0335V1.68251C0 0.430201 0.712983 0.0195312 1.83617 0.0195312C2.95935 0.0195312 3.56493 0.510348 3.58447 1.68251V13.0335Z" fill="var(--fill-0, white)"/>
<path id="Vector_2" d="M9.8341 13.0341C9.8341 14.2563 9.20911 14.6971 8.08592 14.6971C7.03111 14.6971 6.3865 14.2563 6.3865 13.0341V5.21962C6.3865 4.0174 7.03105 3.55664 8.15424 3.55664C8.55468 3.55664 8.92582 3.62681 9.25789 3.84722C8.59375 4.19786 8.05659 4.72878 8.05659 5.54028C8.05659 6.65233 8.76952 7.50398 9.8341 7.6242V13.0441V13.0341ZM15.6748 13.0341C15.6748 14.2563 15.0497 14.6971 13.9265 14.6971C12.8033 14.6971 12.227 14.2363 12.227 13.0341V8.12512C12.227 7.53403 12.1782 6.58224 11.4067 6.58224C11.1723 6.58224 10.9768 6.70228 10.6838 6.90265C10.4396 7.07297 10.176 7.19323 9.86343 7.19323C9.05279 7.19323 8.45707 6.38188 8.45707 5.59042C8.45707 4.09767 10.6839 3.55664 11.8266 3.55664C13.3795 3.55664 14.8641 4.21786 15.411 5.8108C15.6747 6.59224 15.6942 7.40367 15.6942 8.24522V13.0341H15.6748Z" fill="var(--fill-0, white)"/>
<path id="Vector_3" d="M19.8826 5.30038C19.8826 6.2321 19.3748 6.70287 18.4469 6.70287C17.5191 6.70287 17.0307 6.24211 17.0307 5.30038C17.0307 4.82951 17.2164 4.3186 17.6266 4.07815C17.8707 3.94791 18.2907 3.90767 18.4665 3.90767C19.3553 3.90767 19.8826 4.36865 19.8826 5.29035V5.30038ZM20.2831 5.30038C20.2831 4.36866 19.7753 3.65734 18.8474 3.53712V2.41493C18.8474 1.19268 19.492 0.751953 20.6151 0.751953C21.7383 0.751953 22.295 1.29286 22.295 2.41493V3.90767H22.969C23.8578 3.90767 24.3851 4.36865 24.3851 5.29035C24.3851 6.21205 23.8382 6.69284 22.969 6.69284H22.295V11.1312C22.295 11.7423 22.4806 11.7522 23.0862 11.7723C23.8773 11.7923 24.434 12.2432 24.434 13.0948C24.434 14.4473 23.2131 14.6876 22.1583 14.6876C19.8631 14.6876 18.8376 13.8761 18.8376 11.4717V7.07367C19.7655 6.95345 20.2733 6.2321 20.2733 5.30038H20.2831Z" fill="var(--fill-0, white)"/>
<path id="Vector_4" d="M33.6866 9.59755C33.0615 9.59755 32.4365 9.79786 32.0165 10.2888H29.0473C29.1938 11.3908 29.7408 11.7414 30.7663 11.7414C31.6258 11.7414 31.87 11.4909 32.2509 10.7596C32.5341 10.2386 33.0908 9.99819 33.667 9.99819C34.4777 9.99819 35.4153 10.5091 35.4153 11.4408C35.4153 12.0118 35.1223 12.5629 34.7902 12.9837C33.8331 14.1859 32.3192 14.6968 30.8444 14.6968C27.4748 14.6968 25.5117 12.5129 25.5117 9.11668C25.5117 5.95084 27.3284 3.56641 30.5417 3.56641C32.1727 3.56641 33.6476 4.18756 34.6047 5.58013C35.1712 6.41166 35.5618 7.44346 35.5618 8.47536C35.5618 9.08649 35.3469 9.57734 34.8683 9.92799C34.4874 9.72762 34.1065 9.60757 33.6768 9.60757L33.6866 9.59755ZM31.7332 7.59385C31.8309 7.59385 31.9969 7.61377 31.9969 7.47351C31.9969 6.78224 31.2253 6.34154 30.5807 6.34154C29.8091 6.34154 29.2622 6.83245 29.0767 7.59385H31.7332Z" fill="var(--fill-0, white)"/>
<path id="Vector_5" d="M40.9442 13.0346C40.9442 14.2068 40.3484 14.6976 39.2252 14.6976C38.0239 14.6976 37.4964 14.1567 37.4964 13.0346V5.22014C37.4964 4.04798 38.102 3.55717 39.2154 3.55717C39.6647 3.55717 40.3092 3.58711 40.6218 3.94778C39.7428 4.36855 38.7564 5.05979 38.7564 6.16182C38.7564 7.26385 39.567 8.42601 40.739 8.42601C40.8073 8.42601 40.8856 8.42599 40.9539 8.40595V13.0246L40.9442 13.0346ZM40.5535 4.4487C41.3934 3.93776 42.3897 3.53711 43.3956 3.53711C44.4016 3.53711 44.9779 4.39879 44.9779 5.3806C44.9779 5.79135 44.8802 6.26215 44.5969 6.56271C44.2551 6.90334 43.6691 6.91328 43.2296 6.9834C42.7021 7.08359 42.204 7.27401 41.7645 7.55453C41.4325 7.79497 41.12 8.01534 40.7098 8.01534C39.8014 8.01534 39.1567 7.03344 39.1567 6.17185C39.1567 5.31026 39.8991 4.81939 40.5632 4.4487H40.5535Z" fill="var(--fill-0, white)"/>
<path id="Vector_6" d="M50.7462 9.72846C50.7462 11.0008 51.8986 11.7723 53.0413 11.7723C53.4027 11.7723 53.7348 11.6721 54.0473 11.5318C53.5981 13.1248 52.8558 14.6775 51.0099 14.6775C49.9355 14.6775 49.2323 14.0864 48.6854 13.1848C48.3045 12.5636 47.992 11.8525 47.7576 11.1412L45.9799 5.86146C45.9116 5.64106 45.8823 5.40044 45.8823 5.18003C45.8823 4.16817 46.859 3.53711 47.7673 3.53711C48.5389 3.53711 49.0077 3.97784 49.2519 4.70919L50.8048 9.24759C50.7755 9.39787 50.7559 9.56815 50.7559 9.71843L50.7462 9.72846ZM52.7386 4.71922C52.9828 3.97785 53.4516 3.54714 54.2428 3.54714C55.1218 3.54714 56.1277 4.20825 56.1277 5.19006C56.1277 5.4305 56.0788 5.65109 56.0007 5.88152L54.5357 10.2093C54.2915 10.9407 53.8716 11.3616 53.0804 11.3616C52.1917 11.3616 51.1466 10.7704 51.1466 9.73848C51.1466 9.49804 51.1955 9.27769 51.2834 9.04727L52.7484 4.71922H52.7386Z" fill="var(--fill-0, white)"/>
<path id="Vector_7" d="M61.345 1.89338C61.345 2.90525 60.5247 3.77698 59.5089 3.77698C58.4932 3.77698 57.6728 2.91527 57.6728 1.89338C57.6728 0.871499 58.4932 0 59.5089 0C60.5247 0 61.345 0.861481 61.345 1.89338ZM61.2376 5.20956V13.024C61.2376 14.2463 60.6418 14.687 59.5186 14.687C58.3954 14.687 57.79 14.2663 57.79 13.024V5.20956C57.79 4.69861 57.9169 4.15774 58.3368 3.83715C58.6982 4.05756 59.0987 4.17762 59.5089 4.17762C59.9191 4.17762 60.3293 4.05756 60.7005 3.83715C61.1107 4.15774 61.2473 4.69861 61.2473 5.20956H61.2376Z" fill="var(--fill-0, white)"/>
<path id="Vector_8" d="M71.3848 9.59755C70.7598 9.59755 70.1347 9.79786 69.7148 10.2888H66.7456C66.8921 11.3908 67.4391 11.7414 68.4646 11.7414C69.3241 11.7414 69.5682 11.4909 69.9492 10.7596C70.2324 10.2386 70.7891 9.99819 71.3653 9.99819C72.1759 9.99819 73.1136 10.5091 73.1136 11.4408C73.1136 12.0118 72.8206 12.5629 72.4885 12.9837C71.5314 14.1859 70.0176 14.6968 68.5428 14.6968C65.1732 14.6968 63.21 12.5129 63.21 9.11668C63.21 5.95084 65.0267 3.56641 68.24 3.56641C69.871 3.56641 71.3458 4.18756 72.303 5.58013C72.8695 6.41166 73.2601 7.44346 73.2601 8.47536C73.2601 9.08649 73.0453 9.57734 72.5667 9.92799C72.1858 9.72762 71.8048 9.60757 71.3751 9.60757L71.3848 9.59755ZM69.4413 7.59385C69.5389 7.59385 69.705 7.61377 69.705 7.47351C69.705 6.78224 68.9334 6.34154 68.2888 6.34154C67.5173 6.34154 66.9703 6.83245 66.7847 7.59385H69.4413Z" fill="var(--fill-0, white)"/>
<path id="Vector_9" d="M83.8794 8.96652C83.8501 9.16689 83.811 9.37738 83.811 9.57775C83.811 10.7098 84.7975 11.3912 85.823 11.3912C86.2821 11.3912 86.6825 11.3109 87.0439 11.0204L86.6825 12.2526C86.2821 13.6251 85.9597 14.687 84.3091 14.687C83.7524 14.687 83.1372 14.5168 82.7953 14.066C82.6098 13.8256 82.4632 13.545 82.4144 13.2545L81.4573 8.36556L80.5001 13.1742C80.3048 14.2061 79.4648 14.6971 78.4881 14.6971C77.5993 14.6971 76.7691 14.1762 76.525 13.2745L74.3665 5.76066C74.3177 5.5703 74.2883 5.38991 74.2883 5.19956C74.2883 4.1877 75.1772 3.55664 76.1051 3.55664C76.6032 3.55664 77.1403 3.74685 77.4431 4.16763C77.5896 4.368 77.6385 4.58854 77.6873 4.80895L78.7812 9.66776L79.6504 5.02933C79.836 4.06755 80.5099 3.55664 81.467 3.55664C82.4242 3.55664 83.0981 4.06755 83.2837 5.02933L83.9771 8.64586L83.899 8.96652H83.8794ZM85.237 4.80895C85.3152 4.43827 85.4518 4.09771 85.7839 3.8773C86.0769 3.65689 86.4579 3.55664 86.8193 3.55664C87.7471 3.55664 88.6359 4.17766 88.6359 5.17951C88.6359 5.36986 88.6164 5.57029 88.5578 5.75063L87.3076 10.0987C87.122 10.7399 86.5458 10.9802 85.9402 10.9802C85.3933 10.9802 84.8464 10.78 84.5045 10.3191C84.2213 9.94843 84.192 9.5377 84.2701 9.09688L85.2468 4.79892L85.237 4.80895Z" fill="var(--fill-0, white)"/>
</g>
</svg>
