<svg preserveAspectRatio="none" width="100%" height="100%" overflow="visible" style="display: block;" viewBox="0 0 101.517 32.1895" fill="none" xmlns="http://www.w3.org/2000/svg">
<g id="Group">
<path id="Vector" d="M28.2651 10.2276L22.7762 10.1175C22.1804 14.4154 20.3638 18.573 17.6779 22.0494C20.5787 24.7744 24.3487 26.6681 28.8219 27.4595C29.867 27.6399 30.3259 28.3912 30.3259 29.1426C30.3259 30.2145 29.5251 31.3265 28.2262 31.3265C27.982 31.3265 21.3795 30.5751 15.4706 24.554C9.11242 31.036 2.15842 31.7873 2.02168 31.7873C0.76176 31.7873 0 30.7855 0 29.7836C0 29.0323 0.488327 28.2809 1.57244 28.1006C6.15309 27.3092 10.1282 25.0551 13.1657 21.8992C11.7299 19.9957 10.5482 17.9619 9.63985 15.8079C6.98328 18.3125 6.07495 18.3928 5.72335 18.3928C4.7076 18.3928 3.90673 17.5713 3.90673 16.6395C3.90673 15.9583 4.28765 15.2769 5.26433 14.7359C7.0126 13.7641 8.68266 12.1511 9.3468 10.979C9.59097 10.5482 10.0501 10.3379 10.4993 10.3379C11.4077 10.3379 12.3843 11.0593 12.3843 11.951C12.3843 12.1313 12.3843 12.2713 12.0327 12.9927C12.7652 15.317 13.8103 17.4711 15.246 19.3746C17.2384 16.5794 18.5667 13.3935 19.0551 10.0573C18.0393 10.0573 17.1017 10.0172 16.125 10.0172C12.7067 10.0172 9.03424 10.1274 2.11932 10.2276H2.08034C0.996221 10.2276 0.468789 9.43625 0.468789 8.61473C0.468789 7.79322 1.0645 6.8615 2.10955 6.8615L13.4294 6.90161L13.3903 1.92246C13.3903 0.810413 14.3279 0.279297 15.246 0.279297C16.1641 0.279297 17.1017 0.820431 17.1017 1.92246L17.0626 6.90161L28.2456 6.8615C29.2906 6.8615 29.818 7.72306 29.818 8.58465C29.818 9.44624 29.3297 10.2376 28.2847 10.2376H28.2456L28.2651 10.2276Z" fill="var(--fill-0, #236242)"/>
<path id="Vector_2" d="M54.5695 22.5215C54.6378 23.0224 54.6769 23.5635 54.6769 24.0945C54.6769 27.3204 53.2119 32.1895 47.1272 32.1895C44.4022 32.1895 42.9371 31.4379 42.9371 30.0354C42.9371 29.1437 43.6013 28.3523 44.578 28.3523C44.7538 28.3523 44.9296 28.3524 45.1347 28.4225C45.9063 28.673 46.7071 28.8131 47.4396 28.8131C51.3561 28.8131 51.3561 24.0145 51.3561 23.7239C51.3561 23.2931 51.3171 22.9022 51.2487 22.5014L36.4422 22.5716C35.3581 22.5716 34.8306 21.7801 34.8306 20.9987C34.8306 20.2172 35.3874 19.3457 36.4032 19.3457L49.3247 19.4159C48.9047 19.1254 48.4554 18.8449 47.928 18.6645C47.1955 18.4141 46.883 17.943 46.883 17.4822C46.883 16.7308 47.6839 15.9794 48.7387 15.9794C49.5103 15.9794 50.2428 16.3703 50.7995 16.701C51.7078 16.0898 53.5635 14.7673 53.5635 14.3365C53.5635 14.1962 53.4267 14.1261 53.1825 14.1261C52.8016 14.0861 52.1375 14.086 51.3268 14.086C49.0902 14.086 45.7011 14.1561 43.2594 14.2663H43.1911C42.146 14.2663 41.6186 13.5149 41.6186 12.7635C41.6186 12.0121 42.1461 11.2908 43.2302 11.2608C44.7343 11.1906 46.6193 11.1908 48.4652 11.1908C51.0143 11.1908 53.5635 11.2307 55.175 11.2608C57.1674 11.3008 58.0074 12.3329 58.0074 13.445C58.0074 15.1982 56.1516 16.6709 53.0165 18.6746C53.1923 18.925 53.3681 19.1755 53.5048 19.426L63.9163 19.3156C64.932 19.3156 65.4497 20.1373 65.4497 20.9688C65.4497 21.8004 64.9613 22.5416 63.9456 22.5416L54.589 22.5014L54.5695 22.5215ZM60.3319 11.0504C60.3319 9.54763 59.5603 9.29713 58.1344 9.25706C55.3411 9.21698 52.1961 9.1871 49.1586 9.1871C46.6778 9.1871 44.2361 9.227 42.0679 9.25706C40.1438 9.29713 39.8313 9.79809 39.7238 11.0504V13.1644C39.7238 14.1663 38.8546 14.7371 37.9463 14.7371C37.1454 14.7371 36.3055 14.2363 36.2664 13.1243C36.2664 12.6634 36.2273 12.1224 36.2273 11.5513C36.2273 10.9402 36.2664 10.3291 36.2664 9.79809C36.3348 8.11499 37.6337 6.39188 40.3587 6.36183L43.2887 6.32171C43.1129 6.21151 42.9762 6.03118 42.8395 5.82079C42.107 4.56848 41.3354 4.09754 40.3978 3.23595C40.0853 2.94541 39.9486 2.62489 39.9486 2.3043C39.9486 1.51284 40.8178 0.761414 41.7261 0.761414C43.0544 0.761414 45.7793 3.48641 45.7793 4.73872C45.7793 5.3799 45.33 5.99109 44.7635 6.31169C47.8401 6.27161 50.8776 6.27157 53.9542 6.27157C54.9699 5.08939 55.8781 3.0156 56.4348 1.54288C56.7474 0.721369 57.3823 0.400886 58.0074 0.400886C58.9841 0.400886 59.9998 1.15227 59.9998 2.15412C59.9998 2.83537 58.8864 4.58851 57.4506 6.31169C58.2515 6.31169 59.0915 6.3518 59.8923 6.3518C61.9531 6.39187 63.8772 7.53388 63.9456 9.75798C63.9847 10.2589 63.9847 11.0105 63.9847 11.6917C63.9847 12.1926 63.9847 12.6633 63.9456 13.014C63.8772 14.0559 62.9689 14.587 62.0899 14.587C61.2109 14.587 60.3416 14.086 60.3416 13.0842V11.0404L60.3319 11.0504ZM50.4479 6.14145C49.9596 6.14145 49.5004 5.89088 49.2563 5.27975C48.7679 3.95732 47.9963 3.16578 47.1955 2.19399C46.9904 1.94352 46.883 1.65319 46.883 1.40273C46.883 0.651347 47.7522 0 48.6605 0C50.4381 0 52.3622 3.51656 52.3622 4.33808C52.3622 5.30987 51.3464 6.13142 50.4381 6.13142L50.4479 6.14145Z" fill="var(--fill-0, #236242)"/>
<path id="Vector_3" d="M79.3655 30.4761C79.3655 31.4779 78.5255 31.9788 77.6563 31.9788C76.787 31.9788 75.9471 31.4779 75.9471 30.4761V30.436L76.0838 19.0448C74.8923 20.9784 73.4956 22.7718 72.2454 24.1744C71.8255 24.6052 71.3762 24.8155 70.9172 24.8155C69.9795 24.8155 69.1395 23.994 69.1395 23.1325C69.1395 22.7017 69.3154 22.311 69.7354 21.9102C71.6204 20.1871 74.4527 16.6806 76.1326 13.3845L76.0935 12.6331L72.011 12.7432H71.9719C70.9269 12.7432 70.4386 11.992 70.4386 11.2005C70.4386 10.4091 70.966 9.62758 72.011 9.62758H76.0643L75.9959 6.081C75.3317 6.1912 72.9877 6.62203 72.6068 6.62203C71.5618 6.62203 71.005 5.80041 71.005 5.00895C71.005 4.29764 71.4544 3.57627 72.4017 3.46607C75.6834 3.14548 78.0567 2.57456 81.0649 1.35231C81.27 1.28218 81.4458 1.242 81.6216 1.242C82.5299 1.242 83.194 2.03359 83.194 2.88516C83.194 4.13747 81.8658 4.60827 79.3557 5.31958C79.3166 6.07097 79.3166 7.68398 79.2873 9.61755H82.8522C83.8972 9.61755 84.4246 10.4091 84.4246 11.1905C84.4246 11.972 83.8973 12.7332 82.8913 12.7332H82.8522L79.219 12.6632V14.4164C79.3557 14.3764 79.4631 14.3763 79.5706 14.3763C80.8598 14.3763 83.7313 16.9611 83.8973 17.1715C84.2489 17.5622 84.3857 17.9629 84.3857 18.3937C84.3857 19.2854 83.6531 20.1169 82.8522 20.1169C82.4713 20.1169 82.0806 19.9364 81.7388 19.5057C81.143 18.7142 80.098 17.8227 79.219 17.1815C79.258 22.5915 79.3947 30.436 79.3947 30.436V30.4761H79.3655ZM92.8827 22.341L84.5321 24.7453C84.327 24.8154 84.1512 24.8155 83.9754 24.8155C83.028 24.8155 82.5104 24.0641 82.5104 23.2726C82.5104 22.6314 82.8913 21.9802 83.7019 21.7297L92.8925 19.0749L92.8241 2.09366C92.8241 1.05174 93.625 0.550781 94.465 0.550781C95.3049 0.550781 96.1742 1.09182 96.1742 2.09366L96.1058 18.1834L99.5242 17.1815C99.7 17.1415 99.8758 17.1113 100.013 17.1113C100.921 17.1113 101.517 17.9327 101.517 18.7242C101.517 19.3353 101.165 19.9466 100.403 20.157L96.1058 21.3792L96.1742 30.5861C96.1742 31.5179 95.3342 31.9889 94.4943 31.9889C93.6543 31.9889 92.8143 31.5279 92.8143 30.5861L92.8827 22.341ZM88.2728 16.891C87.2571 15.819 85.8311 14.8472 85.0595 14.3462C84.5712 14.0557 84.3563 13.6348 84.3563 13.2341C84.3563 12.5228 85.0595 11.8015 86.0655 11.8015C87.2864 11.8015 89.8062 13.6649 90.4313 14.3061C90.8512 14.7369 91.027 15.1979 91.027 15.6687C91.027 16.6405 90.2945 17.4621 89.4252 17.4621C89.0443 17.4621 88.6537 17.2817 88.2728 16.891ZM88.556 9.29689C87.6867 8.11471 86.3585 6.9727 85.5478 6.39163C85.1669 6.10109 84.9912 5.78033 84.9912 5.45973C84.9912 4.70835 85.8311 3.95696 86.7394 3.95696C87.6477 3.95696 91.3884 6.39167 91.3884 8.18497C91.3884 9.18682 90.6168 10.0082 89.7768 10.0082C89.3569 10.0082 88.9369 9.7978 88.556 9.28686V9.29689Z" fill="var(--fill-0, #236242)"/>
</g>
</svg>
