<svg width="306" height="581" viewBox="0 0 306 581" fill="none" xmlns="http://www.w3.org/2000/svg">
<path d="M13.9609 31.849V28.1289" stroke="#236242" stroke-linecap="round" stroke-linejoin="round"/>
<path d="M13.8789 23.0192V19.1191" stroke="#236242" stroke-linecap="round" stroke-linejoin="round"/>
<path d="M20.0598 25.75H16.3398" stroke="#236242" stroke-linecap="round" stroke-linejoin="round"/>
<path d="M11.5694 25.75H7.85938" stroke="#236242" stroke-linecap="round" stroke-linejoin="round"/>
<path d="M18.4084 21L15.6484 23.75" stroke="#236242" stroke-linecap="round" stroke-linejoin="round"/>
<path d="M12.2684 27.4297L9.64844 30.0597" stroke="#236242" stroke-linecap="round" stroke-linejoin="round"/>
<path d="M18.2684 30.0597L15.6484 27.4297" stroke="#236242" stroke-linecap="round" stroke-linejoin="round"/>
<path d="M12.1094 23.75L9.35938 21" stroke="#236242" stroke-linecap="round" stroke-linejoin="round"/>
<path d="M39.918 191.099V187.389" stroke="#236242" stroke-linecap="round" stroke-linejoin="round"/>
<path d="M39.8359 182.279V178.379" stroke="#236242" stroke-linecap="round" stroke-linejoin="round"/>
<path d="M46.0169 184.998H42.2969" stroke="#236242" stroke-linecap="round" stroke-linejoin="round"/>
<path d="M37.5264 184.998H33.8164" stroke="#236242" stroke-linecap="round" stroke-linejoin="round"/>
<path d="M44.3655 180.26L41.6055 183.01" stroke="#236242" stroke-linecap="round" stroke-linejoin="round"/>
<path d="M38.2277 186.689L35.5977 189.319" stroke="#236242" stroke-linecap="round" stroke-linejoin="round"/>
<path d="M44.2277 189.319L41.5977 186.689" stroke="#236242" stroke-linecap="round" stroke-linejoin="round"/>
<path d="M38.0664 183.01L35.3164 180.26" stroke="#236242" stroke-linecap="round" stroke-linejoin="round"/>
<path d="M119.16 0.5L119.49 2.92004L121.67 4.02002L119.47 5.08008L119.09 7.48999L117.41 5.72998L115 6.10999L116.15 3.97009L115.04 1.79004L117.44 2.22998L119.16 0.5Z" stroke="#236242" stroke-linecap="round" stroke-linejoin="round"/>
<path d="M275.286 287.079C275.126 287.079 271.346 286.879 269.446 284.249L269.366 284.139L269.236 284.119C269.056 284.089 268.876 284.059 268.706 284.019C266.946 283.629 265.366 282.799 264.136 281.619L263.816 281.309L264.446 280.649L264.766 280.959C265.886 282.039 267.316 282.789 268.896 283.139L269.216 283.209L269.316 283.159C269.376 283.129 269.446 283.109 269.516 283.109C269.646 283.109 269.766 283.159 269.856 283.249L269.896 283.289L269.946 283.379C270.456 284.249 271.276 284.949 272.386 285.449L273.046 285.739L272.846 285.049C272.706 284.559 272.726 284.009 272.906 283.419L272.936 283.319L272.886 283.139L273.186 283.049C273.186 283.049 273.246 283.029 273.266 283.019L273.316 282.999C275.576 282.319 277.196 280.729 277.636 278.749C278.036 276.949 277.436 275.049 275.996 273.519L275.706 273.179L276.346 272.579L276.656 272.909C278.306 274.659 278.986 276.859 278.526 278.949C278.036 281.129 276.316 282.929 273.926 283.759L273.736 283.819L273.706 284.019C273.636 284.429 273.696 284.789 273.866 285.109C274.306 285.909 275.386 286.169 275.426 286.189C275.656 286.239 275.806 286.459 275.766 286.689C275.736 286.909 275.556 287.069 275.336 287.079H275.306H275.286ZM260.386 281.069C258.556 281.099 256.986 280.479 256.816 280.409C256.606 280.319 256.486 280.079 256.556 279.849C256.616 279.669 256.786 279.539 256.976 279.539C257.006 279.539 257.046 279.539 257.076 279.539C257.136 279.549 257.386 279.599 257.706 279.589C258.056 279.589 258.556 279.519 258.946 279.229C259.226 279.029 259.426 278.739 259.546 278.359L259.606 278.149L259.436 278.009C256.916 275.949 255.776 273.059 256.396 270.279C257.166 266.809 260.656 264.329 264.876 264.249C265.766 264.229 266.676 264.329 267.566 264.519C271.936 265.489 275.226 268.939 275.396 272.699L275.416 273.169L275.366 273.659C275.336 273.919 275.296 274.169 275.236 274.449C274.466 277.909 270.976 280.379 266.756 280.459C266.096 280.469 265.546 280.449 265.036 280.379L264.356 280.289L264.106 280.239H264.066C264.066 280.239 263.836 280.179 263.766 280.169L263.626 280.139L263.506 280.209C262.616 280.759 261.566 281.049 260.386 281.079V281.069ZM260.286 278.949V278.979C260.166 279.209 260.036 279.419 259.886 279.599L259.416 280.139H260.136C260.216 280.149 260.306 280.149 260.386 280.149C261.336 280.129 262.176 279.919 262.886 279.529L263.006 279.459L263.126 279.039L263.556 279.169C263.796 279.239 264.036 279.299 264.276 279.359C265.106 279.539 265.936 279.629 266.766 279.609C270.566 279.539 273.686 277.349 274.376 274.289C275.236 270.439 272.096 266.459 267.386 265.409C266.556 265.229 265.726 265.139 264.896 265.149C261.096 265.219 257.976 267.409 257.286 270.479C256.716 273.019 257.896 275.739 260.346 277.579C260.436 277.639 260.506 277.699 260.586 277.759L260.956 278.019L260.296 278.969L260.286 278.949Z" fill="#236242"/>
<path d="M122.957 459.789C122.957 459.789 124.777 459.699 124.147 464.159L124.737 464.699L124.167 465.509C124.167 465.509 123.537 473.239 126.377 477.409L127.187 477.449C127.187 477.449 127.247 480.159 129.787 480.239C129.787 480.239 133.597 480.559 133.587 477.939C133.587 475.319 131.777 474.229 131.777 474.229L139.757 470.799C139.757 470.799 138.247 468.479 137.757 467.889H137.077L134.637 471.219L134.277 471.579C134.167 471.689 133.807 471.799 133.647 471.769L133.157 471.669C132.797 471.609 132.587 471.109 132.647 470.749L132.847 470.199L135.627 465.279L136.707 460.449L137.267 459.639C137.267 459.639 136.327 455.019 135.507 455.099C134.687 455.179 123.167 459.009 123.167 459.009L122.957 459.769V459.789Z" fill="#F4C058"/>
<path d="M147.148 460.77C147.048 460.75 146.968 460.7 146.918 460.62C146.868 460.54 146.838 460.44 146.858 460.35C146.868 460.28 146.898 460.21 146.948 460.16C147.028 460.04 147.148 459.99 147.278 459.99C147.288 459.99 147.308 459.99 147.318 459.99C147.418 460.01 147.498 460.06 147.558 460.14C147.618 460.22 147.638 460.32 147.618 460.41C147.608 460.48 147.578 460.55 147.538 460.6C147.468 460.69 147.388 460.75 147.298 460.77C147.268 460.77 147.238 460.77 147.208 460.77C147.188 460.77 147.178 460.77 147.158 460.77H147.148Z" fill="#236242"/>
<path d="M146.65 471.75C146.56 471.75 146.47 471.71 146.4 471.64C146.33 471.57 146.3 471.48 146.3 471.38C146.3 471.28 146.34 471.19 146.41 471.12C146.47 471.07 146.51 471 146.53 470.93C146.53 470.93 146.54 470.91 146.55 470.9C146.61 470.82 146.7 470.67 146.64 470.5L146.59 470.36L146.42 470.29C146.42 470.29 146.36 470.28 146.33 470.27C146.23 470.27 146 470.31 145.99 470.31C145.96 470.31 145.93 470.31 145.91 470.31C145.74 470.31 145.6 470.18 145.57 470.01C145.55 469.91 145.57 469.81 145.63 469.73C145.69 469.65 145.77 469.6 145.86 469.59C145.95 469.57 146.04 469.57 146.13 469.57C146.24 469.57 146.35 469.6 146.45 469.63C147.08 469.84 147.42 470.52 147.21 471.16C147.15 471.34 147.04 471.51 146.9 471.65C146.85 471.7 146.79 471.73 146.72 471.75C146.69 471.75 146.66 471.75 146.63 471.75H146.65Z" fill="#236242"/>
<path d="M129.419 481.93C128.569 481.89 127.839 481.55 127.299 480.96C127.229 480.88 127.169 480.82 127.109 480.76C126.729 480.37 126.629 480.16 126.739 479.59L126.829 479.14L126.379 479.24C126.379 479.24 126.319 479.24 126.289 479.24C126.179 479.24 126.079 479.18 126.019 479.09C125.199 477.98 124.689 476.47 124.289 475.15C123.759 473.37 123.519 471.53 123.639 470.09C123.709 469.22 123.789 468.2 123.809 467.19C123.809 467.17 123.809 467.14 123.809 467.12V467.06V467C123.779 466.85 123.849 466.71 123.969 466.63L124.369 466.37L123.959 466.12C123.849 466.06 123.789 465.95 123.779 465.82C123.779 465.69 123.769 465.57 123.759 465.45L123.729 464.99C123.689 464.33 123.649 463.64 123.489 463.01L122.899 463.04C122.749 464.28 122.049 465.24 121.079 465.56C120.989 465.59 120.889 465.61 120.799 465.63C120.609 465.67 120.419 465.68 120.219 465.67C119.979 465.66 119.739 465.61 119.499 465.53C119.309 465.47 119.209 465.26 119.269 465.07C119.319 464.92 119.469 464.81 119.629 464.82C119.659 464.82 119.699 464.82 119.729 464.84C119.899 464.9 120.079 464.93 120.249 464.94C120.449 464.95 120.649 464.92 120.849 464.86C121.979 464.49 122.509 462.87 121.999 461.33C121.579 460.06 120.589 459.15 119.569 459.1C119.369 459.09 119.169 459.12 118.979 459.18C118.569 459.31 118.229 459.61 117.989 460.03L117.789 460.38L117.489 460.23C117.289 460.13 117.229 459.9 117.319 459.73C117.649 459.11 118.149 458.68 118.759 458.48C119.029 458.39 119.319 458.35 119.609 458.37C119.779 458.37 119.959 458.41 120.129 458.45L120.289 458.49L120.409 458.37C120.409 458.37 120.509 458.3 120.569 458.28L132.989 454.78C132.989 454.78 133.059 454.77 133.099 454.77H133.309L133.379 454.57C133.389 454.54 133.409 454.51 133.419 454.48C133.749 454.01 134.179 453.71 134.669 453.61C134.809 453.58 134.959 453.57 135.109 453.58C135.699 453.61 136.289 453.93 136.769 454.48L136.919 454.65L137.119 454.56C137.199 454.53 137.249 454.52 137.299 454.5C137.389 454.48 137.469 454.48 137.559 454.48C138.229 454.51 138.819 455.15 138.989 456.03C139.179 457.03 138.759 457.93 138.009 458.08L137.809 458.12L137.769 458.32C137.679 458.82 137.499 459.28 137.249 459.63L137.169 459.75L137.209 459.89C137.319 460.24 137.389 460.61 137.449 460.99L137.549 461.72L137.989 461.13C139.889 458.58 142.639 457.26 144.659 456.29C145.859 455.71 146.899 455.22 147.489 454.63C147.499 454.62 147.509 454.61 147.529 454.6L147.579 454.57L147.619 454.55C147.619 454.55 147.639 454.55 147.659 454.54H147.709L147.759 454.53H147.799L147.849 454.54L147.889 454.56L147.939 454.58L147.979 454.6L148.019 454.64L148.059 454.68L148.089 454.74C148.089 454.74 148.109 454.79 148.109 454.8C148.309 455.56 148.479 457.62 147.979 458.95C147.919 459.1 147.779 459.19 147.619 459.19C147.579 459.19 147.539 459.19 147.509 459.17C147.319 459.1 147.229 458.89 147.299 458.7C147.369 458.53 147.419 458.33 147.459 458.11L146.919 457.89C145.949 459.34 144.469 460.75 143.019 462.06L142.219 462.78L143.269 462.58C144.399 462.36 145.329 461.98 146.019 461.46C146.109 461.39 146.199 461.38 146.259 461.39C146.369 461.39 146.469 461.45 146.529 461.53C146.649 461.69 146.619 461.92 146.459 462.04C146.389 462.09 146.319 462.14 146.249 462.19L145.729 462.55L146.339 462.73C146.339 462.73 146.399 462.75 146.419 462.76C146.509 462.81 146.569 462.89 146.589 462.98C146.609 463.07 146.599 463.17 146.549 463.26C146.409 463.5 145.149 465.6 143.659 466.33L143.629 466.35L143.599 466.37C143.069 466.82 141.179 468.34 139.239 468.72C138.889 468.79 138.549 468.82 138.239 468.8C137.709 468.77 137.229 468.63 136.819 468.36L136.599 468.22L136.419 468.41C135.139 469.92 134.219 471.37 133.589 472.84C133.539 472.95 133.439 473.03 133.319 473.06C133.289 473.06 133.259 473.06 133.229 473.06C133.189 473.06 133.149 473.05 133.109 473.03C133.019 472.99 132.949 472.92 132.909 472.83C132.869 472.74 132.869 472.64 132.909 472.55C133.599 470.94 134.619 469.36 136.029 467.72L136.139 467.59L136.079 467.43C135.699 466.35 136.009 464.71 136.959 462.82L137.059 462.62L136.899 462.47C136.829 462.4 136.789 462.31 136.789 462.2C136.789 461.15 136.619 460.22 136.229 459.37C136.169 459.24 136.109 459.09 136.049 458.94C135.599 457.83 135.149 456.91 134.309 456.87H134.059L133.999 457.1C133.969 457.23 133.869 457.33 133.749 457.37L123.909 460.3C123.849 460.31 123.819 460.32 123.789 460.32C123.639 460.32 123.499 460.21 123.459 460.06C123.399 459.87 123.509 459.66 123.709 459.6L133.549 456.67C133.549 456.67 133.609 456.66 133.639 456.66H133.869L133.919 456.43C133.919 456.4 133.939 456.36 133.959 456.33L134.019 456.22L133.989 456.1C133.959 455.99 133.989 455.87 134.049 455.78C134.209 455.58 134.409 455.44 134.639 455.4C134.709 455.39 134.789 455.38 134.859 455.38C135.519 455.41 136.109 456.14 136.309 457.14C136.339 457.27 136.349 457.4 136.359 457.53C136.359 457.57 136.359 457.61 136.349 457.65L136.319 457.76L136.369 457.86C136.419 457.95 136.459 458.05 136.499 458.14L136.929 459.11L137.069 458.05C137.129 457.63 137.109 457.18 137.019 456.74C136.759 455.41 135.909 454.38 135.039 454.34C134.959 454.34 134.869 454.34 134.789 454.36C134.409 454.44 134.149 454.71 133.999 454.93C133.929 455.03 133.819 455.09 133.689 455.09H133.469L133.399 455.29C133.359 455.4 133.269 455.49 133.149 455.52L121.099 458.91L121.489 459.27C121.869 459.62 122.179 460.04 122.419 460.53L122.509 460.71L122.709 460.69C122.709 460.69 122.739 460.69 122.759 460.69C122.819 460.69 122.899 460.71 122.979 460.78C124.219 461.85 124.329 463.57 124.409 464.95L124.449 465.5L126.609 465.56C126.789 465.56 126.929 465.69 126.959 465.86C126.989 466.03 126.899 466.2 126.739 466.26L124.489 467.18V467.38C124.459 468.37 124.389 469.33 124.319 470.15C124.209 471.49 124.429 473.24 124.939 474.94C125.259 476 125.659 477.21 126.239 478.18L126.389 478.43L126.639 478.29C126.979 478.1 127.449 477.81 127.869 477.55C127.929 477.51 128.009 477.49 128.089 477.49C128.179 477.49 128.269 477.53 128.339 477.6C128.459 477.73 128.469 477.92 128.369 478.06C128.029 478.54 127.509 479.34 127.439 479.62C127.409 479.76 127.399 479.84 127.389 479.88V480.01L127.459 480.11C127.489 480.14 127.529 480.19 127.569 480.23C127.639 480.3 127.709 480.37 127.789 480.46C128.299 481.02 128.949 481.17 129.409 481.19C130.279 481.23 131.249 480.87 131.889 480.27C132.349 479.84 132.659 479.12 132.679 478.38L132.719 477.33L132.139 478.2C131.909 478.54 131.569 478.77 131.169 478.85C131.049 478.87 130.929 478.88 130.799 478.88C130.099 478.85 129.519 478.34 129.379 477.65C129.299 477.25 129.379 476.85 129.609 476.51C129.839 476.17 130.179 475.94 130.579 475.87C130.699 475.85 130.819 475.84 130.949 475.84C131.029 475.84 131.109 475.85 131.179 475.87L131.369 475.91L131.479 475.75C131.519 475.69 131.569 475.65 131.639 475.62L139.349 472.47L138.739 472.18C137.809 471.73 137.089 470.92 136.669 469.83C136.629 469.74 136.639 469.64 136.669 469.55C136.699 469.46 136.779 469.39 136.869 469.36C136.919 469.34 136.969 469.33 137.019 469.34C137.159 469.34 137.289 469.44 137.339 469.57C137.869 470.91 138.919 471.75 140.169 471.81C140.429 471.82 140.689 471.81 140.959 471.75C140.989 471.75 141.019 471.75 141.049 471.75H141.119L144.509 470.37C144.559 470.35 144.609 470.34 144.669 470.34C144.809 470.34 144.939 470.44 144.989 470.57L145.039 470.69L145.169 470.77C145.279 470.81 145.349 470.9 145.379 471.01C145.609 471.86 145.649 472.8 145.479 473.67C145.449 473.82 145.339 473.93 145.189 473.96C145.159 473.96 145.129 473.96 145.099 473.96C145.079 473.96 145.069 473.96 145.049 473.96C144.849 473.92 144.719 473.73 144.759 473.53C144.889 472.85 144.879 472.13 144.729 471.45L144.649 471.1L132.539 476.04L132.789 476.35C133.129 476.78 133.339 477.32 133.399 477.93C133.459 478.5 133.379 479.08 133.169 479.61L132.879 480.36L133.589 479.98C134.189 479.66 134.789 479.29 135.319 478.96L135.499 478.85C136.629 478.16 138.109 477.54 139.909 477.01H139.939L139.969 476.98C140.009 476.96 140.059 476.94 140.109 476.92C140.149 476.91 140.189 476.9 140.219 476.91C140.379 476.91 140.509 477.03 140.549 477.18C140.589 477.33 140.529 477.49 140.399 477.58C140.339 477.63 140.279 477.66 140.209 477.68C138.429 478.2 136.969 478.81 135.879 479.48L135.699 479.59C134.329 480.43 132.779 481.38 131.069 481.72C131.039 481.72 131.009 481.72 130.979 481.72C130.959 481.72 130.939 481.72 130.919 481.72L130.839 481.7L130.759 481.72C130.599 481.77 130.439 481.81 130.289 481.84C129.979 481.9 129.679 481.92 129.379 481.91H129.359L129.419 481.93ZM130.959 476.58C130.899 476.58 130.829 476.58 130.769 476.59C130.559 476.63 130.379 476.75 130.269 476.92C130.149 477.1 130.109 477.31 130.149 477.51C130.219 477.87 130.519 478.13 130.879 478.15C130.939 478.15 131.009 478.15 131.069 478.14C131.499 478.06 131.779 477.64 131.689 477.21C131.619 476.85 131.319 476.59 130.949 476.57L130.959 476.58ZM138.089 466.6C137.829 466.86 137.579 467.12 137.329 467.39L137.049 467.69L137.419 467.87C137.679 468 137.979 468.07 138.299 468.09C138.939 468.12 139.709 467.93 140.559 467.53L140.429 466.96C140.339 466.96 140.249 466.96 140.149 466.96C139.499 466.93 138.919 466.79 138.409 466.56L138.219 466.47L138.069 466.62L138.089 466.6ZM140.049 459.97C139.069 460.85 138.309 461.81 137.719 462.93C137.089 464.13 136.699 465.34 136.659 466.25L136.619 467.05L137.179 466.47C138.319 465.29 139.519 464.2 140.679 463.15L140.929 462.93L140.889 462.76C140.689 461.96 140.569 461.03 140.559 460.2V459.54L140.059 459.98L140.049 459.97ZM141.289 463.62C140.609 464.23 139.869 464.88 139.149 465.56L138.759 465.93L139.279 466.07C139.559 466.14 139.859 466.19 140.189 466.2C141.459 466.26 142.769 465.89 143.339 465.66C143.359 465.66 143.369 465.65 143.389 465.64H143.429L143.459 465.61C143.839 465.4 144.249 465.06 144.679 464.58L145.219 463.99L144.419 464.09C144.169 464.12 143.909 464.13 143.649 464.12C142.719 464.07 141.979 463.76 141.629 463.58L141.449 463.49L141.299 463.63L141.289 463.62ZM142.339 458.34C142.039 458.52 141.749 458.7 141.459 458.89L141.339 458.97V459.12C141.289 459.69 141.249 460.82 141.449 461.88L141.549 462.4L141.939 462.05C142.369 461.66 142.799 461.28 143.199 460.91L143.409 460.71L143.219 460.49C143.219 460.49 143.169 460.42 143.149 460.37C143.069 460.15 142.819 459.38 142.769 458.57L142.739 458.08L142.319 458.33L142.339 458.34ZM146.389 456.28C145.959 456.51 145.479 456.74 144.979 456.98C144.579 457.17 144.149 457.38 143.729 457.59L143.619 457.65L143.579 457.77C143.429 458.26 143.569 459.14 143.749 459.79L143.889 460.28L144.249 459.92C145.479 458.69 146.289 457.66 146.799 456.69L147.239 455.84L146.399 456.29L146.389 456.28ZM137.649 456.15L137.689 456.28L138.269 456.14C138.259 456.08 138.239 456.03 138.219 455.98L137.649 456.16V456.15ZM118.509 464.46C118.409 464.46 118.319 464.41 118.249 464.33L118.149 464.21L117.989 464.23C117.939 464.23 117.879 464.23 117.829 464.23C117.219 464.2 116.699 463.64 116.549 462.87C116.429 462.27 116.579 461.68 116.929 461.33L116.999 461.26L117.019 461.16C117.039 461.03 117.129 460.92 117.259 460.88L117.609 460.75L119.069 460.22C119.069 460.22 119.139 460.2 119.179 460.2C119.229 460.2 119.269 460.2 119.319 460.2C119.969 460.23 120.589 460.71 120.909 461.42C121.289 462.29 121.109 463.25 120.439 463.92C120.389 463.97 120.339 464 120.269 464.01L118.629 464.43C118.579 464.44 118.549 464.44 118.519 464.44L118.509 464.46ZM118.379 461.26L118.619 461.58C118.789 461.81 118.919 462.09 118.979 462.4C119.029 462.66 119.029 462.91 118.979 463.16L118.889 463.62L119.969 463.34L120.029 463.26C120.529 462.63 120.329 461.98 120.209 461.73C120.019 461.31 119.669 461 119.319 460.95H119.249L118.369 461.26H118.379ZM117.449 461.84C117.299 461.97 117.169 462.31 117.259 462.73C117.339 463.16 117.579 463.42 117.769 463.48L117.929 463.54L118.059 463.43C118.209 463.3 118.339 462.96 118.249 462.54C118.169 462.12 117.929 461.85 117.739 461.79L117.579 461.73L117.449 461.84Z" fill="#236242"/>
<path d="M143.389 476.59C143.269 476.59 143.159 476.52 143.089 476.41C143.039 476.33 143.019 476.23 143.049 476.13C143.069 476.04 143.129 475.96 143.219 475.9C143.599 475.67 143.899 475.4 144.149 475.08C144.209 475 144.279 474.91 144.329 474.81C144.399 474.7 144.529 474.63 144.659 474.64C144.719 474.64 144.779 474.66 144.829 474.69C144.909 474.74 144.969 474.82 144.999 474.92C145.019 475.01 144.999 475.11 144.959 475.2C144.889 475.32 144.809 475.43 144.729 475.53C144.419 475.93 144.049 476.26 143.599 476.53C143.559 476.55 143.519 476.57 143.479 476.58C143.449 476.58 143.419 476.58 143.389 476.58V476.59Z" fill="#236242"/>
<path d="M142.03 477.24C141.86 477.24 141.72 477.11 141.69 476.95C141.66 476.79 141.74 476.63 141.88 476.56L141.9 476.58C141.9 476.58 141.96 476.54 141.99 476.52H142.01C142.01 476.52 142.07 476.49 142.1 476.49C142.12 476.49 142.14 476.49 142.16 476.49C142.23 476.49 142.29 476.51 142.34 476.55C142.39 476.58 142.42 476.62 142.45 476.66C142.47 476.7 142.49 476.74 142.5 476.78C142.51 476.87 142.5 476.93 142.48 476.99C142.46 477.04 142.43 477.09 142.39 477.12C142.36 477.15 142.32 477.17 142.28 477.19C142.23 477.21 142.18 477.23 142.12 477.24C142.09 477.24 142.06 477.24 142.03 477.24Z" fill="#236242"/>
<path d="M123.348 479.089C123.198 479.089 123.078 478.989 122.988 478.819C122.898 478.639 122.968 478.419 123.148 478.329C123.208 478.299 123.268 478.289 123.328 478.289C123.358 478.289 123.388 478.289 123.408 478.299C123.558 478.329 123.658 478.399 123.748 478.519C123.808 478.599 123.828 478.699 123.808 478.789C123.788 478.889 123.738 478.969 123.658 479.029C123.618 479.059 123.568 479.079 123.518 479.089C123.488 479.089 123.458 479.089 123.428 479.089H123.338H123.348Z" fill="#236242"/>
<path d="M122.518 477.089C122.368 477.089 122.228 476.979 122.188 476.829C120.778 472.319 121.128 468.949 121.268 468.029C121.298 467.839 121.458 467.709 121.648 467.719C121.778 467.739 121.868 467.789 121.928 467.869C121.988 467.949 122.008 468.049 121.998 468.139C121.718 469.959 121.808 473.139 122.898 476.609C122.928 476.699 122.918 476.799 122.878 476.889C122.828 476.979 122.758 477.039 122.658 477.069C122.588 477.089 122.558 477.089 122.528 477.089H122.518Z" fill="#236242"/>
<path d="M297.187 364.639L285.177 367.059L283.977 361.879L295.987 359.449L297.187 364.639Z" fill="#F4C058"/>
<path d="M282.551 361.03L295.031 358.52L296.331 364.13L283.851 366.64L282.551 361.03ZM283.121 361.37L284.221 366.109L285.711 365.81L285.451 365.59L289.071 361.84L290.461 362.55L291.951 360.84L294.071 361.94L293.841 362.33L292.071 361.41L290.881 362.77L293.361 364.03L293.201 364.31L295.761 363.79L294.661 359.05L283.121 361.37ZM285.911 365.77L292.991 364.34L289.161 362.4L285.901 365.77H285.911Z" fill="#3C3D3D"/>
<path d="M289.301 357.679L294.491 356.639L294.591 357.069L289.401 358.119L289.301 357.679Z" fill="#3C3D3D"/>
<path d="M282.141 359.119L287.581 358.029L287.681 358.459L282.241 359.559L282.141 359.119Z" fill="#3C3D3D"/>
<path d="M284.211 368.059L296.601 365.559L296.701 365.999L284.311 368.489L284.211 368.059Z" fill="#3C3D3D"/>
<path d="M284.668 370.049L297.058 367.559L297.158 367.989L284.768 370.489L284.668 370.049Z" fill="#3C3D3D"/>
<path d="M288.828 355.669L294.018 354.619L294.118 355.059L288.928 356.099L288.828 355.669Z" fill="#3C3D3D"/>
<path d="M281.668 357.108L287.108 356.008L287.208 356.448L281.778 357.538L281.668 357.108Z" fill="#3C3D3D"/>
<path d="M287.629 372.899L288.089 372.799L288.689 375.389L304.989 372.109L301.569 357.299L298.679 357.879L298.579 357.449L301.469 356.869L301.029 354.979L298.039 355.579L297.939 355.149L301.399 354.449L305.549 372.449L288.329 375.919L287.629 372.899Z" fill="#3C3D3D"/>
<path d="M282.94 372.899C282.83 372.899 282.74 372.819 282.72 372.719L277.69 350.939C277.66 350.819 277.74 350.699 277.87 350.679L294.66 347.299C294.66 347.299 294.7 347.299 294.72 347.299C294.76 347.299 294.8 347.309 294.84 347.339C294.89 347.369 294.93 347.419 294.94 347.479L297.77 359.749L300.51 359.199L300.61 359.639L297.87 360.189L298.25 361.809L300.99 361.259L301.09 361.699L298.35 362.249L298.76 364.009L301.5 363.459L301.6 363.899L298.86 364.449L299.98 369.279C299.99 369.339 299.98 369.399 299.95 369.449C299.92 369.499 299.86 369.529 299.8 369.549L283.01 372.929C283.01 372.929 282.97 372.929 282.95 372.929L282.94 372.899ZM278.82 353.719L283.14 372.409L299.46 369.119L295.14 350.429L278.82 353.719ZM278.2 351.059L278.71 353.279L295.03 349.989L294.52 347.769L278.2 351.059Z" fill="#3C3D3D"/>
<path d="M291.289 372.159L291.759 372.059L291.969 372.959L293.469 372.659L293.569 373.089L291.599 373.489L291.289 372.159Z" fill="#3C3D3D"/>
<path d="M293.852 372.579L294.852 372.379L294.952 372.809L293.962 373.019L293.852 372.579Z" fill="#3C3D3D"/>
<path d="M299.078 371.528L299.728 371.398L299.828 371.828L299.178 371.958L299.078 371.528Z" fill="#3C3D3D"/>
<path d="M297.418 371.859L298.058 371.729L298.158 372.169L297.518 372.299L297.418 371.859Z" fill="#3C3D3D"/>
<path d="M295.82 372.179L296.47 372.049L296.57 372.489L295.92 372.619L295.82 372.179Z" fill="#3C3D3D"/>
<path d="M300.539 371.228L301.059 371.128L299.719 365.348L300.189 365.258L301.619 371.468L300.639 371.668L300.539 371.228Z" fill="#3C3D3D"/>
<path d="M280.949 354.949L293.429 352.439L293.529 352.879L281.049 355.389L280.949 354.949Z" fill="#3C3D3D"/>
<path d="M211.74 533.5L220.61 538.45L221.39 542.37L210.72 546.28L208 534.93L211.74 533.5Z" fill="#70B791"/>
<path d="M210 535.33L223.39 542.85L212.46 546.63L210 535.33Z" stroke="#020B18" stroke-width="1.32" stroke-linecap="round" stroke-linejoin="round"/>
<path d="M213.684 533.75L218.184 536.28L214.434 537.69L213.684 533.75Z" stroke="#020B18" stroke-width="1.32" stroke-linecap="round" stroke-linejoin="round"/>
<path d="M218.121 536.229L222.621 538.759L218.871 540.159L218.121 536.229Z" stroke="#020B18" stroke-width="1.32" stroke-linecap="round" stroke-linejoin="round"/>
<path d="M214.41 537.67L218.92 540.17L218.15 536.24L214.41 537.67Z" stroke="#020B18" stroke-width="1.32" stroke-linecap="round" stroke-linejoin="round"/>
<path d="M218.84 540.149L223.36 542.649L222.58 538.719L218.84 540.149Z" stroke="#020B18" stroke-width="1.32" stroke-linecap="round" stroke-linejoin="round"/>
<path d="M209.973 535.199L214.493 537.699L213.713 533.77L209.973 535.199Z" stroke="#020B18" stroke-width="1.32" stroke-linecap="round" stroke-linejoin="round"/>
<path d="M214.231 537.879L212.691 546.549L218.801 540.349" stroke="#020B18" stroke-width="1.32" stroke-linecap="round" stroke-linejoin="round"/>
<path d="M16.0251 369.736L10.707 367.371L9.40702 370.295L14.7251 372.659L16.0251 369.736Z" fill="#F4C058"/>
<path d="M17.3838 377.227L16.0273 373.699L12.4991 375.056L13.8556 378.584L17.3838 377.227Z" fill="#F4C058"/>
<path d="M2.15718 372.899L15.8672 379.169C15.8672 379.169 12.2972 384.709 10.7772 384.129C9.25718 383.549 1.56718 379.799 1.56718 379.799C1.56718 379.799 0.197175 375.399 2.15718 372.889V372.899Z" fill="#F4C058"/>
<path d="M2.02738 375.219C1.90738 375.189 1.80738 375.118 1.74738 375.008C1.68738 374.908 1.66738 374.778 1.69738 374.658C1.72738 374.538 1.79738 374.438 1.90738 374.368C2.00738 374.308 2.13738 374.288 2.25738 374.318C2.37738 374.348 2.47738 374.418 2.53738 374.528C2.59738 374.628 2.61738 374.758 2.58738 374.878C2.55738 374.998 2.48738 375.098 2.37738 375.158C2.27738 375.218 2.14738 375.239 2.02738 375.209V375.219Z" fill="#3C3D3D"/>
<path d="M11.1373 384.119C11.1373 384.119 11.0773 384.099 11.0473 384.089L6.78732 381.989C6.78732 381.989 6.74733 381.979 6.72733 381.969L6.68733 381.949C5.93733 381.579 3.45732 380.339 2.92732 380.089C2.74732 380.009 2.57732 379.849 2.28732 378.809C2.17732 378.409 1.96732 377.589 1.85732 376.579C1.84732 376.459 1.87733 376.339 1.95733 376.239C2.03733 376.139 2.14732 376.079 2.26732 376.069C2.32732 376.069 2.37732 376.069 2.42732 376.069C2.61732 376.119 2.75733 376.269 2.77733 376.459C2.92733 377.779 3.24733 378.819 3.38733 379.189L3.42732 379.299L3.53732 379.349C4.36732 379.759 6.57733 380.859 7.05733 381.089L7.19732 381.159C7.19732 381.159 7.22732 381.169 7.24732 381.179L11.2673 383.159L11.3973 383.099C13.0773 382.369 15.3373 381.009 16.1873 379.599L16.6673 378.809L14.5473 379.659L13.9973 380.829C13.9073 381.029 13.6873 381.129 13.4773 381.079C13.4473 381.079 13.4173 381.059 13.3873 381.049C13.1573 380.939 13.0573 380.669 13.1673 380.439L13.8273 379.049L13.4373 378.069L13.2073 378.089C13.1573 378.089 13.1073 378.089 13.0573 378.079C13.0273 378.079 12.9973 378.059 12.9673 378.049L4.03732 373.819C3.80732 373.709 3.70733 373.439 3.81733 373.209C3.90733 373.009 4.12732 372.909 4.33732 372.959C4.36732 372.959 4.39732 372.979 4.42732 372.989L13.0373 377.059L12.4373 375.559L11.2273 374.989C10.9973 374.879 10.8973 374.609 11.0073 374.379C11.0973 374.179 11.3173 374.079 11.5273 374.129C11.5573 374.129 11.5873 374.149 11.6173 374.159L12.8373 374.739L13.7873 374.359L13.7273 374.099C13.6373 373.719 13.6573 373.359 13.7673 373.019L13.8573 372.759L10.0273 370.949L9.87733 371.169C9.17733 372.229 7.85732 372.079 6.69732 371.939C5.09732 371.749 3.97732 371.719 3.19732 372.899C3.12732 373.009 3.05733 373.129 3.00733 373.259C2.91733 373.469 2.69733 373.579 2.47733 373.529C2.45733 373.529 2.42732 373.519 2.40732 373.509C2.17732 373.409 2.06732 373.139 2.15732 372.909C2.23732 372.729 2.32732 372.549 2.42732 372.399C3.57732 370.659 5.36733 370.869 6.79733 371.029C7.95733 371.159 8.50733 371.169 8.88733 370.879L9.18733 370.649L8.90732 370.399C8.84732 370.349 8.80733 370.279 8.77733 370.209C8.73733 370.099 8.74733 369.969 8.79733 369.859L10.1173 367.069C10.2073 366.869 10.4273 366.769 10.6373 366.819C10.6673 366.819 10.6973 366.839 10.7273 366.849L14.6873 368.719L14.8273 368.629C16.2373 367.739 17.7973 366.939 19.5873 366.179L19.7573 366.109V365.919C19.8173 365.249 20.0973 364.509 20.5773 363.719C21.3673 362.439 22.6773 361.109 24.3673 359.869C24.5873 359.709 24.7973 359.559 25.0173 359.419L25.0373 359.399L25.0573 359.379C25.0573 359.379 25.1473 359.309 25.2073 359.279H25.2373L25.2573 359.249C29.9373 356.269 35.1473 356.309 38.9573 356.339C41.0073 356.359 42.7773 356.369 44.0073 355.959C44.0273 355.959 44.0473 355.949 44.0673 355.949H44.1273H44.1873C44.2173 355.949 44.2273 355.949 44.2473 355.949H44.2973L44.3473 355.979C44.3773 355.999 44.3973 355.999 44.4073 356.009C44.4273 356.019 44.4373 356.029 44.4473 356.039L44.4873 356.079C44.4873 356.079 44.5373 356.149 44.5573 356.179L44.5773 356.229C44.5773 356.229 44.5873 356.269 44.5973 356.289C44.5973 356.309 44.5973 356.329 44.5973 356.339V356.399C44.5973 356.399 44.5973 356.449 44.5973 356.469C44.3673 357.639 43.2273 360.559 41.6573 362.039C41.5473 362.149 41.3873 362.189 41.2373 362.149C41.1473 362.129 41.0773 362.079 41.0073 362.019C40.8373 361.839 40.8373 361.539 41.0273 361.369C41.4573 360.959 41.8973 360.379 42.3173 359.649L41.8773 359.239C39.2873 361.019 35.5673 362.149 31.9773 363.159L30.9973 363.439L31.9673 363.759C32.3673 363.889 32.7673 364.009 33.1673 364.099C34.6873 364.469 36.8773 364.739 38.6873 363.909C38.7773 363.869 38.8873 363.859 38.9873 363.879C39.1273 363.909 39.2373 364.009 39.2973 364.139C39.3473 364.249 39.3573 364.379 39.3073 364.489C39.2673 364.609 39.1773 364.699 39.0673 364.749C37.6473 365.399 35.9073 365.549 33.8873 365.199L33.7373 365.799C33.8973 365.859 34.0773 365.909 34.2473 365.949C34.9273 366.119 35.6473 366.159 36.3873 366.089C36.4373 366.089 36.4973 366.089 36.5473 366.099C36.5873 366.099 36.6173 366.119 36.6573 366.139H36.6873L36.7173 366.159C36.8173 366.189 36.9073 366.259 36.9673 366.349C37.0373 366.449 37.0573 366.579 37.0373 366.699C37.0173 366.819 36.9473 366.919 36.8373 366.989C36.6973 367.079 33.3773 369.259 30.8273 369.239H30.7873H30.7473C29.7473 369.499 26.2473 370.299 23.3673 369.589C21.8773 369.229 20.7973 368.509 20.1473 367.459C20.1073 367.399 20.0773 367.339 20.0373 367.269L19.9073 367.009L19.6373 367.129C18.3873 367.669 17.2573 368.239 16.1873 368.859L15.6773 369.159L16.6673 369.629C16.7773 369.679 16.8673 369.779 16.9073 369.889C16.9473 369.999 16.9373 370.129 16.8873 370.239L15.2273 373.739L16.5673 373.199L17.0973 372.089C17.1873 371.889 17.4073 371.789 17.6173 371.839C17.6473 371.839 17.6773 371.859 17.7073 371.869C17.9373 371.979 18.0373 372.249 17.9273 372.479L17.3273 373.739L18.8473 377.539L18.9573 377.599L19.7473 377.979C19.9773 378.089 20.0773 378.359 19.9673 378.589C19.8773 378.789 19.6573 378.889 19.4473 378.839C19.4173 378.839 19.3873 378.819 19.3573 378.809L18.0873 378.209L17.4573 378.459L17.4373 378.649C17.2073 381.619 11.9973 383.819 11.4073 384.059C11.3173 384.099 11.2173 384.099 11.1273 384.079L11.1373 384.119ZM13.7473 375.349L13.7173 375.519C13.7173 375.519 13.6973 375.599 13.6773 375.639C13.6673 375.669 13.6473 375.689 13.6273 375.719L13.5273 375.859L14.5473 378.409L14.6373 378.459L14.7773 378.549L14.9573 378.499L17.7773 377.369L16.6573 374.569L16.5173 374.519C16.5173 374.519 16.4873 374.509 16.4673 374.499C16.4373 374.489 16.4073 374.469 16.3873 374.449L16.2473 374.339L13.7473 375.339V375.349ZM9.83732 369.829L14.9373 372.239L15.8673 370.279L10.7673 367.869L9.83732 369.829ZM20.9273 367.019C21.4373 367.859 22.3273 368.429 23.5773 368.739C24.5073 368.969 25.6173 369.039 26.8973 368.969L26.9873 368.369C25.4873 367.789 24.3273 367.009 23.5473 366.039C23.5273 366.019 23.5173 365.989 23.4973 365.969L23.3773 365.739L23.1273 365.829C22.3973 366.079 21.7273 366.329 21.0773 366.579L20.7373 366.709L20.9173 366.999L20.9373 367.029L20.9273 367.019ZM29.5473 363.879C28.0773 364.289 26.3673 364.769 24.7173 365.289L24.2373 365.439L24.5873 365.799C25.7873 367.019 27.5873 367.659 28.8973 367.979C30.0073 368.249 30.8573 368.319 30.8573 368.319C30.8773 368.319 30.9073 368.319 30.9373 368.329H30.9773L31.0273 368.339C31.8573 368.309 32.8973 368.009 34.1173 367.459L34.9373 367.089L34.0673 366.879C31.7173 366.309 30.3673 364.679 29.8973 364.009L29.7673 363.829L29.5573 363.889L29.5473 363.879ZM23.0873 362.149C22.0173 363.179 21.2773 364.189 20.9173 365.089L20.6673 365.739L21.3173 365.489C22.0473 365.209 22.8373 364.939 23.6473 364.669L24.0473 364.539L24.4873 364.399C26.1673 363.869 27.8073 363.409 29.3573 362.979L29.5973 362.909V362.659C29.5973 362.659 29.5973 362.599 29.5973 362.569C29.8473 360.989 30.5373 359.419 31.0673 358.379L31.3773 357.779L30.7173 357.939C28.8973 358.389 27.2973 359.069 25.8073 360.009L25.7473 360.049L25.7073 360.119C25.3273 360.779 24.4273 362.439 24.2473 363.709C24.2373 363.789 24.2073 363.859 24.1573 363.919L23.9573 364.179L23.6473 364.089C23.4273 364.019 23.2973 363.809 23.3273 363.589C23.3773 363.269 23.4673 362.889 23.6073 362.479L23.0973 362.159L23.0873 362.149ZM34.8273 357.339C34.0773 357.389 33.3773 357.459 32.6973 357.559L32.5473 357.579L32.4673 357.709C31.9473 358.599 31.0073 360.349 30.5973 362.159L30.4773 362.669L30.9773 362.529C31.9473 362.259 33.0873 361.939 34.1673 361.609L34.5573 361.489L34.3373 361.149C34.2973 361.089 34.2473 360.979 34.2673 360.849C34.2873 360.669 34.4873 359.069 35.1173 357.789L35.3473 357.309L34.8173 357.339H34.8273ZM42.1273 357.219C41.1773 357.279 40.1173 357.269 38.9773 357.269C38.2473 357.269 37.4973 357.259 36.7273 357.269H36.6073L36.5173 357.349C35.5673 358.209 35.2173 360.709 35.1973 360.809L35.1273 361.299L35.5973 361.139C38.7773 360.089 40.8473 359.039 42.3273 357.759L43.0273 357.149L42.1073 357.209L42.1273 357.219Z" fill="#3C3D3D"/>
<path d="M40.1685 363.569C40.1085 363.559 40.0485 363.529 39.9985 363.489C39.8985 363.419 39.8385 363.309 39.8185 363.189C39.7985 363.069 39.8285 362.949 39.9085 362.849C39.9685 362.779 40.0285 362.719 40.1085 362.679C40.2285 362.609 40.3585 362.589 40.4685 362.619C40.5285 362.629 40.5785 362.659 40.6285 362.689C40.7285 362.759 40.7885 362.869 40.8085 362.989C40.8285 363.109 40.8085 363.229 40.7285 363.329C40.6685 363.409 40.5985 363.469 40.5085 363.509C40.3885 363.579 40.2685 363.589 40.1585 363.559L40.1685 363.569Z" fill="#3C3D3D"/>
<path d="M147.607 274.269L143.127 271.879C142.837 271.719 142.487 271.849 142.337 272.159L137.127 283.439C136.987 283.749 137.097 284.129 137.397 284.289L141.877 286.679C142.167 286.839 142.517 286.709 142.667 286.399L147.877 275.119C148.017 274.809 147.907 274.429 147.617 274.269H147.607ZM143.127 277.929C142.437 277.559 142.157 276.659 142.497 275.909C142.837 275.169 143.677 274.859 144.367 275.229C145.057 275.599 145.337 276.499 144.997 277.249C144.657 277.989 143.817 278.299 143.127 277.929Z" fill="#F4C058"/>
<path d="M153.689 291.359C152.989 291.359 152.159 291.109 151.359 290.619C150.439 290.049 149.129 289.369 147.859 288.709C144.179 286.799 143.339 286.279 143.519 285.639C143.579 285.429 143.789 285.299 143.989 285.369C144.139 285.419 144.239 285.549 144.259 285.709C144.589 286.109 146.669 287.189 148.189 287.989C149.469 288.659 150.789 289.339 151.739 289.919C152.919 290.639 154.059 290.699 154.439 290.339C154.679 290.109 154.589 289.669 154.469 289.339C154.419 289.199 154.439 289.029 154.539 288.919C154.639 288.809 154.779 288.759 154.919 288.799C155.979 289.119 156.549 288.899 156.709 288.619C156.889 288.309 156.699 287.759 156.239 287.219C156.119 287.079 156.109 286.879 156.199 286.719C156.299 286.559 156.479 286.499 156.639 286.559C157.709 286.969 158.539 286.849 158.809 286.249C159.039 285.739 158.829 284.879 157.979 284.289C157.819 284.179 157.759 283.949 157.849 283.769C157.939 283.589 158.139 283.499 158.319 283.569C158.459 283.629 159.729 284.079 160.309 282.759C160.369 282.629 160.349 282.439 160.259 282.209C159.919 281.309 158.569 279.999 156.319 279.079C156.169 279.019 156.069 278.859 156.079 278.689C156.079 278.519 156.189 278.369 156.349 278.319C158.129 277.739 159.539 275.769 159.729 274.289C159.789 273.859 159.759 273.279 159.319 272.979C158.749 272.579 158.509 272.799 157.789 273.589C157.159 274.279 156.289 275.219 154.759 275.679C153.529 276.039 152.439 275.849 151.469 275.679C150.549 275.519 149.759 275.369 149.009 275.709C148.819 275.799 148.599 275.699 148.519 275.489C148.439 275.279 148.529 275.049 148.719 274.959C149.669 274.529 150.599 274.699 151.589 274.879C152.519 275.049 153.489 275.219 154.559 274.899C155.899 274.499 156.649 273.679 157.259 273.019C157.929 272.289 158.619 271.529 159.729 272.299C160.329 272.719 160.599 273.459 160.469 274.399C160.279 275.869 159.099 277.759 157.429 278.699C159.189 279.569 160.529 280.779 160.959 281.899C161.129 282.349 161.139 282.759 160.989 283.099C160.569 284.039 159.889 284.399 159.239 284.469C159.679 285.149 159.789 285.929 159.489 286.589C159.209 287.209 158.519 287.719 157.369 287.559C157.589 288.089 157.589 288.599 157.359 289.019C157.029 289.609 156.289 289.849 155.349 289.699C155.419 290.359 155.149 290.739 154.949 290.919C154.659 291.189 154.219 291.329 153.709 291.329L153.689 291.359Z" fill="#4C4B4C"/>
<path d="M141.749 285.308C141.599 285.308 141.459 285.268 141.319 285.198L136.839 282.808C136.609 282.688 136.439 282.469 136.349 282.209C136.269 281.949 136.289 281.668 136.399 281.418L141.609 270.138C141.719 269.888 141.919 269.708 142.169 269.618C142.409 269.528 142.679 269.548 142.909 269.668L147.389 272.058C147.619 272.178 147.789 272.388 147.869 272.658C147.949 272.918 147.929 273.198 147.819 273.448L142.609 284.728C142.499 284.978 142.299 285.158 142.049 285.248C141.949 285.288 141.839 285.298 141.739 285.298L141.749 285.308ZM142.489 270.368C142.489 270.368 142.439 270.368 142.419 270.378C142.369 270.398 142.319 270.438 142.299 270.488L137.089 281.768C137.059 281.818 137.059 281.888 137.079 281.938C137.099 281.998 137.139 282.038 137.189 282.068L141.669 284.459C141.719 284.489 141.779 284.489 141.829 284.469C141.879 284.449 141.929 284.408 141.949 284.358L147.159 273.078C147.189 273.028 147.189 272.958 147.169 272.908C147.149 272.848 147.109 272.808 147.059 272.778L142.579 270.388C142.579 270.388 142.519 270.368 142.489 270.368ZM143.359 276.648C143.089 276.648 142.819 276.578 142.569 276.448C142.149 276.218 141.829 275.829 141.679 275.349C141.529 274.869 141.559 274.348 141.769 273.888C142.199 272.948 143.269 272.558 144.149 273.028C145.029 273.498 145.379 274.649 144.949 275.589C144.739 276.049 144.379 276.388 143.929 276.548C143.739 276.618 143.549 276.648 143.359 276.648ZM143.369 273.638C142.989 273.638 142.629 273.858 142.449 274.248C142.329 274.508 142.309 274.809 142.399 275.089C142.489 275.369 142.669 275.589 142.909 275.719C143.149 275.849 143.429 275.868 143.689 275.778C143.949 275.688 144.159 275.488 144.279 275.228C144.529 274.688 144.319 274.028 143.819 273.758C143.669 273.678 143.519 273.648 143.369 273.648V273.638Z" fill="#4C4B4C"/>
<path d="M29.988 144.428L30.628 141.268L27.338 140.378C27.308 139.518 27.138 138.688 26.848 137.898L29.568 135.828L27.778 133.138L24.818 134.838C24.208 134.268 23.508 133.788 22.728 133.428L23.188 130.048L20.028 129.408L19.138 132.698C18.278 132.728 17.448 132.898 16.658 133.188L14.588 130.478L11.898 132.268L13.598 135.228C13.028 135.838 12.548 136.538 12.188 137.318L8.80797 136.858L8.16797 140.018L11.458 140.908C11.488 141.768 11.658 142.598 11.948 143.388L9.22797 145.458L11.018 148.148L13.978 146.448C14.588 147.018 15.288 147.498 16.068 147.858L15.608 151.238L18.768 151.878L19.658 148.588C20.518 148.558 21.348 148.388 22.138 148.098L24.208 150.818L26.898 149.028L25.198 146.068C25.768 145.458 26.248 144.758 26.608 143.978L29.988 144.438V144.428ZM18.588 144.678C16.368 144.228 14.928 142.068 15.378 139.838C15.828 137.618 17.998 136.178 20.218 136.628C22.438 137.078 23.878 139.248 23.428 141.468C22.978 143.688 20.818 145.128 18.588 144.678Z" fill="#F4C058"/>
<path d="M17.0271 151.859C17.0271 151.859 16.9571 151.859 16.9271 151.859L13.7671 151.219C13.5071 151.169 13.3271 150.919 13.3671 150.649L13.7771 147.639C13.2071 147.339 12.6671 146.979 12.1771 146.559L9.53709 148.079C9.30709 148.209 9.00709 148.139 8.85709 147.919L7.0671 145.229C6.9171 145.009 6.96709 144.709 7.18709 144.539L9.60709 142.699C9.40709 142.079 9.28709 141.449 9.23709 140.799L6.29709 140.009C6.03709 139.939 5.87709 139.679 5.92709 139.419L6.5671 136.259C6.6171 135.999 6.86709 135.819 7.13709 135.859L10.1471 136.269C10.4471 135.699 10.8071 135.159 11.2271 134.669L9.70709 132.029C9.57709 131.799 9.64709 131.499 9.86709 131.349L12.5571 129.569C12.7771 129.419 13.0771 129.469 13.2471 129.689L15.0871 132.109C15.7071 131.909 16.3371 131.789 16.9871 131.739L17.7771 128.799C17.8471 128.539 18.0971 128.379 18.3671 128.429L21.5271 129.069C21.7871 129.119 21.9671 129.369 21.9271 129.639L21.5171 132.649C22.0871 132.949 22.6271 133.309 23.1171 133.729L25.7571 132.209C25.9871 132.079 26.2871 132.149 26.4371 132.369L28.2271 135.059C28.3771 135.279 28.3271 135.579 28.1071 135.749L25.6871 137.589C25.8871 138.209 26.0071 138.839 26.0571 139.489L28.9971 140.279C29.2571 140.349 29.4171 140.609 29.3671 140.869L28.7271 144.029C28.6771 144.289 28.4271 144.469 28.1571 144.429L25.1471 144.019C24.8471 144.589 24.4871 145.129 24.0671 145.619L25.5871 148.259C25.7171 148.489 25.6471 148.789 25.4271 148.939L22.7371 150.719C22.5171 150.869 22.2171 150.819 22.0471 150.599L20.2071 148.179C19.5871 148.379 18.9471 148.499 18.3071 148.549L17.5171 151.489C17.4571 151.719 17.2471 151.869 17.0271 151.869V151.859ZM14.4271 150.309L16.6571 150.759L17.4171 147.929C17.4771 147.709 17.6671 147.559 17.8871 147.549C18.6771 147.519 19.4571 147.369 20.2071 147.099C20.4171 147.019 20.6571 147.099 20.7871 147.269L22.5671 149.599L24.4571 148.339L22.9971 145.799C22.8871 145.609 22.9171 145.359 23.0671 145.199C23.6071 144.619 24.0571 143.959 24.3871 143.239C24.4771 143.039 24.6871 142.919 24.9171 142.949L27.8271 143.339L28.2771 141.109L25.4471 140.349C25.2271 140.289 25.0771 140.099 25.0671 139.879C25.0371 139.089 24.8871 138.309 24.6071 137.559C24.5271 137.349 24.6071 137.109 24.7771 136.979L27.1171 135.199L25.8571 133.309L23.3171 134.769C23.1271 134.879 22.8771 134.849 22.7171 134.699C22.1371 134.159 21.4771 133.709 20.7571 133.379C20.5571 133.289 20.4371 133.069 20.4671 132.849L20.8571 129.939L18.6271 129.489L17.8671 132.319C17.8071 132.539 17.6171 132.689 17.3971 132.699C16.6071 132.729 15.8271 132.879 15.0771 133.159C14.8671 133.239 14.6271 133.159 14.4971 132.989L12.7171 130.659L10.8271 131.919L12.2871 134.459C12.3971 134.649 12.3671 134.899 12.2171 135.059C11.6771 135.639 11.2271 136.299 10.8971 137.019C10.8071 137.219 10.5871 137.339 10.3671 137.309L7.45709 136.919L7.00709 139.149L9.83709 139.909C10.0571 139.969 10.2071 140.159 10.2171 140.379C10.2471 141.169 10.3971 141.949 10.6771 142.699C10.7571 142.909 10.6771 143.149 10.5071 143.279L8.16709 145.059L9.42709 146.949L11.9671 145.489C12.1571 145.379 12.4071 145.409 12.5671 145.559C13.1471 146.099 13.8071 146.549 14.5271 146.879C14.7271 146.969 14.8471 147.189 14.8171 147.409L14.4271 150.319V150.309ZM17.6471 144.749C17.3471 144.749 17.0371 144.719 16.7371 144.659C15.5271 144.419 14.4871 143.719 13.8071 142.689C13.1271 141.659 12.8871 140.429 13.1271 139.219C13.6271 136.729 16.0771 135.109 18.5671 135.609C19.7771 135.849 20.8171 136.549 21.4971 137.579C22.1771 138.609 22.4171 139.839 22.1771 141.049C21.7371 143.239 19.8071 144.749 17.6571 144.749H17.6471ZM16.9271 143.659C18.8671 144.049 20.7771 142.789 21.1671 140.839C21.3571 139.899 21.1671 138.939 20.6371 138.139C20.1071 137.339 19.2971 136.789 18.3471 136.599C16.3971 136.209 14.4971 137.469 14.1071 139.419C13.7171 141.369 14.9771 143.269 16.9171 143.659H16.9271Z" fill="#4C4B4C"/>
<path d="M30.5496 161.139C30.5496 161.139 30.4796 161.139 30.4496 161.129L28.3296 160.689C28.0696 160.639 27.8896 160.389 27.9296 160.119L28.1896 158.219C27.8696 158.039 27.5596 157.839 27.2796 157.599L25.6096 158.549C25.3796 158.679 25.0796 158.609 24.9296 158.389L23.7396 156.579C23.5896 156.359 23.6396 156.059 23.8596 155.889L25.3896 154.729C25.2896 154.379 25.2196 154.019 25.1796 153.649L23.3296 153.139C23.0696 153.069 22.9096 152.809 22.9696 152.549L23.4096 150.429C23.4596 150.169 23.7096 149.989 23.9796 150.029L25.8796 150.289C26.0596 149.969 26.2596 149.659 26.4996 149.379L25.5496 147.709C25.4196 147.479 25.4896 147.179 25.7096 147.029L27.5196 145.839C27.7396 145.689 28.0396 145.739 28.2096 145.959L29.3696 147.489C29.7196 147.389 30.0796 147.319 30.4496 147.279L30.9596 145.429C31.0296 145.169 31.2796 145.009 31.5496 145.069L33.6696 145.509C33.9296 145.559 34.1096 145.809 34.0696 146.079L33.8096 147.979C34.1296 148.159 34.4396 148.359 34.7196 148.599L36.3896 147.649C36.6196 147.519 36.9196 147.589 37.0696 147.809L38.2596 149.609C38.4096 149.829 38.3596 150.129 38.1396 150.299L36.6096 151.459C36.7096 151.809 36.7796 152.169 36.8196 152.539L38.6696 153.049C38.9296 153.119 39.0896 153.379 39.0296 153.639L38.5896 155.759C38.5396 156.019 38.2896 156.199 38.0196 156.159L36.1196 155.899C35.9396 156.219 35.7396 156.519 35.4996 156.809L36.4496 158.479C36.5796 158.709 36.5096 159.009 36.2896 159.159L34.4796 160.349C34.2596 160.499 33.9596 160.449 33.7896 160.229L32.6296 158.699C32.2796 158.799 31.9196 158.869 31.5496 158.909L31.0396 160.759C30.9796 160.989 30.7696 161.139 30.5496 161.129V161.139ZM28.9996 159.789L30.1796 160.029L30.6596 158.289C30.7196 158.069 30.9096 157.919 31.1396 157.919C31.6496 157.909 32.1496 157.809 32.6396 157.629C32.8496 157.549 33.0896 157.629 33.2196 157.799L34.3096 159.239L35.3196 158.569L34.4196 156.999C34.3096 156.809 34.3396 156.559 34.4896 156.399C34.8396 156.019 35.1296 155.599 35.3496 155.129C35.4396 154.929 35.6496 154.809 35.8796 154.839L37.6696 155.089L37.9096 153.909L36.1696 153.429C35.9496 153.369 35.7996 153.179 35.7996 152.949C35.7796 152.439 35.6896 151.929 35.5096 151.449C35.4296 151.239 35.5096 150.999 35.6796 150.869L37.1196 149.779L36.4496 148.769L34.8796 149.669C34.6896 149.779 34.4396 149.749 34.2796 149.599C33.9096 149.249 33.4796 148.959 33.0096 148.739C32.8096 148.649 32.6896 148.429 32.7196 148.209L32.9696 146.419L31.7896 146.179L31.3096 147.929C31.2496 148.149 31.0596 148.299 30.8296 148.299C30.3196 148.319 29.8096 148.409 29.3296 148.589C29.1196 148.669 28.8796 148.589 28.7496 148.419L27.6596 146.979L26.6496 147.649L27.5496 149.219C27.6596 149.409 27.6296 149.659 27.4796 149.819C27.1296 150.199 26.8396 150.619 26.6196 151.089C26.5296 151.289 26.3196 151.409 26.0896 151.379L24.2996 151.129L24.0596 152.309L25.7996 152.789C26.0196 152.849 26.1696 153.039 26.1696 153.269C26.1896 153.779 26.2796 154.289 26.4596 154.769C26.5396 154.979 26.4596 155.219 26.2896 155.349L24.8496 156.439L25.5196 157.449L27.0896 156.549C27.2796 156.439 27.5296 156.469 27.6896 156.619C28.0596 156.969 28.4896 157.259 28.9596 157.479C29.1596 157.569 29.2796 157.789 29.2496 158.009L28.9996 159.799V159.789ZM30.9796 156.369C30.7696 156.369 30.5496 156.349 30.3396 156.299C28.5796 155.939 27.4396 154.209 27.7996 152.449C27.9696 151.599 28.4696 150.859 29.1996 150.379C29.9296 149.899 30.7996 149.729 31.6496 149.909C33.4096 150.269 34.5496 151.999 34.1896 153.759C33.8696 155.299 32.4996 156.369 30.9796 156.369ZM30.5396 155.309C31.7496 155.559 32.9396 154.769 33.1896 153.559C33.4396 152.349 32.6596 151.159 31.4396 150.909C30.8496 150.789 30.2496 150.909 29.7496 151.229C29.2496 151.559 28.9096 152.059 28.7896 152.649C28.5396 153.859 29.3196 155.049 30.5396 155.299V155.309Z" fill="#4C4B4C"/>
<path d="M273.307 376.659C274.141 376.659 274.817 375.983 274.817 375.149C274.817 374.315 274.141 373.639 273.307 373.639C272.473 373.639 271.797 374.315 271.797 375.149C271.797 375.983 272.473 376.659 273.307 376.659Z" stroke="#020B18" stroke-width="2" stroke-linecap="round" stroke-linejoin="round"/>
<path d="M289.298 548.1C289.548 549.11 288.938 550.14 287.928 550.39C286.918 550.64 285.888 550.03 285.638 549.02C285.388 548.01 285.998 546.98 287.008 546.73C288.018 546.48 289.048 547.09 289.298 548.1Z" fill="#F4C058"/>
<path d="M289.987 542.401C290.527 542.871 290.597 543.681 290.127 544.231C289.657 544.771 288.847 544.841 288.297 544.371C287.757 543.901 287.687 543.091 288.157 542.541C288.627 542.001 289.437 541.931 289.987 542.401Z" fill="#F4C058"/>
<path d="M289.888 537.82C290.518 538.36 290.598 539.32 290.048 539.95C289.508 540.58 288.548 540.66 287.918 540.11C287.288 539.57 287.208 538.61 287.758 537.98C288.298 537.35 289.258 537.27 289.888 537.82Z" fill="#F4C058"/>
<path d="M278.861 546.818C282.129 545.999 284.114 542.685 283.294 539.417C282.474 536.15 279.161 534.165 275.893 534.985C272.626 535.804 270.641 539.118 271.461 542.385C272.28 545.653 275.594 547.638 278.861 546.818Z" fill="#70B791"/>
<path d="M279.518 546.58L274.098 549.9L275.948 544.83" fill="#70B791"/>
<path d="M269.057 563.91L268.927 563.95L252.237 568.13L247.707 550.04L267.457 545.09L267.827 544.99L268.047 548.41L266.747 547.67L265.807 548.38L265.477 550.17L268.477 555.02L269.537 557.48L268.657 557.83L266.717 557.49L265.467 558.69L266.527 559.78L268.867 561.05L269.057 563.91Z" fill="#70B791"/>
<path d="M285.596 563.511C285.426 563.551 285.246 563.481 285.146 563.341L284.296 562.041C284.246 561.971 284.226 561.891 284.226 561.801V561.711L284.176 561.631C284.106 561.541 284.086 561.421 284.106 561.311C284.196 560.831 284.296 559.931 284.176 559.551L283.256 556.751L280.856 553.031C280.856 553.031 280.836 553.001 280.836 552.991C280.596 552.511 280.136 552.251 279.786 552.111C279.426 551.971 279.006 551.921 278.726 551.991C278.676 552.001 278.626 552.021 278.586 552.041L278.276 552.201L278.426 552.461L278.636 552.821C278.756 553.021 278.686 553.271 278.496 553.391C278.456 553.411 278.426 553.431 278.386 553.441C278.206 553.481 278.026 553.411 277.936 553.251L277.416 552.381C277.306 552.191 276.976 552.031 276.756 552.051L276.536 552.071C276.306 552.091 276.096 552.101 275.826 552.171C275.616 552.221 275.506 552.291 275.446 552.381C275.366 552.511 275.366 552.741 275.446 553.081C275.506 553.261 275.706 553.661 275.776 553.771C275.896 553.961 275.836 554.221 275.636 554.341C275.596 554.361 275.556 554.381 275.516 554.391C275.336 554.431 275.156 554.361 275.066 554.211C275.046 554.181 274.886 553.911 274.756 553.621L274.726 553.561L274.666 553.521C274.666 553.521 274.586 553.451 274.566 553.411L274.416 553.161C274.116 552.661 273.676 552.641 272.736 552.781C272.676 552.781 272.616 552.801 272.546 552.821C272.256 552.891 272.066 553.021 271.976 553.201C271.816 553.551 272.006 554.051 272.096 554.241L272.756 555.351L272.826 555.461L273.056 555.841C273.116 555.931 273.126 556.051 273.106 556.151C273.076 556.261 273.016 556.351 272.916 556.401C272.876 556.421 272.846 556.441 272.806 556.451C272.626 556.491 272.446 556.421 272.356 556.261L272.076 555.801L271.526 554.911C271.486 554.851 271.446 554.771 271.396 554.661L270.196 552.671C270.106 552.521 270.116 552.321 270.236 552.191L270.336 552.071L270.486 552.051C270.656 552.021 270.816 552.101 270.906 552.241L271.216 552.761L271.466 552.491C271.676 552.261 271.976 552.101 272.346 552.001C272.436 551.981 272.526 551.961 272.616 551.951C273.116 551.881 273.806 551.771 274.386 552.041L274.606 552.141L274.736 551.931C274.906 551.661 275.196 551.471 275.576 551.381H275.636C275.976 551.291 276.226 551.271 276.466 551.251L276.676 551.231C276.986 551.201 277.336 551.301 277.636 551.491L277.796 551.591L277.946 551.481C278.036 551.421 278.126 551.361 278.226 551.311C278.326 551.261 278.426 551.231 278.536 551.201C279.196 551.031 279.896 551.271 280.096 551.351C280.776 551.621 281.286 552.051 281.566 552.601L283.986 556.351C283.986 556.351 284.016 556.411 284.036 556.441L284.976 559.301C285.186 559.931 285.006 561.051 284.956 561.381L284.936 561.481L284.996 561.591L285.846 562.881C285.976 563.071 285.916 563.331 285.726 563.451C285.686 563.481 285.646 563.491 285.596 563.511ZM269.966 551.721C269.806 551.751 269.646 551.681 269.556 551.541C269.536 551.511 269.526 551.501 269.516 551.481C269.396 551.281 269.466 551.031 269.656 550.911C269.696 550.891 269.726 550.871 269.766 550.861C269.936 550.821 270.116 550.891 270.206 551.031C270.226 551.061 270.236 551.071 270.246 551.091C270.336 551.241 270.326 551.431 270.206 551.571L270.106 551.691L269.956 551.711L269.966 551.721Z" fill="#3C3D3D"/>
<path d="M277.935 568.489C277.765 568.529 277.595 568.469 277.495 568.329L276.645 567.109C276.645 567.109 276.625 567.079 276.615 567.059L276.565 566.959L273.785 566.109C272.775 565.809 272.325 565.399 271.655 564.759C271.455 564.559 271.195 564.199 270.895 563.789C270.575 563.349 270.205 562.849 269.915 562.559C268.825 561.479 268.045 561.039 267.285 560.619L267.055 560.489C266.925 560.419 266.785 560.339 266.635 560.259C265.815 559.829 265.065 559.429 265.055 558.779C265.035 558.069 265.525 557.519 266.375 557.309C266.545 557.269 266.735 557.239 266.935 557.219C267.305 557.189 268.185 557.289 268.875 557.399L269.445 557.489L265.285 550.319C265.005 549.859 264.935 549.309 265.085 548.779C265.235 548.259 265.575 547.809 266.055 547.519C266.225 547.419 266.405 547.339 266.575 547.299C266.895 547.219 267.215 547.239 267.515 547.369C267.905 547.529 268.245 547.859 268.535 548.339C268.535 548.339 268.855 548.869 269.415 549.779C269.535 549.969 269.465 550.229 269.275 550.349C269.235 550.369 269.205 550.389 269.165 550.399C268.985 550.439 268.805 550.369 268.715 550.209C268.005 549.039 267.865 548.799 267.825 548.749V548.769C267.705 548.539 267.485 548.249 267.205 548.129C267.155 548.109 267.005 548.039 266.785 548.099C266.695 548.119 266.595 548.169 266.495 548.229C266.195 548.409 265.985 548.689 265.895 548.999C265.805 549.309 265.845 549.619 266.005 549.889L272.205 560.579C272.265 560.679 272.275 560.789 272.245 560.889C272.215 560.999 272.145 561.089 272.055 561.139C272.025 561.159 271.985 561.169 271.945 561.179C271.765 561.219 271.575 561.139 271.485 560.989L271.075 560.289L271.005 560.249C270.945 560.219 270.895 560.169 270.865 560.119C270.495 559.579 269.365 558.689 268.755 558.239L268.695 558.199H268.625C268.495 558.169 267.355 558.009 266.995 558.039C266.905 558.039 266.725 558.069 266.555 558.109C266.185 558.199 265.955 558.369 265.895 558.599L265.855 558.749L265.965 558.869C266.145 559.049 266.555 559.279 267.005 559.519C267.155 559.599 267.315 559.679 267.465 559.769L267.665 559.879C268.465 560.329 269.335 560.819 270.505 561.979C270.845 562.309 271.225 562.839 271.565 563.299C271.845 563.679 272.095 564.029 272.245 564.179C272.855 564.769 273.205 565.089 274.035 565.329L276.705 566.149C276.815 566.179 276.905 566.259 276.955 566.359L277.005 566.459L277.115 566.499C277.205 566.529 277.275 566.579 277.325 566.659L278.175 567.879C278.235 567.969 278.265 568.079 278.245 568.189C278.225 568.299 278.165 568.389 278.075 568.459C278.035 568.489 277.985 568.509 277.935 568.519V568.489Z" fill="#3C3D3D"/>
<path d="M279.616 573.42C279.446 573.46 279.276 573.39 279.176 573.25L277.216 570.37C277.156 570.28 277.136 570.17 277.156 570.06C277.176 569.95 277.246 569.86 277.336 569.8L287.576 563.01C287.576 563.01 287.656 562.96 287.706 562.95C287.866 562.91 288.036 562.97 288.136 563.1L290.006 565.62C290.146 565.8 290.106 566.06 289.916 566.2C289.876 566.23 289.826 566.26 289.766 566.27C289.606 566.31 289.436 566.25 289.336 566.12L287.706 563.92L278.146 570.26L279.876 572.8C280.006 572.99 279.956 573.25 279.766 573.37C279.726 573.4 279.686 573.42 279.636 573.43L279.616 573.42Z" fill="#3C3D3D"/>
<path d="M270.245 565.42C270.025 565.48 269.795 565.34 269.745 565.12C269.695 564.9 269.825 564.67 270.045 564.62L270.205 564.58C270.425 564.52 270.655 564.66 270.705 564.88C270.755 565.1 270.625 565.33 270.405 565.38L270.245 565.42Z" fill="#3C3D3D"/>
<path d="M264.957 564.06L251.177 567.51L251.327 567.82C251.687 568.58 252.557 569 253.347 568.8L268.387 565.03C268.607 564.97 268.837 565.11 268.887 565.33C268.937 565.55 268.807 565.78 268.587 565.83L262.677 567.31L262.767 567.59C262.767 567.59 262.777 567.75 262.757 567.83L261.047 572.64C260.817 573.29 260.327 573.82 259.687 574.1L259.477 574.2L259.677 575.02L260.697 574.77C260.917 574.72 261.147 574.86 261.207 575.08L261.807 577.46C261.867 577.68 261.727 577.91 261.507 577.96C261.287 578.01 261.057 577.88 261.007 577.66L260.507 575.66L251.837 577.83L252.417 580.12C252.477 580.34 252.337 580.57 252.117 580.62C251.897 580.67 251.667 580.54 251.617 580.32L250.947 577.64C250.927 577.57 250.927 577.49 250.947 577.41L250.997 577.25L250.877 577.13C250.817 577.08 250.787 577.01 250.767 576.94L249.067 570.17H248.867C248.747 570.15 248.637 570.12 248.587 570.09C248.407 569.98 248.247 569.83 248.097 569.66C247.867 569.38 247.707 569.08 247.627 568.76L245.067 558.54C244.767 557.35 245.507 556.13 246.717 555.83C246.847 555.8 246.987 555.77 247.137 555.76L247.467 555.73L245.677 548.59C245.327 547.21 246.147 545.86 247.527 545.51L267.777 540.43C268.007 540.37 268.217 540.49 268.277 540.71L268.297 540.79C268.357 541.04 268.147 541.19 267.977 541.23L247.727 546.31C246.817 546.54 246.227 547.47 246.437 548.34L246.497 548.62L267.377 543.39C267.597 543.33 267.827 543.47 267.877 543.69C267.927 543.91 267.797 544.14 267.577 544.19L246.737 549.41L251.067 566.68L268.177 562.39C268.397 562.33 268.627 562.47 268.677 562.69C268.727 562.91 268.597 563.14 268.377 563.19L265.737 563.85L264.987 564.04L264.957 564.06ZM277.317 547.28L276.897 547.52L272.097 550.28C272.097 550.28 272.027 550.31 271.987 550.32C271.847 550.36 271.697 550.32 271.597 550.22C271.467 550.09 271.437 549.89 271.527 549.73L273.047 546.93L272.777 546.81C270.917 545.97 269.507 544.29 269.017 542.32C268.907 541.87 268.837 541.43 268.827 540.96V540.66C268.827 537.57 270.927 534.89 273.907 534.14C277.507 533.24 281.167 535.43 282.067 539.03C282.467 540.61 282.277 542.28 281.527 543.73C280.787 545.17 279.567 546.29 278.077 546.89C278.057 546.89 278.037 546.9 278.027 546.91L277.327 547.27L277.317 547.28ZM251.557 577.06L258.877 575.22L258.687 574.44C258.657 574.34 258.687 574.24 258.707 574.18L258.747 574.09L258.717 573.99V573.95C258.667 573.73 258.797 573.52 259.017 573.47L259.087 573.45C259.637 573.31 260.087 572.91 260.277 572.38L262.017 567.48L253.547 569.6C252.187 569.94 250.797 569.09 250.447 567.7L247.667 556.63L247.477 556.61C247.267 556.59 247.077 556.6 246.897 556.64C246.147 556.83 245.667 557.61 245.847 558.35L248.407 568.57C248.457 568.77 248.557 568.96 248.707 569.14C248.787 569.24 248.897 569.32 249.027 569.41C249.097 569.45 249.147 569.51 249.177 569.59L249.257 569.77H249.457C249.647 569.74 249.827 569.87 249.877 570.07L251.557 576.79V577.06ZM277.757 546.14C280.467 545.04 281.967 542.07 281.257 539.24C280.467 536.08 277.257 534.16 274.097 534.95C270.937 535.74 269.017 538.95 269.807 542.11C270.297 544.08 271.807 545.69 273.747 546.3L273.827 546.33C274.047 546.4 274.107 546.57 274.037 546.78C274.007 546.87 274.007 546.93 273.937 547.06L273.887 547.1L272.937 548.85L276.887 546.58L277.747 546.15L277.757 546.14Z" fill="#3C3D3D"/>
<path d="M250.186 552.92C249.966 552.98 249.736 552.84 249.686 552.62L249.096 550.251C249.036 550.031 249.176 549.801 249.396 549.751L251.766 549.16C251.986 549.1 252.216 549.24 252.266 549.46L252.856 551.83C252.916 552.05 252.776 552.28 252.556 552.33L250.186 552.92ZM250.386 552.021L251.956 551.631L251.566 550.06L249.996 550.45L250.386 552.021Z" fill="#3C3D3D"/>
<path d="M254.065 550.689C253.845 550.749 253.615 550.609 253.565 550.389C253.515 550.169 253.645 549.939 253.865 549.889L258.275 548.789C258.495 548.729 258.725 548.869 258.775 549.089C258.825 549.309 258.695 549.539 258.475 549.589L254.065 550.689Z" fill="#3C3D3D"/>
<path d="M251.159 556.79C250.939 556.85 250.709 556.71 250.659 556.49L250.069 554.12C250.009 553.9 250.149 553.67 250.369 553.62L252.739 553.03C252.959 552.97 253.189 553.11 253.239 553.33L253.829 555.7C253.889 555.92 253.749 556.15 253.529 556.2L251.159 556.79ZM251.379 555.96L252.949 555.57L252.539 553.92L250.969 554.31L251.379 555.96Z" fill="#3C3D3D"/>
<path d="M255.058 554.631C254.838 554.691 254.608 554.551 254.558 554.331C254.508 554.111 254.638 553.881 254.858 553.831L259.268 552.731C259.488 552.671 259.718 552.811 259.768 553.031C259.818 553.251 259.688 553.481 259.468 553.531L255.058 554.631Z" fill="#3C3D3D"/>
<path d="M252.127 560.651C251.907 560.711 251.677 560.571 251.627 560.351L251.037 557.981C250.977 557.761 251.117 557.531 251.337 557.481L253.707 556.891C253.927 556.831 254.157 556.971 254.207 557.191L254.797 559.561C254.857 559.781 254.717 560.011 254.497 560.061L252.127 560.651ZM252.327 559.751L253.897 559.361L253.507 557.791L251.937 558.181L252.327 559.751Z" fill="#3C3D3D"/>
<path d="M256.007 558.42C255.787 558.48 255.557 558.34 255.507 558.12C255.457 557.9 255.587 557.67 255.807 557.62L260.217 556.52C260.437 556.46 260.667 556.6 260.717 556.82C260.767 557.04 260.637 557.27 260.417 557.32L256.007 558.42Z" fill="#3C3D3D"/>
<path d="M253.116 564.6C252.896 564.66 252.666 564.52 252.616 564.3L252.026 561.93C251.966 561.71 252.106 561.48 252.326 561.43L254.696 560.84C254.916 560.78 255.146 560.92 255.196 561.14L255.786 563.51C255.846 563.73 255.706 563.96 255.486 564.01L253.116 564.6ZM253.336 563.78L254.906 563.39L254.496 561.74L252.926 562.13L253.336 563.78Z" fill="#3C3D3D"/>
<path d="M257.018 562.451C256.798 562.511 256.568 562.371 256.518 562.151C256.468 561.931 256.598 561.701 256.818 561.651L261.228 560.551C261.448 560.491 261.678 560.631 261.728 560.851C261.778 561.071 261.648 561.301 261.428 561.351L257.018 562.451Z" fill="#3C3D3D"/>
<path d="M286.665 550.13C286.425 550.19 286.185 550.21 285.945 550.18C285.375 550.13 284.865 549.85 284.505 549.41C284.145 548.97 283.975 548.42 284.035 547.85C284.125 546.96 284.765 546.21 285.635 545.99C285.875 545.93 286.115 545.91 286.355 545.94C286.925 545.99 287.435 546.27 287.795 546.71C288.155 547.15 288.325 547.7 288.265 548.27C288.175 549.16 287.535 549.91 286.665 550.13ZM285.825 546.81C285.295 546.94 284.895 547.4 284.845 547.95C284.815 548.3 284.915 548.63 285.135 548.9C285.355 549.17 285.665 549.33 286.015 549.37C286.165 549.38 286.315 549.37 286.455 549.34C286.985 549.21 287.375 548.75 287.435 548.2C287.465 547.85 287.365 547.52 287.145 547.25C286.925 546.98 286.615 546.82 286.265 546.78C286.115 546.77 285.965 546.78 285.825 546.81Z" fill="#3C3D3D"/>
<path d="M288.485 544.401C288.325 544.441 288.165 544.451 288.005 544.441C287.625 544.401 287.295 544.22 287.055 543.93C286.815 543.64 286.705 543.271 286.735 542.901C286.795 542.311 287.215 541.81 287.795 541.67C287.955 541.63 288.115 541.621 288.275 541.631C288.655 541.671 288.985 541.851 289.225 542.141C289.465 542.431 289.575 542.8 289.535 543.17C289.475 543.76 289.055 544.261 288.475 544.401H288.485ZM287.995 542.461C287.795 542.511 287.585 542.691 287.555 542.971C287.535 543.131 287.585 543.281 287.685 543.401C287.785 543.521 287.925 543.601 288.085 543.611C288.155 543.611 288.225 543.611 288.285 543.601C288.485 543.551 288.695 543.371 288.725 543.091C288.745 542.881 288.655 542.73 288.595 542.66C288.535 542.59 288.405 542.471 288.195 542.451C288.125 542.451 288.065 542.451 287.995 542.461Z" fill="#3C3D3D"/>
<path d="M288.747 539.861C288.607 539.901 288.457 539.911 288.307 539.891C287.597 539.821 287.077 539.191 287.147 538.481C287.197 537.941 287.587 537.481 288.117 537.351C288.257 537.311 288.407 537.301 288.557 537.321C288.897 537.351 289.207 537.521 289.427 537.791C289.647 538.061 289.747 538.391 289.717 538.741C289.667 539.281 289.277 539.741 288.747 539.871V539.861ZM288.317 538.151C288.127 538.201 287.987 538.361 287.967 538.561C287.947 538.821 288.127 539.051 288.387 539.071C288.437 539.071 288.497 539.071 288.547 539.061C288.737 539.011 288.877 538.851 288.897 538.651C288.907 538.531 288.877 538.411 288.797 538.311C288.717 538.211 288.607 538.151 288.477 538.141C288.427 538.141 288.367 538.141 288.317 538.151Z" fill="#3C3D3D"/>
<path d="M9.54834 494.869C9.41834 494.909 9.26834 494.899 9.14834 494.839C9.01834 494.779 8.92834 494.669 8.88834 494.539L0.0283399 468.149C-0.0616601 467.879 0.0683374 467.599 0.338337 467.489L19.5283 461.039C19.7983 460.949 20.0983 461.089 20.1883 461.359L20.6083 462.529C20.7083 462.799 20.5683 463.089 20.2983 463.199C20.0183 463.299 19.7183 463.159 19.6183 462.889L19.3683 462.209L1.18834 468.319L9.71834 493.709L27.8883 487.609L24.0883 475.999C23.9983 475.729 24.1383 475.449 24.3983 475.349C24.6983 475.249 24.9983 475.399 25.0883 475.679L29.0483 487.779C29.1383 488.049 28.9983 488.329 28.7383 488.429L9.54834 494.879V494.869Z" fill="#3C3D3D"/>
<path d="M6.27714 471.869C6.00714 471.959 5.70714 471.809 5.61714 471.539C5.52714 471.269 5.66714 470.979 5.92714 470.879L17.2571 467.069C17.5271 466.979 17.8271 467.129 17.9171 467.399C18.0071 467.669 17.8671 467.959 17.6071 468.059L6.27714 471.869Z" fill="#3C3D3D"/>
<path d="M8.6789 478.569C8.4089 478.659 8.10891 478.519 8.00891 478.249C7.91891 477.979 8.0489 477.689 8.3089 477.589L16.7489 474.669C16.8789 474.619 17.0289 474.629 17.1489 474.689C17.2789 474.749 17.3689 474.859 17.4189 474.989C17.5089 475.259 17.3789 475.549 17.1089 475.649L8.66891 478.569H8.6789Z" fill="#3C3D3D"/>
<path d="M7.74922 475.359C7.61922 475.409 7.46922 475.399 7.34922 475.339C7.21922 475.279 7.12922 475.169 7.07922 475.039C6.98922 474.769 7.11922 474.479 7.37922 474.379L7.46922 474.349C7.73922 474.259 8.03922 474.399 8.13922 474.669C8.22922 474.939 8.09922 475.229 7.82922 475.329L7.73922 475.359H7.74922Z" fill="#3C3D3D"/>
<path d="M15.6386 472.688C15.3586 472.728 15.0486 472.658 14.9386 472.358C14.8486 472.088 14.9786 471.788 15.2386 471.688C15.3886 471.638 15.5286 471.648 15.6486 471.708C15.7786 471.768 15.8786 471.878 15.9186 472.018C16.0086 472.288 15.8786 472.598 15.6286 472.698L15.6386 472.688Z" fill="#3C3D3D"/>
<path d="M12.8685 473.588C12.7285 473.638 12.5785 473.628 12.4585 473.568C12.3285 473.508 12.2385 473.398 12.1885 473.268C12.0985 472.998 12.2285 472.708 12.4985 472.608C12.6485 472.558 12.7985 472.568 12.9185 472.628C13.0485 472.688 13.1385 472.798 13.1885 472.928C13.2785 473.198 13.1485 473.488 12.8785 473.588H12.8685Z" fill="#3C3D3D"/>
<path d="M10.1302 474.529C9.99021 474.579 9.84021 474.569 9.72021 474.509C9.59021 474.449 9.50021 474.339 9.45021 474.209C9.36021 473.939 9.49022 473.649 9.76022 473.549C10.0502 473.449 10.3502 473.599 10.4502 473.869C10.5402 474.139 10.4102 474.429 10.1402 474.529H10.1302Z" fill="#3C3D3D"/>
<path d="M17.8977 471.869C17.6277 471.959 17.3277 471.819 17.2277 471.539C17.1377 471.269 17.2677 470.979 17.5277 470.879L17.6177 470.849C17.8877 470.759 18.1877 470.899 18.2877 471.179C18.3777 471.449 18.2477 471.739 17.9777 471.839L17.8877 471.869H17.8977Z" fill="#3C3D3D"/>
<path d="M9.62022 481.818C9.49022 481.868 9.34021 481.858 9.22021 481.798C9.09021 481.738 9.00021 481.628 8.95021 481.498C8.86021 481.228 8.99022 480.938 9.26022 480.838L15.7102 478.608C15.8402 478.558 15.9802 478.568 16.1102 478.628C16.2402 478.688 16.3302 478.798 16.3802 478.928C16.4702 479.198 16.3402 479.488 16.0702 479.588L9.62022 481.828V481.818Z" fill="#3C3D3D"/>
<path d="M10.6789 485.059C10.4089 485.149 10.1089 485.009 10.0089 484.729C9.91891 484.459 10.0489 484.169 10.3089 484.069L15.3289 482.369C15.5989 482.279 15.8989 482.419 15.9989 482.699C16.0889 482.969 15.9589 483.259 15.6889 483.359L10.6689 485.059H10.6789Z" fill="#3C3D3D"/>
<path d="M11.7882 488.258C11.5182 488.348 11.2182 488.208 11.1182 487.928C11.0282 487.658 11.1582 487.368 11.4282 487.268L16.4082 485.568C16.5382 485.518 16.6882 485.528 16.8082 485.598C16.9382 485.658 17.0282 485.768 17.0782 485.898C17.1682 486.168 17.0382 486.458 16.7682 486.558L11.7882 488.258Z" fill="#3C3D3D"/>
<path d="M19.0574 485.609C18.9574 485.649 18.8574 485.659 18.7574 485.629C18.4774 485.569 18.2974 485.279 18.3574 484.999L18.4474 484.589L18.3374 484.459C17.6374 483.629 17.2074 481.919 17.4374 480.879C17.5974 480.169 18.7374 474.459 20.7574 464.369L20.8674 463.809C20.9074 463.629 21.0274 463.489 21.1974 463.419C21.2874 463.379 21.3874 463.379 21.4874 463.399L22.0874 463.519L22.5474 461.449C22.5874 461.289 22.6874 461.149 22.8374 461.089C23.0074 461.019 23.1674 461.029 23.2974 461.099L24.5674 461.779C24.7674 461.889 24.8774 462.119 24.8374 462.339L24.5074 464.039H24.9274C25.0674 464.059 25.1974 464.109 25.2874 464.209L26.6674 465.639C26.7874 465.759 26.8374 465.939 26.8074 466.109L25.3674 473.359C25.3374 473.529 25.2174 473.669 25.0674 473.739L24.3274 474.069C24.1874 474.119 24.0574 474.119 23.9374 474.079L23.5474 473.939L23.4674 474.339C22.5874 478.749 22.0774 481.269 21.9574 481.809C21.6574 483.209 20.3474 484.339 19.5974 484.729L19.4474 484.809L19.3574 485.229C19.3174 485.399 19.1974 485.539 19.0374 485.599L19.0574 485.609ZM19.4374 476.309C18.8474 479.229 18.5374 480.749 18.4674 481.109C18.2974 481.879 18.6674 482.989 18.9474 483.499L19.1374 483.849L19.4674 483.619C20.0474 483.209 20.7874 482.429 20.9674 481.599C21.0574 481.189 21.3774 479.619 21.9374 476.799L22.0074 476.449L19.5174 475.949L19.4474 476.299L19.4374 476.309ZM19.7174 474.939L22.2074 475.439L22.2774 475.089C23.0174 471.389 23.8574 467.169 24.2074 465.389L24.2774 465.039L21.7974 464.549L19.7174 474.939Z" fill="#3C3D3D"/>
<path d="M280.97 424.39C280.61 424.61 280.41 425.05 280.35 425.66C278.04 431.4 273.81 435.43 270.65 437.81C270.65 437.81 270.57 437.86 270.54 437.89C268.32 439.55 266.66 440.38 266.63 440.39C265.62 441.01 265.96 443.85 267.64 446.59C269.31 449.33 271.69 450.92 272.7 450.31C272.7 450.31 272.85 450.21 273.11 450.05C273.64 451.74 274.97 453.19 275.18 453.34C275.22 453.37 275.43 453.3 275.74 453.17C277.38 455.74 279.92 458.63 282.29 459.97C282.91 460.04 285.22 456.72 284.92 456.37C283.39 455.31 281.09 452.95 279.67 451.21C280.19 450.92 280.56 450.69 280.65 450.59C280.91 450.28 279.6 447.99 279.09 447.13C281.28 446.3 283.94 445.52 286.91 445.12C286.91 445.12 286.93 445.14 286.94 445.14L286.92 445.12C288.61 444.89 290.39 444.79 292.24 444.87C292.73 445.03 293.16 445.03 293.47 444.84C295.06 443.86 293.56 438.5 290.11 432.85C286.66 427.2 282.56 423.42 280.97 424.39Z" fill="#F4C058"/>
<path d="M281.406 460.08C281.226 460.19 281.056 460.25 280.916 460.23C280.866 460.23 280.816 460.21 280.766 460.18C278.146 458.7 275.536 455.53 274.086 453.27C273.966 453.09 274.026 452.84 274.206 452.73C274.386 452.62 274.636 452.67 274.746 452.85C276.116 455 278.566 457.98 281.016 459.42C281.546 459.1 282.986 457.13 283.196 456.45C281.636 455.32 279.396 453 278.036 451.33C277.896 451.16 277.926 450.91 278.096 450.78C278.266 450.64 278.516 450.67 278.646 450.84C280.026 452.53 282.306 454.88 283.816 455.93C283.846 455.95 283.876 455.97 283.896 456C284.136 456.28 283.986 456.7 283.686 457.25C283.676 457.28 282.396 459.49 281.406 460.09V460.08Z" fill="#4C4B4C"/>
<path d="M279.059 451.13C278.379 451.55 277.279 452.11 276.719 452.39C273.969 453.78 273.829 453.67 273.619 453.53C273.369 453.36 271.959 451.85 271.399 450.04C271.339 449.83 271.449 449.61 271.659 449.55C271.869 449.49 272.089 449.6 272.149 449.81C272.579 451.18 273.599 452.43 273.969 452.8C274.779 452.53 278.299 450.75 278.949 450.27C278.879 449.92 278.399 448.87 277.409 447.21C277.299 447.02 277.359 446.79 277.549 446.67C277.739 446.56 277.979 446.62 278.089 446.81C280.079 450.17 279.799 450.51 279.619 450.73C279.539 450.82 279.329 450.97 279.059 451.14V451.13Z" fill="#4C4B4C"/>
<path d="M291.108 445.08C291.048 445.12 290.968 445.14 290.888 445.14C280.608 444.7 272.498 449.91 271.598 450.5C270.288 451.3 267.728 449.54 265.978 446.67C264.218 443.8 263.818 440.72 265.098 439.93C265.098 439.93 265.138 439.91 265.148 439.9C266.138 439.38 274.948 434.61 278.658 425.38C278.738 425.18 278.968 425.08 279.168 425.16C279.368 425.24 279.468 425.47 279.388 425.67C275.578 435.16 266.538 440.06 265.518 440.59C264.838 441.01 265.018 443.56 266.658 446.25C268.298 448.93 270.498 450.25 271.178 449.84C272.088 449.23 280.408 443.89 290.938 444.34C291.158 444.34 291.318 444.53 291.318 444.75C291.318 444.89 291.238 445 291.128 445.07L291.108 445.08Z" fill="#4C4B4C"/>
<path d="M275.776 448.23C274.376 449.09 271.906 446.75 270.296 444.11C268.686 441.47 267.726 438.21 269.126 437.35C269.316 437.24 269.556 437.3 269.666 437.48C269.776 437.66 269.726 437.91 269.536 438.02C268.916 438.4 269.156 440.74 270.966 443.7C272.776 446.66 274.746 447.94 275.366 447.56C275.556 447.45 275.796 447.51 275.906 447.69C276.016 447.87 275.966 448.12 275.776 448.23Z" fill="#4C4B4C"/>
<path d="M292.346 445.05C290.256 446.33 285.796 441.58 282.666 436.46C279.536 431.34 277.336 425.21 279.426 423.93C281.516 422.65 285.976 427.4 289.106 432.52C292.236 437.64 294.436 443.77 292.336 445.05H292.346ZM279.836 424.6C278.626 425.34 279.766 430.22 283.336 436.05C286.896 441.88 290.726 445.11 291.936 444.38C293.146 443.64 292.006 438.76 288.436 432.93C284.876 427.1 281.046 423.87 279.836 424.6Z" fill="#4C4B4C"/>
<path d="M285.808 445.351C285.678 445.431 285.498 445.431 285.368 445.331C283.388 443.841 281.238 441.321 279.468 438.421C277.778 435.651 276.568 432.811 276.078 430.401C276.038 430.191 276.168 429.981 276.388 429.941C276.598 429.901 276.807 430.031 276.847 430.251C277.327 432.561 278.488 435.321 280.138 438.011C281.858 440.831 283.938 443.261 285.838 444.701C286.008 444.831 286.048 445.081 285.918 445.251C285.888 445.291 285.848 445.321 285.808 445.351Z" fill="#4C4B4C"/>
<path d="M288.069 438.659C287.029 439.299 285.209 436.949 284.299 435.459C283.389 433.969 282.129 431.289 283.169 430.649C284.209 430.009 286.029 432.359 286.939 433.849C287.849 435.339 289.109 438.029 288.069 438.659ZM283.589 431.329C283.449 431.629 283.789 433.099 284.979 435.049C286.169 436.999 287.329 437.969 287.659 437.979C287.799 437.679 287.459 436.199 286.269 434.259C285.079 432.319 283.919 431.339 283.589 431.329Z" fill="#4C4B4C"/>
<path d="M281.557 433.381C281.397 433.481 281.197 433.451 281.067 433.311C280.917 433.151 280.927 432.901 281.087 432.751C281.097 432.741 282.417 431.521 283.077 430.721C283.217 430.551 283.467 430.531 283.627 430.671C283.797 430.811 283.817 431.061 283.677 431.221C282.977 432.061 281.667 433.271 281.617 433.331C281.597 433.351 281.577 433.361 281.557 433.381Z" fill="#4C4B4C"/>
<path d="M288.079 438.66C288.079 438.66 287.999 438.7 287.959 438.71C286.949 438.94 285.259 439.55 285.249 439.56C285.049 439.63 284.819 439.53 284.749 439.33C284.679 439.13 284.779 438.9 284.979 438.83C285.049 438.8 286.729 438.19 287.789 437.95C287.999 437.9 288.209 438.04 288.259 438.25C288.299 438.42 288.219 438.59 288.079 438.67V438.66Z" fill="#4C4B4C"/>
<path d="M236.037 96.9695C235.687 98.1895 234.407 98.8895 233.187 98.5395C231.967 98.1895 231.267 96.9095 231.617 95.6895C231.967 94.4695 233.247 93.7694 234.467 94.1194C235.687 94.4694 236.387 95.7495 236.037 96.9695Z" fill="#3C3D3D"/>
<path d="M233.826 101.768C233.326 101.768 232.816 101.698 232.316 101.558C230.916 101.158 229.766 100.228 229.066 98.9584C228.366 97.6884 228.196 96.2184 228.606 94.8184C229.006 93.4184 229.936 92.2684 231.206 91.5684C232.476 90.8684 233.946 90.6983 235.346 91.1083C236.746 91.5083 237.896 92.4384 238.596 93.7084C239.296 94.9784 239.466 96.4484 239.056 97.8484C238.366 100.228 236.186 101.778 233.826 101.778V101.768ZM233.826 91.7783C233.066 91.7783 232.316 91.9684 231.636 92.3484C230.576 92.9384 229.796 93.8984 229.466 95.0684C229.126 96.2384 229.266 97.4683 229.856 98.5283C230.446 99.5883 231.406 100.368 232.576 100.698C234.986 101.398 237.516 99.9984 238.206 97.5884C238.546 96.4184 238.406 95.1883 237.816 94.1283C237.226 93.0683 236.266 92.2884 235.096 91.9584C234.676 91.8384 234.246 91.7783 233.826 91.7783Z" fill="#4C4B4C"/>
<path d="M233.827 103.938C233.127 103.938 232.417 103.838 231.717 103.638C227.687 102.468 225.357 98.2483 226.517 94.2183C227.077 92.2683 228.377 90.6483 230.147 89.6683C231.927 88.6883 233.977 88.4583 235.937 89.0183C239.967 90.1883 242.297 94.4083 241.137 98.4383C240.177 101.768 237.127 103.938 233.827 103.938ZM233.817 89.6082C232.697 89.6082 231.587 89.8883 230.587 90.4483C229.017 91.3183 227.877 92.7383 227.377 94.4683C226.347 98.0283 228.407 101.758 231.967 102.788C233.687 103.288 235.507 103.088 237.077 102.218C238.647 101.348 239.787 99.9283 240.287 98.1983C241.317 94.6383 239.257 90.9083 235.697 89.8783C235.077 89.6983 234.447 89.6082 233.817 89.6082Z" fill="#4C4B4C"/>
<path d="M230.857 107.038C230.857 107.038 230.777 107.038 230.737 107.018C230.497 106.948 230.367 106.708 230.437 106.468L236.377 85.9283C236.447 85.6883 236.687 85.5583 236.927 85.6283C237.167 85.6983 237.297 85.9383 237.227 86.1783L231.287 106.718C231.227 106.908 231.057 107.038 230.857 107.038Z" fill="#4C4B4C"/>
<path d="M244.1 99.739C244.1 99.739 244.02 99.7391 243.98 99.7191L223.44 93.779C223.2 93.709 223.07 93.469 223.14 93.229C223.21 92.989 223.45 92.8591 223.69 92.9291L244.23 98.869C244.47 98.939 244.6 99.179 244.53 99.419C244.47 99.609 244.3 99.739 244.1 99.739Z" fill="#4C4B4C"/>
<path d="M180.103 335.202C176.363 333.512 173.373 336.422 173.373 336.422L173.243 336.392C173.243 336.392 171.643 332.542 167.543 332.622C163.463 332.702 161.063 341.692 170.933 347.612L171.093 347.642C182.493 346.082 183.833 336.882 180.113 335.202H180.103Z" fill="#F18904"/>
<path d="M182.294 334.081C178.554 332.391 175.564 335.301 175.564 335.301L175.434 335.271C175.434 335.271 173.834 331.421 169.734 331.501C165.654 331.581 163.254 340.561 173.124 346.491L173.284 346.521C184.684 344.961 186.024 335.761 182.304 334.081H182.294Z" stroke="#236242" stroke-linecap="round" stroke-linejoin="round"/>
<path d="M145.377 155.059L146.837 157.669L139.637 173.089C139.637 173.089 135.227 166.839 129.147 168.059L127.487 167.449C127.487 167.449 125.187 164.079 121.987 163.069C121.987 163.069 118.487 162.189 116.617 162.259L123.847 146.609L125.917 147.529L119.907 160.369C119.907 160.369 125.377 161.629 128.227 166.649L129.177 166.959C129.177 166.959 134.267 165.529 138.617 169.239L145.377 155.079V155.059Z" fill="#F4C058"/>
<path d="M136.958 152.309L133.438 160.489H134.408L135.198 161.239L139.368 152.599C139.368 152.599 138.718 152.169 136.958 152.309Z" fill="#F4C058"/>
<path d="M124.508 162.648C124.418 162.648 124.328 162.608 124.228 162.548C124.088 162.448 124.028 162.258 124.088 162.098L123.658 161.818C123.588 161.888 123.488 161.928 123.388 161.928C123.318 161.928 123.238 161.908 123.178 161.868C123.098 161.818 123.018 161.768 122.938 161.718C122.848 161.668 122.788 161.578 122.758 161.478C122.738 161.378 122.758 161.268 122.808 161.178C122.878 161.058 123.008 160.988 123.138 160.988C123.208 160.988 123.278 161.008 123.338 161.048C123.428 161.098 123.508 161.158 123.588 161.208C123.738 161.308 123.808 161.498 123.748 161.668L124.188 161.938C124.258 161.868 124.358 161.818 124.468 161.818C124.548 161.818 124.618 161.838 124.678 161.878C124.728 161.908 124.768 161.948 124.798 161.998C124.928 162.168 124.918 162.368 124.798 162.508C124.798 162.508 124.678 162.648 124.498 162.648H124.508Z" fill="#3C3D3D"/>
<path d="M138.798 172.848C138.738 172.848 138.688 172.838 138.628 172.808C138.548 172.768 138.498 172.728 138.458 172.668C138.408 172.598 137.258 170.968 135.428 169.578C133.628 168.198 131.828 167.508 130.058 167.508C129.448 167.508 128.828 167.598 128.228 167.758C128.198 167.758 128.158 167.768 128.118 167.768C127.948 167.768 127.788 167.648 127.738 167.478C127.698 167.328 127.738 167.168 127.868 167.068L128.348 166.688L127.748 166.598C127.748 166.598 127.668 166.578 127.638 166.568L127.258 166.358L127.218 166.778C127.218 166.908 127.148 167.028 127.038 167.098C126.978 167.138 126.898 167.158 126.828 167.158C126.698 167.158 126.568 167.088 126.498 166.978C125.078 164.758 122.928 163.238 120.088 162.458C118.398 161.998 116.948 161.948 116.408 161.948C116.258 161.948 116.168 161.948 116.158 161.948C116.098 161.948 116.048 161.948 116.008 161.928L115.928 161.898L115.848 161.918C115.848 161.918 115.778 161.928 115.748 161.928C115.688 161.928 115.638 161.918 115.578 161.888C115.378 161.798 115.298 161.558 115.388 161.368L122.778 145.598C122.838 145.458 122.978 145.368 123.138 145.368C123.198 145.368 123.248 145.378 123.308 145.408C123.508 145.498 123.588 145.738 123.498 145.928L116.368 161.148H116.768C117.558 161.188 118.808 161.298 120.248 161.688C122.578 162.318 124.508 163.448 125.988 165.038L126.398 164.698C126.088 164.278 125.718 163.868 125.298 163.478C125.138 163.328 125.128 163.078 125.278 162.928C125.348 162.848 125.458 162.808 125.568 162.808C125.668 162.808 125.758 162.848 125.838 162.918C126.528 163.568 127.098 164.258 127.518 164.968L127.768 165.398L131.308 157.848C131.368 157.708 131.508 157.618 131.668 157.618C131.728 157.618 131.778 157.628 131.838 157.658C131.928 157.698 132.008 157.778 132.038 157.878C132.078 157.978 132.068 158.078 132.028 158.178L128.518 165.658L129.028 165.558C129.638 165.438 130.278 165.378 130.918 165.378C131.058 165.378 131.208 165.378 131.358 165.378C132.908 165.448 135.238 165.928 137.568 167.838L137.828 168.058L144.228 154.388L144.018 154.268C141.808 153.038 139.968 152.458 139.068 152.228L138.858 152.178L134.828 160.778C134.768 160.908 134.648 160.988 134.508 160.998C134.348 160.998 134.228 160.938 134.158 160.838L133.528 159.968L132.528 160.268C132.528 160.268 132.458 160.288 132.418 160.288C132.308 160.288 132.198 160.238 132.118 160.148C132.018 160.028 131.998 159.868 132.058 159.728L135.768 151.808L135.278 151.878C135.198 151.888 135.128 151.898 135.068 151.908L134.938 151.928L133.268 155.498C133.208 155.638 133.068 155.728 132.908 155.728C132.848 155.728 132.798 155.718 132.738 155.688C132.648 155.648 132.568 155.568 132.538 155.468C132.498 155.368 132.508 155.268 132.548 155.168L134.208 151.618L134.108 151.488C131.928 148.578 127.758 146.778 126.058 146.128L125.828 146.038L119.618 159.288L119.888 159.388C120.388 159.578 121.178 159.898 122.078 160.358C122.168 160.408 122.238 160.488 122.268 160.588C122.298 160.688 122.288 160.798 122.248 160.888C122.178 161.018 122.048 161.098 121.898 161.098C121.838 161.098 121.778 161.088 121.718 161.058C120.228 160.298 119.008 159.908 118.958 159.898C118.848 159.868 118.758 159.788 118.718 159.678C118.668 159.578 118.678 159.458 118.718 159.358L125.198 145.528L125.228 145.468L125.248 145.428V145.398C125.308 145.258 125.448 145.158 125.608 145.158C125.648 145.158 125.688 145.158 125.728 145.178C125.978 145.258 131.868 147.208 134.708 151.008L134.808 151.138L134.968 151.108C135.278 151.058 135.768 150.988 136.368 150.988C137.148 150.988 137.908 151.088 138.638 151.298C138.668 151.298 138.688 151.318 138.708 151.328L138.738 151.348H138.768C140.588 151.758 142.758 152.648 144.738 153.788C144.758 153.798 144.778 153.818 144.798 153.838L144.828 153.858L144.858 153.878C145.048 153.968 145.128 154.208 145.038 154.398L138.358 168.658C138.358 168.658 138.318 168.728 138.288 168.768L138.258 168.798L138.238 168.838C138.238 168.838 138.198 168.908 138.168 168.938C138.098 169.018 137.988 169.058 137.878 169.058C137.778 169.058 137.688 169.018 137.608 168.948C135.128 166.628 132.568 166.138 130.858 166.138C130.598 166.138 130.348 166.148 130.088 166.168L130.108 166.698C132.048 166.728 133.998 167.478 135.898 168.948C137.018 169.808 137.878 170.738 138.408 171.368L138.678 171.678L145.798 156.488C145.858 156.348 145.998 156.258 146.158 156.258C146.218 156.258 146.268 156.268 146.328 156.298C146.528 156.388 146.608 156.628 146.518 156.818L139.128 172.588C139.068 172.728 138.928 172.818 138.768 172.818L138.798 172.848ZM133.658 159.128C133.788 159.128 133.908 159.188 133.978 159.288L134.378 159.848L138.068 151.978L137.728 151.918C137.418 151.868 137.108 151.828 136.798 151.808H136.618L133.168 159.168L133.628 159.128H133.658Z" fill="#3C3D3D"/>
<path d="M132.277 157.079C132.177 157.079 132.077 157.039 131.997 156.969C131.927 156.899 131.887 156.799 131.887 156.689C131.887 156.579 131.927 156.489 131.997 156.409C132.067 156.339 132.167 156.299 132.277 156.299C132.387 156.299 132.477 156.339 132.557 156.409C132.627 156.479 132.667 156.579 132.667 156.689C132.667 156.799 132.627 156.889 132.557 156.969C132.487 157.039 132.387 157.079 132.277 157.079Z" fill="#3C3D3D"/>
<path d="M126.736 155.668H124.316C124.676 154.718 125.416 154.318 126.376 154.148C126.546 154.178 126.476 154.638 126.516 154.798C126.576 155.088 126.716 155.368 126.736 155.668Z" fill="white"/>
<path d="M142.18 204.55V200.33" stroke="#236242" stroke-linecap="round" stroke-linejoin="round"/>
<path d="M142.18 194.9V190.68" stroke="#236242" stroke-linecap="round" stroke-linejoin="round"/>
<path d="M149.118 197.609H144.898" stroke="#236242" stroke-linecap="round" stroke-linejoin="round"/>
<path d="M139.47 197.609H135.25" stroke="#236242" stroke-linecap="round" stroke-linejoin="round"/>
<path d="M147.092 192.709L144.102 195.699" stroke="#236242" stroke-linecap="round" stroke-linejoin="round"/>
<path d="M140.271 199.529L137.281 202.519" stroke="#236242" stroke-linecap="round" stroke-linejoin="round"/>
<path d="M147.092 202.519L144.102 199.529" stroke="#236242" stroke-linecap="round" stroke-linejoin="round"/>
<path d="M140.271 195.699L137.281 192.709" stroke="#236242" stroke-linecap="round" stroke-linejoin="round"/>
<path d="M173.639 202.439L175.559 213.659L164.879 209.709L173.639 202.439Z" fill="#70B791"/>
<path d="M174.7 204.1L176.62 215.33L165.93 211.38L174.7 204.1Z" stroke="#020B18" stroke-width="1.52" stroke-linecap="round" stroke-linejoin="round"/>
<path d="M7.68656 361.968L4.32656 367.108L0.976562 361.968L4.32656 356.828L7.68656 361.968Z" fill="#E7D56D"/>
</svg>
