<svg preserveAspectRatio="none" width="100%" height="100%" overflow="visible" style="display: block;" viewBox="0 0 136.863 32.1794" fill="none" xmlns="http://www.w3.org/2000/svg">
<g id="Group">
<path id="Vector" d="M9.34686 30.5674C9.34686 31.5692 8.50695 32.0401 7.67677 32.0401C6.80752 32.0401 5.92847 31.5392 5.92847 30.5774V30.5373L6.08477 19.0662C4.86392 20.1382 2.8031 21.6511 1.78735 21.6511C0.771596 21.6511 0 20.8695 0 20.0079C0 19.4669 0.312577 18.9359 1.01579 18.5352C7.29586 15.0488 9.76683 9.27818 9.76683 9.0678C9.76683 8.70713 9.23944 8.67718 8.99527 8.67718C8.79016 8.67718 8.57528 8.67718 8.37018 8.67718C6.37774 8.67718 4.87367 8.8274 2.71521 8.86747H2.6761C1.63105 8.86747 1.06461 8.07598 1.06461 7.32459C1.06461 6.57321 1.58224 5.78171 2.63705 5.78171C3.72117 5.74163 4.80531 5.7418 5.88942 5.70173L5.85032 2.11503C5.85032 1.04306 6.71957 0.501953 7.55951 0.501953C8.42876 0.501953 9.30781 1.03304 9.30781 2.11503V5.66161H10.4701C12.4918 5.69167 13.4782 6.69341 13.4782 8.05592C13.4782 9.91936 10.8314 13.7564 9.16129 15.8002C9.20035 21.3504 9.35664 30.5273 9.35664 30.5273V30.5674H9.34686ZM13.0387 20.4589C12.3062 19.3869 11.2221 18.4951 10.3431 17.9942C9.96219 17.7838 9.78638 17.4232 9.78638 17.1026C9.78638 16.3112 10.558 15.4895 11.4272 15.4895C12.0913 15.4895 15.832 17.4534 15.832 19.2066C15.832 20.2085 14.9921 21.11 14.1229 21.11C13.7419 21.11 13.3513 20.9298 13.0387 20.4689V20.4589ZM12.5309 30.4573C11.4467 30.4573 10.9193 29.6357 10.9193 28.8442C10.9193 28.0227 11.437 27.2314 12.5211 27.2314L19.436 27.2613L19.3872 14.7582L14.8456 14.7983C13.7615 14.7983 13.234 13.977 13.234 13.1855C13.234 12.364 13.7517 11.5724 14.8065 11.5724H14.8456L19.3872 11.6025V2.64604C19.3774 1.53399 20.2467 0.992848 21.155 0.992848C22.0242 0.992848 22.9032 1.52396 22.9032 2.63601L22.8837 11.6326L27.9429 11.5524H27.982C29.0661 11.5524 29.6228 12.3439 29.6228 13.1654C29.6228 13.9569 29.0661 14.7783 27.9526 14.7783L22.8837 14.7482L22.9032 27.2512L29.6814 27.2114C30.7948 27.2114 31.3613 28.0327 31.3613 28.8242C31.3613 29.6457 30.8046 30.4373 29.6912 30.4373L12.5406 30.4573H12.5309Z" fill="var(--fill-0, #236242)"/>
<path id="Vector_2" d="M51.4828 4.95951C51.1019 4.52872 50.8187 4.31844 50.5745 4.31844C50.3303 4.31844 50.0862 4.53874 49.7346 4.95951C46.8729 8.68639 42.2727 13.215 38.532 15.7196C38.0046 16.0803 37.5162 16.2205 37.0669 16.2205C35.9535 16.2205 35.1429 15.2887 35.1429 14.3269C35.1429 13.7158 35.4945 13.0746 36.2563 12.6438C40.3095 10.4899 44.6363 6.11174 47.2831 2.55518C48.123 1.44313 49.2071 0.832031 50.3205 0.832031C51.4047 0.832031 52.5571 1.36297 53.6022 2.54515C57.0303 6.30208 60.7711 9.30755 64.9317 11.4916C65.5959 11.8522 65.8791 12.4233 65.8791 13.0345C65.8791 14.0764 65.0098 15.1485 63.8183 15.1485C61.9333 15.1485 55.3602 9.38791 51.473 4.94973L51.4828 4.95951ZM49.715 20.4082C49.0899 22.4519 48.2206 25.1068 47.1756 27.401C50.3889 27.1506 53.5631 26.7497 56.6104 26.2789C55.8095 25.5275 54.9305 24.8163 54.0612 24.2052C53.5338 23.8445 53.3287 23.4138 53.3287 22.983C53.3287 22.2316 54.0612 21.51 54.9696 21.51C57.0304 21.51 63.33 27.4811 63.33 29.595C63.33 30.667 62.3533 31.5285 61.3766 31.5285C60.8199 31.5285 60.2924 31.248 59.9408 30.5668C59.5892 29.9256 59.2083 29.3147 58.7884 28.7436C50.6135 30.5069 40.7002 31.2081 39.997 31.2081C38.9519 31.2081 38.3854 30.2763 38.3854 29.4148C38.3854 28.6233 38.8347 27.8418 39.8114 27.8017C41.0323 27.7616 42.2922 27.7316 43.5521 27.6515C44.5288 25.5677 45.4273 22.8126 46.0231 20.4483L39.4208 20.4881C38.3074 20.4881 37.7799 19.737 37.7799 18.9455C37.7799 18.124 38.3367 17.2622 39.4208 17.2622L61.6012 17.2321C62.7146 17.2321 63.2811 18.0538 63.2811 18.8753C63.2811 19.6668 62.7244 20.4583 61.611 20.4583L49.7346 20.3981L49.715 20.4082ZM45.7301 13.8159C44.646 13.8159 44.0893 13.0346 44.0893 12.2031C44.0893 11.4116 44.646 10.59 45.7301 10.59H55.7607C56.8448 10.58 57.4015 11.4016 57.4015 12.183C57.4015 13.0046 56.8448 13.7959 55.7607 13.7959H45.7301V13.8159Z" fill="var(--fill-0, #236242)"/>
<path id="Vector_3" d="M89.9217 22.5014C89.9901 23.0024 90.0291 23.5434 90.0291 24.0744C90.0291 27.3004 88.5739 32.1794 82.499 32.1794C79.774 32.1794 78.3089 31.4279 78.3089 30.0354C78.3089 29.1437 78.9731 28.3523 79.9498 28.3523C80.1256 28.3523 80.3014 28.3524 80.5065 28.4225C81.2781 28.673 82.079 28.8131 82.8115 28.8131C86.728 28.8131 86.7182 24.0044 86.7182 23.7239C86.7182 23.2931 86.6791 22.9022 86.6107 22.5115L71.7945 22.6017C70.7104 22.6017 70.183 21.8202 70.183 21.0288C70.183 20.2072 70.7397 19.3758 71.7554 19.3758L84.6769 19.426C84.257 19.1354 83.8077 18.8549 83.2803 18.6746C82.5478 18.4241 82.2352 17.9631 82.2255 17.4922C82.2255 16.7408 83.0263 15.9894 84.0714 15.9894C84.843 15.9894 85.5755 16.3804 86.1322 16.701C87.0405 16.0898 88.8864 14.7573 88.8864 14.3265C88.8864 14.1862 88.7497 14.1161 88.5055 14.1161C88.1246 14.076 87.4605 14.076 86.6499 14.086C84.4132 14.086 81.0242 14.1661 78.5824 14.2763H78.5141C77.469 14.2763 76.9416 13.5249 76.9416 12.7736C76.9416 12.0522 77.4593 11.3008 78.5434 11.2708C80.0475 11.2007 81.9325 11.1908 83.7882 11.1908C86.3373 11.1908 88.8865 11.2207 90.498 11.2507C92.4904 11.2808 93.3303 12.3229 93.3303 13.4349C93.3303 15.1882 91.4844 16.6609 88.3395 18.6746C88.5153 18.925 88.6911 19.1755 88.8278 19.426L99.2393 19.3056C100.255 19.3056 100.773 20.1273 100.773 20.9488C100.773 21.7402 100.284 22.5215 99.2686 22.5315L89.9022 22.5115L89.9217 22.5014ZM95.6744 11.0303C95.6744 9.52758 94.9028 9.27708 93.4769 9.237C90.6835 9.20695 87.5386 9.17708 84.5011 9.17708C82.0204 9.17708 79.5786 9.21698 77.4104 9.25706C75.4863 9.29713 75.1738 9.79809 75.0761 11.0504V13.1243V13.1644C75.0761 14.1663 74.2069 14.7371 73.2986 14.7472C72.4977 14.7472 71.6578 14.2464 71.6187 13.1343C71.6187 12.6735 71.5796 12.1324 71.5796 11.5614C71.5796 10.9502 71.6089 10.3391 71.6089 9.80812C71.6773 8.12502 72.9665 6.4019 75.6914 6.36183L78.6215 6.32171C78.4457 6.21151 78.309 6.03118 78.1625 5.82079C77.43 4.56848 76.6584 4.10756 75.711 3.24597C75.3985 2.95544 75.2519 2.63492 75.2519 2.31433C75.2519 1.52287 76.1212 0.771442 77.0295 0.771442C78.3578 0.771442 81.0827 3.48642 81.0827 4.74875C81.0827 5.38993 80.6335 6.00112 80.067 6.32171C83.1436 6.28164 86.181 6.28159 89.2576 6.27157C90.2733 5.08939 91.1719 3.00558 91.7286 1.54288C92.0412 0.721369 92.6662 0.390857 93.3011 0.390857C94.2777 0.390857 95.2935 1.14224 95.2935 2.14409C95.2935 2.82535 94.1801 4.57848 92.7443 6.30166C93.5452 6.30166 94.3852 6.33174 95.186 6.33174C97.2468 6.3618 99.1709 7.51381 99.2393 9.7279C99.2784 10.2288 99.2783 10.9804 99.2783 11.6616C99.2783 12.1626 99.2783 12.6333 99.249 12.9839C99.1807 14.0258 98.2724 14.5669 97.4031 14.5669C96.4948 14.5669 95.6548 14.066 95.6548 13.0641V11.0203L95.6744 11.0303ZM85.7806 6.13142C85.2922 6.13142 84.8332 5.88085 84.5891 5.26973C84.1007 3.94729 83.3291 3.156 82.5282 2.19423C82.3231 1.94377 82.2157 1.65319 82.2157 1.40273C82.2157 0.651347 83.0849 0 83.9932 0C85.7708 0 87.7046 3.50653 87.7046 4.32805C87.7046 5.29984 86.6889 6.12139 85.7904 6.12139L85.7806 6.13142Z" fill="var(--fill-0, #236242)"/>
<path id="Vector_4" d="M114.732 30.4258C114.732 31.4277 113.892 31.9286 113.023 31.9286C112.153 31.9286 111.313 31.4277 111.304 30.4258V30.3857L111.431 18.9946C110.249 20.9281 108.852 22.7216 107.592 24.1242C107.172 24.555 106.723 24.7753 106.264 24.7753C105.317 24.7753 104.486 23.9538 104.477 23.0922C104.477 22.6614 104.652 22.2707 105.072 21.87C106.957 20.1468 109.78 16.6303 111.46 13.3342L111.421 12.5829L107.338 12.6932H107.299C106.254 12.6932 105.766 11.9417 105.766 11.1503C105.766 10.3588 106.284 9.57731 107.338 9.56729H111.392L111.313 6.01068C110.649 6.12089 108.305 6.55172 107.924 6.55172C106.879 6.55172 106.313 5.73034 106.313 4.93888C106.313 4.22757 106.762 3.5062 107.709 3.396C110.991 3.06539 113.364 2.49422 116.373 1.27197C116.578 1.20184 116.754 1.1619 116.929 1.1619C117.838 1.1619 118.502 1.94323 118.502 2.80482C118.502 4.05713 117.174 4.52794 114.663 5.24927C114.624 6.00066 114.634 7.61367 114.605 9.54723H118.17C119.215 9.54723 119.742 10.3287 119.742 11.1202C119.742 11.9117 119.215 12.6631 118.209 12.6631H118.17L114.536 12.5929V14.3461C114.673 14.306 114.781 14.306 114.888 14.306C116.177 14.306 119.049 16.8808 119.225 17.0912C119.576 17.4819 119.713 17.8826 119.713 18.3034C119.713 19.195 118.98 20.0265 118.179 20.0265C117.799 20.0265 117.408 19.8463 117.066 19.4155C116.47 18.6241 115.425 17.7324 114.546 17.0912C114.585 22.5011 114.742 30.3456 114.742 30.3456V30.3857L114.732 30.4258ZM128.239 22.2706L119.898 24.6853C119.693 24.7554 119.518 24.7552 119.342 24.7552C118.394 24.7552 117.877 24.004 117.877 23.2126C117.877 22.5714 118.258 21.9201 119.059 21.6697L128.239 19.0046L128.151 2.02335C128.151 0.981431 128.952 0.480469 129.792 0.480469C130.632 0.480469 131.501 1.01149 131.501 2.02335L131.453 18.1131L134.871 17.1112C135.047 17.0712 135.223 17.041 135.359 17.041C136.268 17.041 136.863 17.8627 136.863 18.6541C136.863 19.2652 136.512 19.8763 135.75 20.0867L131.453 21.3089L131.531 30.5158C131.531 31.4475 130.691 31.9186 129.861 31.9186C129.021 31.9186 128.181 31.4576 128.181 30.5259L128.239 22.2807V22.2706ZM123.62 16.8307C122.604 15.7587 121.168 14.7869 120.406 14.286C119.918 13.9954 119.713 13.5748 119.713 13.174C119.713 12.4627 120.406 11.7412 121.422 11.7412C122.643 11.7412 125.163 13.6047 125.788 14.2458C126.208 14.6766 126.384 15.1376 126.384 15.6085C126.384 16.5803 125.651 17.4018 124.782 17.4018C124.401 17.4018 124.01 17.2214 123.629 16.8307H123.62ZM123.893 9.2366C123.014 8.05442 121.686 6.91243 120.885 6.34137C120.504 6.05084 120.328 5.73031 120.328 5.40972C120.328 4.65834 121.168 3.90695 122.076 3.90695C123.014 3.90695 126.725 6.3414 126.725 8.12469C126.725 9.12654 125.964 9.95815 125.124 9.95815C124.704 9.95815 124.284 9.74755 123.903 9.24663L123.893 9.2366Z" fill="var(--fill-0, #236242)"/>
</g>
</svg>
