<svg preserveAspectRatio="none" width="100%" height="100%" overflow="visible" style="display: block;" viewBox="0 0 87.1374 14.9882" fill="none" xmlns="http://www.w3.org/2000/svg">
<g id="Group">
<path id="Vector" d="M3.80235 13.0387C3.80235 14.1508 3.23587 14.6618 2.03455 14.6618C0.921135 14.6618 0.315582 14.2009 0.315582 13.0387V1.94846C0.315582 0.726204 1.00898 0.325347 2.10287 0.325347C3.19675 0.325347 3.79253 0.806352 3.81206 1.94846V13.0387H3.80235Z" stroke="var(--stroke-0, #236242)" stroke-width="0.631164" stroke-linecap="round" stroke-linejoin="round"/>
<path id="Vector_2" d="M9.9079 13.0394C9.9079 14.2316 9.29259 14.6625 8.1987 14.6625C7.16342 14.6625 6.53833 14.2316 6.53833 13.0394V5.40549C6.53833 4.23333 7.16342 3.78238 8.2573 3.78238C8.64797 3.78238 9.0191 3.85254 9.3414 4.06293C8.69679 4.41357 8.16937 4.92466 8.16937 5.71612C8.16937 6.80813 8.86285 7.62968 9.9079 7.7499V13.0394ZM15.6117 13.0394C15.6117 14.2316 14.9964 14.6625 13.9025 14.6625C12.8086 14.6625 12.2421 14.2116 12.2421 13.0394V8.25082C12.2421 7.66975 12.1933 6.74805 11.4315 6.74805C11.2069 6.74805 11.0115 6.86809 10.7185 7.05844C10.4743 7.22875 10.2204 7.33899 9.91761 7.33899C9.1265 7.33899 8.55029 6.54746 8.55029 5.76602C8.55029 4.31334 10.7283 3.78238 11.8417 3.78238C13.3556 3.78238 14.8108 4.42375 15.3382 5.97661C15.5922 6.73801 15.6117 7.52936 15.6117 8.36089V13.0394Z" stroke="var(--stroke-0, #236242)" stroke-width="0.631164" stroke-linecap="round" stroke-linejoin="round"/>
<path id="Vector_3" d="M19.7147 5.4861C19.7147 6.39778 19.2166 6.8585 18.318 6.8585C17.4195 6.8585 16.9312 6.4078 16.9312 5.4861C16.9312 5.02525 17.1069 4.52414 17.5074 4.29372C17.7515 4.16348 18.152 4.12348 18.3278 4.12348C19.1971 4.12348 19.7147 4.57441 19.7147 5.47607V5.4861ZM20.1054 5.4861C20.1054 4.57442 19.6073 3.88294 18.6989 3.77274V2.68088C18.6989 1.48868 19.324 1.05777 20.4179 1.05777C21.5117 1.05777 22.0587 1.58887 22.0587 2.68088V4.13351H22.7228C23.5921 4.13351 24.1097 4.58444 24.1097 5.4861C24.1097 6.38776 23.5823 6.8585 22.7228 6.8585H22.0587V11.1866C22.0587 11.7776 22.2345 11.7976 22.8302 11.8176C23.6018 11.8376 24.1489 12.2785 24.1489 13.11C24.1489 14.4325 22.9573 14.6629 21.922 14.6629C19.6854 14.6629 18.6794 13.8713 18.6794 11.527V7.2293C19.5779 7.10908 20.0858 6.39779 20.0858 5.49613L20.1054 5.4861Z" stroke="var(--stroke-0, #236242)" stroke-width="0.631164" stroke-linecap="round" stroke-linejoin="round"/>
<path id="Vector_4" d="M33.1823 9.6929C32.567 9.6929 31.9614 9.8932 31.5512 10.3741H28.6505C28.797 11.4461 29.3244 11.7966 30.3303 11.7966C31.1703 11.7966 31.4144 11.5462 31.7758 10.8349C32.0493 10.324 32.5963 10.0935 33.1628 10.0935C33.9539 10.0935 34.8719 10.5946 34.8719 11.4963C34.8719 12.0573 34.5789 12.5883 34.2566 12.999C33.319 14.1712 31.8442 14.6721 30.4084 14.6721C27.1268 14.6721 25.2028 12.5382 25.2028 9.22206C25.2028 6.13637 26.9706 3.80191 30.1155 3.80191C31.7075 3.80191 33.1432 4.413 34.0808 5.76549C34.6277 6.57699 35.0185 7.5789 35.0185 8.59077C35.0185 9.18186 34.8133 9.66291 34.3445 10.0136C33.9734 9.81319 33.6023 9.70293 33.1823 9.70293V9.6929ZM31.2875 7.73935C31.3851 7.73935 31.5414 7.75927 31.5414 7.61901C31.5414 6.93775 30.7796 6.51688 30.1545 6.51688C29.3927 6.51688 28.8653 6.99798 28.6895 7.73935H31.2875Z" stroke="var(--stroke-0, #236242)" stroke-width="0.631164" stroke-linecap="round" stroke-linejoin="round"/>
<path id="Vector_5" d="M40.2715 13.0397C40.2715 14.1818 39.6951 14.6628 38.5915 14.6628C37.4195 14.6628 36.9018 14.1317 36.9018 13.0397V5.40575C36.9018 4.26365 37.4976 3.78264 38.5719 3.78264C39.0114 3.78264 39.6365 3.81282 39.9393 4.16347C39.0896 4.57423 38.1227 5.2554 38.1227 6.32737C38.1227 7.39935 38.9138 8.54142 40.0565 8.54142C40.1249 8.54142 40.2031 8.5414 40.2617 8.52136V13.0297L40.2715 13.0397ZM39.8905 4.66439C40.711 4.16347 41.6778 3.77261 42.6643 3.77261C43.6507 3.77261 44.2074 4.61421 44.2074 5.57599C44.2074 5.97673 44.1097 6.43772 43.8363 6.72826C43.4944 7.05887 42.9377 7.07882 42.4982 7.13893C41.9806 7.23911 41.502 7.4195 41.0625 7.70002C40.7402 7.93045 40.4375 8.1508 40.0273 8.1508C39.1385 8.1508 38.5134 7.18898 38.5134 6.34743C38.5134 5.50588 39.2362 5.02506 39.8808 4.66439H39.8905Z" stroke="var(--stroke-0, #236242)" stroke-width="0.631164" stroke-linecap="round" stroke-linejoin="round"/>
<path id="Vector_6" d="M49.8423 9.82355C49.8423 11.0658 50.9655 11.8272 52.0789 11.8272C52.4305 11.8272 52.7529 11.7271 53.0654 11.5968C52.6259 13.1497 51.9031 14.6726 50.0962 14.6726C49.0512 14.6726 48.3578 14.0916 47.8206 13.2199C47.4495 12.6088 47.1467 11.9175 46.922 11.2163L45.1835 6.05659C45.1151 5.8462 45.0859 5.60585 45.0859 5.39546C45.0859 4.40363 46.0332 3.79241 46.922 3.79241C47.6838 3.79241 48.1331 4.22334 48.3675 4.93465L49.8814 9.36274C49.8521 9.51301 49.8325 9.67327 49.8325 9.82355H49.8423ZM51.7859 4.92462C52.0301 4.19327 52.4793 3.78238 53.2509 3.78238C54.1006 3.78238 55.0871 4.42366 55.0871 5.38543C55.0871 5.61586 55.0382 5.83619 54.9601 6.06662L53.5244 10.2944C53.2802 11.0057 52.8798 11.4166 52.1083 11.4166C51.239 11.4166 50.2232 10.8354 50.2232 9.83357C50.2232 9.60315 50.2721 9.38281 50.3502 9.15239L51.7859 4.92462Z" stroke="var(--stroke-0, #236242)" stroke-width="0.631164" stroke-linecap="round" stroke-linejoin="round"/>
<path id="Vector_7" d="M60.1881 2.1691C60.1881 3.16093 59.3775 4.00256 58.4008 4.00256C57.4242 4.00256 56.6135 3.16093 56.6135 2.1691C56.6135 1.17727 57.4144 0.315582 58.4008 0.315582C59.3873 0.315582 60.1881 1.15723 60.1881 2.1691ZM60.0905 5.40504V13.039C60.0905 14.2312 59.5143 14.6621 58.4204 14.6621C57.3265 14.6621 56.7307 14.2512 56.7307 13.039V5.40504C56.7307 4.90412 56.8576 4.38307 57.2581 4.06248C57.6097 4.27287 58.0004 4.39317 58.4008 4.39317C58.8013 4.39317 59.2018 4.27287 59.5632 4.06248C59.9636 4.37305 60.0905 4.90412 60.0905 5.40504Z" stroke="var(--stroke-0, #236242)" stroke-width="0.631164" stroke-linecap="round" stroke-linejoin="round"/>
<path id="Vector_8" d="M69.9932 9.6929C69.3779 9.6929 68.7724 9.8932 68.3621 10.3741H65.4614C65.6079 11.4461 66.1353 11.7966 67.1413 11.7966C67.9812 11.7966 68.2255 11.5462 68.5869 10.8349C68.8604 10.324 69.4072 10.0935 69.9737 10.0935C70.7648 10.0935 71.6829 10.5946 71.6829 11.4963C71.6829 12.0573 71.3899 12.5883 71.0676 12.999C70.13 14.1712 68.6552 14.6721 67.2195 14.6721C63.9378 14.6721 62.0137 12.5382 62.0137 9.22206C62.0137 6.13637 63.7815 3.80191 66.9265 3.80191C68.5184 3.80191 69.9542 4.413 70.8918 5.76549C71.4388 6.57699 71.8294 7.5789 71.8294 8.59077C71.8294 9.18186 71.6244 9.66291 71.1556 10.0136C70.7844 9.81319 70.4132 9.70293 69.9932 9.70293V9.6929ZM68.0888 7.73935C68.1864 7.73935 68.3427 7.75927 68.3427 7.61901C68.3427 6.93775 67.5809 6.51688 66.9558 6.51688C66.194 6.51688 65.6666 6.99798 65.4908 7.73935H68.0888Z" stroke="var(--stroke-0, #236242)" stroke-width="0.631164" stroke-linecap="round" stroke-linejoin="round"/>
<path id="Vector_9" d="M82.1923 9.08219C82.163 9.28256 82.124 9.48302 82.124 9.67337C82.124 10.7754 83.0909 11.4366 84.0871 11.4366C84.5364 11.4366 84.9271 11.3564 85.2787 11.0759L84.9271 12.278C84.5364 13.6205 84.2141 14.6625 82.6026 14.6625C82.0556 14.6625 81.4598 14.4921 81.118 14.0513C80.9422 13.8209 80.7957 13.5406 80.7468 13.2601L79.8093 8.48123L78.8716 13.1698C78.6762 14.1817 77.8558 14.6525 76.9084 14.6525C76.0392 14.6525 75.2286 14.1417 74.9942 13.2601L72.8845 5.92647C72.8357 5.74614 72.8064 5.56576 72.8064 5.38543C72.8064 4.3936 73.6757 3.78238 74.5743 3.78238C75.0626 3.78238 75.59 3.9628 75.883 4.37356C76.0295 4.57393 76.0783 4.78444 76.1271 5.00485L77.1917 9.74356L78.0414 5.2152C78.2172 4.27346 78.8814 3.78238 79.8093 3.78238C80.7371 3.78238 81.4012 4.27346 81.577 5.2152L82.251 8.75175L82.1728 9.06213L82.1923 9.08219ZM83.5108 5.01463C83.5889 4.65397 83.7159 4.32344 84.0383 4.10304C84.3313 3.89265 84.7024 3.79241 85.054 3.79241C85.9526 3.79241 86.8218 4.40361 86.8218 5.3754C86.8218 5.55574 86.8023 5.75616 86.7437 5.9365L85.5228 10.1843C85.347 10.8155 84.7806 11.0458 84.1848 11.0458C83.6574 11.0458 83.1201 10.8455 82.7783 10.4047C82.5048 10.044 82.4755 9.64335 82.5537 9.21256L83.501 5.01463H83.5108Z" stroke="var(--stroke-0, #236242)" stroke-width="0.631164" stroke-linecap="round" stroke-linejoin="round"/>
</g>
</svg>
