<svg preserveAspectRatio="none" width="100%" height="100%" overflow="visible" style="display: block;" viewBox="0 0 152.288 13.495" fill="none" xmlns="http://www.w3.org/2000/svg">
<g id="Group">
<path id="Vector" d="M7.35445 9.16692C8.35066 10.6997 10.1869 11.4814 11.9156 11.8721C12.3356 11.9623 12.5407 12.2628 12.5407 12.5633C12.5407 12.954 12.2184 13.3548 11.691 13.3548C11.3687 13.3548 7.73534 12.4329 6.24102 9.65781C4.71739 12.9339 0.781394 13.495 0.781394 13.495C0.312586 13.495 0.00977636 13.1343 0.00977636 12.7737C0.00977636 12.5032 0.185574 12.2328 0.615315 12.1326C3.04725 11.5315 4.4049 10.5996 5.06904 9.16692L0.673973 9.197C0.234466 9.197 0 8.87653 0 8.56596C0 8.25538 0.234466 7.93467 0.673973 7.93467H2.10967V6.0112C2.13897 5.26983 2.63703 4.77893 3.65278 4.75889C4.21926 4.75889 4.8835 4.73883 5.58672 4.73883C5.58672 4.52844 5.57694 4.33805 5.57694 4.1978V4.14765C5.57694 3.69682 5.90897 3.47649 6.27035 3.47649C6.63172 3.47649 6.97353 3.71693 6.97353 4.21785V4.7288C7.66697 4.7288 8.34086 4.73885 8.90734 4.75889C9.62032 4.76891 10.3724 5.2098 10.4017 6.09142C10.4212 6.30181 10.4212 6.84282 10.4212 7.35376V7.92464H11.9254C12.3649 7.92464 12.5797 8.23534 12.5797 8.55593C12.5797 8.87652 12.3551 9.18697 11.9254 9.18697L7.38378 9.15689L7.35445 9.16692ZM8.94645 2.84545V3.57678C8.94645 3.99755 8.57532 4.20782 8.22371 4.20782C7.8721 4.20782 7.54974 4.00761 7.54974 3.61689V2.83542H4.90297V3.56675C4.90297 3.98753 4.53184 4.1978 4.18023 4.1978C3.82862 4.1978 3.50638 3.99758 3.50638 3.60686V2.82539H0.752065C0.312558 2.83541 0.0782109 2.52471 0.0782109 2.1941C0.0782109 1.86349 0.312558 1.56305 0.752065 1.56305H3.50638V0.671274C3.50638 0.270535 3.85795 0.0703125 4.20956 0.0703125C4.56116 0.0703125 4.90297 0.270535 4.90297 0.671274V1.57308H7.54974V0.671274C7.54974 0.270535 7.90143 0.0703125 8.25304 0.0703125C8.60465 0.0703125 8.94645 0.270535 8.94645 0.671274V1.57308H11.818C12.2575 1.56306 12.4723 1.87351 12.4723 2.1941C12.4723 2.51469 12.2477 2.83542 11.818 2.83542H8.94645V2.84545ZM5.44019 7.95472C5.52809 7.49387 5.58672 7.11314 5.58672 5.92094C3.53568 5.92094 3.41847 5.92115 3.3794 6.63246V7.95472H5.44019ZM9.04409 6.63246C9.02456 5.97124 8.79012 5.96104 8.28225 5.941C7.95018 5.941 7.46195 5.92094 6.93454 5.92094C6.93454 6.25155 6.91498 7.14317 6.78802 7.89455L6.80757 7.96475H9.04409V6.63246Z" fill="var(--fill-0, #1B1A1A)"/>
<path id="Vector_2" d="M15.1874 3.80757C14.7186 3.80757 14.5134 3.50692 14.5134 3.20637C14.5134 2.87576 14.7479 2.54524 15.1874 2.54524H19.348C19.7876 2.54524 19.9927 2.85569 19.9927 3.17628C19.9927 3.49687 19.7876 3.80757 19.348 3.80757H15.1874ZM18.3323 13.0045C18.0295 13.0145 17.59 13.0345 17.1603 13.0345C16.7305 13.0345 16.3301 13.0245 16.0371 13.0045C15.3436 12.9644 14.9236 12.4735 14.9041 11.8123C14.8943 11.4817 14.8943 11.1712 14.8943 10.8406C14.8943 10.4098 14.8943 9.96895 14.9041 9.58825C14.9139 9.0172 15.2752 8.4961 15.998 8.44601C16.33 8.42597 16.7207 8.41592 17.0919 8.41592C17.5607 8.41592 18.0198 8.42597 18.3616 8.44601C18.9281 8.47606 19.5629 8.86684 19.5824 9.50802C19.5922 9.85867 19.5922 10.2593 19.5922 10.6701C19.5922 11.0808 19.5922 11.4617 19.5824 11.7923C19.5727 12.4635 19.0843 12.9544 18.3225 12.9944L18.3323 13.0045ZM15.6659 1.75374C15.2264 1.75374 15.0213 1.46312 15.0213 1.17259C15.0213 0.851996 15.2557 0.521484 15.6659 0.521484H18.7132C19.1234 0.521484 19.3285 0.821911 19.3285 1.1425C19.3285 1.46309 19.1234 1.76377 18.7132 1.76377H15.6659V1.75374ZM15.6953 5.76113C15.2558 5.76113 15.0506 5.4705 15.0506 5.16995C15.0506 4.86939 15.2851 4.52887 15.6953 4.52887H18.7425C19.1527 4.52887 19.3578 4.8293 19.3578 5.14989C19.3578 5.47048 19.1527 5.77115 18.7425 5.77115H15.6953V5.76113ZM15.6953 7.70465C15.2558 7.70465 15.0506 7.41428 15.0506 7.12375C15.0506 6.80315 15.2851 6.4724 15.6953 6.4724H18.7425C19.1527 6.4724 19.3578 6.77307 19.3578 7.09366C19.3578 7.41425 19.1527 7.71468 18.7425 7.71468H15.6953V7.70465ZM18.3225 10.7202C18.3225 10.4497 18.3225 10.1792 18.3029 9.96883C18.2736 9.57811 17.9513 9.55817 17.2091 9.55817C17.0039 9.55817 16.7988 9.55818 16.584 9.57822C16.164 9.60828 16.1641 9.86863 16.1641 10.7002C16.1641 10.9707 16.1738 11.2412 16.1738 11.4616C16.1836 11.7822 16.4668 11.8223 17.2091 11.8223C18.049 11.8223 18.2932 11.7321 18.3029 11.4415C18.3225 11.2311 18.3225 10.9606 18.3225 10.7002V10.7202ZM20.3541 7.33409C19.9243 7.33409 19.7192 7.03344 19.7192 6.73289C19.7192 6.43233 19.9439 6.11187 20.3541 6.11187H21.8776C22.0046 5.59091 22.1414 4.92961 22.2781 4.27841C21.907 4.27841 21.5553 4.27843 21.2525 4.29847H21.2232C20.813 4.29847 20.6177 4.00785 20.6177 3.71732C20.6177 3.42678 20.8423 3.09629 21.2525 3.08627H22.5223C22.6102 2.64546 22.6883 2.25463 22.7273 1.97411H20.8912C20.4419 1.97411 20.2369 1.68351 20.2369 1.40299C20.2369 1.09242 20.4712 0.771946 20.8912 0.771946H26.3703C26.8001 0.771946 27.0052 1.0726 27.0052 1.37315C27.0052 1.67371 26.8001 1.97411 26.3703 1.97411H24.0556C23.997 2.27467 23.9189 2.64546 23.831 3.08627C24.1631 3.08627 24.5245 3.0963 24.8468 3.0963C25.7844 3.10632 26.2239 3.54704 26.2239 4.50882C26.2239 4.9897 26.2044 5.57087 26.1946 6.11187H27.0052C27.4154 6.11187 27.6205 6.41228 27.6205 6.71283C27.6205 7.01339 27.4154 7.32407 27.0052 7.32407H20.3541V7.33409ZM25.2667 13.0646C24.8662 13.0947 24.3584 13.1047 23.8408 13.1047C21.9362 13.1047 20.813 13.1046 20.7446 11.682C20.7349 11.3814 20.7349 11.0609 20.7349 10.7302C20.7349 10.3395 20.7349 9.9389 20.7642 9.58825C20.8033 8.82685 21.3307 8.29579 22.1707 8.25572C22.6004 8.2457 23.1083 8.22563 23.6064 8.22563C24.2119 8.22563 24.8076 8.2457 25.2667 8.25572C26.009 8.28577 26.7024 8.82684 26.7317 9.57822C26.7415 9.96894 26.761 10.4198 26.761 10.8506C26.761 11.1211 26.761 11.3916 26.7415 11.6421C26.7122 12.4235 26.2043 12.9745 25.2667 13.0546V13.0646ZM25.3449 10.4998C25.3449 9.61822 25.2862 9.39795 24.7881 9.38793C24.4951 9.37791 24.0947 9.3779 23.704 9.3779C23.3133 9.3779 22.9325 9.37791 22.6492 9.38793C22.0925 9.39795 22.0827 9.65833 22.0827 10.7904C22.0827 11.0108 22.0925 11.2411 22.0925 11.4014C22.1218 11.9023 22.7078 11.9023 23.7236 11.9023C25.003 11.9023 25.3058 11.8122 25.3351 11.4014C25.3449 11.1509 25.3449 10.8204 25.3449 10.4998ZM24.8955 6.1219C24.9053 5.71114 24.9249 5.2902 24.9249 4.94957C24.9249 4.46868 24.837 4.3085 24.4756 4.3085L23.5966 4.28844C23.4501 4.93964 23.3133 5.60094 23.1863 6.1219H24.8955Z" fill="var(--fill-0, #1B1A1A)"/>
<path id="Vector_3" d="M36.6554 9.16692C37.6517 10.6997 39.4879 11.4814 41.2166 11.8721C41.6366 11.9623 41.8417 12.2628 41.8417 12.5633C41.8417 12.954 41.5194 13.3548 40.992 13.3548C40.6697 13.3548 37.0363 12.4329 35.542 9.65781C34.0184 12.9339 30.0824 13.495 30.0824 13.495C29.6136 13.495 29.3108 13.1343 29.3108 12.7737C29.3108 12.5032 29.4866 12.2328 29.9163 12.1326C32.3482 11.5315 33.7059 10.5996 34.37 9.16692L29.975 9.197C29.5355 9.197 29.301 8.87653 29.301 8.56596C29.301 8.25538 29.5355 7.93467 29.975 7.93467H31.4107V6.0112C31.44 5.26983 31.938 4.77893 32.9538 4.75889C33.5203 4.75889 34.1845 4.73883 34.8877 4.73883C34.8877 4.52844 34.8779 4.33805 34.8779 4.1978V4.14765C34.8779 3.69682 35.21 3.47649 35.5713 3.47649C35.9327 3.47649 36.2745 3.71693 36.2745 4.21785V4.7288C36.968 4.7288 37.6419 4.73885 38.2083 4.75889C38.9213 4.76891 39.6734 5.2098 39.7027 6.09142C39.7222 6.30181 39.7222 6.84282 39.7222 7.35376V7.92464H41.2264C41.6659 7.92464 41.8807 8.23534 41.8807 8.55593C41.8807 8.87652 41.6561 9.18697 41.2264 9.18697L36.6848 9.15689L36.6554 9.16692ZM38.2474 2.84545V3.57678C38.2474 3.99755 37.8763 4.20782 37.5247 4.20782C37.1731 4.20782 36.8507 4.00761 36.8507 3.61689V2.83542H34.204V3.56675C34.204 3.98753 33.8328 4.1978 33.4812 4.1978C33.1296 4.1978 32.8074 3.99758 32.8074 3.60686V2.82539H30.0531C29.6135 2.83541 29.3792 2.52471 29.3792 2.1941C29.3792 1.86349 29.6135 1.56305 30.0531 1.56305H32.8074V0.671274C32.8074 0.270535 33.1589 0.0703125 33.5106 0.0703125C33.8622 0.0703125 34.204 0.270535 34.204 0.671274V1.57308H36.8507V0.671274C36.8507 0.270535 37.2024 0.0703125 37.554 0.0703125C37.9056 0.0703125 38.2474 0.270535 38.2474 0.671274V1.57308H41.1189C41.5585 1.56306 41.7732 1.87351 41.7732 2.1941C41.7732 2.51469 41.5487 2.83542 41.1189 2.83542H38.2474V2.84545ZM34.7412 7.95472C34.8291 7.49387 34.8877 7.11314 34.8877 5.92094C32.8367 5.92094 32.7195 5.92115 32.6804 6.63246V7.95472H34.7412ZM38.3451 6.63246C38.3255 5.97124 38.0911 5.96104 37.5832 5.941C37.2512 5.941 36.7629 5.92094 36.2355 5.92094C36.2355 6.25155 36.216 7.14317 36.089 7.89455L36.1086 7.96475H38.3451V6.63246Z" fill="var(--fill-0, #1B1A1A)"/>
<path id="Vector_4" d="M55.8056 6.5621L51.3715 6.50193C52.817 8.34533 54.6043 9.65782 56.3526 10.5895C56.6456 10.7599 56.7725 11.0002 56.7725 11.2306C56.7725 11.6514 56.3916 12.0723 55.9228 12.0723C55.1903 12.0723 52.602 9.89817 50.9026 7.73418L50.9319 12.7635C50.9319 13.1742 50.5608 13.3647 50.1994 13.3647C49.8381 13.3647 49.4669 13.1742 49.4669 12.7635L49.506 7.86455C48.2852 9.48754 46.781 10.9101 44.9351 12.0522C44.7691 12.1624 44.6128 12.2024 44.4467 12.2024C44.0268 12.2024 43.6849 11.8417 43.6849 11.451C43.6849 11.2105 43.8217 10.9502 44.144 10.7899C46.029 9.76798 47.6014 8.36535 48.959 6.4919L44.6519 6.55207H44.6422C44.2124 6.55207 44.0073 6.22153 44.0073 5.87088C44.0073 5.52023 44.232 5.17942 44.6519 5.17942L49.5158 5.20951L49.4571 0.801475C49.4571 0.370681 49.8283 0.160156 50.1896 0.160156C50.551 0.160156 50.9319 0.370671 50.9319 0.791447L50.8734 5.20951L55.7958 5.17942C56.1865 5.17942 56.3916 5.52023 56.3916 5.87088C56.3916 6.22153 56.206 6.55207 55.8056 6.55207H55.7958L55.8056 6.5621ZM47.1131 4.30794C46.7615 3.65674 46.0876 2.99549 45.7652 2.77508C45.5601 2.64484 45.4919 2.45449 45.4919 2.27416C45.4919 1.89346 45.8238 1.54283 46.2536 1.54283C46.9568 1.54283 48.2461 3.17571 48.373 3.40613C48.4609 3.55641 48.4902 3.70688 48.4902 3.85716C48.4902 4.31801 48.0996 4.69855 47.6992 4.69855C47.4745 4.69855 47.2596 4.57844 47.1131 4.30794ZM52.5826 4.70858C52.2017 4.70858 51.8793 4.39809 51.8793 4.03742C51.8793 3.85709 51.9574 3.67674 52.1235 3.51644C52.6509 3.0055 53.3444 2.11393 53.6471 1.59297C53.7741 1.35253 53.9791 1.26229 54.1842 1.26229C54.5945 1.26229 55.0243 1.65309 55.0243 2.10393C55.0243 2.2542 54.9657 2.40443 54.8582 2.55471C53.403 4.47825 52.8756 4.71861 52.5728 4.71861L52.5826 4.70858Z" fill="var(--fill-0, #1B1A1A)"/>
<path id="Vector_5" d="M70.3501 4.27864L68.055 4.23853C67.8108 6.04186 67.0391 7.78507 65.916 9.24777C67.1368 10.3899 68.7191 11.1813 70.5943 11.512C71.0338 11.5921 71.2194 11.9026 71.2194 12.2232C71.2194 12.6741 70.8873 13.1451 70.3404 13.1451C70.2329 13.1451 67.4689 12.8244 64.9979 10.3098C62.3316 13.0248 59.421 13.3454 59.3527 13.3454C58.8253 13.3454 58.503 12.9245 58.503 12.5038C58.503 12.1932 58.7081 11.8726 59.1672 11.7925C61.0815 11.4619 62.7516 10.5201 64.031 9.19762C63.4255 8.40617 62.9371 7.54453 62.5562 6.64287C61.4428 7.69481 61.0619 7.72494 60.9153 7.72494C60.4954 7.72494 60.1536 7.38432 60.1536 6.98358C60.1536 6.69305 60.3196 6.41249 60.7201 6.19208C61.4526 5.79134 62.1558 5.11025 62.4293 4.60933C62.5269 4.429 62.7223 4.33881 62.9176 4.33881C63.2985 4.33881 63.7086 4.63929 63.7086 5.00997C63.7086 5.09012 63.7087 5.14015 63.5622 5.45073C63.8748 6.42252 64.3143 7.33437 64.9101 8.12582C65.75 6.95366 66.3067 5.62106 66.5118 4.21847C66.0821 4.21847 65.6914 4.20845 65.2812 4.20845C63.8455 4.20845 62.3121 4.24861 59.4113 4.2987H59.4016C58.9523 4.2987 58.7276 3.96817 58.7276 3.62754C58.7276 3.28691 58.9816 2.88594 59.4211 2.88594L64.1678 2.906L64.1482 0.82232C64.1482 0.351452 64.5487 0.130859 64.9198 0.130859C65.291 0.130859 65.6913 0.351452 65.6913 0.82232V2.906L70.3697 2.88594C70.8092 2.88594 71.0241 3.24682 71.0241 3.60748C71.0241 3.96815 70.819 4.2987 70.3795 4.2987H70.3697L70.3501 4.27864Z" fill="var(--fill-0, #1B1A1A)"/>
<path id="Vector_6" d="M81.388 9.42729C81.4173 9.63768 81.427 9.86826 81.427 10.0887C81.427 11.4412 80.8117 13.4848 78.2625 13.4848C77.1198 13.4848 76.5046 13.1743 76.5046 12.5833C76.5046 12.2026 76.778 11.872 77.198 11.872C77.2663 11.872 77.3445 11.8718 77.4324 11.9018C77.7547 12.002 78.0867 12.0623 78.3993 12.0623C80.0401 12.0623 80.0402 10.0484 80.0402 9.92822C80.0402 9.74788 80.0303 9.58758 80.001 9.41727L73.7894 9.44735C73.3401 9.44735 73.1154 9.11683 73.1154 8.78622C73.1154 8.45561 73.3498 8.095 73.7698 8.095L79.1904 8.12509C79.0146 8.00487 78.8192 7.88459 78.6043 7.81446C78.2918 7.70425 78.1649 7.5139 78.1649 7.31353C78.1649 6.99294 78.5068 6.68224 78.9365 6.68224C79.2588 6.68224 79.5714 6.85261 79.8058 6.98285C80.1867 6.73238 80.9582 6.17136 80.9582 5.99103C80.9582 5.93092 80.8997 5.90077 80.7922 5.90077C80.6262 5.89075 80.3527 5.89074 80.0206 5.89074C79.083 5.89074 77.6571 5.92088 76.6413 5.97097H76.612C76.1725 5.97097 75.9576 5.6505 75.9576 5.33992C75.9576 5.02935 76.1725 4.72867 76.6315 4.70863C77.2566 4.67858 78.0477 4.67855 78.8291 4.67855C79.9034 4.67855 80.968 4.6886 81.6419 4.70863C82.4819 4.72867 82.8334 5.15963 82.8334 5.6305C82.8334 6.37187 82.0521 6.98293 80.7336 7.82448C80.8117 7.92467 80.88 8.03493 80.9386 8.13512L85.3045 8.095C85.7342 8.095 85.949 8.43557 85.949 8.78622C85.949 9.13687 85.7439 9.44735 85.3239 9.44735L81.3978 9.42729H81.388ZM83.8101 4.61862C83.8101 3.98746 83.4878 3.88727 82.8822 3.86724C81.7102 3.85722 80.3917 3.83715 79.122 3.83715C78.077 3.83715 77.0515 3.8472 76.153 3.86724C75.3423 3.88727 75.2154 4.09766 75.1763 4.61862V5.4901C75.1763 5.9209 74.8051 6.16126 74.4242 6.16126C74.0922 6.16126 73.7307 5.95095 73.7209 5.4901C73.7209 5.28973 73.7113 5.06942 73.7113 4.82897C73.7113 4.57851 73.7209 4.31805 73.7209 4.09764C73.7502 3.38633 74.2874 2.66482 75.4301 2.6548H76.6607C76.5826 2.59469 76.5338 2.52459 76.4752 2.43442C76.1627 1.90344 75.8403 1.71326 75.4497 1.35259C75.3227 1.23237 75.2642 1.10199 75.2642 0.961734C75.2642 0.631125 75.6353 0.310631 76.0064 0.310631C76.5632 0.310631 77.7059 1.45266 77.7059 1.98364C77.7059 2.25414 77.5105 2.51453 77.2761 2.64477C78.5653 2.62473 79.835 2.62496 81.134 2.62496C81.554 2.13405 81.9446 1.26222 82.1693 0.641075C82.306 0.300447 82.5697 0.160207 82.8334 0.160207C83.2437 0.160207 83.6636 0.480789 83.6636 0.901565C83.6636 1.1921 83.1948 1.92344 82.5991 2.64477C82.9311 2.64477 83.2924 2.6548 83.6245 2.6548C84.484 2.66482 85.2946 3.15589 85.3239 4.07759C85.3337 4.28797 85.3337 4.60838 85.3337 4.8889C85.3337 5.09928 85.3337 5.28968 85.3239 5.43996C85.2946 5.87076 84.9138 6.10134 84.5524 6.10134C84.191 6.10134 83.8199 5.89082 83.8199 5.47005V4.60859L83.8101 4.61862ZM79.6592 2.56479C79.4541 2.56479 79.2588 2.45448 79.1611 2.20401C78.956 1.653 78.6337 1.32235 78.2919 0.911593C78.2039 0.811408 78.1649 0.691353 78.1649 0.58115C78.1649 0.260559 78.536 0 78.9169 0C79.6592 0 80.4698 1.47277 80.4698 1.8134C80.4698 2.22416 80.0401 2.56479 79.6592 2.56479Z" fill="var(--fill-0, #1B1A1A)"/>
<path id="Vector_7" d="M99.8181 10.0779L97.2201 10.0177V10.3983L97.2396 11.5606V11.5907C97.2396 12.3721 96.7219 13.394 95.1006 13.394C93.9579 13.394 93.6747 13.1035 93.6747 12.6426C93.6747 12.292 93.8798 11.9512 94.2411 11.9512C94.29 11.9512 94.329 11.9512 94.3779 11.9712C94.6416 12.0313 94.9053 12.0715 95.1397 12.0715C95.5695 12.0715 95.8722 11.9012 95.8722 11.3201V10.0177L88.5178 10.0979H88.508C88.1076 10.0979 87.922 9.79724 87.922 9.47665C87.922 9.15606 88.1271 8.82554 88.5276 8.82554L95.8625 8.8456V8.33465C95.8527 8.19439 95.8722 8.08409 95.9405 7.9839C95.4913 8.00394 95.0128 8.00396 94.5537 8.00396C93.4403 8.00396 92.3171 7.97387 91.2232 7.96385C90.227 7.93379 89.7289 7.42284 89.6996 6.70151C89.6801 6.27072 89.6801 5.89009 89.6801 5.52943C89.6801 5.16876 89.6801 4.80802 89.6996 4.44735C89.7289 3.86628 90.1098 3.24516 91.1939 3.2151C91.7213 3.20508 92.5417 3.20507 93.4305 3.20507V2.45369H89.182C88.762 2.46371 88.5373 2.16332 88.5373 1.87278C88.5373 1.58225 88.762 1.27158 89.182 1.27158L93.4305 1.29163V0.690428C93.4305 0.259634 93.7821 0.0292969 94.1337 0.0292969C94.4853 0.0292969 94.837 0.249615 94.837 0.690428V1.29163L99.193 1.27158C99.6032 1.27158 99.7887 1.57223 99.7887 1.87278C99.7887 2.17334 99.6032 2.47375 99.193 2.47375H94.837V3.2151C95.716 3.2151 96.5852 3.21511 97.2103 3.22513C98.0307 3.23515 98.5874 3.80634 98.6362 4.36737C98.646 4.69798 98.6655 5.0484 98.6655 5.38903C98.6655 5.81983 98.646 6.26068 98.6362 6.68145C98.6069 7.35269 98.0503 7.94382 97.142 7.97388H97.1029C97.181 8.06404 97.2103 8.19441 97.2103 8.35471V8.86566L99.8278 8.8456C100.238 8.8456 100.443 9.14603 100.443 9.46662C100.443 9.78721 100.238 10.118 99.8376 10.118H99.8278L99.8181 10.0779ZM92.5222 12.1217C92.0729 11.7109 91.5553 11.5406 91.0865 11.3803C90.8618 11.3002 90.774 11.1296 90.774 10.9293C90.774 10.5987 91.0182 10.218 91.4088 10.218C91.6725 10.218 93.577 10.6388 93.577 11.5104C93.577 11.9011 93.2547 12.2618 92.9031 12.2618C92.7761 12.2618 92.6394 12.2218 92.5222 12.1116V12.1217ZM93.5086 4.13672C92.737 4.13672 92.0143 4.14677 91.5455 4.16681C91.0962 4.18685 90.9205 4.43737 90.9009 4.7279C90.9009 4.82809 90.8716 4.94839 90.8716 5.05859H93.5086V4.13672ZM93.5086 6.00027H90.8716C90.8716 6.12049 90.9009 6.25086 90.9009 6.3811C90.9302 6.82191 91.1353 6.94195 91.5552 6.95197C92.0729 6.96199 92.7761 6.962 93.5086 6.962V6.00027ZM97.4056 5.05859C97.4056 4.94839 97.3861 4.82809 97.3861 4.7279C97.3568 4.14683 97.181 4.14675 94.7686 4.14675V5.06862H97.4056V5.05859ZM94.7686 6.00027V6.962C95.5011 6.962 96.1946 6.96199 96.7513 6.95197C97.1322 6.95197 97.3666 6.80187 97.3959 6.3811C97.3959 6.26087 97.4251 6.13051 97.4251 6.00027H94.7783H94.7686Z" fill="var(--fill-0, #1B1A1A)"/>
<path id="Vector_8" d="M104.562 3.99806H103.272C102.882 3.99806 102.677 3.66756 102.677 3.35699C102.677 3.04642 102.882 2.71567 103.272 2.71567H107.335C107.716 2.71567 107.902 3.02638 107.902 3.35699C107.902 3.6876 107.707 3.99806 107.335 3.99806H105.929V8.29603C106.398 8.11569 106.837 7.91528 107.218 7.74496C107.335 7.70489 107.443 7.66474 107.541 7.66474C107.892 7.66474 108.175 7.96542 108.175 8.29603C108.175 8.53647 108.029 8.7768 107.707 8.92707C104.855 10.2495 103.37 10.7505 103.048 10.7505C102.618 10.7505 102.394 10.3899 102.394 10.0292C102.394 9.72865 102.56 9.42815 102.892 9.33799C103.419 9.20775 103.985 9.00735 104.572 8.80698V3.99806H104.562ZM113.772 4.49899C113.596 6.3524 113.03 8.16571 111.984 9.71857C112.717 10.5301 113.674 11.2314 114.934 11.7724C115.256 11.9127 115.383 12.163 115.383 12.4235C115.383 12.8443 115.032 13.2651 114.543 13.2651C114.192 13.2651 112.551 12.5138 111.115 10.8006C109.269 12.8043 107.072 13.3855 106.808 13.3855C106.329 13.3855 106.017 13.0048 106.017 12.614C106.017 12.3335 106.212 12.033 106.632 11.8927C108.205 11.4319 109.396 10.6404 110.295 9.62856C109.621 8.51651 109.162 7.31409 108.918 6.16197C108.742 6.49258 108.566 6.78321 108.39 7.01363C108.224 7.24406 108.009 7.33429 107.794 7.33429C107.414 7.33429 107.043 7.06367 107.043 6.703C107.043 6.57276 107.101 6.41252 107.238 6.25222C108.322 4.89973 109.26 2.22486 109.533 0.812258C109.611 0.451593 109.904 0.28125 110.207 0.28125C110.588 0.28125 110.969 0.521605 110.969 0.942381C110.969 1.17281 110.685 2.06448 110.246 3.22662L114.621 3.20657C115.032 3.20657 115.237 3.5273 115.237 3.85791C115.237 4.18852 115.032 4.49899 114.621 4.49899H113.762H113.772ZM109.865 4.48896C110.06 5.95166 110.422 7.32421 111.115 8.5164C111.818 7.34424 112.209 5.98173 112.356 4.50902H109.865V4.48896Z" fill="var(--fill-0, #1B1A1A)"/>
<path id="Vector_9" d="M125.015 10.6901C124.634 10.7101 124.342 10.7202 123.961 10.7302C123.287 10.7803 120.2 11.141 119.683 11.2011C119.155 11.2612 118.843 11.3214 118.325 11.3013C117.329 11.2713 117.104 9.76849 118.364 9.76849C118.735 9.76849 119.097 9.76846 119.478 9.7384C119.976 9.69833 122.71 9.3176 123.726 9.2074C123.961 7.88496 124.312 6.17195 124.429 5.60089C124.517 5.12001 124.341 5.08976 123.922 5.14987C123.218 5.26007 120.825 5.61079 120.269 5.72099C119.614 5.84121 119.185 5.89124 118.56 5.91128C117.622 5.94134 117.3 4.46883 118.481 4.36864C118.999 4.32857 119.448 4.36855 119.976 4.27839C120.493 4.18822 122.964 3.89773 123.492 3.8276C123.98 3.74746 124.429 3.61726 124.928 3.61726C126.305 3.60724 126.51 4.69909 126.285 5.21004C125.904 6.06161 125.562 7.79493 125.269 9.09733C126.168 9.30772 126.471 10.5799 125.006 10.6701L125.015 10.6901Z" fill="var(--fill-0, #1B1A1A)"/>
<path id="Vector_10" d="M138.817 7.414H138.055C135.252 7.414 133.123 7.54441 131.96 7.5945C131.198 7.62456 130.808 7.63462 130.515 7.63462C130.339 7.63462 130.202 7.62459 130.046 7.62459C129.489 7.61457 129.196 7.20375 129.196 6.81303C129.196 6.42231 129.489 6.07168 130.075 6.07168H130.163C130.7 6.10173 131.345 6.11179 131.941 6.11179C133.142 6.11179 136.277 5.93146 138.856 5.86133H138.885C139.471 5.86133 139.783 6.25206 139.783 6.62274C139.783 6.99343 139.471 7.40397 138.846 7.40397H138.826L138.817 7.414Z" fill="var(--fill-0, #1B1A1A)"/>
<path id="Vector_11" d="M142.088 12.0533C141.004 12.4741 140.252 11.0616 141.522 10.6308C144.364 9.62894 146.894 7.12431 148.075 4.86013C148.193 4.61969 148.115 4.51943 147.939 4.52945C147.226 4.60959 145.556 5.08035 145.175 5.17052C144.481 5.3208 144.276 5.41097 143.69 5.43101C142.752 5.44103 142.489 3.88813 143.71 3.88813C144.12 3.88813 144.647 3.778 145.009 3.71789C145.536 3.62772 147.304 3.1469 148.535 3.02668C149.785 2.90645 150.429 3.78796 149.941 4.65957C149.394 5.64138 148.798 6.60322 148.095 7.48485C149.472 8.12603 151.269 9.10794 152.109 10.3402C152.431 10.8011 152.275 11.332 151.982 11.5925C151.689 11.843 151.22 11.8829 150.898 11.4622C150.136 10.4803 148.495 9.17804 147.196 8.55689C145.849 10.0196 144.188 11.2318 142.098 12.0634L142.088 12.0533Z" fill="var(--fill-0, #1B1A1A)"/>
</g>
</svg>
