<svg preserveAspectRatio="none" width="100%" height="100%" overflow="visible" style="display: block;" viewBox="0 0 271.08 81.1095" fill="none" xmlns="http://www.w3.org/2000/svg">
<g id="Group">
<path id="Vector" d="M70.6789 50.1023C72.4467 50.1023 78.0626 50.1022 78.0626 57.0951C78.0626 62.9359 75.66 64.9998 70.6789 64.9998H47.4143V72.9043C47.4143 77.1822 46.1348 80.4783 39.3078 80.4783C34.2486 80.4783 31.2014 78.9955 31.2014 72.9043V64.9998H8.01488C6.49126 64.9998 0.631164 64.9998 0.631164 57.9167C0.631164 51.2544 4.40116 50.1023 8.01488 50.1023H31.2014C31.2014 45.9847 37.1396 45.5739 39.9426 45.5739C38.8976 44.2615 38.419 43.3499 38.1748 42.1978C36.5731 44.502 34.483 46.145 31.6799 46.145C29.7559 46.145 27.2653 45.4036 23.2512 41.0455C18.5143 47.798 15.1447 49.8518 12.0975 49.8518C7.92703 49.8518 3.66869 45.7343 3.66869 41.4564C3.66869 38.4108 4.87001 37.2586 9.04045 33.3915C10.5641 31.9889 12.41 29.4443 14.334 25.4068C15.6135 22.6117 15.9358 21.9504 16.9809 21.1289H8.95252C4.78208 21.1289 2.36969 18.8247 2.36969 14.3765C2.36969 8.2051 5.41693 6.97269 8.95252 6.97269H31.1818C31.1818 2.93525 32.7836 0.631164 38.5655 0.631164C43.6248 0.631164 47.3947 1.04175 47.3947 6.97269H69.7803C74.0289 6.97269 76.3632 9.19678 76.3632 13.7251C76.3632 19.7362 73.4722 21.1289 69.7803 21.1289H60.7948C63.4417 22.6918 64.0863 24.6654 64.0863 26.1482C64.0863 27.3003 63.764 28.2019 63.6077 28.8631C65.2974 30.5863 66.4986 31.7484 71.0695 34.2931C74.1949 36.1064 75.6404 37.5893 75.6404 40.4646C75.6404 44.4119 72.515 49.932 67.2995 49.932C62.5626 49.932 58.0699 45.3235 55.6673 42.8489C52.3758 47.2971 50.2955 49.1906 47.2385 49.3509C47.3948 49.6815 47.3947 49.7616 47.3947 50.0922H70.6593L70.6789 50.1023ZM26.3863 21.1389C27.5095 21.6299 30.4786 23.1126 29.834 27.15C30.8009 28.222 32.4027 29.865 33.6821 30.6064C37.6182 32.9106 38.9758 33.7321 39.6204 36.1165C39.8645 35.7859 40.0989 35.5354 40.8217 34.804C43.1462 32.4196 44.2694 31.1773 45.6367 29.2939C46.4376 28.2219 49.729 22.221 50.8522 21.149H26.3766L26.3863 21.1389Z" stroke="var(--stroke-0, #386F6B)" stroke-width="1.26233"/>
<path id="Vector_2" d="M121.622 9.69871V7.96554C121.622 6.4828 121.622 1.2131 127.882 1.2131C133.098 1.2131 134.221 4.58931 134.221 7.96554V9.69871H136.946V7.96554C136.946 5.9919 137.268 1.2131 143.284 1.2131C148.5 1.2131 149.701 4.58931 149.701 7.96554V9.69871H150.746C151.713 7.55476 151.791 7.23425 152.915 4.26878C153.559 2.45544 155.239 1.14315 159.253 1.14315C160.533 1.14315 166.715 1.30321 166.715 6.41263C166.715 7.07385 166.637 8.13584 166.158 9.70874C168.082 9.70874 173.864 9.70873 173.864 15.9603C173.864 22.2118 168.082 22.302 166.647 22.302H157.417C157.261 22.6326 156.851 24.1154 156.538 24.6063H165.289C166.813 24.6063 171.305 24.6865 171.305 30.1165C171.305 35.5465 166.813 35.7167 165.289 35.7167H143.06V37.6905H163.521C166.412 37.6905 168.981 38.8427 168.981 42.2189C168.981 45.5951 166.334 46.667 163.521 46.667H143.06V48.6406H167.213C169.704 48.6406 173.874 49.4622 173.874 54.4815C173.874 59.5007 169.782 60.3221 167.213 60.3221H155.581C161.041 62.466 163.521 63.0371 167.057 63.8586C169.704 64.4397 173.474 65.4217 173.474 70.5211C173.474 73.4064 171.784 78.7462 166.657 78.7462C164.566 78.7462 153.413 76.2816 143.07 66.9745V72.7351C143.07 74.7889 142.991 80.2289 136.086 80.2289C130.148 80.2289 128.146 77.8445 128.146 72.7351V67.5554C120.762 74.2177 109.853 78.8262 104.637 78.8262C99.4217 78.8262 98.2204 73.3162 98.2204 70.511C98.2204 65.5719 101.668 64.7503 105.204 64.089C107.128 63.6783 110.898 62.8567 116.758 60.302H103.68C101.512 60.302 97.019 59.641 97.019 54.4614C97.019 49.2819 101.268 48.6206 103.68 48.6206H128.156V46.647H107.772C104.803 46.647 102.313 45.6552 102.313 42.1988C102.313 37.6705 106.727 37.6705 107.772 37.6705H128.156V35.6968H105.848C104.403 35.6968 99.8319 35.6968 99.8319 30.1867C99.8319 24.6765 104.403 24.5863 105.848 24.5863H115C114.355 23.0234 114.277 22.863 113.955 22.282H104.246C102.879 22.282 97.0288 22.282 97.0288 16.0305C97.0288 9.77893 102.645 9.68869 104.891 9.68869C104.647 8.37627 104.569 7.54494 104.569 6.64328C104.569 4.08857 105.37 2.85612 107.46 1.95446C108.983 1.29324 110.351 1.13312 111.396 1.13312C116.133 1.13312 118.457 3.76777 119.659 9.68869H121.661L121.622 9.69871ZM141.683 24.5963C142.161 23.4442 142.239 23.2838 142.405 22.292H129.25C129.406 22.7028 130.05 24.436 130.216 24.5963H141.692H141.683Z" stroke="var(--stroke-0, #386F6B)" stroke-width="1.26233"/>
<path id="Vector_3" d="M224.877 13.5647V7.55358C224.877 5.74023 224.877 0.640929 232.182 0.640929C238.677 0.640929 240.445 3.27569 240.445 7.55358V13.5647H260.34C262.186 13.5647 267.079 13.6449 267.079 20.6378C267.079 26.729 264.511 28.372 260.34 28.372H240.445V37.9996H258.016C259.618 37.9996 264.755 37.9998 264.755 44.9125C264.755 50.6731 262.108 52.4063 258.016 52.4063H240.445V63.4366H263.71C265.399 63.4366 270.449 63.4366 270.449 70.4295C270.449 75.8595 268.359 78.1637 263.71 78.1637H200.323C198.399 78.1637 193.506 78.0835 193.506 70.8402C193.506 64.3382 197.198 63.4366 200.323 63.4366H224.877V52.4063H206.105C204.103 52.4063 199.366 52.1558 199.366 45.5736C199.366 40.3039 201.368 37.9996 206.105 37.9996H224.877V28.372H213.323C208.586 37.7593 205.939 37.9196 203.771 37.9196C199.522 37.9196 194.785 34.2127 194.785 30.0149C194.785 27.7908 195.264 27.0495 198.878 21.2889C201.446 17.2514 202.726 13.3842 204.972 6.97243C205.851 4.33757 207.297 2.03339 211.067 2.03339C212.668 2.03339 215.559 2.36389 217.972 3.92677C219.251 4.74829 220.14 6.15097 220.14 8.28491C220.14 9.84779 219.495 11.9917 219.095 13.5546H224.867L224.877 13.5647Z" stroke="var(--stroke-0, #386F6B)" stroke-width="1.26233"/>
</g>
</svg>
