<svg preserveAspectRatio="none" width="100%" height="100%" overflow="visible" style="display: block;" viewBox="0 0 269.818 79.8472" fill="none" xmlns="http://www.w3.org/2000/svg">
<g id="Group">
<path id="Vector" d="M70.0477 49.4711C71.8155 49.4711 77.4314 49.4711 77.4314 56.464C77.4314 62.3047 75.0288 64.3687 70.0477 64.3687H46.7831V72.2731C46.7831 76.551 45.5037 79.8472 38.6767 79.8472C33.6175 79.8472 30.5702 78.3644 30.5702 72.2731V64.3687H7.38372C5.86009 64.3687 0 64.3686 0 57.2856C0 50.6233 3.76999 49.4711 7.38372 49.4711H30.5702C30.5702 45.3535 36.5084 44.9427 39.3115 44.9427C38.2664 43.6303 37.7879 42.7188 37.5437 41.5666C35.9419 43.8709 33.8519 45.5138 31.0488 45.5138C29.1247 45.5138 26.6342 44.7724 22.62 40.4144C17.8831 47.1668 14.5135 49.2206 11.4662 49.2206C7.29581 49.2206 3.03753 45.1032 3.03753 40.8253C3.03753 37.7797 4.23885 36.6275 8.40928 32.7604C9.93291 31.3578 11.7788 28.8131 13.7029 24.7757C14.9823 21.9805 15.3046 21.3193 16.3497 20.4978H8.32135C4.15092 20.4978 1.73852 18.1935 1.73852 13.7453C1.73852 7.57394 4.78576 6.34153 8.32135 6.34153H30.5507C30.5507 2.30408 32.1524 0 37.9344 0C42.9936 0 46.7636 0.410591 46.7636 6.34153H69.1491C73.3977 6.34153 75.732 8.56562 75.732 13.094C75.732 19.105 72.841 20.4978 69.1491 20.4978H60.1637C62.8105 22.0606 63.4551 24.0343 63.4551 25.517C63.4551 26.6691 63.1328 27.5708 62.9765 28.232C64.6662 29.9552 65.8675 31.1172 70.4383 33.6619C73.5637 35.4753 75.0092 36.9582 75.0092 39.8335C75.0092 43.7807 71.8838 49.3009 66.6684 49.3009C61.9315 49.3009 57.4387 44.6923 55.0361 42.2177C51.7447 46.6659 49.6643 48.5594 46.6073 48.7197C46.7636 49.0503 46.7636 49.1305 46.7636 49.4611H70.0282L70.0477 49.4711ZM25.7551 20.4978C26.8783 20.9887 29.8474 22.4714 29.2028 26.5088C30.1697 27.5808 31.7715 29.2238 33.051 29.9652C36.987 32.2694 38.3446 33.0909 38.9892 35.4753C39.2334 35.1447 39.4678 34.8942 40.1905 34.1628C42.515 31.7784 43.6382 30.5362 45.0056 28.6527C45.8064 27.5807 49.0979 21.5798 50.2211 20.5078H25.7454L25.7551 20.4978Z" fill="var(--fill-0, #DD8218)"/>
<path id="Vector_2" d="M120.99 9.05608V7.32266C120.99 5.83992 120.991 0.570216 127.251 0.570216C132.467 0.570216 133.59 3.94643 133.59 7.32266V9.05608H136.315V7.32266C136.315 5.34902 136.637 0.570216 142.653 0.570216C147.869 0.570216 149.07 3.94643 149.07 7.32266V9.05608H150.115C151.082 6.91212 151.16 6.59137 152.283 3.6259C152.928 1.81256 154.608 0.500263 158.622 0.500263C159.902 0.500263 166.084 0.660568 166.084 5.76999C166.084 6.43121 166.006 7.49296 165.527 9.06586C167.451 9.06586 173.233 9.0661 173.233 15.3176C173.233 21.5691 167.451 21.6591 166.016 21.6591H156.786C156.63 21.9898 156.219 23.4725 155.907 23.9634H164.658C166.182 23.9634 170.674 24.0436 170.674 29.4736C170.674 34.9036 166.182 35.074 164.658 35.074H142.429V37.0476H162.89C165.781 37.0476 168.35 38.1998 168.35 41.576C168.35 44.9522 165.703 46.0241 162.89 46.0241H142.429V47.9977H166.582C169.073 47.9977 173.243 48.8193 173.243 53.8386C173.243 58.8578 169.151 59.6792 166.582 59.6792H154.95C160.409 61.8232 162.89 62.3942 166.426 63.2157C169.073 63.7968 172.843 64.7788 172.843 69.8782C172.843 72.7635 171.153 78.1033 166.025 78.1033C163.935 78.1033 152.791 75.6388 142.438 66.3316V72.0922C142.438 74.146 142.36 79.586 135.455 79.586C129.517 79.586 127.515 77.2016 127.515 72.0922V66.9127C120.131 73.575 109.221 78.1835 104.006 78.1835C98.7905 78.1835 97.5892 72.6733 97.5892 69.8681C97.5892 64.929 101.037 64.1074 104.572 63.4462C106.497 63.0354 110.267 62.2139 116.127 59.6591H103.049C100.881 59.6591 96.3879 58.9981 96.3879 53.8185C96.3879 48.639 100.636 47.9777 103.049 47.9777H127.525V46.0041H107.141C104.172 46.0041 101.682 45.0123 101.682 41.5559C101.682 37.0276 106.096 37.0276 107.141 37.0276H127.525V35.054H105.217C103.772 35.054 99.2007 35.054 99.2007 29.5438C99.2007 24.0336 103.772 23.9434 105.217 23.9434H114.369C113.724 22.3805 113.646 22.2202 113.324 21.6391H103.615C102.248 21.6391 96.3976 21.6391 96.3976 15.3876C96.3976 9.13605 102.014 9.04605 104.26 9.04605C104.016 7.73363 103.938 6.90206 103.938 6.00039C103.938 3.44568 104.738 2.21324 106.829 1.31157C108.352 0.650354 109.72 0.490234 110.765 0.490234C115.502 0.490234 117.826 3.12513 119.027 9.04605H121.03L120.99 9.05608ZM141.052 23.9534C141.53 22.8013 141.608 22.6409 141.774 21.6491H128.618C128.775 22.0599 129.419 23.7931 129.585 23.9534H141.061H141.052Z" fill="var(--fill-0, #DD8218)"/>
<path id="Vector_3" d="M224.246 12.9237V6.91265C224.246 5.0993 224.246 0 231.551 0C238.046 0 239.814 2.63476 239.814 6.91265V12.9237H259.709C261.555 12.9237 266.448 13.0039 266.448 19.9968C266.448 26.0881 263.88 27.7311 259.709 27.7311H239.814V37.3589H257.385C258.986 37.3589 264.124 37.3588 264.124 44.2716C264.124 50.0322 261.477 51.7654 257.385 51.7654H239.814V62.7957H263.079C264.768 62.7957 269.818 62.7957 269.818 69.7886C269.818 75.2186 267.728 77.5228 263.079 77.5228H199.692C197.768 77.5228 192.875 77.4426 192.875 70.1993C192.875 63.6973 196.567 62.7957 199.692 62.7957H224.246V51.7654H205.474C203.472 51.7654 198.735 51.5148 198.735 44.9327C198.735 39.663 200.737 37.3589 205.474 37.3589H224.246V27.7311H212.692C207.955 37.1184 205.308 37.2787 203.14 37.2787C198.891 37.2787 194.154 33.5717 194.154 29.374C194.154 27.1499 194.633 26.4086 198.246 20.6479C200.815 16.6105 202.095 12.7433 204.341 6.3315C205.22 3.69664 206.665 1.39246 210.435 1.39246C212.037 1.39246 214.928 1.72321 217.341 3.28609C218.62 4.1076 219.509 5.51004 219.509 7.64398C219.509 9.20686 218.864 11.3508 218.464 12.9137H224.236L224.246 12.9237Z" fill="var(--fill-0, #DD8218)"/>
</g>
</svg>
