<svg preserveAspectRatio="none" width="100%" height="100%" overflow="visible" style="display: block;" viewBox="0 0 101.516 32.1895" fill="none" xmlns="http://www.w3.org/2000/svg">
<g id="Group">
<path id="Vector" d="M28.2651 10.2276L22.7762 10.1175C22.1804 14.4154 20.3638 18.573 17.6779 22.0494C20.5787 24.7744 24.3487 26.6681 28.8219 27.4595C29.867 27.6399 30.326 28.3912 30.326 29.1426C30.326 30.2145 29.5251 31.3265 28.2262 31.3265C27.982 31.3265 21.3795 30.5751 15.4706 24.554C9.11242 31.036 2.15842 31.7873 2.02168 31.7873C0.76176 31.7873 0 30.7855 0 29.7836C0 29.0323 0.488327 28.2809 1.57244 28.1006C6.15309 27.3092 10.1282 25.0551 13.1657 21.8992C11.7299 19.9957 10.5482 17.9619 9.63985 15.8079C6.98328 18.3125 6.07495 18.3928 5.72335 18.3928C4.7076 18.3928 3.90673 17.5713 3.90673 16.6395C3.90673 15.9583 4.28765 15.2769 5.26433 14.7359C7.0126 13.7641 8.68266 12.1511 9.3468 10.979C9.59097 10.5482 10.0501 10.3379 10.4993 10.3379C11.4077 10.3379 12.3843 11.0593 12.3843 11.951C12.3843 12.1313 12.3843 12.2713 12.0327 12.9927C12.7652 15.317 13.8103 17.4711 15.246 19.3746C17.2384 16.5794 18.5667 13.3935 19.0551 10.0573C18.0393 10.0573 17.1017 10.0172 16.125 10.0172C12.7067 10.0172 9.03436 10.1274 2.11944 10.2276H2.08034C0.996221 10.2276 0.468789 9.43625 0.468789 8.61473C0.468789 7.79322 1.06462 6.8615 2.10967 6.8615L13.4294 6.90161L13.3903 1.92246C13.3903 0.810413 14.3279 0.279297 15.246 0.279297C16.1641 0.279297 17.1017 0.820431 17.1017 1.92246L17.0626 6.90161L28.2457 6.8615C29.2908 6.8615 29.8181 7.72306 29.8181 8.58465C29.8181 9.44624 29.3297 10.2376 28.2847 10.2376H28.2457L28.2651 10.2276Z" fill="var(--fill-0, #236242)"/>
<path id="Vector_2" d="M54.5693 22.5215C54.6377 23.0224 54.6768 23.5635 54.6768 24.0945C54.6768 27.3204 53.2118 32.1895 47.127 32.1895C44.4021 32.1895 42.937 31.4379 42.937 30.0354C42.937 29.1437 43.6012 28.3523 44.5779 28.3523C44.7537 28.3523 44.9295 28.3524 45.1346 28.4225C45.9061 28.673 46.707 28.8131 47.4395 28.8131C51.356 28.8131 51.356 24.0145 51.356 23.7239C51.356 23.2931 51.317 22.9022 51.2486 22.5014L36.4421 22.5716C35.3579 22.5716 34.8306 21.7801 34.8306 20.9987C34.8306 20.2172 35.3873 19.3457 36.4031 19.3457L49.3246 19.4159C48.9046 19.1254 48.4553 18.8449 47.9279 18.6645C47.1953 18.4141 46.8829 17.943 46.8829 17.4822C46.8829 16.7308 47.6838 15.9794 48.7386 15.9794C49.5102 15.9794 50.2427 16.3703 50.7994 16.701C51.7077 16.0898 53.5633 14.7673 53.5633 14.3365C53.5633 14.1962 53.4266 14.1261 53.1824 14.1261C52.8015 14.0861 52.1375 14.086 51.3268 14.086C49.0902 14.086 45.7011 14.1561 43.2594 14.2663H43.191C42.1459 14.2663 41.6185 13.5149 41.6185 12.7635C41.6185 12.0121 42.146 11.2908 43.2301 11.2608C44.7342 11.1906 46.6192 11.1908 48.4651 11.1908C51.0142 11.1908 53.5634 11.2307 55.1749 11.2608C57.1673 11.3008 58.0073 12.3329 58.0073 13.445C58.0073 15.1982 56.1516 16.6709 53.0165 18.6746C53.1923 18.925 53.3681 19.1755 53.5048 19.426L63.9161 19.3156C64.9319 19.3156 65.4496 20.1373 65.4496 20.9688C65.4496 21.8004 64.9612 22.5416 63.9455 22.5416L54.5889 22.5014L54.5693 22.5215ZM60.3318 11.0504C60.3318 9.54763 59.5602 9.29713 58.1343 9.25706C55.341 9.21698 52.196 9.1871 49.1585 9.1871C46.6777 9.1871 44.236 9.227 42.0678 9.25706C40.1437 9.29713 39.8313 9.79809 39.7238 11.0504V13.1644C39.7238 14.1663 38.8545 14.7371 37.9462 14.7371C37.1453 14.7371 36.3054 14.2363 36.2663 13.1243C36.2663 12.6634 36.2272 12.1224 36.2272 11.5513C36.2272 10.9402 36.2663 10.3291 36.2663 9.79809C36.3347 8.11499 37.6336 6.39188 40.3586 6.36183L43.2886 6.32171C43.1128 6.21151 42.9761 6.03118 42.8394 5.82079C42.1069 4.56848 41.3353 4.09754 40.3977 3.23595C40.0851 2.94541 39.9484 2.62489 39.9484 2.3043C39.9484 1.51284 40.8176 0.761414 41.726 0.761414C43.0542 0.761414 45.7792 3.48641 45.7792 4.73872C45.7792 5.3799 45.3299 5.99109 44.7634 6.31169C47.84 6.27161 50.8775 6.27157 53.954 6.27157C54.9698 5.08939 55.8781 3.0156 56.4348 1.54288C56.7474 0.721369 57.3822 0.400886 58.0073 0.400886C58.984 0.400886 59.9996 1.15227 59.9996 2.15412C59.9996 2.83537 58.8862 4.58851 57.4505 6.31169C58.2514 6.31169 59.0913 6.3518 59.8922 6.3518C61.953 6.39187 63.8771 7.53388 63.9455 9.75798C63.9845 10.2589 63.9846 11.0105 63.9846 11.6917C63.9846 12.1926 63.9845 12.6633 63.9455 13.014C63.8771 14.0559 62.9688 14.587 62.0898 14.587C61.2107 14.587 60.3416 14.086 60.3416 13.0842V11.0404L60.3318 11.0504ZM50.4478 6.14145C49.9594 6.14145 49.5003 5.89088 49.2561 5.27975C48.7678 3.95732 47.9962 3.16578 47.1953 2.19399C46.9902 1.94352 46.8829 1.65319 46.8829 1.40273C46.8829 0.651347 47.7521 0 48.6604 0C50.4379 0 52.362 3.51656 52.362 4.33808C52.362 5.30987 51.3463 6.13142 50.438 6.13142L50.4478 6.14145Z" fill="var(--fill-0, #236242)"/>
<path id="Vector_3" d="M79.3654 30.4761C79.3654 31.4779 78.5254 31.9788 77.6562 31.9788C76.7869 31.9788 75.947 31.4779 75.947 30.4761V30.436L76.0837 19.0448C74.8922 20.9784 73.4955 22.7718 72.2453 24.1744C71.8253 24.6052 71.3761 24.8155 70.917 24.8155C69.9794 24.8155 69.1395 23.994 69.1395 23.1325C69.1395 22.7017 69.3153 22.311 69.7353 21.9102C71.6203 20.1871 74.4526 16.6806 76.1325 13.3845L76.0935 12.6331L72.0109 12.7432H71.9718C70.9268 12.7432 70.4385 11.992 70.4385 11.2005C70.4385 10.4091 70.9659 9.62758 72.0109 9.62758H76.0642L75.9957 6.081C75.3316 6.1912 72.9876 6.62203 72.6067 6.62203C71.5616 6.62203 71.0049 5.80041 71.0049 5.00895C71.0049 4.29764 71.4542 3.57627 72.4016 3.46607C75.6833 3.14548 78.0566 2.57456 81.0648 1.35231C81.2699 1.28218 81.4456 1.242 81.6214 1.242C82.5298 1.242 83.1939 2.03359 83.1939 2.88516C83.1939 4.13747 81.8657 4.60827 79.3556 5.31958C79.3165 6.07097 79.3165 7.68398 79.2872 9.61755H82.8521C83.8971 9.61755 84.4245 10.4091 84.4245 11.1905C84.4245 11.972 83.8972 12.7332 82.8912 12.7332H82.8521L79.2188 12.6632V14.4164C79.3556 14.3764 79.463 14.3763 79.5704 14.3763C80.8597 14.3763 83.7312 16.9611 83.8972 17.1715C84.2488 17.5622 84.3855 17.9629 84.3855 18.3937C84.3855 19.2854 83.6529 20.1169 82.8521 20.1169C82.4712 20.1169 82.0805 19.9364 81.7386 19.5057C81.1429 18.7142 80.0979 17.8227 79.2188 17.1815C79.2579 22.5915 79.3947 30.436 79.3947 30.436V30.4761H79.3654ZM92.8826 22.341L84.5321 24.7453C84.327 24.8154 84.1511 24.8155 83.9753 24.8155C83.0279 24.8155 82.5103 24.0641 82.5103 23.2726C82.5103 22.6314 82.8911 21.9802 83.7018 21.7297L92.8924 19.0749L92.8241 2.09366C92.8241 1.05174 93.6249 0.550781 94.4648 0.550781C95.3048 0.550781 96.174 1.09182 96.174 2.09366L96.1057 18.1834L99.5241 17.1815C99.6999 17.1415 99.8757 17.1113 100.012 17.1113C100.921 17.1113 101.516 17.9327 101.516 18.7242C101.516 19.3353 101.165 19.9466 100.403 20.157L96.1057 21.3792L96.174 30.5861C96.174 31.5179 95.3341 31.9889 94.4942 31.9889C93.6542 31.9889 92.8143 31.5279 92.8143 30.5861L92.8826 22.341ZM88.2727 16.891C87.257 15.819 85.831 14.8472 85.0594 14.3462C84.571 14.0557 84.3562 13.6348 84.3562 13.2341C84.3562 12.5228 85.0594 11.8015 86.0654 11.8015C87.2862 11.8015 89.8061 13.6649 90.4311 14.3061C90.8511 14.7369 91.0269 15.1979 91.0269 15.6687C91.0269 16.6405 90.2944 17.4621 89.4251 17.4621C89.0442 17.4621 88.6536 17.2817 88.2727 16.891ZM88.556 9.29689C87.6867 8.11471 86.3584 6.9727 85.5477 6.39163C85.1668 6.10109 84.9911 5.78033 84.9911 5.45973C84.9911 4.70835 85.8309 3.95696 86.7392 3.95696C87.6476 3.95696 91.3883 6.39167 91.3883 8.18497C91.3883 9.18682 90.6168 10.0082 89.7768 10.0082C89.3569 10.0082 88.9369 9.7978 88.556 9.28686V9.29689Z" fill="var(--fill-0, #236242)"/>
</g>
</svg>
