<?xml version="1.0" encoding="UTF-8"?>
<svg id="_レイヤー_2" data-name="レイヤー 2" xmlns="http://www.w3.org/2000/svg" viewBox="0 0 1698.09 842.45">
  <defs>
    <style>
      .cls-1 {
        fill: #fccaca;
      }

      .cls-2 {
        stroke: #fffcf2;
      }

      .cls-2, .cls-3, .cls-4, .cls-5, .cls-6, .cls-7 {
        fill: none;
      }

      .cls-8 {
        font-family: TsukuBRdGothic-Regular-83pv-RKSJ-H, 'Tsukushi B Round Gothic';
      }

      .cls-3, .cls-5 {
        stroke-linejoin: round;
      }

      .cls-3, .cls-5, .cls-7 {
        stroke-linecap: round;
      }

      .cls-3, .cls-7 {
        stroke: #231f20;
        stroke-width: 2px;
      }

      .cls-9 {
        font-family: TsukuBRdGothic-Bold-83pv-RKSJ-H, 'Tsukushi B Round Gothic';
        font-weight: 700;
      }

      .cls-10 {
        fill: #fffcf2;
      }

      .cls-4 {
        stroke-width: 1.5px;
      }

      .cls-4, .cls-5 {
        stroke: #000;
      }

      .cls-4, .cls-7 {
        stroke-miterlimit: 10;
      }

      .cls-11, .cls-12 {
        fill: #231815;
      }

      .cls-13 {
        fill: #fff;
      }

      .cls-14 {
        letter-spacing: 0em;
      }

      .cls-15 {
        opacity: .63;
      }

      .cls-5 {
        stroke-width: 1.37px;
      }

      .cls-6 {
        stroke: #386f6b;
      }

      .cls-16 {
        letter-spacing: -.4em;
      }

      .cls-17 {
        letter-spacing: -.3em;
      }

      .cls-18 {
        letter-spacing: -.3em;
      }

      .cls-19 {
        letter-spacing: -.32em;
      }

      .cls-20 {
        letter-spacing: -.36em;
      }

      .cls-21 {
        letter-spacing: -.25em;
      }

      .cls-22 {
        letter-spacing: -.26em;
      }

      .cls-23 {
        letter-spacing: -.28em;
      }

      .cls-24 {
        letter-spacing: -.28em;
      }

      .cls-25 {
        letter-spacing: -.27em;
      }

      .cls-26 {
        letter-spacing: -.29em;
      }

      .cls-27 {
        letter-spacing: -.29em;
      }

      .cls-28 {
        letter-spacing: -.29em;
      }

      .cls-29 {
        letter-spacing: -.24em;
      }

      .cls-30 {
        letter-spacing: -.24em;
      }

      .cls-31 {
        letter-spacing: -.23em;
      }

      .cls-32 {
        letter-spacing: -.23em;
      }

      .cls-33 {
        letter-spacing: -.25em;
      }

      .cls-34 {
        letter-spacing: -.5em;
      }

      .cls-12 {
        font-size: 21.62px;
      }

      .cls-35 {
        letter-spacing: -.5em;
      }

      .cls-36 {
        letter-spacing: -.09em;
      }

      .cls-37 {
        letter-spacing: -.09em;
      }

      .cls-38 {
        letter-spacing: -.1em;
      }

      .cls-39 {
        letter-spacing: -.1em;
      }

      .cls-40 {
        letter-spacing: -.1em;
      }

      .cls-41 {
        letter-spacing: -.11em;
      }

      .cls-42 {
        letter-spacing: -.11em;
      }

      .cls-43 {
        letter-spacing: -.11em;
      }

      .cls-44 {
        letter-spacing: -.08em;
      }

      .cls-45 {
        letter-spacing: -.08em;
      }

      .cls-46 {
        letter-spacing: -.07em;
      }

      .cls-47 {
        letter-spacing: -.07em;
      }

      .cls-48 {
        letter-spacing: -.07em;
      }

      .cls-49 {
        letter-spacing: -.06em;
      }

      .cls-50 {
        letter-spacing: -.06em;
      }

      .cls-51 {
        letter-spacing: -.06em;
      }

      .cls-52 {
        letter-spacing: -.19em;
      }

      .cls-53 {
        letter-spacing: -.19em;
      }

      .cls-54 {
        letter-spacing: -.19em;
      }

      .cls-55 {
        letter-spacing: -.2em;
      }

      .cls-56 {
        letter-spacing: -.2em;
      }

      .cls-57 {
        letter-spacing: -.21em;
      }

      .cls-58 {
        letter-spacing: -.21em;
      }

      .cls-59 {
        letter-spacing: -.22em;
      }

      .cls-60 {
        letter-spacing: -.22em;
      }

      .cls-61 {
        letter-spacing: -.22em;
      }

      .cls-62 {
        letter-spacing: -.22em;
      }

      .cls-63 {
        letter-spacing: -.16em;
      }

      .cls-64 {
        letter-spacing: -.16em;
      }

      .cls-65 {
        letter-spacing: -.16em;
      }

      .cls-66 {
        letter-spacing: -.17em;
      }

      .cls-67 {
        letter-spacing: -.17em;
      }

      .cls-68 {
        letter-spacing: -.17em;
      }

      .cls-69 {
        letter-spacing: -.17em;
      }

      .cls-70 {
        letter-spacing: -.18em;
      }

      .cls-71 {
        letter-spacing: -.18em;
      }

      .cls-72 {
        letter-spacing: -.18em;
      }

      .cls-73 {
        letter-spacing: -.12em;
      }

      .cls-74 {
        letter-spacing: -.12em;
      }

      .cls-75 {
        letter-spacing: -.13em;
      }

      .cls-76 {
        letter-spacing: -.13em;
      }

      .cls-77 {
        letter-spacing: -.13em;
      }

      .cls-78 {
        letter-spacing: -.14em;
      }

      .cls-79 {
        letter-spacing: -.15em;
      }

      .cls-80 {
        letter-spacing: -.15em;
      }

      .cls-81 {
        letter-spacing: -.15em;
      }

      .cls-82 {
        letter-spacing: -.02em;
      }

      .cls-83 {
        letter-spacing: -.05em;
      }

      .cls-84 {
        letter-spacing: -.05em;
      }

      .cls-85 {
        letter-spacing: -.05em;
      }

      .cls-86 {
        letter-spacing: -.04em;
      }

      .cls-87 {
        letter-spacing: -.04em;
      }

      .cls-88 {
        letter-spacing: -.03em;
      }

      .cls-89 {
        letter-spacing: -.03em;
      }

      .cls-90 {
        letter-spacing: -.03em;
      }

      .cls-91 {
        letter-spacing: -.01em;
      }

      .cls-92 {
        letter-spacing: 0em;
      }

      .cls-93 {
        letter-spacing: 0em;
      }
    </style>
  </defs>
  <g id="_レイヤー_1-2" data-name="レイヤー 1">
    <g id="voice-text03">
      <path class="cls-1" d="M1628.29,794.13H45.64c-6.44,0-11.71-5.27-11.71-11.71V82.01c0-6.44,5.27-11.71,11.71-11.71h693.33c5.2,0,10-2.77,12.6-7.27l25.86-44.8c3.53-6.11,12.35-6.11,15.88,0l25.86,44.8c2.6,4.5,7.4,7.27,12.6,7.27h796.53c6.44,0,11.71,5.27,11.71,11.71v700.42c0,6.44-5.27,11.71-11.71,11.71Z"/>
      <path class="cls-7" d="M60.39,92.27v-22.91c0-6.44,5.27-11.71,11.71-11.71h693.33c5.2,0,10-2.77,12.6-7.27l25.86-44.8c3.53-6.11,12.35-6.11,15.88,0l25.86,44.8c2.6,4.5,7.4,7.27,12.6,7.27h796.53c6.44,0,11.71,5.27,11.71,11.71v700.42c0,6.44-5.27,11.71-11.71,11.71H72.1c-6.44,0-11.71-5.27-11.71-11.71V145.94"/>
      <polygon class="cls-2" points="395.65 760.66 380.07 733.67 411.23 733.67 395.65 760.66"/>
      <polygon class="cls-2" points="247.66 115.92 232.08 88.93 263.25 88.93 247.66 115.92"/>
      <polygon class="cls-2" points="1597.88 766.13 1582.3 739.14 1613.47 739.14 1597.88 766.13"/>
      <circle class="cls-3" cx="306.07" cy="91.39" r="15.37"/>
      <circle class="cls-2" cx="1452.85" cy="737.54" r="15.37"/>
      <rect class="cls-2" x="116.05" y="724.72" width="28.54" height="28.54"/>
      <polyline class="cls-3" points="122.08 106.54 101.9 126.72 81.72 106.54 61.54 126.72 41.36 106.54 21.18 126.72 1 106.54"/>
      <polyline class="cls-2" points="1046.2 738.76 1026.02 758.94 1005.84 738.76 985.66 758.94 965.48 738.76 945.3 758.94 925.12 738.76"/>
      <rect class="cls-2" x="1435.2" y="70.93" width="28.54" height="28.54"/>
      <rect class="cls-10" x="1573.89" y="95.94" width="38.92" height="38.92"/>
      <polygon points="1608.48 104.62 1605.33 101.46 1599.5 107.29 1593.67 101.46 1590.52 104.62 1596.35 110.44 1590.52 116.27 1593.67 119.43 1599.5 113.6 1605.33 119.43 1608.48 116.27 1602.65 110.44 1608.48 104.62"/>
      <rect class="cls-4" x="1580.99" y="90.76" width="37.01" height="37.01"/>
      <rect class="cls-10" x="335.74" y="214.86" width="165.81" height="28.83"/>
      <g class="cls-15">
        <g>
          <circle class="cls-10" cx="169.81" cy="755.86" r="3.05"/>
          <circle class="cls-10" cx="169.81" cy="779.24" r="3.05"/>
          <circle class="cls-10" cx="169.81" cy="802.62" r="3.05"/>
          <circle class="cls-10" cx="169.81" cy="826" r="3.05"/>
          <circle class="cls-10" cx="193.19" cy="755.86" r="3.05"/>
          <circle class="cls-10" cx="193.19" cy="779.24" r="3.05"/>
          <path class="cls-10" d="M193.19,805.67c-1.68,0-3.05-1.37-3.05-3.05s1.37-3.05,3.05-3.05,3.05,1.37,3.05,3.05-1.37,3.05-3.05,3.05Z"/>
          <circle class="cls-10" cx="193.19" cy="826" r="3.05"/>
          <circle class="cls-10" cx="216.57" cy="755.86" r="3.05"/>
          <circle class="cls-10" cx="216.57" cy="779.24" r="3.05"/>
          <path class="cls-10" d="M216.57,805.67c-1.68,0-3.05-1.37-3.05-3.05,0-1.68,1.37-3.05,3.05-3.05s3.05,1.37,3.05,3.05-1.37,3.05-3.05,3.05Z"/>
          <circle class="cls-10" cx="216.57" cy="826" r="3.05"/>
          <circle class="cls-10" cx="239.95" cy="755.86" r="3.05"/>
          <circle class="cls-10" cx="239.95" cy="779.24" r="3.05"/>
          <circle class="cls-10" cx="239.95" cy="802.62" r="3.05"/>
          <circle class="cls-10" cx="239.95" cy="826" r="3.05"/>
          <circle class="cls-10" cx="263.32" cy="755.86" r="3.05"/>
          <circle class="cls-10" cx="263.32" cy="779.24" r="3.05"/>
          <circle class="cls-10" cx="263.32" cy="802.62" r="3.05"/>
          <circle class="cls-10" cx="263.32" cy="826" r="3.05"/>
          <circle class="cls-10" cx="286.7" cy="755.86" r="3.05"/>
          <circle class="cls-10" cx="286.7" cy="779.24" r="3.05"/>
          <circle class="cls-10" cx="286.7" cy="802.62" r="3.05"/>
          <circle class="cls-10" cx="286.7" cy="826" r="3.05"/>
          <circle class="cls-10" cx="310.08" cy="755.86" r="3.05"/>
          <circle class="cls-10" cx="310.08" cy="779.24" r="3.05"/>
          <path class="cls-10" d="M310.08,805.67c-1.68,0-3.05-1.37-3.05-3.05,0-1.68,1.37-3.05,3.05-3.05s3.05,1.37,3.05,3.05c0,1.68-1.37,3.05-3.05,3.05Z"/>
          <circle class="cls-10" cx="310.08" cy="826" r="3.05"/>
          <circle class="cls-10" cx="333.46" cy="755.86" r="3.05"/>
          <circle class="cls-10" cx="333.46" cy="779.24" r="3.05"/>
          <path class="cls-10" d="M333.46,805.67c-1.68,0-3.05-1.37-3.05-3.05,0-1.68,1.37-3.05,3.05-3.05s3.05,1.37,3.05,3.05-1.37,3.05-3.05,3.05Z"/>
          <circle class="cls-10" cx="333.46" cy="826" r="3.05"/>
          <circle class="cls-10" cx="356.84" cy="755.86" r="3.05"/>
          <circle class="cls-10" cx="356.84" cy="779.24" r="3.05"/>
          <circle class="cls-10" cx="356.84" cy="802.62" r="3.05"/>
          <circle class="cls-10" cx="356.84" cy="826" r="3.05"/>
          <circle class="cls-10" cx="380.22" cy="755.86" r="3.05"/>
          <circle class="cls-10" cx="380.22" cy="779.24" r="3.05"/>
          <circle class="cls-10" cx="380.22" cy="802.62" r="3.05"/>
          <circle class="cls-10" cx="380.22" cy="826" r="3.05"/>
          <circle class="cls-10" cx="403.59" cy="755.86" r="3.05"/>
          <circle class="cls-10" cx="403.59" cy="779.24" r="3.05"/>
          <circle class="cls-10" cx="403.59" cy="802.62" r="3.05"/>
          <circle class="cls-10" cx="403.59" cy="826" r="3.05"/>
          <circle class="cls-10" cx="426.97" cy="755.86" r="3.05"/>
          <circle class="cls-10" cx="426.97" cy="779.24" r="3.05"/>
          <path class="cls-10" d="M426.97,805.67c-1.68,0-3.05-1.37-3.05-3.05,0-1.68,1.37-3.05,3.05-3.05s3.05,1.37,3.05,3.05-1.37,3.05-3.05,3.05Z"/>
          <circle class="cls-10" cx="426.97" cy="826" r="3.05"/>
          <circle class="cls-10" cx="450.35" cy="755.86" r="3.05"/>
          <circle class="cls-10" cx="450.35" cy="779.24" r="3.05"/>
          <path class="cls-10" d="M450.35,805.67c-1.68,0-3.05-1.37-3.05-3.05s1.37-3.05,3.05-3.05,3.05,1.37,3.05,3.05c0,1.68-1.37,3.05-3.05,3.05Z"/>
          <circle class="cls-10" cx="450.35" cy="826" r="3.05"/>
          <circle class="cls-10" cx="473.73" cy="755.86" r="3.05"/>
          <circle class="cls-10" cx="473.73" cy="779.24" r="3.05"/>
          <path class="cls-10" d="M473.73,805.67c-1.68,0-3.05-1.37-3.05-3.05,0-1.68,1.37-3.05,3.05-3.05s3.05,1.37,3.05,3.05-1.37,3.05-3.05,3.05Z"/>
          <circle class="cls-10" cx="473.73" cy="826" r="3.05"/>
          <circle class="cls-10" cx="497.11" cy="755.86" r="3.05"/>
          <circle class="cls-10" cx="497.11" cy="779.24" r="3.05"/>
          <circle class="cls-10" cx="497.11" cy="802.62" r="3.05"/>
          <circle class="cls-10" cx="497.11" cy="826" r="3.05"/>
          <circle class="cls-10" cx="520.49" cy="755.86" r="3.05"/>
          <circle class="cls-10" cx="520.49" cy="779.24" r="3.05"/>
          <circle class="cls-10" cx="520.49" cy="802.62" r="3.05"/>
          <circle class="cls-10" cx="520.49" cy="826" r="3.05"/>
          <circle class="cls-10" cx="169.81" cy="709.11" r="3.05"/>
          <circle class="cls-10" cx="169.81" cy="732.49" r="3.05"/>
          <circle class="cls-10" cx="193.19" cy="709.11" r="3.05"/>
          <circle class="cls-10" cx="193.19" cy="732.49" r="3.05"/>
          <circle class="cls-10" cx="216.57" cy="709.11" r="3.05"/>
          <circle class="cls-10" cx="216.57" cy="732.49" r="3.05"/>
          <circle class="cls-10" cx="239.95" cy="709.11" r="3.05"/>
          <circle class="cls-10" cx="239.95" cy="732.49" r="3.05"/>
          <circle class="cls-10" cx="263.32" cy="709.11" r="3.05"/>
          <circle class="cls-10" cx="263.32" cy="732.49" r="3.05"/>
          <circle class="cls-10" cx="286.7" cy="709.11" r="3.05"/>
          <circle class="cls-10" cx="286.7" cy="732.49" r="3.05"/>
          <circle class="cls-10" cx="310.08" cy="709.11" r="3.05"/>
          <circle class="cls-10" cx="310.08" cy="732.49" r="3.05"/>
          <circle class="cls-10" cx="333.46" cy="709.11" r="3.05"/>
          <circle class="cls-10" cx="333.46" cy="732.49" r="3.05"/>
          <circle class="cls-10" cx="6.16" cy="755.86" r="3.05"/>
          <circle class="cls-10" cx="6.16" cy="779.24" r="3.05"/>
          <circle class="cls-10" cx="6.16" cy="802.62" r="3.05"/>
          <circle class="cls-10" cx="6.16" cy="826" r="3.05"/>
          <circle class="cls-10" cx="29.54" cy="755.86" r="3.05"/>
          <circle class="cls-10" cx="29.54" cy="779.24" r="3.05"/>
          <circle class="cls-10" cx="29.54" cy="802.62" r="3.05"/>
          <circle class="cls-10" cx="29.54" cy="826" r="3.05"/>
          <circle class="cls-10" cx="52.92" cy="755.86" r="3.05"/>
          <circle class="cls-10" cx="52.92" cy="779.24" r="3.05"/>
          <path class="cls-10" d="M52.92,805.67c-1.68,0-3.05-1.37-3.05-3.05s1.37-3.05,3.05-3.05,3.05,1.37,3.05,3.05c0,1.68-1.37,3.05-3.05,3.05Z"/>
          <circle class="cls-10" cx="52.92" cy="826" r="3.05"/>
          <circle class="cls-10" cx="76.3" cy="755.86" r="3.05"/>
          <circle class="cls-10" cx="76.3" cy="779.24" r="3.05"/>
          <path class="cls-10" d="M76.3,805.67c-1.68,0-3.05-1.37-3.05-3.05s1.37-3.05,3.05-3.05,3.05,1.37,3.05,3.05-1.37,3.05-3.05,3.05Z"/>
          <circle class="cls-10" cx="76.3" cy="826" r="3.05"/>
          <circle class="cls-10" cx="99.67" cy="755.86" r="3.05"/>
          <circle class="cls-10" cx="99.67" cy="779.24" r="3.05"/>
          <path class="cls-10" d="M99.67,805.67c-1.68,0-3.05-1.37-3.05-3.05s1.37-3.05,3.05-3.05,3.05,1.37,3.05,3.05-1.37,3.05-3.05,3.05Z"/>
          <circle class="cls-10" cx="99.67" cy="826" r="3.05"/>
          <circle class="cls-10" cx="123.05" cy="755.86" r="3.05"/>
          <circle class="cls-10" cx="123.05" cy="779.24" r="3.05"/>
          <circle class="cls-10" cx="123.05" cy="802.62" r="3.05"/>
          <circle class="cls-10" cx="123.05" cy="826" r="3.05"/>
          <circle class="cls-10" cx="146.43" cy="755.86" r="3.05"/>
          <circle class="cls-10" cx="146.43" cy="779.24" r="3.05"/>
          <circle class="cls-10" cx="146.43" cy="802.62" r="3.05"/>
          <circle class="cls-10" cx="146.43" cy="826" r="3.05"/>
          <circle class="cls-10" cx="6.16" cy="709.11" r="3.05"/>
          <circle class="cls-10" cx="6.16" cy="732.49" r="3.05"/>
          <circle class="cls-10" cx="29.54" cy="709.11" r="3.05"/>
          <circle class="cls-10" cx="29.54" cy="732.49" r="3.05"/>
          <circle class="cls-10" cx="52.92" cy="709.11" r="3.05"/>
          <circle class="cls-10" cx="52.92" cy="732.49" r="3.05"/>
          <circle class="cls-10" cx="76.3" cy="709.11" r="3.05"/>
          <circle class="cls-10" cx="76.3" cy="732.49" r="3.05"/>
          <circle class="cls-10" cx="99.67" cy="709.11" r="3.05"/>
          <circle class="cls-10" cx="99.67" cy="732.49" r="3.05"/>
          <circle class="cls-10" cx="123.05" cy="709.11" r="3.05"/>
          <circle class="cls-10" cx="123.05" cy="732.49" r="3.05"/>
          <circle class="cls-10" cx="146.43" cy="709.11" r="3.05"/>
          <circle class="cls-10" cx="146.43" cy="732.49" r="3.05"/>
          <circle class="cls-10" cx="356.84" cy="709.11" r="3.05"/>
          <circle class="cls-10" cx="356.84" cy="732.49" r="3.05"/>
          <circle class="cls-10" cx="380.22" cy="709.11" r="3.05"/>
          <circle class="cls-10" cx="380.22" cy="732.49" r="3.05"/>
          <circle class="cls-10" cx="403.59" cy="709.11" r="3.05"/>
          <circle class="cls-10" cx="403.59" cy="732.49" r="3.05"/>
          <circle class="cls-10" cx="426.97" cy="709.11" r="3.05"/>
          <circle class="cls-10" cx="426.97" cy="732.49" r="3.05"/>
          <circle class="cls-10" cx="450.35" cy="709.11" r="3.05"/>
          <circle class="cls-10" cx="450.35" cy="732.49" r="3.05"/>
          <circle class="cls-10" cx="473.73" cy="709.11" r="3.05"/>
          <circle class="cls-10" cx="473.73" cy="732.49" r="3.05"/>
          <circle class="cls-10" cx="497.11" cy="709.11" r="3.05"/>
          <circle class="cls-10" cx="497.11" cy="732.49" r="3.05"/>
          <circle class="cls-10" cx="520.49" cy="709.11" r="3.05"/>
          <circle class="cls-10" cx="520.49" cy="732.49" r="3.05"/>
        </g>
      </g>
      <line class="cls-5" x1="1555.43" y1="728.26" x2="1583.9" y2="699.79"/>
      <line class="cls-5" x1="1546.92" y1="750.64" x2="1606.28" y2="691.28"/>
      <line class="cls-5" x1="1545.91" y1="765.51" x2="1621.14" y2="690.27"/>
      <line class="cls-5" x1="1546.52" y1="778.76" x2="1634.4" y2="690.88"/>
      <line class="cls-5" x1="1645.54" y1="693.6" x2="1549.24" y2="789.91"/>
      <line class="cls-5" x1="1553.29" y1="799.72" x2="1655.36" y2="697.66"/>
      <line class="cls-5" x1="1558.32" y1="808.55" x2="1664.19" y2="702.69"/>
      <line class="cls-5" x1="1564.41" y1="816.33" x2="1671.96" y2="708.77"/>
      <line class="cls-5" x1="1571.35" y1="823.26" x2="1678.9" y2="715.71"/>
      <line class="cls-5" x1="1684.99" y1="723.48" x2="1579.12" y2="829.35"/>
      <line class="cls-5" x1="1690.02" y1="732.31" x2="1587.95" y2="834.38"/>
      <line class="cls-5" x1="1597.77" y1="838.44" x2="1694.07" y2="742.12"/>
      <line class="cls-5" x1="1696.8" y1="753.27" x2="1608.91" y2="841.16"/>
      <line class="cls-5" x1="1697.41" y1="766.52" x2="1622.17" y2="841.76"/>
      <g>
        <path d="M343.06,183.89c10.31-3.8,18.16-14.61,20.91-21.82.34-.85-.25-1.2-.88-1.15-3.78.2-10.31,1.3-13.7,1.7-2.99.35-3.29.65-6.19.55-3.63-.15-4.02-5.6.34-5.35,2.16.1,3.98-.1,6.04-.25,4.12-.3,10.8-1.4,16.3-1.75,4.12-.25,6.04,2.5,4.57,5.55-5.15,10.71-11.44,21.71-25.18,27.47-4.76,2-6.48-3.35-2.21-4.95Z"/>
        <path d="M384.35,175.78c-2.55,2.6-5.25,4.8-8.64,6.9-3.68,2.3-5.84-2.1-2.99-3.5,5.55-2.8,13.35-9.96,15.51-16.16.88-2.6,5.65-1.2,4.22,1.9-.59,1.25-.88,1.9-1.72,3.1-.88,1.2-1.72,2.35-2.6,3.45.1.15.15.25.2.4.29.85.29,1.25.2,3.6-.15,2.75-.1,8.01,0,11.81.05,1.85-1.13,2.6-2.21,2.75-1.18.15-2.21-.75-2.21-2.5.05-3.75.39-8.36.25-11.71v-.05Z"/>
        <path d="M435.05,171.48h-2.55c-9.38,0-16.54.45-20.42.6-2.55.1-3.88.15-4.86.15-.59,0-1.03-.05-1.57-.05-1.87-.05-2.85-1.4-2.85-2.7s.98-2.45,2.95-2.45h.29c1.82.1,3.98.15,5.94.15,4.03,0,14.53-.6,23.17-.85h.1c1.96,0,2.99,1.3,2.99,2.55s-1.03,2.6-3.14,2.6h-.05Z"/>
        <path d="M441.68,182.39c6.48-3.65,9.92-9.26,11.19-14.56.34-1.4.39-2.95.25-4.45-.34-3.55,5.11-4.2,5.35-.2.1,1.55.1,2.35-.64,5.25-1.67,6.3-5.4,13.21-13.06,18.16-3.49,2.25-6.63-2.2-3.09-4.2ZM465.49,183.74c-3.34,1.35-4.86-1.05-4.37-3.45.69-3.4,1.33-11.56,1.13-15.51-.05-1.25-.15-2.15-.39-3.3-.69-3.35,4.22-4.5,5.25-1.4.54,1.55.2,2.55.1,5.2-.05,2-.69,9.01-.69,10.71,0,1.15.1,1.25,1.23.6,3.83-2.2,8.3-7.55,11-12.26,1.91-3.3,6.23-.15,4.32,3.05-3.78,6.25-11.39,13.86-17.57,16.36Z"/>
        <path d="M499.6,187.24c.05,2.35-1.28,3.65-2.65,3.8-1.38.15-2.8-.8-2.7-3.05.29-8.16.39-23.92.2-31.17-.05-1.6-.2-3.2-.44-4.2-.88-3.55,4.76-4.25,5.2-.8.2,1.5.25,1,.2,4.45-.05,2-.05,4.9-.05,8.26.25-.05.54-.05.83,0,2.45.25,8.93,1.65,11.58,4.55,2.31,2.55-1.08,6.55-3.63,4.1-1.91-1.85-6.28-3.4-8.79-3.75.05,6.45.15,13.36.25,17.81ZM506.38,158.17c-2.6-.95-.74-4.1,1.62-3.35,1.38.45,3.93,1.65,5.11,2.8,2.06,2-.69,5.25-2.45,3.35-.69-.75-3.24-2.4-4.27-2.8ZM510.69,153.57c-2.6-.85-.93-4.05,1.47-3.4,1.37.4,4.03,1.5,5.2,2.6,2.11,1.95-.54,5.3-2.36,3.45-.74-.75-3.29-2.3-4.32-2.65Z"/>
        <path d="M536.47,170.03c.74,4.05-4.37,5.3-5.11,1.05-.59-3.35-.49-3.9-1.57-7.36-.93-2.95-1.82-3.15-3.58-4.8-2.41-2.2.83-5.05,3.48-3.45,1.57.95,2.6,2.05,3.34,3.3,1.28-.05,2.36-.1,3.49-.25,2.46-.3,10.36-1.55,16.25-2.3,3.49-.45,5.84,2.4,4.32,6-4.86,11.46-9.87,20.66-23.17,26.87-3.68,1.7-6.43-2.8-2.11-4.6,10.01-4.2,16.2-13.46,19-21.21.49-1.4.25-2.15-.83-2.05-3.78.35-10.16,1.4-12.57,1.85-.74.15-1.72.25-2.65.35.64,2,1.28,4.15,1.72,6.6Z"/>
        <path d="M597.04,171.48h-2.55c-9.38,0-16.54.45-20.42.6-2.55.1-3.88.15-4.86.15-.59,0-1.03-.05-1.57-.05-1.87-.05-2.85-1.4-2.85-2.7s.98-2.45,2.95-2.45h.29c1.82.1,3.98.15,5.94.15,4.03,0,14.53-.6,23.17-.85h.1c1.96,0,2.99,1.3,2.99,2.55s-1.03,2.6-3.14,2.6h-.05Z"/>
        <path d="M612.94,173.53c-3.39,2.3-6.28-2.25-2.85-4.35,4.76-2.95,8.34-7.96,10.65-11.61.83-1.3,1.57-2.85,1.91-4.1.88-3.35,5.79-2.45,5.25.85-.1.7-.39,1.45-.74,2.2,2.36-.4,4.91-1,7.12-1.15,3.44-.2,6.48,2.25,4.61,5.5-7.9,13.81-15.07,23.47-28.32,28.72-4.22,1.65-6.14-3.45-1.96-4.85,10.36-3.55,18.41-12.56,24.05-23.42.49-1,.05-1.2-.69-1.2-1.96.05-5.89.9-7.85,1.25-2.95,4.15-6.87,9.16-11.19,12.16Z"/>
        <path d="M672.06,173.31c0-4.43-3.41-8.23-9.09-8.23h-.08c.63.28,1.1.88,1.1,1.68v.2c0,4.19-4.03,11.46-8.34,15.77-.98.96-2,1.36-2.94,1.36-2.78,0-5.29-3.19-5.29-7.55,0-7.23,6.97-14.58,15.79-14.58,7.91,0,12.85,5.35,12.85,11.58,0,1.48-.27,3-.86,4.51-3.45,8.87-14.1,10.1-14.65,10.1-1.37,0-2.23-.96-2.23-1.96,0-.88.67-1.72,2.15-2,7.13-1.2,11.59-5.67,11.59-10.9ZM660.74,165.28c-4.9,1-9.79,6.31-9.79,11.06,0,3,1.96,3.35,2.08,3.35.24,0,.51-.08.74-.32,1.18-1.08,6.07-6.99,6.23-12.38,0-.8.31-1.4.74-1.72Z"/>
        <path d="M683.38,169.07c-.94,0-1.45-.76-1.45-1.48,0-.76.51-1.48,1.45-1.48l13.47.08v-1.56c-9.52,0-10.26-.08-10.26-3.59,0-2.36.43-3.43,4.19-3.47,1.49-.04,3.68-.04,6.03-.04v-1.04c0-1.12.94-1.68,1.88-1.68s1.92.56,1.92,1.68v1.04c2.47,0,4.78,0,6.5.04,3.56.04,3.84,1.28,3.84,3.43,0,3.59-.74,3.63-10.38,3.63v1.56l13.47-.08c.94,0,1.41.72,1.41,1.48,0,.72-.47,1.48-1.41,1.48h-30.67ZM704.53,185.09c2.86,1.16,5.6,1.72,8.66,1.88,1.29.08,1.88.92,1.88,1.76,0,.96-.71,1.88-2.04,1.88-1.88,0-6.82-1-10.65-2.83-.71-.32-.98-.84-.98-1.4,0-.44.2-.92.55-1.24h-6.7c.35.32.55.8.55,1.28,0,.52-.27,1.04-.94,1.4-3.96,2-9.01,2.96-10.77,2.96-1.37,0-2.08-.88-2.08-1.76s.67-1.68,2-1.76c3.13-.2,5.95-.76,8.81-2.16h-.67c-2.7-.04-4.19-1.2-4.27-2.75-.08-1.32-.12-2.76-.12-4.11,0-1.6.04-3.15.12-4.55.08-1.48,1.14-3.07,4.19-3.11,2.55-.04,5.05-.04,7.68-.04,1.96,0,3.92,0,5.99.04,2.74.04,3.92,1.32,4,2.79.08,1.48.12,2.96.12,4.43s-.04,3-.12,4.51c-.08,1.44-1.72,2.75-4.19,2.79h-1.02ZM696.82,160.01c-2.08,0-4,0-5.33.04-.98,0-1.18.16-1.18,1.04s.16,1.08,1.25,1.08c1.29.04,3.21.04,5.29.04l-.04-2.2ZM691.26,176.78v1.84h15.04c0-.6-.04-1.24-.04-1.84h-15ZM691.3,180.69l.04.64c.04.92.67,1.28,1.8,1.32,1.8.04,3.68.04,5.56.04s3.84,0,5.72-.04c1.06-.04,1.68-.4,1.76-1.32,0-.2.04-.44.04-.64h-14.92ZM706.18,174.23c-.04-1.32-.16-1.36-7.4-1.36-1.92,0-3.88.04-5.68.08-1.21.04-1.72.52-1.76,1.32v.4h14.88l-.04-.44ZM700.58,162.21c2.08,0,4.03,0,5.44-.04.86,0,1.02-.2,1.1-.56.04-.12.08-.32.08-.56,0-.92-.39-1-1.21-1-1.37-.04-3.29-.04-5.37-.04l-.04,2.2Z"/>
        <path d="M722.68,189.84c-1.14,0-1.68-.76-1.68-1.52,0-.84.59-1.68,1.68-1.68h13.32v-1.88h-9.95c-1.14,0-1.68-.72-1.68-1.48s.59-1.56,1.68-1.56l9.95.04v-1.8c-2,0-3.88-.04-5.52-.08-2.78-.08-4.19-1.52-4.31-3.51-.04-.88-.08-1.84-.08-2.76,0-1.12.04-2.24.08-3.11.08-1.64,1.14-3.35,4.19-3.39,1.64-.04,3.6-.04,5.64-.04v-1.92l-12.22.04c-1.14,0-1.68-.76-1.68-1.52,0-.84.59-1.68,1.68-1.68l12.22.04v-2.04c-2.51.12-7.6.28-9.79.28-1.21,0-1.8-.8-1.8-1.6,0-.84.63-1.64,1.88-1.64,6.38,0,13.55-.12,20.72-1.2.16-.04.27-.04.43-.04,1.1,0,1.65.8,1.65,1.6s-.47,1.56-1.37,1.68c-2.43.32-5.29.6-8.23.76v2.2l12.73-.04c1.06,0,1.61.8,1.61,1.6s-.55,1.6-1.61,1.6l-12.73-.04v1.92c2.15,0,4.27,0,6.23.04,2.31.04,3.96,1.56,4.03,3.12.08.88.08,1.96.08,3.03s0,2.16-.08,3.04c-.12,1.88-1.68,3.51-4.23,3.59-1.88.08-3.92.12-6.03.12v1.76l10.18-.04c1.06,0,1.61.76,1.61,1.52s-.55,1.52-1.61,1.52h-10.18v1.88h13.75c1.06,0,1.61.8,1.61,1.6s-.55,1.6-1.61,1.6h-30.55ZM735.99,169.87c-5.68,0-6.46,0-6.58,1.64,0,.2-.04.4-.04.6h6.62v-2.24ZM735.99,174.78h-6.62c0,.24.04.48.04.72.08,1.28.71,1.56,1.96,1.6,1.37.04,2.94.04,4.62.04v-2.36ZM746.37,171.51c-.08-1.64-.9-1.64-6.89-1.64v2.24h6.89v-.6ZM746.37,174.78h-6.89v2.36c1.76,0,3.45,0,4.97-.04,1.21,0,1.88-.48,1.92-1.6v-.72Z"/>
        <path d="M773.91,163.52c-1.76,4.91-5.09,10.38-7.91,15.29-.47.84-1.21,1.2-1.96,1.2-.98,0-1.84-.68-1.84-1.72,0-.4.12-.88.43-1.36,2.82-4.35,5.01-7.47,6.93-11.66-2.27,1.12-3.72,1.6-4.94,1.6-2.58,0-2.58-1.8-2.58-1.96,0-.96.67-1.88,1.8-1.88.23,0,.51.04.78.12.2.08.43.08.67.08,1.41,0,3.45-1.04,5.52-2.08.12-.96.08-1.88.16-3.08.04-1.2.94-1.76,1.84-1.76s1.8.56,1.88,1.72v.84c.16-.04.27-.08.43-.08.82,0,1.57.72,1.57,1.64,0,1.36-1.68,2.4-2.78,3.03v.04ZM772.78,189.96c-3.56,0-6.54-2.6-6.54-4.87,0-2.64,3.45-4.59,8.5-4.59.59,0,1.21.04,1.8.08-.27-3.19-.27-3.35-.27-3.79,0-2.6.82-4.95,5.41-8.07.23-.16.35-.36.35-.48,0-.24-.35-.24-.51-.24-.51,0-1.33.2-2.51.48-.2.04-.35.04-.51.04-.94,0-1.49-.6-1.49-1.32,0-1.04,1.14-2.24,5.21-2.24,2.86,0,6.31,1.68,6.31,3.51,0,.92-.86,1.68-2,1.8-3.13.28-7.01,2.4-7.01,6.59,0,.6.08,1.24.2,1.96.12.8.27,1.64.39,2.48,2.43.76,6.23,2.52,6.23,4.79,0,1.12-.78,2.08-1.8,2.08-.51,0-1.06-.24-1.61-.8-.74-.76-1.8-1.52-2.98-2.16-.74,2.4-3.76,4.75-7.17,4.75ZM773.88,183.57c-2.31,0-4.27.8-4.27,1.52s1.37,1.56,2.9,1.56c1.92,0,3.76-1.2,4-2.76-.86-.2-1.76-.32-2.62-.32Z"/>
        <path d="M794.76,188c-.9,0-1.72-.6-1.72-1.52,0-.32.12-.68.35-1.08,1.1-1.8,2.04-4.55,2.31-6.87.12-.96.82-1.4,1.57-1.4.9,0,1.8.64,1.8,1.76,0,.96-1.14,5.91-2.58,8.15-.43.68-1.1.96-1.72.96ZM799.93,188.84l.12-13.9c-.39.08-4.39.6-4.94.6-.94,0-1.45-.8-1.45-1.6,0-.72.43-1.44,1.25-1.48.51-.04,1.1-.08,1.76-.12.75-.84,1.57-1.84,2.35-3-1.33-1.36-3.49-3.03-4.43-3.67-.51-.36-.74-.84-.74-1.32,0-.8.63-1.56,1.53-1.56.27,0,.47.04,1.14.4,1.1-1.8,2.47-4.67,2.98-6.83.2-.8.86-1.12,1.53-1.12.98,0,2,.64,2,1.64,0,1.6-3.41,7.35-3.96,8.15.63.52,1.21,1.04,1.76,1.56,1.21-2,2.31-4.07,2.98-5.71.27-.72.86-1,1.45-1,.94,0,1.96.72,1.96,1.76,0,1.4-4.43,7.91-6.27,10.3,1.29-.12,2.51-.28,3.45-.4-.71-1.28-.78-1.4-.78-1.68,0-.76.71-1.32,1.49-1.32s1.61.56,2.86,3.2c.16-.44.59-.76,1.25-.96,2.55-.68,4.62-1.64,6.31-2.71-2.39-2.16-3.84-4.51-3.84-5.27,0-.96.94-1.68,1.84-1.68.43,0,.86.2,1.14.64.94,1.68,2.19,3.08,3.56,4.19,2.47-2.4,3.45-4.87,3.45-5.15,0-.36-.39-.52-.63-.52h-1.57c-2.51,0-6.27.04-8.73.08h-.04c-.94,0-1.41-.8-1.41-1.64s.47-1.68,1.37-1.68c1.33,0,3.09-.04,4.9-.04,2.58,0,5.29.04,7.21.08,2.27.04,3.09,1.2,3.09,2.56,0,1.72-2.04,5.39-4.82,8.19,1.88.96,3.96,1.6,6.03,1.96,1.02.2,1.49.96,1.49,1.76,0,.96-.7,1.96-2.04,1.96-.63,0-4.35-.76-8.26-3.31-3.6,2.64-7.91,3.95-8.5,3.95-.43,0-.78-.12-1.06-.32.04.12.04.28.04.4,0,1.16-.94,1.96-1.76,1.96-.63,0-1.17-.4-1.37-1.32-.04-.28-.12-.52-.2-.8-.51.08-1.17.2-1.88.32l.08,14.46c0,1.24-.94,1.88-1.88,1.88s-1.8-.6-1.8-1.84v-.04ZM805.8,183.41c-.12-1.6-.74-3.63-1.29-4.79-.12-.24-.2-.52-.2-.72,0-.76.71-1.24,1.41-1.24.55,0,1.1.24,1.45.76.9,1.24,1.96,4.27,1.96,5.59,0,1.2-.98,1.92-1.84,1.92-.74,0-1.41-.48-1.49-1.52ZM808.35,189.24c-1.17,0-1.76-.84-1.76-1.68s.59-1.72,1.76-1.72l7.87.04-.04-4.95-4.94.04c-1.14,0-1.68-.84-1.68-1.68s.55-1.72,1.68-1.72l4.94.04-.04-3.16c0-1.2.9-1.76,1.8-1.76s1.88.6,1.88,1.76l-.04,3.16,4.82-.04c1.21,0,1.84.88,1.84,1.72s-.63,1.68-1.84,1.68l-4.82-.04-.04,4.95,7.29-.04c1.21,0,1.8.84,1.8,1.72s-.59,1.68-1.8,1.68h-18.68Z"/>
        <path d="M832.29,184.93c0-.32.12-.72.35-1.12.43-.76,1.37-3.08,1.45-4.99.04-.92.63-1.36,1.21-1.36.39,0,1.41.16,1.41,1.56,0,1.64-.98,7.39-3.02,7.39-.74,0-1.41-.6-1.41-1.48ZM844.98,173.11c.67,0,3.45.12,3.45,4.03,0,6.91-.94,12.58-6.93,12.58-2.55,0-3.84-.44-3.84-2.04,0-.88.55-1.72,1.53-1.72.12,0,.27,0,.43.04.82.2,1.53.32,2.15.32,1.49,0,2.82-.8,3.13-5.07-.2.28-.51.44-.82.44-.35,0-.67-.2-.78-.72-.35-1.28-.94-2.48-1.29-3.11-.08-.16-.12-.28-.12-.44,0-.4.39-.68.86-.68,1.21,0,2.19,2.83,2.27,3.11.04-.84.04-1.6.04-2.12,0-1.56-.2-1.72-2.98-1.72-1.33,0-2.82.04-4.03.04-1.76,0-3.53-.8-3.6-3.35-.04-1.56-.04-3.99-.04-6.39s0-4.75.04-6.07c.08-2.28,1.45-3.67,3.6-3.71,1.1-.04,3.41-.04,5.52-.04,1.53,0,2.98,0,3.76.04.86.04,1.29.72,1.29,1.44,0,.76-.51,1.52-1.49,1.56h-3.64v2.64h2.62c.98,0,1.45.68,1.45,1.36,0,.72-.47,1.4-1.45,1.4h-2.62v2.68h2.62c.98,0,1.45.68,1.45,1.36,0,.72-.47,1.4-1.45,1.4h-2.62v2.76h1.49ZM837.3,183.45v-.16c.04-.6.08-1.28.08-1.92,0-1.2-.08-2.32-.12-2.79v-.16c0-.68.43-1.04.9-1.04.55,0,1.33.04,1.33,5.15,0,.6-.04,1.96-1.25,1.96-.51,0-.94-.36-.94-1.04ZM840.47,159.49c-.74,0-1.37.04-1.72.04-.59.04-1.06.32-1.1,1.28,0,.36-.04.84-.04,1.36h2.86v-2.68ZM840.47,164.92h-2.86v2.68h2.86v-2.68ZM840.47,170.35h-2.86c0,.56.04,1.08.04,1.52.04.76.47,1.24,1.21,1.24h1.61v-2.76ZM840.44,182.17c-.16-1.56-.43-2.83-.74-3.75-.04-.16-.08-.28-.08-.4,0-.56.43-.88.9-.88.35,0,.75.2.94.68.47,1,1.02,3.35,1.02,4.11s-.55,1.2-1.1,1.2c-.43,0-.86-.28-.94-.96ZM859.2,167.2v2.52c1.1,0,2.19,0,3.13.04,2,.04,3.41,1.12,3.56,2.68.08.6.08,1.4.08,2.2,0,.64,0,1.32-.04,1.88-.12,1.8-1.45,3.07-3.8,3.15-.63.04-1.37.04-2.08.04,1.57,3.35,4.27,5.63,6.93,6.99.74.4,1.1,1.04,1.1,1.68,0,1-.74,2-1.88,2-1.72,0-6.27-3.63-8.54-8.63-3.05,7.95-9.4,9.03-9.48,9.03-1.02,0-1.76-1-1.76-1.92,0-.68.35-1.32,1.17-1.6,4.23-1.48,6.38-4.47,7.4-7.55-4.31,0-5.92,0-5.92-4.83,0-.8,0-1.6.04-2.24.08-1.56,1.25-2.83,3.41-2.88,1.02-.04,2.15-.04,3.33-.04v-2.52h-2.78c-.71,0-1.1-.48-1.25-1.04l-1.29,1.32c-.39.4-.82.56-1.25.56-.94,0-1.76-.84-1.76-1.72,0-.44.2-.88.63-1.24,2.35-1.96,4.27-4.71,6.03-7.55.78-1.28,1.88-1.84,2.98-1.84s2.31.6,3.21,1.68c2.08,2.48,4.43,4.83,6.93,6.87.51.44.74.96.74,1.48,0,1.04-.86,2.04-1.88,2.04-.78,0-1.14-.36-2.9-2.16v.08c0,.76-.51,1.52-1.37,1.52h-2.7ZM852.34,174.71c0,1.92,0,2.24,3.33,2.24.2-1.56.2-2.16.2-4.51-3.45,0-3.53,0-3.53,2.28ZM861.9,164.16c-1.49-1.64-2.9-3.31-4-4.67-.16-.2-.39-.32-.63-.32-.2,0-.39.08-.51.32-1.06,1.68-2.12,3.23-3.25,4.67h8.38ZM859.12,174.94c-.04.64-.16,1.32-.23,2,3.72,0,3.76-.08,3.76-2.48,0-1.92,0-2.04-3.49-2.04,0,1.24-.04,2.28-.04,2.52Z"/>
        <path d="M881.18,171.83c-1.68.44-3.45.76-4.43.76-1.25,0-1.84-.88-1.84-1.8,0-1,.67-2,1.96-2,.59,0,2.31,0,6.46-.92,1.02-2.16,1.53-3.27,1.92-6.11.16-1,.94-1.44,1.76-1.44,1.02,0,2.12.68,2.12,1.84,0,.48-.2,2.08-1.41,4.83h.31c4.46,0,4.58,4.91,4.58,6.75,0,3.55-.16,13.54-7.4,13.54-2.23,0-5.13-1.04-5.13-2.96,0-1.08.94-2.08,2.04-2.08.27,0,.55.08.82.2.82.4,1.57.6,2.19.6,2.55,0,3.72-2.8,3.72-9.78,0-1.64-.23-2.83-1.49-2.83-.2,0-.43,0-.71.08-.16.04-.39.12-.63.16-2.94,5.63-7.05,12.18-9.56,16.53-.47.8-1.25,1.16-2.04,1.16-1.02,0-2-.64-2-1.72,0-.4.12-.88.47-1.4,1.72-2.68,5.8-8.51,8.58-13.5l-.31.08ZM902.88,177.34c-.86-2.28-3.76-5.31-6.74-6.35-.71-.24-1.06-.8-1.06-1.36,0-.84.74-1.76,1.88-1.76,2,0,9.67,4.95,9.67,8.63,0,1.28-1.06,2.12-2.08,2.12-.67,0-1.33-.4-1.68-1.28ZM901.78,166.8c-.55-.6-2.51-1.92-3.29-2.2-.71-.28-.98-.72-.98-1.2,0-.76.71-1.48,1.61-1.48.2,0,5.13,1.44,5.13,3.55,0,.92-.74,1.76-1.53,1.76-.31,0-.67-.12-.94-.44ZM905.15,163.12c-.55-.56-2.51-1.76-3.33-2.04-.74-.24-1.02-.72-1.02-1.24,0-.72.67-1.52,1.61-1.52,1.37,0,4.11,1.72,4.58,2.12.43.4.59.88.59,1.32,0,.92-.71,1.8-1.53,1.8-.31,0-.63-.16-.9-.44Z"/>
        <path d="M923.06,185.45c-1.37,0-3.06-.64-4.66-2.08-3.96-3.47-5.09-8.91-5.72-12.02-.31-1.52-.74-3.95-.74-4.27,0-1.16.98-1.92,1.96-1.92.82,0,1.68.56,1.96,1.88.24,1.28.31,2.63.55,3.91,1.61,9.3,5.29,9.66,5.52,9.66.39,0,.75-.32,1.1-1.28.35-.96.63-2.12,1.1-3.39.31-.8.86-1.12,1.45-1.12,1.02,0,2.08.92,2.08,2,0,.12-.04.2-.04.32-.23,1.32-1.02,3.91-1.14,5.15-.2,2-1.57,3.15-3.41,3.15ZM938.1,176.38c-.35-2.68-2.51-5.95-5.13-8.07-.47-.36-.67-.84-.67-1.28,0-.84.75-1.64,1.76-1.64.51,0,1.1.2,1.65.68,1.65,1.44,6.5,5.83,6.5,9.86,0,1.48-1.1,2.28-2.15,2.28-.9,0-1.8-.6-1.96-1.84Z"/>
        <path d="M956.2,190.48c-3.29,0-6.54-2.2-6.54-5.07,0-3.75,4.7-4.59,7.64-4.59.98,0,1.96.08,2.94.24v-.68c0-.6-.04-1.24-.08-1.96-.12-1.24-.23-2.52-.31-3.87-1.1.24-2.08.4-2.98.4-.74,0-4.74-.32-4.74-3,0-.76.31-2.08,2.9-4.39.51-.44.86-.84.86-1.28,0-1.08-3.33-2.28-5.88-2.32-1.41,0-2.08-.84-2.08-1.68,0-.92.71-1.8,2.12-1.8,1.72,0,8.19,1.48,9.4,4.27v-1.88c0-1.64.04-3.19.08-4.51.04-1.4.9-2,1.8-2,1.02,0,2.04.76,2.04,2v.16c-.2,2.68-.39,6.47-.39,10.26v1.08c.78-.4,1.33-.84,1.88-1.4.47-.48.94-.68,1.41-.68.98,0,1.84.92,1.84,1.96,0,1.96-3.25,3.31-5.05,3.91.08,1.52.16,2.96.31,4.19.12,1.12.27,2.64.31,4.11,2.86,1.04,5.88,2.92,5.88,4.87,0,1.2-.9,2.24-1.96,2.24-.55,0-1.14-.28-1.68-.92-.74-.88-1.64-1.68-2.7-2.32-1.06,2.44-3.76,4.63-7.01,4.63ZM956.67,183.89c-2.74,0-3.6.72-3.6,1.48,0,1.04,1.49,1.72,2.82,1.72,1.76,0,3.41-1.16,3.88-2.76-1.02-.28-2.08-.44-3.09-.44ZM959.49,166.8c-.23.6-.67,1.16-1.25,1.68-2.27,1.84-2.31,2.44-2.31,2.56,0,.52.63.56,1.1.56.71,0,1.68-.16,2.62-.44-.08-1.44-.12-2.92-.16-4.35Z"/>
        <path d="M1001.91,173.31c0-4.43-3.41-8.23-9.09-8.23h-.08c.63.28,1.1.88,1.1,1.68v.2c0,4.19-4.03,11.46-8.34,15.77-.98.96-2,1.36-2.94,1.36-2.78,0-5.29-3.19-5.29-7.55,0-7.23,6.97-14.58,15.79-14.58,7.91,0,12.85,5.35,12.85,11.58,0,1.48-.27,3-.86,4.51-3.45,8.87-14.1,10.1-14.65,10.1-1.37,0-2.23-.96-2.23-1.96,0-.88.67-1.72,2.15-2,7.13-1.2,11.59-5.67,11.59-10.9ZM990.59,165.28c-4.9,1-9.79,6.31-9.79,11.06,0,3,1.96,3.35,2.08,3.35.24,0,.51-.08.74-.32,1.18-1.08,6.07-6.99,6.23-12.38,0-.8.31-1.4.74-1.72Z"/>
        <path d="M1017.04,170.47c-2.7,3.23-3.76,3.95-4.7,3.95-1.06,0-1.88-.84-1.88-1.76,0-.48.24-.96.71-1.4,3.8-3.39,7.17-8.07,9.24-13.42.35-.88,1.02-1.24,1.72-1.24,1.1,0,2.19.84,2.19,1.96s-2.39,4.99-3.45,6.67l-.43,23.52c0,1.2-1.02,1.8-2,1.8s-1.92-.56-1.92-1.72v-.08l.51-18.29ZM1024.56,189.28c-1.21,0-1.8-.88-1.8-1.76s.59-1.72,1.8-1.72l6.93.04v-13.62l-7.48.04c-1.17,0-1.76-.88-1.76-1.76s.59-1.8,1.76-1.8l7.48.04v-10.06c0-1.24.98-1.84,1.96-1.84s1.96.6,1.96,1.84v10.06l8.77-.04c1.18,0,1.76.88,1.76,1.8s-.59,1.76-1.76,1.76l-8.77-.04v13.62l7.6-.04c1.17,0,1.76.88,1.76,1.76s-.59,1.72-1.76,1.72h-18.45Z"/>
        <path d="M1080.22,179.58c0,2.36-.27,4.47-4.11,4.47-2.04,0-4.19.04-6.42.04l.04,1.84v.04c0,2.4-2,4.63-5.99,4.63-1.25,0-4.11-.04-4.11-2.12,0-.92.63-1.8,1.72-1.8.2,0,.39.04.59.08.67.16,1.41.28,2.08.28,1.18,0,2.12-.4,2.12-1.88l.04-1.04c-3.41,0-6.85,0-9.99-.04-.98,0-1.49-.76-1.49-1.48,0-.76.51-1.48,1.49-1.48h.04c2.9.04,6.42.08,9.95.08v-1.8h-14.41c-.9,0-1.37-.76-1.37-1.52,0-.72.47-1.48,1.37-1.48h14.41v-1.68c-3.68,0-7.4.04-9.95.08h-.04c-.86,0-1.29-.68-1.29-1.36,0-.72.47-1.44,1.49-1.48,2.78-.04,6.31-.04,9.79-.04v-1.4c-9.36,0-10.22-.08-10.22-3.63,0-2.64.47-3.87,4.07-3.87,1.49,0,3.76-.04,6.15-.04v-1.56l-11.83.04c-1.06,0-1.61-.8-1.61-1.6s.55-1.6,1.61-1.6l11.83.04-.04-1.64c0-1.2.9-1.8,1.8-1.8s1.76.6,1.76,1.8v1.64l11.63-.04c1.1,0,1.61.8,1.61,1.6s-.51,1.6-1.61,1.6l-11.63-.04v1.56c2.39,0,4.66,0,6.19.04,2.51.04,3.6.76,3.72,2.4.04.44.08.88.08,1.28,0,.44-.04.84-.08,1.24-.27,2.56-1.37,2.6-9.91,2.6v1.44c2.31,0,4.5,0,6.38.04,2.51.04,4,.88,4.07,2.88,0,.36.04.8.04,1.32h3.6c1.02,0,1.53.84,1.53,1.68s-.51,1.68-1.53,1.68h-3.56ZM1066.16,165.6c-2.11,0-4.07.04-5.29.04-.82,0-1.14.2-1.21.56v.88c0,.68.94.72,6.5.72v-2.2ZM1069.69,167.8c6.19,0,6.31,0,6.31-1.16,0-.64-.2-1-1.29-1s-2.98-.04-5.01-.04v2.2ZM1076.7,175.9c-.04-.72-.51-1.08-1.21-1.08-1.61-.04-3.6-.04-5.8-.04v1.64h7.05l-.04-.52ZM1069.69,179.42v1.8c2.04,0,4-.04,5.8-.08.71,0,1.18-.4,1.21-1.12,0-.2.04-.4.04-.6h-7.05Z"/>
        <path d="M1092.76,187.24c-.74-2.44-1.02-5.03-1.02-7.63,0-7.03,2-13.9,2.19-16.65.12-1.36.98-1.92,1.88-1.92.98,0,1.96.68,1.96,1.76,0,.08,0,.2-.04.32-.55,2.92-2.55,10.3-2.55,14.26,0,1.48.27,1.64.39,1.64.08,0,.2-.08.27-.28,1.21-2.36,1.49-2.83,2.31-2.83s1.61.8,1.61,1.68c0,.24-.04.48-.2.72-1.88,3.31-2.94,6.31-2.94,7.51,0,.36.04.72.04,1.08,0,1.96-1.53,2.08-1.96,2.08-.78,0-1.61-.52-1.96-1.72ZM1114.54,187c-6.78,0-11.95-4.11-11.95-6.07,0-1.04.94-1.88,2.04-1.88.59,0,1.21.24,1.76.88,1.65,1.88,4.43,2.68,7.6,2.68,1.1,0,2.19-.08,3.33-.24.16-.04.31-.04.47-.04,1.33,0,1.96.92,1.96,1.92,0,2.08-1.72,2.76-5.21,2.76ZM1110.11,169.47c-1.72,0-3.56-.16-5.29-.6-1.18-.28-1.65-1.04-1.65-1.8,0-.96.74-1.88,1.8-1.88.12,0,.24,0,.39.04,1.29.28,2.58.4,3.8.4,1.68,0,3.29-.2,4.82-.4.12,0,.24-.04.35-.04,1.21,0,1.88.92,1.88,1.88,0,1.6-1.1,2.4-6.11,2.4Z"/>
        <path d="M1126.49,189.24c-1.25,0-1.84-.84-1.84-1.72,0-.96.67-1.92,1.84-1.92l13.36.04v-7.19l-7.36.04c-1.25,0-1.84-.84-1.84-1.72s.67-1.84,1.84-1.84l7.36.04v-6.11l-6.97.04c-1.25,2.28-2.7,4.43-4.35,6.51-.55.68-1.17.92-1.72.92-1.02,0-1.88-.8-1.88-1.8,0-.4.16-.84.51-1.28,2.51-2.92,5.41-7.59,6.97-13.06.27-.96,1.02-1.36,1.8-1.36,1.1,0,2.19.72,2.19,1.84,0,.16-.04.4-.12.6-.51,1.4-1.06,2.76-1.64,4.07l5.21.04v-7.11c0-1.48,1.02-2.2,2.04-2.2s2,.72,2,2.2v7.11l10.58-.04c1.25,0,1.88.88,1.88,1.8s-.63,1.76-1.88,1.76l-10.58-.04v6.11l7.91-.04c1.25,0,1.88.88,1.88,1.8s-.63,1.76-1.88,1.76l-7.91-.04v7.19l13.08-.04c1.18,0,1.76.92,1.76,1.84s-.55,1.8-1.76,1.8h-30.47Z"/>
        <path d="M1183.57,175.14c.43,1.44,1.02,2.64,1.45,3.67.27.72.51,1.4.51,2.04,0,1.04-.55,2.24-2.19,2.24-.55,0-1.14-.12-1.76-.32-1.1-.36-4.23-1.08-6.89-1.08-2.86,0-4.7,1.12-4.7,2.16,0,.96,1.72,2.64,6.11,2.64.71,0,1.37-.04,1.92-.12.16-.04.31-.04.47-.04,1.37,0,2.04.88,2.04,1.8,0,1.76-1.65,2.28-2.9,2.28-6.23,0-11.4-2.84-11.4-6.31,0-1.48,1.41-5.55,8.93-5.55,1.61,0,3.09.12,4.23.2.27,0,.51.04.74.04.43,0,.82,0,.82-.6,0-.08,0-.24-.86-3.04-.86.12-1.68.16-2.55.16-.74,0-8.23-.08-8.23-4.51,0-1.08.51-2.2,1.53-3,.27-.2.39-.4.39-.64,0-.8-2.35-2.16-4.27-2.56-1.29-.24-1.88-1.04-1.88-1.8,0-.84.78-1.72,2.04-1.72,2.47,0,8.46,3.59,8.46,5.99,0,.96-.78,1.64-1.68,2.12-.71.36-1.02.72-1.02,1.04,0,.68,2.23,1.48,4.5,1.48.51,0,1.06-.04,1.57-.12-1.41-4.11-3.21-8.35-5.56-12.14-.27-.44-.39-.8-.39-1.16,0-1,.98-1.6,2-1.6.82,0,1.68.4,2.15,1.36,1.88,3.95,3.56,8.39,5.01,12.7.63-.2,1.25-.44,1.88-.64.27-.08.51-.12.74-.12,1.06,0,1.64.88,1.64,1.84,0,1.56-1.1,2-3.05,2.64l.2.68Z"/>
        <path d="M1215.69,188.52h-.39c-8.5-.8-13.87-6.79-13.87-12.94,0-1.56.35-4.27,2.82-7.31.12-.16.2-.28.2-.36,0-.04-.04-.08-.08-.08-.08,0-.24.08-.39.16-6.15,3.23-6.89,3.47-7.76,3.47-1.45,0-2.39-1.04-2.39-2.16,0-.8.55-1.68,1.8-2.08.82-.28,3.06-.96,4.23-1.4,1.84-.68,5.09-1.72,8.97-3.27,2.9-1.16,6.74-2.48,10.38-2.48,1.96,0,2.66.92,2.66,1.96,0,2.04-1.65,2.48-3.13,2.48-.27,0-.59,0-.9-.04-.31-.04-.63-.04-.94-.04-6.07,0-12.03,5.27-12.03,10.62,0,4.79,4.47,8.86,10.62,8.86,1.96,0,2.9,1.16,2.9,2.36,0,1.12-.9,2.24-2.7,2.24Z"/>
        <path d="M1239.98,185.45c-1.37,0-3.06-.64-4.66-2.08-3.96-3.47-5.09-8.91-5.72-12.02-.31-1.52-.74-3.95-.74-4.27,0-1.16.98-1.92,1.96-1.92.82,0,1.68.56,1.96,1.88.23,1.28.31,2.63.55,3.91,1.61,9.3,5.29,9.66,5.52,9.66.39,0,.75-.32,1.1-1.28.35-.96.63-2.12,1.1-3.39.31-.8.86-1.12,1.45-1.12,1.02,0,2.08.92,2.08,2,0,.12-.04.2-.04.32-.23,1.32-1.02,3.91-1.14,5.15-.2,2-1.57,3.15-3.41,3.15ZM1255.02,176.38c-.35-2.68-2.51-5.95-5.13-8.07-.47-.36-.67-.84-.67-1.28,0-.84.75-1.64,1.76-1.64.51,0,1.1.2,1.65.68,1.65,1.44,6.5,5.83,6.5,9.86,0,1.48-1.1,2.28-2.15,2.28-.9,0-1.8-.6-1.96-1.84Z"/>
        <path d="M1285.5,178.42c0-4.19-4.97-4.19-5.33-4.19-4.39,0-7.76,3.27-9.36,5.31-.43.56-1.02.8-1.57.8-1.06,0-2.08-.84-2.08-1.92,0-.52.24-1.08.78-1.64,5.64-5.67,11.36-12.78,11.36-13.22,0-.08-.04-.12-.12-.12s-.16.04-.27.08c-2.94,1.88-6.66,2.92-7.83,2.92-1.33,0-2.04-1-2.04-1.96,0-.84.51-1.64,1.64-1.76,3.88-.36,8.81-2.16,9.91-2.71.47-.24.98-.32,1.41-.32,1.45,0,2.58,1.08,2.58,2.36,0,.64-.27,1.32-.9,1.96-2.66,2.6-5.68,5.99-8.15,8.79,1.68-1.12,3.68-1.6,5.6-1.6,4.15,0,8.27,2.6,8.27,7.03,0,5.35-5.41,10.46-12.18,10.46-4.7,0-7.17-2.75-7.17-5.11,0-2.16,1.96-3.75,4.39-3.75,3.41,0,5.76,1.92,6.11,4.99,1.68-.44,4.94-3.27,4.94-6.39ZM1274.81,182.69c-1.33,0-1.37.88-1.37,1.04,0,1.56,2.66,1.76,3.64,1.76h.27c-.12-1.72-.98-2.79-2.55-2.79Z"/>
        <path d="M1299.84,191c-2.47,0-4.46-2.04-4.46-4.55s2-4.55,4.46-4.55,4.47,2.04,4.47,4.55-2,4.55-4.47,4.55ZM1299.84,183.45c-1.64,0-2.98,1.32-2.98,2.99s1.33,3.04,2.98,3.04,2.98-1.36,2.98-3.04-1.33-2.99-2.98-2.99Z"/>
      </g>
      <g>
        <path class="cls-11" d="M526.1,222.09c1.66.08,3.24,1.18,3.32,3.04.05,1.61.08,3.9.08,6.18,0,2.53-.03,5-.08,6.4-.08,1.83-1.45,3.17-3.4,3.23-1.71.05-3.61.08-5.43.08-1.61,0-3.19-.03-4.54-.08-2.37-.11-3.56-1.21-3.64-3.15-.05-1.69-.08-4.14-.08-6.64,0-2.21.03-4.46.08-6.21.05-1.67,1.4-2.77,3.43-2.85.74-.03,1.58-.05,2.48-.08.26-.97.5-2.1.58-2.93.08-.78.71-1.1,1.37-1.1.76,0,1.58.46,1.58,1.21,0,.3-.24,1.21-.79,2.8,1.87,0,3.69.05,5.04.11ZM526.92,229.67c0-1.34-.03-2.58-.05-3.58-.08-1.86-.47-1.86-5.93-1.86s-5.91,0-5.99,1.86c-.03.99-.08,2.23-.08,3.58h12.05ZM514.87,231.98c0,1.83.03,3.58.08,4.79.05,1.77.61,1.85,5.96,1.85,4.98,0,5.88,0,5.96-1.94.05-1.29.08-2.96.08-4.71h-12.08Z"/>
        <path class="cls-11" d="M557.67,237.98v.05c0,1.59-1.08,3.58-4.64,3.58-1.53,0-2.93-.08-2.93-1.53,0-.65.4-1.26,1.08-1.26.08,0,.16,0,.24.03.58.11,1.16.19,1.69.19,1.08,0,1.9-.35,1.9-1.56,0-11.72-.05-13.6-.08-14.04-.05-1.53-.58-1.83-1.87-1.85-1.92-.03-3.9-.05-5.85-.05s-3.88.03-5.67.05c-1.5.03-1.92.48-1.95,1.85-.08,3.17-.11,6.69-.11,10.35,0,2.31,0,4.65.03,7.02v.03c0,.78-.63,1.16-1.27,1.16s-1.32-.4-1.32-1.16v-.03c.05-6.02.05-12.56.16-18.55.03-1.72,1.32-2.9,3.3-2.93,2.32-.05,4.83-.08,7.36-.08,2.21,0,4.43.03,6.57.08,1.61.03,3.16,1.21,3.22,3.15.11,4.09.05,8.68.11,11.72l.05,3.79ZM548.36,228.78v6.1c1.71,0,2.06-.24,2.11-.94.03-.67.03-2.21.03-2.82,0-.73.58-1.1,1.13-1.1s1.16.38,1.19,1.1c0,.32.03.81.03,1.32,0,2.58-.05,4.33-2.72,4.44-1,.03-2.06.05-3.08.05-3.9,0-5.33-.03-5.41-2.5v-3.36c.03-.67.61-1.02,1.16-1.02s1.11.32,1.11,1v1.99c0,1.8,0,1.83,2.11,1.83v-6.08h-4.69c-.76,0-1.13-.51-1.13-1.05s.37-1.02,1.11-1.02h.03l5.88.05h.53c.03-.08.05-.16.11-.24.42-.86,1.11-2.26,1.63-3.71.18-.48.61-.7,1.03-.7.69,0,1.42.51,1.42,1.18,0,.32-.11.54-1.74,3.44l2.87-.03h.03c.71,0,1.08.51,1.08,1.02s-.37,1.05-1.11,1.05h-4.69ZM544.06,225.88c-.42-.94-1.24-1.72-1.48-2.04-.13-.19-.18-.35-.18-.54,0-.57.66-1,1.29-1,.95,0,2.61,2.07,2.61,2.9,0,.75-.69,1.34-1.32,1.34-.37,0-.71-.19-.92-.67Z"/>
        <path class="cls-11" d="M573.55,224.24l-9.89.05c-.84,0-1.27-.62-1.27-1.24s.42-1.26,1.27-1.26l8.57.05-.03-2.58c0-.83.71-1.26,1.4-1.26s1.4.43,1.4,1.26l-.03,2.58,8.54-.05c.82,0,1.24.62,1.24,1.24s-.42,1.26-1.24,1.26l-9.97-.05ZM572.28,229.16c-1.5,0-2.9,0-3.72.03-.71,0-1.03.35-1.05,1.18-.03,1-.03,2.45-.03,3.95s0,3.09.03,4.38v.03c0,.75-.63,1.13-1.29,1.13s-1.32-.38-1.34-1.16v-1.61c0-2.39.03-5.16.05-7.21.03-1.94,1.13-2.9,3.11-2.96,1-.03,2.56-.05,4.25-.05v-.99c0-.89.66-1.32,1.32-1.32s1.29.43,1.29,1.32v.99c1.74,0,3.4.03,4.54.05,1.77.05,3.01,1,3.03,2.85.03.86.03,1.8.03,2.58v1.72c0,.46.03,1.02.05,2.02v.08c0,1.86-1.4,3.33-3.85,3.33-1.34,0-2.77-.21-2.77-1.48,0-.65.4-1.29,1.08-1.29.08,0,.16,0,.26.03.42.11.9.21,1.34.21.71,0,1.29-.27,1.29-1.13,0,0-.03-3.9-.05-5.65,0-.56-.29-1-.98-1.02-.9-.03-2.37-.05-3.96-.05v11.48c0,.89-.66,1.32-1.32,1.32s-1.34-.43-1.34-1.32l.03-11.45Z"/>
        <path class="cls-11" d="M591.59,231.15c-1.71,1.5-2.24,1.77-2.72,1.77-.74,0-1.27-.67-1.27-1.34,0-.4.18-.81.63-1.08,2.27-1.34,4.54-3.71,6.14-6.45.26-.43.61-.62.98-.62.69,0,1.4.65,1.4,1.37,0,.24-.08.48-.24.73-.76,1.1-1.53,2.12-2.37,3.06l-.32,12.15c-.03.81-.69,1.21-1.34,1.21-.61,0-1.21-.38-1.21-1.16v-.05l.32-9.6ZM589.19,226.36c-.74,0-1.32-.56-1.32-1.21,0-.43.26-.91.87-1.26,2.06-1.21,3.77-3.04,5.06-5.22.29-.48.69-.67,1.05-.67.69,0,1.32.59,1.32,1.32,0,.24-.08.54-.26.81-1.66,2.45-5.17,6.24-6.72,6.24ZM597.63,230.85c-.66,0-1-.56-1-1.16,0-.54.32-1.1.95-1.1,1.08-.03,2.58-.03,4.14-.03s3.16,0,4.4.03c1.85.03,2.45.89,2.45,1.86,0,1.34-1.61,4.01-3.67,6.18,1.58,1.05,3.45,1.83,5.7,2.29.74.16,1.11.7,1.11,1.26,0,.67-.53,1.37-1.5,1.37-.71,0-3.96-.86-7.12-3.23-3.85,3.17-7.38,3.52-7.49,3.52-.82,0-1.37-.67-1.37-1.32,0-.51.34-1.02,1.13-1.16,2.24-.4,4.22-1.4,5.85-2.66-1.16-1.16-2.82-3.33-2.82-4.17,0-.67.61-1.13,1.24-1.13.37,0,.74.16.98.56.66,1.13,1.45,2.21,2.4,3.12,1.24-1.29,2.56-3.44,2.56-4.03,0-.24-.26-.27-.42-.27h-1.87c-1.87,0-4.09.03-5.62.05h-.03ZM609.02,223.7c0-.7.53-1.02,1.11-1.02.18,0,1.27.03,1.27,1.16,0,3.95-2.24,3.95-3.77,3.95-2.66,0-3.38-.67-3.38-3.09,0-.99.03-2.18.03-2.98s-.69-.81-1.5-.81c-1.11,0-1.61.11-1.61.86,0,2.5-.63,4.28-2.37,6.02-.37.38-.79.54-1.16.54-.76,0-1.4-.59-1.4-1.24,0-.29.13-.62.45-.89,1.45-1.21,1.95-2.37,1.95-4.62v-.57c0-2.1,2.19-2.23,3.9-2.23,3.45,0,4.25.46,4.25,3.23,0,.86-.05,1.61-.05,2.37v.38c0,.48.18.89,1.05.89s1.24-.46,1.24-1.77v-.16Z"/>
        <path class="cls-11" d="M616.46,240.58c-.34.48-.76.67-1.19.67-.66,0-1.27-.51-1.27-1.16,0-.24.08-.48.26-.75,2.03-2.88,2.37-5.97,2.37-9.11,0-1.37-.05-2.77-.08-4.17v-.05c0-1.21.69-2.29,2.48-2.34.61-.03,1.21-.03,1.82-.03,3.64,0,4.4.03,4.4,4.01,0,3.68-.53,4.14-4.85,4.14-.5,0-.98-.03-1.45-.03-.16,3.12-.74,6.24-2.5,8.82ZM616.75,221.79c-.79,0-1.19-.59-1.19-1.18s.4-1.16,1.19-1.16h8.15c.76,0,1.16.59,1.16,1.18s-.4,1.16-1.16,1.16h-8.15ZM620.26,229.69c1.77,0,2.53-.05,2.61-.86.03-.4.05-.94.05-1.48,0-1.53-.08-1.69-1.85-1.69-1.37,0-2.08.03-2.08.97,0,1,.03,2.02.03,3.04.42,0,.84.03,1.24.03ZM631.49,228.32h-2.56c-.11,4.6-.98,9.57-4.8,12.47-.32.24-.63.35-.92.35-.74,0-1.32-.64-1.32-1.32,0-.32.16-.67.53-.94,3.59-2.5,4.17-6.88,4.17-11.16,0-1.21-.03-2.42-.08-3.58v-.32c0-1.83.66-2.85,2.37-3.09,2.14-.27,3.98-.86,5.93-1.67.18-.08.37-.11.55-.11.76,0,1.27.7,1.27,1.37,0,.51-.26,1-.9,1.21-1.98.67-3.88,1.05-5.85,1.4-.79.13-.98.51-.98,1.21v.16c.03.56.05,1.16.05,1.77l7.99-.05c.79,0,1.19.59,1.19,1.16s-.4,1.16-1.19,1.16h-2.98l.03,12.13c0,.75-.63,1.13-1.27,1.13s-1.27-.38-1.27-1.13l.03-12.15Z"/>
        <path class="cls-11" d="M647.72,240.8c0,.73-.66,1.1-1.29,1.1s-1.29-.35-1.29-1.1v-.03l.11-9.06c-.69,1.29-1.48,2.47-2.32,3.5-.32.38-.69.51-1.03.51-.69,0-1.32-.56-1.32-1.24,0-.27.13-.59.4-.86,1.37-1.4,3.22-3.98,4.3-6.48l-.03-.3-2.64.08h-.03c-.79,0-1.19-.56-1.19-1.16s.42-1.18,1.21-1.18h2.61l-.05-2.37c-.92.19-2.08.38-2.32.38-.79,0-1.21-.65-1.21-1.26,0-.51.32-1,.98-1.08,2.35-.24,4.03-.67,6.17-1.56.13-.05.29-.08.42-.08.63,0,1.16.62,1.16,1.26,0,.78-.42,1.05-2.66,1.75-.03.56-.03,1.67-.05,2.96h1.98c.79,0,1.19.59,1.19,1.18s-.4,1.16-1.16,1.16h-.03l-2.03-.05v1.72c.11-.03.21-.05.29-.05.45,0,3.06,1.91,3.06,2.96,0,.67-.58,1.26-1.19,1.26-.26,0-.58-.16-.79-.48-.37-.56-.9-1.26-1.37-1.77.03,4.14.13,10.27.13,10.27v.03ZM648.35,240.45c0-.38.21-.75.66-.97,3.27-1.5,4.67-3.52,4.88-6.61.05-.78.61-1.16,1.19-1.16s1.21.43,1.21,1.18v.13c-.5,6.32-5.83,8.71-6.64,8.71-.76,0-1.29-.65-1.29-1.29ZM662.45,236.66c0-.75.53-1.08,1.08-1.08.61,0,1.27.4,1.27,1.1v.19c0,3.44-1.05,4.49-4.19,4.49-2.4,0-3.24-.73-3.24-3.04,0-.94.03-5.22.08-6.83-5.3,0-6.2-.05-6.2-3.71,0-2.31,0-4.3,2.77-4.44,1.05-.05,2.27-.05,3.45-.05.63-1.16,1.45-2.93,1.79-4.01.18-.59.63-.83,1.11-.83.69,0,1.45.54,1.45,1.26,0,.59-1.21,2.5-1.92,3.6l.32.03c1.5.05,2.66.86,2.72,2.23.05.78.11,1.8.11,2.61,0,1.53-.21,3.04-2.82,3.23-.13,0-.29.03-.45.03,0,1.45-.08,4.79-.08,6.18,0,.83,0,1.42.98,1.42,1.5,0,1.79-.21,1.79-2.1v-.29ZM654.7,223.08c-.37,0-.74-.21-.95-.67-.42-.97-1.05-1.67-1.45-2.1-.18-.22-.26-.46-.26-.67,0-.54.55-1.02,1.19-1.02,1.21,0,2.79,2.34,2.79,3.15,0,.75-.69,1.32-1.32,1.32ZM660.48,226.28c-.05-.94-.58-.97-3.08-.97-.95,0-1.92,0-2.64.03-.87.03-1.13.32-1.13,1.99,0,2.12,0,2.15,3.48,2.15,3.22,0,3.4-.03,3.4-1.69,0-.48,0-1.05-.03-1.5Z"/>
        <path class="cls-11" d="M687.83,223.05c-.37,1.34-1.05,2.82-2.29,4.19,1.29.64,2.74,1.05,4.17,1.29.66.11.95.59.95,1.08,0,.65-.5,1.34-1.45,1.34-.55,0-2.95-.51-5.41-2.15-2.14,1.56-4.77,2.42-5.12,2.42-.58,0-1-.43-1.16-.91-.05.11-.47,1.02-1.37,1.02-.55,0-1.03-.38-1.03-.89,0-.16.05-.32.16-.51.21-.35.76-1.37.76-1.64,0-.13-.11-.21-.42-.24h-.9v.21s-.03,4.6-.03,6.05c0,.43.05,2.88.08,3.82v.13c0,1.72-.84,3.23-3.3,3.23-.92,0-2.43-.08-2.43-1.42,0-.62.37-1.21,1.03-1.21.08,0,.16,0,.24.03.34.08.69.13.98.13.63,0,1.11-.24,1.13-1.16,0-1.21.03-3.95.05-6.18-.98,1.53-2.14,3.07-3.14,4.11-.29.29-.61.43-.9.43-.63,0-1.16-.56-1.16-1.21,0-.35.16-.7.5-.99,1.27-1.1,3.35-3.58,4.61-5.92-.29,0-2.98.13-3.48.13-.63,0-.95-.51-.95-1.05,0-.57.34-1.1,1-1.13h4.14c-.61-.78-1.63-1.45-2.21-1.75-.32-.16-.42-.4-.42-.67,0-.51.5-1.08,1.11-1.08.4,0,1.13.46,1.63.81,1.05-1.08,1.71-1.96,1.71-2.07,0-.08-.05-.11-.13-.11-1.29,0-3.38.05-4.83.16h-.11c-.66,0-1-.51-1-1.05s.37-1.1,1.11-1.13c1.71-.05,4.25-.05,6.06-.05,1.13,0,1.74.65,1.74,1.48,0,.4,0,1.16-3.06,4.01.03.03.05.08.08.11.18.21.26.46.26.7s-.08.46-.21.64c.53,0,1.03.03,1.45.03,1,.03,2.06.7,2.06,1.83,0,.27-.03.51-.32,1.18l.24-.08c1.53-.43,2.74-1,3.72-1.64-.84-.81-1.56-1.72-2.08-2.8-1.05,1.32-1.29,1.53-1.9,1.53s-1.16-.43-1.16-1.02c0-.24.11-.54.4-.83,1.37-1.4,2.5-3.17,3.3-5.27.18-.48.61-.67,1.03-.67.63,0,1.29.43,1.29,1.08,0,.11,0,.27-.66,1.61l7.04-.08c.69,0,1.03.54,1.03,1.05,0,.54-.34,1.08-1.03,1.08h-1.42ZM683.56,234.53c-1.53,5.75-6.88,7.21-7.44,7.21-.76,0-1.27-.65-1.27-1.26,0-.46.24-.86.82-1.05,2.93-.89,4.77-2.5,5.54-4.84-1.05.03-2.11.05-3.14.08h-.05c-.74,0-1.11-.51-1.11-1.05s.37-1.08,1.13-1.08c1.13-.03,2.35-.03,3.56-.05,0-.19.03-.4.03-.62,0-.27-.03-.56-.05-.89v-.08c0-.65.63-1.05,1.24-1.05s1.13.35,1.13,1.16c0,.51,0,1-.05,1.45.9,0,1.79,0,2.66.03,1.79.03,2.53,1.05,2.53,2.45,0,.91-.08,6.37-4.59,6.37-.69,0-1.45-.13-2.35-.38-.53-.13-.76-.65-.76-1.13,0-.62.34-1.24,1-1.24.11,0,.26.03.4.08.71.24,1.24.35,1.69.35,1.27,0,2.08-1.53,2.16-3.66,0-.57-.32-.81-.79-.81h-2.29ZM681.45,223.05c.55,1.24,1.32,2.2,2.21,2.96.87-.94,1.42-1.96,1.71-2.96h-3.93Z"/>
        <path class="cls-11" d="M694.77,224.69c-.74,0-1.13-.56-1.13-1.1,0-.56.4-1.1,1.13-1.1h7.38c.76,0,1.13.54,1.13,1.1s-.37,1.1-1.13,1.1h-7.38ZM710.85,240.88c0,.73-.61,1.08-1.19,1.08s-1.21-.38-1.21-1.1v-.03l.08-5.65c-1.48,2.47-4.38,5.59-5.59,5.59-.63,0-1.11-.51-1.13-1.08-.53,1.13-1.48,1.26-3.64,1.26-.69,0-1.37-.03-1.82-.05-1.13-.08-1.87-.94-1.9-2.12,0-.7-.03-1.32-.03-1.94s.03-1.18.03-1.77c.03-1.02.66-1.99,1.87-2.04.53-.03,1.24-.05,1.92-.05s1.34.03,1.74.05c.95.05,2,.75,2.03,1.91.03.62.03,1.26.03,1.94s0,1.29-.03,1.88c0,.08-.03.13-.03.21.08-.13.24-.24.4-.35,2.32-1.5,4.06-3.47,5.35-5.7l-3.77.08h-.03c-.69,0-1.03-.54-1.03-1.05,0-.57.34-1.1,1.05-1.1l4.61.05-.03-1.75c-.71-.03-1.42-.05-1.98-.08-1.74-.08-2.56-1.08-2.64-2.42-.03-.81-.05-1.69-.05-2.58s.03-1.83.05-2.66c.05-1.08.76-2.23,2.66-2.31.87-.05,1.95-.05,3.08-.05s2.24,0,3.16.05c1.69.05,2.64,1.13,2.69,2.29.03.97.05,2.02.05,3.06,0,.75,0,1.51-.05,2.18-.08,1.24-1.11,2.34-2.69,2.45-.58.05-1.32.08-2.11.08v1.75l5.09-.05c.74,0,1.11.56,1.11,1.1s-.34,1.05-1.08,1.05h-.03l-4.4-.08c1.63,2.1,3.61,3.76,5.67,5.05.45.27.63.67.63,1.08,0,.7-.61,1.4-1.34,1.4-1.48,0-5.25-4.87-5.62-5.38l.08,5.78v.03ZM695.77,221.01c-.71,0-1.05-.54-1.05-1.08s.34-1.08,1.05-1.08h5.43c.71,0,1.08.54,1.08,1.08s-.37,1.08-1.08,1.08h-5.43ZM695.82,228.19c-.71,0-1.05-.54-1.05-1.08s.34-1.08,1.05-1.08h5.17c.71,0,1.08.54,1.08,1.08s-.37,1.08-1.08,1.08h-5.17ZM695.82,231.66c-.71,0-1.05-.54-1.05-1.08s.34-1.08,1.05-1.08h5.17c.71,0,1.08.54,1.08,1.08s-.37,1.08-1.08,1.08h-5.17ZM699.94,236.95c0-.43,0-.89-.03-1.26-.05-.67-.5-.73-1.71-.73-1.69,0-1.69.03-1.69,1.96,0,.43.03.89.03,1.29.03.48.08.65,1.85.65.53,0,1.53,0,1.53-.67.03-.38.03-.81.03-1.24ZM708.51,220.88c-2.32,0-2.4,0-2.4,2.29h2.43l-.03-2.29ZM708.53,224.94h-2.43c0,1.75,0,2.26,1.16,2.31l1.29.03-.03-2.34ZM710.77,224.94l-.03,2.34c2.61,0,2.61-.03,2.61-2.34h-2.58ZM713.36,223.16c0-.46-.03-.91-.03-1.32-.03-.97-.61-.97-2.53-.97v2.29h2.56Z"/>
        <path class="cls-11" d="M725.36,236.47c-.5.21-3.67,1.64-4.46,1.64-.71,0-1.13-.64-1.13-1.26,0-.48.26-.97.82-1.13l.87-.24v-14.03h-.21c-.76,0-1.13-.56-1.13-1.1,0-.56.37-1.1,1.13-1.1h6.35c.74,0,1.08.56,1.08,1.1v.16c.11-.05.26-.05.42-.05h1.77l-.03-1.4v-.03c0-.67.58-1.02,1.16-1.02s1.19.35,1.19,1.05l-.03,1.4h1.79c.71,0,1.08.51,1.08,1,0,.51-.37,1.02-1.08,1.02h-5.85c-.69,0-1.05-.48-1.05-1v-.11c-.13.05-.26.08-.45.08h-.13l.03,19.55c0,.7-.53,1.05-1.08,1.05s-1.08-.35-1.08-1.05l.03-4.52ZM725.39,221.44h-1.82v2.82h1.82v-2.82ZM725.36,226.39h-1.79v2.61h1.79v-2.61ZM725.36,231.12h-1.79v3.71c.61-.21,1.21-.43,1.79-.67v-3.04ZM738.86,228.73c.05,1.69.16,3.36.37,4.84.58-.99.98-2.02,1.29-3.01.16-.51.58-.75,1-.75.58,0,1.21.43,1.21,1.1,0,.11-.47,2.42-2.95,5.51.21.65.79,2.26,1.29,2.26.26,0,.53-.48.69-1.91.08-.67.58-1,1.11-1,.58,0,1.19.4,1.19,1.16,0,.94-.71,4.3-2.93,4.3-1.53,0-2.4-1.26-3.03-2.98-3.22,2.98-6.43,3.68-6.7,3.68-.74,0-1.21-.65-1.21-1.26,0-.46.26-.91.87-1.08,3.01-.81,4.85-2.15,6.33-3.76-.45-2.12-.63-4.57-.71-7.1h-7.88c-.69,0-1.05-.51-1.05-1.02s.37-1.02,1.05-1.02h3.22c.42-.83.79-1.99.98-3.06.11-.56.5-.81.92-.81.58,0,1.21.43,1.21,1.08,0,.24-.29,1.26-1.21,2.8h2.72c-.05-2.47-.03-5-.08-7.39v-.03c0-.78.61-1.18,1.19-1.18s1.16.38,1.16,1.21v.03c-.05,1.75-.08,3.82-.08,5.94v1.42h3.35c.71,0,1.08.51,1.08,1.02s-.37,1.02-1.08,1.02h-3.3ZM728.71,236.5c-.03-.48-.03-1.26-.03-2.1,0-1.1,0-2.31.03-2.96.05-1.69,1.74-1.72,3.43-1.72,1.4,0,3.16.08,3.22,1.69.03.86.08,2.12.08,3.25,0,2.61,0,3.66-3.16,3.66-1.87,0-3.48-.13-3.56-1.83ZM730.63,226.25c-.37,0-.71-.19-.82-.62-.13-.62-.42-.97-.76-1.37-.16-.16-.21-.35-.21-.51,0-.46.47-.81.98-.81.84,0,1.92,1.45,1.92,2.29,0,.65-.55,1.02-1.11,1.02ZM730.56,234.75c0,1.72.03,1.86,1.42,1.86,1.48,0,1.5-.16,1.5-1.86h-2.93ZM733.46,233.14c0-.43-.03-.86-.03-1.16-.03-.48-.16-.62-1.37-.62-1.48,0-1.48.08-1.48,1.77h2.87ZM741.89,225.07c-.32,0-.61-.13-.76-.48-.47-1-1.08-1.53-1.63-2.02-.18-.16-.26-.35-.26-.54,0-.51.63-1.02,1.21-1.02.87,0,2.72,1.91,2.72,2.88,0,.67-.66,1.18-1.27,1.18Z"/>
        <path class="cls-11" d="M768,239.29c.82.05,1.19.62,1.19,1.24,0,.73-.53,1.51-1.48,1.51-.84,0-4.4-.89-7.07-2.45-.42-.24-.58-.62-.58-1,0-.35.16-.73.42-.97-1.58,0-3.27,0-4.83-.03.34.27.58.73.58,1.16,0,.38-.16.73-.55.97-2.61,1.64-6.3,2.45-7.15,2.45-.92,0-1.4-.67-1.4-1.32s.4-1.24,1.27-1.29c1.79-.11,4.01-.78,5.85-1.99-.5,0-1-.03-1.45-.03-1.92-.05-2.95-1.02-3.01-2.34-.05-1.02-.08-2.29-.08-3.55s.03-2.5.08-3.44c.05-1.08.82-2.23,2.93-2.26,1.42-.03,3.11-.03,4.85-.03,2.16,0,4.38,0,6.33.05,1.61.03,2.77,1.05,2.82,2.07.05.97.08,2.04.08,3.15,0,1.4-.03,2.8-.08,4.01-.05,1.24-1.19,2.34-2.95,2.37-.5,0-1,.03-1.53.03,1.82.97,4.06,1.59,5.75,1.69ZM758.19,224.8c-1.77,0-3.48-.03-4.98-.05-2.61-.08-2.72-1.26-2.72-2.96s.18-2.77,2.66-2.8c1.71-.03,3.72-.05,5.67-.05,1.63,0,3.24.03,4.67.05,2.43.05,2.56,1.4,2.56,2.71s0,2.96-2.69,3.04c-1.63.03-3.43.05-5.17.05ZM764.31,231.01h-12.16v1.42h12.16v-1.42ZM764.23,228.86c-.03-.62-.4-1-1.29-1.02-1.56-.03-3.8-.05-5.88-.05-1.29,0-2.53,0-3.53.03-.84.03-1.29.54-1.32,1.05v.46h12.05l-.03-.46ZM752.21,234.13v.46c.03.75.55,1.02,1.34,1.05,1.5.05,3.53.08,5.48.08,1.42,0,2.79-.03,3.93-.05.71-.03,1.21-.32,1.27-1.05,0-.16.03-.32.03-.48h-12.05ZM763.49,221.87c0-.73-.24-.89-1.03-.89-1.24-.03-2.77-.03-4.27-.03s-3.01,0-4.25.03c-.95,0-.98.46-.98.91,0,.81.26.89,1,.89,1.24.03,2.74.03,4.25.03,4.96,0,5.09,0,5.22-.56.03-.11.05-.24.05-.38Z"/>
      </g>
      <g>
        <path d="M352.48,235.16c.97-.97,1.94-1.93,2.8-2.83,2-2.08,3.01-3.49,3.01-5.44,0-1.68-.83-2.65-2.15-2.65-.62,0-1.24.09-2.04.48l1.59-.97-.34,2.06c-.23,1.47-.92,1.82-1.58,1.82-.6,0-1.12-.34-1.38-.88.06-2.38,2.29-3.63,4.93-3.63,3.07,0,4.39,1.62,4.39,3.74s-1.54,3.8-5.06,6.24c-.74.52-1.56,1.11-2.38,1.72l-.32-.4h8.03v2.67h-9.51v-1.93Z"/>
        <path d="M373.62,230.28c0,4.99-2.38,7.13-5.02,7.13s-4.98-2.15-4.98-7.13,2.34-7.15,4.98-7.15,5.02,2.14,5.02,7.15ZM368.61,236.29c1,0,1.81-1.18,1.81-6.01s-.81-6.04-1.81-6.04-1.78,1.16-1.78,6.04.77,6.01,1.78,6.01Z"/>
        <path d="M375.48,235.16c.97-.97,1.94-1.93,2.8-2.83,2-2.08,3.01-3.49,3.01-5.44,0-1.68-.83-2.65-2.15-2.65-.62,0-1.24.09-2.04.48l1.59-.97-.34,2.06c-.23,1.47-.92,1.82-1.58,1.82-.6,0-1.12-.34-1.38-.88.06-2.38,2.29-3.63,4.93-3.63,3.07,0,4.39,1.62,4.39,3.74s-1.54,3.8-5.06,6.24c-.74.52-1.56,1.11-2.38,1.72l-.32-.4h8.03v2.67h-9.51v-1.93Z"/>
        <path d="M396.62,230.28c0,4.99-2.38,7.13-5.02,7.13s-4.98-2.15-4.98-7.13,2.34-7.15,4.98-7.15,5.02,2.14,5.02,7.15ZM391.61,236.29c1,0,1.81-1.18,1.81-6.01s-.81-6.04-1.81-6.04-1.78,1.16-1.78,6.04.77,6.01,1.78,6.01Z"/>
        <path d="M409.45,233l.02,4.89c0,.32-.3.5-.57.5-.3,0-.57-.17-.57-.5v-4.89l-8.7.02c-.4,0-.57-.24-.57-.48,0-.28.23-.58.57-.58h3.48c0-.84,0-1.92.04-3.29.02-.86.59-1.9,2.16-1.9h3.03v-3.42l-4.18.02c-.55.86-2.52,3.91-3.37,3.91-.32,0-.57-.28-.57-.56,0-.15.04-.3.19-.43,1.72-1.62,3.27-4,4.26-6.51.11-.26.32-.37.53-.37.34,0,.68.26.68.61s-.98,2.03-1.12,2.31h10.37c.36,0,.53.26.53.52s-.17.52-.53.52l-5.68-.02v3.42h4.5c.34,0,.53.26.53.52s-.17.5-.51.5c-1.36-.02-2.99-.02-4.52-.02v4.2h6.94c.34,0,.51.26.51.54,0,.26-.17.52-.51.52l-6.94-.02ZM408.35,227.77c-1.12,0-2.1.02-2.78.02-.91.02-1.29.65-1.29,1.28,0,.71-.02,1.95-.02,2.9h4.07l.02-4.2Z"/>
        <path d="M423.06,229.39c1.62,0,2.6-.79,2.6-2.68,0-1.66-.8-2.47-2.17-2.47-.38,0-.92.1-1.59.3l1.28-.79-.31,1.93c-.18,1.1-.81,1.51-1.58,1.51-.51,0-.96-.26-1.2-.69,0-2.34,1.99-3.37,4.23-3.37,3.13,0,4.66,1.49,4.66,3.46,0,1.55-1.14,3.1-4.03,3.52v-.35c3.25.28,4.44,1.61,4.44,3.73,0,2.26-1.96,3.93-5.3,3.93-2.94,0-4.5-1.29-4.61-3.58.25-.68.79-.96,1.32-.96.87,0,1.38.44,1.57,1.92l.26,2.03-1.02-.89c.54.24.93.34,1.43.34,1.87,0,2.85-.93,2.85-2.93,0-1.79-.96-2.76-2.72-2.76h-.75v-1.21h.62Z"/>
        <path d="M446.07,235.42v.09c0,1.3-.72,2.46-3.25,2.46-2.33,0-2.35-.43-2.35-.74,0-.32.23-.63.59-.63h.11c.64.11,1.23.19,1.76.19,1.12,0,1.93-.37,1.93-1.51,0-1.23.02-2.7.02-4.24h-7.87c-.42,2.64-1.48,5.08-4.11,7.03-.13.09-.25.13-.36.13-.36,0-.66-.32-.66-.63,0-.15.06-.32.23-.43,3.5-2.44,4.05-6.21,4.05-9.99,0-1.6-.08-3.2-.11-4.71v-.04c0-1.19.91-1.88,2.38-1.92.83-.02,1.85-.04,2.84-.04.85,0,1.67.02,2.42.04,1.44.04,2.29.71,2.31,1.92,0,.73.02,1.53.02,2.38,0,1.86-.02,3.89-.02,5.69,0,1.1,0,2.1.02,2.94l.04,2.01ZM444.88,226.26h-7.61v1.1c0,.91-.02,1.79-.11,2.66h7.72v-3.76ZM444.86,225.24c0-.95-.02-1.84-.04-2.62-.02-.82-.53-1.12-1.27-1.15-.7-.02-1.46-.04-2.25-.04-.93,0-1.89.02-2.69.04-.83.02-1.38.35-1.38,1.15,0,.87,0,1.73.02,2.62h7.61Z"/>
        <path d="M460.75,233.15v4.74c0,.32-.28.5-.55.5s-.55-.17-.55-.5v-4.74l-7.74.02c-.36,0-.53-.26-.53-.52s.19-.54.53-.54l7.74.02v-1.3c0-.35.28-.52.55-.52s.55.17.55.52v1.3l7.78-.02c.36,0,.53.26.53.54,0,.26-.17.52-.53.52l-7.78-.02ZM452.76,223.45c-.34,0-.53-.26-.53-.54,0-.26.19-.52.53-.52l6.87.02-.02-2.34c0-.39.3-.58.59-.58s.59.19.59.58l-.02,2.34,6.94-.02c.36,0,.53.26.53.52,0,.28-.17.54-.53.54h-14.95ZM453.52,230.19c-.32,0-.57-.26-.57-.54,0-.15.06-.32.25-.45,1.48-1.1,2.69-2.68,3.39-4.45.11-.26.3-.37.49-.37.28,0,.53.22.53.54,0,.06-.02.13-.04.22-.15.39-.34.78-.57,1.17.57.24,2.35,1.34,2.35,1.97,0,.32-.25.56-.51.56-.11,0-.23-.04-.32-.15-.66-.76-1.49-1.34-1.97-1.62-1.02,1.54-2.46,3.13-3.03,3.13ZM459.89,230.04c-.32,0-.55-.26-.55-.52,0-.15.06-.3.23-.41,1.51-1.02,2.71-2.62,3.44-4.45.11-.24.28-.35.45-.35.3,0,.57.24.57.56,0,.13-.04.35-.59,1.34.91.97,2.14,1.9,3.71,2.66.21.11.32.3.32.52,0,.3-.21.61-.57.61-.28,0-1.89-.74-3.95-2.98-.91,1.38-2.38,3.03-3.05,3.03Z"/>
        <path d="M482.5,232.57c2.54,2.08,4.75,3.18,7.53,4.06.32.11.47.35.47.56,0,.3-.23.61-.64.61-.53,0-4.52-1.64-7.91-4.56l.06,4.65c0,.37-.28.54-.57.54-.28,0-.55-.17-.55-.52l.04-4.67c-3.37,3.07-7.53,4.65-7.87,4.65-.36,0-.59-.26-.59-.54,0-.22.13-.43.47-.56,3.01-1.06,4.98-2.12,7.4-4.22l-6.92.09c-.3,0-.47-.24-.47-.5,0-.24.17-.48.47-.48l7.51.04v-1.58l-5.34.02c-.3,0-.45-.22-.45-.45,0-.22.15-.45.45-.45l5.32.02-.02-1.58-6.36.02c-.32,0-.47-.24-.47-.45,0-.24.15-.48.47-.48l4.33.02c-.21-.5-.57-1.1-.83-1.45-.06-.07-.08-.15-.08-.22,0-.24.25-.43.55-.43.66,0,1.29,1.41,1.44,1.84.02.06.02.13.02.17v.09h2.95c.25-.48.57-1.3.68-1.79.06-.24.28-.35.51-.35.3,0,.64.2.64.54,0,.11-.25.8-.7,1.6l4.26-.02c.3,0,.45.24.45.45,0,.24-.15.48-.45.48l-6.3-.02v1.58l5.24-.02c.3,0,.45.24.45.45,0,.24-.15.45-.45.45l-5.26-.02-.02,1.58,7.55-.04c.32,0,.47.26.47.5s-.15.48-.45.48l-7.02-.09ZM473.25,224.4c-.32,0-.49-.26-.49-.5,0-.26.17-.5.49-.5l3.67.02c-.38-.74-.98-1.43-1.51-2.03-.06-.07-.08-.13-.08-.19,0-.26.32-.52.64-.52.55,0,2.04,2.21,2.04,2.75h1.48l-.02-3.39c0-.35.28-.5.53-.5.28,0,.53.15.53.5v3.39h1.8v-3.39c0-.35.25-.5.53-.5.25,0,.51.15.51.5l-.02,3.39h1.38c.57-.71,1.12-1.77,1.44-2.46.13-.28.34-.39.55-.39.3,0,.59.24.59.56,0,.26-.87,1.6-1.44,2.29l3.8-.02c.34,0,.51.24.51.5,0,.24-.17.5-.51.5h-16.42Z"/>
      </g>
      <g>
        <path class="cls-13" d="M125.32,188.92c0,2.19-.74,3.98-3.76,3.98s-4.59-.7-4.59-3.98v-8.87c-.26.09-.61.22-1.27.22-2.58,0-4.5-2.41-4.5-4.72s1.44-3.28,3.72-4.98c1.01-.74,3.58-2.67,5.38-5.64.17-.26.26-.39.26-.52s-.17-.39-.39-.39h-4.42c-.96,0-4.02,0-4.02-3.63,0-3.1,1.36-4.11,4.02-4.11h1.22v-1.66c0-1.4.17-3.98,3.8-3.98,3.28,0,4.5,1.09,4.5,3.98v1.66c4.55,0,4.9,2.8,4.81,5.2.57-.44,1.35-.61,2.58-.61h3.98v-6.08c0-1.62.35-3.98,3.89-3.98,3.02,0,4.63.83,4.63,3.98v6.08h3.8c1.49,0,4.28.17,4.28,3.89,0,3.41-1.31,4.55-4.28,4.55h-3.8v14.43h4.24c1.44,0,4.24.17,4.24,3.85,0,3.24-1.22,4.42-4.24,4.42h-17.62c-1.57,0-4.72-.13-4.72-3.85,0-3.28,1.44-4.42,4.72-4.42h4.85v-14.43h-3.98c-2.23,0-3.58-.74-3.93-3.02-1.05,2.01-1.71,2.93-2.01,3.45.48.52,2.8,2.71,3.28,3.19.74.74,1.57,1.49,1.57,2.71,0,1.62-1.53,3.98-3.76,3.98-.57,0-1.57-.22-2.49-1.05v10.36Z"/>
        <path class="cls-13" d="M171.88,168.73c-.96,0-3.02-.04-3.72-2.05-2.67,1.44-4.15,2.05-5.29,2.05-2.36,0-4.2-2.27-4.2-4.94,0-2.4,1.49-3.15,2.36-3.5,7.12-2.93,8.87-3.89,12.24-7.04,1.57-1.44,3.1-2.84,6.56-2.84s4.98,1.4,6.51,2.84c3.15,2.93,5.55,4.33,12.02,6.91,1.22.48,2.62,1.09,2.62,3.67s-1.97,4.85-4.02,4.85c-1.09,0-2.62-.44-5.55-2.1-.7,2.14-2.84,2.14-3.76,2.14h-15.78ZM192.73,178.3c1.31,1.36,2.54,2.89,3.72,4.42,2.93,3.76,2.93,4.5,2.93,5.25,0,3.19-3.5,4.5-5.16,4.5s-2.23-.83-3.32-2.49c-3.98.57-5.9.74-11.15,1.14-2.01.13-14.51,1.01-15.52,1.01-2.8,0-3.93-1.49-3.93-4.28,0-.74.13-3.06,2.19-3.67.61-.17,2.8-.26,4.2-.31.57-1.35,1.31-3.8,1.79-5.55h-4.68c-2.67,0-3.98-1.05-3.98-4.2,0-3.72,3.02-3.72,3.98-3.72h32c2.8,0,4.02,1.18,4.02,4.2,0,3.72-3.02,3.72-4.02,3.72h-3.06ZM177.47,178.3c-.35.83-1.92,4.63-2.23,5.38,4.94-.09,5.55-.13,11.06-.39-1.18-1.57-1.36-1.84-1.36-2.71,0-.96.44-1.57,1.22-2.27h-8.7ZM184.12,161.56c-1.31-1.09-2.58-2.32-3.19-2.89-.26-.26-.7-.61-1.09-.61-.44,0-.79.31-1.44.92-1.01.96-2.27,2.1-2.89,2.58h8.61Z"/>
        <path class="cls-13" d="M223.16,156.62c-.09-.17-.31-.83-.48-1.22-.13-.39-.35-.96-.35-1.66,0-2.05,2.45-3.06,4.72-3.06,1.92,0,2.75.57,3.67,2.58.31.7.96,2.05,1.14,3.37h2.54c.26-.48.48-.96,1.18-2.93.61-1.79,1.22-2.8,3.54-2.8,2.71,0,4.94,1.4,4.94,3.54,0,.74-.48,1.62-.83,2.23,2.45.48,3.45,2.75,3.45,5.64v2.71c0,2.32-.79,4.33-4.81,3.89-.17,2.27-1.31,2.97-2.32,3.58-2.14,1.4-3.72,2.14-4.55,2.49h9.05c.88,0,3.98,0,3.98,3.67,0,3.41-2.49,3.72-3.98,3.72h-12.9v4.59c0,5.33-2.27,5.99-8,5.99-5.12,0-5.68-.13-6.38-.48-1.18-.52-1.84-2.14-1.84-3.67,0-2.49,1.49-3.72,3.8-3.72.44,0,2.27.09,2.67.04.96-.09.96-.57.96-1.62v-1.14h-12.81c-.87,0-3.98,0-3.98-3.54,0-2.8,1.4-3.85,3.98-3.85h12.85c.09-.52.39-1.18,1.62-1.62.61-.22,1.36-.48,1.36-.79,0-.17-.13-.35-.35-.35h-10.05c-1,0-3.15,0-3.32-3.32-3.41.39-4.9-1.05-4.9-3.8v-2.8c0-1.66.09-4.94,3.93-5.55-.26-.53-.83-1.53-.83-2.54,0-1.57,1.92-3.23,4.68-3.23,1.31,0,2.58.13,3.89,2.8.35.74.87,2.05,1.05,2.84h3.67ZM214.9,165.14h22.38c.7,0,.79,0,1.31.04v-1.14c0-.26-.26-.35-.39-.35h-22.95c-.13,0-.35.09-.35.35v1.09Z"/>
        <path class="cls-13" d="M283.58,173.97v-19.19c0-.96,0-4.02,3.89-4.02,3.5,0,4.37,1.62,4.37,4.02v17.79c.52,0,1.57-.04,2.4.96.7.79,1.09,2.23,1.09,3.63,0,3.15-2.01,3.5-3.5,3.76v7.87c0,.96,0,4.02-3.89,4.02-3.41,0-4.37-1.53-4.37-4.02v-6.38l-8.96,1.62c-.26.04-.61.09-.88.09-2.75,0-3.32-3.15-3.41-4.11-.31.17-.74.39-1.49.39-1.18,0-1.71-.57-2.1-1.05v9.35c0,.83,0,4.02-3.85,4.02s-3.93-2.71-3.93-4.02v-3.06c-.31.48-1.05,1.49-2.45,1.49-2.32,0-3.89-2.45-3.89-4.42,0-1.66.66-2.62,2.05-4.68,2.05-3.02,3.1-5.9,4.11-8.61h-1.66c-.87,0-4.11,0-4.11-3.76s3.19-3.8,4.11-3.8h1.84v-1.84c-.48.04-1.49.13-2.01.13-1.18,0-3.67-.17-3.67-3.85,0-3.37,2.14-3.5,5.2-3.67,2.49-.13,3.58-.35,6.78-.92.44-.09,1.66-.35,2.49-.35,2.75,0,3.58,2.1,3.58,3.8,0,2.97-1.75,3.28-4.59,3.8v2.88c3.28,0,3.85,2.36,3.85,3.8,0,1.05-.31,3.67-3.67,3.76,1.27,2.05,1.97,2.75,4.11,5.03.35.39.7.92.92,1.71.39-.17.87-.31,1.31-.39l10.32-1.79ZM278.81,165.58c2.1,1.66,2.8,2.62,2.8,4.02,0,2.23-2.36,4.37-4.5,4.37-1.18,0-1.75-.61-3.41-2.27-1.88-1.88-2.58-2.54-2.58-3.93,0-1.53,1.57-3.98,4.33-3.98.61,0,1.49.26,3.37,1.79ZM280.47,154.39c2.84,2.32,2.89,3.28,2.89,3.98,0,2.27-2.14,4.28-4.11,4.28-1.71,0-2.71-1.05-3.8-2.1-.31-.31-1.66-1.49-1.92-1.75-.74-.74-.83-1.44-.83-2.01,0-1.31,1.09-4.15,4.42-4.15.96,0,2.58,1.09,3.37,1.75Z"/>
      </g>
      <text class="cls-12" transform="translate(101.96 331.69) scale(.98 1)"><tspan class="cls-9"><tspan class="cls-42" x="0" y="0">生</tspan><tspan class="cls-71" x="19.25" y="0">ま</tspan><tspan class="cls-14" x="36.98" y="0">れ</tspan><tspan class="cls-42" x="58.6" y="0">育</tspan><tspan class="cls-80" x="77.85" y="0">っ</tspan><tspan class="cls-88" x="96.23" y="0">た</tspan><tspan x="117.2" y="0">地</tspan><tspan class="cls-84" x="138.82" y="0">元の</tspan><tspan x="179.91" y="0">活性</tspan><tspan class="cls-49" x="223.16" y="0">化</tspan><tspan class="cls-83" x="243.48" y="0">に</tspan><tspan x="264.03" y="0">貢</tspan><tspan class="cls-81" x="285.65" y="0">献し</tspan><tspan class="cls-49" x="322.41" y="0">た</tspan><tspan class="cls-92" x="342.74" y="0">い</tspan></tspan><tspan class="cls-8"><tspan x="0" y="32.11">埼玉県白岡</tspan><tspan class="cls-49" x="108.12" y="32.11">市</tspan><tspan class="cls-84" x="128.44" y="32.11">の</tspan><tspan x="148.99" y="32.11">市役所税務</tspan><tspan class="cls-49" x="257.11" y="32.11">課で</tspan><tspan x="297.76" y="32.11">、税</tspan><tspan class="cls-49" x="341.01" y="32.11">務</tspan><tspan class="cls-84" x="361.33" y="32.11">に</tspan><tspan class="cls-82" x="381.88" y="32.11">関</tspan><tspan class="cls-68" x="403.07" y="32.11">す</tspan><tspan class="cls-39" x="421.02" y="32.11">る</tspan><tspan x="440.48" y="32.11">仕</tspan><tspan class="cls-49" x="462.1" y="32.11">事</tspan><tspan class="cls-83" x="482.43" y="32.11">に</tspan><tspan class="cls-89" x="502.97" y="32.11">就</tspan><tspan class="cls-45" x="523.95" y="32.11">い</tspan><tspan class="cls-66" x="543.84" y="32.11">てま</tspan><tspan class="cls-71" x="579.74" y="32.11">す</tspan><tspan x="597.47" y="32.11">。市役</tspan><tspan class="cls-76" x="662.34" y="32.11">所</tspan><tspan class="cls-84" x="681.15" y="32.11">を</tspan><tspan x="701.69" y="32.11">志</tspan><tspan class="cls-64" x="723.32" y="32.11">望し</tspan><tspan class="cls-37" x="759.65" y="32.11">た</tspan><tspan class="cls-38" x="779.32" y="32.11">の</tspan><tspan class="cls-89" x="798.78" y="32.11">は</tspan><tspan class="cls-49" x="819.76" y="32.11">、自</tspan><tspan class="cls-82" x="860.41" y="32.11">分</tspan><tspan x="881.6" y="32.11">が</tspan><tspan class="cls-73" x="903.23" y="32.11">生</tspan><tspan class="cls-52" x="922.26" y="32.11">ま</tspan><tspan x="939.77" y="32.11">れ</tspan><tspan class="cls-42" x="961.4" y="32.11">育</tspan><tspan class="cls-80" x="980.64" y="32.11">っ</tspan><tspan class="cls-88" x="999.02" y="32.11">た</tspan><tspan x="1020" y="32.11">地</tspan><tspan class="cls-49" x="1041.62" y="32.11">元</tspan><tspan class="cls-84" x="1061.95" y="32.11">の</tspan><tspan x="1082.49" y="32.11">活性</tspan><tspan class="cls-49" x="1125.74" y="32.11">化</tspan><tspan class="cls-84" x="1146.06" y="32.11">に</tspan><tspan x="1166.6" y="32.11">貢</tspan><tspan class="cls-64" x="1188.23" y="32.11">献し</tspan><tspan class="cls-51" x="1224.56" y="32.11">た</tspan><tspan class="cls-31" x="1244.88" y="32.11">い</tspan><tspan class="cls-79" x="1261.53" y="32.11">と</tspan><tspan class="cls-36" x="1279.92" y="32.11">考</tspan><tspan class="cls-75" x="1299.59" y="32.11">え</tspan><tspan class="cls-50" x="1318.4" y="32.11">た</tspan><tspan class="cls-78" x="1338.73" y="32.11">か</tspan><tspan class="cls-53" x="1357.33" y="32.11">ら</tspan><tspan class="cls-90" x="1374.84" y="32.11">で</tspan><tspan class="cls-71" x="1395.82" y="32.11">す</tspan><tspan class="cls-34" x="1413.55" y="32.11">。</tspan></tspan><tspan class="cls-9"><tspan x="0" y="96.34">課</tspan><tspan class="cls-84" x="21.62" y="96.34">題</tspan><tspan class="cls-93" x="42.17" y="96.34">や</tspan><tspan x="63.57" y="96.34">問題</tspan><tspan class="cls-73" x="106.82" y="96.34">点</tspan><tspan class="cls-87" x="125.85" y="96.34">を</tspan><tspan x="146.61" y="96.34">抽</tspan><tspan class="cls-81" x="168.23" y="96.34">出</tspan><tspan class="cls-21" x="186.61" y="96.34">し</tspan><tspan class="cls-83" x="202.83" y="96.34">て</tspan><tspan x="223.37" y="96.34">課題解</tspan><tspan class="cls-49" x="288.25" y="96.34">決</tspan><tspan class="cls-84" x="308.57" y="96.34">に</tspan><tspan class="cls-71" x="329.11" y="96.34">取</tspan><tspan class="cls-65" x="346.85" y="96.34">り</tspan><tspan class="cls-84" x="365.01" y="96.34">組</tspan><tspan class="cls-50" x="385.55" y="96.34">ん</tspan><tspan x="405.88" y="96.34">だ</tspan></tspan><tspan class="cls-8"><tspan x="0" y="128.46">社会学</tspan><tspan class="cls-49" x="64.87" y="128.46">科</tspan><tspan class="cls-84" x="85.2" y="128.46">の</tspan><tspan class="cls-49" x="105.74" y="128.46">学び</tspan><tspan class="cls-84" x="146.39" y="128.46">の</tspan><tspan x="166.94" y="128.46">特</tspan><tspan class="cls-49" x="188.56" y="128.46">徴</tspan><tspan class="cls-83" x="208.89" y="128.46">の</tspan><tspan class="cls-87" x="229.43" y="128.46">一</tspan><tspan class="cls-46" x="250.19" y="128.46">つ</tspan><tspan class="cls-89" x="270.3" y="128.46">は</tspan><tspan class="cls-38" x="291.27" y="128.46">、</tspan><tspan class="cls-16" x="310.73" y="128.46">フ</tspan><tspan class="cls-23" x="323.71" y="128.46">ィ</tspan><tspan class="cls-58" x="339.28" y="128.46">ール</tspan><tspan class="cls-54" x="373.44" y="128.46">ド</tspan><tspan class="cls-68" x="390.96" y="128.46">ワ</tspan><tspan class="cls-78" x="408.91" y="128.46">ー</tspan><tspan class="cls-70" x="427.5" y="128.46">クだ</tspan><tspan class="cls-81" x="462.97" y="128.46">と</tspan><tspan class="cls-89" x="481.35" y="128.46">思</tspan><tspan class="cls-64" x="502.32" y="128.46">い</tspan><tspan class="cls-68" x="520.49" y="128.46">ま</tspan><tspan class="cls-70" x="538.43" y="128.46">す</tspan><tspan x="556.17" y="128.46">。</tspan><tspan class="cls-84" x="577.79" y="128.46">私</tspan><tspan class="cls-89" x="598.33" y="128.46">は</tspan><tspan x="619.31" y="128.46">、長野県千曲</tspan><tspan class="cls-49" x="749.05" y="128.46">市</tspan><tspan class="cls-84" x="769.38" y="128.46">の</tspan><tspan x="789.92" y="128.46">山</tspan><tspan class="cls-49" x="811.54" y="128.46">間</tspan><tspan class="cls-41" x="831.87" y="128.46">に</tspan><tspan class="cls-68" x="851.11" y="128.46">あ</tspan><tspan class="cls-39" x="869.06" y="128.46">る</tspan><tspan x="888.52" y="128.46">姨捨棚</tspan><tspan class="cls-49" x="953.39" y="128.46">田</tspan><tspan class="cls-83" x="973.72" y="128.46">の</tspan><tspan x="994.26" y="128.46">実地調</tspan><tspan class="cls-49" x="1059.14" y="128.46">査</tspan><tspan class="cls-84" x="1079.46" y="128.46">に</tspan><tspan x="1100" y="128.46">参</tspan><tspan class="cls-64" x="1121.63" y="128.46">加</tspan><tspan class="cls-62" x="1139.79" y="128.46">し</tspan><tspan class="cls-19" x="1156.66" y="128.46">ま</tspan><tspan class="cls-64" x="1171.36" y="128.46">し</tspan><tspan class="cls-88" x="1189.53" y="128.46">た</tspan><tspan x="1210.5" y="128.46">。地</tspan><tspan class="cls-49" x="1253.75" y="128.46">元</tspan><tspan class="cls-84" x="1274.08" y="128.46">の</tspan><tspan class="cls-36" x="1294.62" y="128.46">人</tspan><tspan class="cls-53" x="1314.3" y="128.46">々</tspan><tspan class="cls-84" x="1331.81" y="128.46">の</tspan><tspan x="1352.35" y="128.46">意</tspan><tspan class="cls-76" x="1373.98" y="128.46">見</tspan><tspan class="cls-85" x="1392.79" y="128.46">を</tspan><tspan class="cls-81" x="1413.33" y="128.46">聞</tspan><tspan class="cls-73" x="1431.71" y="128.46">き</tspan><tspan class="cls-35" x="1450.74" y="128.46">、</tspan></tspan><tspan class="cls-8"><tspan class="cls-22" x="-2.81" y="160.57">そ</tspan><tspan class="cls-65" x="13.19" y="160.57">こ</tspan><tspan class="cls-78" x="31.35" y="160.57">か</tspan><tspan class="cls-40" x="49.95" y="160.57">ら</tspan><tspan x="69.41" y="160.57">地</tspan><tspan class="cls-49" x="91.04" y="160.57">域</tspan><tspan class="cls-84" x="111.36" y="160.57">の</tspan><tspan x="131.91" y="160.57">課</tspan><tspan class="cls-84" x="153.53" y="160.57">題</tspan><tspan class="cls-91" x="174.07" y="160.57">や</tspan><tspan x="195.48" y="160.57">問題</tspan><tspan class="cls-76" x="238.73" y="160.57">点</tspan><tspan class="cls-84" x="257.54" y="160.57">を</tspan><tspan x="278.08" y="160.57">抽</tspan><tspan class="cls-64" x="299.71" y="160.57">出</tspan><tspan class="cls-39" x="317.87" y="160.57">し</tspan><tspan x="337.33" y="160.57">、調査実</tspan><tspan class="cls-49" x="423.83" y="160.57">習</tspan><tspan class="cls-73" x="444.15" y="160.57">の</tspan><tspan class="cls-56" x="463.18" y="160.57">メ</tspan><tspan class="cls-42" x="480.48" y="160.57">ン</tspan><tspan class="cls-46" x="499.73" y="160.57">バ</tspan><tspan class="cls-78" x="519.84" y="160.57">ー</tspan><tspan class="cls-92" x="538.43" y="160.57">で</tspan><tspan x="559.84" y="160.57">課題解</tspan><tspan class="cls-49" x="624.71" y="160.57">決</tspan><tspan class="cls-84" x="645.04" y="160.57">に</tspan><tspan class="cls-71" x="665.58" y="160.57">取</tspan><tspan class="cls-66" x="683.31" y="160.57">り</tspan><tspan class="cls-49" x="701.26" y="160.57">組</tspan><tspan class="cls-47" x="721.59" y="160.57">ん</tspan><tspan class="cls-91" x="741.7" y="160.57">だ</tspan><tspan x="763.1" y="160.57">貴</tspan><tspan class="cls-38" x="784.73" y="160.57">重</tspan><tspan class="cls-86" x="804.19" y="160.57">な</tspan><tspan x="824.95" y="160.57">経</tspan><tspan class="cls-84" x="846.57" y="160.57">験</tspan><tspan class="cls-89" x="867.11" y="160.57">は</tspan><tspan x="888.09" y="160.57">、現在、地域住</tspan><tspan class="cls-49" x="1039.46" y="160.57">民</tspan><tspan class="cls-83" x="1059.78" y="160.57">の</tspan><tspan class="cls-36" x="1080.32" y="160.57">方</tspan><tspan class="cls-53" x="1100" y="160.57">々</tspan><tspan class="cls-84" x="1117.52" y="160.57">の</tspan><tspan x="1138.06" y="160.57">意</tspan><tspan class="cls-76" x="1159.68" y="160.57">見</tspan><tspan class="cls-85" x="1178.5" y="160.57">を</tspan><tspan class="cls-81" x="1199.04" y="160.57">聞</tspan><tspan class="cls-73" x="1217.42" y="160.57">き</tspan><tspan x="1236.45" y="160.57">、</tspan><tspan class="cls-36" x="1258.07" y="160.57">人</tspan><tspan class="cls-53" x="1277.75" y="160.57">々</tspan><tspan class="cls-84" x="1295.27" y="160.57">に</tspan><tspan class="cls-71" x="1315.81" y="160.57">寄</tspan><tspan class="cls-68" x="1333.54" y="160.57">り</tspan><tspan class="cls-42" x="1351.49" y="160.57">添</tspan><tspan class="cls-81" x="1370.73" y="160.57">っ</tspan><tspan class="cls-89" x="1389.11" y="160.57">た</tspan><tspan x="1410.09" y="160.57">課題解</tspan></tspan><tspan class="cls-8"><tspan class="cls-76" x="0" y="192.68">決</tspan><tspan class="cls-48" x="18.81" y="192.68">を</tspan><tspan class="cls-67" x="38.92" y="192.68">す</tspan><tspan class="cls-38" x="56.87" y="192.68">る</tspan><tspan x="76.33" y="192.68">仕</tspan><tspan class="cls-49" x="97.96" y="192.68">事</tspan><tspan class="cls-83" x="118.28" y="192.68">に</tspan><tspan class="cls-81" x="138.83" y="192.68">生</tspan><tspan class="cls-53" x="157.21" y="192.68">き</tspan><tspan class="cls-44" x="174.72" y="192.68">て</tspan><tspan class="cls-77" x="194.61" y="192.68">い</tspan><tspan class="cls-24" x="213.43" y="192.68">る</tspan><tspan class="cls-81" x="229" y="192.68">と</tspan><tspan x="247.38" y="192.68">実</tspan><tspan class="cls-64" x="269" y="192.68">感</tspan><tspan class="cls-22" x="287.17" y="192.68">し</tspan><tspan class="cls-44" x="303.17" y="192.68">て</tspan><tspan class="cls-63" x="323.06" y="192.68">い</tspan><tspan class="cls-68" x="341.22" y="192.68">ま</tspan><tspan class="cls-71" x="359.17" y="192.68">す</tspan><tspan class="cls-35" x="376.9" y="192.68">。</tspan></tspan><tspan class="cls-8"><tspan x="0" y="224.8">現</tspan><tspan class="cls-84" x="21.62" y="224.8">在</tspan><tspan class="cls-89" x="42.17" y="224.8">は</tspan><tspan x="63.14" y="224.8">、地</tspan><tspan class="cls-49" x="106.39" y="224.8">元</tspan><tspan class="cls-46" x="126.71" y="224.8">で</tspan><tspan class="cls-69" x="146.82" y="224.8">あ</tspan><tspan class="cls-39" x="164.77" y="224.8">る</tspan><tspan x="184.23" y="224.8">白岡</tspan><tspan class="cls-82" x="227.48" y="224.8">市</tspan><tspan class="cls-88" x="248.67" y="224.8">が</tspan><tspan class="cls-42" x="269.65" y="224.8">、</tspan><tspan class="cls-25" x="288.9" y="224.8">さ</tspan><tspan class="cls-64" x="304.68" y="224.8">ら</tspan><tspan class="cls-83" x="322.84" y="224.8">に</tspan><tspan x="343.39" y="224.8">住</tspan><tspan class="cls-73" x="365.01" y="224.8">み</tspan><tspan class="cls-66" x="384.04" y="224.8">よ</tspan><tspan class="cls-32" x="401.99" y="224.8">い</tspan><tspan class="cls-28" x="418.64" y="224.8">と</tspan><tspan class="cls-60" x="433.99" y="224.8">こ</tspan><tspan class="cls-74" x="450.86" y="224.8">ろ</tspan><tspan class="cls-83" x="469.89" y="224.8">に</tspan><tspan x="490.43" y="224.8">発</tspan><tspan class="cls-64" x="512.05" y="224.8">展</tspan><tspan class="cls-22" x="530.22" y="224.8">し</tspan><tspan class="cls-45" x="546.22" y="224.8">て</tspan><tspan class="cls-56" x="566.11" y="224.8">い</tspan><tspan class="cls-53" x="583.41" y="224.8">く</tspan><tspan x="600.93" y="224.8">一</tspan><tspan class="cls-49" x="622.55" y="224.8">助</tspan><tspan class="cls-79" x="642.88" y="224.8">に</tspan><tspan class="cls-61" x="661.26" y="224.8">な</tspan><tspan class="cls-31" x="678.12" y="224.8">り</tspan><tspan class="cls-50" x="694.77" y="224.8">た</tspan><tspan class="cls-32" x="715.1" y="224.8">い</tspan><tspan class="cls-80" x="731.75" y="224.8">と</tspan><tspan class="cls-36" x="750.13" y="224.8">考</tspan><tspan class="cls-53" x="769.81" y="224.8">え</tspan><tspan class="cls-45" x="787.32" y="224.8">て</tspan><tspan class="cls-63" x="807.22" y="224.8">い</tspan><tspan class="cls-68" x="825.38" y="224.8">ま</tspan><tspan class="cls-71" x="843.33" y="224.8">す</tspan><tspan class="cls-35" x="861.06" y="224.8">。</tspan></tspan><tspan class="cls-9"><tspan x="0" y="289.02">興</tspan><tspan class="cls-84" x="21.62" y="289.02">味</tspan><tspan class="cls-42" x="42.17" y="289.02">の</tspan><tspan class="cls-64" x="61.41" y="289.02">あ</tspan><tspan class="cls-31" x="79.58" y="289.02">る</tspan><tspan class="cls-26" x="96.23" y="289.02">こ</tspan><tspan class="cls-71" x="111.58" y="289.02">と</tspan><tspan class="cls-93" x="129.31" y="289.02">や</tspan><tspan class="cls-49" x="150.72" y="289.02">学びた</tspan><tspan class="cls-68" x="211.7" y="289.02">い</tspan><tspan class="cls-27" x="229.65" y="289.02">こ</tspan><tspan class="cls-33" x="245" y="289.02">と</tspan><tspan class="cls-87" x="261.22" y="289.02">を見</tspan><tspan class="cls-39" x="302.73" y="289.02">つけ</tspan><tspan class="cls-89" x="341.66" y="289.02">や</tspan><tspan class="cls-84" x="362.63" y="289.02">す</tspan><tspan class="cls-93" x="383.17" y="289.02">い</tspan></tspan><tspan class="cls-8"><tspan x="0" y="321.14">立正大学文学</tspan><tspan class="cls-49" x="129.74" y="321.14">部</tspan><tspan class="cls-38" x="150.07" y="321.14">に</tspan><tspan class="cls-89" x="169.53" y="321.14">は</tspan><tspan x="190.51" y="321.14">幅</tspan><tspan class="cls-89" x="212.13" y="321.14">広</tspan><tspan class="cls-92" x="233.1" y="321.14">い</tspan><tspan x="254.51" y="321.14">領</tspan><tspan class="cls-76" x="276.14" y="321.14">域</tspan><tspan class="cls-43" x="294.95" y="321.14">を</tspan><tspan class="cls-38" x="314.19" y="321.14">カ</tspan><tspan class="cls-46" x="333.66" y="321.14">バ</tspan><tspan class="cls-36" x="353.77" y="321.14">ー</tspan><tspan class="cls-68" x="373.44" y="321.14">す</tspan><tspan class="cls-39" x="391.39" y="321.14">る</tspan><tspan x="410.85" y="321.14">学</tspan><tspan class="cls-82" x="432.48" y="321.14">科</tspan><tspan class="cls-49" x="453.67" y="321.14">が</tspan><tspan class="cls-31" x="473.99" y="321.14">あり</tspan><tspan x="507.29" y="321.14">、</tspan><tspan class="cls-49" x="528.92" y="321.14">特</tspan><tspan class="cls-83" x="549.24" y="321.14">に</tspan><tspan x="569.79" y="321.14">社会学</tspan><tspan class="cls-38" x="634.66" y="321.14">科</tspan><tspan class="cls-72" x="654.12" y="321.14">な</tspan><tspan class="cls-64" x="671.85" y="321.14">ら</tspan><tspan class="cls-50" x="690.02" y="321.14">自</tspan><tspan class="cls-82" x="710.34" y="321.14">分</tspan><tspan x="731.53" y="321.14">が興</tspan><tspan class="cls-49" x="774.78" y="321.14">味</tspan><tspan class="cls-42" x="795.11" y="321.14">の</tspan><tspan class="cls-69" x="814.35" y="321.14">あ</tspan><tspan class="cls-29" x="832.3" y="321.14">る</tspan><tspan class="cls-18" x="848.73" y="321.14">こ</tspan><tspan class="cls-55" x="863.87" y="321.14">と</tspan><tspan class="cls-93" x="881.17" y="321.14">や</tspan><tspan class="cls-49" x="902.58" y="321.14">学びた</tspan><tspan class="cls-66" x="963.56" y="321.14">い</tspan><tspan class="cls-18" x="981.51" y="321.14">こ</tspan><tspan class="cls-24" x="996.64" y="321.14">と</tspan><tspan class="cls-84" x="1012.21" y="321.14">を</tspan><tspan class="cls-87" x="1032.75" y="321.14">見</tspan><tspan class="cls-42" x="1053.51" y="321.14">つ</tspan><tspan class="cls-39" x="1072.76" y="321.14">け</tspan><tspan class="cls-89" x="1092.22" y="321.14">や</tspan><tspan class="cls-84" x="1113.19" y="321.14">す</tspan><tspan class="cls-32" x="1133.74" y="321.14">い</tspan><tspan class="cls-81" x="1150.39" y="321.14">と</tspan><tspan class="cls-64" x="1168.77" y="321.14">思</tspan><tspan class="cls-57" x="1186.93" y="321.14">う</tspan><tspan class="cls-42" x="1204.02" y="321.14">の</tspan><tspan class="cls-50" x="1223.26" y="321.14">で</tspan><tspan x="1243.59" y="321.14">、</tspan><tspan class="cls-49" x="1265.21" y="321.14">ぜ</tspan><tspan class="cls-46" x="1285.54" y="321.14">ひ</tspan><tspan class="cls-92" x="1305.65" y="321.14">お</tspan><tspan class="cls-45" x="1327.06" y="321.14">勧</tspan><tspan class="cls-57" x="1346.95" y="321.14">め</tspan><tspan class="cls-59" x="1364.03" y="321.14">し</tspan><tspan class="cls-68" x="1380.9" y="321.14">ま</tspan><tspan class="cls-72" x="1398.85" y="321.14">す</tspan><tspan class="cls-73" x="1416.58" y="321.14">。</tspan><tspan class="cls-57" x="1435.61" y="321.14">ま</tspan><tspan class="cls-88" x="1452.69" y="321.14">た</tspan><tspan class="cls-35" x="1473.66" y="321.14">、</tspan></tspan><tspan class="cls-8"><tspan x="0" y="353.25">先生</tspan><tspan class="cls-42" x="43.25" y="353.25">方</tspan><tspan class="cls-78" x="62.49" y="353.25">も</tspan><tspan class="cls-73" x="81.09" y="353.25">明</tspan><tspan class="cls-26" x="100.12" y="353.25">る</tspan><tspan class="cls-53" x="115.47" y="353.25">く</tspan><tspan x="132.99" y="353.25">、</tspan><tspan class="cls-64" x="154.61" y="353.25">楽</tspan><tspan class="cls-20" x="172.77" y="353.25">し</tspan><tspan class="cls-54" x="186.61" y="353.25">く</tspan><tspan x="204.13" y="353.25">会</tspan><tspan class="cls-82" x="225.75" y="353.25">話</tspan><tspan class="cls-68" x="246.94" y="353.25">す</tspan><tspan class="cls-30" x="264.89" y="353.25">る</tspan><tspan class="cls-17" x="281.33" y="353.25">こ</tspan><tspan class="cls-68" x="296.46" y="353.25">と</tspan><tspan class="cls-49" x="314.41" y="353.25">が</tspan><tspan class="cls-64" x="334.74" y="353.25">で</tspan><tspan class="cls-30" x="352.9" y="353.25">き</tspan><tspan class="cls-68" x="369.33" y="353.25">ま</tspan><tspan class="cls-71" x="387.28" y="353.25">す</tspan><tspan x="405.01" y="353.25">。文学</tspan><tspan class="cls-38" x="469.89" y="353.25">部</tspan><tspan class="cls-71" x="489.35" y="353.25">な</tspan><tspan class="cls-39" x="507.08" y="353.25">ら</tspan><tspan x="526.54" y="353.25">、</tspan><tspan class="cls-64" x="548.16" y="353.25">楽</tspan><tspan class="cls-20" x="566.33" y="353.25">し</tspan><tspan class="cls-53" x="580.17" y="353.25">く</tspan><tspan x="597.68" y="353.25">興</tspan><tspan class="cls-76" x="619.31" y="353.25">味</tspan><tspan class="cls-85" x="638.12" y="353.25">を</tspan><tspan class="cls-42" x="658.66" y="353.25">持</tspan><tspan class="cls-64" x="677.91" y="353.25">っ</tspan><tspan class="cls-84" x="696.07" y="353.25">て</tspan><tspan class="cls-87" x="716.61" y="353.25">学</tspan><tspan class="cls-78" x="737.37" y="353.25">ぶ</tspan><tspan class="cls-18" x="755.97" y="353.25">こ</tspan><tspan class="cls-68" x="771.11" y="353.25">と</tspan><tspan class="cls-49" x="789.05" y="353.25">が</tspan><tspan class="cls-64" x="809.38" y="353.25">で</tspan><tspan class="cls-30" x="827.54" y="353.25">き</tspan><tspan class="cls-24" x="843.98" y="353.25">る</tspan><tspan class="cls-81" x="859.55" y="353.25">と</tspan><tspan class="cls-89" x="877.93" y="353.25">思</tspan><tspan class="cls-64" x="898.9" y="353.25">い</tspan><tspan class="cls-69" x="917.07" y="353.25">ま</tspan><tspan class="cls-71" x="935.01" y="353.25">す</tspan><tspan class="cls-34" x="952.75" y="353.25">。</tspan></tspan></text>
      <g>
        <path class="cls-6" d="M122.48,185.52c0,2.19-.74,3.98-3.76,3.98s-4.59-.7-4.59-3.98v-8.87c-.26.09-.61.22-1.27.22-2.58,0-4.5-2.41-4.5-4.72s1.44-3.28,3.72-4.98c1.01-.74,3.58-2.67,5.38-5.64.17-.26.26-.39.26-.52s-.17-.39-.39-.39h-4.42c-.96,0-4.02,0-4.02-3.63,0-3.1,1.36-4.11,4.02-4.11h1.22v-1.66c0-1.4.17-3.98,3.8-3.98,3.28,0,4.5,1.09,4.5,3.98v1.66c4.55,0,4.9,2.8,4.81,5.2.57-.44,1.35-.61,2.58-.61h3.98v-6.08c0-1.62.35-3.98,3.89-3.98,3.02,0,4.63.83,4.63,3.98v6.08h3.8c1.49,0,4.28.17,4.28,3.89,0,3.41-1.31,4.55-4.28,4.55h-3.8v14.43h4.24c1.44,0,4.24.17,4.24,3.85,0,3.24-1.22,4.42-4.24,4.42h-17.62c-1.57,0-4.72-.13-4.72-3.85,0-3.28,1.44-4.42,4.72-4.42h4.85v-14.43h-3.98c-2.23,0-3.58-.74-3.93-3.02-1.05,2.01-1.71,2.93-2.01,3.45.48.52,2.8,2.71,3.28,3.19.74.74,1.57,1.49,1.57,2.71,0,1.62-1.53,3.98-3.76,3.98-.57,0-1.57-.22-2.49-1.05v10.36Z"/>
        <path class="cls-6" d="M169.04,165.32c-.96,0-3.02-.04-3.72-2.05-2.67,1.44-4.15,2.05-5.29,2.05-2.36,0-4.2-2.27-4.2-4.94,0-2.4,1.49-3.15,2.36-3.5,7.12-2.93,8.87-3.89,12.24-7.04,1.57-1.44,3.1-2.84,6.56-2.84s4.98,1.4,6.51,2.84c3.15,2.93,5.55,4.33,12.02,6.91,1.22.48,2.62,1.09,2.62,3.67s-1.97,4.85-4.02,4.85c-1.09,0-2.62-.44-5.55-2.1-.7,2.14-2.84,2.14-3.76,2.14h-15.78ZM189.9,174.9c1.31,1.36,2.54,2.89,3.72,4.42,2.93,3.76,2.93,4.5,2.93,5.25,0,3.19-3.5,4.5-5.16,4.5s-2.23-.83-3.32-2.49c-3.98.57-5.9.74-11.15,1.14-2.01.13-14.51,1.01-15.52,1.01-2.8,0-3.93-1.49-3.93-4.28,0-.74.13-3.06,2.19-3.67.61-.17,2.8-.26,4.2-.31.57-1.35,1.31-3.8,1.79-5.55h-4.68c-2.67,0-3.98-1.05-3.98-4.2,0-3.72,3.02-3.72,3.98-3.72h32c2.8,0,4.02,1.18,4.02,4.2,0,3.72-3.02,3.72-4.02,3.72h-3.06ZM174.64,174.9c-.35.83-1.92,4.63-2.23,5.38,4.94-.09,5.55-.13,11.06-.39-1.18-1.57-1.36-1.84-1.36-2.71,0-.96.44-1.57,1.22-2.27h-8.7ZM181.29,158.16c-1.31-1.09-2.58-2.32-3.19-2.89-.26-.26-.7-.61-1.09-.61-.44,0-.79.31-1.44.92-1.01.96-2.27,2.1-2.89,2.58h8.61Z"/>
        <path class="cls-6" d="M220.33,153.22c-.09-.17-.31-.83-.48-1.22-.13-.39-.35-.96-.35-1.66,0-2.05,2.45-3.06,4.72-3.06,1.92,0,2.75.57,3.67,2.58.31.7.96,2.05,1.14,3.37h2.54c.26-.48.48-.96,1.18-2.93.61-1.79,1.22-2.8,3.54-2.8,2.71,0,4.94,1.4,4.94,3.54,0,.74-.48,1.62-.83,2.23,2.45.48,3.45,2.75,3.45,5.64v2.71c0,2.32-.79,4.33-4.81,3.89-.17,2.27-1.31,2.97-2.32,3.58-2.14,1.4-3.72,2.14-4.55,2.49h9.05c.88,0,3.98,0,3.98,3.67,0,3.41-2.49,3.72-3.98,3.72h-12.9v4.59c0,5.33-2.27,5.99-8,5.99-5.12,0-5.68-.13-6.38-.48-1.18-.52-1.84-2.14-1.84-3.67,0-2.49,1.49-3.72,3.8-3.72.44,0,2.27.09,2.67.04.96-.09.96-.57.96-1.62v-1.14h-12.81c-.87,0-3.98,0-3.98-3.54,0-2.8,1.4-3.85,3.98-3.85h12.85c.09-.52.39-1.18,1.62-1.62.61-.22,1.36-.48,1.36-.79,0-.17-.13-.35-.35-.35h-10.05c-1,0-3.15,0-3.32-3.32-3.41.39-4.9-1.05-4.9-3.8v-2.8c0-1.66.09-4.94,3.93-5.55-.26-.53-.83-1.53-.83-2.54,0-1.57,1.92-3.23,4.68-3.23,1.31,0,2.58.13,3.89,2.8.35.74.87,2.05,1.05,2.84h3.67ZM212.06,161.74h22.38c.7,0,.79,0,1.31.04v-1.14c0-.26-.26-.35-.39-.35h-22.95c-.13,0-.35.09-.35.35v1.09Z"/>
        <path class="cls-6" d="M280.75,170.57v-19.19c0-.96,0-4.02,3.89-4.02,3.5,0,4.37,1.62,4.37,4.02v17.79c.52,0,1.57-.04,2.4.96.7.79,1.09,2.23,1.09,3.63,0,3.15-2.01,3.5-3.5,3.76v7.87c0,.96,0,4.02-3.89,4.02-3.41,0-4.37-1.53-4.37-4.02v-6.38l-8.96,1.62c-.26.04-.61.09-.88.09-2.75,0-3.32-3.15-3.41-4.11-.31.17-.74.39-1.49.39-1.18,0-1.71-.57-2.1-1.05v9.35c0,.83,0,4.02-3.85,4.02s-3.93-2.71-3.93-4.02v-3.06c-.31.48-1.05,1.49-2.45,1.49-2.32,0-3.89-2.45-3.89-4.42,0-1.66.66-2.62,2.05-4.68,2.05-3.02,3.1-5.9,4.11-8.61h-1.66c-.87,0-4.11,0-4.11-3.76s3.19-3.8,4.11-3.8h1.84v-1.84c-.48.04-1.49.13-2.01.13-1.18,0-3.67-.17-3.67-3.85,0-3.37,2.14-3.5,5.2-3.67,2.49-.13,3.58-.35,6.78-.92.44-.09,1.66-.35,2.49-.35,2.75,0,3.58,2.1,3.58,3.8,0,2.97-1.75,3.28-4.59,3.8v2.88c3.28,0,3.85,2.36,3.85,3.8,0,1.05-.31,3.67-3.67,3.76,1.27,2.05,1.97,2.75,4.11,5.03.35.39.7.92.92,1.71.39-.17.87-.31,1.31-.39l10.32-1.79ZM275.98,162.18c2.1,1.66,2.8,2.62,2.8,4.02,0,2.23-2.36,4.37-4.5,4.37-1.18,0-1.75-.61-3.41-2.27-1.88-1.88-2.58-2.54-2.58-3.93,0-1.53,1.57-3.98,4.33-3.98.61,0,1.49.26,3.37,1.79ZM277.64,150.99c2.84,2.32,2.89,3.28,2.89,3.98,0,2.27-2.14,4.28-4.11,4.28-1.71,0-2.71-1.05-3.8-2.1-.31-.31-1.66-1.49-1.92-1.75-.74-.74-.83-1.44-.83-2.01,0-1.31,1.09-4.15,4.42-4.15.96,0,2.58,1.09,3.37,1.75Z"/>
      </g>
    </g>
  </g>
</svg>